<?xml version="1.0" encoding="UTF-8"?>
<svg width="350px" height="50px" viewBox="0 0 350 50" version="1.1" xmlns="http://www.w3.org/2000/svg" xmlns:xlink="http://www.w3.org/1999/xlink">
    <!-- Generator: Sketch 41 (35326) - http://www.bohemiancoding.com/sketch -->
    <title>tile_break</title>
    <desc>Created with Sketch.</desc>
    <defs></defs>
    <g id="маркетинг" stroke="none" stroke-width="1" fill="none" fill-rule="evenodd" fill-opacity="0.478742074">
        <g id="tile_break" fill="#FFF6AB">
            <rect id="Rectangle-7-Copy-4" x="1" y="1" width="48" height="48"></rect>
            <polygon id="Fill-21" points="52 11.704 52.871 2 60.225 2.661 62.571 15.606"></polygon>
            <polygon id="Fill-22" points="52 18.627 52.101 14 59.282 16.11 57.94 21.189"></polygon>
            <polygon id="Fill-23" points="57.488 23.617 56.439 34.578 53.103 36.8 51 22"></polygon>
            <polygon id="Fill-24" points="60.248 18 65.237 19.456 67.641 28.911 56 34.201"></polygon>
            <polygon id="Fill-25" points="61.378 48.691 51.124 48.812 51 38.36 57.811 35 63.335 38.653"></polygon>
            <polygon id="Fill-26" points="66.335 40 71.804 44.637 72.376 48.15 64 47.248"></polygon>
            <polygon id="Fill-27" points="60 34.372 68.257 30 72.043 41.846"></polygon>
            <path d="M75,49.023 L75.545,49 L75,49.023 Z" id="Fill-28"></path>
            <polygon id="Fill-29" points="74.656 28.98 70.496 30.266 68 20.786 74.605 19"></polygon>
            <polygon id="Fill-30" points="77.049 18.581 79.287 18 89.963 24.504 77 28.37"></polygon>
            <polygon id="Fill-31" points="71.958 36.7 71 31.556 82.089 29 80.249 39.195"></polygon>
            <polygon id="Fill-32" points="80.79 40.173 80.638 48.181 75.4 48.498 72 39"></polygon>
            <polygon id="Fill-33" points="96.652 39 96.606 47.717 84 47.651 84.554 41.112"></polygon>
            <polygon id="Fill-34" points="85 38.377 85.062 28.621 91.283 26 97.924 29.113 98.351 34.954"></polygon>
            <polygon id="Fill-35" points="89.542 22.208 79 16.876 93.098 12"></polygon>
            <polygon id="Fill-36" points="94.294 13.936 98.039 13 97.485 25.281 91 21.249"></polygon>
            <polygon id="Fill-37" points="88.214 1 98.495 2.035 97.698 9.952 84 12.582"></polygon>
            <polygon id="Fill-38" points="67 1 86.122 1.07 83.845 9.902"></polygon>
            <polygon id="Fill-39" points="65.701 13.074 63 3 66.166 3.068 71.092 5.784"></polygon>
            <polygon id="Fill-40" points="73.383 5 82.864 9.884 81.857 13.968 68.19 18.148 67 14.162"></polygon>
            <polygon id="Fill-41" points="103 11.403 104.183 2 111.309 2.896 113.142 15.562"></polygon>
            <polygon id="Fill-42" points="102 19.448 102.031 15 108.962 16.926 107.745 21.826"></polygon>
            <polygon id="Fill-43" points="106.215 24.186 105.557 32.968 102.926 34.8 101 23"></polygon>
            <polygon id="Fill-44" points="111.108 18 115.507 19.396 117.446 27.841 107 32.297"></polygon>
            <polygon id="Fill-45" points="112.09 48.629 102 48.273 102.362 37.988 109.216 35 114.479 38.848"></polygon>
            <polygon id="Fill-46" points="116.397 40 120.939 44.318 121.264 47.411 114 46.208"></polygon>
            <polygon id="Fill-47" points="111 35.162 118.011 31 121.816 41.164"></polygon>
            <path d="M125,49.008 L125.485,49 L125,49.008 Z" id="Fill-48"></path>
            <polygon id="Fill-49" points="124.548 28.117 120.666 29.023 119 20.205 125.147 19"></polygon>
            <polygon id="Fill-50" points="128 18.55 130.052 18 139.908 23.901 128.024 27.545"></polygon>
            <polygon id="Fill-51" points="122.582 35.508 122 30.707 132.379 29 130.083 38.296"></polygon>
            <polygon id="Fill-52" points="130.301 40.816 130.317 47.452 125.984 47.807 123 40"></polygon>
            <polygon id="Fill-53" points="145.573 40 145.083 46.281 136 45.573 136.742 40.888"></polygon>
            <polygon id="Fill-54" points="137 37.023 137.054 29.906 141.594 28 146.436 30.276 146.742 34.537"></polygon>
            <polygon id="Fill-55" points="139.289 20.918 130 16.844 141.857 12"></polygon>
            <polygon id="Fill-56" points="145.182 15.759 147.839 15 147.735 23.798 143 21.068"></polygon>
            <polygon id="Fill-57" points="139.512 2 148.726 2.699 148.188 9.794 136 12.448"></polygon>
            <polygon id="Fill-58" points="133.085 9.254 135.255 1.313 118 1"></polygon>
            <polygon id="Fill-59" points="115.965 11.456 114 4 116.341 4.06 119.974 6.084"></polygon>
            <polygon id="Fill-60" points="123.87 5 133.025 10.397 131.791 14.402 117.958 17.785 117 13.752"></polygon>
            <polygon id="Fill-61" points="153 11.858 154.452 3 161.165 4.1 162.452 16.153"></polygon>
            <polygon id="Fill-62" points="152 19.366 152.185 15 158.923 17.132 157.557 21.9"></polygon>
            <polygon id="Fill-63" points="155.666 25.836 155.199 32.011 153.348 33.298 152 25"></polygon>
            <polygon id="Fill-64" points="161.2 21 164.419 21.771 166.242 27.712 159 31.439"></polygon>
            <polygon id="Fill-65" points="160.126 46.695 153 46.232 153.472 38.969 158.38 37 162.02 39.83"></polygon>
            <polygon id="Fill-66" points="167.072 41 171.131 44.787 171.445 47.524 165 46.519"></polygon>
            <polygon id="Fill-67" points="162 35.533 167.684 32 170.976 40.278"></polygon>
            <path d="M175.371,49.014 L175,49 L175.371,49.014 Z" id="Fill-68"></path>
            <polygon id="Fill-69" points="173.479 27.796 170.638 28.645 169 22.174 173.51 21"></polygon>
            <polygon id="Fill-70" points="178.607 18.397 180.665 18 189.951 24.499 178 27.251"></polygon>
            <polygon id="Fill-71" points="174.458 35.772 174 32.314 181.471 31 179.89 37.722"></polygon>
            <polygon id="Fill-72" points="180.367 41.562 180.515 47.333 176.753 47.73 174 41"></polygon>
            <polygon id="Fill-73" points="195.259 41 194.562 46.229 187 45.22 187.835 41.338"></polygon>
            <polygon id="Fill-74" points="187.378 36.691 187 30.051 191.119 28 195.771 29.831 196.313 33.786"></polygon>
            <polygon id="Fill-75" points="189.193 20.884 182 17.913 191.015 14"></polygon>
            <polygon id="Fill-76" points="194.673 16.777 196.957 16 197.249 23.678 193 21.503"></polygon>
            <polygon id="Fill-77" points="190.011 3 197.35 3.741 196.78 9.393 187 11.268"></polygon>
            <polygon id="Fill-78" points="170 2 183.059 2.115 181.473 8.139"></polygon>
            <polygon id="Fill-79" points="166.277 10.724 165 4 167.068 4.199 170.159 6.216"></polygon>
            <polygon id="Fill-80" points="174.837 7 182.082 11.657 180.958 14.862 169.649 17.169 169 13.873"></polygon>
            <polygon id="Fill-81" points="205 11.433 205.624 5 210.499 5.473 211.994 14.071"></polygon>
            <polygon id="Fill-82" points="204.056 19.56 204 16 209.582 17.414 208.697 21.358"></polygon>
            <polygon id="Fill-83" points="206.095 26.47 206.085 31.626 204.627 32.808 203 26"></polygon>
            <polygon id="Fill-84" points="212.432 23 214.655 23.506 215.957 27.582 211 30.205"></polygon>
            <polygon id="Fill-85" points="210.686 46.71 205 46.42 205.296 40.624 209.187 39 212.12 41.217"></polygon>
            <polygon id="Fill-86" points="217.433 42 221.257 45.039 221.723 47.418 216 46.985"></polygon>
            <polygon id="Fill-87" points="214 36.211 217.648 34 219.687 39.3"></polygon>
            <polygon id="Fill-89" points="224.027 27.327 221.726 27.748 221 22.531 224.637 22"></polygon>
            <polygon id="Fill-90" points="230.269 20.367 231.903 20 239.479 24.964 230 27.454"></polygon>
            <polygon id="Fill-91" points="226.247 36.151 226 33.757 231.179 33 229.955 37.604"></polygon>
            <polygon id="Fill-92" points="230.762 41.772 230.66 47.022 227.226 47.228 225 41"></polygon>
            <polygon id="Fill-93" points="244.93 43.049 244.242 46.674 239 45.679 239.732 43"></polygon>
            <polygon id="Fill-94" points="239.797 36.917 239 31.88 241.985 30 245.675 31.041 246.391 34.017"></polygon>
            <polygon id="Fill-95" points="238.191 20.027 234 18.167 239.369 16"></polygon>
            <polygon id="Fill-96" points="246.239 18.316 245 20.948 247.326 22.45 247.603 18"></polygon>
            <polygon id="Fill-97" points="241.266 5 246.366 5.665 245.854 9.593 239 10.701"></polygon>
            <polygon id="Fill-98" points="223 3.499 232.567 3 231.674 7.481"></polygon>
            <polygon id="Fill-99" points="216.765 10.982 216 5 217.809 5.285 220.42 7.224"></polygon>
            <polygon id="Fill-100" points="225.862 8 231.224 11.968 230.192 14.388 221.334 15.595 221 13.014"></polygon>
            <polygon id="Fill-101" points="256 9.797 256.214 6 259.091 6.162 260.175 11.182"></polygon>
            <polygon id="Fill-102" points="253.161 17.904 253 15 257.602 15.974 257.007 19.222"></polygon>
            <polygon id="Fill-103" points="254.717 26.338 254.831 30.846 253.584 31.914 252 26"></polygon>
            <polygon id="Fill-104" points="261.061 22 262.819 22.378 263.885 25.581 260 27.698"></polygon>
            <polygon id="Fill-105" points="259.134 43.723 255 43.157 255.577 38.944 258.519 38 260.523 39.801"></polygon>
            <polygon id="Fill-106" points="266.728 40 270.314 43.242 270.625 45.621 265 44.834"></polygon>
            <polygon id="Fill-107" points="264 35.799 266.38 34 268.178 37.541"></polygon>
            <path d="M275.161,48.028 L275,48 L275.161,48.028 Z" id="Fill-108"></path>
            <polygon id="Fill-109" points="272.588 26.055 270.88 26.519 270 22.632 272.709 22"></polygon>
            <polygon id="Fill-110" points="281.007 20.251 281.962 20 286.531 22.762 281 24.432"></polygon>
            <polygon id="Fill-111" points="275.227 33.827 275 31.69 279.622 31 278.541 35.114"></polygon>
            <polygon id="Fill-112" points="279.242 41.122 279.567 44.941 277.089 45.351 275 41"></polygon>
            <polygon id="Fill-113" points="292.852 42 292.563 44.463 289 44.045 289.364 42.214"></polygon>
            <polygon id="Fill-114" points="289.359 33.98 289 30.246 291.277 29 293.938 29.93 294.331 32.147"></polygon>
            <polygon id="Fill-115" points="286.548 18.438 283 16.624 287.763 15"></polygon>
            <polygon id="Fill-116" points="294.61 18.25 295.401 18 295.444 20.641 294 19.862"></polygon>
            <polygon id="Fill-117" points="290.068 4 294.703 4.612 294.232 8.181 288 9.18"></polygon>
            <polygon id="Fill-118" points="273 3.248 279.524 3 278.873 6.045"></polygon>
            <polygon id="Fill-119" points="266.559 9.511 266 4 267.654 4.305 270.005 6.148"></polygon>
            <polygon id="Fill-120" points="275.109 9 278.087 11.598 277.362 12.978 272.074 13.27 272 11.73"></polygon>
            <polygon id="Fill-1" points="308 9.213 308.007 6 310.442 6.005 311.585 10.191"></polygon>
            <polygon id="Fill-2" points="305 17.617 305.04 15 309.109 16.166 308.369 19.044"></polygon>
            <polygon id="Fill-3" points="304 26.019 306.029 30.91 306.977 29.853 306.369 26"></polygon>
            <polygon id="Fill-4" points="313.67 23 314.726 23.237 315.349 25.17 313 26.422"></polygon>
            <polygon id="Fill-5" points="310.836 42.906 308 42.579 308.333 39.688 310.332 39 311.729 40.202"></polygon>
            <polygon id="Fill-6" points="319.023 41 321.754 43.17 322.087 44.87 318 44.561"></polygon>
            <polygon id="Fill-7" points="317 34.957 318.306 34 319.252 35.937"></polygon>
            <path d="M327.112,48.014 L327,48 L327.112,48.014 Z" id="Fill-8"></path>
            <polygon id="Fill-9" points="323.845 25.008 322.567 25.314 322 22.41 324.024 22"></polygon>
            <polygon id="Fill-10" points="333 21.23 333.671 21 337.088 22.737 333.215 24.224"></polygon>
            <polygon id="Fill-11" points="328.1 34.136 328 32.38 331.805 32 330.758 35.321"></polygon>
            <polygon id="Fill-12" points="330.737 41.158 330.978 44.528 328.79 44.86 327 41"></polygon>
            <polygon id="Fill-13" points="343.486 42 343.266 43.567 341 43.249 341.259 42.086"></polygon>
            <polygon id="Fill-14" points="342.38 33.405 342 30.919 343.477 30 345.294 30.523 345.639 31.992"></polygon>
            <polygon id="Fill-15" points="338.375 17.306 336 16.048 339.228 15"></polygon>
            <polygon id="Fill-16" points="346.325 18.256 346 19.522 347.155 19.988 346.9 18"></polygon>
            <polygon id="Fill-17" points="343 5 345.586 5.208 345.426 7.2 342 7.929"></polygon>
            <polygon id="Fill-18" points="330.562 3 327 3.005 330.146 4.647"></polygon>
            <polygon id="Fill-19" points="318.536 8.206 318 4 319.271 4.2 321.107 5.564"></polygon>
            <polygon id="Fill-20" points="326.537 9 329.576 11.039 329.072 12.391 324.248 13.277 324 11.872"></polygon>
        </g>
    </g>
</svg>