<?xml version="1.0" encoding="UTF-8"?>
<svg width="1000px" height="800px" viewBox="0 0 1000 800" version="1.1" xmlns="http://www.w3.org/2000/svg" xmlns:xlink="http://www.w3.org/1999/xlink">
    <!-- Generator: Sketch 49.1 (51147) - http://www.bohemiancoding.com/sketch -->
    <title>curve02</title>
    <desc>Created with Sketch.</desc>
    <defs></defs>
    <g id="curve02" stroke="none" stroke-width="1" fill="none" fill-rule="evenodd">
        <path d="M211.358708,738.791276 C209.739759,738.436239 208.715215,736.836277 209.070324,735.217661 C209.425434,733.599045 211.025725,732.574712 212.644674,732.929749 C212.96817,733.000692 213.291091,733.070911 213.61344,733.140408 C215.233635,733.489714 216.263836,735.086041 215.914458,736.705903 C215.56508,738.325765 213.968425,739.355754 212.34823,739.006448 C212.018952,738.935458 211.689112,738.863733 211.358708,738.791276 Z M229.278923,742.083568 C227.638841,741.84439 226.503224,740.321221 226.742452,738.681477 C226.981679,737.041732 228.505161,735.906349 230.145243,736.145527 C230.473082,736.193337 230.800323,736.240315 231.126969,736.286462 C232.768103,736.518313 233.910515,738.036393 233.678616,739.67719 C233.446718,741.317987 231.928325,742.460163 230.287191,742.228313 C229.951686,742.180914 229.615598,742.132666 229.278923,742.083568 Z M247.454053,743.9421 C245.799197,743.84966 244.532623,742.433472 244.625082,740.778956 C244.717541,739.12444 246.134021,737.858127 247.788877,737.950567 C248.117723,737.968936 248.44597,737.986362 248.773621,738.002845 C250.428964,738.086117 251.703366,739.495267 251.620077,741.15027 C251.536787,742.805273 250.127347,744.079412 248.472004,743.99614 C248.133272,743.9791 247.793956,743.961087 247.454053,743.9421 Z M265.777499,743.995497 C264.122416,744.083796 262.709112,742.813942 262.620795,741.1592 C262.532478,739.504458 263.802593,738.091444 265.457676,738.003145 C265.785671,737.985647 266.113091,737.967085 266.439941,737.94746 C268.094398,737.848123 269.516145,739.10852 269.615503,740.762637 C269.714861,742.416753 268.454204,743.838208 266.799748,743.937545 C266.459563,743.957971 266.118815,743.977288 265.777499,743.995497 Z M284.052485,741.867341 C282.422189,742.166001 280.858411,741.086769 280.55969,739.456809 C280.260968,737.826848 281.340422,736.263392 282.970718,735.964732 C283.290876,735.906081 283.610537,735.846282 283.929706,735.785333 C285.557714,735.474447 287.129549,736.541914 287.440499,738.169587 C287.751449,739.797259 286.683762,741.368772 285.055755,741.679657 C284.721831,741.743424 284.387409,741.805985 284.052485,741.867341 Z M301.928531,737.297326 C300.355383,737.819045 298.65707,736.966956 298.135243,735.394132 C297.613416,733.821307 298.46568,732.123344 300.038829,731.601624 C300.347197,731.499356 300.655185,731.395886 300.962797,731.291212 C302.531847,730.757298 304.236725,731.59618 304.770749,733.164907 C305.304773,734.733634 304.465718,736.438161 302.896669,736.972075 C302.574355,737.081752 302.251644,737.190168 301.928531,737.297326 Z M318.924672,730.326293 C317.437232,731.057321 315.638687,730.444377 314.907508,728.957243 C314.176329,727.47011 314.7894,725.671934 316.276839,724.940906 C316.569712,724.796969 316.862343,724.651822 317.154738,724.505465 C318.636811,723.76362 320.439775,724.363446 321.181773,725.845214 C321.92377,727.326981 321.323821,729.129575 319.841749,729.87142 C319.536326,730.024298 319.230636,730.175922 318.924672,730.326293 Z M334.878723,721.198556 C333.491933,722.106065 331.631884,721.717762 330.724189,720.331257 C329.816493,718.944752 330.204876,717.085086 331.591666,716.177577 C331.864669,715.998926 332.137571,715.819124 332.410376,715.63817 C333.791498,714.72206 335.653924,715.098797 336.570222,716.479634 C337.48652,717.860472 337.109706,719.722515 335.728584,720.638625 C335.445427,720.826445 335.162142,721.013088 334.878723,721.198556 Z M349.665207,710.368661 C348.377808,711.412335 346.487927,711.214973 345.444037,709.92784 C344.400148,708.640706 344.597551,706.751213 345.884949,705.707539 C346.139947,705.500816 346.39496,705.293018 346.649995,705.084139 C347.932149,704.034032 349.822996,704.22193 350.873319,705.503821 C351.923643,706.785711 351.735706,708.676169 350.453552,709.726276 C350.190776,709.941494 349.927996,710.155621 349.665207,710.368661 Z M363.359523,698.284242 C362.159952,699.427741 360.260328,699.382486 359.116593,698.183162 C357.972859,696.983838 358.018123,695.084604 359.217694,693.941105 C359.455322,693.714585 359.693058,693.48708 359.930908,693.258586 C361.126049,692.110459 363.025834,692.148372 364.174197,693.343267 C365.32256,694.538162 365.284639,696.437556 364.089499,697.585683 C363.846079,697.819527 363.602756,698.052379 363.359523,698.284242 Z M376.123639,685.308542 C374.99664,686.5236 373.097826,686.595173 371.882518,685.468406 C370.667211,684.341639 370.595623,682.443215 371.722622,681.228158 C371.946724,680.986546 372.171008,680.744021 372.395479,680.500579 C373.518901,679.282216 375.417497,679.205063 376.636112,680.328255 C377.854726,681.451446 377.931894,683.349651 376.808472,684.568015 C376.580021,684.815772 376.351745,685.062613 376.123639,685.308542 Z M388.120466,671.727252 C387.051035,672.993252 385.157583,673.15278 383.891322,672.083568 C382.625062,671.014357 382.465501,669.121294 383.534933,667.855294 C383.74802,667.603041 383.961347,667.349934 384.17492,667.095969 C385.241551,665.827611 387.134646,665.663901 388.403266,666.730313 C389.671886,667.796725 389.83563,669.689431 388.768998,670.957789 C388.552586,671.215131 388.33641,671.471617 388.120466,671.727252 Z M399.530865,657.709587 C398.506051,659.011954 396.619282,659.237125 395.316648,658.212523 C394.014013,657.18792 393.788795,655.301539 394.813609,653.999173 C395.018205,653.739166 395.22309,653.478346 395.428271,653.216709 C396.450936,651.912655 398.337331,651.684373 399.641653,652.706827 C400.945975,653.729281 401.174304,655.615288 400.15164,656.919342 C399.944427,657.18357 399.737504,657.446984 399.530865,657.709587 Z M410.507145,643.480089 C409.472013,644.774272 407.583513,644.984446 406.289064,643.949527 C404.994615,642.914607 404.784397,641.026496 405.81953,639.732313 C406.031047,639.467863 406.243226,639.204433 406.456067,638.942024 C407.500023,637.654945 409.389915,637.457681 410.677259,638.501423 C411.964603,639.545164 412.161907,641.434668 411.117951,642.721747 C410.913727,642.973532 410.710124,643.226313 410.507145,643.480089 Z M422.369371,630.45129 C421.175177,631.6004 419.275361,631.564051 418.126015,630.370103 C416.976668,629.176154 417.013024,627.276729 418.207218,626.127619 C418.453591,625.890547 418.700638,625.654623 418.948358,625.419848 C420.151235,624.279825 422.05072,624.330578 423.190977,625.533207 C424.331234,626.735836 424.280471,628.634931 423.077595,629.774953 C422.840889,629.99929 422.604814,630.224736 422.369371,630.45129 Z M435.852025,619.17669 C434.50813,620.146563 432.632287,619.843583 431.662213,618.499963 C430.69214,617.156344 430.995183,615.280887 432.339079,614.311013 C432.614976,614.111901 432.891509,613.914018 433.168675,613.717363 C434.520333,612.758332 436.393677,613.076395 437.352905,614.427775 C438.312132,615.779155 437.994004,617.652114 436.642346,618.611144 C436.37831,618.798483 436.114869,618.986998 435.852025,619.17669 Z M450.797129,609.982085 C449.324907,610.743283 447.514236,610.167131 446.75288,608.695212 C445.991525,607.223293 446.567796,605.412993 448.040018,604.651795 C448.345058,604.494077 448.650677,604.337674 448.956871,604.182588 C450.435405,603.433718 452.241197,604.02498 452.990222,605.50321 C453.739246,606.981439 453.147862,608.78686 451.669328,609.53573 C451.378049,609.683262 451.087315,609.832047 450.797129,609.982085 Z M466.969079,603.103935 C465.399637,603.636695 463.695377,602.796559 463.162508,601.22744 C462.629638,599.65832 463.469947,597.954411 465.039389,597.421651 C465.363312,597.311693 465.687707,597.203068 466.012571,597.095778 C467.586366,596.576011 469.28362,597.430207 469.803494,599.003678 C470.323367,600.577149 469.468996,602.274053 467.895201,602.79382 C467.586041,602.895924 467.277333,602.999296 466.969079,603.103935 Z M483.929873,598.705589 C482.299563,599.004169 480.735839,597.92486 480.437197,596.294885 C480.138556,594.66491 481.218087,593.101507 482.848397,592.802927 C483.182863,592.741672 483.517671,592.681726 483.852817,592.623088 C485.485443,592.337438 487.040561,593.429107 487.326269,595.061398 C487.611977,596.693688 486.520084,598.248486 484.887457,598.534135 C484.567928,598.590041 484.248732,598.647192 483.929873,598.705589 Z M501.416766,596.76384 C499.760749,596.83243 498.362668,595.545842 498.294063,593.890166 C498.225459,592.23449 499.512311,590.836695 501.168328,590.768105 C501.509216,590.753986 501.850311,590.741144 502.191605,590.729579 C503.848092,590.673448 505.236452,591.970516 505.292595,593.626661 C505.348738,595.282807 504.051403,596.670881 502.394917,596.727013 C502.06866,596.738068 501.742608,596.750344 501.416766,596.76384 Z M519.029212,597.204302 C517.378476,597.055441 516.160991,595.596854 516.309883,593.946457 C516.458776,592.296061 517.917663,591.078826 519.568399,591.227688 C519.906165,591.258147 520.243993,591.289808 520.581879,591.322668 C522.23153,591.483104 523.438751,592.950194 523.278282,594.599506 C523.117814,596.248818 521.650422,597.45579 520.000771,597.295354 C519.676849,597.263852 519.352994,597.233501 519.029212,597.204302 Z M536.490102,599.882241 C534.870163,599.531747 533.841133,597.934665 534.191699,596.31506 C534.542265,594.695454 536.139675,593.666636 537.759614,594.017129 C538.091515,594.08894 538.423341,594.161882 538.755085,594.235953 C540.372676,594.597122 541.391147,596.200955 541.029904,597.818213 C540.66866,599.435472 539.064498,600.453733 537.446906,600.092564 C537.128037,600.021368 536.8091,599.95126 536.490102,599.882241 Z M553.529328,604.626867 C551.9608,604.091424 551.123408,602.38608 551.658961,600.817874 C552.194514,599.249668 553.900209,598.412448 555.468737,598.947891 C555.789661,599.057443 556.110378,599.168043 556.430882,599.279688 C557.996041,599.824899 558.822781,601.535431 558.277458,603.100267 C557.732135,604.665104 556.021252,605.491674 554.456093,604.946463 C554.147367,604.838921 553.838443,604.732388 553.529328,604.626867 Z M569.878666,611.237951 C568.378272,610.533881 567.732841,608.747061 568.437055,607.246976 C569.14127,605.746891 570.928457,605.101593 572.428851,605.805662 C572.735836,605.949717 573.04249,606.094736 573.348807,606.240717 C574.844965,606.953739 575.479704,608.744384 574.766536,610.240234 C574.053367,611.736085 572.262354,612.370693 570.766196,611.657671 C570.47067,611.516833 570.174825,611.376925 569.878666,611.237951 Z M585.428982,619.570827 C584.011376,618.712229 583.558354,616.867239 584.417128,615.449925 C585.275902,614.03261 587.121272,613.579681 588.538878,614.438278 C588.829093,614.614052 589.118862,614.790709 589.40818,614.968245 C590.820771,615.835065 591.263061,617.682657 590.396062,619.094958 C589.529064,620.507258 587.681092,620.949457 586.268501,620.082637 C585.989093,619.911181 585.709252,619.740577 585.428982,619.570827 Z M600.062455,629.508787 C598.741405,628.50803 598.481925,626.626054 599.482888,625.305277 C600.483852,623.984499 602.366215,623.725072 603.687264,624.725829 C603.957363,624.930442 604.226911,625.135853 604.495903,625.34206 C605.811205,626.350355 606.059915,628.233784 605.051411,629.548816 C604.042908,630.863848 602.159092,631.112506 600.84379,630.104211 C600.583879,629.904966 600.323433,629.706491 600.062455,629.508787 Z M613.60287,640.90865 C612.391617,639.777526 612.326848,637.878858 613.458204,636.667854 C614.58956,635.456851 616.488619,635.392095 617.699872,636.523219 C617.947733,636.754682 618.194944,636.986865 618.441502,637.219762 C619.646274,638.357783 619.700196,640.25679 618.561942,641.461314 C617.423687,642.665838 615.524289,642.719749 614.319517,641.581729 C614.081265,641.356677 613.842381,641.132316 613.60287,640.90865 Z M625.910061,653.650818 C624.821853,652.400913 624.953143,650.505681 626.203304,649.417697 C627.453465,648.329714 629.349088,648.460976 630.437295,649.71088 C630.521477,649.807618 630.521477,649.807618 630.605582,649.904456 C630.764898,650.087983 630.924105,650.27047 631.083673,650.452456 C632.176252,651.698542 632.051604,653.594222 630.805262,654.686578 C629.55892,655.778933 627.66285,655.65431 626.57027,654.408224 C626.404161,654.218777 626.238435,654.028819 626.072631,653.837818 C625.991387,653.744274 625.991387,653.744274 625.910061,653.650818 Z M638.776897,666.771323 C637.542529,665.66546 637.43854,663.768534 638.54463,662.534421 C639.650721,661.300307 641.548036,661.196339 642.782404,662.302202 C643.024719,662.519291 643.267572,662.73524 643.51096,662.950047 C644.75352,664.0467 644.87162,665.942799 643.774742,667.185105 C642.677864,668.42741 640.781375,668.545485 639.538814,667.448833 C639.284265,667.224175 639.030292,666.998338 638.776897,666.771323 Z M653.313138,678.084208 C651.936077,677.162008 651.567494,675.298319 652.489884,673.921541 C653.412273,672.544764 655.276346,672.176256 656.653407,673.098456 C656.924054,673.279705 657.195205,673.459695 657.466856,673.638424 C658.851396,674.549361 659.235174,676.409982 658.324049,677.794237 C657.412924,679.178492 655.55192,679.562191 654.167381,678.651254 C653.882092,678.463552 653.597343,678.274537 653.313138,678.084208 Z M669.367351,687.172573 C667.866896,686.468636 667.221308,684.681873 667.92539,683.181726 C668.629472,681.681579 670.416603,681.036124 671.917059,681.740061 C672.210842,681.877889 672.505058,682.014373 672.799704,682.149511 C674.306189,682.840455 674.967201,684.621572 674.276114,686.127748 C673.585028,687.633923 671.803544,688.294799 670.297059,687.603855 C669.986693,687.461507 669.676789,687.317746 669.367351,687.172573 Z M686.679805,693.684441 C685.087019,693.226134 684.167419,691.563659 684.625821,689.971201 C685.084223,688.378743 686.74704,687.459333 688.339825,687.917641 C688.652149,688.007509 688.964809,688.095969 689.2778,688.183022 C690.874601,688.627143 691.808959,690.281371 691.364746,691.877843 C690.920534,693.474316 689.265966,694.408482 687.669165,693.964361 C687.339025,693.872539 687.009237,693.779232 686.679805,693.684441 Z M704.740649,697.351751 C703.095263,697.152284 701.923148,695.657009 702.122656,694.011962 C702.322164,692.366914 703.817746,691.19504 705.463132,691.394507 C705.786714,691.433734 706.110507,691.471531 706.434507,691.507898 C708.081597,691.692772 709.266926,693.177598 709.082014,694.824349 C708.897102,696.471101 707.411971,697.656186 705.76488,697.471312 C705.423256,697.432967 705.081844,697.393113 704.740649,697.351751 Z M723.207551,698.123621 C721.551202,698.183667 720.159779,696.889885 720.09972,695.233876 C720.039661,693.577868 721.33371,692.186731 722.990059,692.126685 C723.314913,692.114908 723.639838,692.101739 723.964828,692.087178 C725.620604,692.012992 727.023027,693.294848 727.097228,694.950283 C727.171429,696.605718 725.889309,698.007853 724.233534,698.082039 C723.89148,698.097364 723.549484,698.111225 723.207551,698.123621 Z M741.570802,696.058073 C739.942113,696.365374 738.372633,695.29445 738.065268,693.666096 C737.757904,692.037743 738.829049,690.468585 740.457738,690.161284 C740.778229,690.100814 741.09865,690.039009 741.418996,689.975872 C743.045137,689.655372 744.623255,690.713532 744.943821,692.339339 C745.264387,693.965146 744.206009,695.54294 742.579867,695.86344 C742.243603,695.929715 741.907246,695.994593 741.570802,696.058073 Z M759.415876,691.348346 C757.84689,691.882449 756.141912,691.043772 755.607699,689.475109 C755.073487,687.906447 755.912336,686.201818 757.481321,685.667716 C757.789197,685.562911 758.096873,685.456872 758.404345,685.3496 C759.969239,684.803632 761.680522,685.629375 762.226602,687.193948 C762.772682,688.758521 761.94677,690.469452 760.381875,691.015419 C760.060101,691.127681 759.7381,691.238657 759.415876,691.348346 Z M776.443031,684.246536 C774.958459,684.983369 773.157532,684.377455 772.420548,682.893189 C771.683563,681.408923 772.289602,679.608366 773.774174,678.871533 C774.065689,678.726847 774.356892,678.58103 774.647778,678.434085 C776.127106,677.686784 777.93227,678.279963 778.679724,679.758986 C779.427178,681.23801 778.833878,683.042802 777.35455,683.790103 C777.051051,683.943419 776.74721,684.095564 776.443031,684.246536 Z M792.291466,675.11238 C790.908459,676.025642 789.046813,675.645069 788.133363,674.262346 C787.219914,672.879623 787.600565,671.01836 788.983572,670.105099 C789.256513,669.924864 789.529047,669.743598 789.80117,669.561304 C791.178097,668.638905 793.042223,669.007143 793.964812,670.383787 C794.887401,671.760431 794.519087,673.624174 793.142159,674.546573 C792.859032,674.736239 792.575466,674.924842 792.291466,675.11238 Z M806.956307,664.152474 C805.68741,665.218556 803.794357,665.054355 802.728055,663.785719 C801.661754,662.517083 801.825989,660.62442 803.094886,659.558337 C803.345241,659.347998 803.595117,659.136738 803.844511,658.924559 C805.106785,657.850646 807.000817,658.003132 808.074951,659.265146 C809.149085,660.527161 808.996568,662.420804 807.734294,663.494717 C807.475473,663.714916 807.216142,663.934169 806.956307,664.152474 Z M820.327717,651.610448 C819.181349,652.807255 817.28163,652.848336 816.084576,651.702203 C814.887522,650.556071 814.846433,648.656742 815.992801,647.459935 C816.219361,647.223407 816.445387,646.986059 816.670877,646.747893 C817.810272,645.544447 819.70972,645.492334 820.913413,646.631495 C822.117107,647.770655 822.169231,649.669713 821.029836,650.873159 C820.796358,651.119762 820.562317,651.365525 820.327717,651.610448 Z M832.305133,637.747005 C831.286144,639.053932 829.400399,639.287523 828.093203,638.268744 C826.786007,637.249965 826.552369,635.364608 827.571357,634.057681 C827.772878,633.799215 827.973828,633.540025 828.174205,633.280113 C829.186039,631.967641 831.07048,631.723758 832.383221,632.735384 C833.695963,633.74701 833.939896,635.631063 832.928062,636.943535 C832.721016,637.212098 832.513372,637.479922 832.305133,637.747005 Z M842.887136,622.864775 C841.983559,624.253966 840.124671,624.647785 838.735194,623.744393 C837.345717,622.841001 836.951818,620.982495 837.855395,619.593304 C838.034603,619.317784 838.212903,619.042238 838.390296,618.766667 C839.287294,617.37322 841.144299,616.97062 842.538032,617.867434 C843.931766,618.764248 844.334449,620.620871 843.43745,622.014317 C843.254936,622.297845 843.071498,622.581331 842.887136,622.864775 Z M852.16287,607.112693 C851.389278,608.57822 849.573868,609.139273 848.10804,608.36584 C846.642211,607.592407 846.081042,605.777371 846.854635,604.311844 C847.007459,604.022326 847.159299,603.732786 847.310154,603.443225 C848.075827,601.973546 849.888182,601.402709 851.358163,602.168224 C852.828144,602.933739 853.399099,604.745722 852.633427,606.2154 C852.477582,606.514537 852.32073,606.813635 852.16287,607.112693 Z M859.886247,590.492121 C859.268025,592.029628 857.520205,592.774958 855.982382,592.156863 C854.444559,591.538769 853.699075,589.791308 854.317297,588.253801 C854.439917,587.948847 854.561465,587.643875 854.681939,587.338887 C855.290758,585.797634 857.033993,585.041646 858.575563,585.650339 C860.117133,586.259033 860.873277,588.001909 860.264459,589.543162 C860.139494,589.859516 860.013424,590.175836 859.886247,590.492121 Z M865.753612,573.125196 C865.315475,574.723346 863.664472,575.663796 862.065993,575.225749 C860.467514,574.787702 859.526871,573.137038 859.965008,571.538888 C860.051407,571.223739 860.136681,570.90858 860.220831,570.59341 C860.648306,568.992376 862.293004,568.040948 863.894367,568.468335 C865.49573,568.895722 866.447355,570.540082 866.01988,572.141116 C865.93229,572.469166 865.843535,572.797193 865.753612,573.125196 Z M869.520029,555.121221 C869.28264,556.761232 867.760432,557.898322 866.120083,557.660981 C864.479734,557.423641 863.342411,555.901746 863.5798,554.261735 C863.626524,553.938938 863.67209,553.616138 863.7165,553.293336 C863.942347,551.651696 865.456518,550.503931 867.098496,550.729732 C868.740474,550.955532 869.888475,552.469392 869.662628,554.111032 C869.616301,554.447771 869.568769,554.7845 869.520029,555.121221 Z M870.987188,536.818534 C870.960689,538.475418 869.595761,539.797112 867.938535,539.770619 C866.28131,539.744126 864.959344,538.379478 864.985843,536.722594 C864.991055,536.3967 864.995108,536.070812 864.998004,535.744931 C865.012729,534.0879 866.368232,532.756546 868.025603,532.771267 C869.682975,532.785989 871.014604,534.141213 870.999879,535.798244 C870.996857,536.138331 870.992627,536.478428 870.987188,536.818534 Z M870.114422,518.474838 C870.296963,520.121854 869.109497,521.604972 867.462142,521.787476 C865.814787,521.969979 864.331364,520.782757 864.148823,519.135741 C864.112843,518.811108 864.075735,518.486492 864.037498,518.161894 C863.84364,516.516171 865.020883,515.024929 866.666945,514.83111 C868.313006,514.637292 869.804555,515.814293 869.998414,517.460016 C870.038257,517.79826 870.076927,518.136535 870.114422,518.474838 Z M866.984957,500.361141 C867.363281,501.974492 866.361825,503.588999 864.748143,503.967245 C863.13446,504.34549 861.519621,503.34424 861.141297,501.73089 C861.06672,501.412857 860.991079,501.094855 860.914375,500.776884 C860.525776,499.165977 861.516921,497.545122 863.12816,497.156603 C864.739398,496.768084 866.360587,497.759026 866.749186,499.369933 C866.828877,499.700288 866.907468,500.030691 866.984957,500.361141 Z M861.803536,482.749827 C862.356292,484.312055 861.537693,486.026495 859.975144,486.579138 C858.412595,487.13178 856.697802,486.313349 856.145046,484.751121 C856.03598,484.442874 855.925932,484.134671 855.814904,483.826513 C855.253191,482.267483 856.061937,480.548374 857.621288,479.986776 C859.18064,479.425179 860.900102,480.233758 861.461815,481.792789 C861.576731,482.111737 861.690639,482.43075 861.803536,482.749827 Z M854.842387,465.815237 C855.54519,467.315983 854.898079,469.102196 853.397024,469.804854 C851.895969,470.507513 850.109389,469.860535 849.406586,468.359789 C849.267515,468.062821 849.12755,467.765914 848.986692,467.469067 C848.276269,465.971911 848.914293,464.182433 850.411757,463.472157 C851.909221,462.761881 853.699067,463.399773 854.409489,464.896929 C854.554702,465.202953 854.699001,465.509055 854.842387,465.815237 Z M846.382991,449.642852 C847.212233,451.077638 846.721104,452.912856 845.286023,453.741927 C843.850942,454.570999 842.015346,454.07997 841.186104,452.645185 C841.021641,452.360624 840.856372,452.076139 840.6903,451.791729 C839.854667,450.360655 840.337606,448.523265 841.768974,447.687803 C843.200343,446.852342 845.038111,447.335182 845.873744,448.766256 C846.044311,449.058363 846.21406,449.350562 846.382991,449.642852 Z M836.679386,434.252018 C837.614245,435.620363 837.262607,437.487323 835.893981,438.421989 C834.525355,439.356656 832.658011,439.00509 831.723152,437.636745 C831.537454,437.36494 831.351036,437.093224 831.1639,436.821599 C830.223703,435.456916 830.568045,433.588597 831.93301,432.648593 C833.297974,431.70859 835.166677,432.052861 836.106874,433.417544 C836.298438,433.695598 836.489277,433.973756 836.679386,434.252018 Z M825.731554,419.611327 C826.784547,420.891027 826.600552,422.781872 825.320589,423.834648 C824.040627,424.887424 822.149392,424.703467 821.0964,423.423768 C820.888104,423.170626 820.679425,422.91842 820.470364,422.667146 C819.410425,421.393192 819.584131,419.501374 820.858348,418.441653 C822.132564,417.381932 824.024771,417.555602 825.08471,418.829557 C825.300735,419.089199 825.516349,419.349789 825.731554,419.611327 Z M813.382102,406.080273 C814.563254,407.242779 814.578177,409.142493 813.415431,410.323403 C812.252686,411.504313 810.352581,411.519232 809.171428,410.356726 C808.937805,410.12679 808.703764,409.897876 808.469308,409.669983 C807.280924,408.514866 807.254149,406.615282 808.409503,405.427143 C809.564857,404.239004 811.464832,404.212234 812.653216,405.367351 C812.896625,405.603947 813.139588,405.841588 813.382102,406.080273 Z M799.583456,393.995207 C800.893684,395.010085 801.132944,396.894737 800.117858,398.204696 C799.102772,399.514655 797.217732,399.753866 795.907503,398.738988 C795.649943,398.539487 795.391941,398.341067 795.1335,398.143729 C793.81628,397.137939 793.563984,395.254987 794.569981,393.938038 C795.575979,392.621089 797.459318,392.368845 798.776538,393.374635 C799.045984,393.580376 799.314956,393.787233 799.583456,393.995207 Z M784.337669,383.677577 C785.768126,384.514597 786.249061,386.352513 785.411868,387.782675 C784.574675,389.212838 782.736382,389.693674 781.305925,388.856653 C781.025178,388.692376 780.743971,388.529223 780.462306,388.367193 C779.025696,387.540774 778.531176,385.706465 779.357766,384.270151 C780.184355,382.833836 782.019041,382.339418 783.455651,383.165838 C783.750145,383.335247 784.044151,383.505826 784.337669,383.677577 Z M767.839468,375.46346 C769.3698,376.099868 770.094362,377.856104 769.457823,379.386121 C768.821283,380.916138 767.064686,381.640551 765.534355,381.004142 C765.233994,380.879233 764.933169,380.755456 764.63188,380.632809 C763.096806,380.00792 762.359059,378.257181 762.984076,376.722422 C763.609093,375.187664 765.360193,374.450069 766.895267,375.074957 C767.210484,375.203274 767.525218,375.332775 767.839468,375.46346 Z M750.460542,369.568857 C752.06195,369.996075 753.013749,371.640334 752.586444,373.241413 C752.159139,374.842492 750.514541,375.794094 748.913133,375.366877 C748.598483,375.282936 748.283381,375.200096 747.967826,375.118356 C746.363365,374.702743 745.399683,373.065417 745.815382,371.461287 C746.23108,369.857156 747.868742,368.893673 749.473203,369.309286 C749.802776,369.394657 750.13189,369.481181 750.460542,369.568857 Z M732.422499,365.971004 C734.064897,366.193725 735.215736,367.70543 734.992969,369.347491 C734.770202,370.989551 733.258187,372.140154 731.615788,371.917432 C731.29188,371.873508 730.967543,371.830627 730.642777,371.788787 C728.998931,371.57701 727.838045,370.073005 728.049865,368.429497 C728.261685,366.785988 729.766,365.625341 731.409846,365.837117 C731.747823,365.880659 732.085374,365.925287 732.422499,365.971004 Z M714.112573,364.560996 C715.76964,364.596061 717.084526,365.967528 717.049454,367.624253 C717.014382,369.280979 715.642633,370.595594 713.985566,370.560529 C713.658434,370.553607 713.330909,370.547644 713.002992,370.54264 C711.345747,370.517348 710.022792,369.15366 710.048089,367.496756 C710.073386,365.839853 711.437355,364.51717 713.094599,364.542461 C713.434308,364.547646 713.773633,364.553824 714.112573,364.560996 Z M695.781606,365.108241 C697.433934,364.978223 698.878832,366.212023 699.008877,367.864011 C699.138922,369.515999 697.904868,370.9606 696.25254,371.090618 C695.925523,371.11635 695.598152,371.142955 695.27043,371.17043 C693.618789,371.308901 692.167594,370.082509 692.029096,368.431208 C691.890597,366.779907 693.117241,365.329011 694.768881,365.190541 C695.106799,365.162211 695.444374,365.134777 695.781606,365.108241 Z M677.744199,367.238364 C679.388534,367.030413 680.890143,368.194558 681.098137,369.838554 C681.306131,371.482551 680.141746,372.983851 678.497411,373.191802 C678.161066,373.234338 677.825519,373.276068 677.490765,373.316991 C675.84558,373.518113 674.34882,372.347743 674.147657,370.702897 C673.946493,369.058051 675.117104,367.561598 676.762289,367.360477 C677.088781,367.320563 677.416083,367.279859 677.744199,367.238364 Z M660.058629,368.737808 C661.714824,368.673678 663.109435,369.964025 663.173579,371.61988 C663.237722,373.275735 661.947109,374.670059 660.290913,374.73419 C659.949767,374.747399 659.609474,374.759606 659.270031,374.770808 C657.613495,374.825474 656.226283,373.527179 656.171605,371.870985 C656.116928,370.21479 657.41549,368.827863 659.072025,368.773197 C659.400021,368.762373 659.728888,368.750576 660.058629,368.737808 Z M642.411668,368.425163 C644.063766,368.558071 645.295291,370.004828 645.162356,371.656586 C645.029421,373.308344 643.582366,374.539615 641.930269,374.406708 C641.588645,374.379225 641.247937,374.350496 640.90814,374.320517 C639.257118,374.174857 638.036806,372.718634 638.182496,371.067951 C638.328186,369.417269 639.784709,368.197208 641.435731,368.342868 C641.760113,368.371486 642.085423,368.398918 642.411668,368.425163 Z M625.104375,365.708353 C626.715058,366.099169 627.70389,367.721436 627.312993,369.331787 C626.922096,370.942139 625.299496,371.930767 623.688813,371.539951 C623.354762,371.458897 623.02168,371.37633 622.689563,371.292248 C621.082838,370.885473 620.110154,369.253477 620.517013,367.647083 C620.923871,366.040689 622.556203,365.068205 624.162928,365.474979 C624.475779,365.554184 624.789593,365.631974 625.104375,365.708353 Z M608.623709,360.014147 C610.128608,360.708537 610.785541,362.491162 610.091008,363.995752 C609.396476,365.500343 607.613483,366.15714 606.108584,365.46275 C605.795401,365.318242 605.483205,365.172012 605.171991,365.024056 C603.675162,364.312442 603.038739,362.522395 603.7505,361.025874 C604.46226,359.529354 606.252675,358.893061 607.749504,359.604675 C608.039967,359.742766 608.331368,359.879255 608.623709,360.014147 Z M593.731899,351.158195 C595.060791,352.148519 595.33509,354.028393 594.344563,355.357012 C593.354036,356.685631 591.473775,356.959873 590.144883,355.96955 C589.868327,355.763454 589.592693,355.555597 589.317978,355.345974 C588.000428,354.340615 587.747516,352.457746 588.753082,351.140468 C589.758648,349.82319 591.641905,349.570329 592.959454,350.575688 C593.216099,350.771522 593.47358,350.96569 593.731899,351.158195 Z M580.846827,339.416461 C581.962306,340.642099 581.872799,342.539763 580.646909,343.655012 C579.421019,344.770261 577.522965,344.680773 576.407487,343.455135 C576.177263,343.202176 575.947815,342.947601 575.719139,342.691408 C574.615569,341.455041 574.72343,339.558331 575.960051,338.454989 C577.196673,337.351646 579.093773,337.459484 580.197342,338.695851 C580.413145,338.937623 580.629639,339.177825 580.846827,339.416461 Z M570.12937,325.515927 C571.040067,326.900463 570.655713,328.760966 569.270891,329.671475 C567.88607,330.581984 566.025185,330.197709 565.114488,328.813173 C564.927563,328.52899 564.741258,328.243395 564.555571,327.956385 C563.655382,326.564996 564.053811,324.707456 565.445486,323.807453 C566.837161,322.907449 568.695083,323.305796 569.595272,324.697185 C569.772743,324.971496 569.950776,325.244409 570.12937,325.515927 Z M561.36926,310.174955 C562.107209,311.658742 561.502339,313.459692 560.018247,314.197488 C558.534154,314.935285 556.732834,314.33054 555.994886,312.846752 C555.844238,312.543845 555.694078,312.239728 555.544406,311.934397 C554.814994,310.446396 555.430199,308.64895 556.918505,307.919688 C558.406812,307.190425 560.204628,307.805504 560.934041,309.293504 C561.078662,309.588531 561.223735,309.882348 561.36926,310.174955 Z M554.794778,293.95323 C555.286095,295.535847 554.401157,297.21702 552.818214,297.708235 C551.235272,298.19945 549.553753,297.314695 549.062437,295.732078 C548.961319,295.40636 548.86184,295.081069 548.763995,294.7562 C548.286105,293.169479 549.185254,291.495861 550.772301,291.018068 C552.359348,290.540276 554.033311,291.43924 554.511202,293.025961 C554.604156,293.334591 554.69868,293.643679 554.794778,293.95323 Z M551.008742,276.890243 C551.222003,278.533565 550.062436,280.038587 548.418776,280.251805 C546.775116,280.465023 545.269784,279.305694 545.056522,277.662373 C545.012009,277.319368 544.969405,276.976784 544.928706,276.634614 C544.732982,274.989112 545.908534,273.496536 547.554375,273.300853 C549.200215,273.105169 550.693098,274.280479 550.888821,275.925981 C550.927,276.246963 550.966972,276.568381 551.008742,276.890243 Z M550.497048,259.521563 C550.37559,261.174204 548.937122,262.415493 547.284141,262.294059 C545.63116,262.172625 544.389616,260.734454 544.511074,259.081813 C544.536323,258.738262 544.563547,258.395024 544.592742,258.052087 C544.733302,256.400961 546.186027,255.176381 547.837493,255.316913 C549.48896,255.457445 550.713791,256.909871 550.573231,258.560997 C550.545997,258.880904 550.520601,259.201089 550.497048,259.521563 Z M553.547766,242.373245 C553.097937,243.968145 551.440091,244.896483 549.844863,244.446747 C548.249635,243.99701 547.321105,242.339505 547.770934,240.744605 C547.864449,240.413042 547.959804,240.081544 548.056996,239.750092 C548.523284,238.159924 550.190636,237.248762 551.781131,237.714954 C553.371626,238.181146 554.282976,239.848155 553.816688,241.438323 C553.725301,241.749976 553.63566,242.06161 553.547766,242.373245 Z M559.708644,226.01806 C559.007859,227.519749 557.22215,228.169126 555.720152,227.468485 C554.218154,226.767843 553.568643,224.982501 554.269429,223.480812 C554.41295,223.173265 554.558031,222.865361 554.704679,222.557067 C555.416518,221.060583 557.206967,220.424385 558.703758,221.136078 C560.200549,221.84777 560.836878,223.637851 560.125039,225.134334 C559.984706,225.429352 559.845911,225.723916 559.708644,226.01806 Z M568.105932,210.432374 C567.25145,211.852279 565.407459,212.310787 563.987262,211.456481 C562.567065,210.602175 562.108462,208.758563 562.962944,207.338658 C563.13596,207.051156 563.31047,206.762528 563.486525,206.47268 C564.346839,205.0563 566.192701,204.605376 567.609372,205.465513 C569.026044,206.32565 569.477061,208.171132 568.616746,209.587512 C568.444939,209.870368 568.274684,210.151957 568.105932,210.432374 Z M577.75688,195.382138 C576.835844,196.759821 574.972134,197.13016 573.594168,196.209313 C572.216202,195.288466 571.845787,193.42514 572.766823,192.047457 C572.949501,191.774208 573.135668,191.496062 573.326259,191.211609 C574.248707,189.834871 576.112796,189.466443 577.489817,190.388702 C578.866838,191.31096 579.235342,193.174665 578.312893,194.551403 C578.123422,194.834186 577.938394,195.110631 577.75688,195.382138 Z M587.775436,180.426063 C586.864384,181.810365 585.0034,182.194162 583.618813,181.283297 C582.234226,180.372432 581.85035,178.511831 582.761402,177.127529 C582.945219,176.848228 583.126657,176.57195 583.305952,176.298325 C584.214223,174.912196 586.074432,174.524665 587.460846,175.432749 C588.847259,176.340833 589.234871,178.200659 588.3266,179.586788 C588.14508,179.863809 587.961438,180.143442 587.775436,180.426063 Z M597.35716,164.977788 C596.535732,166.41706 594.702833,166.918058 593.263266,166.096799 C591.823698,165.27554 591.322597,163.443018 592.144025,162.003747 C592.306959,161.718259 592.468366,161.433729 592.628271,161.150091 C593.442113,159.706518 595.272349,159.195884 596.716219,160.009558 C598.16009,160.823231 598.670829,162.653092 597.856988,164.096665 C597.69189,164.389512 597.52529,164.683198 597.35716,164.977788 Z M605.545876,148.504618 C604.910152,150.034974 603.153941,150.760323 601.623271,150.124729 C600.0926,149.489136 599.367102,147.733287 600.002826,146.202931 C600.12751,145.902784 600.250533,145.602959 600.3719,145.303429 C600.994212,143.767572 602.74401,143.026894 604.280182,143.649079 C605.816355,144.271263 606.557185,146.020701 605.934873,147.556557 C605.806918,147.872346 605.677254,148.188357 605.545876,148.504618 Z M611.132564,130.823384 C610.786926,132.444048 609.192653,133.477719 607.571655,133.132152 C605.950658,132.786585 604.916775,131.19264 605.262413,129.571976 C605.329537,129.257237 605.394792,128.942419 605.458176,128.627505 C605.785151,127.002974 607.36743,125.951043 608.992295,126.277951 C610.61716,126.604859 611.669308,128.186812 611.342332,129.811343 C611.274404,130.148838 611.204479,130.486179 611.132564,130.823384 Z M613.050441,112.293762 C613.059464,113.950834 611.72318,115.301469 610.065767,115.310491 C608.408354,115.319512 607.057441,113.983503 607.048418,112.326432 C607.046669,112.005292 607.042991,111.683805 607.037378,111.36196 C607.008481,109.705115 608.32847,108.338557 609.985655,108.309666 C611.642841,108.280775 613.00968,109.600492 613.038577,111.257337 C613.044609,111.603168 613.048561,111.94864 613.050441,112.293762 Z M611.013171,93.7947613 C611.356707,95.4158721 610.320758,97.0084757 608.699313,97.3519411 C607.077869,97.6954065 605.484938,96.6596702 605.141402,95.0385594 C605.074606,94.7233588 605.006024,94.407701 604.93565,94.0915799 C604.575561,92.4740638 605.595178,90.8709587 607.213027,90.5109446 C608.830876,90.1509304 610.434311,91.1703372 610.794399,92.7878533 C610.869212,93.1239141 610.942134,93.4595482 611.013171,93.7947613 Z M605.646133,76.0861151 C606.249476,77.6295188 605.48715,79.3697006 603.943428,79.97292 C602.399707,80.5761394 600.659167,79.8139695 600.055824,78.2705658 C599.937684,77.9683548 599.817996,77.665688 599.696756,77.3625619 C599.081352,75.8239252 599.830037,74.0778331 601.36899,73.4625561 C602.907943,72.847279 604.654395,73.5958098 605.269798,75.1344465 C605.396845,75.4520892 605.522289,75.7693109 605.646133,76.0861151 Z M597.874053,59.4528944 C598.662172,60.9106642 598.119069,62.7311853 596.660999,63.519142 C595.20293,64.3070988 593.382034,63.7641081 592.593915,62.3063384 C592.438566,62.0189922 592.281908,61.7312333 592.123937,61.4430595 C591.327346,59.9899 591.859843,58.1662497 593.313301,57.3698227 C594.766759,56.5733956 596.590785,57.1057824 597.387376,58.5589418 C597.550936,58.8573122 597.713161,59.1552956 597.874053,59.4528944 Z" id="Path-76-Copy" fill="#FFFFFF" fill-rule="nonzero"></path>
    </g>
</svg>