<?xml version="1.0" encoding="UTF-8"?>
<svg width="1000px" height="800px" viewBox="0 0 1000 800" version="1.1" xmlns="http://www.w3.org/2000/svg" xmlns:xlink="http://www.w3.org/1999/xlink">
    <!-- Generator: Sketch 49.1 (51147) - http://www.bohemiancoding.com/sketch -->
    <title>curve01</title>
    <desc>Created with Sketch.</desc>
    <defs></defs>
    <g id="curve01" stroke="none" stroke-width="1" fill="none" fill-rule="evenodd">
        <path d="M158.375724,725.357054 C157.061015,726.365372 155.177829,726.116993 154.169511,724.802284 C153.161193,723.487574 153.409572,721.604389 154.724282,720.596071 C155.124197,720.289324 155.124197,720.289324 155.524224,719.982372 C156.838648,718.973682 158.721904,719.221528 159.730594,720.535952 C160.739284,721.850376 160.491438,723.733632 159.177014,724.742322 C158.776331,725.049777 158.776331,725.049777 158.375724,725.357054 Z M172.650322,714.376988 C171.337266,715.387459 169.453675,715.142164 168.443205,713.829108 C167.432735,712.516052 167.678029,710.632462 168.991085,709.621992 C169.388077,709.316496 169.388077,709.316496 169.785202,709.010947 C171.098377,708.000631 172.981938,708.246146 173.992254,709.559321 C175.00257,710.872496 174.757054,712.756057 173.44388,713.766373 C173.047051,714.071694 173.047051,714.071694 172.650322,714.376988 Z M186.929976,703.436099 C185.611488,704.439471 183.729248,704.184018 182.725877,702.86553 C181.722505,701.547042 181.977957,699.664803 183.296445,698.661431 C183.696759,698.356843 183.696759,698.356843 184.09723,698.052349 C185.416224,697.049643 187.298334,697.306045 188.301041,698.625039 C189.303747,699.944033 189.047345,701.826144 187.728351,702.82885 C187.329102,703.132415 187.329102,703.132415 186.929976,703.436099 Z M201.277372,692.643453 C199.946636,693.630523 198.067683,693.351927 197.080613,692.021191 C196.093542,690.690455 196.372138,688.811502 197.702874,687.824432 C197.971464,687.625206 198.239312,687.426713 198.506447,687.228933 C199.838058,686.243042 201.716763,686.523304 202.702654,687.854914 C203.688544,689.186524 203.408283,691.06523 202.076673,692.05112 C201.810966,692.247843 201.544542,692.44528 201.277372,692.643453 Z M215.780537,682.088544 C214.43094,683.049664 212.557733,682.734741 211.596612,681.385144 C210.635492,680.035546 210.950415,678.162339 212.300012,677.201219 C212.57229,677.007315 212.844081,676.81402 213.115399,676.621325 C214.466231,675.661939 216.339031,675.979268 217.298417,677.330099 C218.257803,678.680931 217.940474,680.553731 216.589642,681.513117 C216.320424,681.704321 216.050727,681.896127 215.780537,682.088544 Z M230.512712,671.87762 C229.137853,672.802244 227.273754,672.437257 226.34913,671.062399 C225.424505,669.68754 225.789492,667.823441 227.164351,666.898817 C227.442585,666.711698 227.720469,666.525158 227.998012,666.339194 C229.374453,665.416928 231.237924,665.785108 232.160191,667.161549 C233.082458,668.53799 232.714277,670.401461 231.337836,671.323728 C231.063146,671.507781 230.788107,671.69241 230.512712,671.87762 Z M245.532294,662.13656 C244.126129,663.01284 242.275842,662.583284 241.399562,661.177119 C240.523282,659.770955 240.952838,657.920668 242.359003,657.044387 C242.644502,656.866473 242.929739,656.689151 243.214722,656.51242 C244.622793,655.639208 246.47214,656.072797 247.345352,657.480869 C248.218564,658.888941 247.784975,660.738287 246.376903,661.611499 C246.095632,661.785929 245.814098,661.960948 245.532294,662.13656 Z M260.899828,653.001527 C259.456928,653.815903 257.627046,653.306383 256.81267,651.863483 C255.998295,650.420583 256.507815,648.590701 257.950715,647.776326 C258.243791,647.610913 258.536673,647.446127 258.829363,647.281965 C260.274442,646.471465 262.102951,646.985892 262.913452,648.430972 C263.723953,649.876051 263.209525,651.70456 261.764446,652.515061 C261.476442,652.676594 261.188237,652.838749 260.899828,653.001527 Z M276.661035,644.630938 C275.177088,645.36787 273.376711,644.762295 272.639779,643.278348 C271.902847,641.794402 272.508423,639.994024 273.992369,639.257092 C274.295703,639.106456 274.598891,638.956504 274.901939,638.807234 C276.38827,638.075125 278.186672,638.686543 278.918781,640.172874 C279.650891,641.659206 279.039473,643.457608 277.553142,644.189717 C277.255927,644.336114 276.958559,644.483187 276.661035,644.630938 Z M292.846192,637.202656 C291.318755,637.844609 289.560118,637.126783 288.918164,635.599347 C288.276211,634.071911 288.994037,632.313273 290.521473,631.671319 C290.832612,631.540554 291.143651,631.410525 291.454593,631.281234 C292.984465,630.645107 294.740354,631.369631 295.376481,632.899503 C296.012608,634.429375 295.288084,636.185264 293.758212,636.821391 C293.454316,636.947752 293.15031,637.074841 292.846192,637.202656 Z M309.469401,630.908609 C307.898882,631.436469 306.19781,630.591227 305.66995,629.020708 C305.14209,627.450189 305.987332,625.749117 307.557851,625.221257 C307.878796,625.113385 308.199679,625.00632 308.520502,624.90006 C310.093331,624.379126 311.790663,625.231855 312.311597,626.804685 C312.832532,628.377515 311.979802,630.074846 310.406973,630.595781 C310.094523,630.699267 309.782,630.803543 309.469401,630.908609 Z M326.509095,625.951486 C324.899843,626.345788 323.275641,625.360877 322.881339,623.751625 C322.487036,622.142373 323.471948,620.518171 325.0812,620.123869 C325.410794,620.043111 325.740359,619.963225 326.069897,619.884211 C327.681084,619.497892 329.300382,620.490844 329.686701,622.102031 C330.07302,623.713218 329.080068,625.332517 327.46888,625.718835 C327.148992,625.795536 326.829064,625.873086 326.509095,625.951486 Z M343.90496,622.525829 C342.266029,622.768879 340.740383,621.637294 340.497333,619.998363 C340.254283,618.359433 341.385868,616.833787 343.024798,616.590737 C343.360812,616.540907 343.696826,616.492002 344.032841,616.444025 C345.67306,616.209828 347.192574,617.349634 347.426771,618.989853 C347.660968,620.630072 346.521162,622.149586 344.880943,622.383783 C344.555624,622.430233 344.230297,622.477582 343.90496,622.525829 Z M361.534037,620.795674 C359.879059,620.874516 358.473521,619.596806 358.394678,617.941829 C358.315836,616.286852 359.593545,614.881313 361.248523,614.802471 C361.586357,614.786376 361.924214,614.771235 362.262097,614.757047 C363.917492,614.687537 365.315805,615.973151 365.385315,617.628546 C365.454825,619.283942 364.169212,620.682254 362.513816,620.751764 C362.187204,620.765479 361.860611,620.780116 361.534037,620.795674 Z M379.201956,620.85737 C377.547583,620.766713 376.279942,619.352087 376.370599,617.697715 C376.461257,616.043343 377.875882,614.775701 379.530255,614.866359 C379.86835,614.884886 380.206488,614.90438 380.544668,614.924843 C382.198497,615.024913 383.458068,616.446729 383.357998,618.100559 C383.257928,619.754388 381.836111,621.013959 380.182282,620.913889 C379.855463,620.894114 379.528688,620.875275 379.201956,620.85737 Z M396.795529,622.723783 C395.158825,622.466169 394.040851,620.930521 394.298465,619.293816 C394.556079,617.657112 396.091728,616.539138 397.728432,616.796753 C398.06273,616.84937 398.397083,616.902943 398.731491,616.95747 C400.366749,617.224111 401.476232,618.765905 401.209592,620.401163 C400.942951,622.036421 399.401157,623.145904 397.765899,622.879263 C397.442381,622.826511 397.118925,622.774685 396.795529,622.723783 Z M414.143693,626.330909 C412.539514,625.91645 411.575056,624.28002 411.989515,622.675841 C412.403975,621.071663 414.040404,620.107204 415.644583,620.521664 C415.972293,620.606332 416.300066,620.691922 416.627904,620.778435 C418.229916,621.201192 419.185891,622.842592 418.763134,624.444604 C418.340377,626.046616 416.698978,627.002591 415.096966,626.579834 C414.779135,626.495961 414.461377,626.412987 414.143693,626.330909 Z M431.095814,631.541651 C429.535031,630.985664 428.720484,629.269682 429.276472,627.708899 C429.83246,626.148116 431.548442,625.333569 433.109225,625.889556 C433.42722,626.002834 433.745284,626.116982 434.063418,626.232002 C435.621562,626.795343 436.428009,628.515146 435.864668,630.07329 C435.301328,631.631434 433.581524,632.437882 432.02338,631.874541 C431.714112,631.762726 431.404923,631.651764 431.095814,631.541651 Z M447.570393,638.185714 C446.059548,637.505632 445.386081,635.729534 446.066162,634.218689 C446.746244,632.707843 448.522342,632.034376 450.033188,632.714458 C450.340599,632.852834 450.648081,632.992023 450.955635,633.132028 C452.463597,633.818481 453.129561,635.597405 452.443108,637.105367 C451.756655,638.613329 449.97773,639.279293 448.469769,638.59284 C448.169895,638.456332 447.870103,638.320623 447.570393,638.185714 Z M463.568334,646.085873 C462.099859,645.318575 461.531443,643.506122 462.298741,642.037647 C463.066039,640.569172 464.878492,640.000756 466.346967,640.768054 C466.641687,640.92205 466.936096,641.075671 467.230195,641.228918 C468.699537,641.994555 469.270003,643.806364 468.504366,645.275706 C467.73873,646.745048 465.926921,647.315514 464.457579,646.549877 C464.161473,646.395583 463.865058,646.240915 463.568334,646.085873 Z M479.650404,654.272445 C478.165555,653.537332 477.557774,651.737698 478.292887,650.252849 C479.027999,648.768001 480.827633,648.160219 482.312482,648.895332 C482.609437,649.042347 482.906062,649.188959 483.202357,649.335166 C484.688163,650.068341 485.298291,651.867181 484.565116,653.352987 C483.83194,654.838794 482.0331,655.448922 480.547294,654.715746 C480.248659,654.568384 479.949696,654.420617 479.650404,654.272445 Z M495.958695,662.096812 C494.455674,661.399609 493.802428,659.615975 494.499631,658.112953 C495.196834,656.609931 496.980468,655.956686 498.48349,656.653889 C498.783959,656.793267 499.084073,656.932202 499.383831,657.070696 C500.887914,657.765607 501.543876,659.548244 500.848965,661.052327 C500.154053,662.556409 498.371416,663.212372 496.867334,662.51746 C496.564807,662.377687 496.261928,662.237471 495.958695,662.096812 Z M512.477596,669.470703 C510.954486,668.81855 510.248436,667.055152 510.900589,665.532042 C511.552741,664.008933 513.31614,663.302882 514.839249,663.955035 C515.142795,664.085004 515.445957,664.214489 515.748739,664.343489 C517.273016,664.992907 517.98223,666.755036 517.332811,668.279313 C516.683393,669.803591 514.921265,670.512804 513.396987,669.863386 C513.090901,669.732978 512.784438,669.602084 512.477596,669.470703 Z M529.23571,676.308551 C527.690521,675.710589 526.922642,673.973223 527.520603,672.428034 C528.118565,670.882845 529.855931,670.114966 531.40112,670.712928 C531.710537,670.832666 532.019534,670.951861 532.328114,671.070513 C533.874587,671.665144 534.646207,673.400852 534.051576,674.947325 C533.456945,676.493799 531.721237,677.265419 530.174763,676.670788 C529.862159,676.550589 529.549142,676.429843 529.23571,676.308551 Z M546.274181,682.5027 C544.705024,681.970805 543.864156,680.267566 544.396051,678.698409 C544.927945,677.129252 546.631184,676.288384 548.200341,676.820279 C548.514943,676.926919 548.829088,677.032948 549.142776,677.138367 C550.713315,677.666167 551.558622,679.367207 551.030822,680.937746 C550.503022,682.508285 548.801982,683.353592 547.231443,682.825792 C546.912806,682.71871 546.59372,682.611013 546.274181,682.5027 Z M563.62118,687.904667 C562.026701,687.454332 561.099189,685.796682 561.549524,684.202203 C561.999859,682.607723 563.657508,681.680211 565.251988,682.130546 C565.571567,682.220807 565.890648,682.310378 566.20923,682.39926 C567.805137,682.844508 568.737931,684.499192 568.292683,686.095099 C567.847435,687.691006 566.192751,688.6238 564.596844,688.178552 C564.272113,688.087954 563.946892,687.996659 563.62118,687.904667 Z M581.257543,692.310018 C579.637828,691.961179 578.60758,690.36535 578.95642,688.745635 C579.305259,687.12592 580.901088,686.095671 582.520803,686.444511 C582.84372,686.514058 583.166099,686.58283 583.487941,686.650829 C585.109009,686.993327 586.145495,688.585112 585.802997,690.20618 C585.460499,691.827247 583.868714,692.863733 582.247646,692.521235 C581.918139,692.451617 581.588105,692.381212 581.257543,692.310018 Z M599.213673,695.475857 C597.571717,695.25417 596.42036,693.743389 596.642046,692.101433 C596.863733,690.459476 598.374514,689.30812 600.01647,689.529806 C600.342941,689.573884 600.668835,689.617084 600.994153,689.659407 C602.637161,689.87316 603.795802,691.378361 603.58205,693.02137 C603.368298,694.664378 601.863096,695.823019 600.220088,695.609267 C599.885181,695.565696 599.549711,695.521226 599.213673,695.475857 Z M617.425777,697.080186 C615.770142,697.016638 614.4795,695.622966 614.543047,693.96733 C614.606595,692.311695 616.000267,691.021053 617.655903,691.084601 C617.982719,691.097145 618.308935,691.108707 618.634555,691.119287 C620.290535,691.173097 621.589351,692.559156 621.535541,694.215136 C621.481731,695.871117 620.095672,697.169932 618.439692,697.116122 C618.102308,697.105159 617.764338,697.093181 617.425777,697.080186 Z M635.775898,696.752112 C634.123999,696.880153 632.681072,695.644822 632.553031,693.992923 C632.42499,692.341024 633.660321,690.898097 635.31222,690.770056 C635.637892,690.744812 635.962963,690.718474 636.287437,690.691042 C637.938402,690.551463 639.389924,691.776684 639.529502,693.427648 C639.669081,695.078613 638.443861,696.530135 636.792896,696.669713 C636.454492,696.698323 636.115494,696.72579 635.775898,696.752112 Z M653.999292,694.12948 C652.379162,694.476389 650.784562,693.44424 650.437653,691.82411 C650.090743,690.203981 651.122892,688.609381 652.743022,688.262471 C653.061178,688.194346 653.378788,688.125045 653.695855,688.054567 C655.313235,687.695055 656.915822,688.714758 657.275334,690.332138 C657.634846,691.949518 656.615142,693.552105 654.997762,693.911617 C654.665494,693.985474 654.332672,694.058095 653.999292,694.12948 Z M671.693947,689.000876 C670.139697,689.574874 668.414411,688.780223 667.840413,687.225974 C667.266415,685.671724 668.061066,683.946438 669.615316,683.37244 C669.920625,683.259687 670.225498,683.145715 670.529942,683.030526 C672.079584,682.444204 673.811126,683.22513 674.397448,684.774772 C674.98377,686.324415 674.202845,688.055956 672.653202,688.642279 C672.333911,688.763086 672.014161,688.882618 671.693947,689.000876 Z M688.473191,681.428404 C687.013001,682.211354 685.194576,681.662343 684.411626,680.202152 C683.628676,678.741962 684.177688,676.923538 685.637878,676.140588 C685.924913,675.986681 686.211672,675.831574 686.498165,675.675265 C687.952624,674.881721 689.774992,675.417498 690.568536,676.871958 C691.362081,678.326418 690.826303,680.148785 689.371844,680.94233 C689.0726,681.105595 688.773052,681.26762 688.473191,681.428404 Z M704.024825,671.822544 C702.650825,672.748443 700.786388,672.385186 699.860489,671.011186 C698.934589,669.637186 699.297846,667.772749 700.671847,666.84685 C700.951986,666.658072 701.232229,666.470384 701.512576,666.283787 C702.891846,665.365755 704.754176,665.739662 705.672208,667.118931 C706.59024,668.498201 706.216333,670.360531 704.837064,671.278563 C704.566237,671.458823 704.295491,671.64015 704.024825,671.822544 Z M719.196998,662.753932 C717.728693,663.521556 715.916114,662.953541 715.148491,661.485236 C714.380867,660.016931 714.948882,658.204352 716.417187,657.436729 C716.719856,657.278494 717.022639,657.121484 717.325535,656.965696 C718.79893,656.207887 720.607678,656.787985 721.365486,658.26138 C722.123295,659.734774 721.543197,661.543522 720.069802,662.301331 C719.77878,662.451011 719.487845,662.601878 719.196998,662.753932 Z M735.284197,655.579493 C733.730523,656.155047 732.004442,655.362125 731.428888,653.808451 C730.853333,652.254777 731.646256,650.528696 733.19993,649.953141 C733.519067,649.834918 733.83832,649.718 734.157689,649.602386 C735.715604,649.038412 737.435735,649.844159 737.99971,651.402074 C738.563685,652.959989 737.757937,654.68012 736.200022,655.244095 C735.894654,655.35464 735.589379,655.466439 735.284197,655.579493 Z M752.136367,650.624404 C750.517858,650.978794 748.918506,649.954022 748.564116,648.335513 C748.209726,646.717003 749.234498,645.117652 750.853007,644.763261 C751.187151,644.690097 751.521407,644.618306 751.855776,644.547885 C753.477064,644.206431 755.068181,645.243941 755.409636,646.865229 C755.75109,648.486517 754.71358,650.077634 753.092292,650.419088 C752.773551,650.486218 752.454909,650.554655 752.136367,650.624404 Z M769.53995,648.115179 C767.887228,648.232122 766.45263,646.987128 766.335687,645.334405 C766.218743,643.681683 767.463738,642.247086 769.11646,642.130143 C769.456462,642.106085 769.796566,642.083388 770.136772,642.062052 C771.790377,641.958343 773.214961,643.214783 773.31867,644.868389 C773.422378,646.521994 772.165938,647.946578 770.512333,648.050286 C770.188102,648.070621 769.863975,648.092251 769.53995,648.115179 Z M787.09009,648.125479 C785.43735,648.008778 784.192145,646.574364 784.308845,644.921625 C784.425546,643.268885 785.85996,642.02368 787.512699,642.14038 C787.85256,642.164378 788.19251,642.189678 788.532549,642.216279 C790.184356,642.3455 791.418657,643.789308 791.289436,645.441116 C791.160216,647.092923 789.716407,648.327224 788.0646,648.198004 C787.739661,648.172584 787.414824,648.148408 787.09009,648.125479 Z M804.526248,650.525083 C802.902636,650.194856 801.854141,648.610957 802.184368,646.987345 C802.514594,645.363733 804.098494,644.315237 805.722106,644.645464 C806.055276,644.713227 806.388523,644.78219 806.721846,644.852349 C808.343174,645.193613 809.380871,646.784608 809.039607,648.405936 C808.698342,650.027265 807.107347,651.064961 805.486019,650.723697 C805.165999,650.656338 804.846075,650.590133 804.526248,650.525083 Z M821.604335,655.0585 C820.029248,654.54443 819.169125,652.850833 819.683195,651.275747 C820.197265,649.70066 821.890861,648.840537 823.465948,649.354607 C823.788268,649.459804 824.110655,649.566077 824.433107,649.673423 C826.00514,650.196758 826.855276,651.89539 826.33194,653.467422 C825.808605,655.039454 824.109973,655.889591 822.537941,655.366255 C822.226651,655.262626 821.915449,655.16004 821.604335,655.0585 Z M838.157091,661.403155 C836.640098,660.736898 835.950441,658.967024 836.616698,657.450031 C837.282955,655.933038 839.052829,655.243381 840.569822,655.909638 C840.879223,656.045525 841.188682,656.182362 841.4982,656.320148 C843.011849,656.993966 843.692666,658.76726 843.018848,660.280909 C842.34503,661.794558 840.571736,662.475376 839.058087,661.801557 C838.757677,661.667826 838.457345,661.535025 838.157091,661.403155 Z M855.035651,668.484495 C853.460373,667.971011 852.599619,666.277735 853.113102,664.702457 C853.626586,663.127179 855.319862,662.266425 856.89514,662.779909 C857.202416,662.88007 857.510694,662.978718 857.819956,663.075847 C859.400682,663.572306 860.279654,665.256197 859.783195,666.836923 C859.286736,668.417649 857.602845,669.296621 856.022119,668.800163 C855.692289,668.696573 855.36346,668.591348 855.035651,668.484495 Z M873.11852,672.576159 C871.47649,672.355017 870.324632,670.844618 870.545773,669.202588 C870.766915,667.560558 872.277314,666.408701 873.919344,666.629842 C874.239645,666.672979 874.560446,666.714645 874.881729,666.754837 C876.525769,666.960507 877.691798,668.459992 877.486129,670.104031 C877.28046,671.748071 875.780974,672.9141 874.136935,672.708431 C873.796972,672.665902 873.457494,672.62181 873.11852,672.576159 Z M891.567415,673.518893 C889.911309,673.568688 888.528403,672.266516 888.478608,670.61041 C888.428813,668.954305 889.730985,667.571398 891.38709,667.521603 C891.710277,667.511886 892.033534,667.500737 892.356842,667.488156 C894.012444,667.423733 895.406799,668.713637 895.471222,670.369239 C895.535646,672.02484 894.245741,673.419195 892.59014,673.483619 C892.249178,673.496886 891.908263,673.508644 891.567415,673.518893 Z M909.952876,671.494482 C908.325616,671.806238 906.753733,670.739811 906.441978,669.112551 C906.130222,667.485291 907.196649,665.913409 908.823909,665.601653 C909.142526,665.540611 909.46083,665.478165 909.778803,665.414315 C911.403232,665.088128 912.984518,666.140561 913.310705,667.76499 C913.636892,669.389418 912.584459,670.970704 910.960031,671.296891 C910.624648,671.364237 910.288924,671.430101 909.952876,671.494482 Z M927.717637,666.576995 C926.162443,667.148429 924.43847,666.350933 923.867036,664.795739 C923.295603,663.240544 924.093098,661.516572 925.648292,660.945138 C925.952598,660.833325 926.256245,660.720144 926.559219,660.605598 C928.10901,660.019667 929.840354,660.801029 930.426286,662.35082 C931.012217,663.90061 930.230855,665.631955 928.681064,666.217886 C928.360612,666.33904 928.039465,666.458744 927.717637,666.576995 Z M944.493871,658.715676 C943.061361,659.54819 941.225196,659.061797 940.392682,657.629287 C939.560167,656.196776 940.046561,654.360611 941.479071,653.528097 C941.759029,653.365397 942.038021,653.201374 942.316036,653.036032 C943.740079,652.189116 945.581055,652.65697 946.427971,654.081014 C947.274887,655.505057 946.807032,657.346033 945.382989,658.192949 C945.087631,658.368606 944.791254,658.54285 944.493871,658.715676 Z M959.620297,647.92871 C958.368866,649.014568 956.47412,648.880345 955.388262,647.628914 C954.302404,646.377483 954.436627,644.482736 955.688058,643.396879 C955.931845,643.185346 956.174421,642.972559 956.415776,642.75852 C957.655398,641.659199 959.551484,641.772936 960.650805,643.012557 C961.750125,644.252179 961.636388,646.148265 960.396767,647.247586 C960.13923,647.475975 959.880403,647.703018 959.620297,647.92871 Z M972.417551,634.388091 C971.405367,635.699827 969.521459,635.942661 968.209723,634.930478 C966.897987,633.918294 966.655152,632.034386 967.667336,630.72265 C967.864144,630.467598 968.05958,630.211386 968.253641,629.954018 C969.251151,628.631089 971.132238,628.367286 972.455166,629.364796 C973.778095,630.362306 974.041898,632.243393 973.044388,633.566322 C972.836912,633.841483 972.627964,634.115407 972.417551,634.388091 Z M982.232269,618.648215 C981.498283,620.133621 979.69911,620.742766 978.213705,620.00878 C976.728299,619.274793 976.119153,617.475621 976.85314,615.990215 C976.995879,615.701346 977.137194,615.411442 977.277081,615.120503 C977.99504,613.627285 979.787553,612.998813 981.280772,613.716771 C982.77399,614.43473 983.402462,616.227244 982.684503,617.720462 C982.53529,618.030797 982.384544,618.340049 982.232269,618.648215 Z M988.879627,601.440126 C988.387486,603.022202 986.706001,603.905768 985.123926,603.413627 C983.54185,602.921486 982.658283,601.240001 983.150424,599.657926 C983.247985,599.3443 983.344683,599.031208 983.440517,598.718648 C983.926211,597.134581 985.604083,596.244174 987.18815,596.729867 C988.772217,597.215561 989.662624,598.893433 989.176931,600.4775 C989.078705,600.79786 988.979603,601.118734 988.879627,601.440126 Z M993.596527,583.804996 C993.239305,585.422883 991.638162,586.444853 990.020275,586.087631 C988.402388,585.730408 987.380418,584.129266 987.737641,582.511379 C987.808647,582.189786 987.878628,581.868736 987.947582,581.548225 C988.296063,579.928433 989.891664,578.897831 991.511456,579.246312 C993.131248,579.594793 994.16185,581.190394 993.813369,582.810186 C993.742139,583.141271 993.669859,583.472873 993.596527,583.804996 Z M996.599213,565.728191 C996.421788,567.375518 994.942533,568.567109 993.295206,568.389683 C991.647879,568.212257 990.456289,566.733003 990.633715,565.085676 C990.668622,564.761573 990.702341,564.438008 990.734869,564.114979 C990.90087,562.466462 992.371828,561.264645 994.020345,561.430646 C995.668863,561.596647 996.87068,563.067605 996.704679,564.716122 C996.670759,565.052966 996.635604,565.390321 996.599213,565.728191 Z M997.336457,547.339569 C997.389413,548.995576 996.089882,550.380965 994.433874,550.43392 C992.777866,550.486876 991.392478,549.187345 991.339522,547.531337 C991.329134,547.206457 991.317371,546.882107 991.304234,546.558285 C991.237071,544.902793 992.524666,543.506305 994.180159,543.439142 C995.835651,543.371979 997.232139,544.659574 997.299302,546.315066 C997.313136,546.656054 997.32552,546.997553 997.336457,547.339569 Z M995.244272,528.944872 C995.570379,530.569316 994.517869,532.150551 992.893424,532.476658 C991.26898,532.802766 989.687745,531.750256 989.361638,530.125811 C989.297739,529.807509 989.232319,529.489703 989.165375,529.17239 C988.823357,527.551221 989.860314,525.959743 991.481483,525.617725 C993.102652,525.275707 994.69413,526.312664 995.036148,527.933833 C995.107142,528.270343 995.176515,528.607355 995.244272,528.944872 Z M989.999694,511.200326 C990.610009,512.740677 989.856066,514.484136 988.315714,515.094451 C986.775363,515.704766 985.031904,514.950822 984.421589,513.410471 C984.302724,513.110472 984.182303,512.810899 984.060322,512.511748 C983.434737,510.977535 984.171325,509.226673 985.705538,508.601088 C987.239751,507.975503 988.990613,508.712091 989.616199,510.246304 C989.74568,510.56385 989.873511,510.881857 989.999694,511.200326 Z M981.69926,494.653901 C982.565376,496.066349 982.122485,497.91349 980.710037,498.779605 C979.297589,499.645721 977.450448,499.202831 976.584333,497.790382 C976.415289,497.514709 976.244743,497.239384 976.072692,496.964407 C975.193861,495.559835 975.620059,493.708771 977.024631,492.829941 C978.429203,491.95111 980.280267,492.377308 981.159097,493.78188 C981.34072,494.072155 981.520774,494.362828 981.69926,494.653901 Z M970.850273,479.701077 C971.918824,480.967317 971.758565,482.86004 970.492324,483.92859 C969.226084,484.997141 967.333361,484.836882 966.264811,483.570641 C966.055466,483.322567 965.844749,483.074773 965.632655,482.827258 C964.554572,481.569124 964.700531,479.675245 965.958665,478.597161 C967.216799,477.519077 969.110678,477.665037 970.188762,478.923171 C970.410676,479.182147 970.631179,479.441448 970.850273,479.701077 Z M958.112498,466.429397 C959.328856,467.554404 959.402911,469.452455 958.277905,470.668813 C957.152898,471.88517 955.254848,471.959225 954.03849,470.834219 C953.798626,470.612369 953.557538,470.390746 953.315226,470.169348 C952.092056,469.051751 952.006472,467.154185 953.124069,465.931016 C954.241665,464.707846 956.139231,464.622262 957.362401,465.739858 C957.613674,465.969444 957.863706,466.19929 958.112498,466.429397 Z M944.084508,454.721782 C945.405229,455.722212 945.664877,457.603877 944.664447,458.924599 C943.664017,460.245321 941.782352,460.504969 940.46163,459.504539 C940.200363,459.306632 939.938024,459.108908 939.674612,458.911367 C938.349085,457.917313 938.080374,456.03692 939.074429,454.711393 C940.068484,453.385867 941.948876,453.117156 943.274403,454.11121 C943.545516,454.314527 943.815551,454.518051 944.084508,454.721782 Z M929.143014,444.326421 C930.537609,445.220999 930.942954,447.076741 930.048376,448.471336 C929.153797,449.865931 927.298056,450.271275 925.90346,449.376697 C925.626733,449.199187 925.349065,449.021828 925.070456,448.844619 C923.672434,447.955406 923.259962,446.101235 924.149175,444.703213 C925.038388,443.305191 926.892559,442.892719 928.290581,443.781932 C928.575668,443.963262 928.859812,444.144758 929.143014,444.326421 Z M915.478594,433.887398 C916.607236,435.100383 916.538863,436.998647 915.325878,438.127289 C914.112893,439.255932 912.214629,439.187558 911.085987,437.974574 C910.845418,437.716027 910.60792,437.455299 910.373486,437.192392 C909.27079,435.955772 909.379357,434.059382 910.615977,432.956687 C911.852597,431.853991 913.748987,431.962558 914.851682,433.199178 C915.057917,433.43046 915.266882,433.659865 915.478594,433.887398 Z M906.580138,419.631853 C907.187391,421.173414 906.429984,422.915371 904.888423,423.522624 C903.346862,424.129877 901.604905,423.37247 900.997652,421.830909 C900.868461,421.502948 900.742013,421.172955 900.618294,420.840925 C900.039779,419.288351 900.829411,417.560762 902.381985,416.982248 C903.93456,416.403734 905.662148,417.193365 906.240663,418.74594 C906.351438,419.043231 906.464593,419.338533 906.580138,419.631853 Z M902.703888,402.869229 C902.872215,404.517511 901.672476,405.990163 900.024194,406.15849 C898.375913,406.326818 896.90326,405.127078 896.734933,403.478796 C896.699862,403.135379 896.666649,402.79033 896.635286,402.44364 C896.486008,400.793524 897.702678,399.334827 899.352794,399.185549 C901.002909,399.036272 902.461606,400.252941 902.610884,401.903057 C902.640172,402.226811 902.671172,402.548865 902.703888,402.869229 Z M902.467754,385.40882 C902.36917,387.062739 900.948486,388.323587 899.294568,388.225003 C897.640649,388.126419 896.379801,386.705735 896.478385,385.051816 C896.498637,384.712054 896.520119,384.370888 896.542826,384.028298 C896.652407,382.375071 898.081444,381.123698 899.734671,381.233279 C901.387897,381.342859 902.63927,382.771897 902.529689,384.425123 C902.507858,384.754486 902.487212,385.082379 902.467754,385.40882 Z M904.41616,367.791642 C904.165473,369.429421 902.634567,370.553881 900.996788,370.303193 C899.359008,370.052505 898.234548,368.5216 898.485236,366.883821 C898.535907,366.552783 898.587426,366.220365 898.639796,365.886535 C898.896574,364.2497 900.431651,363.130942 902.068487,363.38772 C903.705322,363.644498 904.82408,365.179575 904.567302,366.816411 C904.516081,367.142919 904.465701,367.467985 904.41616,367.791642 Z M907.617212,350.197339 C907.284008,351.820343 905.698188,352.865931 904.075184,352.532727 C902.452181,352.199522 901.406592,350.613702 901.739796,348.990699 C901.806793,348.664364 901.87448,348.336269 901.942872,348.006328 C902.279163,346.383961 903.86697,345.341391 905.489336,345.677683 C907.111703,346.013975 908.154273,347.601781 907.817982,349.224148 C907.750358,349.550382 907.68344,349.874751 907.617212,350.197339 Z M911.45627,332.683344 C911.086404,334.298387 909.477317,335.307803 907.862274,334.937938 C906.24723,334.568072 905.237814,332.958985 905.60768,331.343941 C905.681599,331.021169 905.720083,330.853362 905.832765,330.362466 C906.203595,328.747644 907.813285,327.73919 909.428107,328.110021 C911.042929,328.480851 912.051384,330.090541 911.680553,331.705363 C911.568258,332.194575 911.529918,332.361753 911.45627,332.683344 Z M915.509454,315.166038 C915.137646,316.780635 913.527346,317.788115 911.912749,317.416306 C910.298151,317.044498 909.290672,315.434198 909.66248,313.819601 C909.774343,313.333653 909.774343,313.333653 909.886059,312.8476 C910.257052,311.232815 911.866844,310.224523 913.481629,310.595517 C915.096413,310.966511 916.104705,312.576302 915.733711,314.191087 C915.621644,314.678673 915.621644,314.678673 915.509454,315.166038 Z M919.425154,297.560611 C919.082774,299.181704 917.491064,300.218305 915.869972,299.875925 C914.248879,299.533544 913.212278,297.941835 913.554658,296.320742 C913.623549,295.994561 913.691829,295.670006 913.759515,295.346994 C914.099319,293.725359 915.689379,292.68623 917.311014,293.026034 C918.932649,293.365838 919.971778,294.955898 919.631973,296.577533 C919.563633,296.903672 919.494698,297.231336 919.425154,297.560611 Z M922.857506,279.770453 C922.578187,281.403593 921.027833,282.501082 919.394692,282.221763 C917.761552,281.942444 916.664063,280.39209 916.943382,278.758949 C916.999178,278.432723 917.054317,278.10759 917.108804,277.783522 C917.383523,276.149602 918.93078,275.047751 920.5647,275.322469 C922.198621,275.597187 923.300472,277.144445 923.025754,278.778365 C922.97033,279.108006 922.914248,279.438692 922.857506,279.770453 Z M925.397163,261.739303 C925.222089,263.386882 923.744538,264.580583 922.096959,264.405509 C920.449381,264.230435 919.255679,262.752884 919.430753,261.105305 C919.465649,260.776912 919.499719,260.449485 919.532962,260.123008 C919.700804,258.474677 921.173102,257.274503 922.821433,257.442344 C924.469764,257.610186 925.669938,259.082484 925.502097,260.730815 C925.467962,261.066047 925.432984,261.402204 925.397163,261.739303 Z M926.512372,243.478863 C926.495798,245.135634 925.139285,246.465278 923.482513,246.448704 C921.825742,246.432131 920.496099,245.075617 920.512672,243.418846 C920.515945,243.091641 920.518159,242.765405 920.519309,242.440132 C920.52517,240.783288 921.873058,239.444902 923.529902,239.450762 C925.186746,239.456623 926.525132,240.804511 926.519272,242.461355 C926.518075,242.79959 926.515774,243.138756 926.512372,243.478863 Z M925.490852,225.096655 C925.704029,226.739738 924.544861,228.244534 922.901778,228.45771 C921.258695,228.670887 919.753899,227.511719 919.540722,225.868637 C919.498935,225.546558 919.455787,225.225533 919.411274,224.905555 C919.18298,223.264504 920.328246,221.749101 921.969297,221.520807 C923.610348,221.292514 925.125751,222.43778 925.354045,224.078831 C925.4011,224.417081 925.446701,224.756354 925.490852,225.096655 Z M921.422121,206.953475 C921.944686,208.525764 921.093718,210.223978 919.521429,210.746544 C917.949141,211.26911 916.250926,210.418141 915.72836,208.845853 C915.626923,208.540649 915.523814,208.236582 915.419029,207.93365 C914.877405,206.367824 915.707684,204.659399 917.273509,204.117775 C918.839335,203.57615 920.54776,204.40643 921.089384,205.972255 C921.202122,206.298178 921.313032,206.625251 921.422121,206.953475 Z M913.519008,190.011817 C914.394819,191.418274 913.964646,193.268418 912.558189,194.144229 C911.151732,195.02004 909.301588,194.589867 908.425777,193.18341 C908.256853,192.912136 908.086053,192.642 907.913371,192.372999 C907.018322,190.978706 907.42304,189.122827 908.817333,188.227778 C910.211626,187.332729 912.067504,187.737447 912.962553,189.13174 C913.150084,189.423872 913.335567,189.717231 913.519008,190.011817 Z M901.818093,175.515092 C903.000779,176.675445 903.018883,178.574854 901.85853,179.75754 C900.698177,180.940226 898.798768,180.95833 897.616082,179.797977 C897.381825,179.568144 897.147875,179.339526 896.91422,179.112117 C895.726889,177.956517 895.701166,176.057196 896.856765,174.869865 C898.012365,173.682534 899.911686,173.65681 901.099017,174.81241 C901.338432,175.045427 901.578121,175.279651 901.818093,175.515092 Z M888.265588,163.265548 C889.544623,164.318751 889.727697,166.209403 888.674494,167.488438 C887.621292,168.767473 885.73064,168.950547 884.451605,167.897344 C884.197807,167.688358 883.94416,167.480722 883.690653,167.274428 C882.405539,166.228652 882.211518,164.339092 883.257294,163.053978 C884.30307,161.768864 886.19263,161.574842 887.477744,162.620618 C887.740252,162.834237 888.002863,163.049212 888.265588,163.265548 Z M873.434368,152.424956 C874.83143,153.315676 875.241903,155.17029 874.351183,156.567353 C873.460463,157.964415 871.605849,158.374888 870.208786,157.484168 C869.932454,157.307988 869.656051,157.133275 869.379567,156.960024 C867.975581,156.080256 867.550619,154.228908 868.430387,152.824923 C869.310154,151.420938 871.161502,150.995975 872.565487,151.875743 C872.855243,152.05731 873.144866,152.240379 873.434368,152.424956 Z M857.192981,143.706574 C858.710433,144.371784 859.401312,146.141182 858.736101,147.658634 C858.070891,149.176086 856.301494,149.866965 854.784041,149.201754 C854.487631,149.071816 854.190877,148.943364 853.893769,148.816396 C852.370206,148.165305 851.662927,146.402398 852.314019,144.878835 C852.96511,143.355271 854.728016,142.647993 856.25158,143.299084 C856.565775,143.433355 856.879572,143.569183 857.192981,143.706574 Z M839.645238,137.740998 C841.253888,138.137749 842.236326,139.763448 841.839574,141.372098 C841.442823,142.980748 839.817124,143.963186 838.208474,143.566435 C837.895785,143.489314 837.582494,143.413601 837.26859,143.339293 C835.656294,142.957628 834.658671,141.341203 835.040336,139.728908 C835.422001,138.116612 837.038426,137.118988 838.650722,137.500654 C838.982852,137.579276 839.314354,137.65939 839.645238,137.740998 Z M821.450564,134.802344 C823.101817,134.938473 824.330066,136.387433 824.193937,138.038685 C824.057807,139.689938 822.608848,140.918188 820.957595,140.782058 C820.635801,140.755529 820.313239,140.730247 819.9899,140.706213 C818.337604,140.583392 817.097719,139.144376 817.22054,137.49208 C817.34336,135.839785 818.782376,134.5999 820.434672,134.722721 C820.774067,134.747949 821.112694,134.77449 821.450564,134.802344 Z M803.048488,134.538849 C804.703418,134.459037 806.109705,135.735924 806.189516,137.390855 C806.269328,139.045785 804.992441,140.452072 803.33751,140.531883 C803.012428,140.547561 802.686514,140.564302 802.35976,140.582108 C800.705361,140.672261 799.291121,139.404188 799.200968,137.749788 C799.110816,136.095389 800.378888,134.681149 802.033288,134.590997 C802.372506,134.572512 802.710903,134.555129 803.048488,134.538849 Z M784.837421,136.362424 C786.476517,136.120495 788.001389,137.253123 788.243318,138.892219 C788.485247,140.531315 787.35262,142.056187 785.713523,142.298116 C785.389569,142.345932 785.064787,142.394639 784.739174,142.444238 C783.101213,142.69374 781.571122,141.568173 781.32162,139.930212 C781.072117,138.292252 782.197685,136.762161 783.835645,136.512658 C784.170384,136.461669 784.504307,136.411591 784.837421,136.362424 Z M766.897739,139.711024 C768.515088,139.351372 770.117763,140.370937 770.477415,141.988285 C770.837066,143.605634 769.817501,145.20831 768.200153,145.567961 C767.879437,145.639279 767.557931,145.711345 767.235631,145.784159 C765.619507,146.149274 764.013395,145.135132 763.64828,143.519008 C763.283164,141.902884 764.297307,140.296772 765.913431,139.931656 C766.242314,139.857355 766.570415,139.783811 766.897739,139.711024 Z M749.273396,144.147926 C750.869439,143.703163 752.523838,144.63646 752.968601,146.232502 C753.413364,147.828545 752.480067,149.482945 750.884025,149.927708 C750.565865,150.016368 750.246956,150.105668 749.927293,150.195608 C748.332366,150.644357 746.67564,149.715197 746.226891,148.12027 C745.778142,146.525344 746.707303,144.868618 748.302229,144.419869 C748.626695,144.328577 748.950416,144.23793 749.273396,144.147926 Z M731.927543,149.368399 C733.504904,148.861352 735.194651,149.729013 735.701698,151.306374 C736.208746,152.883736 735.341084,154.573483 733.763723,155.08053 C733.447879,155.182059 733.131323,155.284144 732.814053,155.386788 C731.237643,155.896788 729.546275,155.032293 729.036274,153.455883 C728.526274,151.879474 729.39077,150.188105 730.967179,149.678105 C731.288008,149.574311 731.608128,149.471075 731.927543,149.368399 Z M714.830865,155.156497 C716.392591,154.603164 718.107186,155.420627 718.660519,156.982353 C719.213853,158.544079 718.39639,160.258673 716.834664,160.812007 C716.521335,160.923022 716.207332,161.034528 715.892651,161.146527 C714.331713,161.702081 712.615958,160.887056 712.060404,159.326119 C711.50485,157.765181 712.319875,156.049426 713.880812,155.493872 C714.198169,155.380921 714.514852,155.268464 714.830865,155.156497 Z M697.91082,161.376091 C699.459695,160.787742 701.192256,161.566402 701.780605,163.115276 C702.368954,164.66415 701.590294,166.396712 700.04142,166.985061 C699.731372,167.102834 699.420685,167.221045 699.109356,167.339693 C697.561124,167.929729 695.827715,167.152958 695.237679,165.604726 C694.647642,164.056493 695.424414,162.323084 696.972646,161.733048 C697.286009,161.613625 697.598732,161.494639 697.91082,161.376091 Z M681.073833,167.947507 C682.612204,167.332218 684.35809,168.080524 684.973379,169.618896 C685.588668,171.157267 684.840361,172.903153 683.30199,173.518442 C682.994115,173.64158 682.685629,173.765114 682.376528,173.889046 C680.838677,174.505635 679.092159,173.758805 678.47557,172.220955 C677.858981,170.683104 678.60581,168.936586 680.143661,168.319997 C680.454329,168.195437 680.764386,168.071274 681.073833,167.947507 Z M664.364168,174.768284 C665.894028,174.132127 667.649931,174.856616 668.286088,176.386476 C668.922245,177.916335 668.197756,179.672239 666.667897,180.308396 C666.362363,180.435445 666.056242,180.562857 665.749529,180.690635 C664.22009,181.327803 662.463709,180.604474 661.826541,179.075035 C661.189373,177.545597 661.912701,175.789215 663.44214,175.152047 C663.750071,175.023762 664.057413,174.895842 664.364168,174.768284 Z M647.749068,181.785846 C649.272038,181.133367 651.035588,181.839039 651.688067,183.362009 C652.340545,184.884979 651.634873,186.648529 650.111903,187.301007 C649.652736,187.497774 649.652736,187.497774 649.192727,187.695091 C647.670099,188.348368 645.90618,187.64362 645.252903,186.120992 C644.599626,184.598364 645.304375,182.834445 646.827003,182.181168 C647.288452,181.983233 647.288452,181.983233 647.749068,181.785846 Z M631.203364,188.960601 C632.720763,188.295269 634.490216,188.986005 635.155548,190.503404 C635.82088,192.020803 635.130144,193.790256 633.612745,194.455588 C633.156879,194.655509 633.156879,194.655509 632.700229,194.855923 C631.183106,195.521882 629.413367,194.831877 628.747408,193.314753 C628.081449,191.79763 628.771454,190.027891 630.288578,189.361932 C630.746359,189.161021 630.746359,189.161021 631.203364,188.960601 Z M614.752066,196.242229 C616.264979,195.566758 618.039014,196.245639 618.714485,197.758552 C619.389956,199.271464 618.711075,201.0455 617.198162,201.720971 C616.743159,201.924146 616.743159,201.924146 616.287418,202.127771 C614.774727,202.803738 613.000469,202.12544 612.324501,200.612749 C611.648534,199.100058 612.326832,197.3258 613.839523,196.649832 C614.296161,196.445807 614.296161,196.445807 614.752066,196.242229 Z M598.298897,203.642728 C599.808191,202.959209 601.585817,203.628632 602.269336,205.137925 C602.952855,206.647219 602.283432,208.424845 600.774138,209.108364 C600.318654,209.314665 600.318654,209.314665 599.862467,209.52138 C598.353352,210.205293 596.575551,209.536335 595.891638,208.02722 C595.207725,206.518104 595.876683,204.740303 597.385798,204.05639 C597.842696,203.849353 597.842696,203.849353 598.298897,203.642728 Z M581.913042,211.106679 C583.419445,210.416813 585.199873,211.078747 585.889739,212.58515 C586.579606,214.091553 585.917672,215.871981 584.411269,216.561848 C583.956784,216.770001 583.956784,216.770001 583.501635,216.978534 C581.995374,217.668711 580.21481,217.007144 579.524632,215.500884 C578.834455,213.994623 579.496022,212.214058 581.002283,211.523881 C581.457992,211.315091 581.457992,211.315091 581.913042,211.106679 Z M565.544651,218.636892 C567.048756,217.94203 568.831371,218.598052 569.526233,220.102158 C570.221094,221.606263 569.565072,223.388878 568.060967,224.08374 C567.608162,224.29294 567.608162,224.29294 567.154728,224.50249 C565.650735,225.197594 563.868014,224.54186 563.17291,223.037866 C562.477805,221.533873 563.13354,219.751152 564.637533,219.056048 C565.091404,218.846296 565.091404,218.846296 565.544651,218.636892 Z M549.21081,226.20949 C550.713112,225.510739 552.497419,226.162146 553.19617,227.664448 C553.894922,229.16675 553.243515,230.951057 551.741213,231.649809 C551.287946,231.860644 551.287946,231.860644 550.834079,232.071804 C549.331864,232.770744 547.547476,232.119561 546.848536,230.617346 C546.149596,229.115131 546.800779,227.330743 548.302994,226.631803 C548.757201,226.420485 548.757201,226.420485 549.21081,226.20949 Z M532.880555,233.825711 C534.381463,233.12397 536.167064,233.771822 536.868805,235.27273 C537.570547,236.773637 536.922695,238.559238 535.421787,239.26098 C534.969416,239.472492 534.969416,239.472492 534.516474,239.684307 C533.015633,240.386192 531.229971,239.738509 530.528086,238.237668 C529.826201,236.736827 530.473883,234.951165 531.974725,234.249281 C532.427925,234.037345 532.427925,234.037345 532.880555,233.825711 Z M516.599063,241.396206 C518.11135,240.719336 519.886013,241.396574 520.562884,242.908861 C521.239755,244.421148 520.562516,246.195811 519.050229,246.872682 C518.74388,247.009798 518.437613,247.146317 518.13143,247.28224 C516.617086,247.954497 514.844496,247.271851 514.172239,245.757508 C513.499982,244.243164 514.182629,242.470574 515.696972,241.798317 C515.99758,241.664869 516.298277,241.530832 516.599063,241.396206 Z M500.130963,248.212794 C501.679789,247.624317 503.412415,248.402834 504.000891,249.95166 C504.589368,251.500486 503.810851,253.233112 502.262025,253.821588 C501.949915,253.940175 501.637888,254.058133 501.325945,254.175462 C499.775159,254.758753 498.045148,253.974444 497.461857,252.423658 C496.878566,250.872871 497.662876,249.14286 499.213662,248.559569 C499.519339,248.444596 499.825106,248.329004 500.130963,248.212794 Z M483.291546,254.01467 C484.87464,253.525815 486.554287,254.41287 487.043143,255.995964 C487.531998,257.579058 486.644942,259.258705 485.061848,259.74756 C484.7397,259.847039 484.417637,259.945839 484.09566,260.04396 C482.510767,260.526948 480.834417,259.633678 480.351428,258.048784 C479.868439,256.463891 480.76171,254.787541 482.346603,254.304552 C482.661492,254.208591 482.976473,254.111964 483.291546,254.01467 Z M466.097427,258.684819 C467.710671,258.307183 469.324599,259.308842 469.702234,260.922086 C470.07987,262.535331 469.078211,264.149258 467.464967,264.526894 C467.136483,264.603787 466.808085,264.679964 466.479773,264.755424 C464.865023,265.126567 463.255138,264.118423 462.883996,262.503673 C462.512853,260.888922 463.520997,259.279038 465.135747,258.907895 C465.456215,258.834238 465.776775,258.759879 466.097427,258.684819 Z M448.675249,262.088493 C450.312228,261.832633 451.846678,262.952252 452.102538,264.589231 C452.358399,266.22621 451.23878,267.76066 449.601801,268.01652 C449.270554,268.068294 448.939392,268.119329 448.608314,268.169626 C446.970255,268.418476 445.440612,267.2923 445.191761,265.65424 C444.942911,264.01618 446.069087,262.486538 447.707147,262.237687 C448.029758,262.188677 448.352459,262.138946 448.675249,262.088493 Z M431.009894,264.1377 C432.662063,264.013187 434.102348,265.251597 434.226861,266.903766 C434.351374,268.555935 433.112964,269.99622 431.460795,270.120733 C431.124641,270.146067 430.788571,270.170629 430.452584,270.19442 C428.799868,270.311448 427.365207,269.066526 427.24818,267.41381 C427.131152,265.761094 428.376074,264.326433 430.02879,264.209406 C430.355738,264.186255 430.682773,264.162353 431.009894,264.1377 Z M413.259196,264.738814 C414.915998,264.751998 416.248413,266.105789 416.235229,267.762591 C416.222045,269.419392 414.868254,270.751808 413.211452,270.738624 C412.874637,270.735943 412.537903,270.732478 412.201248,270.728228 C410.544526,270.707314 409.218442,269.347321 409.239356,267.690599 C409.26027,266.033877 410.620263,264.707792 412.276985,264.728707 C412.604309,264.732839 412.931712,264.736208 413.259196,264.738814 Z M395.570064,263.849898 C397.219823,264.003065 398.433052,265.464625 398.279885,267.114385 C398.126718,268.764144 396.665158,269.977372 395.015399,269.824206 C394.676995,269.792788 394.338668,269.760567 394.000418,269.727545 C392.351404,269.566555 391.145121,268.099258 391.30611,266.450243 C391.467099,264.801229 392.934397,263.594946 394.583412,263.755935 C394.912222,263.788036 395.241106,263.819357 395.570064,263.849898 Z M377.973686,261.460927 C379.604632,261.752785 380.690177,263.311526 380.398318,264.942472 C380.10646,266.573418 378.547719,267.658963 376.916773,267.367105 C376.585838,267.307884 376.254972,267.247886 375.924175,267.187113 C374.294593,266.887728 373.216256,265.323992 373.515641,263.694411 C373.815025,262.06483 375.378761,260.986493 377.008342,261.285877 C377.33006,261.344983 377.651841,261.403333 377.973686,261.460927 Z M360.646005,257.614941 C362.247505,258.039632 363.201498,259.682184 362.776807,261.283685 C362.352116,262.885185 360.709563,263.839178 359.108063,263.414487 C358.779819,263.327442 358.451638,263.239625 358.12352,263.151036 C356.523941,262.719164 355.577327,261.072348 356.009199,259.472769 C356.441071,257.87319 358.087888,256.926576 359.687466,257.358448 C360.006924,257.444699 360.326437,257.530197 360.646005,257.614941 Z M343.651233,252.380985 C345.214609,252.929641 346.037201,254.641781 345.488545,256.205156 C344.939889,257.768532 343.227749,258.591124 341.664373,258.042468 C341.347001,257.931088 341.029681,257.818979 340.712415,257.706141 C339.151353,257.150938 338.335942,255.435366 338.891145,253.874304 C339.446348,252.313241 341.16192,251.497831 342.722982,252.053034 C343.032355,252.163064 343.341772,252.272382 343.651233,252.380985 Z M327.072717,245.862867 C328.591757,246.524444 329.286868,248.292183 328.625291,249.811223 C327.963714,251.330263 326.195975,252.025374 324.676935,251.363797 C324.36726,251.228926 324.05763,251.093355 323.748045,250.957083 C322.231599,250.289583 321.543392,248.519144 322.210893,247.002698 C322.878394,245.486252 324.648833,244.798046 326.165279,245.465547 C326.467723,245.598675 326.770202,245.731115 327.072717,245.862867 Z M310.992349,238.195323 C312.463408,238.957655 313.037945,240.768177 312.275613,242.239236 C311.51328,243.710295 309.702759,244.284832 308.231699,243.522499 C307.934062,243.368258 307.63646,243.213363 307.338893,243.057817 C305.870548,242.29027 305.302438,240.477722 306.069984,239.009376 C306.837531,237.541031 308.650079,236.972921 310.118425,237.740468 C310.409706,237.892729 310.701014,238.044347 310.992349,238.195323 Z M295.450593,229.517353 C296.872236,230.368292 297.334884,232.210583 296.483945,233.632227 C295.633006,235.05387 293.790715,235.516517 292.369072,234.665578 C292.079777,234.492418 291.79051,234.318637 291.501271,234.144235 C290.082391,233.288697 289.625713,231.444917 290.481251,230.026037 C291.33679,228.607157 293.18057,228.150479 294.59945,229.006017 C294.883145,229.177076 295.166859,229.347521 295.450593,229.517353 Z M280.448298,219.954541 C281.820751,220.882733 282.180896,222.747773 281.252704,224.120226 C280.324513,225.492679 278.459472,225.852824 277.087019,224.924632 C276.809407,224.736883 276.531815,224.548558 276.254243,224.359658 C274.884492,223.427484 274.529767,221.561405 275.461942,220.191654 C276.394116,218.821904 278.260195,218.467178 279.629946,219.399353 C279.902718,219.584986 280.175502,219.770049 280.448298,219.954541 Z M265.927955,209.588069 C267.252461,210.583484 267.519241,212.464151 266.523827,213.788657 C265.528412,215.113163 263.647745,215.379944 262.323239,214.384529 C262.055679,214.183448 261.788133,213.98183 261.520598,213.779674 C260.198694,212.780807 259.93682,210.89945 260.935687,209.577546 C261.934554,208.255641 263.81591,207.993767 265.137815,208.992634 C265.401189,209.191646 265.664569,209.390125 265.927955,209.588069 Z M251.894605,198.532265 C253.173244,199.585948 253.355607,201.476668 252.301925,202.755308 C251.248242,204.033947 249.357521,204.216311 248.078882,203.162628 C247.819774,202.949106 247.560672,202.735077 247.301577,202.520541 C246.025417,201.463858 245.847496,199.572714 246.90418,198.296553 C247.960864,197.020393 249.852008,196.842472 251.128168,197.899156 C251.383646,198.110697 251.639125,198.321733 251.894605,198.532265 Z M238.334552,186.884545 C239.569876,187.988692 239.676215,189.885208 238.572068,191.120532 C237.467921,192.355856 235.571405,192.462196 234.336081,191.358049 C234.085932,191.134462 233.835783,190.910401 233.585635,190.685865 C232.352641,189.579117 232.250299,187.682381 233.357047,186.449387 C234.463795,185.216393 236.360531,185.114051 237.593525,186.220799 C237.840538,186.44252 238.087546,186.663769 238.334552,186.884545 Z M225.196034,174.699746 C226.390719,175.847742 226.428568,177.74686 225.280572,178.941545 C224.132576,180.136229 222.233459,180.174078 221.038774,179.026083 C220.797153,178.793904 220.555527,178.561282 220.313898,178.328215 C219.121387,177.177961 219.08713,175.278775 220.237383,174.086264 C221.387636,172.893753 223.286822,172.859496 224.479334,174.009749 C224.718242,174.240191 224.957142,174.47019 225.196034,174.699746 Z M212.488048,162.078996 C213.644928,163.265079 213.621253,165.164427 212.435169,166.321307 C211.249085,167.478186 209.349738,167.454512 208.192858,166.268428 C207.959191,166.028863 207.725516,165.788881 207.491833,165.548482 C206.336972,164.360433 206.363875,162.461129 207.551924,161.306267 C208.739973,160.151405 210.639277,160.178309 211.794139,161.366358 C212.025454,161.60432 212.256757,161.841866 212.488048,162.078996 Z M200.18118,149.081563 C201.303019,150.300843 201.224028,152.198695 200.004748,153.320534 C198.785468,154.442373 196.887616,154.363381 195.765777,153.144102 C195.539394,152.898056 195.313,152.651618 195.086593,152.404787 C193.966623,151.18379 194.048522,149.286062 195.269519,148.166092 C196.490516,147.046122 198.388244,147.128021 199.508214,148.349018 C199.732551,148.593591 199.956873,148.837773 200.18118,149.081563 Z M188.208243,135.713605 C189.297572,136.962015 189.168612,138.857127 187.920202,139.946456 C186.671792,141.035786 184.77668,140.906825 183.68735,139.658415 C183.467436,139.406385 183.247506,139.153985 183.02756,138.901213 C181.939961,137.651295 182.071547,135.756364 183.321465,134.668765 C184.571383,133.581166 186.466315,133.712752 187.553913,134.962669 C187.772041,135.213352 187.990151,135.463664 188.208243,135.713605 Z M176.581346,122.058689 C177.640648,123.332677 177.46661,125.224183 176.192622,126.283484 C174.918634,127.342786 173.027128,127.168748 171.967827,125.89476 C171.933764,125.853793 171.933764,125.853793 171.899702,125.812818 C170.840571,124.538689 171.014861,122.647207 172.288991,121.588075 C173.56312,120.528943 175.454602,120.703234 176.513734,121.977363 C176.54754,122.01803 176.54754,122.01803 176.581346,122.058689 Z" id="Path-78" fill="#D2D2D2" fill-rule="nonzero"></path>
    </g>
</svg>