<?xml version="1.0" encoding="UTF-8"?>
<svg width="1000px" height="800px" viewBox="0 0 1000 800" version="1.1" xmlns="http://www.w3.org/2000/svg" xmlns:xlink="http://www.w3.org/1999/xlink">
    <!-- Generator: Sketch 49.1 (51147) - http://www.bohemiancoding.com/sketch -->
    <title>curve01</title>
    <desc>Created with Sketch.</desc>
    <defs></defs>
    <g id="curve01" stroke="none" stroke-width="1" fill="none" fill-rule="evenodd" stroke-linecap="round">
        <path d="M156.554688,722.976562 C244.871094,655.242188 338.292969,576.753906 462.546875,642.160156 C586.800781,707.566406 651.140625,704.55625 700.953125,670.28789 C750.765625,636.019531 799.945312,639.699219 845.355469,661.402344 C890.765625,683.105469 964.027344,667.042969 984.578125,605.035156 C1005.12891,543.027344 997.277344,489.976562 923.894531,444.5625 C850.511719,399.148438 971.351563,248.164062 900.015625,177.945312 C828.679688,107.726562 764.808594,128.398438 523.152344,241.695312 C391.628154,303.358438 280.835938,252.164062 174.210938,123.894531" id="Path-78" stroke="#D2D2D2" stroke-width="6" stroke-dasharray="1,17"></path>
        <polyline id="Rectangle-Copy-3" stroke="#D2D2D2" stroke-width="8" stroke-linejoin="round" transform="translate(251.299259, 656.631639) rotate(10.000000) translate(-251.299259, -656.631639) " points="240.928531 644.618349 261.669986 647.903473 258.384863 668.644928"></polyline>
        <polyline id="Rectangle-Copy-4" stroke="#D2D2D2" stroke-width="8" stroke-linejoin="round" transform="translate(709.578809, 667.192454) rotate(-1.000000) translate(-709.578809, -667.192454) " points="699.208081 655.179164 719.949536 658.464288 716.664413 679.205743"></polyline>
        <polyline id="Rectangle-Copy-6" stroke="#D2D2D2" stroke-width="8" stroke-linejoin="round" transform="translate(575.568364, 215.851459) rotate(-173.000000) translate(-575.568364, -215.851459) " points="565.197637 203.838169 585.939092 207.123293 582.653968 227.864748"></polyline>
        <polyline id="Rectangle-Copy-5" stroke="#D2D2D2" stroke-width="8" stroke-linejoin="round" transform="translate(911.568364, 324.851459) rotate(-38.000000) translate(-911.568364, -324.851459) " points="901.197637 312.838169 921.939092 316.123293 918.653968 336.864748"></polyline>
    </g>
</svg>