<?xml version="1.0" encoding="UTF-8"?>
<svg width="1000px" height="800px" viewBox="0 0 1000 800" version="1.1" xmlns="http://www.w3.org/2000/svg" xmlns:xlink="http://www.w3.org/1999/xlink">
    <!-- Generator: Sketch 49.1 (51147) - http://www.bohemiancoding.com/sketch -->
    <title>curve03</title>
    <desc>Created with Sketch.</desc>
    <defs></defs>
    <g id="curve03" stroke="none" stroke-width="1" fill="none" fill-rule="evenodd" stroke-linecap="round">
        <g id="Group" transform="translate(5.000000, 152.000000)" stroke="#FFFFFF">
            <path d="M552.023437,589.359375 C517.828125,556.878906 535.824219,418.515625 403.894531,384.855469 C271.964844,351.195313 303.277344,470.578125 153.21875,443.96875 C3.16015625,417.359375 -27.1367187,257.5 53.9453125,206.238281 C135.027344,154.976563 181.300781,258.324219 256.890625,206.238281 C332.480469,154.152344 262.917969,73.3476563 383.980469,18.25 C505.042969,-36.8476563 599.472656,46.3007813 669.128906,123.484375 C715.566406,174.940104 788.442708,212.796875 887.757812,237.054688" id="Path-5" stroke-width="6" stroke-dasharray="1,17"></path>
            <polyline id="Rectangle-Copy-3" stroke-width="8" stroke-linejoin="round" transform="translate(519.187618, 498.757477) rotate(-75.000000) translate(-519.187618, -498.757477) " points="508.81689 486.744188 529.558346 490.029312 526.273222 510.770767"></polyline>
            <polyline id="Rectangle-Copy-4" stroke-width="8" stroke-linejoin="round" transform="translate(15.451329, 326.814716) rotate(-66.000000) translate(-15.451329, -326.814716) " points="5.08060165 314.801427 25.8220568 318.08655 22.536933 338.828006"></polyline>
            <polyline id="Rectangle-Copy-5" stroke-width="8" stroke-linejoin="round" transform="translate(295.126622, 154.288088) rotate(-40.000000) translate(-295.126622, -154.288088) " points="284.755894 142.274799 305.497349 145.559923 302.212226 166.301378"></polyline>
            <polyline id="Rectangle-Copy-6" stroke-width="8" stroke-linejoin="round" transform="translate(723.126622, 169.288088) rotate(71.000000) translate(-723.126622, -169.288088) " points="712.755894 157.274799 733.497349 160.559923 730.212226 181.301378"></polyline>
        </g>
    </g>
</svg>