<?xml version="1.0" encoding="UTF-8"?>
<svg width="1000px" height="800px" viewBox="0 0 1000 800" version="1.1" xmlns="http://www.w3.org/2000/svg" xmlns:xlink="http://www.w3.org/1999/xlink">
    <!-- Generator: Sketch 49.1 (51147) - http://www.bohemiancoding.com/sketch -->
    <title>curve02</title>
    <desc>Created with Sketch.</desc>
    <defs></defs>
    <g id="curve02" stroke="none" stroke-width="1" fill="none" fill-rule="evenodd" stroke-linecap="round">
        <path d="M212,735.640673 C299.096676,754.742145 346.980505,722.403654 405.582903,644.700632 C464.185302,566.997609 569.929083,584.360453 628.336101,651.647332 C686.743119,718.934211 779.365153,704.482105 833.004889,631.623801 C886.644624,558.765496 872.123953,490.247902 833.004889,433.978849 C793.885824,377.709796 741.367572,360.854867 682.647946,369.360472 C623.928319,377.866078 581.776951,363.749976 555.252107,303.97241 C511.85812,195.052214 662.945786,169.152509 589.639058,51" id="Path-76" stroke="#FFFFFF" stroke-width="6" stroke-dasharray="1,17"></path>
        <polyline id="Rectangle" stroke="#FFFFFF" stroke-width="8" stroke-linejoin="round" points="584 150.4352 604.284442 145 609.719642 165.284442"></polyline>
        <polyline id="Rectangle-Copy" stroke="#FFFFFF" stroke-width="8" stroke-linejoin="round" points="741.638115 385.409461 729 368.638115 745.771346 356"></polyline>
        <polyline id="Rectangle-Copy-2" stroke="#FFFFFF" stroke-width="8" stroke-linejoin="round" points="742.116062 677.582262 760.827199 687.116062 751.293399 705.827199"></polyline>
        <polyline id="Rectangle-Copy-3" stroke="#FFFFFF" stroke-width="8" stroke-linejoin="round" points="327.976565 703.691441 348.71802 706.976565 345.432896 727.71802"></polyline>
    </g>
</svg>