<?xml version="1.0" encoding="UTF-8"?>
<svg width="1000px" height="800px" viewBox="0 0 1000 800" version="1.1" xmlns="http://www.w3.org/2000/svg" xmlns:xlink="http://www.w3.org/1999/xlink">
    <!-- Generator: Sketch 49.1 (51147) - http://www.bohemiancoding.com/sketch -->
    <title>curve03</title>
    <desc>Created with Sketch.</desc>
    <defs></defs>
    <g id="curve03" stroke="none" stroke-width="1" fill="none" fill-rule="evenodd">
        <path d="M561.091731,739.184215 C562.293038,740.325279 562.341875,742.224146 561.200812,743.425454 C560.059748,744.626761 558.160881,744.675598 556.959574,743.534535 C556.694996,743.283225 556.432956,743.025876 556.173393,742.762488 C555.010423,741.582375 555.02432,739.682931 556.204433,738.51996 C557.384546,737.35699 559.28399,737.370887 560.44696,738.551 C560.660386,738.767572 560.875296,738.978634 561.091731,739.184215 Z M551.799147,725.197207 C552.495099,726.700809 551.84037,728.483899 550.336769,729.179851 C548.833167,729.875803 547.050077,729.221073 546.354125,727.717472 C546.210271,727.406675 546.066977,727.092425 545.924206,726.774672 C545.245153,725.263363 545.919828,723.487725 547.431137,722.808671 C548.942445,722.129618 550.718084,722.804294 551.397137,724.315602 C551.530775,724.613028 551.664768,724.906881 551.799147,725.197207 Z M545.617421,708.700668 C546.117337,710.280304 545.24205,711.966113 543.662414,712.466029 C542.082778,712.965945 540.396968,712.090659 539.897053,710.511023 C539.795991,710.191687 539.694655,709.869349 539.592995,709.543873 C539.099022,707.962368 539.980642,706.279861 541.562147,705.785889 C543.143652,705.291917 544.826158,706.173537 545.32013,707.755042 C545.419564,708.07339 545.518645,708.388555 545.617421,708.700668 Z M540.620435,691.504737 C541.060064,693.102201 540.121453,694.753591 538.523988,695.19322 C536.926524,695.632849 535.275134,694.694239 534.835504,693.096774 C534.74856,692.780849 534.659817,692.457957 534.568719,692.126098 C534.130122,690.52835 535.069801,688.877567 536.667549,688.438971 C538.265297,688.000374 539.91608,688.940053 540.354677,690.537801 C540.44544,690.868441 540.533842,691.190088 540.620435,691.504737 Z M535.857006,674.169989 C536.303908,675.765434 535.37283,677.421084 533.777385,677.867986 C532.18194,678.314888 530.526291,677.38381 530.079389,675.788366 C529.989208,675.46642 529.899675,675.147464 529.810686,674.831142 C529.361989,673.236201 530.291204,671.579505 531.886145,671.130809 C533.481086,670.682112 535.137782,671.611327 535.586479,673.206268 C535.676083,673.524776 535.766224,673.845897 535.857006,674.169989 Z M530.732392,656.810769 C531.229775,658.391204 530.351787,660.075609 528.771351,660.572992 C527.190916,661.070375 525.506511,660.192387 525.009129,658.611951 C524.909725,658.296095 524.810265,657.981384 524.710729,657.667766 C524.209516,656.088541 525.083417,654.402013 526.662642,653.9008 C528.241867,653.399587 529.928396,654.273489 530.429609,655.852714 C530.530616,656.170969 530.631538,656.490304 530.732392,656.810769 Z M524.844049,639.619448 C525.425336,641.170987 524.638792,642.899983 523.087254,643.48127 C521.535715,644.062557 519.806719,643.276013 519.225432,641.724474 C519.109231,641.414318 518.992716,641.104998 518.875877,640.796497 C518.28905,639.247045 519.069412,637.51525 520.618864,636.928423 C522.168315,636.341596 523.900111,637.121958 524.486938,638.67141 C524.606314,638.986609 524.725347,639.302616 524.844049,639.619448 Z M517.84803,622.772355 C518.541609,624.277052 517.884067,626.059107 516.37937,626.752686 C514.874672,627.446265 513.092617,626.788723 512.399038,625.284026 C512.261416,624.985459 512.123311,624.687654 511.984717,624.390605 C511.284177,622.889136 511.933458,621.104055 513.434927,620.403515 C514.936397,619.702975 516.721478,620.352256 517.422018,621.853725 C517.564535,622.159183 517.706537,622.46539 517.84803,622.772355 Z M509.476962,606.553296 C510.305966,607.987841 509.815079,609.822809 508.380534,610.651813 C506.94599,611.480817 505.111021,610.98993 504.282017,609.555385 C504.117435,609.270586 503.952231,608.986564 503.786399,608.703315 C502.949288,607.273486 503.42978,605.435768 504.859609,604.598656 C506.289438,603.761545 508.127156,604.242037 508.964268,605.671866 C509.135827,605.964898 509.306724,606.258707 509.476962,606.553296 Z M499.460538,591.179238 C500.44127,592.514652 500.153743,594.392259 498.818329,595.372991 C497.482915,596.353724 495.605308,596.066197 494.624576,594.730783 C494.430772,594.46689 494.236238,594.2038 494.04097,593.941511 C493.05156,592.612514 493.32685,590.733074 494.655847,589.743664 C495.984845,588.754254 497.864285,589.029544 498.853695,590.358541 C499.05675,590.631289 499.259029,590.904854 499.460538,591.179238 Z M487.74031,577.086447 C488.876623,578.292249 488.820291,580.190908 487.614489,581.327221 C486.408688,582.463535 484.510028,582.407203 483.373715,581.201401 C483.149696,580.963682 482.924869,580.72679 482.699231,580.490725 C481.55441,579.292997 481.5973,577.393987 482.795027,576.249166 C483.992755,575.104345 485.891765,575.147234 487.036586,576.344962 C487.272013,576.591269 487.506587,576.838431 487.74031,577.086447 Z M474.275964,564.529353 C475.558483,565.57831 475.747823,567.468345 474.698865,568.750864 C473.649908,570.033383 471.759873,570.222722 470.477354,569.173765 C470.224603,568.967043 469.971003,568.761151 469.716549,568.556091 C468.426474,567.51644 468.223466,565.627825 469.263117,564.33775 C470.302768,563.047676 472.191383,562.844667 473.481458,563.884318 C473.747181,564.098461 474.012016,564.313472 474.275964,564.529353 Z M459.335782,553.839702 C460.741894,554.716066 461.171339,556.566379 460.294975,557.972491 C459.418611,559.378603 457.568298,559.808049 456.162185,558.931684 C455.885534,558.75926 455.608033,558.587641 455.329682,558.416829 C453.917521,557.550246 453.475243,555.702958 454.341826,554.290797 C455.208409,552.878636 457.055697,552.436357 458.467858,553.302941 C458.758041,553.481014 459.047348,553.659934 459.335782,553.839702 Z M443.172927,545.088624 C444.674156,545.789678 445.322827,547.574981 444.621773,549.07621 C443.92072,550.57744 442.135416,551.22611 440.634187,550.525057 C440.33857,550.387007 440.042136,550.24972 439.744883,550.113196 C438.239239,549.421674 437.579263,547.640519 438.270785,546.134876 C438.962307,544.629232 440.743462,543.969256 442.249106,544.660778 C442.557878,544.802592 442.865818,544.945208 443.172927,545.088624 Z M426.154343,538.256954 C427.722445,538.791951 428.559942,540.49685 428.024945,542.064952 C427.489948,543.633054 425.785049,544.470551 424.216947,543.935554 C423.90732,543.829917 423.596928,543.724988 423.285769,543.620768 C421.714699,543.094552 420.867677,541.394365 421.393893,539.823294 C421.92011,538.252224 423.620296,537.405202 425.191367,537.931418 C425.513131,538.03919 425.834122,538.147702 426.154343,538.256954 Z M408.594013,533.199814 C410.206302,533.581505 411.2039,535.197946 410.822209,536.810235 C410.440518,538.422525 408.824077,539.420122 407.211787,539.038431 C406.889025,538.962021 406.566526,538.886655 406.24429,538.812332 C404.629823,538.439957 403.622909,536.829304 403.995284,535.214837 C404.367658,533.60037 405.978312,532.593455 407.592778,532.96583 C407.926272,533.04275 408.260016,533.120744 408.594013,533.199814 Z M390.550737,529.934819 C392.194956,530.139048 393.3623,531.63751 393.158071,533.281729 C392.953843,534.925949 391.45538,536.093292 389.811161,535.889064 C389.485606,535.848627 389.160292,535.809275 388.835216,535.771007 C387.189725,535.577297 386.012823,534.08633 386.206532,532.440838 C386.400242,530.795347 387.891209,529.618445 389.5367,529.812154 C389.87448,529.851918 390.212491,529.892806 390.550737,529.934819 Z M372.229455,528.746558 C373.886291,528.754475 375.223003,530.104023 375.215087,531.760858 C375.20717,533.417693 373.857622,534.754406 372.200787,534.74649 C371.87235,534.74492 371.54411,534.744469 371.216061,534.745132 C369.55921,534.748484 368.21335,533.408059 368.209998,531.751208 C368.206646,530.094357 369.547072,528.748497 371.203922,528.745145 C371.545571,528.744453 371.887414,528.744924 372.229455,528.746558 Z M353.92461,529.776556 C355.570133,529.583106 357.060914,530.760244 357.254363,532.405766 C357.447813,534.051288 356.270675,535.542069 354.625153,535.735519 C354.299977,535.773747 353.974914,535.813069 353.649957,535.853483 C352.005769,536.057966 350.507126,534.890856 350.302642,533.246668 C350.098159,531.602481 351.26527,530.103837 352.909457,529.899353 C353.247719,529.857285 353.586101,529.816351 353.92461,529.776556 Z M335.832325,532.995437 C337.444255,532.612233 339.061631,533.608313 339.444835,535.220244 C339.828039,536.832175 338.831959,538.449551 337.220028,538.832755 C336.902877,538.908151 336.585714,538.984572 336.268529,539.062015 C334.658957,539.455008 333.035558,538.468775 332.642565,536.859203 C332.249572,535.249631 333.235805,533.626231 334.845377,533.233239 C335.174356,533.152915 335.503335,533.073648 335.832325,532.995437 Z M318.273945,538.152648 C319.838706,537.607959 321.548754,538.434891 322.093444,539.999652 C322.638133,541.564414 321.811201,543.274462 320.24644,543.819152 C319.936176,543.927154 319.625719,544.036112 319.315056,544.146028 C317.753086,544.698671 316.038853,543.880449 315.48621,542.318479 C314.933567,540.756508 315.751789,539.042275 317.31376,538.489633 C317.633998,538.376329 317.954055,538.264001 318.273945,538.152648 Z M301.331414,544.865111 C302.847172,544.19605 304.618318,544.882435 305.287378,546.398193 C305.956439,547.913952 305.270054,549.685098 303.754296,550.354158 C303.454196,550.486623 303.153626,550.61998 302.852561,550.754236 C301.339348,551.429034 299.565614,550.749365 298.890816,549.236152 C298.216018,547.722939 298.895688,545.949205 300.408901,545.274407 C300.716869,545.137073 301.024364,545.000643 301.331414,544.865111 Z M284.915035,552.715256 C286.390587,551.961655 288.197672,552.546913 288.951272,554.022464 C289.704872,555.498016 289.119615,557.305101 287.644064,558.058701 C287.350162,558.208803 287.055218,558.359885 286.759159,558.511979 C285.285404,559.269087 283.476932,558.688129 282.719824,557.214374 C281.962716,555.740619 282.543674,553.932148 284.017429,553.17504 C284.317701,553.020782 284.616879,552.867532 284.915035,552.715256 Z M268.945523,561.221769 C270.397846,560.42432 272.221646,560.9552 273.019095,562.407523 C273.816543,563.859846 273.285663,565.683646 271.83334,566.481095 C271.545172,566.639324 271.253566,566.799605 270.957894,566.962281 C269.506247,567.760959 267.681998,567.231624 266.883319,565.779977 C266.084641,564.32833 266.613976,562.504081 268.065623,561.705402 C268.36276,561.541921 268.655849,561.380824 268.945523,561.221769 Z M253.199057,569.931362 C254.650494,569.132302 256.474883,569.661158 257.273943,571.112595 C258.073002,572.564032 257.544146,574.38842 256.092709,575.18748 C255.796433,575.350589 255.504803,575.510984 255.21709,575.669059 C253.764973,576.466883 251.941036,575.936474 251.143212,574.484358 C250.345388,573.032241 250.875797,571.208304 252.327913,570.41048 C252.614112,570.253236 252.904252,570.093662 253.199057,569.931362 Z M237.403432,578.363439 C238.879551,577.61095 240.686194,578.197569 241.438682,579.673687 C242.191171,581.149806 241.604553,582.95645 240.128434,583.708938 C239.828031,583.862076 239.529087,584.01394 239.231517,584.164568 C237.753263,584.912853 235.948296,584.321096 235.200011,582.842842 C234.451727,581.364587 235.043484,579.559621 236.521738,578.811336 C236.814204,578.663291 237.108073,578.514005 237.403432,578.363439 Z M221.324529,585.923043 C222.850447,585.277491 224.610773,585.991169 225.256325,587.517087 C225.901877,589.043006 225.188199,590.803331 223.66228,591.448884 C223.348469,591.581644 223.035458,591.713097 222.723214,591.843251 C221.1939,592.48072 219.437376,591.757737 218.799908,590.228423 C218.162439,588.69911 218.885422,586.942586 220.414735,586.305117 C220.717179,586.179049 221.020432,586.051694 221.324529,585.923043 Z M204.704047,591.899537 C206.295651,591.439141 207.959125,592.356166 208.419521,593.947769 C208.879916,595.539373 207.962891,597.202847 206.371288,597.663243 C206.043124,597.758169 205.715393,597.851549 205.388075,597.94338 C203.792815,598.390944 202.13678,597.460553 201.689217,595.865293 C201.241653,594.270034 202.172044,592.613998 203.767304,592.166435 C204.079079,592.078964 204.39132,591.989998 204.704047,591.899537 Z M187.559698,595.403001 C189.205835,595.214857 190.692814,596.396795 190.880957,598.042932 C191.069101,599.689069 189.887163,601.176048 188.241026,601.364191 C187.8985,601.40334 187.556147,601.440646 187.213952,601.476105 C185.565922,601.646876 184.091492,600.449321 183.920721,598.801291 C183.749949,597.153261 184.947504,595.678831 186.595534,595.50806 C186.916719,595.474778 187.238102,595.439757 187.559698,595.403001 Z M170.174303,595.665876 C171.824973,595.808902 173.047159,597.262979 172.904134,598.913649 C172.761108,600.564318 171.307031,601.786505 169.656362,601.643479 C169.313115,601.613738 168.969854,601.582027 168.62657,601.54834 C166.977636,601.386529 165.772085,599.91863 165.933896,598.269696 C166.095707,596.620762 167.563606,595.415211 169.21254,595.577022 C169.533153,595.608484 169.853738,595.6381 170.174303,595.665876 Z M153.068739,592.427084 C154.659098,592.891763 155.571641,594.5577 155.106963,596.148058 C154.642284,597.738416 152.976347,598.65096 151.385989,598.186281 C151.056595,598.090037 150.727075,597.991923 150.397424,597.891932 C148.811902,597.41101 147.916448,595.735826 148.39737,594.150304 C148.878293,592.564782 150.553477,591.669327 152.138999,592.15025 C152.449082,592.244305 152.758994,592.336581 153.068739,592.427084 Z M136.754014,586.081636 C138.245135,586.80394 138.868385,588.598276 138.146081,590.089397 C137.423777,591.580518 135.629441,592.203768 134.138319,591.481464 C133.831767,591.332969 133.525034,591.182841 133.218118,591.031077 C131.732917,590.296676 131.124274,588.497333 131.858675,587.012133 C132.593076,585.526932 134.392419,584.918289 135.877619,585.65269 C136.169977,585.797254 136.462107,585.940235 136.754014,586.081636 Z M121.470759,577.359266 C122.857608,578.265807 123.246975,580.124967 122.340434,581.511816 C121.433893,582.898664 119.574733,583.288031 118.187884,582.38149 C117.903656,582.195699 117.619906,582.009614 117.336634,581.823237 C115.9525,580.912556 115.568691,579.052242 116.479372,577.668108 C117.390053,576.283974 119.250368,575.900165 120.634502,576.810846 C120.91278,576.993937 121.191533,577.176744 121.470759,577.359266 Z M106.825884,567.20808 C108.160853,568.189417 108.447529,570.067155 107.466192,571.402124 C106.484855,572.737094 104.607117,573.023769 103.272148,572.042432 C102.998465,571.841248 102.725309,571.639778 102.452682,571.438026 C101.120851,570.452433 100.840171,568.57379 101.825765,567.24196 C102.811358,565.910129 104.690001,565.629449 106.021831,566.615043 C106.289326,566.812997 106.557344,567.010676 106.825884,567.20808 Z M92.7765309,556.236382 C94.0513729,557.294656 94.2269358,559.18602 93.1686617,560.460862 C92.1103877,561.735704 90.2190234,561.911267 88.9441815,560.852993 C88.6863683,560.638977 88.429124,560.424697 88.1724498,560.210155 C86.9011949,559.147575 86.7320309,557.255628 87.7946114,555.984373 C88.8571918,554.713118 90.7491391,554.543954 92.0203939,555.606534 C92.2718761,555.816736 92.5239221,556.026686 92.7765309,556.236382 Z M79.4270718,544.427769 C80.6320405,545.564966 80.6869805,547.463666 79.5497838,548.668635 C78.412587,549.873603 76.5138868,549.928543 75.3089181,548.791347 C75.0633648,548.559604 74.8184556,548.327615 74.5741916,548.095379 C73.3734264,546.953745 73.3254913,545.054855 74.4671257,543.85409 C75.60876,542.653324 77.50765,542.605389 78.7084152,543.747024 C78.9473305,543.974174 79.186883,544.201089 79.4270718,544.427769 Z M66.9204801,531.792644 C68.0440365,533.010342 67.9677202,534.908303 66.7500228,536.031859 C65.5323253,537.155416 63.6343641,537.079099 62.5108077,535.861402 C62.2811621,535.612515 62.0522428,535.363407 61.8240513,535.114082 C60.7054246,533.891855 60.7894097,531.994217 62.0116372,530.87559 C63.2338648,529.756964 65.1315022,529.840949 66.2501289,531.063176 C66.4728623,531.306538 66.6963131,531.549695 66.9204801,531.792644 Z M55.3517159,518.272867 C56.3793981,519.572496 56.1589416,521.459154 54.8593127,522.486836 C53.5596837,523.514518 51.6730253,523.294062 50.6453432,521.994433 C50.4366979,521.730576 50.2288615,521.466541 50.0218354,521.202332 C48.999926,519.898159 49.2287458,518.012497 50.5329187,516.990587 C51.8370917,515.968678 53.7227541,516.197498 54.7446635,517.501671 C54.9462178,517.758897 55.1485691,518.015963 55.3517159,518.272867 Z M44.9287184,503.903472 C45.842766,505.285384 45.4634864,507.146628 44.0815736,508.060676 C42.6996609,508.974723 40.8384172,508.595444 39.9243696,507.213531 C39.7381096,506.931932 39.5527753,506.65021 39.3683683,506.36837 C38.4612199,504.981918 38.8497718,503.122588 40.2362233,502.215439 C41.6226748,501.308291 43.4820049,501.696843 44.3891533,503.083294 C44.5680998,503.35679 44.7479554,503.630183 44.9287184,503.903472 Z M35.8696452,488.708779 C36.6475651,490.171655 36.0922985,491.988179 34.6294224,492.766099 C33.1665463,493.544019 31.3500221,492.988752 30.5721021,491.525876 C30.4119096,491.224635 30.2527977,490.923347 30.0947684,490.622019 C29.3252482,489.154707 29.8909203,487.341396 31.3582323,486.571876 C32.8255444,485.802356 34.6388552,486.368028 35.4083754,487.83534 C35.5610761,488.126508 35.7148333,488.417655 35.8696452,488.708779 Z M28.4233281,472.685426 C29.035562,474.225016 28.2837918,475.969413 26.7442024,476.581647 C25.2046129,477.193881 23.4602154,476.442111 22.8479815,474.902521 C22.7219534,474.585598 22.5971674,474.268738 22.473625,473.95195 C21.8716372,472.408325 22.6349846,470.668963 24.1786091,470.066975 C25.7222337,469.464987 27.4615961,470.228334 28.0635839,471.771959 C28.1822933,472.076355 28.3022086,472.380846 28.4233281,472.685426 Z M22.9553246,455.938515 C23.3635414,457.544294 22.3927258,459.17696 20.7869471,459.585176 C19.1811685,459.993393 17.5485026,459.022578 17.1402857,457.416799 C17.0560747,457.085543 16.9733024,456.754505 16.8919704,456.423691 C16.4964048,454.814749 17.4800406,453.189775 19.0889825,452.794209 C20.6979243,452.398644 22.3228987,453.38228 22.7184642,454.991221 C22.7960351,455.306737 22.8749889,455.622503 22.9553246,455.938515 Z M19.9183306,438.647637 C20.0736218,440.297198 18.8622771,441.76032 17.2127164,441.915611 C15.5631556,442.070902 14.100034,440.859558 13.9447427,439.209997 C13.9126102,438.868674 13.8821413,438.527778 13.8533369,438.187318 C13.7136587,436.536361 14.9387914,435.084765 16.5897475,434.945087 C18.2407036,434.805409 19.6922995,436.030542 19.8319777,437.681498 C19.8591857,438.003088 19.88797,438.325137 19.9183306,438.647637 Z M19.8611098,421.182219 C19.7067826,422.83187 18.2443691,424.044069 16.5947179,423.889742 C14.9450667,423.735415 13.7328671,422.273002 13.8871943,420.62335 C13.9193393,420.279743 13.9533863,419.93684 13.9893351,419.594651 C14.1624441,417.946865 15.6385713,416.751403 17.2863574,416.924512 C18.9341436,417.097621 20.1296057,418.573748 19.9564968,420.221534 C19.9229303,420.541046 19.8911344,420.861277 19.8611098,421.182219 Z M23.2916777,404.304744 C22.7807277,405.880845 21.0888381,406.744321 19.5127366,406.233371 C17.936635,405.722421 17.0731591,404.030531 17.5841091,402.45443 C17.6911104,402.124368 17.8001849,401.795329 17.9113303,401.467324 C18.4430611,399.898111 20.1462123,399.057066 21.715425,399.588796 C23.2846376,400.120527 24.1256828,401.823678 23.593952,403.392891 C23.491293,403.695852 23.3905341,403.999806 23.2916777,404.304744 Z M30.5701992,388.678242 C29.6883786,390.080939 27.8364114,390.503193 26.4337145,389.621372 C25.0310176,388.739552 24.6087639,386.887585 25.4905844,385.484888 C25.6754419,385.190838 25.8623708,384.898089 26.0513667,384.606649 C26.9528578,383.216512 28.8105891,382.820387 30.2007257,383.721878 C31.5908624,384.623369 31.9869878,386.4811 31.0854967,387.871237 C30.9118317,388.139036 30.7400647,388.40804 30.5701992,388.678242 Z M41.5162378,375.349512 C40.3142147,376.489822 38.4153787,376.439793 37.2750689,375.23777 C36.1347591,374.035747 36.1847877,372.136911 37.3868108,370.996601 C37.6381102,370.758204 37.8912744,370.521236 38.1462985,370.285703 C39.3634621,369.161569 41.2614594,369.236984 42.3855941,370.454147 C43.5097287,371.671311 43.4343138,373.569308 42.2171502,374.693443 C41.9817659,374.910836 41.7481273,375.129528 41.5162378,375.349512 Z M55.3495697,365.041342 C53.9086964,365.859297 52.0775544,365.354322 51.2595996,363.913449 C50.4416448,362.472575 50.94662,360.641433 52.3874933,359.823478 C52.6897095,359.651916 52.9925039,359.482996 53.2958812,359.316708 C54.7487929,358.520332 56.5722003,359.05256 57.3685756,360.505472 C58.1649509,361.958384 57.6327231,363.781791 56.1798114,364.578166 C55.9026045,364.73011 55.6258594,364.884498 55.3495697,365.041342 Z M71.2921337,358.761811 C69.6792035,359.140786 68.0644451,358.140468 67.6854699,356.527538 C67.3064946,354.914607 68.3068127,353.299849 69.9197429,352.920874 C70.2595532,352.841032 70.6000934,352.763869 70.9413746,352.689372 C72.5601125,352.336026 74.1588027,353.361828 74.5121493,354.980566 C74.8654958,356.599304 73.8396935,358.197994 72.2209556,358.551341 C71.9106311,358.61908 71.6010284,358.689232 71.2921337,358.761811 Z M88.3875591,357.118689 C86.7313198,357.07355 85.4252652,355.69431 85.4704044,354.038071 C85.5155436,352.381832 86.8947834,351.075777 88.5510227,351.120916 C88.8956601,351.130309 89.2411864,351.141826 89.5876269,351.155455 C91.2432005,351.220588 92.5325072,352.615497 92.4673742,354.27107 C92.4022412,355.926644 91.0073329,357.21595 89.3517594,357.150817 C89.0293819,357.138134 88.7079899,357.127422 88.3875591,357.118689 Z M105.749397,359.252026 C104.126143,358.920044 103.079361,357.335011 103.411344,355.711757 C103.743326,354.088503 105.328359,353.041721 106.951613,353.373703 C107.284765,353.441839 107.619165,353.51148 107.95487,353.582628 C109.575721,353.926149 110.611202,355.518587 110.267682,357.139439 C109.924161,358.76029 108.331723,359.795772 106.710871,359.452251 C106.389025,359.384039 106.068552,359.317299 105.749397,359.252026 Z M122.882446,363.693396 C121.296223,363.214793 120.398319,361.54092 120.876922,359.954696 C121.355525,358.368473 123.029398,357.470569 124.615621,357.949172 C124.935925,358.045816 125.258704,358.143745 125.584216,358.243028 C127.168995,358.726394 128.061866,360.402957 127.578499,361.987735 C127.095132,363.572514 125.41857,364.465385 123.833791,363.982018 C123.513979,363.884474 123.196948,363.788289 122.882446,363.693396 Z M139.968626,369.171363 C138.394322,368.654901 137.536772,366.96 138.053234,365.385696 C138.569696,363.811392 140.264597,362.953842 141.838901,363.470304 C142.314191,363.626192 142.314191,363.626192 142.789269,363.78184 C144.363824,364.297536 145.222199,365.992019 144.706503,367.566574 C144.190807,369.141129 142.496323,369.999504 140.921768,369.483808 C140.445123,369.327647 140.445123,369.327647 139.968626,369.171363 Z M157.260559,374.577211 C155.667449,374.122054 154.744955,372.461607 155.200112,370.868497 C155.655268,369.275387 157.315716,368.352893 158.908825,368.80805 C159.227615,368.899129 159.544287,368.98891 159.858984,369.077424 C161.453949,369.526036 162.383252,371.182682 161.93464,372.777647 C161.486028,374.372612 159.829382,375.301915 158.234417,374.853303 C157.911763,374.762551 157.587193,374.670531 157.260559,374.577211 Z M175.101055,378.747902 C173.467495,378.471054 172.367662,376.922361 172.644511,375.2888 C172.921359,373.655239 174.470052,372.555407 176.103613,372.832255 C176.42541,372.886792 176.745958,372.939711 177.0653,372.99101 C178.701181,373.253797 179.814294,374.792972 179.551507,376.428854 C179.28872,378.064735 177.749545,379.177848 176.113663,378.915061 C175.77727,378.861023 175.43975,378.805303 175.101055,378.747902 Z M193.636145,380.155914 C191.980113,380.208117 190.595315,378.907957 190.543112,377.251925 C190.490909,375.595893 191.791069,374.211096 193.447101,374.158893 C193.767621,374.148789 194.087201,374.136518 194.405862,374.122069 C196.061016,374.047021 197.463621,375.32795 197.538669,376.983104 C197.613717,378.638257 196.332788,380.040863 194.677635,380.115911 C194.33134,380.131612 193.984183,380.144942 193.636145,380.155914 Z M212.153335,377.04163 C210.57553,377.547296 208.886544,376.678156 208.380878,375.100351 C207.875212,373.522546 208.744353,371.833559 210.322157,371.327894 C210.623806,371.231219 210.924792,371.132012 211.225125,371.030258 C212.794362,370.498599 214.497475,371.339722 215.029134,372.908959 C215.560794,374.478196 214.719671,376.181309 213.150434,376.712968 C212.818792,376.825329 212.486428,376.934878 212.153335,377.04163 Z M229.037959,368.78351 C227.656886,369.698826 225.795295,369.321255 224.879979,367.940182 C223.964663,366.559109 224.342234,364.697518 225.723307,363.782202 C225.997746,363.600316 226.270543,363.418217 226.54171,363.235901 C227.916686,362.311451 229.780739,362.676675 230.705189,364.051651 C231.629638,365.426627 231.264414,367.29068 229.889439,368.215129 C229.607255,368.404852 229.323432,368.594311 229.037959,368.78351 Z M243.678762,357.614448 C242.43913,358.713756 240.543045,358.600002 239.443736,357.36037 C238.344428,356.120738 238.458182,354.224653 239.697814,353.125344 C239.940961,352.909721 240.182424,352.693627 240.422226,352.477048 C241.651823,351.366527 243.548864,351.463057 244.659385,352.692655 C245.769905,353.922252 245.673375,355.819293 244.443778,356.929813 C244.190487,357.158575 243.935489,357.386782 243.678762,357.614448 Z M256.422333,344.167438 C255.395456,345.467703 253.508935,345.689329 252.208669,344.662452 C250.908404,343.635575 250.686779,341.749054 251.713655,340.448788 C251.914404,340.194594 252.113848,339.939406 252.312022,339.683193 C253.325713,338.372622 255.2099,338.131954 256.520471,339.145645 C257.831042,340.159337 258.07171,342.043524 257.058018,343.354094 C256.847499,343.626268 256.635616,343.897372 256.422333,344.167438 Z M266.59491,328.744151 C265.791726,330.19331 263.965842,330.716976 262.516683,329.913793 C261.067524,329.110609 260.543857,327.284724 261.347041,325.835565 C261.50447,325.551522 261.661595,325.265603 261.818478,324.977716 C262.611299,323.522862 264.4334,322.986178 265.888254,323.778998 C267.343109,324.571819 267.879793,326.39392 267.086972,327.848774 C266.923288,328.149139 266.75929,328.447566 266.59491,328.744151 Z M274.623196,312.35833 C273.947688,313.871226 272.173635,314.550062 270.660739,313.874554 C269.147844,313.199045 268.469007,311.424993 269.144516,309.912097 C269.277621,309.613988 269.412358,309.31132 269.54907,309.003345 C270.2213,307.48899 271.993878,306.806312 273.508233,307.478542 C275.022589,308.150772 275.705266,309.92335 275.033036,311.437706 C274.894592,311.749583 274.758095,312.056206 274.623196,312.35833 Z M281.841068,295.852566 C281.171442,297.368075 279.400041,298.053799 277.884532,297.384173 C276.369023,296.714548 275.683298,294.943146 276.352924,293.427637 C276.489639,293.11822 276.624947,292.81264 276.759149,292.510232 C277.431219,290.995805 279.203724,290.31294 280.718151,290.985009 C282.232578,291.657079 282.915443,293.429584 282.243374,294.944011 C282.110497,295.243432 281.976495,295.546064 281.841068,295.852566 Z M289.400359,279.667311 C288.659498,281.149301 286.857523,281.750104 285.375534,281.009244 C283.893544,280.268384 283.292741,278.466408 284.033601,276.984419 C284.18442,276.682726 284.335552,276.38171 284.487034,276.081309 C285.233047,274.601907 287.037103,274.007378 288.516505,274.75339 C289.995907,275.499403 290.590436,277.303459 289.844423,278.782861 C289.696084,279.077029 289.548075,279.371826 289.400359,279.667311 Z M297.886126,264.023107 C297.045629,265.450949 295.206778,265.927086 293.778936,265.08659 C292.351095,264.246094 291.874957,262.407243 292.715453,260.979401 C292.88647,260.688876 293.058182,260.398494 293.230602,260.108239 C294.076786,258.683761 295.917522,258.214961 297.342,259.061145 C298.766479,259.907329 299.235279,261.748065 298.389094,263.172543 C298.220752,263.455934 298.0531,263.739449 297.886126,264.023107 Z M307.447943,249.03077 C306.508433,250.3955 304.640478,250.740208 303.275748,249.800697 C301.911019,248.861187 301.566311,246.993231 302.505821,245.628502 C302.696662,245.351287 302.888305,245.074038 303.080758,244.796749 C304.025458,243.435606 305.894712,243.098013 307.255855,244.042713 C308.616997,244.987413 308.95459,246.856667 308.00989,248.217809 C307.82178,248.488842 307.634467,248.759827 307.447943,249.03077 Z M318.021594,234.71275 C316.995366,236.013527 315.108955,236.236093 313.808178,235.209865 C312.507401,234.183636 312.284835,232.297225 313.311063,230.996448 C313.519143,230.732701 313.728025,230.468853 313.937715,230.204901 C314.968328,228.907594 316.855479,228.691396 318.152785,229.722008 C319.450092,230.75262 319.66629,232.639771 318.635678,233.937078 C318.430185,234.195747 318.225492,234.454303 318.021594,234.71275 Z M329.468176,221.041193 C328.369826,222.281673 326.473829,222.396893 325.233348,221.298543 C323.992867,220.200193 323.877647,218.304195 324.975998,217.063715 C325.198497,216.812423 325.421759,216.561007 325.645789,216.309463 C326.747737,215.072177 328.644061,214.962463 329.881347,216.064411 C331.118633,217.166359 331.228346,219.062683 330.126398,220.299969 C329.90623,220.547178 329.686824,220.794251 329.468176,221.041193 Z M341.807764,208.501252 C340.55502,209.585595 338.660437,209.449079 337.576095,208.196335 C336.491752,206.943591 336.628268,205.049008 337.881012,203.964666 C338.137937,203.742277 338.39619,203.52081 338.655764,203.300266 C339.91841,202.227471 341.81166,202.381376 342.884455,203.644023 C343.95725,204.90667 343.803344,206.799919 342.540697,207.872714 C342.295107,208.081378 342.050794,208.290891 341.807764,208.501252 Z M355.928495,198.120991 C354.523371,198.998939 352.672575,198.571578 351.794627,197.166454 C350.916679,195.761331 351.34404,193.910535 352.749164,193.032587 C353.039875,192.850945 353.331702,192.670219 353.624642,192.49041 C355.036707,191.623672 356.884044,192.065747 357.750782,193.477813 C358.617521,194.889879 358.175446,196.737215 356.76338,197.603953 C356.483994,197.775443 356.205697,197.94779 355.928495,198.120991 Z M371.453342,189.829639 C369.944679,190.51455 368.166437,189.846767 367.481526,188.338104 C366.796615,186.829441 367.464398,185.051199 368.973061,184.366288 C369.28336,184.225417 369.594548,184.085414 369.90662,183.946281 C371.41989,183.271612 373.193566,183.951432 373.868235,185.464703 C374.542905,186.977973 373.863084,188.751649 372.349814,189.426318 C372.050113,189.559935 371.751288,189.694376 371.453342,189.829639 Z M387.937273,183.47453 C386.36072,183.984084 384.669596,183.119111 384.160041,181.542558 C383.650486,179.966005 384.51546,178.27488 386.092013,177.765326 C386.41399,177.66126 386.736659,177.55801 387.060014,177.455578 C388.639512,176.955226 390.325563,177.830047 390.825915,179.409545 C391.326268,180.989043 390.451447,182.675094 388.871949,183.175446 C388.559705,183.274359 388.248145,183.374054 387.937273,183.47453 Z M405.076125,178.878942 C403.456888,179.229992 401.859654,178.201924 401.508604,176.582686 C401.157553,174.963449 402.185622,173.366215 403.804859,173.015165 C404.137433,172.943063 404.470545,172.871746 404.804191,172.801217 C406.425223,172.458546 408.017118,173.494862 408.359789,175.115893 C408.70246,176.736924 407.666144,178.328819 406.045113,178.67149 C405.721582,178.739882 405.398584,178.809033 405.076125,178.878942 Z M422.503151,175.907162 C420.85941,176.115203 419.358244,174.951339 419.150202,173.307598 C418.94216,171.663857 420.106025,170.16269 421.749766,169.954649 C422.087281,169.911931 422.425198,169.869961 422.763512,169.828741 C424.408204,169.628353 425.903936,170.799192 426.104325,172.443884 C426.304713,174.088575 425.133874,175.584308 423.489183,175.784697 C423.160105,175.824791 422.831427,175.865613 422.503151,175.907162 Z M440.195244,174.391651 C438.540156,174.468145 437.136432,173.188442 437.059938,171.533354 C436.983445,169.878267 438.263148,168.474543 439.918235,168.398049 C440.25565,168.382454 440.593345,168.367565 440.931318,168.353381 C442.586715,168.283907 443.984999,169.569551 444.054473,171.224948 C444.123947,172.880345 442.838303,174.27863 441.182906,174.348104 C440.853405,174.361932 440.524183,174.376448 440.195244,174.391651 Z M457.987824,174.234014 C456.331602,174.18828 455.026043,172.808571 455.071777,171.152348 C455.117511,169.496125 456.49722,168.190566 458.153443,168.236301 C458.491256,168.245629 458.829249,168.255633 459.167421,168.266313 C460.82345,168.318614 462.123528,169.703488 462.071227,171.359517 C462.018926,173.015545 460.634052,174.315624 458.978023,174.263323 C458.647776,174.252893 458.317708,174.243124 457.987824,174.234014 Z M475.773675,175.35006 C474.124627,175.189411 472.918042,173.722362 473.078691,172.073314 C473.239339,170.424267 474.706388,169.217681 476.355436,169.37833 C476.689055,169.410831 477.022768,169.443971 477.356571,169.477749 C479.005007,169.644556 480.206104,171.116101 480.039297,172.764537 C479.87249,174.412973 478.400944,175.614071 476.752508,175.447264 C476.426137,175.414238 476.099858,175.381836 475.773675,175.35006 Z M493.449074,177.670619 C491.814328,177.400856 490.707791,175.856947 490.977554,174.222201 C491.247317,172.587455 492.791227,171.480918 494.425973,171.750681 C494.759988,171.8058 495.094023,171.861546 495.428074,171.917918 C497.061828,172.193621 498.162747,173.741542 497.887044,175.375296 C497.611342,177.009051 496.063421,178.109969 494.429666,177.834267 C494.102782,177.779104 493.775917,177.724555 493.449074,177.670619 Z M510.931562,181.138971 C509.317539,180.764678 508.312539,179.152829 508.686832,177.538806 C509.061124,175.924783 510.672973,174.919783 512.286996,175.294076 C512.616139,175.370404 512.945233,175.447335 513.274277,175.524868 C514.886966,175.904868 515.886258,177.520261 515.506258,179.13295 C515.126258,180.74564 513.510864,181.744931 511.898175,181.364931 C511.576018,181.289021 511.253812,181.213701 510.931562,181.138971 Z M528.105125,185.695881 C526.517787,185.220986 525.615974,183.549216 526.090868,181.961879 C526.565763,180.374541 528.237533,179.472728 529.82487,179.947622 C530.147913,180.044269 530.470849,180.141496 530.793675,180.239303 C532.379351,180.719715 533.275345,182.394612 532.794932,183.980288 C532.314519,185.565964 530.639623,186.461958 529.053947,185.981545 C528.737778,185.885755 528.421504,185.790534 528.105125,185.695881 Z M544.993465,191.327503 C543.438749,190.75477 542.642695,189.030131 543.215429,187.475415 C543.788162,185.920699 545.512801,185.124645 547.067517,185.697379 C547.382274,185.81333 547.696871,185.929837 548.011308,186.046899 C549.564046,186.624973 550.354169,188.352337 549.776096,189.905076 C549.198023,191.457814 547.470658,192.247937 545.91792,191.669864 C545.609925,191.5552 545.301773,191.441079 544.993465,191.327503 Z M561.479168,197.987459 C559.962892,197.319573 559.275135,195.54896 559.943022,194.032683 C560.610908,192.516407 562.381521,191.828651 563.897798,192.496537 C564.207383,192.632902 564.516759,192.769816 564.825923,192.907276 C566.339876,193.58041 567.021495,195.353396 566.348361,196.86735 C565.675226,198.381303 563.902241,199.062922 562.388287,198.389788 C562.085455,198.255142 561.782414,198.121033 561.479168,197.987459 Z M577.553001,205.672474 C576.081164,204.911646 575.504777,203.101712 576.265606,201.629875 C577.026434,200.158037 578.836368,199.581651 580.308205,200.342479 C580.607417,200.497149 580.906378,200.652346 581.205087,200.808068 C582.674281,201.573989 583.244397,203.385907 582.478476,204.855102 C581.712556,206.324296 579.900637,206.894412 578.431443,206.128491 C578.138876,205.97597 577.846062,205.823965 577.553001,205.672474 Z M593.136723,214.355988 C591.715378,213.504551 591.253377,211.662097 592.104814,210.240752 C592.956251,208.819407 594.798704,208.357406 596.220049,209.208843 C596.509874,209.382458 596.799407,209.556588 597.088648,209.73123 C598.507007,210.587632 598.962563,212.43169 598.106162,213.850049 C597.24976,215.268408 595.405702,215.723964 593.987343,214.867563 C593.70409,214.696535 593.42055,214.52601 593.136723,214.355988 Z M608.111973,223.978829 C606.747005,223.039664 606.401825,221.171796 607.340989,219.806829 C608.280154,218.441862 610.148022,218.096681 611.51299,219.035846 C611.790969,219.227109 612.068622,219.418869 612.34595,219.611126 C613.707603,220.555089 614.046208,222.42416 613.102245,223.785814 C612.158281,225.147467 610.28921,225.486072 608.927557,224.542108 C608.656015,224.353863 608.384153,224.166103 608.111973,223.978829 Z M622.485591,234.5566 C621.183086,233.532565 620.957342,231.646532 621.981376,230.344028 C623.005411,229.041523 624.891444,228.815778 626.193949,229.839813 C626.458818,230.048054 626.723332,230.256774 626.987491,230.465975 C628.286362,231.494614 628.505428,233.381435 627.476788,234.680306 C626.448149,235.979177 624.561328,236.198243 623.262457,235.169604 C623.00385,234.9648 622.744895,234.760465 622.485591,234.5566 Z M636.131178,246.008292 C634.89675,244.903144 634.791948,243.006542 635.897097,241.772114 C637.002245,240.537686 638.898847,240.432884 640.133275,241.538033 C640.384445,241.762898 640.635234,241.988228 640.88564,242.214022 C642.116124,243.32356 642.21417,245.220523 641.104631,246.451007 C639.995093,247.681491 638.09813,247.779536 636.867646,246.669998 C636.622531,246.448975 636.377041,246.228407 636.131178,246.008292 Z M649.022061,258.316893 C647.861106,257.134798 647.878243,255.23538 649.060339,254.074425 C650.242434,252.91347 652.141851,252.930607 653.302807,254.112702 C653.53923,254.353431 653.775249,254.594608 654.010863,254.836233 C655.167587,256.022469 655.143663,257.921814 653.957427,259.078538 C652.771191,260.235261 650.871847,260.211337 649.715123,259.025101 C649.484498,258.788593 649.253477,258.552523 649.022061,258.316893 Z M661.09467,271.426387 C660.011995,270.172201 660.151032,268.277801 661.405218,267.195127 C662.659403,266.112452 664.553803,266.251489 665.636477,267.505675 C665.85672,267.760807 666.076542,268.016371 666.295942,268.272365 C667.374142,269.5304 667.228357,271.424292 665.970322,272.502492 C664.712288,273.580691 662.818396,273.434907 661.740196,272.176872 C661.525432,271.926288 661.310257,271.676126 661.09467,271.426387 Z M672.295847,285.273968 C671.295496,283.953187 671.555255,282.071537 672.876037,281.071186 C674.196818,280.070834 676.078468,280.330594 677.078819,281.651375 C677.282273,281.919999 677.485294,282.189037 677.687879,282.458489 C678.683553,283.7828 678.417139,285.663519 677.092828,286.659193 C675.768517,287.654867 673.887798,287.388454 672.892124,286.064143 C672.69379,285.800345 672.495031,285.536954 672.295847,285.273968 Z M682.617981,299.842401 C681.703382,298.460853 682.081919,296.599459 683.463467,295.68486 C684.845015,294.770261 686.70641,295.148798 687.621009,296.530346 C687.806909,296.811158 687.992366,297.092365 688.17738,297.373969 C689.087152,298.7587 688.702121,300.618762 687.317389,301.528534 C685.932658,302.438306 684.072595,302.053275 683.162824,300.668543 C682.981643,300.392774 682.800028,300.117393 682.617981,299.842401 Z M692.309861,314.993278 C691.403266,313.606465 691.792561,311.74729 693.179375,310.840695 C694.566188,309.934101 696.425363,310.323395 697.331958,311.710209 C697.512324,311.986114 697.692747,312.26141 697.873226,312.536098 C698.783029,313.920809 698.398039,315.78088 697.013328,316.690683 C695.628617,317.600486 693.768546,317.215497 692.858743,315.830786 C692.67572,315.552226 692.492759,315.273057 692.309861,314.993278 Z M702.560203,329.944114 C701.591837,328.599705 701.89668,326.724831 703.241089,325.756466 C704.585497,324.7881 706.460371,325.092943 707.428736,326.437352 C707.621713,326.705267 707.814753,326.9725 708.007854,327.239051 C708.979886,328.580812 708.680161,330.456511 707.338401,331.428542 C705.99664,332.400573 704.120941,332.100848 703.14891,330.759088 C702.952603,330.488113 702.756367,330.216454 702.560203,329.944114 Z M713.558209,344.405078 C712.519321,343.114389 712.723446,341.225894 714.014135,340.187006 C715.304825,339.148118 717.19332,339.352244 718.232207,340.642933 C718.438134,340.898771 718.644129,341.153851 718.850193,341.408172 C719.893248,342.695495 719.695229,344.584641 718.407905,345.627696 C717.120582,346.670751 715.231437,346.472732 714.188382,345.185408 C713.978244,344.926059 713.768186,344.665949 713.558209,344.405078 Z M725.392716,358.209418 C724.273506,356.987724 724.356585,355.090047 725.578279,353.970837 C726.799972,352.851627 728.69765,352.934706 729.81686,354.1564 C730.041255,354.401343 730.265729,354.645406 730.490282,354.888591 C731.614294,356.105867 731.538689,358.003857 730.321413,359.127869 C729.104137,360.251882 727.206147,360.176277 726.082134,358.959001 C725.852234,358.710025 725.622428,358.460164 725.392716,358.209418 Z M738.208104,371.188449 C736.997934,370.056789 736.934288,368.158361 738.065947,366.94819 C739.197607,365.73802 741.096035,365.674374 742.306206,366.806034 C742.546276,367.030529 742.786431,367.254042 743.026672,367.476574 C744.24219,368.602488 744.314827,370.500594 743.188913,371.716111 C742.062998,372.931629 740.164893,373.004266 738.949375,371.878352 C738.702178,371.649376 738.455087,371.419409 738.208104,371.188449 Z M752.123205,383.062776 C750.812226,382.049613 750.570798,380.165524 751.58396,378.854544 C752.597123,377.543565 754.481213,377.302136 755.792192,378.315299 C756.051493,378.515694 756.31089,378.714974 756.570382,378.913139 C757.887179,379.918729 758.139463,381.801395 757.133873,383.118193 C756.128284,384.43499 754.245617,384.687274 752.92882,383.681684 C752.660157,383.476517 752.391619,383.270214 752.123205,383.062776 Z M767.215994,393.450716 C765.798454,392.592959 765.344659,390.748467 766.202415,389.330927 C767.060172,387.913387 768.904664,387.459592 770.322204,388.317349 C770.602602,388.487018 770.883108,388.65542 771.163723,388.822555 C772.587217,389.670393 773.053879,391.511672 772.206041,392.935166 C771.358203,394.358661 769.516925,394.825323 768.09343,393.977485 C767.800808,393.803198 767.508329,393.627609 767.215994,393.450716 Z M783.5546,401.915166 C782.033892,401.257434 781.334311,399.491458 781.992043,397.97075 C782.649776,396.450041 784.415751,395.750461 785.936459,396.408193 C786.234356,396.537038 786.532372,396.664497 786.83051,396.790568 C788.356534,397.43587 789.070502,399.196078 788.4252,400.722103 C787.779898,402.248128 786.01969,402.962095 784.493665,402.316793 C784.180487,402.184361 783.867465,402.050485 783.5546,401.915166 Z M801.031706,407.929802 C799.427117,407.516932 798.461038,405.881459 798.873907,404.27687 C799.286776,402.672282 800.922249,401.706203 802.526838,402.119072 C802.841817,402.200118 803.156933,402.279664 803.472187,402.35771 C805.080488,402.755871 806.061501,404.382431 805.663339,405.990732 C805.265178,407.599034 803.638618,408.580046 802.030317,408.181885 C801.697283,408.099437 801.364412,408.015409 801.031706,407.929802 Z M819.285055,411.027327 C817.633956,410.889349 816.407329,409.439015 816.545307,407.787916 C816.683285,406.136817 818.133619,404.91019 819.784718,405.048168 C820.107691,405.075158 820.430813,405.100624 820.754087,405.124566 C822.406416,405.246938 823.646691,406.685617 823.524319,408.337946 C823.401947,409.990275 821.963268,411.23055 820.310939,411.108178 C819.968821,411.082841 819.62686,411.05589 819.285055,411.027327 Z M837.826453,411.007308 C836.175466,411.146626 834.724138,409.921176 834.58482,408.270189 C834.445503,406.619203 835.670953,405.167875 837.321939,405.028557 C837.645008,405.001295 837.968232,404.972558 838.291612,404.942347 C839.941283,404.788228 841.403543,406.000612 841.557663,407.650282 C841.711782,409.299953 840.499398,410.762214 838.849727,410.916333 C838.508495,410.948212 838.167403,410.978537 837.826453,411.007308 Z M855.932006,408.050874 C854.321287,408.43914 852.700789,407.448147 852.312523,405.837428 C851.924256,404.22671 852.915249,402.606212 854.525968,402.217945 C854.842122,402.141736 855.158425,402.064159 855.474878,401.985214 C857.082464,401.584173 858.710778,402.56227 859.111819,404.169856 C859.51286,405.777442 858.534763,407.405756 856.927177,407.806797 C856.595329,407.889582 856.263606,407.970941 855.932006,408.050874 Z M873.481896,402.534104 C871.936541,403.131634 870.199389,402.36327 869.601858,400.817915 C869.004328,399.272559 869.772691,397.535407 871.318047,396.937877 C871.622108,396.820308 871.926304,396.701512 872.230635,396.581491 C873.771956,395.973627 875.514213,396.730343 876.122077,398.271663 C876.729941,399.812983 875.973225,401.555241 874.431904,402.163105 C874.115127,402.288035 873.798457,402.411701 873.481896,402.534104 Z M890.176863,394.959715 C888.706809,395.723984 886.895532,395.151832 886.131263,393.681778 C885.366994,392.211724 885.939146,390.400447 887.4092,389.636179 C887.699477,389.485266 887.989872,389.333268 888.280386,389.180185 C889.746191,388.407797 891.560604,388.969922 892.332993,390.435726 C893.105381,391.901531 892.543256,393.715944 891.077452,394.488332 C890.77716,394.646568 890.476963,394.803695 890.176863,394.959715 Z" id="Path-5" fill="#FFFFFF" fill-rule="nonzero"></path>
    </g>
</svg>