<?xml version="1.0" encoding="UTF-8"?>
<svg width="60px" height="60px" viewBox="0 0 60 60" version="1.1" xmlns="http://www.w3.org/2000/svg" xmlns:xlink="http://www.w3.org/1999/xlink">
    <!-- Generator: Sketch 49.1 (51147) - http://www.bohemiancoding.com/sketch -->
    <title>pic-done_bonus</title>
    <desc>Created with Sketch.</desc>
    <defs></defs>
    <g id="pic-done_bonus" stroke="none" stroke-width="1" fill="none" fill-rule="evenodd">
        <g id="Group-385" transform="translate(16.000000, 19.000000)" fill="#FFFFFF">
            <path d="M6,13.5 C5.94075,13.52475 5.94375,13.533 5.96625,13.533 C5.97525,13.533 5.98725,13.5315 6,13.52925 L6,13.5 Z" id="Fill-377"></path>
            <path d="M15,18 L13.5,18 L12,18 L12,21 L10.5,21 C8.84325,21 7.5,22.34325 7.5,24 L19.5,24 C19.5,22.34325 18.15675,21 16.5,21 L15,21 L15,18 Z" id="Fill-379"></path>
            <path d="M21,13.5 L21,13.52925 C21.01275,13.5315 21.02475,13.533 21.03375,13.533 C21.05625,13.533 21.05925,13.52475 21,13.5" id="Fill-381"></path>
            <path d="M6,10.5 C3.261,10.5 3.012,8.196 3,7.5 L3,6 L6,6 L6,10.5 Z M21,10.5 L21,6 L24,6 L24,7.5 C24,8.001 23.85525,10.5 21,10.5 L21,10.5 Z M19.5,0 L7.5,0 C6.67125,0 6,0.67125 6,1.5 L6,3 L1.5,3 C0.67125,3 0,3.67125 0,4.5 L0,7.5 C0,9.91125 1.59825,13.5 6,13.5 L6.6285,13.5 C7.78575,16.1475 10.425,18 13.5,18 C16.575,18 19.21425,16.1475 20.3715,13.5 L21,13.5 C25.40175,13.5 27,9.91125 27,7.5 L27,4.5 C27,3.67125 26.32875,3 25.5,3 L21,3 L21,1.5 C21,0.67125 20.32875,0 19.5,0 L19.5,0 Z M18,3 L18,6 L18,10.5 L18,11.436 L17.62275,12.29775 C16.905,13.9395 15.28725,15 13.5,15 C11.71275,15 10.095,13.9395 9.37725,12.29775 L9,11.436 L9,10.5 L9,6 L9,3 L18,3 L18,3 Z" id="Fill-383"></path>
        </g>
    </g>
</svg>