<?xml version="1.0" encoding="UTF-8"?>
<svg width="60px" height="60px" viewBox="0 0 60 60" version="1.1" xmlns="http://www.w3.org/2000/svg" xmlns:xlink="http://www.w3.org/1999/xlink">
    <!-- Generator: Sketch 49.1 (51147) - http://www.bohemiancoding.com/sketch -->
    <title>pic-lock</title>
    <desc>Created with Sketch.</desc>
    <defs></defs>
    <g id="pic-lock" stroke="none" stroke-width="1" fill="none" fill-rule="evenodd">
        <path d="M36,26 C37.6568542,26 39,27.3431458 39,29 L39,36 C39,37.6568542 37.6568542,39 36,39 L24,39 C22.3431458,39 21,37.6568542 21,36 L21,29 C21,27.3431458 22.3431458,26 24,26 L24,23 C24,19.6862915 26.6862915,17 30,17 C33.3137085,17 36,19.6862915 36,23 L36,26 Z M33,26 L33,23 C33,21.3431458 31.6568542,20 30,20 C28.3431458,20 27,21.3431458 27,23 L27,26 L33,26 Z" id="Combined-Shape" fill="#FFFFFF"></path>
    </g>
</svg>