<?xml version="1.0" encoding="UTF-8"?>
<svg width="110px" height="110px" viewBox="0 0 110 110" version="1.1" xmlns="http://www.w3.org/2000/svg" xmlns:xlink="http://www.w3.org/1999/xlink">
    <!-- Generator: Sketch 49.1 (51147) - http://www.bohemiancoding.com/sketch -->
    <title>root_pic_lock</title>
    <desc>Created with Sketch.</desc>
    <defs></defs>
    <g id="root_pic_lock" stroke="none" stroke-width="1" fill="none" fill-rule="evenodd">
        <path d="M67,50 C70.3137085,50 73,52.6862915 73,56 L73,70 C73,73.3137085 70.3137085,76 67,76 L43,76 C39.6862915,76 37,73.3137085 37,70 L37,56 C37,52.6862915 39.6862915,50 43,50 L43,44 C43,37.372583 48.372583,32 55,32 C61.627417,32 67,37.372583 67,44 L67,50 Z M61,50 L61,44 C61,40.6862915 58.3137085,38 55,38 C51.6862915,38 49,40.6862915 49,44 L49,50 L61,50 Z" id="Combined-Shape" fill="#FFFFFF"></path>
    </g>
</svg>