<?xml version="1.0" encoding="UTF-8"?>
<svg width="600px" height="100px" viewBox="0 0 600 100" version="1.1" xmlns="http://www.w3.org/2000/svg" xmlns:xlink="http://www.w3.org/1999/xlink">
    <!-- Generator: Sketch 51 (57462) - http://www.bohemiancoding.com/sketch -->
    <title>bot</title>
    <desc>Created with Sketch.</desc>
    <defs></defs>
    <g id="bot" stroke="none" stroke-width="1" fill="none" fill-rule="evenodd">
        <g id="Group-6-Copy" transform="translate(198.000000, 1.000000)" stroke="#4F4F4F">
            <polygon id="Combined-Shape" fill="#46A4B7" points="52 15 52 44.0857117 26 59 26 20.1999097"></polygon>
            <polygon id="Combined-Shape" fill="#2A687F" points="26 20.1999097 26 59 0 44.0857117 0 15"></polygon>
            <polygon id="Rectangle-Copy-2" fill="#6ECCDF" points="25.5 0 51 15 25.5 30 0 15"></polygon>
        </g>
        <g id="Group-6-Copy-2" transform="translate(348.000000, 1.000000)" stroke="#4F4F4F">
            <polygon id="Combined-Shape" fill="#46A4B7" points="52 15 52 44.0857117 26 59 26 20.1999097"></polygon>
            <polygon id="Combined-Shape" fill="#2A687F" points="26 20.1999097 26 59 0 44.0857117 0 15"></polygon>
            <polygon id="Rectangle-Copy-2" fill="#6ECCDF" points="25.5 0 51 15 25.5 30 0 15"></polygon>
        </g>
        <g id="Group-6-Copy-3" transform="translate(498.000000, 1.000000)" stroke="#4F4F4F">
            <polygon id="Combined-Shape" fill="#46A4B7" points="52 15 52 44.0857117 26 59 26 20.1999097"></polygon>
            <polygon id="Combined-Shape" fill="#2A687F" points="26 20.1999097 26 59 0 44.0857117 0 15"></polygon>
            <polygon id="Rectangle-Copy-2" fill="#6ECCDF" points="25.5 0 51 15 25.5 30 0 15"></polygon>
        </g>
        <g id="Group-6" transform="translate(48.000000, 1.000000)" stroke="#4F4F4F">
            <polygon id="Combined-Shape" fill="#46A4B7" points="52 15 52 44.0857117 26 59 26 20.1999097"></polygon>
            <polygon id="Combined-Shape" fill="#2A687F" points="26 20.1999097 26 59 0 44.0857117 0 15"></polygon>
            <polygon id="Rectangle-Copy-2" fill="#6ECCDF" points="25.5 0 51 15 25.5 30 0 15"></polygon>
        </g>
        <path d="M75.6753337,12.461981 L69.2273342,12.461981 C67.9490123,12.461981 66.9127277,11.8259363 66.9127277,11.0413353 C66.9127277,10.2567344 67.9490123,9.62068966 69.2273342,9.62068966 L83.5778947,9.62068966 L83.5778947,18.4286928 C83.5778947,19.2132938 82.5416101,19.8493385 81.2632882,19.8493385 C79.9849663,19.8493385 78.9486817,19.2132938 78.9486817,18.4286928 L78.9486817,14.4710774 L68.3712805,20.9632129 C67.4673704,21.5180095 66.0018426,21.5180095 65.0979326,20.9632129 C64.1940225,20.4084162 64.1940225,19.5089131 65.0979326,18.9541165 L75.6753337,12.461981 Z" id="Combined-Shape-Copy" fill="#FFFFFF" fill-rule="nonzero"></path>
        <path d="M525.675334,12.461981 L519.227334,12.461981 C517.949012,12.461981 516.912728,11.8259363 516.912728,11.0413353 C516.912728,10.2567344 517.949012,9.62068966 519.227334,9.62068966 L533.577895,9.62068966 L533.577895,18.4286928 C533.577895,19.2132938 532.54161,19.8493385 531.263288,19.8493385 C529.984966,19.8493385 528.948682,19.2132938 528.948682,18.4286928 L528.948682,14.4710774 L518.371281,20.9632129 C517.46737,21.5180095 516.001843,21.5180095 515.097933,20.9632129 C514.194022,20.4084162 514.194022,19.5089131 515.097933,18.9541165 L525.675334,12.461981 Z" id="Combined-Shape-Copy-2" fill="#FFFFFF" fill-rule="nonzero" transform="translate(523.998947, 15.500000) scale(-1, 1) translate(-523.998947, -15.500000) "></path>
        <path d="M228.948682,17.0112919 L228.948682,13.1855969 C228.948682,12.4271493 229.984966,11.8123061 231.263288,11.8123061 C232.54161,11.8123061 233.577895,12.4271493 233.577895,13.1855969 L233.577895,21.7 L219.227334,21.7 C217.949012,21.7 216.912728,21.0851568 216.912728,20.3267092 C216.912728,19.5682616 217.949012,18.9534184 219.227334,18.9534184 L225.675334,18.9534184 L215.097933,12.6776874 C214.194022,12.141384 214.194022,11.2718643 215.097933,10.7355609 C216.001843,10.1992575 217.46737,10.1992575 218.371281,10.7355609 L228.948682,17.0112919 Z" id="Combined-Shape-Copy" fill="#FFFFFF" fill-rule="nonzero"></path>
        <path d="M378.948682,17.0112919 L378.948682,13.1855969 C378.948682,12.4271493 379.984966,11.8123061 381.263288,11.8123061 C382.54161,11.8123061 383.577895,12.4271493 383.577895,13.1855969 L383.577895,21.7 L369.227334,21.7 C367.949012,21.7 366.912728,21.0851568 366.912728,20.3267092 C366.912728,19.5682616 367.949012,18.9534184 369.227334,18.9534184 L375.675334,18.9534184 L365.097933,12.6776874 C364.194022,12.141384 364.194022,11.2718643 365.097933,10.7355609 C366.001843,10.1992575 367.46737,10.1992575 368.371281,10.7355609 L378.948682,17.0112919 Z" id="Combined-Shape-Copy-3" fill="#FFFFFF" fill-rule="nonzero" transform="translate(373.998947, 16.016667) scale(-1, 1) translate(-373.998947, -16.016667) "></path>
    </g>
</svg>