<?xml version="1.0" encoding="UTF-8"?>
<svg width="600px" height="100px" viewBox="0 0 600 100" version="1.1" xmlns="http://www.w3.org/2000/svg" xmlns:xlink="http://www.w3.org/1999/xlink">
    <!-- Generator: Sketch 51 (57462) - http://www.bohemiancoding.com/sketch -->
    <title>stuff</title>
    <desc>Created with Sketch.</desc>
    <defs></defs>
    <g id="stuff" stroke="none" stroke-width="1" fill="none" fill-rule="evenodd">
        <g id="Group-5" transform="translate(48.000000, 11.000000)" stroke="#4F4F4F">
            <polygon id="Combined-Shape" fill="#D55050" points="26 20.3059082 51.5 15.1442871 51.5 34.8980182 26 49.7024878"></polygon>
            <polygon id="Combined-Shape-Copy-2" fill="#A64646" transform="translate(13.050000, 32.423387) scale(-1, 1) translate(-13.050000, -32.423387) " points="0.3 20.3059082 25.8 15.1442871 25.8 34.8980182 0.3 49.7024878"></polygon>
            <polygon id="Rectangle-Copy" fill="#FF6B6B" points="26 0.0935485925 51.5 14.8980182 26 29.7024878 0.5 14.8980182"></polygon>
        </g>
        <g id="Group-5" transform="translate(208.000000, 2.000000)">
            <path d="M27.3137085,49.363961 C21.0653198,52.8786797 10.9346802,52.8786797 4.6862915,49.363961 C1.3110964,47.4654138 -0.240917942,44.9296782 0.0302484623,42.4451349 C0.261083584,40.3301242 1.81309793,38.2522104 4.6862915,36.636039 C10.9346802,33.1213203 21.0653198,33.1213203 27.3137085,36.636039 C33.5620972,40.1507576 33.5620972,45.8492424 27.3137085,49.363961 Z" id="Oval" fill="#D8D8D8"></path>
            <circle id="Oval-2" stroke="#4F4F4F" fill="#FFD027" cx="17" cy="12" r="12"></circle>
        </g>
        <g id="Group" transform="translate(358.000000, 1.000000)">
            <path d="M27.3137085,50.363961 C21.0653198,53.8786797 10.9346802,53.8786797 4.6862915,50.363961 C1.3110964,48.4654138 -0.240917942,45.9296782 0.0302484623,43.4451349 C0.261083584,41.3301242 1.81309793,39.2522104 4.6862915,37.636039 C10.9346802,34.1213203 21.0653198,34.1213203 27.3137085,37.636039 C33.5620972,41.1507576 33.5620972,46.8492424 27.3137085,50.363961 Z" id="Oval" fill="#D8D8D8"></path>
            <circle id="Oval-2" stroke="#4F4F4F" fill="#827285" cx="16.5" cy="16.5" r="16.5"></circle>
        </g>
        <path d="M535.313708,51.363961 C529.06532,54.8786797 518.93468,54.8786797 512.686292,51.363961 C509.311096,49.4654138 507.759082,46.9296782 508.030248,44.4451349 C508.261084,42.3301242 509.813098,40.2522104 512.686292,38.636039 C518.93468,35.1213203 529.06532,35.1213203 535.313708,38.636039 C541.562097,42.1507576 541.562097,47.8492424 535.313708,51.363961 Z" id="Oval" fill="#D8D8D8"></path>
        <path d="M534.04159,7.94970868 L537.039419,6.21891109 L540.539419,12.2810889 L537.544589,14.010155 C537.841648,15.1233552 538,16.293185 538,17.5 C538,18.706815 537.841648,19.8766448 537.544589,20.989845 L540.539419,22.7189111 L537.039419,28.7810889 L534.04159,27.0502913 C532.392542,28.6978465 530.319395,29.9209907 528,30.5418747 L528,34 L521,34 L521,30.5418747 C518.680605,29.9209907 516.607458,28.6978465 514.95841,27.0502913 L511.960581,28.7810889 L508.460581,22.7189111 L511.455411,20.989845 C511.158352,19.8766448 511,18.706815 511,17.5 C511,16.293185 511.158352,15.1233552 511.455411,14.010155 L508.460581,12.2810889 L511.960581,6.21891109 L514.95841,7.94970868 C516.607458,6.3021535 518.680605,5.07900933 521,4.45812532 L521,1 L528,1 L528,4.45812532 C530.319395,5.07900933 532.392542,6.3021535 534.04159,7.94970868 Z M524.5,22 C526.985281,22 529,19.9852814 529,17.5 C529,15.0147186 526.985281,13 524.5,13 C522.014719,13 520,15.0147186 520,17.5 C520,19.9852814 522.014719,22 524.5,22 Z" id="Combined-Shape" stroke="#4F4F4F" fill="#C5C5C5"></path>
        <circle id="Oval-2-Copy" fill="#D0B1D5" cx="369.5" cy="13.5" r="5.5"></circle>
    </g>
</svg>