<?xml version="1.0" encoding="UTF-8"?>
<svg width="1050px" height="696px" viewBox="0 0 1050 696" version="1.1" xmlns="http://www.w3.org/2000/svg" xmlns:xlink="http://www.w3.org/1999/xlink">
    <!-- Generator: Sketch 51 (57462) - http://www.bohemiancoding.com/sketch -->
    <title>trans-1</title>
    <desc>Created with Sketch.</desc>
    <defs></defs>
    <g id="trans-1" stroke="none" stroke-width="1" fill="none" fill-rule="evenodd">
        <g id="Group-2-Copy-5" transform="translate(623.000000, 15.000000)" stroke="#4F4F4F">
            <path d="M101.5,629 C101.340136,629.825841 101.056897,630.641814 100.611871,631.40835 C100.000673,632.461109 99.1255008,633.336282 98.0727411,633.94748 L62.0458754,654.863505 C55.2157736,658.82884 46.7842264,658.82884 39.9541246,654.863505 L3.92725886,633.94748 C2.03638874,632.849702 0.851299828,631.002563 0.529604755,629 C0.421631202,628.197755 0.420245251,627.586701 0.5,626.979318 L0.5,30 L101.5,30 L101.5,626.990674 L101.5,629 Z" id="Combined-Shape" fill="#AC7300"></path>
            <path d="M98.0727411,24.8442913 C101.416122,26.7853494 102.55293,31.0692339 100.611871,34.4126149 C100.000673,35.4653746 99.1255008,36.3405472 98.0727411,36.9517451 L62.0458754,57.8677702 C55.2157736,61.8331049 46.7842264,61.8331049 39.9541246,57.8677702 L3.92725886,36.9517451 C0.583877789,35.010687 -0.552929529,30.7268026 1.38812864,27.3834215 C1.99932664,26.3306618 2.87449917,25.4554893 3.92725886,24.8442913 L39.9541246,3.92826622 C46.7842264,-0.0370685168 55.2157736,-0.0370685168 62.0458754,3.92826622 L98.0727411,24.8442913 Z" id="Combined-Shape" fill="#FFD027"></path>
            <path d="M67.0880485,28.8290362 C68.2307157,29.4924316 68.6192423,30.9565346 67.955847,32.0992018 C67.7469578,32.4590034 67.4478502,32.7581111 67.0880485,32.9670002 L54.7751483,40.1154691 C52.4408247,41.4707014 49.5591753,41.4707014 47.2248517,40.1154691 L34.9119515,32.9670002 C33.7692843,32.3036048 33.3807577,30.8395018 34.044153,29.6968347 C34.2530422,29.337033 34.5521498,29.0379253 34.9119515,28.8290362 L47.2248517,21.6805673 C49.5591753,20.3253351 52.4408247,20.3253351 54.7751483,21.6805673 L67.0880485,28.8290362 Z" id="Combined-Shape-Copy" fill="#987838"></path>
        </g>
        <g id="Group-2" transform="translate(23.000000, 15.000000)" stroke="#4F4F4F">
            <path d="M101.5,629 C101.340136,629.825841 101.056897,630.641814 100.611871,631.40835 C100.000673,632.461109 99.1255008,633.336282 98.0727411,633.94748 L62.0458754,654.863505 C55.2157736,658.82884 46.7842264,658.82884 39.9541246,654.863505 L3.92725886,633.94748 C2.03638874,632.849702 0.851299828,631.002563 0.529604755,629 C0.421631202,628.197755 0.420245251,627.586701 0.5,626.979318 L0.5,30 L101.5,30 L101.5,626.990674 L101.5,629 Z" id="Combined-Shape" fill="#AC7300"></path>
            <path d="M98.0727411,24.8442913 C101.416122,26.7853494 102.55293,31.0692339 100.611871,34.4126149 C100.000673,35.4653746 99.1255008,36.3405472 98.0727411,36.9517451 L62.0458754,57.8677702 C55.2157736,61.8331049 46.7842264,61.8331049 39.9541246,57.8677702 L3.92725886,36.9517451 C0.583877789,35.010687 -0.552929529,30.7268026 1.38812864,27.3834215 C1.99932664,26.3306618 2.87449917,25.4554893 3.92725886,24.8442913 L39.9541246,3.92826622 C46.7842264,-0.0370685168 55.2157736,-0.0370685168 62.0458754,3.92826622 L98.0727411,24.8442913 Z" id="Combined-Shape" fill="#FFD027"></path>
            <path d="M67.0880485,28.8290362 C68.2307157,29.4924316 68.6192423,30.9565346 67.955847,32.0992018 C67.7469578,32.4590034 67.4478502,32.7581111 67.0880485,32.9670002 L54.7751483,40.1154691 C52.4408247,41.4707014 49.5591753,41.4707014 47.2248517,40.1154691 L34.9119515,32.9670002 C33.7692843,32.3036048 33.3807577,30.8395018 34.044153,29.6968347 C34.2530422,29.337033 34.5521498,29.0379253 34.9119515,28.8290362 L47.2248517,21.6805673 C49.5591753,20.3253351 52.4408247,20.3253351 54.7751483,21.6805673 L67.0880485,28.8290362 Z" id="Combined-Shape-Copy" fill="#987838"></path>
        </g>
        <path d="M651.065892,88.1787087 L651.766449,113.581543 C651.77383,114.498487 651.139063,114.864969 650.348657,114.400105 C649.558252,113.935241 648.911517,112.815064 648.904136,111.898121 L648.203579,86.4952863 L642.20265,89.9599244 C641.648968,90.2795928 640.74281,89.7466507 640.178689,88.769565 C639.614569,87.7924793 639.606106,86.7412524 640.159788,86.421584 L649.583568,80.9807621 L659.185018,97.6109619 C659.749139,98.5880477 659.757601,99.6392746 659.20392,99.958943 C658.650238,100.278611 657.74408,99.7456693 657.179959,98.7685836 L651.065892,88.1787087 Z" id="Combined-Shape-Copy-2" fill="#FFE1A6" fill-rule="nonzero"></path>
        <g id="Group-2-Copy-2" transform="translate(173.000000, 15.000000)" stroke="#4F4F4F">
            <path d="M101.5,629 C101.340136,629.825841 101.056897,630.641814 100.611871,631.40835 C100.000673,632.461109 99.1255008,633.336282 98.0727411,633.94748 L62.0458754,654.863505 C55.2157736,658.82884 46.7842264,658.82884 39.9541246,654.863505 L3.92725886,633.94748 C2.03638874,632.849702 0.851299828,631.002563 0.529604755,629 C0.421631202,628.197755 0.420245251,627.586701 0.5,626.979318 L0.5,30 L101.5,30 L101.5,626.990674 L101.5,629 Z" id="Combined-Shape" fill="#AC7300"></path>
            <path d="M98.0727411,24.8442913 C101.416122,26.7853494 102.55293,31.0692339 100.611871,34.4126149 C100.000673,35.4653746 99.1255008,36.3405472 98.0727411,36.9517451 L62.0458754,57.8677702 C55.2157736,61.8331049 46.7842264,61.8331049 39.9541246,57.8677702 L3.92725886,36.9517451 C0.583877789,35.010687 -0.552929529,30.7268026 1.38812864,27.3834215 C1.99932664,26.3306618 2.87449917,25.4554893 3.92725886,24.8442913 L39.9541246,3.92826622 C46.7842264,-0.0370685168 55.2157736,-0.0370685168 62.0458754,3.92826622 L98.0727411,24.8442913 Z" id="Combined-Shape" fill="#FFD027"></path>
            <path d="M67.0880485,28.8290362 C68.2307157,29.4924316 68.6192423,30.9565346 67.955847,32.0992018 C67.7469578,32.4590034 67.4478502,32.7581111 67.0880485,32.9670002 L54.7751483,40.1154691 C52.4408247,41.4707014 49.5591753,41.4707014 47.2248517,40.1154691 L34.9119515,32.9670002 C33.7692843,32.3036048 33.3807577,30.8395018 34.044153,29.6968347 C34.2530422,29.337033 34.5521498,29.0379253 34.9119515,28.8290362 L47.2248517,21.6805673 C49.5591753,20.3253351 52.4408247,20.3253351 54.7751483,21.6805673 L67.0880485,28.8290362 Z" id="Combined-Shape-Copy" fill="#987838"></path>
        </g>
        <g id="Group-2-Copy-3" transform="translate(323.000000, 15.000000)" stroke="#4F4F4F">
            <path d="M101.5,629 C101.340136,629.825841 101.056897,630.641814 100.611871,631.40835 C100.000673,632.461109 99.1255008,633.336282 98.0727411,633.94748 L62.0458754,654.863505 C55.2157736,658.82884 46.7842264,658.82884 39.9541246,654.863505 L3.92725886,633.94748 C2.03638874,632.849702 0.851299828,631.002563 0.529604755,629 C0.421631202,628.197755 0.420245251,627.586701 0.5,626.979318 L0.5,30 L101.5,30 L101.5,626.990674 L101.5,629 Z" id="Combined-Shape" fill="#AC7300"></path>
            <path d="M98.0727411,24.8442913 C101.416122,26.7853494 102.55293,31.0692339 100.611871,34.4126149 C100.000673,35.4653746 99.1255008,36.3405472 98.0727411,36.9517451 L62.0458754,57.8677702 C55.2157736,61.8331049 46.7842264,61.8331049 39.9541246,57.8677702 L3.92725886,36.9517451 C0.583877789,35.010687 -0.552929529,30.7268026 1.38812864,27.3834215 C1.99932664,26.3306618 2.87449917,25.4554893 3.92725886,24.8442913 L39.9541246,3.92826622 C46.7842264,-0.0370685168 55.2157736,-0.0370685168 62.0458754,3.92826622 L98.0727411,24.8442913 Z" id="Combined-Shape" fill="#FFD027"></path>
            <path d="M67.0880485,28.8290362 C68.2307157,29.4924316 68.6192423,30.9565346 67.955847,32.0992018 C67.7469578,32.4590034 67.4478502,32.7581111 67.0880485,32.9670002 L54.7751483,40.1154691 C52.4408247,41.4707014 49.5591753,41.4707014 47.2248517,40.1154691 L34.9119515,32.9670002 C33.7692843,32.3036048 33.3807577,30.8395018 34.044153,29.6968347 C34.2530422,29.337033 34.5521498,29.0379253 34.9119515,28.8290362 L47.2248517,21.6805673 C49.5591753,20.3253351 52.4408247,20.3253351 54.7751483,21.6805673 L67.0880485,28.8290362 Z" id="Combined-Shape-Copy" fill="#987838"></path>
        </g>
        <g id="Group-2-Copy-4" transform="translate(473.000000, 15.000000)" stroke="#4F4F4F">
            <path d="M101.5,629 C101.340136,629.825841 101.056897,630.641814 100.611871,631.40835 C100.000673,632.461109 99.1255008,633.336282 98.0727411,633.94748 L62.0458754,654.863505 C55.2157736,658.82884 46.7842264,658.82884 39.9541246,654.863505 L3.92725886,633.94748 C2.03638874,632.849702 0.851299828,631.002563 0.529604755,629 C0.421631202,628.197755 0.420245251,627.586701 0.5,626.979318 L0.5,30 L101.5,30 L101.5,626.990674 L101.5,629 Z" id="Combined-Shape" fill="#AC7300"></path>
            <path d="M98.0727411,24.8442913 C101.416122,26.7853494 102.55293,31.0692339 100.611871,34.4126149 C100.000673,35.4653746 99.1255008,36.3405472 98.0727411,36.9517451 L62.0458754,57.8677702 C55.2157736,61.8331049 46.7842264,61.8331049 39.9541246,57.8677702 L3.92725886,36.9517451 C0.583877789,35.010687 -0.552929529,30.7268026 1.38812864,27.3834215 C1.99932664,26.3306618 2.87449917,25.4554893 3.92725886,24.8442913 L39.9541246,3.92826622 C46.7842264,-0.0370685168 55.2157736,-0.0370685168 62.0458754,3.92826622 L98.0727411,24.8442913 Z" id="Combined-Shape" fill="#FFD027"></path>
            <path d="M67.0880485,28.8290362 C68.2307157,29.4924316 68.6192423,30.9565346 67.955847,32.0992018 C67.7469578,32.4590034 67.4478502,32.7581111 67.0880485,32.9670002 L54.7751483,40.1154691 C52.4408247,41.4707014 49.5591753,41.4707014 47.2248517,40.1154691 L34.9119515,32.9670002 C33.7692843,32.3036048 33.3807577,30.8395018 34.044153,29.6968347 C34.2530422,29.337033 34.5521498,29.0379253 34.9119515,28.8290362 L47.2248517,21.6805673 C49.5591753,20.3253351 52.4408247,20.3253351 54.7751483,21.6805673 L67.0880485,28.8290362 Z" id="Combined-Shape-Copy" fill="#987838"></path>
        </g>
        <g id="Group-2-Copy-6" transform="translate(773.000000, 15.000000)" stroke="#4F4F4F">
            <path d="M101.5,629 C101.340136,629.825841 101.056897,630.641814 100.611871,631.40835 C100.000673,632.461109 99.1255008,633.336282 98.0727411,633.94748 L62.0458754,654.863505 C55.2157736,658.82884 46.7842264,658.82884 39.9541246,654.863505 L3.92725886,633.94748 C2.03638874,632.849702 0.851299828,631.002563 0.529604755,629 C0.421631202,628.197755 0.420245251,627.586701 0.5,626.979318 L0.5,30 L101.5,30 L101.5,626.990674 L101.5,629 Z" id="Combined-Shape" fill="#AC7300"></path>
            <path d="M98.0727411,24.8442913 C101.416122,26.7853494 102.55293,31.0692339 100.611871,34.4126149 C100.000673,35.4653746 99.1255008,36.3405472 98.0727411,36.9517451 L62.0458754,57.8677702 C55.2157736,61.8331049 46.7842264,61.8331049 39.9541246,57.8677702 L3.92725886,36.9517451 C0.583877789,35.010687 -0.552929529,30.7268026 1.38812864,27.3834215 C1.99932664,26.3306618 2.87449917,25.4554893 3.92725886,24.8442913 L39.9541246,3.92826622 C46.7842264,-0.0370685168 55.2157736,-0.0370685168 62.0458754,3.92826622 L98.0727411,24.8442913 Z" id="Combined-Shape" fill="#FFD027"></path>
            <path d="M67.0880485,28.8290362 C68.2307157,29.4924316 68.6192423,30.9565346 67.955847,32.0992018 C67.7469578,32.4590034 67.4478502,32.7581111 67.0880485,32.9670002 L54.7751483,40.1154691 C52.4408247,41.4707014 49.5591753,41.4707014 47.2248517,40.1154691 L34.9119515,32.9670002 C33.7692843,32.3036048 33.3807577,30.8395018 34.044153,29.6968347 C34.2530422,29.337033 34.5521498,29.0379253 34.9119515,28.8290362 L47.2248517,21.6805673 C49.5591753,20.3253351 52.4408247,20.3253351 54.7751483,21.6805673 L67.0880485,28.8290362 Z" id="Combined-Shape-Copy" fill="#987838"></path>
        </g>
        <g id="Group-2-Copy" transform="translate(923.000000, 15.000000)" stroke="#FFFFFF">
            <path d="M101.5,30 L101.5,626.990674 L101.5,629 C101.340136,629.825841 101.056897,630.641814 100.611871,631.40835 C100.000673,632.461109 99.1255008,633.336282 98.0727411,633.94748 L62.0458754,654.863505 C55.2157736,658.82884 46.7842264,658.82884 39.9541246,654.863505 L3.92725886,633.94748 C2.03638874,632.849702 0.851299828,631.002563 0.529604755,629 C0.421631202,628.197755 0.420245251,627.586701 0.5,626.979318 L0.5,30" id="Combined-Shape"></path>
            <path d="M98.0727411,24.8442913 C101.416122,26.7853494 102.55293,31.0692339 100.611871,34.4126149 C100.000673,35.4653746 99.1255008,36.3405472 98.0727411,36.9517451 L62.0458754,57.8677702 C55.2157736,61.8331049 46.7842264,61.8331049 39.9541246,57.8677702 L3.92725886,36.9517451 C0.583877789,35.010687 -0.552929529,30.7268026 1.38812864,27.3834215 C1.99932664,26.3306618 2.87449917,25.4554893 3.92725886,24.8442913 L39.9541246,3.92826622 C46.7842264,-0.0370685168 55.2157736,-0.0370685168 62.0458754,3.92826622 L98.0727411,24.8442913 Z" id="Combined-Shape"></path>
            <path d="M67.0880485,28.8290362 C68.2307157,29.4924316 68.6192423,30.9565346 67.955847,32.0992018 C67.7469578,32.4590034 67.4478502,32.7581111 67.0880485,32.9670002 L54.7751483,40.1154691 C52.4408247,41.4707014 49.5591753,41.4707014 47.2248517,40.1154691 L34.9119515,32.9670002 C33.7692843,32.3036048 33.3807577,30.8395018 34.044153,29.6968347 C34.2530422,29.337033 34.5521498,29.0379253 34.9119515,28.8290362 L47.2248517,21.6805673 C49.5591753,20.3253351 52.4408247,20.3253351 54.7751483,21.6805673 L67.0880485,28.8290362 Z" id="Combined-Shape-Copy"></path>
        </g>
        <path d="M108.200502,93.2953699 L85.3336995,105.989561 C84.5202636,106.441129 83.8481576,106.053088 83.8325088,105.122848 C83.81686,104.192608 84.4635943,103.072432 85.2770302,102.620864 L108.143832,89.9266726 L101.789907,86.2582323 C101.203656,85.9197599 101.185716,84.8532893 101.749836,83.8762036 C102.313957,82.8991178 103.246518,82.3814195 103.832769,82.7198919 L113.810889,88.4807621 L104.209439,105.110962 C103.645318,106.088048 102.712757,106.605746 102.126506,106.267274 C101.540254,105.928801 101.522314,104.862331 102.086435,103.885245 L108.200502,93.2953699 Z" id="Combined-Shape-Copy-2" fill="#FFE1A6" fill-rule="nonzero"></path>
        <path d="M849.674198,107.329457 L855.788265,96.7395819 C856.352386,95.7624962 857.284947,95.2447978 857.871198,95.5832703 C858.45745,95.9217427 858.47539,96.9882133 857.91127,97.965299 L848.309819,114.595499 L838.331699,108.834629 C837.745448,108.496156 837.727507,107.429686 838.291628,106.4526 C838.855749,105.475514 839.78831,104.957816 840.374561,105.296288 L846.728486,108.964729 L846.728486,82.7558771 C846.712837,81.825637 847.359572,80.7054604 848.173008,80.2538926 C848.986444,79.8023248 849.658549,80.1903654 849.674198,81.1206055 L849.674198,107.329457 Z" id="Combined-Shape-Copy-2" fill="#FFE1A6" fill-rule="nonzero"></path>
        <path d="M207.587248,100.212796 L201.473181,89.6229207 C200.909061,88.6458349 200.900598,87.594608 201.45428,87.2749396 C202.007962,86.9552712 202.91412,87.4882133 203.478241,88.465299 L213.079691,105.095499 L203.655911,110.536321 C203.102229,110.855989 202.196071,110.323047 201.631951,109.345961 C201.06783,108.368876 201.059368,107.317649 201.61305,106.99798 L207.613979,103.533342 L185.394585,90.4653694 C184.604179,90.0005051 183.957445,88.8803285 183.950064,87.9633849 C183.942682,87.0464413 184.577449,86.6799585 185.367855,87.1448228 L207.587248,100.212796 Z" id="Combined-Shape-Copy-2" fill="#FFE1A6" fill-rule="nonzero"></path>
        <path d="M390.348849,100.212796 L412.568243,87.1448228 C413.358649,86.6799585 413.993415,87.0464413 413.986034,87.9633849 C413.978653,88.8803285 413.331918,90.0005051 412.541513,90.4653694 L390.322119,103.533342 L396.323048,106.99798 C396.87673,107.317649 396.868268,108.368876 396.304147,109.345961 C395.740026,110.323047 394.833868,110.855989 394.280186,110.536321 L384.856406,105.095499 L394.457857,88.465299 C395.021978,87.4882133 395.928136,86.9552712 396.481817,87.2749396 C397.035499,87.594608 397.027037,88.6458349 396.462916,89.6229207 L390.348849,100.212796 Z" id="Combined-Shape-Copy-2" fill="#FFE1A6" fill-rule="nonzero"></path>
        <path d="M490.330387,93.2953699 L496.444455,103.885245 C497.008575,104.862331 496.990635,105.928801 496.404383,106.267274 C495.818132,106.605746 494.885571,106.088048 494.32145,105.110962 L484.72,88.4807621 L494.69812,82.7198919 C495.284371,82.3814195 496.216932,82.8991178 496.781053,83.8762036 C497.345174,84.8532893 497.327233,85.9197599 496.740982,86.2582323 L490.387057,89.9266726 L513.253859,102.620864 C514.067295,103.072432 514.714029,104.192608 514.69838,105.122848 C514.682732,106.053088 514.010626,106.441129 513.19719,105.989561 L490.330387,93.2953699 Z" id="Combined-Shape-Copy-2" fill="#FFE1A6" fill-rule="nonzero"></path>
        <path d="M700.065892,88.1787087 L700.766449,113.581543 C700.77383,114.498487 700.139063,114.864969 699.348657,114.400105 C698.558252,113.935241 697.911517,112.815064 697.904136,111.898121 L697.203579,86.4952863 L691.20265,89.9599244 C690.648968,90.2795928 689.74281,89.7466507 689.178689,88.769565 C688.614569,87.7924793 688.606106,86.7412524 689.159788,86.421584 L698.583568,80.9807621 L708.185018,97.6109619 C708.749139,98.5880477 708.757601,99.6392746 708.20392,99.958943 C707.650238,100.278611 706.74408,99.7456693 706.179959,98.7685836 L700.065892,88.1787087 Z" id="Combined-Shape-Copy-4" fill="#FFE1A6" fill-rule="nonzero" transform="translate(698.681854, 97.791220) scale(-1, 1) translate(-698.681854, -97.791220) "></path>
        <path d="M801.674198,107.329457 L807.788265,96.7395819 C808.352386,95.7624962 809.284947,95.2447978 809.871198,95.5832703 C810.45745,95.9217427 810.47539,96.9882133 809.91127,97.965299 L800.309819,114.595499 L790.331699,108.834629 C789.745448,108.496156 789.727507,107.429686 790.291628,106.4526 C790.855749,105.475514 791.78831,104.957816 792.374561,105.296288 L798.728486,108.964729 L798.728486,82.7558771 C798.712837,81.825637 799.359572,80.7054604 800.173008,80.2538926 C800.986444,79.8023248 801.658549,80.1903654 801.674198,81.1206055 L801.674198,107.329457 Z" id="Combined-Shape-Copy-5" fill="#FFE1A6" fill-rule="nonzero" transform="translate(800.101449, 97.330500) scale(-1, 1) translate(-800.101449, -97.330500) "></path>
    </g>
</svg>