<?xml version="1.0" encoding="UTF-8"?>
<svg width="1000px" height="748px" viewBox="0 0 1000 748" version="1.1" xmlns="http://www.w3.org/2000/svg" xmlns:xlink="http://www.w3.org/1999/xlink">
    <!-- Generator: Sketch 51 (57462) - http://www.bohemiancoding.com/sketch -->
    <title>trans-2-l90</title>
    <desc>Created with Sketch.</desc>
    <defs></defs>
    <g id="trans-2-l90" stroke="none" stroke-width="1" fill="none" fill-rule="evenodd">
        <path d="M761.480945,637.040378 C759.591373,635.941386 758.407097,634.092202 758.085623,632.087423 C757.977724,631.284291 757.976339,630.672561 758.056039,630.064505 L758.056039,33 L829.007313,33 L858.986724,72.0431583 L925.940743,72.0431583 L925.940743,669.119032 C925.780989,671.957337 925.497944,672.774213 925.053224,673.541597 C924.442446,674.595521 923.567874,675.471662 922.515836,676.083537 L886.513695,697.022708 C879.688281,700.992431 871.26252,700.992431 864.437106,697.022708 L761.480945,637.040378 Z" id="Combined-Shape" stroke="#4F4F4F" fill="#AC7300"></path>
        <path d="M922.515903,66.9615695 C925.856926,68.9048358 926.992931,73.1935935 925.053242,76.540778 C924.442475,77.5947353 923.56792,78.4709034 922.515903,79.0827967 L886.514452,100.022616 C879.689168,103.992461 871.263569,103.992461 864.438285,100.022616 L761.484097,40.0384305 C758.143074,38.0951642 757.007069,33.8064065 758.946758,30.459222 C759.557525,29.4052647 760.43208,28.5290966 761.484097,27.9172033 L797.485548,6.97738426 C804.310832,3.00753858 812.736431,3.00753858 819.561715,6.97738426 L922.515903,66.9615695 Z" id="Combined-Shape" stroke="#4F4F4F" fill="#FFD027"></path>
        <g id="Group-4" transform="translate(159.000000, 352.000000) scale(-1, 1) translate(-159.000000, -352.000000) translate(75.000000, 4.000000)" stroke="#4F4F4F">
            <path d="M3.48094547,633.040378 C1.59137303,631.941386 0.40709742,630.092202 0.0856231202,628.087423 C-0.0222763323,627.284291 -0.0236613314,626.672561 0.0560386828,626.064505 L0.0560386828,29 L71.0073126,29 L100.986724,68.0431583 L167.940743,68.0431583 L167.940743,665.119032 C167.780989,667.957337 167.497944,668.774213 167.053224,669.541597 C166.442446,670.595521 165.567874,671.471662 164.515836,672.083537 L128.513695,693.022708 C121.688281,696.992431 113.26252,696.992431 106.437106,693.022708 L3.48094547,633.040378 Z" id="Combined-Shape" fill="#AC7300"></path>
            <path d="M164.515903,62.9615695 C167.856926,64.9048358 168.992931,69.1935935 167.053242,72.540778 C166.442475,73.5947353 165.56792,74.4709034 164.515903,75.0827967 L128.514452,96.0226157 C121.689168,99.9924614 113.263569,99.9924614 106.438285,96.0226157 L3.48409682,36.0384305 C0.143074259,34.0951642 -0.992931128,29.8064065 0.946757776,26.459222 C1.55752461,25.4052647 2.43207978,24.5290966 3.48409682,23.9172033 L39.4855483,2.97738426 C46.3108321,-0.992461419 54.7364314,-0.992461419 61.5617151,2.97738426 L164.515903,62.9615695 Z" id="Combined-Shape" fill="#FFD027"></path>
        </g>
        <path d="M328.480945,676.040378 C326.591373,674.941386 325.407097,673.092202 325.085623,671.087423 C324.977724,670.284291 324.976339,669.672561 325.056039,669.064505 L325.056039,72 L396.007313,72 L425.986724,111.043158 L492.940743,111.043158 L492.940743,708.119032 C492.780989,710.957337 492.497944,711.774213 492.053224,712.541597 C491.442446,713.595521 490.567874,714.471662 489.515836,715.083537 L453.513695,736.022708 C446.688281,739.992431 438.26252,739.992431 431.437106,736.022708 L328.480945,676.040378 Z" id="Combined-Shape" stroke="#4F4F4F" fill="#AC7300"></path>
        <path d="M489.515903,105.961569 C492.856926,107.904836 493.992931,112.193594 492.053242,115.540778 C491.442475,116.594735 490.56792,117.470903 489.515903,118.082797 L453.514452,139.022616 C446.689168,142.992461 438.263569,142.992461 431.438285,139.022616 L328.484097,79.0384305 C325.143074,77.0951642 324.007069,72.8064065 325.946758,69.459222 C326.557525,68.4052647 327.43208,67.5290966 328.484097,66.9172033 L364.485548,45.9773843 C371.310832,42.0075386 379.736431,42.0075386 386.561715,45.9773843 L489.515903,105.961569 Z" id="Combined-Shape" stroke="#4F4F4F" fill="#FFD027"></path>
        <path d="M391.793204,70.9783005 C392.950443,71.6265353 393.343924,73.0571791 392.672069,74.1737329 C392.460516,74.5253119 392.157594,74.8175841 391.793204,75.0216995 L379.323289,82.0068042 C376.959198,83.3310653 374.040802,83.3310653 371.676711,82.0068042 L359.206796,75.0216995 C358.049557,74.3734647 357.656076,72.9428209 358.327931,71.8262671 C358.539484,71.4746881 358.842406,71.1824159 359.206796,70.9783005 L371.676711,63.9931958 C374.040802,62.6689347 376.959198,62.6689347 379.323289,63.9931958 L391.793204,70.9783005 Z" id="Combined-Shape-Copy" stroke="#4F4F4F" fill="#987838"></path>
        <path d="M511.480945,676.040378 C509.591373,674.941386 508.407097,673.092202 508.085623,671.087423 C507.977724,670.284291 507.976339,669.672561 508.056039,669.064505 L508.056039,72 L579.007313,72 L608.986724,111.043158 L675.940743,111.043158 L675.940743,708.119032 C675.780989,710.957337 675.497944,711.774213 675.053224,712.541597 C674.442446,713.595521 673.567874,714.471662 672.515836,715.083537 L636.513695,736.022708 C629.688281,739.992431 621.26252,739.992431 614.437106,736.022708 L511.480945,676.040378 Z" id="Combined-Shape" stroke="#4F4F4F" fill="#AC7300" transform="translate(592.000000, 405.500000) scale(-1, 1) translate(-592.000000, -405.500000) "></path>
        <path d="M672.515903,105.961569 C675.856926,107.904836 676.992931,112.193594 675.053242,115.540778 C674.442475,116.594735 673.56792,117.470903 672.515903,118.082797 L636.514452,139.022616 C629.689168,142.992461 621.263569,142.992461 614.438285,139.022616 L511.484097,79.0384305 C508.143074,77.0951642 507.007069,72.8064065 508.946758,69.459222 C509.557525,68.4052647 510.43208,67.5290966 511.484097,66.9172033 L547.485548,45.9773843 C554.310832,42.0075386 562.736431,42.0075386 569.561715,45.9773843 L672.515903,105.961569 Z" id="Combined-Shape" stroke="#4F4F4F" fill="#FFD027" transform="translate(592.000000, 92.500000) scale(-1, 1) translate(-592.000000, -92.500000) "></path>
        <path d="M641.793204,70.9783005 C642.950443,71.6265353 643.343924,73.0571791 642.672069,74.1737329 C642.460516,74.5253119 642.157594,74.8175841 641.793204,75.0216995 L629.323289,82.0068042 C626.959198,83.3310653 624.040802,83.3310653 621.676711,82.0068042 L609.206796,75.0216995 C608.049557,74.3734647 607.656076,72.9428209 608.327931,71.8262671 C608.539484,71.4746881 608.842406,71.1824159 609.206796,70.9783005 L621.676711,63.9931958 C624.040802,62.6689347 626.959198,62.6689347 629.323289,63.9931958 L641.793204,70.9783005 Z" id="Combined-Shape-Copy" stroke="#4F4F4F" fill="#987838" transform="translate(625.500000, 73.000000) scale(-1, 1) translate(-625.500000, -73.000000) "></path>
        <path d="M891.793204,70.9783005 C892.950443,71.6265353 893.343924,73.0571791 892.672069,74.1737329 C892.460516,74.5253119 892.157594,74.8175841 891.793204,75.0216995 L879.323289,82.0068042 C876.959198,83.3310653 874.040802,83.3310653 871.676711,82.0068042 L859.206796,75.0216995 C858.049557,74.3734647 857.656076,72.9428209 858.327931,71.8262671 C858.539484,71.4746881 858.842406,71.1824159 859.206796,70.9783005 L871.676711,63.9931958 C874.040802,62.6689347 876.959198,62.6689347 879.323289,63.9931958 L891.793204,70.9783005 Z" id="Combined-Shape-Copy" stroke="#4F4F4F" fill="#987838"></path>
        <path d="M141.793204,70.9783005 C142.950443,71.6265353 143.343924,73.0571791 142.672069,74.1737329 C142.460516,74.5253119 142.157594,74.8175841 141.793204,75.0216995 L129.323289,82.0068042 C126.959198,83.3310653 124.040802,83.3310653 121.676711,82.0068042 L109.206796,75.0216995 C108.049557,74.3734647 107.656076,72.9428209 108.327931,71.8262671 C108.539484,71.4746881 108.842406,71.1824159 109.206796,70.9783005 L121.676711,63.9931958 C124.040802,62.6689347 126.959198,62.6689347 129.323289,63.9931958 L141.793204,70.9783005 Z" id="Combined-Shape-Copy" stroke="#4F4F4F" fill="#987838"></path>
        <path d="M560.561278,99.9260871 C551.764298,103.751069 548.417812,107.174312 549.186632,110.519057 C549.826154,113.301293 553.055062,116.030837 559.605509,119.866655 C560.401718,120.3329 560.401718,121.088833 559.605509,121.555078 C558.8093,122.021323 557.518389,122.021323 556.72218,121.555078 C549.574681,117.369637 545.94078,114.297735 545.145433,110.837584 C544.182486,106.648286 547.980924,102.588739 557.153287,98.442228 L547.444143,98.6407697 C546.318819,98.6637814 545.374707,98.1482366 545.33541,97.4892682 C545.296113,96.8302997 546.176511,96.2774456 547.301835,96.2544339 L564.401597,95.9047619 L564.998734,105.918059 C565.038031,106.577027 564.157633,107.129881 563.032309,107.152893 C561.906985,107.175905 560.962873,106.66036 560.923575,106.001392 L560.561278,99.9260871 Z" id="Combined-Shape-Copy-4" fill="#FFFFFF" fill-rule="nonzero" transform="translate(555.000000, 108.904762) scale(-1, 1) rotate(-180.000000) translate(-555.000000, -108.904762) "></path>
        <path d="M201.561278,28.1165633 C192.764298,31.9415452 189.417812,35.3647882 190.186632,38.7095335 C190.826154,41.4917696 194.055062,44.2213136 200.605509,48.0571315 C201.401718,48.5233766 201.401718,49.2793092 200.605509,49.7455543 C199.8093,50.2117994 198.518389,50.2117994 197.72218,49.7455543 C190.574681,45.5601137 186.94078,42.4882107 186.145433,39.0280602 C185.182486,34.8387626 188.980924,30.7792151 198.153287,26.6327042 L188.444143,26.8312459 C187.318819,26.8542576 186.374707,26.3387128 186.33541,25.6797444 C186.296113,25.0207759 187.176511,24.4679218 188.301835,24.4449101 L205.401597,24.0952381 L205.998734,34.1085351 C206.038031,34.7675035 205.157633,35.3203577 204.032309,35.3433693 C202.906985,35.366381 201.962873,34.8508362 201.923575,34.1918678 L201.561278,28.1165633 Z" id="Combined-Shape-Copy-4" fill="#FFFFFF" fill-rule="nonzero" transform="translate(196.000000, 37.095238) scale(-1, 1) rotate(-360.000000) translate(-196.000000, -37.095238) "></path>
        <path d="M455.19468,110.420123 L444.913396,110.216874 C443.798219,110.194828 442.925758,109.665182 442.964701,109.033875 C443.003644,108.402568 443.939243,107.908665 445.05442,107.93071 L462,108.265704 L461.408247,117.85867 C461.369304,118.489977 460.433705,118.983881 459.318528,118.961835 C458.20335,118.939789 457.33089,118.410142 457.369833,117.778836 L457.705827,112.332006 C450.688654,117.477702 443.818651,119.608626 436.72907,119.068412 C430.873431,118.622222 425.674826,116.583604 418.591773,112.573857 C417.802742,112.127184 417.802742,111.402983 418.591773,110.956309 C419.380803,110.509636 420.660073,110.509636 421.449103,110.956309 C427.940488,114.63111 432.559716,116.442527 437.268115,116.801299 C442.928454,117.232607 448.721634,115.355229 455.19468,110.420123 Z" id="Combined-Shape-Copy-3" fill="#FFFFFF" fill-rule="nonzero"></path>
        <path d="M795.80532,34.5798771 L806.086604,34.7831258 C807.201781,34.8051715 808.074242,35.3348183 808.035299,35.9661251 C807.996356,36.5974318 807.060757,37.0913355 805.94558,37.0692898 L789,36.734296 L789.591753,27.1413297 C789.630696,26.5100229 790.566295,26.0161193 791.681472,26.038165 C792.79665,26.0602107 793.66911,26.5898575 793.630167,27.2211643 L793.294173,32.6679938 C800.311346,27.5222985 807.181349,25.3913745 814.27093,25.9315881 C820.126569,26.3777777 825.325174,28.4163958 832.408227,32.4261431 C833.197258,32.8728165 833.197258,33.5970171 832.408227,34.0436905 C831.619197,34.4903639 830.339927,34.4903639 829.550897,34.0436905 C823.059512,30.3688897 818.440284,28.5574725 813.731885,28.1987007 C808.071546,27.7673928 802.278366,29.644771 795.80532,34.5798771 Z" id="Combined-Shape-Copy-3" fill="#FFFFFF" fill-rule="nonzero"></path>
    </g>
</svg>