<?xml version="1.0" encoding="UTF-8"?>
<svg width="1000px" height="748px" viewBox="0 0 1000 748" version="1.1" xmlns="http://www.w3.org/2000/svg" xmlns:xlink="http://www.w3.org/1999/xlink">
    <!-- Generator: Sketch 51 (57462) - http://www.bohemiancoding.com/sketch -->
    <title>trans-2-shad</title>
    <desc>Created with Sketch.</desc>
    <defs></defs>
    <g id="trans-2-shad" stroke="none" stroke-width="1" fill="none" fill-rule="evenodd">
        <path d="M925.940743,72.0431583 L925.940743,669.119032 C925.780989,671.957337 925.497944,672.774213 925.053224,673.541597 C924.442446,674.595521 923.567874,675.471662 922.515836,676.083537 L886.513695,697.022708 C879.688281,700.992431 871.26252,700.992431 864.437106,697.022708 L761.480945,637.040378 C759.591373,635.941386 758.407097,634.092202 758.085623,632.087423 C757.977724,631.284291 757.976339,630.672561 758.056039,630.064505 L758.056039,33" id="Combined-Shape" stroke="#FFFFFF"></path>
        <path d="M922.515903,66.9615695 C925.856926,68.9048358 926.992931,73.1935935 925.053242,76.540778 C924.442475,77.5947353 923.56792,78.4709034 922.515903,79.0827967 L886.514452,100.022616 C879.689168,103.992461 871.263569,103.992461 864.438285,100.022616 L761.484097,40.0384305 C758.143074,38.0951642 757.007069,33.8064065 758.946758,30.459222 C759.557525,29.4052647 760.43208,28.5290966 761.484097,27.9172033 L797.485548,6.97738426 C804.310832,3.00753858 812.736431,3.00753858 819.561715,6.97738426 L922.515903,66.9615695 Z" id="Combined-Shape" stroke="#FFFFFF"></path>
        <path d="M242.940743,72.0431583 L242.940743,669.119032 C242.780989,671.957337 242.497944,672.774213 242.053224,673.541597 C241.442446,674.595521 240.567874,675.471662 239.515836,676.083537 L203.513695,697.022708 C196.688281,700.992431 188.26252,700.992431 181.437106,697.022708 L78.4809455,637.040378 C76.591373,635.941386 75.4070974,634.092202 75.0856231,632.087423 C74.9777237,631.284291 74.9763387,630.672561 75.0560387,630.064505 L75.0560387,33" id="Combined-Shape" stroke="#FFFFFF" transform="translate(158.970372, 366.500000) scale(-1, 1) translate(-158.970372, -366.500000) "></path>
        <path d="M239.515903,66.9615695 C242.856926,68.9048358 243.992931,73.1935935 242.053242,76.540778 C241.442475,77.5947353 240.56792,78.4709034 239.515903,79.0827967 L203.514452,100.022616 C196.689168,103.992461 188.263569,103.992461 181.438285,100.022616 L78.4840968,40.0384305 C75.1430743,38.0951642 74.0070689,33.8064065 75.9467578,30.459222 C76.5575246,29.4052647 77.4320798,28.5290966 78.4840968,27.9172033 L114.485548,6.97738426 C121.310832,3.00753858 129.736431,3.00753858 136.561715,6.97738426 L239.515903,66.9615695 Z" id="Combined-Shape" stroke="#FFFFFF" transform="translate(159.000000, 53.500000) scale(-1, 1) translate(-159.000000, -53.500000) "></path>
        <path d="M492.940743,111.043158 L492.940743,708.119032 C492.780989,710.957337 492.497944,711.774213 492.053224,712.541597 C491.442446,713.595521 490.567874,714.471662 489.515836,715.083537 L453.513695,736.022708 C446.688281,739.992431 438.26252,739.992431 431.437106,736.022708 L328.480945,676.040378 C326.591373,674.941386 325.407097,673.092202 325.085623,671.087423 C324.977724,670.284291 324.976339,669.672561 325.056039,669.064505 L325.056039,72" id="Combined-Shape" stroke="#FFFFFF"></path>
        <path d="M489.515903,105.961569 C492.856926,107.904836 493.992931,112.193594 492.053242,115.540778 C491.442475,116.594735 490.56792,117.470903 489.515903,118.082797 L453.514452,139.022616 C446.689168,142.992461 438.263569,142.992461 431.438285,139.022616 L328.484097,79.0384305 C325.143074,77.0951642 324.007069,72.8064065 325.946758,69.459222 C326.557525,68.4052647 327.43208,67.5290966 328.484097,66.9172033 L364.485548,45.9773843 C371.310832,42.0075386 379.736431,42.0075386 386.561715,45.9773843 L489.515903,105.961569 Z" id="Combined-Shape" stroke="#FFFFFF"></path>
        <path d="M391.793204,70.9783005 C392.950443,71.6265353 393.343924,73.0571791 392.672069,74.1737329 C392.460516,74.5253119 392.157594,74.8175841 391.793204,75.0216995 L379.323289,82.0068042 C376.959198,83.3310653 374.040802,83.3310653 371.676711,82.0068042 L359.206796,75.0216995 C358.049557,74.3734647 357.656076,72.9428209 358.327931,71.8262671 C358.539484,71.4746881 358.842406,71.1824159 359.206796,70.9783005 L371.676711,63.9931958 C374.040802,62.6689347 376.959198,62.6689347 379.323289,63.9931958 L391.793204,70.9783005 Z" id="Combined-Shape-Copy" stroke="#FFFFFF"></path>
        <path d="M675.940743,111.043158 L675.940743,708.119032 C675.780989,710.957337 675.497944,711.774213 675.053224,712.541597 C674.442446,713.595521 673.567874,714.471662 672.515836,715.083537 L636.513695,736.022708 C629.688281,739.992431 621.26252,739.992431 614.437106,736.022708 L511.480945,676.040378 C509.591373,674.941386 508.407097,673.092202 508.085623,671.087423 C507.977724,670.284291 507.976339,669.672561 508.056039,669.064505 L508.056039,72" id="Combined-Shape" stroke="#FFFFFF" transform="translate(591.970372, 405.500000) scale(-1, 1) translate(-591.970372, -405.500000) "></path>
        <path d="M672.515903,105.961569 C675.856926,107.904836 676.992931,112.193594 675.053242,115.540778 C674.442475,116.594735 673.56792,117.470903 672.515903,118.082797 L636.514452,139.022616 C629.689168,142.992461 621.263569,142.992461 614.438285,139.022616 L511.484097,79.0384305 C508.143074,77.0951642 507.007069,72.8064065 508.946758,69.459222 C509.557525,68.4052647 510.43208,67.5290966 511.484097,66.9172033 L547.485548,45.9773843 C554.310832,42.0075386 562.736431,42.0075386 569.561715,45.9773843 L672.515903,105.961569 Z" id="Combined-Shape" stroke="#FFFFFF" transform="translate(592.000000, 92.500000) scale(-1, 1) translate(-592.000000, -92.500000) "></path>
        <path d="M641.793204,70.9783005 C642.950443,71.6265353 643.343924,73.0571791 642.672069,74.1737329 C642.460516,74.5253119 642.157594,74.8175841 641.793204,75.0216995 L629.323289,82.0068042 C626.959198,83.3310653 624.040802,83.3310653 621.676711,82.0068042 L609.206796,75.0216995 C608.049557,74.3734647 607.656076,72.9428209 608.327931,71.8262671 C608.539484,71.4746881 608.842406,71.1824159 609.206796,70.9783005 L621.676711,63.9931958 C624.040802,62.6689347 626.959198,62.6689347 629.323289,63.9931958 L641.793204,70.9783005 Z" id="Combined-Shape-Copy" stroke="#FFFFFF" transform="translate(625.500000, 73.000000) scale(-1, 1) translate(-625.500000, -73.000000) "></path>
        <path d="M891.793204,70.9783005 C892.950443,71.6265353 893.343924,73.0571791 892.672069,74.1737329 C892.460516,74.5253119 892.157594,74.8175841 891.793204,75.0216995 L879.323289,82.0068042 C876.959198,83.3310653 874.040802,83.3310653 871.676711,82.0068042 L859.206796,75.0216995 C858.049557,74.3734647 857.656076,72.9428209 858.327931,71.8262671 C858.539484,71.4746881 858.842406,71.1824159 859.206796,70.9783005 L871.676711,63.9931958 C874.040802,62.6689347 876.959198,62.6689347 879.323289,63.9931958 L891.793204,70.9783005 Z" id="Combined-Shape-Copy" stroke="#FFFFFF"></path>
        <path d="M141.793204,70.9783005 C142.950443,71.6265353 143.343924,73.0571791 142.672069,74.1737329 C142.460516,74.5253119 142.157594,74.8175841 141.793204,75.0216995 L129.323289,82.0068042 C126.959198,83.3310653 124.040802,83.3310653 121.676711,82.0068042 L109.206796,75.0216995 C108.049557,74.3734647 107.656076,72.9428209 108.327931,71.8262671 C108.539484,71.4746881 108.842406,71.1824159 109.206796,70.9783005 L121.676711,63.9931958 C124.040802,62.6689347 126.959198,62.6689347 129.323289,63.9931958 L141.793204,70.9783005 Z" id="Combined-Shape-Copy" stroke="#FFFFFF"></path>
    </g>
</svg>