<?xml version="1.0" encoding="UTF-8"?>
<svg width="1000px" height="748px" viewBox="0 0 1000 748" version="1.1" xmlns="http://www.w3.org/2000/svg" xmlns:xlink="http://www.w3.org/1999/xlink">
    <!-- Generator: Sketch 51 (57462) - http://www.bohemiancoding.com/sketch -->
    <title>trans-2-l180</title>
    <desc>Created with Sketch.</desc>
    <defs></defs>
    <g id="trans-2-l180" stroke="none" stroke-width="1" fill="none" fill-rule="evenodd">
        <path d="M761.480945,637.040378 C759.591373,635.941386 758.407097,634.092202 758.085623,632.087423 C757.977724,631.284291 757.976339,630.672561 758.056039,630.064505 L758.056039,33 L829.007313,33 L858.986724,72.0431583 L925.940743,72.0431583 L925.940743,669.119032 C925.780989,671.957337 925.497944,672.774213 925.053224,673.541597 C924.442446,674.595521 923.567874,675.471662 922.515836,676.083537 L886.513695,697.022708 C879.688281,700.992431 871.26252,700.992431 864.437106,697.022708 L761.480945,637.040378 Z" id="Combined-Shape" stroke="#4F4F4F" fill="#AC7300"></path>
        <path d="M922.515903,66.9615695 C925.856926,68.9048358 926.992931,73.1935935 925.053242,76.540778 C924.442475,77.5947353 923.56792,78.4709034 922.515903,79.0827967 L886.514452,100.022616 C879.689168,103.992461 871.263569,103.992461 864.438285,100.022616 L761.484097,40.0384305 C758.143074,38.0951642 757.007069,33.8064065 758.946758,30.459222 C759.557525,29.4052647 760.43208,28.5290966 761.484097,27.9172033 L797.485548,6.97738426 C804.310832,3.00753858 812.736431,3.00753858 819.561715,6.97738426 L922.515903,66.9615695 Z" id="Combined-Shape" stroke="#4F4F4F" fill="#FFD027"></path>
        <g id="Group-4" transform="translate(159.000000, 352.000000) scale(-1, 1) translate(-159.000000, -352.000000) translate(75.000000, 4.000000)" stroke="#4F4F4F">
            <path d="M3.48094547,633.040378 C1.59137303,631.941386 0.40709742,630.092202 0.0856231202,628.087423 C-0.0222763323,627.284291 -0.0236613314,626.672561 0.0560386828,626.064505 L0.0560386828,29 L71.0073126,29 L100.986724,68.0431583 L167.940743,68.0431583 L167.940743,665.119032 C167.780989,667.957337 167.497944,668.774213 167.053224,669.541597 C166.442446,670.595521 165.567874,671.471662 164.515836,672.083537 L128.513695,693.022708 C121.688281,696.992431 113.26252,696.992431 106.437106,693.022708 L3.48094547,633.040378 Z" id="Combined-Shape" fill="#AC7300"></path>
            <path d="M164.515903,62.9615695 C167.856926,64.9048358 168.992931,69.1935935 167.053242,72.540778 C166.442475,73.5947353 165.56792,74.4709034 164.515903,75.0827967 L128.514452,96.0226157 C121.689168,99.9924614 113.263569,99.9924614 106.438285,96.0226157 L3.48409682,36.0384305 C0.143074259,34.0951642 -0.992931128,29.8064065 0.946757776,26.459222 C1.55752461,25.4052647 2.43207978,24.5290966 3.48409682,23.9172033 L39.4855483,2.97738426 C46.3108321,-0.992461419 54.7364314,-0.992461419 61.5617151,2.97738426 L164.515903,62.9615695 Z" id="Combined-Shape" fill="#FFD027"></path>
        </g>
        <path d="M328.480945,676.040378 C326.591373,674.941386 325.407097,673.092202 325.085623,671.087423 C324.977724,670.284291 324.976339,669.672561 325.056039,669.064505 L325.056039,72 L396.007313,72 L425.986724,111.043158 L492.940743,111.043158 L492.940743,708.119032 C492.780989,710.957337 492.497944,711.774213 492.053224,712.541597 C491.442446,713.595521 490.567874,714.471662 489.515836,715.083537 L453.513695,736.022708 C446.688281,739.992431 438.26252,739.992431 431.437106,736.022708 L328.480945,676.040378 Z" id="Combined-Shape" stroke="#4F4F4F" fill="#AC7300"></path>
        <path d="M489.515903,105.961569 C492.856926,107.904836 493.992931,112.193594 492.053242,115.540778 C491.442475,116.594735 490.56792,117.470903 489.515903,118.082797 L453.514452,139.022616 C446.689168,142.992461 438.263569,142.992461 431.438285,139.022616 L328.484097,79.0384305 C325.143074,77.0951642 324.007069,72.8064065 325.946758,69.459222 C326.557525,68.4052647 327.43208,67.5290966 328.484097,66.9172033 L364.485548,45.9773843 C371.310832,42.0075386 379.736431,42.0075386 386.561715,45.9773843 L489.515903,105.961569 Z" id="Combined-Shape" stroke="#4F4F4F" fill="#FFD027"></path>
        <path d="M391.793204,70.9783005 C392.950443,71.6265353 393.343924,73.0571791 392.672069,74.1737329 C392.460516,74.5253119 392.157594,74.8175841 391.793204,75.0216995 L379.323289,82.0068042 C376.959198,83.3310653 374.040802,83.3310653 371.676711,82.0068042 L359.206796,75.0216995 C358.049557,74.3734647 357.656076,72.9428209 358.327931,71.8262671 C358.539484,71.4746881 358.842406,71.1824159 359.206796,70.9783005 L371.676711,63.9931958 C374.040802,62.6689347 376.959198,62.6689347 379.323289,63.9931958 L391.793204,70.9783005 Z" id="Combined-Shape-Copy" stroke="#4F4F4F" fill="#987838"></path>
        <path d="M511.480945,676.040378 C509.591373,674.941386 508.407097,673.092202 508.085623,671.087423 C507.977724,670.284291 507.976339,669.672561 508.056039,669.064505 L508.056039,72 L579.007313,72 L608.986724,111.043158 L675.940743,111.043158 L675.940743,708.119032 C675.780989,710.957337 675.497944,711.774213 675.053224,712.541597 C674.442446,713.595521 673.567874,714.471662 672.515836,715.083537 L636.513695,736.022708 C629.688281,739.992431 621.26252,739.992431 614.437106,736.022708 L511.480945,676.040378 Z" id="Combined-Shape" stroke="#4F4F4F" fill="#AC7300" transform="translate(592.000000, 405.500000) scale(-1, 1) translate(-592.000000, -405.500000) "></path>
        <path d="M672.515903,105.961569 C675.856926,107.904836 676.992931,112.193594 675.053242,115.540778 C674.442475,116.594735 673.56792,117.470903 672.515903,118.082797 L636.514452,139.022616 C629.689168,142.992461 621.263569,142.992461 614.438285,139.022616 L511.484097,79.0384305 C508.143074,77.0951642 507.007069,72.8064065 508.946758,69.459222 C509.557525,68.4052647 510.43208,67.5290966 511.484097,66.9172033 L547.485548,45.9773843 C554.310832,42.0075386 562.736431,42.0075386 569.561715,45.9773843 L672.515903,105.961569 Z" id="Combined-Shape" stroke="#4F4F4F" fill="#FFD027" transform="translate(592.000000, 92.500000) scale(-1, 1) translate(-592.000000, -92.500000) "></path>
        <path d="M641.793204,70.9783005 C642.950443,71.6265353 643.343924,73.0571791 642.672069,74.1737329 C642.460516,74.5253119 642.157594,74.8175841 641.793204,75.0216995 L629.323289,82.0068042 C626.959198,83.3310653 624.040802,83.3310653 621.676711,82.0068042 L609.206796,75.0216995 C608.049557,74.3734647 607.656076,72.9428209 608.327931,71.8262671 C608.539484,71.4746881 608.842406,71.1824159 609.206796,70.9783005 L621.676711,63.9931958 C624.040802,62.6689347 626.959198,62.6689347 629.323289,63.9931958 L641.793204,70.9783005 Z" id="Combined-Shape-Copy" stroke="#4F4F4F" fill="#987838" transform="translate(625.500000, 73.000000) scale(-1, 1) translate(-625.500000, -73.000000) "></path>
        <path d="M891.793204,70.9783005 C892.950443,71.6265353 893.343924,73.0571791 892.672069,74.1737329 C892.460516,74.5253119 892.157594,74.8175841 891.793204,75.0216995 L879.323289,82.0068042 C876.959198,83.3310653 874.040802,83.3310653 871.676711,82.0068042 L859.206796,75.0216995 C858.049557,74.3734647 857.656076,72.9428209 858.327931,71.8262671 C858.539484,71.4746881 858.842406,71.1824159 859.206796,70.9783005 L871.676711,63.9931958 C874.040802,62.6689347 876.959198,62.6689347 879.323289,63.9931958 L891.793204,70.9783005 Z" id="Combined-Shape-Copy" stroke="#4F4F4F" fill="#987838"></path>
        <path d="M141.793204,70.9783005 C142.950443,71.6265353 143.343924,73.0571791 142.672069,74.1737329 C142.460516,74.5253119 142.157594,74.8175841 141.793204,75.0216995 L129.323289,82.0068042 C126.959198,83.3310653 124.040802,83.3310653 121.676711,82.0068042 L109.206796,75.0216995 C108.049557,74.3734647 107.656076,72.9428209 108.327931,71.8262671 C108.539484,71.4746881 108.842406,71.1824159 109.206796,70.9783005 L121.676711,63.9931958 C124.040802,62.6689347 126.959198,62.6689347 129.323289,63.9931958 L141.793204,70.9783005 Z" id="Combined-Shape-Copy" stroke="#4F4F4F" fill="#987838"></path>
        <path d="M571.339386,115.026213 L558.445292,114.76473 C557.326072,114.742033 556.450448,114.19674 556.489532,113.546783 C556.528616,112.896827 557.467607,112.388333 558.586828,112.41103 L577,112.784435 L576.356998,123.477376 C576.317914,124.127333 575.378922,124.635827 574.259702,124.61313 C573.140481,124.590433 572.264857,124.04514 572.303941,123.395183 L572.659142,117.488301 C564.754559,121.176228 553.448678,121.068012 546.439684,116.997732 C538.897815,112.618 539.255442,105.349126 547.156606,100.760743 C547.948497,100.300874 549.232406,100.300874 550.024297,100.760743 C550.816188,101.220612 550.816188,101.966207 550.024297,102.426075 C543.671424,106.115331 543.387097,111.894362 549.307374,115.3324 C555.168162,118.73589 564.979518,118.608277 571.339386,115.026213 Z" id="Combined-Shape-Copy-5" fill="#FFFFFF" fill-rule="nonzero"></path>
        <path d="M204.339386,35.9965102 L191.445292,35.7350274 C190.326072,35.7123304 189.450448,35.167037 189.489532,34.5170805 C189.528616,33.867124 190.467607,33.3586297 191.586828,33.3813267 L210,33.7547324 L209.356998,44.4476734 C209.317914,45.0976299 208.378922,45.6061242 207.259702,45.5834272 C206.140481,45.5607302 205.264857,45.0154369 205.303941,44.3654804 L205.659142,38.4585979 C197.754559,42.1465253 186.448678,42.038309 179.439684,37.968029 C171.897815,33.5882972 172.255442,26.319423 180.156606,21.7310402 C180.948497,21.2711714 182.232406,21.2711714 183.024297,21.7310402 C183.816188,22.190909 183.816188,22.9365036 183.024297,23.3963724 C176.671424,27.0856277 176.387097,32.8646594 182.307374,36.3026968 C188.168162,39.7061873 197.979518,39.5785736 204.339386,35.9965102 Z" id="Combined-Shape-Copy-5" fill="#FFFFFF" fill-rule="nonzero" transform="translate(192.000000, 33.485149) rotate(-180.000000) translate(-192.000000, -33.485149) "></path>
        <path d="M447.755135,105.025565 L447.31209,112.31353 C447.273633,112.946133 446.349714,113.441051 445.248458,113.41896 C444.147202,113.396869 443.285632,112.866135 443.324089,112.233532 L443.95677,101.826087 L462.074393,102.189523 C463.175649,102.211614 464.037218,102.742348 463.998761,103.374951 C463.960304,104.007554 463.036385,104.502472 461.935129,104.480381 L451.926781,104.279616 C458.175434,108.747423 457.992078,115.137704 451.095584,119.099309 C443.67477,123.362105 431.358728,123.159967 423.584385,118.694092 C422.805205,118.246502 422.805205,117.520814 423.584385,117.073223 C424.363566,116.625633 425.626866,116.625633 426.406047,117.073223 C432.656949,120.663978 442.448672,120.824684 448.273923,117.478441 C454.040639,114.165822 453.824416,108.620272 447.755135,105.025565 Z" id="Combined-Shape-Copy-6" fill="#FFFFFF" fill-rule="nonzero"></path>
        <path d="M811.755135,27.0255647 L811.31209,34.3135305 C811.273633,34.9461334 810.349714,35.4410512 809.248458,35.4189602 C808.147202,35.3968693 807.285632,34.8661349 807.324089,34.2335319 L807.95677,23.826087 L826.074393,24.1895229 C827.175649,24.2116139 828.037218,24.7423483 827.998761,25.3749513 C827.960304,26.0075542 827.036385,26.502472 825.935129,26.480381 L815.926781,26.2796155 C822.175434,30.7474231 821.992078,37.1377037 815.095584,41.0993093 C807.67477,45.3621046 795.358728,45.1599674 787.584385,40.6940921 C786.805205,40.2465016 786.805205,39.5208139 787.584385,39.0732234 C788.363566,38.6256329 789.626866,38.6256329 790.406047,39.0732234 C796.656949,42.6639775 806.448672,42.8246842 812.273923,39.4784406 C818.040639,36.1658215 817.824416,30.6202722 811.755135,27.0255647 Z" id="Combined-Shape-Copy-6" fill="#FFFFFF" fill-rule="nonzero" transform="translate(807.500000, 34.000000) rotate(-180.000000) translate(-807.500000, -34.000000) "></path>
    </g>
</svg>