<?xml version="1.0" encoding="UTF-8"?>
<svg width="408px" height="408px" viewBox="0 0 408 408" version="1.1" xmlns="http://www.w3.org/2000/svg" xmlns:xlink="http://www.w3.org/1999/xlink">
    <!-- Generator: Sketch 43.2 (39069) - http://www.bohemiancoding.com/sketch -->
    <title>arrows</title>
    <desc>Created with Sketch.</desc>
    <defs></defs>
    <g id="Page-1" stroke="none" stroke-width="1" fill="none" fill-rule="evenodd">
        <g id="arrows">
            <path d="M328,113.006 C328,119.068 323.068,124 317.006,124 L294.994,124 C288.932,124 284,119.068 284,113.006 L284,90.994 C284,84.932 288.932,80 294.994,80 L317.006,80 C323.068,80 328,84.932 328,90.994 L328,113.006 Z" id="Path" fill="#FFFFFF"></path>
            <path d="M396,113.006 C396,119.068 391.068,124 385.006,124 L362.994,124 C356.932,124 352,119.068 352,113.006 L352,90.994 C352,84.932 356.932,80 362.994,80 L385.006,80 C391.068,80 396,84.932 396,90.994 L396,113.006 Z" id="Path-Copy-4" fill="#FFFFFF"></path>
            <path d="M328,45.006 C328,51.068 323.068,56 317.006,56 L294.994,56 C288.932,56 284,51.068 284,45.006 L284,22.994 C284,16.932 288.932,12 294.994,12 L317.006,12 C323.068,12 328,16.932 328,22.994 L328,45.006 Z" id="Path-Copy" fill="#FFFFFF"></path>
            <path d="M396,45.006 C396,51.068 391.068,56 385.006,56 L362.994,56 C356.932,56 352,51.068 352,45.006 L352,22.994 C352,16.932 356.932,12 362.994,12 L385.006,12 C391.068,12 396,16.932 396,22.994 L396,45.006 Z" id="Path-Copy-3" fill="#FFFFFF"></path>
            <path d="M196.4149,96.8083 L199.9859,100.3793 C201.1569,101.5503 201.1559,103.4503 199.9859,104.6213 L196.4149,108.1913 C195.6339,108.9733 194.9999,110.4973 194.9999,111.6153 L194.9999,113.0053 C194.9999,120.7343 188.7309,127.0003 181.0059,127.0003 L158.9939,127.0003 C151.2649,127.0003 144.9999,120.7303 144.9999,113.0053 L144.9999,111.6153 C144.9999,110.4973 145.6339,108.9733 146.4149,108.1913 L149.9859,104.6213 C151.1559,103.4503 151.1569,101.5503 149.9859,100.3793 L146.4149,96.8083 C145.6319,96.0253 144.9999,94.4993 144.9999,93.3963 L144.9999,92.1983 L144.9999,90.9943 C144.9999,83.2653 151.2689,77.0003 158.9939,77.0003 L181.0059,77.0003 C188.7349,77.0003 194.9999,83.2693 194.9999,90.9943 L194.9999,92.1983 L194.9999,93.3963 C194.9999,94.4993 195.6319,96.0253 196.4149,96.8083 Z M180.045166,99.9958858 L166.045166,99.9958858 L172.045166,94.9958858 C173.036621,93.904333 172.800232,92.4513725 172.434814,91.9958858 C171.176866,90.7879591 170.061768,91.0068721 169.045166,91.9958858 L158.045166,101.995886 L169.045166,112.995886 C170.214844,113.879675 171.176866,113.773637 172.434814,112.56571 C173.0625,111.643103 172.816895,110.775671 172.045166,109.995886 L166.045166,103.995886 L180.045166,103.995886 C181.075439,104.141149 181.891113,103.308874 182,101.995886 C181.964844,100.776892 181.177002,100.011022 180.045166,99.9958858 Z" id="Combined-Shape" fill="#FFFFFF"></path>
            <path d="M264.415,96.8083 L267.986,100.3793 C269.157,101.5503 269.156,103.4503 267.986,104.6213 L264.415,108.1913 C263.634,108.9733 263,110.4973 263,111.6153 L263,113.0053 C263,120.7343 256.731,127.0003 249.006,127.0003 L226.994,127.0003 C219.265,127.0003 213,120.7303 213,113.0053 L213,111.6153 C213,110.4973 213.634,108.9733 214.415,108.1913 L217.986,104.6213 C219.156,103.4503 219.157,101.5503 217.986,100.3793 L214.415,96.8083 C213.632,96.0253 213,94.4993 213,93.3963 L213,92.1983 L213,90.9943 C213,83.2653 219.269,77.0003 226.994,77.0003 L249.006,77.0003 C256.735,77.0003 263,83.2693 263,90.9943 L263,92.1983 L263,93.3963 C263,94.4993 263.632,96.0253 264.415,96.8083 Z M240.402222,92.3548355 C240.387085,91.2229996 239.621216,90.4351578 238.402222,90.4000015 C237.089233,90.5088882 236.256958,91.3245621 236.402222,92.3548355 L236.402222,106.354836 L230.402222,100.354836 C229.622436,99.583107 228.755005,99.3375015 227.832397,99.9651871 C226.624471,101.223135 226.518433,102.185158 227.402222,103.354836 L238.402222,114.354836 L248.402222,103.354836 C249.391235,102.338234 249.610148,101.223135 248.402222,99.9651871 C247.946735,99.5997695 246.493774,99.3633804 245.402222,100.354836 L240.402222,106.354836 L240.402222,92.3548355 Z" id="Combined-Shape" fill="#FFFFFF"></path>
            <path d="M196.4149,28.808 L199.9859,32.379 C201.1569,33.55 201.1559,35.45 199.9859,36.621 L196.4149,40.191 C195.6339,40.973 194.9999,42.497 194.9999,43.615 L194.9999,45.005 C194.9999,52.734 188.7309,59 181.0059,59 L158.9939,59 C151.2649,59 144.9999,52.73 144.9999,45.005 L144.9999,43.615 C144.9999,42.497 145.6339,40.973 146.4149,40.191 L149.9859,36.621 C151.1559,35.45 151.1569,33.55 149.9859,32.379 L146.4149,28.808 C145.6319,28.025 144.9999,26.499 144.9999,25.396 L144.9999,24.198 L144.9999,22.994 C144.9999,15.265 151.2689,9 158.9939,9 L181.0059,9 C188.7349,9 194.9999,15.269 194.9999,22.994 L194.9999,24.198 L194.9999,25.396 C194.9999,26.499 195.6319,28.025 196.4149,28.808 Z M160,32 C158.868164,32.0151367 158.080322,32.7810059 158.045166,34 C158.154053,35.3129883 158.969727,36.1452637 160,36 L174,36 L168,42 C167.228271,42.7797852 166.982666,43.6472168 167.610352,44.5698242 C168.8683,45.7777509 169.830322,45.8837891 171,45 L182,34 L171,24 C169.983398,23.0109863 168.8683,22.7920733 167.610352,24 C167.244934,24.4554867 167.008545,25.9084473 168,27 L174,32 L160,32 Z" id="Combined-Shape" fill="#FFFFFF"></path>
            <path d="M264.415,28.808 L267.986,32.379 C269.157,33.55 269.156,35.45 267.986,36.621 L264.415,40.191 C263.634,40.973 263,42.497 263,43.615 L263,45.005 C263,52.734 256.731,59 249.006,59 L226.994,59 C219.265,59 213,52.73 213,45.005 L213,43.615 C213,42.497 213.634,40.973 214.415,40.191 L217.986,36.621 C219.156,35.45 219.157,33.55 217.986,32.379 L214.415,28.808 C213.632,28.025 213,26.499 213,25.396 L213,24.198 L213,22.994 C213,15.265 219.269,9 226.994,9 L249.006,9 C256.735,9 263,15.269 263,22.994 L263,24.198 L263,25.396 C263,26.499 263.632,28.025 264.415,28.808 Z M235.644416,44.4007502 C235.659553,45.5325861 236.425422,46.3204279 237.644416,46.3555842 C238.957404,46.2466974 239.78968,45.4310236 239.644416,44.4007502 L239.644416,30.4007502 L245.644416,36.4007502 C246.424201,37.1724787 247.291633,37.4180842 248.21424,36.7903986 C249.422167,35.5324502 249.528205,34.5704279 248.644416,33.4007502 L237.644416,22.4007502 L227.644416,33.4007502 C226.655402,34.4173517 226.436489,35.5324502 227.644416,36.7903986 C228.099903,37.1558162 229.552863,37.3922053 230.644416,36.4007502 L235.644416,30.4007502 L235.644416,44.4007502 Z" id="Combined-Shape" fill="#FFFFFF"></path>
            <path d="M58.2939,38.0703 C56.9429,39.4213 55.9999,41.7013 55.9999,43.6153 L55.9999,45.0063 C55.9999,51.0683 51.0679,56.0003 45.0059,56.0003 L22.9939,56.0003 C16.9319,56.0003 11.9999,51.0683 11.9999,45.0063 L11.9999,43.6153 C12.0019,43.2973 12.3129,42.5423 12.5369,42.3123 L16.1079,38.7413 C18.4459,36.4013 18.4449,32.5953 16.1069,30.2583 L12.5369,26.6873 C12.3109,26.4563 12.0039,25.7193 11.9999,25.3963 L11.9999,22.9943 C11.9999,16.9323 16.9319,12.0003 22.9939,12.0003 L45.0059,12.0003 C51.0679,12.0003 55.9999,16.9323 55.9999,22.9943 L55.9999,25.3963 C55.9999,27.3023 56.9429,29.5783 58.2939,30.9293 L61.8639,34.5003 L58.2939,38.0703 Z M60.4149,28.8083 C59.6319,28.0253 58.9999,26.4993 58.9999,25.3963 L58.9999,24.1983 L58.9999,22.9943 C58.9999,15.2693 52.7349,9.0003 45.0059,9.0003 L22.9939,9.0003 C15.2689,9.0003 8.9999,15.2653 8.9999,22.9943 L8.9999,24.1983 L8.9999,25.3963 C8.9999,26.4993 9.6319,28.0253 10.4149,28.8083 L13.9859,32.3793 C15.1569,33.5503 15.1559,35.4503 13.9859,36.6213 L10.4149,40.1913 C9.6339,40.9733 8.9999,42.4973 8.9999,43.6153 L8.9999,45.0053 C8.9999,52.7303 15.2649,59.0003 22.9939,59.0003 L45.0059,59.0003 C52.7309,59.0003 58.9999,52.7343 58.9999,45.0053 L58.9999,43.6153 C58.9999,42.4973 59.6339,40.9733 60.4149,40.1913 L63.9859,36.6213 C65.1559,35.4503 65.1569,33.5503 63.9859,32.3793 L60.4149,28.8083 Z" id="Fill-1" fill="#DFDFDF"></path>
            <path d="M24,32 C22.8681641,32.0151367 22.0803223,32.7810059 22.045166,34 C22.1540527,35.3129883 22.9697266,36.1452637 24,36 L38,36 L32,42 C31.2282715,42.7797852 30.982666,43.6472168 31.6103516,44.5698242 C32.8683,45.7777509 33.8303223,45.8837891 35,45 L46,34 L35,24 C33.9833984,23.0109863 32.8683,22.7920733 31.6103516,24 C31.244934,24.4554867 31.0085449,25.9084473 32,27 L38,32 L24,32 Z" id="Combined-Shape" fill="#DFDFDF" fill-rule="nonzero"></path>
            <path d="M24,99.9958858 C22.8681641,100.011022 22.0803223,100.776892 22.045166,101.995886 C22.1540527,103.308874 22.9697266,104.141149 24,103.995886 L38,103.995886 L32,109.995886 C31.2282715,110.775671 30.982666,111.643103 31.6103516,112.56571 C32.8683,113.773637 33.8303223,113.879675 35,112.995886 L46,101.995886 L35,91.9958858 C33.9833984,91.0068721 32.8683,90.7879591 31.6103516,91.9958858 C31.244934,92.4513725 31.0085449,93.904333 32,94.9958858 L38,99.9958858 L24,99.9958858 Z" id="Combined-Shape" fill="#DFDFDF" fill-rule="nonzero" transform="translate(34.022583, 102.374053) scale(-1, 1) translate(-34.022583, -102.374053) "></path>
            <path d="M92,32 C90.8681641,32.0151367 90.0803223,32.7810059 90.045166,34 C90.1540527,35.3129883 90.9697266,36.1452637 92,36 L106,36 L100,42 C99.2282715,42.7797852 98.982666,43.6472168 99.6103516,44.5698242 C100.8683,45.7777509 101.830322,45.8837891 103,45 L114,34 L103,24 C101.983398,23.0109863 100.8683,22.7920733 99.6103516,24 C99.244934,24.4554867 99.0085449,25.9084473 100,27 L106,32 L92,32 Z" id="Combined-Shape" fill="#DFDFDF" fill-rule="nonzero" transform="translate(102.022583, 34.378167) rotate(-90.000000) translate(-102.022583, -34.378167) "></path>
            <path d="M126.2939,38.0703 C124.9429,39.4213 123.9999,41.7013 123.9999,43.6153 L123.9999,45.0063 C123.9999,51.0683 119.0679,56.0003 113.0059,56.0003 L90.9939,56.0003 C84.9319,56.0003 79.9999,51.0683 79.9999,45.0063 L79.9999,43.6153 C80.0019,43.2973 80.3129,42.5423 80.5369,42.3123 L84.1079,38.7413 C86.4459,36.4013 86.4449,32.5953 84.1069,30.2583 L80.5369,26.6873 C80.3109,26.4563 80.0039,25.7193 79.9999,25.3963 L79.9999,22.9943 C79.9999,16.9323 84.9319,12.0003 90.9939,12.0003 L113.0059,12.0003 C119.0679,12.0003 123.9999,16.9323 123.9999,22.9943 L123.9999,25.3963 C123.9999,27.3023 124.9429,29.5783 126.2939,30.9293 L129.8639,34.5003 L126.2939,38.0703 Z M128.4149,28.8083 C127.6319,28.0253 126.9999,26.4993 126.9999,25.3963 L126.9999,24.1983 L126.9999,22.9943 C126.9999,15.2693 120.7349,9.0003 113.0059,9.0003 L90.9939,9.0003 C83.2689,9.0003 76.9999,15.2653 76.9999,22.9943 L76.9999,24.1983 L76.9999,25.3963 C76.9999,26.4993 77.6319,28.0253 78.4149,28.8083 L81.9859,32.3793 C83.1569,33.5503 83.1559,35.4503 81.9859,36.6213 L78.4149,40.1913 C77.6339,40.9733 76.9999,42.4973 76.9999,43.6153 L76.9999,45.0053 C76.9999,52.7303 83.2649,59.0003 90.9939,59.0003 L113.0059,59.0003 C120.7309,59.0003 126.9999,52.7343 126.9999,45.0053 L126.9999,43.6153 C126.9999,42.4973 127.6339,40.9733 128.4149,40.1913 L131.9859,36.6213 C133.1559,35.4503 133.1569,33.5503 131.9859,32.3793 L128.4149,28.8083 Z" id="Fill-1" fill="#DFDFDF"></path>
            <path d="M58.2939,106.0703 C56.9429,107.4213 55.9999,109.7013 55.9999,111.6153 L55.9999,113.0063 C55.9999,119.0683 51.0679,124.0003 45.0059,124.0003 L22.9939,124.0003 C16.9319,124.0003 11.9999,119.0683 11.9999,113.0063 L11.9999,111.6153 C12.0019,111.2973 12.3129,110.5423 12.5369,110.3123 L16.1079,106.7413 C18.4459,104.4013 18.4449,100.5953 16.1069,98.2583 L12.5369,94.6873 C12.3109,94.4563 12.0039,93.7193 11.9999,93.3963 L11.9999,90.9943 C11.9999,84.9323 16.9319,80.0003 22.9939,80.0003 L45.0059,80.0003 C51.0679,80.0003 55.9999,84.9323 55.9999,90.9943 L55.9999,93.3963 C55.9999,95.3023 56.9429,97.5783 58.2939,98.9293 L61.8639,102.5003 L58.2939,106.0703 Z M60.4149,96.8083 C59.6319,96.0253 58.9999,94.4993 58.9999,93.3963 L58.9999,92.1983 L58.9999,90.9943 C58.9999,83.2693 52.7349,77.0003 45.0059,77.0003 L22.9939,77.0003 C15.2689,77.0003 8.9999,83.2653 8.9999,90.9943 L8.9999,92.1983 L8.9999,93.3963 C8.9999,94.4993 9.6319,96.0253 10.4149,96.8083 L13.9859,100.3793 C15.1569,101.5503 15.1559,103.4503 13.9859,104.6213 L10.4149,108.1913 C9.6339,108.9733 8.9999,110.4973 8.9999,111.6153 L8.9999,113.0053 C8.9999,120.7303 15.2649,127.0003 22.9939,127.0003 L45.0059,127.0003 C52.7309,127.0003 58.9999,120.7343 58.9999,113.0053 L58.9999,111.6153 C58.9999,110.4973 59.6339,108.9733 60.4149,108.1913 L63.9859,104.6213 C65.1559,103.4503 65.1569,101.5503 63.9859,100.3793 L60.4149,96.8083 Z" id="Fill-1" fill="#DFDFDF"></path>
            <path d="M126.2939,106.0703 C124.9429,107.4213 123.9999,109.7013 123.9999,111.6153 L123.9999,113.0063 C123.9999,119.0683 119.0679,124.0003 113.0059,124.0003 L90.9939,124.0003 C84.9319,124.0003 79.9999,119.0683 79.9999,113.0063 L79.9999,111.6153 C80.0019,111.2973 80.3129,110.5423 80.5369,110.3123 L84.1079,106.7413 C86.4459,104.4013 86.4449,100.5953 84.1069,98.2583 L80.5369,94.6873 C80.3109,94.4563 80.0039,93.7193 79.9999,93.3963 L79.9999,90.9943 C79.9999,84.9323 84.9319,80.0003 90.9939,80.0003 L113.0059,80.0003 C119.0679,80.0003 123.9999,84.9323 123.9999,90.9943 L123.9999,93.3963 C123.9999,95.3023 124.9429,97.5783 126.2939,98.9293 L129.8639,102.5003 L126.2939,106.0703 Z M128.4149,96.8083 C127.6319,96.0253 126.9999,94.4993 126.9999,93.3963 L126.9999,92.1983 L126.9999,90.9943 C126.9999,83.2693 120.7349,77.0003 113.0059,77.0003 L90.9939,77.0003 C83.2689,77.0003 76.9999,83.2653 76.9999,90.9943 L76.9999,92.1983 L76.9999,93.3963 C76.9999,94.4993 77.6319,96.0253 78.4149,96.8083 L81.9859,100.3793 C83.1569,101.5503 83.1559,103.4503 81.9859,104.6213 L78.4149,108.1913 C77.6339,108.9733 76.9999,110.4973 76.9999,111.6153 L76.9999,113.0053 C76.9999,120.7303 83.2649,127.0003 90.9939,127.0003 L113.0059,127.0003 C120.7309,127.0003 126.9999,120.7343 126.9999,113.0053 L126.9999,111.6153 C126.9999,110.4973 127.6339,108.9733 128.4149,108.1913 L131.9859,104.6213 C133.1559,103.4503 133.1569,101.5503 131.9859,100.3793 L128.4149,96.8083 Z" id="Fill-1" fill="#DFDFDF"></path>
            <path d="M92.0014715,99.9992513 C90.8696355,100.014388 90.0817937,100.780257 90.0466375,101.999251 C90.1555242,103.31224 90.971198,104.144515 92.0014715,103.999251 L106.001471,103.999251 L100.001471,109.999251 C99.2297429,110.779036 98.9841375,111.646468 99.611823,112.569076 C100.869771,113.777002 101.831794,113.88304 103.001471,112.999251 L114.001471,101.999251 L103.001471,91.9992513 C101.98487,91.0102377 100.869771,90.7913247 99.611823,91.9992513 C99.2464054,92.454738 99.0100164,93.9076986 100.001471,94.9992513 L106.001471,99.9992513 L92.0014715,99.9992513 Z" id="Combined-Shape" fill="#DFDFDF" fill-rule="nonzero" transform="translate(102.024054, 102.377419) rotate(-270.000000) translate(-102.024054, -102.377419) "></path>
            <path d="M55.9999,317.006 C55.9999,323.068 51.0679,328 45.0059,328 L22.9939,328 C16.9319,328 11.9999,323.068 11.9999,317.006 L11.9999,294.994 C11.9999,288.932 16.9319,284 22.9939,284 L45.0059,284 C51.0679,284 55.9999,288.932 55.9999,294.994 L55.9999,317.006 Z M58.9999,294.994 C58.9999,287.269 52.7349,281 45.0059,281 L22.9939,281 C15.2689,281 8.9999,287.265 8.9999,294.994 L8.9999,317.005 C8.9999,324.73 15.2649,331 22.9939,331 L45.0059,331 C52.7309,331 58.9999,324.734 58.9999,317.005 L58.9999,294.994 Z" id="Fill-1-Copy-10" fill="#FE4EA3"></path>
            <path d="M194.9999,158.9943 L194.9999,181.0053 C194.9999,188.7343 188.7309,195.0003 181.0059,195.0003 L158.9939,195.0003 C151.2649,195.0003 144.9999,188.7303 144.9999,181.0053 L144.9999,158.9943 C144.9999,151.2653 151.2689,145.0003 158.9939,145.0003 L181.0059,145.0003 C188.7349,145.0003 194.9999,151.2693 194.9999,158.9943 Z M160,168 C158.868164,168.015137 158.080322,168.781006 158.045166,170 C158.154053,171.312988 158.969727,172.145264 160,172 L174,172 L168,178 C167.228271,178.779785 166.982666,179.647217 167.610352,180.569824 C168.8683,181.777751 169.830322,181.883789 171,181 L182,170 L171,160 C169.983398,159.010986 168.8683,158.792073 167.610352,160 C167.244934,160.455487 167.008545,161.908447 168,163 L174,168 L160,168 Z" id="Combined-Shape" fill="#FFFFFF"></path>
            <path d="M195,226.994 L195,249.005 C195,256.734 188.731,263 181.006,263 L158.994,263 C151.265,263 145,256.73 145,249.005 L145,226.994 C145,219.265 151.269,213 158.994,213 L181.006,213 C188.735,213 195,219.269 195,226.994 Z M180.045166,235.995886 L166.045166,235.995886 L172.045166,230.995886 C173.036621,229.904333 172.800232,228.451372 172.434814,227.995886 C171.176866,226.787959 170.061768,227.006872 169.045166,227.995886 L158.045166,237.995886 L169.045166,248.995886 C170.214844,249.879675 171.176866,249.773637 172.434814,248.56571 C173.0625,247.643103 172.816895,246.775671 172.045166,245.995886 L166.045166,239.995886 L180.045166,239.995886 C181.075439,240.141149 181.891113,239.308874 182,237.995886 C181.964844,236.776892 181.177002,236.011022 180.045166,235.995886 Z" id="Combined-Shape" fill="#FFFFFF"></path>
            <path d="M263,158.9943 L263,181.0053 C263,188.7343 256.731,195.0003 249.006,195.0003 L226.994,195.0003 C219.265,195.0003 213,188.7303 213,181.0053 L213,158.9943 C213,151.2653 219.269,145.0003 226.994,145.0003 L249.006,145.0003 C256.735,145.0003 263,151.2693 263,158.9943 Z M235.644416,180.40075 C235.659553,181.532586 236.425422,182.320428 237.644416,182.355584 C238.957404,182.246697 239.78968,181.431024 239.644416,180.40075 L239.644416,166.40075 L245.644416,172.40075 C246.424201,173.172479 247.291633,173.418084 248.21424,172.790399 C249.422167,171.53245 249.528205,170.570428 248.644416,169.40075 L237.644416,158.40075 L227.644416,169.40075 C226.655402,170.417352 226.436489,171.53245 227.644416,172.790399 C228.099903,173.155816 229.552863,173.392205 230.644416,172.40075 L235.644416,166.40075 L235.644416,180.40075 Z" id="Combined-Shape" fill="#FFFFFF"></path>
            <path d="M263,226.994 L263,249.005 C263,256.734 256.731,263 249.006,263 L226.994,263 C219.265,263 213,256.73 213,249.005 L213,226.994 C213,219.265 219.269,213 226.994,213 L249.006,213 C256.735,213 263,219.269 263,226.994 Z M240.402222,228.354836 C240.387085,227.223 239.621216,226.435158 238.402222,226.400002 C237.089233,226.508888 236.256958,227.324562 236.402222,228.354836 L236.402222,242.354836 L230.402222,236.354836 C229.622436,235.583107 228.755005,235.337502 227.832397,235.965187 C226.624471,237.223135 226.518433,238.185158 227.402222,239.354836 L238.402222,250.354836 L248.402222,239.354836 C249.391235,238.338234 249.610148,237.223135 248.402222,235.965187 C247.946735,235.599769 246.493774,235.36338 245.402222,236.354836 L240.402222,242.354836 L240.402222,228.354836 Z" id="Combined-Shape" fill="#FFFFFF"></path>
            <g id="Group-2" transform="translate(9.000000, 145.000000)" fill="#DFDFDF">
                <path d="M46.9999,104.006 C46.9999,110.068 42.0679,115 36.0059,115 L13.9939,115 C7.9319,115 2.9999,110.068 2.9999,104.006 L2.9999,81.994 C2.9999,75.932 7.9319,71 13.9939,71 L36.0059,71 C42.0679,71 46.9999,75.932 46.9999,81.994 L46.9999,104.006 Z M49.9999,81.994 C49.9999,74.269 43.7349,68 36.0059,68 L13.9939,68 C6.2689,68 -0.000100000001,74.265 -0.000100000001,81.994 L-0.000100000001,104.005 C-0.000100000001,111.73 6.2649,118 13.9939,118 L36.0059,118 C43.7309,118 49.9999,111.734 49.9999,104.005 L49.9999,81.994 Z" id="Fill-1-Copy-3"></path>
                <path d="M115,104.006 C115,110.068 110.068,115 104.006,115 L81.994,115 C75.932,115 71,110.068 71,104.006 L71,81.994 C71,75.932 75.932,71 81.994,71 L104.006,71 C110.068,71 115,75.932 115,81.994 L115,104.006 Z M118,81.994 C118,74.269 111.735,68 104.006,68 L81.994,68 C74.269,68 68,74.265 68,81.994 L68,104.005 C68,111.73 74.265,118 81.994,118 L104.006,118 C111.731,118 118,111.734 118,104.005 L118,81.994 Z" id="Fill-1-Copy-2"></path>
                <path d="M15,90.9958858 C13.8681641,91.0110225 13.0803223,91.7768916 13.045166,92.9958858 C13.1540527,94.3088741 13.9697266,95.1411494 15,94.9958858 L29,94.9958858 L23,100.995886 C22.2282715,101.775671 21.982666,102.643103 22.6103516,103.56571 C23.8683,104.773637 24.8303223,104.879675 26,103.995886 L37,92.9958858 L26,82.9958858 C24.9833984,82.0068721 23.8683,81.7879591 22.6103516,82.9958858 C22.244934,83.4513725 22.0085449,84.904333 23,85.9958858 L29,90.9958858 L15,90.9958858 Z" id="Combined-Shape" fill-rule="nonzero" transform="translate(25.022583, 93.374053) scale(-1, 1) translate(-25.022583, -93.374053) "></path>
                <g id="Group">
                    <path d="M46.9999,36.0063 C46.9999,42.0683 42.0679,47.0003 36.0059,47.0003 L13.9939,47.0003 C7.9319,47.0003 2.9999,42.0683 2.9999,36.0063 L2.9999,13.9943 C2.9999,7.9323 7.9319,3.0003 13.9939,3.0003 L36.0059,3.0003 C42.0679,3.0003 46.9999,7.9323 46.9999,13.9943 L46.9999,36.0063 Z M49.9999,13.9943 C49.9999,6.2693 43.7349,0.0003 36.0059,0.0003 L13.9939,0.0003 C6.2689,0.0003 -0.000100000001,6.2653 -0.000100000001,13.9943 L-0.000100000001,36.0053 C-0.000100000001,43.7303 6.2649,50.0003 13.9939,50.0003 L36.0059,50.0003 C43.7309,50.0003 49.9999,43.7343 49.9999,36.0053 L49.9999,13.9943 Z" id="Fill-1"></path>
                    <path d="M115,36.0063 C115,42.0683 110.068,47.0003 104.006,47.0003 L81.994,47.0003 C75.932,47.0003 71,42.0683 71,36.0063 L71,13.9943 C71,7.9323 75.932,3.0003 81.994,3.0003 L104.006,3.0003 C110.068,3.0003 115,7.9323 115,13.9943 L115,36.0063 Z M118,13.9943 C118,6.2693 111.735,0.0003 104.006,0.0003 L81.994,0.0003 C74.269,0.0003 68,6.2653 68,13.9943 L68,36.0053 C68,43.7303 74.265,50.0003 81.994,50.0003 L104.006,50.0003 C111.731,50.0003 118,43.7343 118,36.0053 L118,13.9943 Z" id="Fill-1-Copy"></path>
                    <path d="M15,23 C13.8681641,23.0151367 13.0803223,23.7810059 13.045166,25 C13.1540527,26.3129883 13.9697266,27.1452637 15,27 L29,27 L23,33 C22.2282715,33.7797852 21.982666,34.6472168 22.6103516,35.5698242 C23.8683,36.7777509 24.8303223,36.8837891 26,36 L37,25 L26,15 C24.9833984,14.0109863 23.8683,13.7920733 22.6103516,15 C22.244934,15.4554867 22.0085449,16.9084473 23,18 L29,23 L15,23 Z" id="Combined-Shape" fill-rule="nonzero"></path>
                    <path d="M83,23 C81.8681641,23.0151367 81.0803223,23.7810059 81.045166,25 C81.1540527,26.3129883 81.9697266,27.1452637 83,27 L97,27 L91,33 C90.2282715,33.7797852 89.982666,34.6472168 90.6103516,35.5698242 C91.8683,36.7777509 92.8303223,36.8837891 94,36 L105,25 L94,15 C92.9833984,14.0109863 91.8683,13.7920733 90.6103516,15 C90.244934,15.4554867 90.0085449,16.9084473 91,18 L97,23 L83,23 Z" id="Combined-Shape" fill-rule="nonzero" transform="translate(93.022583, 25.378167) rotate(-90.000000) translate(-93.022583, -25.378167) "></path>
                </g>
                <path d="M83.0014715,90.9992513 C81.8696355,91.0143881 81.0817937,91.7802572 81.0466375,92.9992513 C81.1555242,94.3122396 81.971198,95.144515 83.0014715,94.9992513 L97.0014715,94.9992513 L91.0014715,100.999251 C90.2297429,101.779036 89.9841375,102.646468 90.611823,103.569076 C91.8697714,104.777002 92.8317937,104.88304 94.0014715,103.999251 L105.001471,92.9992513 L94.0014715,82.9992513 C92.9848699,82.0102377 91.8697714,81.7913247 90.611823,82.9992513 C90.2464054,83.454738 90.0100164,84.9076986 91.0014715,85.9992513 L97.0014715,90.9992513 L83.0014715,90.9992513 Z" id="Combined-Shape" fill-rule="nonzero" transform="translate(93.024054, 93.377419) rotate(-270.000000) translate(-93.024054, -93.377419) "></path>
            </g>
            <path d="M327.9999,113.006 C327.9999,119.068 323.0679,124 317.0059,124 L294.9939,124 C288.9319,124 283.9999,119.068 283.9999,113.006 L283.9999,90.994 C283.9999,84.932 288.9319,80 294.9939,80 L317.0059,80 C323.0679,80 327.9999,84.932 327.9999,90.994 L327.9999,113.006 Z M330.9999,90.994 C330.9999,83.269 324.7349,77 317.0059,77 L294.9939,77 C287.2689,77 280.9999,83.265 280.9999,90.994 L280.9999,113.005 C280.9999,120.73 287.2649,127 294.9939,127 L317.0059,127 C324.7309,127 330.9999,120.734 330.9999,113.005 L330.9999,90.994 Z" id="Fill-1-Copy-3" fill="#DFDFDF"></path>
            <path d="M396,113.006 C396,119.068 391.068,124 385.006,124 L362.994,124 C356.932,124 352,119.068 352,113.006 L352,90.994 C352,84.932 356.932,80 362.994,80 L385.006,80 C391.068,80 396,84.932 396,90.994 L396,113.006 Z M399,90.994 C399,83.269 392.735,77 385.006,77 L362.994,77 C355.269,77 349,83.265 349,90.994 L349,113.005 C349,120.73 355.265,127 362.994,127 L385.006,127 C392.731,127 399,120.734 399,113.005 L399,90.994 Z" id="Fill-1-Copy-2" fill="#DFDFDF"></path>
            <path d="M296,99.9958858 C294.868164,100.011022 294.080322,100.776892 294.045166,101.995886 C294.154053,103.308874 294.969727,104.141149 296,103.995886 L310,103.995886 L304,109.995886 C303.228271,110.775671 302.982666,111.643103 303.610352,112.56571 C304.8683,113.773637 305.830322,113.879675 307,112.995886 L318,101.995886 L307,91.9958858 C305.983398,91.0068721 304.8683,90.7879591 303.610352,91.9958858 C303.244934,92.4513725 303.008545,93.904333 304,94.9958858 L310,99.9958858 L296,99.9958858 Z" id="Combined-Shape" fill="#DFDFDF" fill-rule="nonzero" transform="translate(306.022583, 102.374053) scale(-1, 1) translate(-306.022583, -102.374053) "></path>
            <g id="Group" transform="translate(281.000000, 9.000000)" fill="#DFDFDF">
                <path d="M46.9999,36.0063 C46.9999,42.0683 42.0679,47.0003 36.0059,47.0003 L13.9939,47.0003 C7.9319,47.0003 2.9999,42.0683 2.9999,36.0063 L2.9999,13.9943 C2.9999,7.9323 7.9319,3.0003 13.9939,3.0003 L36.0059,3.0003 C42.0679,3.0003 46.9999,7.9323 46.9999,13.9943 L46.9999,36.0063 Z M49.9999,13.9943 C49.9999,6.2693 43.7349,0.0003 36.0059,0.0003 L13.9939,0.0003 C6.2689,0.0003 -0.000100000001,6.2653 -0.000100000001,13.9943 L-0.000100000001,36.0053 C-0.000100000001,43.7303 6.2649,50.0003 13.9939,50.0003 L36.0059,50.0003 C43.7309,50.0003 49.9999,43.7343 49.9999,36.0053 L49.9999,13.9943 Z" id="Fill-1"></path>
                <path d="M115,36.0063 C115,42.0683 110.068,47.0003 104.006,47.0003 L81.994,47.0003 C75.932,47.0003 71,42.0683 71,36.0063 L71,13.9943 C71,7.9323 75.932,3.0003 81.994,3.0003 L104.006,3.0003 C110.068,3.0003 115,7.9323 115,13.9943 L115,36.0063 Z M118,13.9943 C118,6.2693 111.735,0.0003 104.006,0.0003 L81.994,0.0003 C74.269,0.0003 68,6.2653 68,13.9943 L68,36.0053 C68,43.7303 74.265,50.0003 81.994,50.0003 L104.006,50.0003 C111.731,50.0003 118,43.7343 118,36.0053 L118,13.9943 Z" id="Fill-1-Copy"></path>
                <path d="M15,23 C13.8681641,23.0151367 13.0803223,23.7810059 13.045166,25 C13.1540527,26.3129883 13.9697266,27.1452637 15,27 L29,27 L23,33 C22.2282715,33.7797852 21.982666,34.6472168 22.6103516,35.5698242 C23.8683,36.7777509 24.8303223,36.8837891 26,36 L37,25 L26,15 C24.9833984,14.0109863 23.8683,13.7920733 22.6103516,15 C22.244934,15.4554867 22.0085449,16.9084473 23,18 L29,23 L15,23 Z" id="Combined-Shape" fill-rule="nonzero"></path>
                <path d="M83,23 C81.8681641,23.0151367 81.0803223,23.7810059 81.045166,25 C81.1540527,26.3129883 81.9697266,27.1452637 83,27 L97,27 L91,33 C90.2282715,33.7797852 89.982666,34.6472168 90.6103516,35.5698242 C91.8683,36.7777509 92.8303223,36.8837891 94,36 L105,25 L94,15 C92.9833984,14.0109863 91.8683,13.7920733 90.6103516,15 C90.244934,15.4554867 90.0085449,16.9084473 91,18 L97,23 L83,23 Z" id="Combined-Shape" fill-rule="nonzero" transform="translate(93.022583, 25.378167) rotate(-90.000000) translate(-93.022583, -25.378167) "></path>
            </g>
            <path d="M364.001471,99.9992513 C362.869636,100.014388 362.081794,100.780257 362.046637,101.999251 C362.155524,103.31224 362.971198,104.144515 364.001471,103.999251 L378.001471,103.999251 L372.001471,109.999251 C371.229743,110.779036 370.984137,111.646468 371.611823,112.569076 C372.869771,113.777002 373.831794,113.88304 375.001471,112.999251 L386.001471,101.999251 L375.001471,91.9992513 C373.98487,91.0102377 372.869771,90.7913247 371.611823,91.9992513 C371.246405,92.454738 371.010016,93.9076986 372.001471,94.9992513 L378.001471,99.9992513 L364.001471,99.9992513 Z" id="Combined-Shape" fill="#DFDFDF" fill-rule="nonzero" transform="translate(374.024054, 102.377419) rotate(-270.000000) translate(-374.024054, -102.377419) "></path>
        </g>
    </g>
</svg>