<?xml version="1.0" encoding="UTF-8"?>
<svg width="408px" height="408px" viewBox="0 0 408 408" version="1.1" xmlns="http://www.w3.org/2000/svg" xmlns:xlink="http://www.w3.org/1999/xlink">
    <!-- Generator: Sketch 43.2 (39069) - http://www.bohemiancoding.com/sketch -->
    <title>arrows_keys</title>
    <desc>Created with Sketch.</desc>
    <defs>
        <rect id="path-1" x="0" y="3" width="50" height="50" rx="14"></rect>
        <rect id="path-2" x="0" y="3" width="50" height="50" rx="14"></rect>
        <rect id="path-3" x="0" y="3" width="50" height="50" rx="14"></rect>
        <rect id="path-4" x="0" y="3" width="50" height="50" rx="14"></rect>
        <rect id="path-5" x="0" y="5" width="50" height="50" rx="14"></rect>
        <rect id="path-6" x="0" y="5" width="50" height="50" rx="14"></rect>
        <rect id="path-7" x="0" y="5" width="50" height="50" rx="14"></rect>
        <rect id="path-8" x="0" y="5" width="50" height="50" rx="14"></rect>
        <rect id="path-9" x="349" y="14" width="50" height="50" rx="14"></rect>
        <rect id="path-10" x="281" y="14" width="50" height="50" rx="14"></rect>
    </defs>
    <g id="Page-1" stroke="none" stroke-width="1" fill="none" fill-rule="evenodd">
        <g id="arrows_keys">
            <g id="Group" transform="translate(9.000000, 77.000000)">
                <path d="M0,15.1980463 L0,13.9942738 C0,6.26544981 6.26927476,0 13.9942738,0 L36.0057262,0 C43.7345502,0 50,6.26927476 50,13.9942738 L50,15.1980463 L50,16.396093 C50,17.4991741 50.6314411,19.0248393 51.4153625,19.8087608 L54.9856897,23.379088 C56.1570371,24.5504354 56.1560022,26.4505995 54.9856897,27.620912 L51.4153625,31.1912392 C50.6336794,31.9729223 50,33.4972117 50,34.6149041 L50,36.0057262 C50,43.7345502 43.7307252,50 36.0057262,50 L13.9942738,50 C6.26544981,50 0,43.7307252 0,36.0057262 L0,34.6149038 C7.31666473e-15,33.4972118 0.633679396,31.9729223 1.41536254,31.1912392 L4.98568975,27.620912 C6.1560022,26.4505995 6.15703708,24.5504354 4.98568975,23.379088 L1.41536254,19.8087608 C0.631441052,19.0248393 1.95197135e-15,17.4991741 4.52559129e-30,16.3960927 L0,34.6149038 Z" id="Combined-Shape" fill="#37E999"></path>
                <path d="M15,23 C13.8681641,23.0151367 13.0803223,23.7810059 13.045166,25 C13.1540527,26.3129883 13.9697266,27.1452637 15,27 L29,27 L23,33 C22.2282715,33.7797852 21.982666,34.6472168 22.6103516,35.5698242 C23.8683,36.7777509 24.8303223,36.8837891 26,36 L37,25 L26,15 C24.9833984,14.0109863 23.8683,13.7920733 22.6103516,15 C22.244934,15.4554867 22.0085449,16.9084473 23,18 L29,23 L15,23 Z" id="Combined-Shape" fill="#FFFFFF" fill-rule="nonzero" transform="translate(25.022583, 25.378167) scale(-1, 1) translate(-25.022583, -25.378167) "></path>
            </g>
            <path d="M9,24.1980463 L9,22.9942738 C9,15.2654498 15.2692748,9 22.9942738,9 L45.0057262,9 C52.7345502,9 59,15.2692748 59,22.9942738 L59,24.1980463 L59,25.396093 C59,26.4991741 59.6314411,28.0248393 60.4153625,28.8087608 L63.9856897,32.379088 C65.1570371,33.5504354 65.1560022,35.4505995 63.9856897,36.620912 L60.4153625,40.1912392 C59.6336794,40.9729223 59,42.4972117 59,43.6149041 L59,45.0057262 C59,52.7345502 52.7307252,59 45.0057262,59 L22.9942738,59 C15.2654498,59 9,52.7307252 9,45.0057262 L9,43.6149038 C9,42.4972118 9.6336794,40.9729223 10.4153625,40.1912392 L13.9856897,36.620912 C15.1560022,35.4505995 15.1570371,33.5504354 13.9856897,32.379088 L10.4153625,28.8087608 C9.63144105,28.0248393 9,26.4991741 9,25.3960927 L9,43.6149038 Z" id="Combined-Shape" fill="#9AF773"></path>
            <g id="Group" transform="translate(145.000000, 215.000000)">
                <g id="Combined-Shape-Copy">
                    <use fill="#37E999" xlink:href="#path-1"></use>
                    <use fill-opacity="0.15698596" fill="#000000" xlink:href="#path-1"></use>
                </g>
                <rect id="Combined-Shape" fill="#4DF6AA" x="0" y="0" width="50" height="50" rx="14"></rect>
                <path d="M15,23 C13.8681641,23.0151367 13.0803223,23.7810059 13.045166,25 C13.1540527,26.3129883 13.9697266,27.1452637 15,27 L29,27 L23,33 C22.2282715,33.7797852 21.982666,34.6472168 22.6103516,35.5698242 C23.8683,36.7777509 24.8303223,36.8837891 26,36 L37,25 L26,15 C24.9833984,14.0109863 23.8683,13.7920733 22.6103516,15 C22.244934,15.4554867 22.0085449,16.9084473 23,18 L29,23 L15,23 Z" id="Combined-Shape" fill="#FFFFFF" fill-rule="nonzero" transform="translate(25.022583, 25.378167) scale(-1, 1) translate(-25.022583, -25.378167) "></path>
            </g>
            <g id="Group" transform="translate(145.000000, 147.000000)">
                <g id="Combined-Shape-Copy">
                    <use fill="#99F673" xlink:href="#path-2"></use>
                    <use fill-opacity="0.15698596" fill="#000000" xlink:href="#path-2"></use>
                </g>
                <rect id="Combined-Shape" fill="#B1FF80" x="0" y="0" width="50" height="50" rx="14"></rect>
                <path d="M15,23 C13.8681641,23.0151367 13.0803223,23.7810059 13.045166,25 C13.1540527,26.3129883 13.9697266,27.1452637 15,27 L29,27 L23,33 C22.2282715,33.7797852 21.982666,34.6472168 22.6103516,35.5698242 C23.8683,36.7777509 24.8303223,36.8837891 26,36 L37,25 L26,15 C24.9833984,14.0109863 23.8683,13.7920733 22.6103516,15 C22.244934,15.4554867 22.0085449,16.9084473 23,18 L29,23 L15,23 Z" id="Combined-Shape" fill="#FFFFFF" fill-rule="nonzero"></path>
            </g>
            <g id="Group" transform="translate(213.000000, 147.000000)">
                <g id="Combined-Shape-Copy">
                    <use fill="#58AD78" xlink:href="#path-3"></use>
                    <use fill-opacity="0.15698596" fill="#000000" xlink:href="#path-3"></use>
                </g>
                <rect id="Combined-Shape" fill="#6EC28E" x="0" y="0" width="50" height="50" rx="14"></rect>
                <path d="M15,23 C13.8681641,23.0151367 13.0803223,23.7810059 13.045166,25 C13.1540527,26.3129883 13.9697266,27.1452637 15,27 L29,27 L23,33 C22.2282715,33.7797852 21.982666,34.6472168 22.6103516,35.5698242 C23.8683,36.7777509 24.8303223,36.8837891 26,36 L37,25 L26,15 C24.9833984,14.0109863 23.8683,13.7920733 22.6103516,15 C22.244934,15.4554867 22.0085449,16.9084473 23,18 L29,23 L15,23 Z" id="Combined-Shape" fill="#FFFFFF" fill-rule="nonzero" transform="translate(25.022583, 25.378167) rotate(-90.000000) translate(-25.022583, -25.378167) "></path>
            </g>
            <g id="Group" transform="translate(213.000000, 215.000000)">
                <g id="Combined-Shape-Copy">
                    <use fill="#B0C841" xlink:href="#path-4"></use>
                    <use fill-opacity="0.15698596" fill="#000000" xlink:href="#path-4"></use>
                </g>
                <rect id="Combined-Shape" fill="#C5DE51" x="0" y="0" width="50" height="50" rx="14"></rect>
                <path d="M15,23 C13.8681641,23.0151367 13.0803223,23.7810059 13.045166,25 C13.1540527,26.3129883 13.9697266,27.1452637 15,27 L29,27 L23,33 C22.2282715,33.7797852 21.982666,34.6472168 22.6103516,35.5698242 C23.8683,36.7777509 24.8303223,36.8837891 26,36 L37,25 L26,15 C24.9833984,14.0109863 23.8683,13.7920733 22.6103516,15 C22.244934,15.4554867 22.0085449,16.9084473 23,18 L29,23 L15,23 Z" id="Combined-Shape" fill="#FFFFFF" fill-rule="nonzero" transform="translate(25.022583, 25.378167) rotate(-270.000000) translate(-25.022583, -25.378167) "></path>
            </g>
            <g id="Group" transform="translate(145.000000, 77.000000)">
                <g id="Combined-Shape-Copy">
                    <use fill="#37E999" xlink:href="#path-5"></use>
                    <use fill-opacity="0.15698596" fill="#000000" xlink:href="#path-5"></use>
                </g>
                <rect id="Combined-Shape" fill="#37E999" x="0" y="0" width="50" height="50" rx="14"></rect>
                <path d="M15,23 C13.8681641,23.0151367 13.0803223,23.7810059 13.045166,25 C13.1540527,26.3129883 13.9697266,27.1452637 15,27 L29,27 L23,33 C22.2282715,33.7797852 21.982666,34.6472168 22.6103516,35.5698242 C23.8683,36.7777509 24.8303223,36.8837891 26,36 L37,25 L26,15 C24.9833984,14.0109863 23.8683,13.7920733 22.6103516,15 C22.244934,15.4554867 22.0085449,16.9084473 23,18 L29,23 L15,23 Z" id="Combined-Shape" fill="#FFFFFF" fill-rule="nonzero" transform="translate(25.022583, 25.378167) scale(-1, 1) translate(-25.022583, -25.378167) "></path>
            </g>
            <g id="Group" transform="translate(77.000000, 77.000000)">
                <path d="M0,15.1980463 L0,13.9942738 C0,6.26544981 6.26927476,0 13.9942738,0 L36.0057262,0 C43.7345502,0 50,6.26927476 50,13.9942738 L50,15.1980463 L50,16.396093 C50,17.4991741 50.6314411,19.0248393 51.4153625,19.8087608 L54.9856897,23.379088 C56.1570371,24.5504354 56.1560022,26.4505995 54.9856897,27.620912 L51.4153625,31.1912392 C50.6336794,31.9729223 50,33.4972117 50,34.6149041 L50,36.0057262 C50,43.7345502 43.7307252,50 36.0057262,50 L13.9942738,50 C6.26544981,50 0,43.7307252 0,36.0057262 L0,34.6149038 C7.31666473e-15,33.4972118 0.633679396,31.9729223 1.41536254,31.1912392 L4.98568975,27.620912 C6.1560022,26.4505995 6.15703708,24.5504354 4.98568975,23.379088 L1.41536254,19.8087608 C0.631441052,19.0248393 1.95197135e-15,17.4991741 4.52559129e-30,16.3960927 L0,34.6149038 Z" id="Combined-Shape" fill="#B0C841"></path>
                <path d="M15,23 C13.8681641,23.0151367 13.0803223,23.7810059 13.045166,25 C13.1540527,26.3129883 13.9697266,27.1452637 15,27 L29,27 L23,33 C22.2282715,33.7797852 21.982666,34.6472168 22.6103516,35.5698242 C23.8683,36.7777509 24.8303223,36.8837891 26,36 L37,25 L26,15 C24.9833984,14.0109863 23.8683,13.7920733 22.6103516,15 C22.244934,15.4554867 22.0085449,16.9084473 23,18 L29,23 L15,23 Z" id="Combined-Shape" fill="#FFFFFF" fill-rule="nonzero" transform="translate(25.022583, 25.378167) rotate(-270.000000) translate(-25.022583, -25.378167) "></path>
            </g>
            <g id="Group" transform="translate(77.000000, 9.000000)">
                <path d="M0,15.1980463 L0,13.9942738 C0,6.26544981 6.26927476,0 13.9942738,0 L36.0057262,0 C43.7345502,0 50,6.26927476 50,13.9942738 L50,15.1980463 L50,16.396093 C50,17.4991741 50.6314411,19.0248393 51.4153625,19.8087608 L54.9856897,23.379088 C56.1570371,24.5504354 56.1560022,26.4505995 54.9856897,27.620912 L51.4153625,31.1912392 C50.6336794,31.9729223 50,33.4972117 50,34.6149041 L50,36.0057262 C50,43.7345502 43.7307252,50 36.0057262,50 L13.9942738,50 C6.26544981,50 0,43.7307252 0,36.0057262 L0,34.6149038 C7.31666473e-15,33.4972118 0.633679396,31.9729223 1.41536254,31.1912392 L4.98568975,27.620912 C6.1560022,26.4505995 6.15703708,24.5504354 4.98568975,23.379088 L1.41536254,19.8087608 C0.631441052,19.0248393 1.95197135e-15,17.4991741 4.52559129e-30,16.3960927 L0,34.6149038 Z" id="Combined-Shape" fill="#58AD78"></path>
                <path d="M15,23 C13.8681641,23.0151367 13.0803223,23.7810059 13.045166,25 C13.1540527,26.3129883 13.9697266,27.1452637 15,27 L29,27 L23,33 C22.2282715,33.7797852 21.982666,34.6472168 22.6103516,35.5698242 C23.8683,36.7777509 24.8303223,36.8837891 26,36 L37,25 L26,15 C24.9833984,14.0109863 23.8683,13.7920733 22.6103516,15 C22.244934,15.4554867 22.0085449,16.9084473 23,18 L29,23 L15,23 Z" id="Combined-Shape" fill="#FFFFFF" fill-rule="nonzero" transform="translate(25.022583, 25.378167) rotate(-90.000000) translate(-25.022583, -25.378167) "></path>
            </g>
            <g id="Group" transform="translate(9.000000, 145.000000)">
                <rect id="Combined-Shape" fill="#99F673" x="0" y="0" width="50" height="50" rx="14"></rect>
                <path d="M15,23 C13.8681641,23.0151367 13.0803223,23.7810059 13.045166,25 C13.1540527,26.3129883 13.9697266,27.1452637 15,27 L29,27 L23,33 C22.2282715,33.7797852 21.982666,34.6472168 22.6103516,35.5698242 C23.8683,36.7777509 24.8303223,36.8837891 26,36 L37,25 L26,15 C24.9833984,14.0109863 23.8683,13.7920733 22.6103516,15 C22.244934,15.4554867 22.0085449,16.9084473 23,18 L29,23 L15,23 Z" id="Combined-Shape" fill="#FFFFFF" fill-rule="nonzero"></path>
            </g>
            <g id="Group" transform="translate(9.000000, 213.000000)">
                <rect id="Combined-Shape" fill="#37E999" x="0" y="0" width="50" height="50" rx="14"></rect>
                <path d="M15,23 C13.8681641,23.0151367 13.0803223,23.7810059 13.045166,25 C13.1540527,26.3129883 13.9697266,27.1452637 15,27 L29,27 L23,33 C22.2282715,33.7797852 21.982666,34.6472168 22.6103516,35.5698242 C23.8683,36.7777509 24.8303223,36.8837891 26,36 L37,25 L26,15 C24.9833984,14.0109863 23.8683,13.7920733 22.6103516,15 C22.244934,15.4554867 22.0085449,16.9084473 23,18 L29,23 L15,23 Z" id="Combined-Shape" fill="#FFFFFF" fill-rule="nonzero" transform="translate(25.022583, 25.378167) scale(-1, 1) translate(-25.022583, -25.378167) "></path>
            </g>
            <g id="Group" transform="translate(77.000000, 145.000000)">
                <rect id="Combined-Shape" fill="#58AD78" x="0" y="0" width="50" height="50" rx="14"></rect>
                <path d="M15,23 C13.8681641,23.0151367 13.0803223,23.7810059 13.045166,25 C13.1540527,26.3129883 13.9697266,27.1452637 15,27 L29,27 L23,33 C22.2282715,33.7797852 21.982666,34.6472168 22.6103516,35.5698242 C23.8683,36.7777509 24.8303223,36.8837891 26,36 L37,25 L26,15 C24.9833984,14.0109863 23.8683,13.7920733 22.6103516,15 C22.244934,15.4554867 22.0085449,16.9084473 23,18 L29,23 L15,23 Z" id="Combined-Shape" fill="#FFFFFF" fill-rule="nonzero" transform="translate(25.022583, 25.378167) rotate(-90.000000) translate(-25.022583, -25.378167) "></path>
            </g>
            <g id="Group" transform="translate(77.000000, 213.000000)">
                <rect id="Combined-Shape" fill="#B0C841" x="0" y="0" width="50" height="50" rx="14"></rect>
                <path d="M15,23 C13.8681641,23.0151367 13.0803223,23.7810059 13.045166,25 C13.1540527,26.3129883 13.9697266,27.1452637 15,27 L29,27 L23,33 C22.2282715,33.7797852 21.982666,34.6472168 22.6103516,35.5698242 C23.8683,36.7777509 24.8303223,36.8837891 26,36 L37,25 L26,15 C24.9833984,14.0109863 23.8683,13.7920733 22.6103516,15 C22.244934,15.4554867 22.0085449,16.9084473 23,18 L29,23 L15,23 Z" id="Combined-Shape" fill="#FFFFFF" fill-rule="nonzero" transform="translate(25.022583, 25.378167) rotate(-270.000000) translate(-25.022583, -25.378167) "></path>
            </g>
            <path d="M24,32 C22.8681641,32.0151367 22.0803223,32.7810059 22.045166,34 C22.1540527,35.3129883 22.9697266,36.1452637 24,36 L38,36 L32,42 C31.2282715,42.7797852 30.982666,43.6472168 31.6103516,44.5698242 C32.8683,45.7777509 33.8303223,45.8837891 35,45 L46,34 L35,24 C33.9833984,23.0109863 32.8683,22.7920733 31.6103516,24 C31.244934,24.4554867 31.0085449,25.9084473 32,27 L38,32 L24,32 Z" id="Combined-Shape" fill="#FFFFFF" fill-rule="nonzero"></path>
            <g id="Group" transform="translate(145.000000, 9.000000)">
                <g id="Combined-Shape-Copy">
                    <use fill="#99F673" xlink:href="#path-6"></use>
                    <use fill-opacity="0.15698596" fill="#000000" xlink:href="#path-6"></use>
                </g>
                <rect id="Combined-Shape" fill="#99F673" x="0" y="0" width="50" height="50" rx="14"></rect>
                <path d="M15,23 C13.8681641,23.0151367 13.0803223,23.7810059 13.045166,25 C13.1540527,26.3129883 13.9697266,27.1452637 15,27 L29,27 L23,33 C22.2282715,33.7797852 21.982666,34.6472168 22.6103516,35.5698242 C23.8683,36.7777509 24.8303223,36.8837891 26,36 L37,25 L26,15 C24.9833984,14.0109863 23.8683,13.7920733 22.6103516,15 C22.244934,15.4554867 22.0085449,16.9084473 23,18 L29,23 L15,23 Z" id="Combined-Shape" fill="#FFFFFF" fill-rule="nonzero"></path>
            </g>
            <g id="Group" transform="translate(213.000000, 77.000000)">
                <g id="Combined-Shape-Copy">
                    <use fill="#B0C841" xlink:href="#path-7"></use>
                    <use fill-opacity="0.15698596" fill="#000000" xlink:href="#path-7"></use>
                </g>
                <rect id="Combined-Shape" fill="#B0C841" x="0" y="0" width="50" height="50" rx="14"></rect>
                <path d="M15,23 C13.8681641,23.0151367 13.0803223,23.7810059 13.045166,25 C13.1540527,26.3129883 13.9697266,27.1452637 15,27 L29,27 L23,33 C22.2282715,33.7797852 21.982666,34.6472168 22.6103516,35.5698242 C23.8683,36.7777509 24.8303223,36.8837891 26,36 L37,25 L26,15 C24.9833984,14.0109863 23.8683,13.7920733 22.6103516,15 C22.244934,15.4554867 22.0085449,16.9084473 23,18 L29,23 L15,23 Z" id="Combined-Shape" fill="#FFFFFF" fill-rule="nonzero" transform="translate(25.022583, 25.378167) rotate(-270.000000) translate(-25.022583, -25.378167) "></path>
            </g>
            <g id="Group" transform="translate(213.000000, 9.000000)">
                <g id="Combined-Shape-Copy">
                    <use fill="#58AD78" xlink:href="#path-8"></use>
                    <use fill-opacity="0.15698596" fill="#000000" xlink:href="#path-8"></use>
                </g>
                <rect id="Combined-Shape" fill="#58AD78" x="0" y="0" width="50" height="50" rx="14"></rect>
                <path d="M15,23 C13.8681641,23.0151367 13.0803223,23.7810059 13.045166,25 C13.1540527,26.3129883 13.9697266,27.1452637 15,27 L29,27 L23,33 C22.2282715,33.7797852 21.982666,34.6472168 22.6103516,35.5698242 C23.8683,36.7777509 24.8303223,36.8837891 26,36 L37,25 L26,15 C24.9833984,14.0109863 23.8683,13.7920733 22.6103516,15 C22.244934,15.4554867 22.0085449,16.9084473 23,18 L29,23 L15,23 Z" id="Combined-Shape" fill="#FFFFFF" fill-rule="nonzero" transform="translate(25.022583, 25.378167) rotate(-90.000000) translate(-25.022583, -25.378167) "></path>
            </g>
            <g id="Combined-Shape-Copy">
                <use fill="#DFDFDF" xlink:href="#path-9"></use>
                <use fill-opacity="0.219599185" fill="#000000" xlink:href="#path-9"></use>
            </g>
            <rect id="Combined-Shape" fill="#F0F0F0" x="349" y="11" width="50" height="50" rx="14"></rect>
            <path d="M376.521676,36.203125 L378.803395,33.9451742 C379.195959,33.5566998 379.199274,32.9235435 378.810799,32.53098 C378.422325,32.1384164 377.789169,32.1351015 377.396605,32.5235758 L375.1,34.7962579 L372.803395,32.5235758 C372.410831,32.1351015 371.777675,32.1384164 371.389201,32.53098 C371.000726,32.9235435 371.004041,33.5566998 371.396605,33.9451742 L373.678324,36.203125 L371.36668,38.4906895 C370.974116,38.8791638 370.970801,39.5123201 371.359275,39.9048837 C371.74775,40.2974472 372.380906,40.3007622 372.77347,39.9122878 L375.1,37.6099921 L377.42653,39.9122878 C377.819094,40.3007622 378.45225,40.2974472 378.840725,39.9048837 C379.229199,39.5123201 379.225884,38.8791638 378.83332,38.4906895 L376.521676,36.203125 Z" id="Combined-Shape" fill="#5D5D5D" fill-rule="nonzero"></path>
            <path d="M383,43.849 L371.831,43.849 C371.025,43.849 370.155,43.406 369.713,42.968 L363.101,36.424 L369.712,29.881 C370.155,29.443 371.025,29 371.831,29 L383,29 L383,43.849 Z M383.132,27 L371.831,27 C370.482,27 369.12,27.654 368.306,28.46 L361.547,35.148 C361.206,35.486 361.024,35.921 361.002,36.363 L361,36.363 L361,36.425 L361,36.486 L361.002,36.486 C361.024,36.928 361.206,37.363 361.547,37.701 L368.306,44.389 C369.12,45.195 370.482,45.849 371.831,45.849 L383.132,45.849 C384.163,45.849 385,45.021 385,44 L385,28.849 C385,27.828 384.163,27 383.132,27 L383.132,27 Z" id="Fill-1-Copy" fill="#5D5D5D"></path>
            <g id="Combined-Shape-Copy">
                <use fill="#DFDFDF" xlink:href="#path-10"></use>
                <use fill-opacity="0.219599185" fill="#000000" xlink:href="#path-10"></use>
            </g>
            <rect id="Combined-Shape" fill="#DFDFDF" x="281" y="9" width="50" height="50" rx="14"></rect>
            <path d="M308.521676,34.203125 L310.803395,31.9451742 C311.195959,31.5566998 311.199274,30.9235435 310.810799,30.53098 C310.422325,30.1384164 309.789169,30.1351015 309.396605,30.5235758 L307.1,32.7962579 L304.803395,30.5235758 C304.410831,30.1351015 303.777675,30.1384164 303.389201,30.53098 C303.000726,30.9235435 303.004041,31.5566998 303.396605,31.9451742 L305.678324,34.203125 L303.36668,36.4906895 C302.974116,36.8791638 302.970801,37.5123201 303.359275,37.9048837 C303.74775,38.2974472 304.380906,38.3007622 304.77347,37.9122878 L307.1,35.6099921 L309.42653,37.9122878 C309.819094,38.3007622 310.45225,38.2974472 310.840725,37.9048837 C311.229199,37.5123201 311.225884,36.8791638 310.83332,36.4906895 L308.521676,34.203125 Z" id="Combined-Shape" fill="#5D5D5D" fill-rule="nonzero"></path>
            <path d="M315,41.849 L303.831,41.849 C303.025,41.849 302.155,41.406 301.713,40.968 L295.101,34.424 L301.712,27.881 C302.155,27.443 303.025,27 303.831,27 L315,27 L315,41.849 Z M315.132,25 L303.831,25 C302.482,25 301.12,25.654 300.306,26.46 L293.547,33.148 C293.206,33.486 293.024,33.921 293.002,34.363 L293,34.363 L293,34.425 L293,34.486 L293.002,34.486 C293.024,34.928 293.206,35.363 293.547,35.701 L300.306,42.389 C301.12,43.195 302.482,43.849 303.831,43.849 L315.132,43.849 C316.163,43.849 317,43.021 317,42 L317,26.849 C317,25.828 316.163,25 315.132,25 L315.132,25 Z" id="Fill-1" fill="#5D5D5D"></path>
        </g>
    </g>
</svg>