<?xml version="1.0" encoding="UTF-8"?>
<svg width="520px" height="272px" viewBox="0 0 520 272" version="1.1" xmlns="http://www.w3.org/2000/svg" xmlns:xlink="http://www.w3.org/1999/xlink">
    <!-- Generator: Sketch 43.2 (39069) - http://www.bohemiancoding.com/sketch -->
    <title>for</title>
    <desc>Created with Sketch.</desc>
    <defs></defs>
    <g id="Page-1" stroke="none" stroke-width="1" fill="none" fill-rule="evenodd">
        <g id="for">
            <g id="Group" transform="translate(9.000000, 9.000000)">
                <path d="M0,15.1980463 L0,13.9942738 C0,6.26544981 6.26927476,0 13.9942738,0 L36.0057262,0 C43.7345502,0 50,6.26927476 50,13.9942738 L50,15.1980463 L50,16.396093 C50,17.4991741 50.6314411,19.0248393 51.4153625,19.8087608 L54.9856897,23.379088 C56.1570371,24.5504354 56.1560022,26.4505995 54.9856897,27.620912 L51.4153625,31.1912392 C50.6336794,31.9729223 50,33.4972117 50,34.6149041 L50,36.0057262 C50,43.7345502 43.7307252,50 36.0057262,50 L13.9942738,50 C6.26544981,50 0,43.7307252 0,36.0057262 L0,34.6149038 C7.31666473e-15,33.4972118 0.633679396,31.9729223 1.41536254,31.1912392 L4.98568975,27.620912 C6.1560022,26.4505995 6.15703708,24.5504354 4.98568975,23.379088 L1.41536254,19.8087608 C0.631441052,19.0248393 1.95197135e-15,17.4991741 4.52559129e-30,16.3960927 L0,34.6149038 Z" id="Combined-Shape" fill="#4357BF"></path>
                <g id="Group-13-Copy-2" transform="translate(130.000000, 0.000000)">
                    <path d="M0,34.6149042 L0,13.9942738 C0,6.26544981 6.26927476,0 13.9942738,0 L56.0057262,0 C63.7345502,0 70,6.26927476 70,13.9942738 L70,16.3960927 C70,17.4991741 70.6314411,19.0248393 71.4153625,19.8087608 L74.9856897,23.379088 C76.1570371,24.5504354 76.1560022,26.4505995 74.9856897,27.620912 L71.4153625,31.1912392 C70.6336794,31.9729223 70,33.4972117 70,34.6149042 L70,36.0057262 C70,43.7345502 63.7307252,50 56.0057262,50 L13.9942738,50 C6.26544981,50 0,43.7307252 0,36.0057262 L0,34.6149042 C0,33.4972118 0.633679396,31.9729223 1.41536254,31.1912392 L4.98568975,27.620912 C6.1560022,26.4505995 6.15703708,24.5504354 4.98568975,23.379088 L1.41536254,19.8087608 C0.631441052,19.0248393 0,17.4991741 0,16.3960927 L0,34.6149042 Z" id="Mask" fill="#4357BF"></path>
                    <rect id="Rectangle-2" fill="#FFFFFF" x="42" y="16" width="17" height="17" rx="5"></rect>
                    <g id="Group-3-Copy" transform="translate(15.000000, 18.000000)" stroke="#FFFFFF" stroke-width="3" stroke-linecap="round">
                        <polyline id="Path-19-Copy-4" stroke-linejoin="round" transform="translate(3.345165, 2.547194) rotate(166.000000) translate(-3.345165, -2.547194) " points="0.650617793 0.803373443 2.68608477 4.29101382 6.03971137 2.19787418"></polyline>
                        <path d="M3.70185416,2.99599095 C3.06818084,4.16839348 2.86218328,5.43655818 2.84338632,5.63936912 C2.82252753,5.8644264 2.81186662,6.09241618 2.81186662,6.32287866 C2.81186662,10.389854 6.13185702,13.6867889 10.2272727,13.6867889 C14.3226884,13.6867889 17.6426788,10.389854 17.6426788,6.32287866 C17.6426788,4.99976294 17.2912888,3.75814881 16.6761266,2.68504564" id="Oval-5-Copy"></path>
                    </g>
                </g>
                <g id="Group-13-Copy-2" transform="translate(260.000000, 0.000000)">
                    <path d="M0,34.6149042 L0,13.9942738 C0,6.26544981 6.26927476,0 13.9942738,0 L75.0057262,0 C82.7345502,0 89,6.26927476 89,13.9942738 L89,16.3960927 C89,17.4991741 89.6314411,19.0248393 90.4153625,19.8087608 L93.9856897,23.379088 C95.1570371,24.5504354 95.1560022,26.4505995 93.9856897,27.620912 L90.4153625,31.1912392 C89.6336794,31.9729223 89,33.4972117 89,34.6149042 L89,36.0057262 C89,43.7345502 82.7307252,50 75.0057262,50 L13.9942738,50 C6.26544981,50 0,43.7307252 0,36.0057262 L0,34.6149042 C0,33.4972118 0.633679396,31.9729223 1.41536254,31.1912392 L4.98568975,27.620912 C6.1560022,26.4505995 6.15703708,24.5504354 4.98568975,23.379088 L1.41536254,19.8087608 C0.631441052,19.0248393 0,17.4991741 0,16.3960927 L0,34.6149042 Z" id="Mask" fill="#4357BF"></path>
                    <rect id="Rectangle-2" fill="#FFFFFF" x="42" y="16" width="17" height="17" rx="5"></rect>
                    <rect id="Rectangle-2-Copy" fill="#FFFFFF" x="62" y="16" width="17" height="17" rx="5"></rect>
                    <g id="Group-3-Copy" transform="translate(15.000000, 18.000000)" stroke="#FFFFFF" stroke-width="3" stroke-linecap="round">
                        <polyline id="Path-19-Copy-4" stroke-linejoin="round" transform="translate(3.345165, 2.547194) rotate(166.000000) translate(-3.345165, -2.547194) " points="0.650617793 0.803373443 2.68608477 4.29101382 6.03971137 2.19787418"></polyline>
                        <path d="M3.70185416,2.99599095 C3.06818084,4.16839348 2.86218328,5.43655818 2.84338632,5.63936912 C2.82252753,5.8644264 2.81186662,6.09241618 2.81186662,6.32287866 C2.81186662,10.389854 6.13185702,13.6867889 10.2272727,13.6867889 C14.3226884,13.6867889 17.6426788,10.389854 17.6426788,6.32287866 C17.6426788,4.99976294 17.2912888,3.75814881 16.6761266,2.68504564" id="Oval-5-Copy"></path>
                    </g>
                </g>
                <g id="Group-3-Copy" transform="translate(16.000000, 18.000000)" stroke="#FFFFFF" stroke-width="3" stroke-linecap="round">
                    <polyline id="Path-19-Copy-4" stroke-linejoin="round" transform="translate(3.345165, 2.547194) rotate(166.000000) translate(-3.345165, -2.547194) " points="0.650617793 0.803373443 2.68608477 4.29101382 6.03971137 2.19787418"></polyline>
                    <path d="M3.70185416,2.99599095 C3.06818084,4.16839348 2.86218328,5.43655818 2.84338632,5.63936912 C2.82252753,5.8644264 2.81186662,6.09241618 2.81186662,6.32287866 C2.81186662,10.389854 6.13185702,13.6867889 10.2272727,13.6867889 C14.3226884,13.6867889 17.6426788,10.389854 17.6426788,6.32287866 C17.6426788,4.99976294 17.2912888,3.75814881 16.6761266,2.68504564" id="Oval-5-Copy"></path>
                </g>
            </g>
            <g id="Group-2" transform="translate(9.000000, 77.000000)">
                <rect id="Combined-Shape" fill="#4357BF" x="0" y="0" width="50" height="50" rx="14"></rect>
                <path d="M130,13.9942738 C130,6.26544981 136.269275,0 143.994274,0 L186.005726,0 C193.73455,0 200,6.26927476 200,13.9942738 L200,36.0057262 C200,43.7345502 193.730725,50 186.005726,50 L143.994274,50 C136.26545,50 130,43.7307252 130,36.0057262 L130,13.9942738 Z" id="Mask" fill="#4357BF"></path>
                <rect id="Rectangle-2" fill="#FFFFFF" x="172" y="16" width="17" height="17" rx="5"></rect>
                <g id="Group-3-Copy" transform="translate(145.000000, 18.000000)" stroke="#FFFFFF" stroke-width="3" stroke-linecap="round">
                    <polyline id="Path-19-Copy-4" stroke-linejoin="round" transform="translate(3.345165, 2.547194) rotate(166.000000) translate(-3.345165, -2.547194) " points="0.650617793 0.803373443 2.68608477 4.29101382 6.03971137 2.19787418"></polyline>
                    <path d="M3.70185416,2.99599095 C3.06818084,4.16839348 2.86218328,5.43655818 2.84338632,5.63936912 C2.82252753,5.8644264 2.81186662,6.09241618 2.81186662,6.32287866 C2.81186662,10.389854 6.13185702,13.6867889 10.2272727,13.6867889 C14.3226884,13.6867889 17.6426788,10.389854 17.6426788,6.32287866 C17.6426788,4.99976294 17.2912888,3.75814881 16.6761266,2.68504564" id="Oval-5-Copy"></path>
                </g>
                <path d="M260,13.9942738 C260,6.26544981 266.269275,0 273.994274,0 L335.005726,0 C342.73455,0 349,6.26927476 349,13.9942738 L349,36.0057262 C349,43.7345502 342.730725,50 335.005726,50 L273.994274,50 C266.26545,50 260,43.7307252 260,36.0057262 L260,13.9942738 Z" id="Mask" fill="#4357BF"></path>
                <rect id="Rectangle-2" fill="#FFFFFF" x="302" y="16" width="17" height="17" rx="5"></rect>
                <rect id="Rectangle-2-Copy" fill="#FFFFFF" x="322" y="16" width="17" height="17" rx="5"></rect>
                <g id="Group-3-Copy" transform="translate(275.000000, 18.000000)" stroke="#FFFFFF" stroke-width="3" stroke-linecap="round">
                    <polyline id="Path-19-Copy-4" stroke-linejoin="round" transform="translate(3.345165, 2.547194) rotate(166.000000) translate(-3.345165, -2.547194) " points="0.650617793 0.803373443 2.68608477 4.29101382 6.03971137 2.19787418"></polyline>
                    <path d="M3.70185416,2.99599095 C3.06818084,4.16839348 2.86218328,5.43655818 2.84338632,5.63936912 C2.82252753,5.8644264 2.81186662,6.09241618 2.81186662,6.32287866 C2.81186662,10.389854 6.13185702,13.6867889 10.2272727,13.6867889 C14.3226884,13.6867889 17.6426788,10.389854 17.6426788,6.32287866 C17.6426788,4.99976294 17.2912888,3.75814881 16.6761266,2.68504564" id="Oval-5-Copy"></path>
                </g>
                <g id="Group-3-Copy" transform="translate(16.000000, 18.000000)" stroke="#FFFFFF" stroke-width="3" stroke-linecap="round">
                    <polyline id="Path-19-Copy-4" stroke-linejoin="round" transform="translate(3.345165, 2.547194) rotate(166.000000) translate(-3.345165, -2.547194) " points="0.650617793 0.803373443 2.68608477 4.29101382 6.03971137 2.19787418"></polyline>
                    <path d="M3.70185416,2.99599095 C3.06818084,4.16839348 2.86218328,5.43655818 2.84338632,5.63936912 C2.82252753,5.8644264 2.81186662,6.09241618 2.81186662,6.32287866 C2.81186662,10.389854 6.13185702,13.6867889 10.2272727,13.6867889 C14.3226884,13.6867889 17.6426788,10.389854 17.6426788,6.32287866 C17.6426788,4.99976294 17.2912888,3.75814881 16.6761266,2.68504564" id="Oval-5-Copy"></path>
                </g>
            </g>
            <g id="Group-3" transform="translate(9.000000, 145.000000)">
                <rect id="Combined-Shape-Copy-2" fill="#253483" x="0" y="5" width="50" height="50" rx="14"></rect>
                <path d="M130,18.9942738 C130,11.2654498 136.269275,5 143.994274,5 L186.005726,5 C193.73455,5 200,11.2692748 200,18.9942738 L200,41.0057262 C200,48.7345502 193.730725,55 186.005726,55 L143.994274,55 C136.26545,55 130,48.7307252 130,41.0057262 L130,18.9942738 Z" id="Mask-Copy-2" fill="#253483"></path>
                <path d="M260,18.9942738 C260,11.2654498 266.269275,5 273.994274,5 L335.005726,5 C342.73455,5 349,11.2692748 349,18.9942738 L349,41.0057262 C349,48.7345502 342.730725,55 335.005726,55 L273.994274,55 C266.26545,55 260,48.7307252 260,41.0057262 L260,18.9942738 Z" id="Mask-Copy" fill="#253483"></path>
                <rect id="Combined-Shape" fill="#4357BF" x="0" y="0" width="50" height="50" rx="14"></rect>
                <path d="M130,13.9942738 C130,6.26544981 136.269275,0 143.994274,0 L186.005726,0 C193.73455,0 200,6.26927476 200,13.9942738 L200,36.0057262 C200,43.7345502 193.730725,50 186.005726,50 L143.994274,50 C136.26545,50 130,43.7307252 130,36.0057262 L130,13.9942738 Z" id="Mask" fill="#4357BF"></path>
                <rect id="Rectangle-2" fill="#FFFFFF" x="172" y="16" width="17" height="17" rx="5"></rect>
                <g id="Group-3-Copy" transform="translate(145.000000, 18.000000)" stroke="#FFFFFF" stroke-width="3" stroke-linecap="round">
                    <polyline id="Path-19-Copy-4" stroke-linejoin="round" transform="translate(3.345165, 2.547194) rotate(166.000000) translate(-3.345165, -2.547194) " points="0.650617793 0.803373443 2.68608477 4.29101382 6.03971137 2.19787418"></polyline>
                    <path d="M3.70185416,2.99599095 C3.06818084,4.16839348 2.86218328,5.43655818 2.84338632,5.63936912 C2.82252753,5.8644264 2.81186662,6.09241618 2.81186662,6.32287866 C2.81186662,10.389854 6.13185702,13.6867889 10.2272727,13.6867889 C14.3226884,13.6867889 17.6426788,10.389854 17.6426788,6.32287866 C17.6426788,4.99976294 17.2912888,3.75814881 16.6761266,2.68504564" id="Oval-5-Copy"></path>
                </g>
                <path d="M260,13.9942738 C260,6.26544981 266.269275,0 273.994274,0 L335.005726,0 C342.73455,0 349,6.26927476 349,13.9942738 L349,36.0057262 C349,43.7345502 342.730725,50 335.005726,50 L273.994274,50 C266.26545,50 260,43.7307252 260,36.0057262 L260,13.9942738 Z" id="Mask" fill="#4357BF"></path>
                <rect id="Rectangle-2" fill="#FFFFFF" x="302" y="16" width="17" height="17" rx="5"></rect>
                <rect id="Rectangle-2-Copy" fill="#FFFFFF" x="322" y="16" width="17" height="17" rx="5"></rect>
                <g id="Group-3-Copy" transform="translate(275.000000, 18.000000)" stroke="#FFFFFF" stroke-width="3" stroke-linecap="round">
                    <polyline id="Path-19-Copy-4" stroke-linejoin="round" transform="translate(3.345165, 2.547194) rotate(166.000000) translate(-3.345165, -2.547194) " points="0.650617793 0.803373443 2.68608477 4.29101382 6.03971137 2.19787418"></polyline>
                    <path d="M3.70185416,2.99599095 C3.06818084,4.16839348 2.86218328,5.43655818 2.84338632,5.63936912 C2.82252753,5.8644264 2.81186662,6.09241618 2.81186662,6.32287866 C2.81186662,10.389854 6.13185702,13.6867889 10.2272727,13.6867889 C14.3226884,13.6867889 17.6426788,10.389854 17.6426788,6.32287866 C17.6426788,4.99976294 17.2912888,3.75814881 16.6761266,2.68504564" id="Oval-5-Copy"></path>
                </g>
                <g id="Group-3-Copy" transform="translate(16.000000, 18.000000)" stroke="#FFFFFF" stroke-width="3" stroke-linecap="round">
                    <polyline id="Path-19-Copy-4" stroke-linejoin="round" transform="translate(3.345165, 2.547194) rotate(166.000000) translate(-3.345165, -2.547194) " points="0.650617793 0.803373443 2.68608477 4.29101382 6.03971137 2.19787418"></polyline>
                    <path d="M3.70185416,2.99599095 C3.06818084,4.16839348 2.86218328,5.43655818 2.84338632,5.63936912 C2.82252753,5.8644264 2.81186662,6.09241618 2.81186662,6.32287866 C2.81186662,10.389854 6.13185702,13.6867889 10.2272727,13.6867889 C14.3226884,13.6867889 17.6426788,10.389854 17.6426788,6.32287866 C17.6426788,4.99976294 17.2912888,3.75814881 16.6761266,2.68504564" id="Oval-5-Copy"></path>
                </g>
            </g>
            <rect id="Combined-Shape-Copy-2" fill="#253483" x="9" y="218" width="50" height="50" rx="14"></rect>
            <path d="M139,231.994274 C139,224.26545 145.269275,218 152.994274,218 L195.005726,218 C202.73455,218 209,224.269275 209,231.994274 L209,254.005726 C209,261.73455 202.730725,268 195.005726,268 L152.994274,268 C145.26545,268 139,261.730725 139,254.005726 L139,231.994274 Z" id="Mask-Copy-2" fill="#253483"></path>
            <path d="M269,231.994274 C269,224.26545 275.269275,218 282.994274,218 L344.005726,218 C351.73455,218 358,224.269275 358,231.994274 L358,254.005726 C358,261.73455 351.730725,268 344.005726,268 L282.994274,268 C275.26545,268 269,261.730725 269,254.005726 L269,231.994274 Z" id="Mask-Copy" fill="#253483"></path>
            <rect id="Combined-Shape" fill="#556BDD" x="9" y="215" width="50" height="50" rx="14"></rect>
            <path d="M139,228.994274 C139,221.26545 145.269275,215 152.994274,215 L195.005726,215 C202.73455,215 209,221.269275 209,228.994274 L209,251.005726 C209,258.73455 202.730725,265 195.005726,265 L152.994274,265 C145.26545,265 139,258.730725 139,251.005726 L139,228.994274 Z" id="Mask" fill="#546BDE"></path>
            <rect id="Rectangle-2" fill="#FFFFFF" x="181" y="231" width="17" height="17" rx="5"></rect>
            <g id="Group-3-Copy" transform="translate(154.000000, 233.000000)" stroke="#FFFFFF" stroke-width="3" stroke-linecap="round">
                <polyline id="Path-19-Copy-4" stroke-linejoin="round" transform="translate(3.345165, 2.547194) rotate(166.000000) translate(-3.345165, -2.547194) " points="0.650617793 0.803373443 2.68608477 4.29101382 6.03971137 2.19787418"></polyline>
                <path d="M3.70185416,2.99599095 C3.06818084,4.16839348 2.86218328,5.43655818 2.84338632,5.63936912 C2.82252753,5.8644264 2.81186662,6.09241618 2.81186662,6.32287866 C2.81186662,10.389854 6.13185702,13.6867889 10.2272727,13.6867889 C14.3226884,13.6867889 17.6426788,10.389854 17.6426788,6.32287866 C17.6426788,4.99976294 17.2912888,3.75814881 16.6761266,2.68504564" id="Oval-5-Copy"></path>
            </g>
            <path d="M269,228.994274 C269,221.26545 275.269275,215 282.994274,215 L344.005726,215 C351.73455,215 358,221.269275 358,228.994274 L358,251.005726 C358,258.73455 351.730725,265 344.005726,265 L282.994274,265 C275.26545,265 269,258.730725 269,251.005726 L269,228.994274 Z" id="Mask" fill="#556BDD"></path>
            <rect id="Rectangle-2" fill="#FFFFFF" x="311" y="231" width="17" height="17" rx="5"></rect>
            <rect id="Rectangle-2-Copy" fill="#FFFFFF" x="331" y="231" width="17" height="17" rx="5"></rect>
            <g id="Group-3-Copy" transform="translate(284.000000, 233.000000)" stroke="#FFFFFF" stroke-width="3" stroke-linecap="round">
                <polyline id="Path-19-Copy-4" stroke-linejoin="round" transform="translate(3.345165, 2.547194) rotate(166.000000) translate(-3.345165, -2.547194) " points="0.650617793 0.803373443 2.68608477 4.29101382 6.03971137 2.19787418"></polyline>
                <path d="M3.70185416,2.99599095 C3.06818084,4.16839348 2.86218328,5.43655818 2.84338632,5.63936912 C2.82252753,5.8644264 2.81186662,6.09241618 2.81186662,6.32287866 C2.81186662,10.389854 6.13185702,13.6867889 10.2272727,13.6867889 C14.3226884,13.6867889 17.6426788,10.389854 17.6426788,6.32287866 C17.6426788,4.99976294 17.2912888,3.75814881 16.6761266,2.68504564" id="Oval-5-Copy"></path>
            </g>
            <g id="Group-3-Copy" transform="translate(25.000000, 233.000000)" stroke="#FFFFFF" stroke-width="3" stroke-linecap="round">
                <polyline id="Path-19-Copy-4" stroke-linejoin="round" transform="translate(3.345165, 2.547194) rotate(166.000000) translate(-3.345165, -2.547194) " points="0.650617793 0.803373443 2.68608477 4.29101382 6.03971137 2.19787418"></polyline>
                <path d="M3.70185416,2.99599095 C3.06818084,4.16839348 2.86218328,5.43655818 2.84338632,5.63936912 C2.82252753,5.8644264 2.81186662,6.09241618 2.81186662,6.32287866 C2.81186662,10.389854 6.13185702,13.6867889 10.2272727,13.6867889 C14.3226884,13.6867889 17.6426788,10.389854 17.6426788,6.32287866 C17.6426788,4.99976294 17.2912888,3.75814881 16.6761266,2.68504564" id="Oval-5-Copy"></path>
            </g>
        </g>
    </g>
</svg>