<?xml version="1.0" encoding="UTF-8"?>
<svg width="600px" height="810px" viewBox="0 0 600 810" version="1.1" xmlns="http://www.w3.org/2000/svg" xmlns:xlink="http://www.w3.org/1999/xlink">
    <!-- Generator: Sketch 43.2 (39069) - http://www.bohemiancoding.com/sketch -->
    <title>for_console</title>
    <desc>Created with Sketch.</desc>
    <defs></defs>
    <g id="Page-1" stroke="none" stroke-width="1" fill="none" fill-rule="evenodd">
        <g id="for_console">
            <path d="M138,245.99388 C138,253.729246 131.729197,260 124.003388,260 L22.9966122,260 C15.2664967,260 9,253.730369 9,245.99388 L9,234.614904 C9.00000001,233.497212 9.6336794,231.972922 10.4153625,231.191239 L13.9856897,227.620912 C15.1560022,226.4506 15.1570371,224.550435 13.9856897,223.379088 L10.4153625,219.808761 C9.63144105,219.024839 9,217.499174 9,216.396093 L9,203.00612 C9,195.270754 15.2708027,189 22.9966122,189 L124.003388,189 C131.733503,189 138,195.269631 138,203.00612 L138,216.396093 C138,217.499174 138.631441,219.024839 139.415363,219.808761 L142.98569,223.379088 C144.157037,224.550435 144.156002,226.4506 142.98569,227.620912 L139.415363,231.191239 C138.63368,231.972922 138,233.497211 138,234.614904 L138,245.99388 Z M75,213.994274 L75,216.396093 C75,217.499174 75.6314411,219.024839 76.4153625,219.808761 L79.9856897,223.379088 C81.1570371,224.550435 81.1560022,226.4506 79.9856897,227.620912 L76.4153625,231.191239 C75.6336794,231.972922 75,233.497212 75,234.614904 L75,236.005726 C75,243.730725 81.2654498,250 88.9942738,250 L111.005726,250 C118.730725,250 125,243.73455 125,236.005726 L125,234.614904 C125,233.497212 125.633679,231.972922 126.415363,231.191239 L129.98569,227.620912 C131.156002,226.4506 131.157037,224.550435 129.98569,223.379088 L126.415363,219.808761 C125.631441,219.024839 125,217.499174 125,216.396093 L125,213.994274 C125,206.269275 118.73455,200 111.005726,200 L88.9942738,200 C81.2692748,200 75,206.26545 75,213.994274 Z" id="Combined-Shape" fill="#4357BF"></path>
            <polyline id="Path-19-Copy-4" stroke="#DBDBDB" stroke-width="3" stroke-linecap="round" stroke-linejoin="round" transform="translate(30.071035, 220.133236) rotate(214.000000) translate(-30.071035, -220.133236) " points="26.1438786 217.591712 29.110462 222.67476 33.998192 219.624122"></polyline>
            <path d="M27.4512253,221.391654 C26.817552,222.564056 26.6115545,223.832221 26.5927575,224.035032 C26.5718987,224.260089 26.5612378,224.488079 26.5612378,224.718541 C26.5612378,228.785517 29.8812282,232.082452 33.9766439,232.082452" id="Oval-5-Copy" stroke="#DBDBDB" stroke-width="3" stroke-linecap="round" transform="translate(30.268941, 226.737053) rotate(27.000000) translate(-30.268941, -226.737053) "></path>
            <polyline id="Path-19-Copy-4" stroke="#DBDBDB" stroke-width="3" stroke-linecap="round" stroke-linejoin="round" transform="translate(64.430901, 231.679748) rotate(394.000000) translate(-64.430901, -231.679748) " points="60.5037438 229.138224 63.4703272 234.221272 68.3580572 231.170633"></polyline>
            <path d="M61.4152794,219.730532 C60.7816061,220.902935 60.5756085,222.1711 60.5568116,222.373911 C60.5359528,222.598968 60.5252919,222.826958 60.5252919,223.05742 C60.5252919,227.124395 63.8452823,230.42133 67.940698,230.42133" id="Oval-5-Copy" stroke="#DBDBDB" stroke-width="3" stroke-linecap="round" transform="translate(64.232995, 225.075931) rotate(207.000000) translate(-64.232995, -225.075931) "></path>
            <path d="M389,245.99388 C389,253.729246 382.729197,260 375.003388,260 L222.996612,260 C215.266497,260 209,253.730369 209,245.99388 L209,234.614904 C209,233.497212 209.633679,231.972922 210.415363,231.191239 L213.98569,227.620912 C215.156002,226.4506 215.157037,224.550435 213.98569,223.379088 L210.415363,219.808761 C209.631441,219.024839 209,217.499174 209,216.396093 L209,203.00612 C209,195.270754 215.270803,189 222.996612,189 L375.003388,189 C382.733503,189 389,195.269631 389,203.00612 L389,216.396093 C389,217.499174 389.631441,219.024839 390.415363,219.808761 L393.98569,223.379088 C395.157037,224.550435 395.156002,226.4506 393.98569,227.620912 L390.415363,231.191239 C389.63368,231.972922 389,233.497211 389,234.614904 L389,245.99388 Z M328,213.994274 L328,216.396093 C328,217.499174 328.631441,219.024839 329.415363,219.808761 L332.98569,223.379088 C334.157037,224.550435 334.156002,226.4506 332.98569,227.620912 L329.415363,231.191239 C328.633679,231.972922 328,233.497212 328,234.614904 L328,236.005726 C328,243.730725 334.26545,250 341.994274,250 L364.005726,250 C371.730725,250 378,243.73455 378,236.005726 L378,234.614904 C378,233.497212 378.633679,231.972922 379.415363,231.191239 L382.98569,227.620912 C384.156002,226.4506 384.157037,224.550435 382.98569,223.379088 L379.415363,219.808761 C378.631441,219.024839 378,217.499174 378,216.396093 L378,213.994274 C378,206.269275 371.73455,200 364.005726,200 L341.994274,200 C334.269275,200 328,206.26545 328,213.994274 Z M275,213.994274 L275,216.396093 C275,217.499174 275.631441,219.024839 276.415363,219.808761 L279.98569,223.379088 C281.157037,224.550435 281.156002,226.4506 279.98569,227.620912 L276.415363,231.191239 C275.633679,231.972922 275,233.497212 275,234.614904 L275,236.005726 C275,243.730725 281.26545,250 288.994274,250 L311.005726,250 C318.730725,250 325,243.73455 325,236.005726 L325,234.614904 C325,233.497212 325.633679,231.972922 326.415363,231.191239 L329.98569,227.620912 C331.156002,226.4506 331.157037,224.550435 329.98569,223.379088 L326.415363,219.808761 C325.631441,219.024839 325,217.499174 325,216.396093 L325,213.994274 C325,206.269275 318.73455,200 311.005726,200 L288.994274,200 C281.269275,200 275,206.26545 275,213.994274 Z" id="Combined-Shape" fill="#4357BF"></path>
            <polyline id="Path-19-Copy-4" stroke="#DBDBDB" stroke-width="3" stroke-linecap="round" stroke-linejoin="round" transform="translate(230.071035, 220.133236) rotate(214.000000) translate(-230.071035, -220.133236) " points="226.143879 217.591712 229.110462 222.67476 233.998192 219.624122"></polyline>
            <path d="M227.451225,221.391654 C226.817552,222.564056 226.611554,223.832221 226.592758,224.035032 C226.571899,224.260089 226.561238,224.488079 226.561238,224.718541 C226.561238,228.785517 229.881228,232.082452 233.976644,232.082452" id="Oval-5-Copy" stroke="#DBDBDB" stroke-width="3" stroke-linecap="round" transform="translate(230.268941, 226.737053) rotate(27.000000) translate(-230.268941, -226.737053) "></path>
            <polyline id="Path-19-Copy-4" stroke="#DBDBDB" stroke-width="3" stroke-linecap="round" stroke-linejoin="round" transform="translate(264.430901, 231.679748) rotate(394.000000) translate(-264.430901, -231.679748) " points="260.503744 229.138224 263.470327 234.221272 268.358057 231.170633"></polyline>
            <path d="M261.415279,219.730532 C260.781606,220.902935 260.575609,222.1711 260.556812,222.373911 C260.535953,222.598968 260.525292,222.826958 260.525292,223.05742 C260.525292,227.124395 263.845282,230.42133 267.940698,230.42133" id="Oval-5-Copy" stroke="#DBDBDB" stroke-width="3" stroke-linecap="round" transform="translate(264.232995, 225.075931) rotate(207.000000) translate(-264.232995, -225.075931) "></path>
            <path d="M140.863911,45.5000498 C140.864002,45.5000968 137.294042,41.9300812 137.294042,41.9300812 C135.948453,40.5844924 135,38.2961549 135,36.396093 L135,23.0061203 C135,16.9264542 130.076618,12 124.003388,12 L22.9966122,12 C16.9264833,12 12,16.9287825 12,23.0061203 L12,36.3960927 C12,36.7043781 12.315975,37.4667326 12.5366829,37.6874405 L16.1070101,41.2577677 C18.4497331,43.6004907 18.4490928,47.4001496 16.1070101,49.7422323 L12.5366829,53.3125595 C12.3155863,53.5336561 12,54.2957227 12,54.6149038 L12,65.9938797 C12,72.0735458 16.9233824,77 22.9966122,77 L124.003388,77 C130.073517,77 135,72.0712175 135,65.9938797 L135,54.6149031 C135,52.7045972 135.947604,50.4163567 137.294042,49.0699188 L140.863911,45.5000498 Z M138,65.9938797 C138,73.7292463 131.729197,80 124.003388,80 L22.9966122,80 C15.2664967,80 9,73.7303692 9,65.9938797 L9,54.6149038 C9.00000001,53.4972117 9.6336794,51.9729223 10.4153625,51.1912392 L13.9856897,47.620912 C15.1560022,46.4505995 15.1570371,44.5504354 13.9856897,43.379088 L10.4153625,39.8087608 C9.63144105,39.0248393 9,37.4991741 9,36.3960927 L9,23.0061203 C9,15.2707537 15.2708027,9 22.9966122,9 L124.003388,9 C131.733503,9 138,15.2696308 138,23.0061203 L138,36.396093 C138,37.4991745 138.631441,39.0248394 139.415363,39.8087608 L142.98569,43.379088 C144.157037,44.5504354 144.156002,46.4505995 142.98569,47.620912 L139.415363,51.1912392 C138.63368,51.9729222 138,53.4972113 138,54.6149036 L138,65.9938797 Z" id="Combined-Shape-Copy-5" fill="#DFDFDF" fill-rule="nonzero"></path>
            <path d="M391.863911,45.5000498 C391.864002,45.5000968 388.294042,41.9300812 388.294042,41.9300812 C386.948453,40.5844924 386,38.2961549 386,36.396093 L386,23.0061203 C386,16.9264542 381.076618,12 375.003388,12 L222.996612,12 C216.926483,12 212,16.9287825 212,23.0061203 L212,36.3960927 C212,36.7043781 212.315975,37.4667326 212.536683,37.6874405 L216.10701,41.2577677 C218.449733,43.6004907 218.449093,47.4001496 216.10701,49.7422323 L212.536683,53.3125595 C212.315586,53.5336561 212,54.2957227 212,54.6149038 L212,65.9938797 C212,72.0735458 216.923382,77 222.996612,77 L375.003388,77 C381.073517,77 386,72.0712175 386,65.9938797 L386,54.6149031 C386,52.7045972 386.947604,50.4163567 388.294042,49.0699188 L391.863911,45.5000498 Z M389,65.9938797 C389,73.7292463 382.729197,80 375.003388,80 L222.996612,80 C215.266497,80 209,73.7303692 209,65.9938797 L209,54.6149038 C209,53.4972117 209.633679,51.9729223 210.415363,51.1912392 L213.98569,47.620912 C215.156002,46.4505995 215.157037,44.5504354 213.98569,43.379088 L210.415363,39.8087608 C209.631441,39.0248393 209,37.4991741 209,36.3960927 L209,23.0061203 C209,15.2707537 215.270803,9 222.996612,9 L375.003388,9 C382.733503,9 389,15.2696308 389,23.0061203 L389,36.396093 C389,37.4991745 389.631441,39.0248394 390.415363,39.8087608 L393.98569,43.379088 C395.157037,44.5504354 395.156002,46.4505995 393.98569,47.620912 L390.415363,51.1912392 C389.63368,51.9729222 389,53.4972113 389,54.6149036 L389,65.9938797 Z" id="Combined-Shape-Copy-5" fill="#DFDFDF" fill-rule="nonzero"></path>
            <path d="M230.408773,44.33868 C230.354863,45.1653511 230.981309,45.8792034 231.80798,45.9331136 C232.634652,45.9870239 233.348504,45.3605774 233.402414,44.5339062 L233.785409,38.6609762 C233.840455,37.8168951 233.187066,37.0942673 232.341722,37.0643044 L226.583715,36.8602142 C225.755808,36.8308693 225.060868,37.4782321 225.031523,38.3061393 C225.002178,39.1340465 225.649541,39.8289866 226.477448,39.8583315 L230.691213,40.0076867 L230.408773,44.33868 Z" id="Path-19-Copy-4" fill="#DFDFDF" fill-rule="nonzero"></path>
            <path d="M229.333135,39.4604828 C228.299001,40.1741282 227.370549,41.1972246 226.952169,41.8591604 C226.806087,42.0902818 226.670304,42.3288226 226.545228,42.5742981 C224.321696,46.9382266 226.079683,52.28529 230.464782,54.5196097 C231.202916,54.8957077 232.10618,54.6022196 232.482278,53.8640856 C232.858376,53.1259517 232.564888,52.2226881 231.826754,51.8465901 C228.913769,50.3623501 227.749044,46.8197443 229.218248,43.9362696 C229.301344,43.7731843 229.391376,43.6150182 229.48809,43.4620037 C229.703311,43.1214938 230.362454,42.3951595 231.037061,41.9296194 C231.718895,41.4590932 231.890193,40.5249212 231.419667,39.843088 C230.94914,39.1612548 230.014968,38.9899566 229.333135,39.4604828 Z" id="Oval-5-Copy" fill="#DFDFDF" fill-rule="nonzero"></path>
            <path d="M264.093163,47.4743039 C264.147073,46.6476328 263.520626,45.9337805 262.693955,45.8798703 C261.867284,45.82596 261.153432,46.4524065 261.099522,47.2790776 L260.716526,53.1520077 C260.661481,53.9960888 261.31487,54.7187166 262.160213,54.7486795 L267.918221,54.9527697 C268.746128,54.9821145 269.441068,54.3347518 269.470413,53.5068446 C269.499758,52.6789373 268.852395,51.9839972 268.024488,51.9546524 L263.810723,51.8052972 L264.093163,47.4743039 Z" id="Path-19-Copy-4" fill="#DFDFDF" fill-rule="nonzero"></path>
            <path d="M265.168801,52.352501 C266.202934,51.6388557 267.131386,50.6157593 267.549767,49.9538234 C267.695848,49.7227021 267.831631,49.4841612 267.956707,49.2386857 C270.18024,44.8747573 268.422253,39.5276938 264.037153,37.2933742 C263.299019,36.9172762 262.395756,37.2107643 262.019658,37.9488982 C261.64356,38.6870322 261.937048,39.5902957 262.675182,39.9663938 C265.588167,41.4506338 266.752892,44.9932396 265.283688,47.8767142 C265.200592,48.0397995 265.11056,48.1979656 265.013846,48.3509801 C264.798625,48.69149 264.139482,49.4178244 263.464874,49.8833645 C262.783041,50.3538907 262.611743,51.2880626 263.082269,51.9698959 C263.552795,52.6517291 264.486967,52.8230273 265.168801,52.352501 Z" id="Oval-5-Copy" fill="#DFDFDF" fill-rule="nonzero"></path>
            <path d="M30.4087731,44.33868 C30.3548628,45.1653511 30.9813093,45.8792034 31.8079805,45.9331136 C32.6346516,45.9870239 33.3485039,45.3605774 33.4024141,44.5339062 L33.7854093,38.6609762 C33.8404549,37.8168951 33.1870655,37.0942673 32.3417223,37.0643044 L26.5837153,36.8602142 C25.755808,36.8308693 25.0608679,37.4782321 25.0315231,38.3061393 C25.0021782,39.1340465 25.649541,39.8289866 26.4774482,39.8583315 L30.6912129,40.0076867 L30.4087731,44.33868 Z" id="Path-19-Copy-4" fill="#DFDFDF" fill-rule="nonzero"></path>
            <path d="M29.3331352,39.4604828 C28.2990013,40.1741282 27.3705493,41.1972246 26.952169,41.8591604 C26.8060874,42.0902818 26.6703044,42.3288226 26.5452284,42.5742981 C24.3216958,46.9382266 26.0796832,52.28529 30.4647824,54.5196097 C31.2029163,54.8957077 32.1061799,54.6022196 32.4822779,53.8640856 C32.8583759,53.1259517 32.5648878,52.2226881 31.8267539,51.8465901 C28.9137689,50.3623501 27.7490443,46.8197443 29.218248,43.9362696 C29.3013441,43.7731843 29.3913759,43.6150182 29.4880896,43.4620037 C29.7033108,43.1214938 30.3624536,42.3951595 31.0370614,41.9296194 C31.7188947,41.4590932 31.8901928,40.5249212 31.4196666,39.843088 C30.9491403,39.1612548 30.0149684,38.9899566 29.3331352,39.4604828 Z" id="Oval-5-Copy" fill="#DFDFDF" fill-rule="nonzero"></path>
            <path d="M64.0931627,47.4743039 C64.147073,46.6476328 63.5206265,45.9337805 62.6939553,45.8798703 C61.8672842,45.82596 61.1534319,46.4524065 61.0995217,47.2790776 L60.7165265,53.1520077 C60.6614809,53.9960888 61.3148703,54.7187166 62.1602135,54.7486795 L67.9182205,54.9527697 C68.7461278,54.9821145 69.4410679,54.3347518 69.4704127,53.5068446 C69.4997575,52.6789373 68.8523948,51.9839972 68.0244876,51.9546524 L63.8107229,51.8052972 L64.0931627,47.4743039 Z" id="Path-19-Copy-4" fill="#DFDFDF" fill-rule="nonzero"></path>
            <path d="M65.1688006,52.352501 C66.2029345,51.6388557 67.1313865,50.6157593 67.5497668,49.9538234 C67.6958484,49.7227021 67.8316314,49.4841612 67.9567074,49.2386857 C70.18024,44.8747573 68.4222526,39.5276938 64.0371534,37.2933742 C63.2990194,36.9172762 62.3957559,37.2107643 62.0196579,37.9488982 C61.6435598,38.6870322 61.9370479,39.5902957 62.6751819,39.9663938 C65.5881669,41.4506338 66.7528915,44.9932396 65.2836878,47.8767142 C65.2005917,48.0397995 65.1105599,48.1979656 65.0138462,48.3509801 C64.798625,48.69149 64.1394822,49.4178244 63.4648744,49.8833645 C62.7830411,50.3538907 62.611743,51.2880626 63.0822692,51.9698959 C63.5527954,52.6517291 64.4869674,52.8230273 65.1688006,52.352501 Z" id="Oval-5-Copy" fill="#DFDFDF" fill-rule="nonzero"></path>
            <path d="M138,155.99388 C138,163.729246 131.729197,170 124.003388,170 L22.9966122,170 C15.2664967,170 9,163.730369 9,155.99388 L9,144.614904 C9.00000001,143.497212 9.6336794,141.972922 10.4153625,141.191239 L13.9856897,137.620912 C15.1560022,136.4506 15.1570371,134.550435 13.9856897,133.379088 L10.4153625,129.808761 C9.63144105,129.024839 9,127.499174 9,126.396093 L9,113.00612 C9,105.270754 15.2708027,99 22.9966122,99 L124.003388,99 C131.733503,99 138,105.269631 138,113.00612 L138,126.396093 C138,127.499174 138.631441,129.024839 139.415363,129.808761 L142.98569,133.379088 C144.157037,134.550435 144.156002,136.4506 142.98569,137.620912 L139.415363,141.191239 C138.63368,141.972922 138,143.497211 138,144.614904 L138,155.99388 Z M63.9613661,139.495301 L64.0931627,137.474304 C64.147073,136.647633 63.5206265,135.93378 62.6939553,135.87987 C61.8672842,135.82596 61.1534319,136.452406 61.0995217,137.279078 L60.7165265,143.152008 C60.6614809,143.996089 61.3148703,144.718717 62.1602135,144.748679 L67.9182205,144.95277 C68.7461278,144.982115 69.4410679,144.334752 69.4704127,143.506845 C69.4997575,142.678937 68.8523948,141.983997 68.0244876,141.954652 L65.7937212,141.875584 C66.5653986,141.230837 67.2179762,140.478762 67.5497668,139.953823 C67.6958484,139.722702 67.8316314,139.484161 67.9567074,139.238686 C70.18024,134.874757 68.4222526,129.527694 64.0371534,127.293374 C63.2990194,126.917276 62.3957559,127.210764 62.0196579,127.948898 C61.6435598,128.687032 61.9370479,129.590296 62.6751819,129.966394 C65.5881669,131.450634 66.7528915,134.99324 65.2836878,137.876714 C65.2005917,138.0398 65.1105599,138.197966 65.0138462,138.35098 C64.8524449,138.606339 64.4413828,139.078686 63.9613661,139.495301 Z M30.5405696,132.317683 L30.4087731,134.33868 C30.3548628,135.165351 30.9813093,135.879203 31.8079805,135.933114 C32.6346516,135.987024 33.3485039,135.360577 33.4024141,134.533906 L33.7854093,128.660976 C33.8404549,127.816895 33.1870655,127.094267 32.3417223,127.064304 L26.5837153,126.860214 C25.755808,126.830869 25.0608679,127.478232 25.0315231,128.306139 C25.0021782,129.134047 25.649541,129.828987 26.4774482,129.858331 L28.7082146,129.9374 C27.9365372,130.582147 27.2839596,131.334222 26.952169,131.85916 C26.8060874,132.090282 26.6703044,132.328823 26.5452284,132.574298 C24.3216958,136.938227 26.0796832,142.28529 30.4647824,144.51961 C31.2029163,144.895708 32.1061799,144.60222 32.4822779,143.864086 C32.8583759,143.125952 32.5648878,142.222688 31.8267539,141.84659 C28.9137689,140.36235 27.7490443,136.819744 29.218248,133.93627 C29.3013441,133.773184 29.3913759,133.615018 29.4880896,133.462004 C29.6494909,133.206644 30.0605529,132.734298 30.5405696,132.317683 L30.5405696,132.317683 Z" id="Combined-Shape" fill="#FFFFFF" fill-rule="nonzero"></path>
            <path d="M389,155.99388 C389,163.729246 382.729197,170 375.003388,170 L222.996612,170 C215.266497,170 209,163.730369 209,155.99388 L209,144.614904 C209,143.497212 209.633679,141.972922 210.415363,141.191239 L213.98569,137.620912 C215.156002,136.4506 215.157037,134.550435 213.98569,133.379088 L210.415363,129.808761 C209.631441,129.024839 209,127.499174 209,126.396093 L209,113.00612 C209,105.270754 215.270803,99 222.996612,99 L375.003388,99 C382.733503,99 389,105.269631 389,113.00612 L389,126.396093 C389,127.499174 389.631441,129.024839 390.415363,129.808761 L393.98569,133.379088 C395.157037,134.550435 395.156002,136.4506 393.98569,137.620912 L390.415363,141.191239 C389.63368,141.972922 389,143.497211 389,144.614904 L389,155.99388 Z M263.961366,139.495301 L264.093163,137.474304 C264.147073,136.647633 263.520626,135.93378 262.693955,135.87987 C261.867284,135.82596 261.153432,136.452406 261.099522,137.279078 L260.716526,143.152008 C260.661481,143.996089 261.31487,144.718717 262.160213,144.748679 L267.918221,144.95277 C268.746128,144.982115 269.441068,144.334752 269.470413,143.506845 C269.499758,142.678937 268.852395,141.983997 268.024488,141.954652 L265.793721,141.875584 C266.565399,141.230837 267.217976,140.478762 267.549767,139.953823 C267.695848,139.722702 267.831631,139.484161 267.956707,139.238686 C270.18024,134.874757 268.422253,129.527694 264.037153,127.293374 C263.299019,126.917276 262.395756,127.210764 262.019658,127.948898 C261.64356,128.687032 261.937048,129.590296 262.675182,129.966394 C265.588167,131.450634 266.752892,134.99324 265.283688,137.876714 C265.200592,138.0398 265.11056,138.197966 265.013846,138.35098 C264.852445,138.606339 264.441383,139.078686 263.961366,139.495301 Z M230.54057,132.317683 L230.408773,134.33868 C230.354863,135.165351 230.981309,135.879203 231.80798,135.933114 C232.634652,135.987024 233.348504,135.360577 233.402414,134.533906 L233.785409,128.660976 C233.840455,127.816895 233.187066,127.094267 232.341722,127.064304 L226.583715,126.860214 C225.755808,126.830869 225.060868,127.478232 225.031523,128.306139 C225.002178,129.134047 225.649541,129.828987 226.477448,129.858331 L228.708215,129.9374 C227.936537,130.582147 227.28396,131.334222 226.952169,131.85916 C226.806087,132.090282 226.670304,132.328823 226.545228,132.574298 C224.321696,136.938227 226.079683,142.28529 230.464782,144.51961 C231.202916,144.895708 232.10618,144.60222 232.482278,143.864086 C232.858376,143.125952 232.564888,142.222688 231.826754,141.84659 C228.913769,140.36235 227.749044,136.819744 229.218248,133.93627 C229.301344,133.773184 229.391376,133.615018 229.48809,133.462004 C229.649491,133.206644 230.060553,132.734298 230.54057,132.317683 Z" id="Combined-Shape" fill="#FFFFFF" fill-rule="nonzero"></path>
            <path d="M138,515.99388 C138,523.729246 131.729197,530 124.003388,530 L22.9966122,530 C15.2664967,530 9,523.730369 9,515.99388 L9,473.00612 C9,465.270754 15.2708027,459 22.9966122,459 L124.003388,459 C131.733503,459 138,465.269631 138,473.00612 L138,515.99388 Z M75,483.994274 L75,506.005726 C75,513.730725 81.2654498,520 88.9942738,520 L111.005726,520 C118.730725,520 125,513.73455 125,506.005726 L125,483.994274 C125,476.269275 118.73455,470 111.005726,470 L88.9942738,470 C81.2692748,470 75,476.26545 75,483.994274 Z" id="Combined-Shape" fill="#4357BF"></path>
            <polyline id="Path-19-Copy-4" stroke="#DBDBDB" stroke-width="3" stroke-linecap="round" stroke-linejoin="round" transform="translate(30.071035, 490.133236) rotate(214.000000) translate(-30.071035, -490.133236) " points="26.1438786 487.591712 29.110462 492.67476 33.998192 489.624122"></polyline>
            <path d="M27.4512253,491.391654 C26.817552,492.564056 26.6115545,493.832221 26.5927575,494.035032 C26.5718987,494.260089 26.5612378,494.488079 26.5612378,494.718541 C26.5612378,498.785517 29.8812282,502.082452 33.9766439,502.082452" id="Oval-5-Copy" stroke="#DBDBDB" stroke-width="3" stroke-linecap="round" transform="translate(30.268941, 496.737053) rotate(27.000000) translate(-30.268941, -496.737053) "></path>
            <polyline id="Path-19-Copy-4" stroke="#DBDBDB" stroke-width="3" stroke-linecap="round" stroke-linejoin="round" transform="translate(64.430901, 501.679748) rotate(394.000000) translate(-64.430901, -501.679748) " points="60.5037438 499.138224 63.4703272 504.221272 68.3580572 501.170633"></polyline>
            <path d="M61.4152794,489.730532 C60.7816061,490.902935 60.5756085,492.1711 60.5568116,492.373911 C60.5359528,492.598968 60.5252919,492.826958 60.5252919,493.05742 C60.5252919,497.124395 63.8452823,500.42133 67.940698,500.42133" id="Oval-5-Copy" stroke="#DBDBDB" stroke-width="3" stroke-linecap="round" transform="translate(64.232995, 495.075931) rotate(207.000000) translate(-64.232995, -495.075931) "></path>
            <path d="M389,515.99388 C389,523.729246 382.729197,530 375.003388,530 L222.996612,530 C215.266497,530 209,523.730369 209,515.99388 L209,473.00612 C209,465.270754 215.270803,459 222.996612,459 L375.003388,459 C382.733503,459 389,465.269631 389,473.00612 L389,515.99388 Z M275,483.994274 L275,506.005726 C275,513.730725 281.26545,520 288.994274,520 L311.005726,520 C318.730725,520 325,513.73455 325,506.005726 L325,483.994274 C325,476.269275 318.73455,470 311.005726,470 L288.994274,470 C281.269275,470 275,476.26545 275,483.994274 Z M328,483.994274 L328,506.005726 C328,513.730725 334.26545,520 341.994274,520 L364.005726,520 C371.730725,520 378,513.73455 378,506.005726 L378,483.994274 C378,476.269275 371.73455,470 364.005726,470 L341.994274,470 C334.269275,470 328,476.26545 328,483.994274 Z" id="Combined-Shape" fill="#4357BF"></path>
            <polyline id="Path-19-Copy-4" stroke="#DBDBDB" stroke-width="3" stroke-linecap="round" stroke-linejoin="round" transform="translate(230.071035, 490.133236) rotate(214.000000) translate(-230.071035, -490.133236) " points="226.143879 487.591712 229.110462 492.67476 233.998192 489.624122"></polyline>
            <path d="M227.451225,491.391654 C226.817552,492.564056 226.611554,493.832221 226.592758,494.035032 C226.571899,494.260089 226.561238,494.488079 226.561238,494.718541 C226.561238,498.785517 229.881228,502.082452 233.976644,502.082452" id="Oval-5-Copy" stroke="#DBDBDB" stroke-width="3" stroke-linecap="round" transform="translate(230.268941, 496.737053) rotate(27.000000) translate(-230.268941, -496.737053) "></path>
            <polyline id="Path-19-Copy-4" stroke="#DBDBDB" stroke-width="3" stroke-linecap="round" stroke-linejoin="round" transform="translate(264.430901, 501.679748) rotate(394.000000) translate(-264.430901, -501.679748) " points="260.503744 499.138224 263.470327 504.221272 268.358057 501.170633"></polyline>
            <path d="M261.415279,489.730532 C260.781606,490.902935 260.575609,492.1711 260.556812,492.373911 C260.535953,492.598968 260.525292,492.826958 260.525292,493.05742 C260.525292,497.124395 263.845282,500.42133 267.940698,500.42133" id="Oval-5-Copy" stroke="#DBDBDB" stroke-width="3" stroke-linecap="round" transform="translate(264.232995, 495.075931) rotate(207.000000) translate(-264.232995, -495.075931) "></path>
            <path d="M135,293.00612 C135,286.926454 130.076618,282 124.003388,282 L22.9966122,282 C16.9264833,282 12,286.928783 12,293.00612 L12,335.99388 C12,342.073546 16.9233824,347 22.9966122,347 L124.003388,347 C130.073517,347 135,342.071217 135,335.99388 L135,293.00612 Z M138,335.99388 C138,343.729246 131.729197,350 124.003388,350 L22.9966122,350 C15.2664967,350 9,343.730369 9,335.99388 L9,293.00612 C9,285.270754 15.2708027,279 22.9966122,279 L124.003388,279 C131.733503,279 138,285.269631 138,293.00612 L138,335.99388 Z" id="Combined-Shape-Copy-5" fill="#DFDFDF" fill-rule="nonzero"></path>
            <path d="M135,563.00612 C135,556.926454 130.076618,552 124.003388,552 L22.9966122,552 C16.9264833,552 12,556.928783 12,563.00612 L12,605.99388 C12,612.073546 16.9233824,617 22.9966122,617 L124.003388,617 C130.073517,617 135,612.071217 135,605.99388 L135,563.00612 Z M138,605.99388 C138,613.729246 131.729197,620 124.003388,620 L22.9966122,620 C15.2664967,620 9,613.730369 9,605.99388 L9,563.00612 C9,555.270754 15.2708027,549 22.9966122,549 L124.003388,549 C131.733503,549 138,555.269631 138,563.00612 L138,605.99388 Z" id="Combined-Shape-Copy-6" fill="#FE4EA3" fill-rule="nonzero"></path>
            <path d="M386,293.00612 C386,286.926454 381.076618,282 375.003388,282 L222.996612,282 C216.926483,282 212,286.928783 212,293.00612 L212,335.99388 C212,342.073546 216.923382,347 222.996612,347 L375.003388,347 C381.073517,347 386,342.071217 386,335.99388 L386,293.00612 Z M389,335.99388 C389,343.729246 382.729197,350 375.003388,350 L222.996612,350 C215.266497,350 209,343.730369 209,335.99388 L209,293.00612 C209,285.270754 215.270803,279 222.996612,279 L375.003388,279 C382.733503,279 389,285.269631 389,293.00612 L389,335.99388 Z" id="Combined-Shape-Copy-5" fill="#DFDFDF" fill-rule="nonzero"></path>
            <path d="M386,563.00612 C386,556.926454 381.076618,552 375.003388,552 L222.996612,552 C216.926483,552 212,556.928783 212,563.00612 L212,605.99388 C212,612.073546 216.923382,617 222.996612,617 L375.003388,617 C381.073517,617 386,612.071217 386,605.99388 L386,563.00612 Z M389,605.99388 C389,613.729246 382.729197,620 375.003388,620 L222.996612,620 C215.266497,620 209,613.730369 209,605.99388 L209,563.00612 C209,555.270754 215.270803,549 222.996612,549 L375.003388,549 C382.733503,549 389,555.269631 389,563.00612 L389,605.99388 Z" id="Combined-Shape-Copy-7" fill="#FE4EA3" fill-rule="nonzero"></path>
            <path d="M230.408773,314.33868 C230.354863,315.165351 230.981309,315.879203 231.80798,315.933114 C232.634652,315.987024 233.348504,315.360577 233.402414,314.533906 L233.785409,308.660976 C233.840455,307.816895 233.187066,307.094267 232.341722,307.064304 L226.583715,306.860214 C225.755808,306.830869 225.060868,307.478232 225.031523,308.306139 C225.002178,309.134047 225.649541,309.828987 226.477448,309.858331 L230.691213,310.007687 L230.408773,314.33868 Z" id="Path-19-Copy-4" fill="#DFDFDF" fill-rule="nonzero"></path>
            <path d="M229.333135,309.460483 C228.299001,310.174128 227.370549,311.197225 226.952169,311.85916 C226.806087,312.090282 226.670304,312.328823 226.545228,312.574298 C224.321696,316.938227 226.079683,322.28529 230.464782,324.51961 C231.202916,324.895708 232.10618,324.60222 232.482278,323.864086 C232.858376,323.125952 232.564888,322.222688 231.826754,321.84659 C228.913769,320.36235 227.749044,316.819744 229.218248,313.93627 C229.301344,313.773184 229.391376,313.615018 229.48809,313.462004 C229.703311,313.121494 230.362454,312.395159 231.037061,311.929619 C231.718895,311.459093 231.890193,310.524921 231.419667,309.843088 C230.94914,309.161255 230.014968,308.989957 229.333135,309.460483 Z" id="Oval-5-Copy" fill="#DFDFDF" fill-rule="nonzero"></path>
            <path d="M264.093163,317.474304 C264.147073,316.647633 263.520626,315.93378 262.693955,315.87987 C261.867284,315.82596 261.153432,316.452406 261.099522,317.279078 L260.716526,323.152008 C260.661481,323.996089 261.31487,324.718717 262.160213,324.748679 L267.918221,324.95277 C268.746128,324.982115 269.441068,324.334752 269.470413,323.506845 C269.499758,322.678937 268.852395,321.983997 268.024488,321.954652 L263.810723,321.805297 L264.093163,317.474304 Z" id="Path-19-Copy-4" fill="#DFDFDF" fill-rule="nonzero"></path>
            <path d="M265.168801,322.352501 C266.202934,321.638856 267.131386,320.615759 267.549767,319.953823 C267.695848,319.722702 267.831631,319.484161 267.956707,319.238686 C270.18024,314.874757 268.422253,309.527694 264.037153,307.293374 C263.299019,306.917276 262.395756,307.210764 262.019658,307.948898 C261.64356,308.687032 261.937048,309.590296 262.675182,309.966394 C265.588167,311.450634 266.752892,314.99324 265.283688,317.876714 C265.200592,318.0398 265.11056,318.197966 265.013846,318.35098 C264.798625,318.69149 264.139482,319.417824 263.464874,319.883364 C262.783041,320.353891 262.611743,321.288063 263.082269,321.969896 C263.552795,322.651729 264.486967,322.823027 265.168801,322.352501 Z" id="Oval-5-Copy" fill="#DFDFDF" fill-rule="nonzero"></path>
            <path d="M30.4087731,314.33868 C30.3548628,315.165351 30.9813093,315.879203 31.8079805,315.933114 C32.6346516,315.987024 33.3485039,315.360577 33.4024141,314.533906 L33.7854093,308.660976 C33.8404549,307.816895 33.1870655,307.094267 32.3417223,307.064304 L26.5837153,306.860214 C25.755808,306.830869 25.0608679,307.478232 25.0315231,308.306139 C25.0021782,309.134047 25.649541,309.828987 26.4774482,309.858331 L30.6912129,310.007687 L30.4087731,314.33868 Z" id="Path-19-Copy-4" fill="#DFDFDF" fill-rule="nonzero"></path>
            <path d="M29.3331352,309.460483 C28.2990013,310.174128 27.3705493,311.197225 26.952169,311.85916 C26.8060874,312.090282 26.6703044,312.328823 26.5452284,312.574298 C24.3216958,316.938227 26.0796832,322.28529 30.4647824,324.51961 C31.2029163,324.895708 32.1061799,324.60222 32.4822779,323.864086 C32.8583759,323.125952 32.5648878,322.222688 31.8267539,321.84659 C28.9137689,320.36235 27.7490443,316.819744 29.218248,313.93627 C29.3013441,313.773184 29.3913759,313.615018 29.4880896,313.462004 C29.7033108,313.121494 30.3624536,312.395159 31.0370614,311.929619 C31.7188947,311.459093 31.8901928,310.524921 31.4196666,309.843088 C30.9491403,309.161255 30.0149684,308.989957 29.3331352,309.460483 Z" id="Oval-5-Copy" fill="#DFDFDF" fill-rule="nonzero"></path>
            <path d="M64.0931627,317.474304 C64.147073,316.647633 63.5206265,315.93378 62.6939553,315.87987 C61.8672842,315.82596 61.1534319,316.452406 61.0995217,317.279078 L60.7165265,323.152008 C60.6614809,323.996089 61.3148703,324.718717 62.1602135,324.748679 L67.9182205,324.95277 C68.7461278,324.982115 69.4410679,324.334752 69.4704127,323.506845 C69.4997575,322.678937 68.8523948,321.983997 68.0244876,321.954652 L63.8107229,321.805297 L64.0931627,317.474304 Z" id="Path-19-Copy-4" fill="#DFDFDF" fill-rule="nonzero"></path>
            <path d="M65.1688006,322.352501 C66.2029345,321.638856 67.1313865,320.615759 67.5497668,319.953823 C67.6958484,319.722702 67.8316314,319.484161 67.9567074,319.238686 C70.18024,314.874757 68.4222526,309.527694 64.0371534,307.293374 C63.2990194,306.917276 62.3957559,307.210764 62.0196579,307.948898 C61.6435598,308.687032 61.9370479,309.590296 62.6751819,309.966394 C65.5881669,311.450634 66.7528915,314.99324 65.2836878,317.876714 C65.2005917,318.0398 65.1105599,318.197966 65.0138462,318.35098 C64.798625,318.69149 64.1394822,319.417824 63.4648744,319.883364 C62.7830411,320.353891 62.611743,321.288063 63.0822692,321.969896 C63.5527954,322.651729 64.4869674,322.823027 65.1688006,322.352501 Z" id="Oval-5-Copy" fill="#DFDFDF" fill-rule="nonzero"></path>
            <path d="M138,425.99388 C138,433.729246 131.729197,440 124.003388,440 L22.9966122,440 C15.2664967,440 9,433.730369 9,425.99388 L9,383.00612 C9,375.270754 15.2708027,369 22.9966122,369 L124.003388,369 C131.733503,369 138,375.269631 138,383.00612 L138,425.99388 Z M63.9613661,409.495301 L64.0931627,407.474304 C64.147073,406.647633 63.5206265,405.93378 62.6939553,405.87987 C61.8672842,405.82596 61.1534319,406.452406 61.0995217,407.279078 L60.7165265,413.152008 C60.6614809,413.996089 61.3148703,414.718717 62.1602135,414.748679 L67.9182205,414.95277 C68.7461278,414.982115 69.4410679,414.334752 69.4704127,413.506845 C69.4997575,412.678937 68.8523948,411.983997 68.0244876,411.954652 L65.7937212,411.875584 C66.5653986,411.230837 67.2179762,410.478762 67.5497668,409.953823 C67.6958484,409.722702 67.8316314,409.484161 67.9567074,409.238686 C70.18024,404.874757 68.4222526,399.527694 64.0371534,397.293374 C63.2990194,396.917276 62.3957559,397.210764 62.0196579,397.948898 C61.6435598,398.687032 61.9370479,399.590296 62.6751819,399.966394 C65.5881669,401.450634 66.7528915,404.99324 65.2836878,407.876714 C65.2005917,408.0398 65.1105599,408.197966 65.0138462,408.35098 C64.8524449,408.606339 64.4413828,409.078686 63.9613661,409.495301 Z M30.4087731,404.33868 C30.3548628,405.165351 30.9813093,405.879203 31.8079805,405.933114 C32.6346516,405.987024 33.3485039,405.360577 33.4024141,404.533906 L33.7854093,398.660976 C33.8404549,397.816895 33.1870655,397.094267 32.3417223,397.064304 L26.5837153,396.860214 C25.755808,396.830869 25.0608679,397.478232 25.0315231,398.306139 C25.0021782,399.134047 25.649541,399.828987 26.4774482,399.858331 L28.7082146,399.9374 C27.9365372,400.582147 27.2839596,401.334222 26.952169,401.85916 C26.8060874,402.090282 26.6703044,402.328823 26.5452284,402.574298 C24.3216958,406.938227 26.0796832,412.28529 30.4647824,414.51961 C31.2029163,414.895708 32.1061799,414.60222 32.4822779,413.864086 C32.8583759,413.125952 32.5648878,412.222688 31.8267539,411.84659 C28.9137689,410.36235 27.7490443,406.819744 29.218248,403.93627 C29.3013441,403.773184 29.3913759,403.615018 29.4880896,403.462004 C29.6494909,403.206644 30.0605529,402.734298 30.5405696,402.317683 L30.4087731,404.33868 Z" id="Combined-Shape" fill="#FFFFFF" fill-rule="nonzero"></path>
            <path d="M389,425.99388 C389,433.729246 382.729197,440 375.003388,440 L222.996612,440 C215.266497,440 209,433.730369 209,425.99388 L209,383.00612 C209,375.270754 215.270803,369 222.996612,369 L375.003388,369 C382.733503,369 389,375.269631 389,383.00612 L389,425.99388 Z M263.961366,409.495301 L264.093163,407.474304 C264.147073,406.647633 263.520626,405.93378 262.693955,405.87987 C261.867284,405.82596 261.153432,406.452406 261.099522,407.279078 L260.716526,413.152008 C260.661481,413.996089 261.31487,414.718717 262.160213,414.748679 L267.918221,414.95277 C268.746128,414.982115 269.441068,414.334752 269.470413,413.506845 C269.499758,412.678937 268.852395,411.983997 268.024488,411.954652 L265.793721,411.875584 C266.565399,411.230837 267.217976,410.478762 267.549767,409.953823 C267.695848,409.722702 267.831631,409.484161 267.956707,409.238686 C270.18024,404.874757 268.422253,399.527694 264.037153,397.293374 C263.299019,396.917276 262.395756,397.210764 262.019658,397.948898 C261.64356,398.687032 261.937048,399.590296 262.675182,399.966394 C265.588167,401.450634 266.752892,404.99324 265.283688,407.876714 C265.200592,408.0398 265.11056,408.197966 265.013846,408.35098 C264.852445,408.606339 264.441383,409.078686 263.961366,409.495301 Z M230.54057,402.317683 L230.408773,404.33868 C230.354863,405.165351 230.981309,405.879203 231.80798,405.933114 C232.634652,405.987024 233.348504,405.360577 233.402414,404.533906 L233.785409,398.660976 C233.840455,397.816895 233.187066,397.094267 232.341722,397.064304 L226.583715,396.860214 C225.755808,396.830869 225.060868,397.478232 225.031523,398.306139 C225.002178,399.134047 225.649541,399.828987 226.477448,399.858331 L228.708215,399.9374 C227.936537,400.582147 227.28396,401.334222 226.952169,401.85916 C226.806087,402.090282 226.670304,402.328823 226.545228,402.574298 C224.321696,406.938227 226.079683,412.28529 230.464782,414.51961 C231.202916,414.895708 232.10618,414.60222 232.482278,413.864086 C232.858376,413.125952 232.564888,412.222688 231.826754,411.84659 C228.913769,410.36235 227.749044,406.819744 229.218248,403.93627 C229.301344,403.773184 229.391376,403.615018 229.48809,403.462004 C229.649491,403.206644 230.060553,402.734298 230.54057,402.317683 Z" id="Combined-Shape" fill="#FFFFFF" fill-rule="nonzero"></path>
        </g>
    </g>
</svg>