<?xml version="1.0" encoding="UTF-8"?>
<svg width="300px" height="30px" viewBox="0 0 300 30" version="1.1" xmlns="http://www.w3.org/2000/svg" xmlns:xlink="http://www.w3.org/1999/xlink">
    <!-- Generator: Sketch 43.2 (39069) - http://www.bohemiancoding.com/sketch -->
    <title>numbers</title>
    <desc>Created with Sketch.</desc>
    <defs></defs>
    <g id="Page-1" stroke="none" stroke-width="1" fill="none" fill-rule="evenodd">
        <g id="numbers" fill="#FFFFFF">
            <path d="M14.418,2.928 C19.688,2.928 22.374,7.586 22.374,15.1 C22.374,22.682 19.756,27.272 14.486,27.272 C9.182,27.272 6.428,22.614 6.428,15.1 C6.428,7.586 9.114,2.928 14.418,2.928 Z M14.486,23.634 C17.172,23.634 18.226,21.084 18.226,15.1 C18.226,9.15 17.138,6.6 14.418,6.6 C11.732,6.6 10.61,9.286 10.61,15.1 C10.61,20.778 11.902,23.634 14.486,23.634 Z" id="0"></path>
            <path d="M141.286,21.492 C142.374,21.492 143.258,20.608 143.258,19.52 C143.258,18.466 142.374,17.582 141.286,17.582 L140.198,17.582 L140.198,13.672 C140.198,12.584 139.314,11.7 138.26,11.7 C137.172,11.7 136.288,12.584 136.288,13.672 L136.288,17.582 L130.508,17.582 L137.58,5.784 C137.75,5.478 137.852,5.138 137.852,4.764 C137.852,4.05 137.546,3.506 136.9,3.064 C136.526,2.894 136.186,2.792 135.88,2.792 C135.166,2.792 134.588,3.098 134.214,3.744 L125.884,17.82 C125.408,18.67 125.17,19.282 125.17,19.69 C125.17,20.778 126.02,21.492 127.142,21.492 L136.288,21.492 L136.288,25.3 C136.288,26.388 137.172,27.272 138.26,27.272 C139.314,27.272 140.198,26.388 140.198,25.3 L140.198,21.492 L141.286,21.492 Z" id="4-copy-6"></path>
            <path d="M73.052,23.362 C73.086,23.328 73.222,23.226 73.392,23.056 C79.07,18.024 81.926,13.4 81.926,9.15 C81.926,7.45 81.348,5.988 80.158,4.764 C78.968,3.54 77.336,2.928 75.194,2.928 C72.236,2.928 70.06,4.118 68.666,6.464 C68.462,6.838 68.36,7.178 68.36,7.552 C68.36,8.232 68.666,8.742 69.244,9.082 C69.482,9.252 69.788,9.32 70.128,9.32 C70.842,9.32 71.42,8.98 71.896,8.334 C72.644,7.348 73.596,6.838 74.752,6.838 C76.69,6.838 77.778,7.994 77.778,9.932 C77.778,11.938 76.622,14.318 74.344,17.14 C73.426,18.296 71.522,20.302 68.7,23.192 C68.088,23.804 67.782,24.484 67.782,25.198 C67.782,26.184 68.598,27 69.584,27 L81.042,27 C82.028,27 82.844,26.15 82.844,25.164 C82.844,24.178 82.028,23.362 81.042,23.362 L73.052,23.362 Z" id="2"></path>
            <path d="M197.05,12.278 C198.92,12.278 200.484,12.958 201.776,14.318 C203.068,15.678 203.714,17.412 203.714,19.554 C203.714,21.934 202.932,23.838 201.402,25.232 C199.872,26.66 198.07,27.374 196.03,27.374 C193.446,27.374 191.372,26.524 189.842,24.824 C188.312,23.124 187.53,21.05 187.53,18.568 C187.53,14.76 188.788,11.156 190.794,8.606 C192.8,6.056 195.214,4.186 197.798,3.132 C198.036,3.03 198.342,2.962 198.716,2.962 C199.498,2.962 200.042,3.302 200.314,3.982 C200.416,4.152 200.45,4.39 200.45,4.628 C200.45,5.444 200.008,6.056 199.124,6.43 C195.758,7.926 193.14,10.68 192.154,14.488 C193.208,13.026 194.84,12.278 197.05,12.278 Z M196.064,23.464 C198.138,23.464 199.566,21.832 199.566,19.826 C199.566,17.548 198.172,15.916 195.724,15.916 C193.786,15.916 192.392,17.106 191.678,18.602 C191.678,21.424 193.31,23.464 196.064,23.464 Z" id="6"></path>
            <path d="M258.6,9.762 C258.6,7.858 257.206,6.736 255.132,6.736 C253.092,6.736 251.766,7.994 251.766,9.762 C251.766,11.394 253.092,12.822 254.894,12.822 L255.54,12.822 C257.308,12.822 258.6,11.394 258.6,9.762 Z M251.12,20.098 C251.12,22.036 252.684,23.464 255.166,23.464 C257.852,23.464 259.28,22.104 259.28,20.166 L259.28,20.098 C259.246,17.956 257.716,16.732 255.54,16.732 L254.962,16.732 C252.888,16.732 251.12,18.058 251.12,20.098 Z M262.782,9.082 C262.782,11.428 261.388,13.74 259.11,14.726 C261.558,15.304 263.428,17.514 263.428,20.506 C263.428,22.648 262.646,24.314 261.116,25.538 C259.552,26.762 257.58,27.374 255.2,27.374 C252.82,27.374 250.848,26.762 249.284,25.572 C247.72,24.382 246.938,22.818 246.938,20.846 C246.938,17.888 248.604,15.678 251.018,14.76 C249.08,13.91 247.618,11.768 247.618,9.082 C247.618,7.246 248.332,5.75 249.794,4.56 C251.256,3.404 253.024,2.826 255.166,2.826 C257.308,2.826 259.144,3.404 260.606,4.56 C262.068,5.75 262.782,7.246 262.782,9.082 Z" id="8"></path>
            <path d="M44.338,25.3 C44.338,26.388 45.222,27.272 46.31,27.272 C47.364,27.272 48.248,26.388 48.248,25.3 L48.248,5.104 C48.248,4.016 47.364,3.132 46.276,3.132 C45.698,3.132 45.188,3.302 44.746,3.642 L40.564,6.804 C40.054,7.178 39.816,7.688 39.816,8.3 C39.816,8.776 39.952,9.184 40.258,9.49 C40.632,9.932 41.142,10.17 41.754,10.17 C42.196,10.17 42.604,10.034 42.978,9.728 L44.338,8.708 L44.338,25.3 Z" id="1"></path>
            <path d="M165.412,23.464 C164.222,23.464 163.032,23.056 161.842,22.274 C161.4,21.968 160.992,21.832 160.55,21.832 C160.04,21.832 159.598,22.07 159.224,22.512 C158.952,22.886 158.816,23.26 158.816,23.668 C158.816,24.212 159.02,24.654 159.394,24.994 C161.23,26.592 163.202,27.374 165.31,27.374 C167.656,27.374 169.594,26.66 171.158,25.198 C172.722,23.736 173.504,21.764 173.504,19.282 C173.504,17.004 172.79,15.168 171.396,13.774 C169.968,12.38 168.166,11.7 166.024,11.7 C165.616,11.7 165.174,11.734 164.664,11.836 L165.344,7.11 L171.26,7.11 C172.314,7.11 173.164,6.26 173.164,5.138 C173.164,4.05 172.314,3.2 171.26,3.2 L163.814,3.2 C162.726,3.2 161.808,4.016 161.672,5.104 L160.652,13.434 C160.652,13.468 160.618,13.74 160.618,13.774 C160.618,14.76 161.23,15.372 162.216,15.372 C162.318,15.372 162.454,15.338 162.556,15.338 C163.1,15.27 163.678,15.236 164.256,15.236 C167.384,15.236 169.322,17.004 169.322,19.452 C169.322,21.798 167.69,23.464 165.412,23.464 Z" id="5"></path>
            <path d="M111.824,8.878 C111.824,5.172 109.104,2.826 104.99,2.826 C102.916,2.826 100.978,3.54 99.176,4.968 C98.666,5.376 98.428,5.886 98.428,6.532 C98.428,6.94 98.564,7.314 98.802,7.62 C99.176,8.062 99.618,8.266 100.162,8.266 C100.672,8.266 101.114,8.13 101.488,7.824 C102.542,7.11 103.596,6.736 104.616,6.736 C106.622,6.736 107.642,7.858 107.642,9.626 C107.642,11.564 106.01,12.89 104.072,12.89 C103.018,12.89 102.134,13.638 102.134,14.828 C102.134,16.018 103.086,16.8 104.14,16.8 C106.894,16.8 108.56,17.99 108.56,20.166 C108.56,22.07 107.166,23.464 104.718,23.464 C103.528,23.464 102.202,22.954 100.74,21.934 C100.366,21.696 99.958,21.56 99.584,21.56 C98.938,21.56 98.428,21.832 98.02,22.342 C97.782,22.716 97.646,23.09 97.646,23.498 C97.646,24.144 97.918,24.654 98.428,25.062 C100.468,26.66 102.202,27.374 104.956,27.374 C107.2,27.374 109.07,26.728 110.532,25.436 C111.994,24.178 112.742,22.444 112.742,20.302 C112.742,17.412 111.076,15.1 108.186,14.556 C110.6,13.468 111.824,11.564 111.824,8.878 Z" id="3"></path>
            <path d="M221.216,24.178 C221.08,24.518 221.012,24.824 221.012,25.13 C221.012,26.218 221.862,27 222.916,27 C223.902,27 224.582,26.524 224.956,25.538 L232.572,6.396 C232.742,5.988 232.81,5.58 232.81,5.206 C232.81,4.084 231.926,3.2 230.838,3.2 L219.822,3.2 C218.734,3.2 217.85,4.084 217.85,5.138 C217.85,6.226 218.734,7.11 219.822,7.11 L228.118,7.11 L221.216,24.178 Z" id="7"></path>
            <path d="M284.194,18.126 C282.188,18.126 280.488,17.412 279.094,16.018 C277.7,14.624 277.02,12.856 277.02,10.748 C277.02,8.368 277.836,6.464 279.434,5.002 C281.032,3.54 282.868,2.826 284.908,2.826 C287.526,2.826 289.566,3.676 291.096,5.342 C292.592,7.008 293.34,9.218 293.34,11.904 C293.34,20.2 289.226,25.47 282.392,27.102 C282.154,27.136 281.984,27.17 281.882,27.17 C281.032,27.17 280.386,26.592 280.25,25.878 C280.216,25.776 280.216,25.674 280.216,25.538 C280.216,24.722 280.658,24.178 281.542,23.872 C285.452,22.648 287.866,20.03 288.716,15.984 C287.662,17.412 286.166,18.126 284.194,18.126 Z M284.908,6.736 C282.766,6.736 281.168,8.47 281.168,10.476 C281.168,12.652 282.732,14.454 285.146,14.454 C287.016,14.454 288.376,13.604 289.192,11.87 C289.192,8.98 287.628,6.736 284.908,6.736 Z" id="9"></path>
        </g>
    </g>
</svg>