<?xml version="1.0" encoding="UTF-8"?>
<svg width="64px" height="32px" viewBox="0 0 64 32" version="1.1" xmlns="http://www.w3.org/2000/svg" xmlns:xlink="http://www.w3.org/1999/xlink">
    <!-- Generator: Sketch 43.2 (39069) - http://www.bohemiancoding.com/sketch -->
    <title>number_buttons</title>
    <desc>Created with Sketch.</desc>
    <defs></defs>
    <g id="Page-1" stroke="none" stroke-width="1" fill="none" fill-rule="evenodd">
        <g id="number_buttons">
            <path d="M6.77268283,3.57797922 C7.45051139,2.70648536 8.54927826,2.7062149 9.22731717,3.57797922 L13.7726828,9.42202078 C14.4505114,10.2935146 14.1029399,11 12.9941413,11 L3.00585866,11 C1.89805351,11 1.54927826,10.2937851 2.22731717,9.42202078 L6.77268283,3.57797922 Z" id="Triangle-Copy-4" fill="#31E3F4" transform="translate(8.000000, 6.500000) scale(-1, 1) translate(-8.000000, -6.500000) "></path>
            <path d="M22.7726828,3.57797922 C23.4505114,2.70648536 24.5492783,2.7062149 25.2273172,3.57797922 L29.7726828,9.42202078 C30.4505114,10.2935146 30.1029399,11 28.9941413,11 L19.0058587,11 C17.8980535,11 17.5492783,10.2937851 18.2273172,9.42202078 L22.7726828,3.57797922 Z" id="Triangle-Copy-5" fill="#9EF7FF" transform="translate(24.000000, 6.500000) scale(-1, 1) translate(-24.000000, -6.500000) "></path>
            <path d="M54.7726828,3.57797922 C55.4505114,2.70648536 56.5492783,2.7062149 57.2273172,3.57797922 L61.7726828,9.42202078 C62.4505114,10.2935146 62.1029399,11 60.9941413,11 L51.0058587,11 C49.8980535,11 49.5492783,10.2937851 50.2273172,9.42202078 L54.7726828,3.57797922 Z" id="Triangle-Copy-7" fill="#8D99DA" opacity="0.5" transform="translate(56.000000, 6.500000) scale(-1, 1) translate(-56.000000, -6.500000) "></path>
            <path d="M6.77268283,22.5779792 C7.45051139,21.7064854 8.54927826,21.7062149 9.22731717,22.5779792 L13.7726828,28.4220208 C14.4505114,29.2935146 14.1029399,30 12.9941413,30 L3.00585866,30 C1.89805351,30 1.54927826,29.2937851 2.22731717,28.4220208 L6.77268283,22.5779792 Z" id="Triangle-Copy-3" fill="#31E3F4" transform="translate(8.000000, 25.500000) scale(1, -1) translate(-8.000000, -25.500000) "></path>
            <path d="M22.7726828,22.5779792 C23.4505114,21.7064854 24.5492783,21.7062149 25.2273172,22.5779792 L29.7726828,28.4220208 C30.4505114,29.2935146 30.1029399,30 28.9941413,30 L19.0058587,30 C17.8980535,30 17.5492783,29.2937851 18.2273172,28.4220208 L22.7726828,22.5779792 Z" id="Triangle-Copy-6" fill="#9EF7FF" transform="translate(24.000000, 25.500000) scale(1, -1) translate(-24.000000, -25.500000) "></path>
            <path d="M41.3156972,3.33429797 C40.5890605,2.40005076 39.4111751,2.39976083 38.6843129,3.33429797 L33.8116507,9.59914936 C33.085014,10.5333966 33.4576129,11.2907536 34.6462523,11.2907536 L45.3537577,11.2907536 C46.5413322,11.2907536 46.9152216,10.5336865 46.1883594,9.59914936 L41.3156972,3.33429797 Z" id="Triangle-Copy-10" fill="#9EF7FF"></path>
            <path d="M38.6843168,28.6656634 C39.4109458,29.5999006 40.5888186,29.6001906 41.3156731,28.6656634 L46.1882834,22.4008787 C46.9149124,21.4666415 46.5423174,20.7092926 45.3536906,20.7092926 L34.6462993,20.7092926 C33.4587375,20.7092926 33.0848521,21.4663516 33.8117065,22.4008787 L38.6843168,28.6656634 Z" id="Triangle-Copy-9" fill="#9EF7FF"></path>
            <path d="M54.7726828,22.5779792 C55.4505114,21.7064854 56.5492783,21.7062149 57.2273172,22.5779792 L61.7726828,28.4220208 C62.4505114,29.2935146 62.1029399,30 60.9941413,30 L51.0058587,30 C49.8980535,30 49.5492783,29.2937851 50.2273172,28.4220208 L54.7726828,22.5779792 Z" id="Triangle-Copy-8" fill="#8D99DA" opacity="0.5" transform="translate(56.000000, 25.500000) scale(1, -1) translate(-56.000000, -25.500000) "></path>
        </g>
    </g>
</svg>