<?xml version="1.0" encoding="UTF-8" standalone="no"?>
<svg width="300px" height="300px" viewBox="0 0 300 300" version="1.1" xmlns="http://www.w3.org/2000/svg" xmlns:xlink="http://www.w3.org/1999/xlink">
    <!-- Generator: Sketch 40.2 (33826) - http://www.bohemiancoding.com/sketch -->
    <title>bg</title>
    <desc>Created with Sketch.</desc>
    <defs>
        <rect id="path-1" x="0" y="0" width="300" height="300"></rect>
    </defs>
    <g id="6" stroke="none" stroke-width="1" fill="none" fill-rule="evenodd">
        <g id="bg">
            <g id="Group">
                <mask id="mask-2" fill="white">
                    <use xlink:href="#path-1"></use>
                </mask>
                <g id="Mask"></g>
                <path d="M158.367188,107.803125 C161.777734,109.949609 162.289063,113.788281 160.328125,119.782422 C158.367188,125.776562 158.473828,132.771094 149.671484,133.497656 C140.869141,134.224219 136.416406,132.860156 136.416406,127.636719 C136.416406,122.413281 139.378516,109.356641 144.525,107.776562 C149.671484,106.196484 154.956641,105.656641 158.367188,107.803125 Z" id="Path-5" fill="#3C3239" mask="url(#mask-2)"></path>
                <path d="M166.095703,88.2113281 C162.026953,88.8285156 160.275781,88.4035156 158.563281,94.0636719 C156.850781,99.7238281 156.631641,104.038672 160.989844,105.949219 C165.348047,107.859766 166.376172,110.298828 166.095703,113.667969 C165.815234,117.037109 165.767578,117.865625 169.842578,117.865625 C173.917578,117.865625 178.845703,117.969141 181.080859,112.603906 C183.316016,107.238672 181.287109,101.035937 177.614062,97.9710937 C173.941016,94.90625 170.164453,87.5941406 166.095703,88.2113281 Z" id="Path-7" fill="#3C3239" mask="url(#mask-2)"></path>
                <path d="M175.4,83.3001198 C175.4,87.3126198 177.782812,93.711448 181.051562,93.711448 C184.320312,93.711448 186.245312,90.7555886 189.038672,90.2594948 C191.832031,89.7634011 194.95,88.8891823 194.95,83.3884011 C194.95,77.8876198 189.413672,69.3598855 182.979687,69.817698 C176.545703,70.2755105 175.4,79.2876198 175.4,83.3001198 Z" id="Path-8" fill="#3C3239" mask="url(#mask-2)"></path>
                <path d="M169.744922,84.1177734 C171.597656,83.2142578 173.616016,78.7820313 173.317773,75.4720703 C173.019531,72.1621094 173.332617,69.8828125 168.596289,69.1267578 C163.859961,68.3707031 155.060742,68.1111328 151.917578,72.1267578 C148.774414,76.1423828 149.985156,81.1796875 153.714453,83.2097656 C157.44375,85.2398438 157.194336,87.7261719 160.327148,86.4800781 C163.459961,85.2339844 167.892188,85.0212891 169.744922,84.1177734 Z" id="Path-9" fill="#3C3239" mask="url(#mask-2)"></path>
                <path d="M154.23418,89.2357422 C152.678125,85.9832031 146.118555,84.6205078 141.933008,87.4035156 C137.747461,90.1865234 132.112891,90.3691406 129.501172,89.5925781 C126.889453,88.8160156 122.132422,88.7435547 121.733789,93.5802734 C121.335156,98.4169922 119.436719,103.240039 124.906641,104.149609 C130.376562,105.05918 136.1375,104.208789 141.403711,102.230469 C146.669922,100.252148 150.051367,101.094922 152.142773,98.5349609 C154.23418,95.975 155.790234,92.4882813 154.23418,89.2357422 Z" id="Path-10" fill="#3C3239" mask="url(#mask-2)"></path>
                <path d="M133.824219,109.076953 C137.519531,111.52168 133.570898,118.849414 133.269727,121.81543 C132.968555,124.781445 132.917773,133.420898 127.889258,135.414062 C122.860742,137.407227 114.895898,138.120312 111.950391,133.023828 C109.004883,127.927344 107.447461,118.881836 111.77168,115.4875 C116.095898,112.093164 130.128906,106.632227 133.824219,109.076953 Z" id="Path-11" fill="#3C3239" mask="url(#mask-2)"></path>
                <path d="M166.493359,122.388281 C170.432422,120.578125 183.389453,121.552344 185.013281,127.401953 C186.637109,133.251563 181.360547,145.163281 174.663672,145.827344 C167.966797,146.491406 157.541016,141.610547 158.019141,137.447266 C158.497266,133.283984 162.554297,124.198437 166.493359,122.388281 Z" id="Path-12" fill="#3C3239" mask="url(#mask-2)"></path>
                <path d="M154.895703,139.935156 C153.752734,134.658594 124.665234,135.319531 120.301172,141.316797 C115.937109,147.314062 128.199609,157.557031 133.939844,157.557031 C139.680078,157.557031 156.038672,145.211719 154.895703,139.935156 Z" id="Path-13" fill="#3C3239" mask="url(#mask-2)"></path>
                <path d="M161.999219,146.978906 C158.872266,145.399219 152.901563,149.999609 148.171484,155.772266 C143.441406,161.544922 140.698438,164.373438 145.216016,169.115625 C149.733594,173.857813 153.448437,167.769531 159.445312,166.393359 C165.442187,165.017188 171.642969,162.909375 172.044531,157.213281 C172.446094,151.517188 165.126172,148.558594 161.999219,146.978906 Z" id="Path-14" fill="#3C3239" mask="url(#mask-2)"></path>
                <path d="M184.971484,145.16875 C179.910156,149.550781 174.377344,159.444922 176.798438,163.788672 C179.219531,168.132422 195.495703,174.229297 199.100781,169.747266 C202.705859,165.265234 202.074219,161.078125 200.069141,155.621484 C198.064063,150.164844 190.032813,140.786719 184.971484,145.16875 Z" id="Path-15" fill="#3C3239" mask="url(#mask-2)"></path>
                <path d="M181.012109,172.753516 C175.868359,167.045703 163.142188,164.973438 157.333984,173.701563 C151.525781,182.429688 155.232458,200.725 161.426563,200.223047 C167.620667,199.721094 170.958203,189.214844 173.786719,186.271094 C176.615234,183.327344 186.155859,178.461328 181.012109,172.753516 Z" id="Path-16" fill="#3C3239" mask="url(#mask-2)"></path>
                <path d="M194.370313,175.7 C187.936328,174.072656 180.51875,184.587891 179.839844,188.963672 C179.160937,193.339453 199.384766,196.688281 202.151172,193.800391 C204.917578,190.9125 200.804297,177.327344 194.370313,175.7 Z" id="Path-17" fill="#3C3239" mask="url(#mask-2)"></path>
                <path d="M187.685938,199.664062 C184.110156,196.557813 178.246094,190.592969 173.772656,197.390234 C169.299219,204.1875 164.477344,212.680078 169.125,218.112891 C173.772656,223.545703 177.717969,225.480078 181.275781,222.497656 C184.833594,219.515234 191.261719,202.770313 187.685938,199.664062 Z" id="Path-18" fill="#3C3239" mask="url(#mask-2)"></path>
                <path d="M159.050781,205.887891 C162.407812,206.696875 165.381641,216.638672 162.901172,221.292188 C160.420703,225.945703 149.046875,240.071875 143.882422,235.73125 C138.717969,231.390625 138.723828,217.485938 142.547656,214.046094 C146.371484,210.60625 155.69375,205.078906 159.050781,205.887891 Z" id="Path-19" fill="#3C3239" mask="url(#mask-2)"></path>
                <path d="M145.808594,176.820312 C149.094922,178.346875 150.140234,189.310547 150.140234,194.973828 C150.140234,200.637109 149.0125,205.39375 144.090234,208.6125 C139.167969,211.83125 129.332422,205.895703 126.61875,200.014063 C123.905078,194.132422 128.068359,190.607031 133.634375,188.628516 C139.200391,186.65 142.522266,175.29375 145.808594,176.820312 Z" id="Path-20" fill="#3C3239" mask="url(#mask-2)"></path>
                <path d="M128.241797,185.2875 C132.723828,182.901563 139.851953,176.813281 138.700391,169.067969 C137.548828,161.322656 127.712891,159.234766 123.697266,158.544141 C119.681641,157.853516 110.333203,161.830299 110.333203,166.853516 C110.333203,171.876732 113.672656,184.035547 119.339062,185.482422 C125.005469,186.929297 123.759766,187.673438 128.241797,185.2875 Z" id="Path-21" fill="#3C3239" mask="url(#mask-2)"></path>
                <path d="M118.267578,195.690234 C120.124609,192.270703 112.451172,185.547656 108.086719,179.4 C103.722266,173.252344 97.675,169.646875 92.428125,173.34375 C87.18125,177.040625 84.1957031,184.399219 89.3070312,189.684375 C94.4183594,194.969531 116.410547,199.109766 118.267578,195.690234 Z" id="Path-22" fill="#3C3239" mask="url(#mask-2)"></path>
                <path d="M131.675,210.282031 C135.557812,213.116406 138.773438,229.787891 131.964453,232.392187 C125.155469,234.996484 120.108984,233.726953 119.633594,226.480859 C119.158203,219.234766 116.710547,213.305469 120.983203,211.79375 C125.255859,210.282031 127.792187,207.447656 131.675,210.282031 Z" id="Path-24" fill="#3C3239" mask="url(#mask-2)"></path>
                <path d="M112.169141,214.979297 C114.90625,216.621094 115.579937,220.646094 114.5875,223.976562 C113.595063,227.307031 102.569531,230.271094 100.735937,225.148437 C98.9023437,220.025781 109.432031,213.3375 112.169141,214.979297 Z" id="Path-25" fill="#3C3239" mask="url(#mask-2)"></path>
                <path d="M104.353125,231.549219 C111.303906,231.549219 122.740234,233.722656 124.464453,238.455859 C126.188672,243.189062 124.4375,254.064062 118.107031,256.266797 C111.776563,258.469531 103.668359,260.878906 99.2449219,255.986328 C94.8214844,251.09375 91.0359375,247.196094 93.6433594,241.724609 C96.2507813,236.253125 97.4023438,231.549219 104.353125,231.549219 Z" id="Path-26" fill="#3C3239" mask="url(#mask-2)"></path>
                <path d="M107.123438,265.180469 C109.780859,261.560547 124.133984,257.237109 128.108594,263.972656 C132.083203,270.708203 107.891406,291.799219 104.486719,287.845703 C101.082031,283.892187 104.466016,268.800391 107.123438,265.180469 Z" id="Path-27" fill="#3C3239" mask="url(#mask-2)"></path>
                <path d="M88.9257812,256.112891 C92.4070312,254.987891 101.734766,257.796094 100.910937,265.889453 C100.087109,273.982813 98.3925781,287.603906 86.8796875,287.603906 C75.3667969,287.603906 74.4785156,284.19375 76.675,278.719141 C78.8714844,273.244531 85.7515625,267.741016 86.315625,263.828516 C86.8796875,259.916016 85.4445313,257.237891 88.9257812,256.112891 Z" id="Path-28" fill="#3C3239" mask="url(#mask-2)"></path>
                <path d="M100.951172,307.370703 C102.592578,299.274219 106.203906,289.164062 94.4046875,290.309766 C82.6054687,291.455469 76.8921875,288.680078 76.4816406,298.025391 C76.0710937,307.370703 76.5375,314.617187 83.6566406,315.582422 C90.7757812,316.547656 99.3097656,315.467187 100.951172,307.370703 Z" id="Path-29" fill="#3C3239" mask="url(#mask-2)"></path>
                <path d="M107.577344,303.995703 C105.507422,295.654297 107.692188,290.495703 113.157812,288.139453 C118.623437,285.783203 123.439062,285.821875 125.148828,290.2125 C126.858594,294.603125 129.976953,300.916406 128.166797,304.843359 C126.356641,308.770313 109.647266,312.337109 107.577344,303.995703 Z" id="Path-30" fill="#3C3239" mask="url(#mask-2)"></path>
                <path d="M127.297266,279.278125 C127.297266,283.29375 129.355078,289.869531 130.810938,293.826172 C132.266797,297.782812 133.757422,306.894922 138.496875,302.799609 C143.236328,298.704297 152.337109,288.425391 151.005078,281.923437 C149.673047,275.421484 145.707422,272.173437 139.991016,271.057422 C134.274609,269.941406 127.297266,275.2625 127.297266,279.278125 Z" id="Path-32" fill="#3C3239" mask="url(#mask-2)"></path>
                <path d="M161.192188,303.899219 C164.711719,299.210156 167.954297,289.539844 172.197266,287.980859 C176.440234,286.421875 184.105859,288.142969 186.958203,293.115625 C189.810547,298.088281 186.090234,304.469141 181.533984,308.065625 C176.977734,311.662109 157.672656,308.588281 161.192188,303.899219 Z" id="Path-33" fill="#3C3239" mask="url(#mask-2)"></path>
                <path d="M205.789844,276.441406 C201.044531,276.441406 192.868359,287.517187 193.754297,293.035937 C194.640234,298.554688 194.406641,303.346875 200.321094,303.346875 C206.235547,303.346875 218.755469,292.285937 218.755469,286.988672 C218.755469,281.691406 210.535156,276.441406 205.789844,276.441406 Z" id="Path-34" fill="#3C3239" mask="url(#mask-2)"></path>
                <path d="M230.075,300.567188 C223.75,297.960156 217.1625,293.646484 214.05625,298.208203 C210.95,302.769922 205.121001,307.913672 212.340625,309.065234 C219.560249,310.216797 223.377734,312.348828 225.557031,308.498437 C227.736328,304.648047 236.4,303.174219 230.075,300.567188 Z" id="Path-35" fill="#3C3239" mask="url(#mask-2)"></path>
                <path d="M246.759828,293.728125 C242.502734,293.166797 236.638281,298.446484 238.587109,302.671875 C240.535938,306.897266 243.255469,314.653906 248.741797,309.253516 C254.228125,303.853125 256.575391,300.702734 254.446484,298.682812 C252.317578,296.662891 251.016921,294.289453 246.759828,293.728125 Z" id="Path-52" fill="#3C3239" mask="url(#mask-2)"></path>
                <path d="M279.061719,292.396484 C274.780469,289.55625 271.538281,284.022656 268.638672,289.547266 C265.739062,295.071875 257.551172,299.3625 261.989062,304.567969 C266.426953,309.773438 270.696484,316.240234 275.471094,310.996094 C280.245703,305.751953 281.317578,304.269922 281.317578,300.416406 C281.317578,296.562891 283.342969,295.236719 279.061719,292.396484 Z" id="Path-53" fill="#3C3239" mask="url(#mask-2)"></path>
                <path d="M3.05397004,285.243708 C-2.93118621,283.265193 -12.8143893,284.626911 -14.0190768,290.815583 C-15.2237643,297.004255 -19.0589206,304.852693 -12.3268893,307.392146 C-5.59485808,309.931599 1.01022004,314.792146 3.55865754,308.493708 C6.10709504,302.195271 9.03912629,287.222224 3.05397004,285.243708 Z" id="Path-54" fill="#3C3239" mask="url(#mask-2)"></path>
                <path d="M303.05397,285.243708 C297.068814,283.265193 287.185611,284.626911 285.980923,290.815583 C284.776236,297.004255 280.941079,304.852693 287.673111,307.392146 C294.405142,309.931599 301.01022,314.792146 303.558658,308.493708 C306.107095,302.195271 309.039126,287.222224 303.05397,285.243708 Z" id="Path-54-Copy" fill="#3C3239" mask="url(#mask-2)"></path>
                <path d="M68.9042969,278.021875 C73.0054688,280.263281 73.0558594,303.796484 64.7171875,305.196094 C56.3785156,306.595703 47.8242188,295.023828 49.2800781,290.305469 C50.7359375,285.587109 64.803125,275.780469 68.9042969,278.021875 Z" id="Path-55" fill="#3C3239" mask="url(#mask-2)"></path>
                <path d="M25.6941406,269.769922 C22.1570313,269.769922 22.3699219,278.451562 24.0320313,283.302734 C25.6941406,288.153906 22.7175781,297.283594 27.7375,300.159766 C32.7574219,303.035937 39.9589844,308.776172 42.7050781,300.664844 C45.4511719,292.553516 48.1738281,286.444141 42.6285156,283.674609 C37.0832031,280.905078 31.1300781,278.799219 30.1351562,275.548437 C29.1402344,272.297656 29.23125,269.769922 25.6941406,269.769922 Z" id="Path-56" fill="#3C3239" mask="url(#mask-2)"></path>
                <path d="M13.0019531,279.811719 C17.053125,279.811719 25.4210937,293.033984 21.121875,304.4375 C16.8226562,315.841016 12.2160156,309.489453 10.5597656,304.644141 C8.90351562,299.798828 8.95078125,279.811719 13.0019531,279.811719 Z" id="Path-57" fill="#3C3239" mask="url(#mask-2)"></path>
                <path d="M100.951172,7.37070312 C102.592578,-0.72578125 106.203906,-10.8359375 94.4046875,-9.69023438 C82.6054687,-8.54453125 76.8921875,-11.3199219 76.4816406,-1.97460938 C76.0710937,7.37070312 76.5375,14.6171875 83.6566406,15.5824219 C90.7757812,16.5476562 99.3097656,15.4671875 100.951172,7.37070312 Z" id="Path-29" fill="#3C3239" mask="url(#mask-2)"></path>
                <path d="M107.577344,3.99570313 C105.507422,-4.34570312 107.692188,-9.50429687 113.157812,-11.8605469 C118.623437,-14.2167969 123.439062,-14.178125 125.148828,-9.7875 C126.858594,-5.396875 129.976953,0.91640625 128.166797,4.84335937 C126.356641,8.7703125 109.647266,12.3371094 107.577344,3.99570313 Z" id="Path-30" fill="#3C3239" mask="url(#mask-2)"></path>
                <path d="M127.297266,-20.721875 C127.297266,-16.70625 129.355078,-10.1304687 130.810938,-6.17382812 C132.266797,-2.2171875 133.757422,6.89492188 138.496875,2.79960938 C143.236328,-1.29570312 152.337109,-11.5746094 151.005078,-18.0765625 C149.673047,-24.5785156 145.707422,-27.8265625 139.991016,-28.9425781 C134.274609,-30.0585937 127.297266,-24.7375 127.297266,-20.721875 Z" id="Path-32" fill="#3C3239" mask="url(#mask-2)"></path>
                <path d="M161.192188,3.89921875 C164.711719,-0.78984375 167.954297,-10.4601563 172.197266,-12.0191406 C176.440234,-13.578125 184.105859,-11.8570312 186.958203,-6.884375 C189.810547,-1.91171875 186.090234,4.46914062 181.533984,8.065625 C176.977734,11.6621094 157.672656,8.58828125 161.192188,3.89921875 Z" id="Path-33" fill="#3C3239" mask="url(#mask-2)"></path>
                <path d="M205.789844,-23.5585938 C201.044531,-23.5585938 192.868359,-12.4828125 193.754297,-6.9640625 C194.640234,-1.4453125 194.406641,3.346875 200.321094,3.346875 C206.235547,3.346875 218.755469,-7.7140625 218.755469,-13.0113281 C218.755469,-18.3085938 210.535156,-23.5585938 205.789844,-23.5585938 Z" id="Path-34" fill="#3C3239" mask="url(#mask-2)"></path>
                <path d="M230.075,0.5671875 C223.75,-2.03984375 217.1625,-6.35351562 214.05625,-1.79179687 C210.95,2.76992187 205.121001,7.91367187 212.340625,9.06523437 C219.560249,10.2167969 223.377734,12.3488281 225.557031,8.4984375 C227.736328,4.64804687 236.4,3.17421875 230.075,0.5671875 Z" id="Path-35" fill="#3C3239" mask="url(#mask-2)"></path>
                <path d="M246.759828,-6.271875 C242.502734,-6.83320312 236.638281,-1.55351563 238.587109,2.671875 C240.535938,6.89726562 243.255469,14.6539062 248.741797,9.25351562 C254.228125,3.853125 256.575391,0.702734375 254.446484,-1.3171875 C252.317578,-3.33710938 251.016921,-5.71054688 246.759828,-6.271875 Z" id="Path-52" fill="#3C3239" mask="url(#mask-2)"></path>
                <path d="M279.061719,-7.60351562 C274.780469,-10.44375 271.538281,-15.9773437 268.638672,-10.4527344 C265.739062,-4.928125 257.551172,-0.6375 261.989062,4.56796875 C266.426953,9.7734375 270.696484,16.2402344 275.471094,10.9960937 C280.245703,5.75195312 281.317578,4.26992187 281.317578,0.41640625 C281.317578,-3.43710938 283.342969,-4.76328125 279.061719,-7.60351562 Z" id="Path-53" fill="#3C3239" mask="url(#mask-2)"></path>
                <path d="M3.05397004,-14.7562918 C-2.93118621,-16.7348074 -12.8143893,-15.3730886 -14.0190768,-9.18441677 C-15.2237643,-2.99574489 -19.0589206,4.85269261 -12.3268893,7.39214573 C-5.59485808,9.93159886 1.01022004,14.7921457 3.55865754,8.49370823 C6.10709504,2.19527073 9.03912629,-12.7777761 3.05397004,-14.7562918 Z" id="Path-54" fill="#3C3239" mask="url(#mask-2)"></path>
                <path d="M303.05397,-14.7562918 C297.068814,-16.7348074 287.185611,-15.3730886 285.980923,-9.18441677 C284.776236,-2.99574489 280.941079,4.85269261 287.673111,7.39214573 C294.405142,9.93159886 301.01022,14.7921457 303.558658,8.49370823 C306.107095,2.19527073 309.039126,-12.7777761 303.05397,-14.7562918 Z" id="Path-54-Copy" fill="#3C3239" mask="url(#mask-2)"></path>
                <path d="M68.9042969,-21.978125 C73.0054688,-19.7367188 73.0558594,3.79648437 64.7171875,5.19609375 C56.3785156,6.59570312 47.8242188,-4.97617188 49.2800781,-9.69453125 C50.7359375,-14.4128906 64.803125,-24.2195313 68.9042969,-21.978125 Z" id="Path-55" fill="#3C3239" mask="url(#mask-2)"></path>
                <path d="M25.6941406,-30.2300781 C22.1570313,-30.2300781 22.3699219,-21.5484375 24.0320313,-16.6972656 C25.6941406,-11.8460938 22.7175781,-2.71640625 27.7375,0.159765625 C32.7574219,3.0359375 39.9589844,8.77617187 42.7050781,0.66484375 C45.4511719,-7.44648438 48.1738281,-13.5558594 42.6285156,-16.3253906 C37.0832031,-19.0949219 31.1300781,-21.2007813 30.1351562,-24.4515625 C29.1402344,-27.7023438 29.23125,-30.2300781 25.6941406,-30.2300781 Z" id="Path-56" fill="#3C3239" mask="url(#mask-2)"></path>
                <path d="M13.0019531,-20.1882813 C17.053125,-20.1882813 25.4210937,-6.96601563 21.121875,4.4375 C16.8226562,15.8410156 12.2160156,9.48945312 10.5597656,4.64414062 C8.90351562,-0.201171875 8.95078125,-20.1882813 13.0019531,-20.1882813 Z" id="Path-57" fill="#3C3239" mask="url(#mask-2)"></path>
                <path d="M-5.48632813,15.9585938 C0.55234375,15.9585938 2.57734375,22.5222656 2.996875,28.6878906 C3.41640625,34.8535156 11.2117187,44.7867188 7.10429687,49.7382813 C2.996875,54.6898438 -9.65820313,62.6710938 -13.1308594,54.0285156 C-16.6035156,45.3859375 -11.5542969,32.6210938 -12.3425781,27.9203125 C-13.1308594,23.2195313 -11.525,15.9585938 -5.48632813,15.9585938 Z" id="Path-58" fill="#3C3239" mask="url(#mask-2)"></path>
                <path d="M-1.13203125,94.0679688 C2.63867188,94.0679688 13.5105469,95.4847656 14.1601563,100.593359 C14.8097656,105.701953 8.91875,123.633594 4.71132813,127.2125 C0.50390625,130.791406 -8.75625,131.960547 -11.1714844,124.513672 C-13.5867187,117.066797 -9.97851562,103.871484 -9.04257812,102.232422 C-8.10664062,100.593359 -4.90273437,94.0679688 -1.13203125,94.0679688 Z" id="Path-60" fill="#3C3239" mask="url(#mask-2)"></path>
                <path d="M-4.82773438,135.007812 C-0.501953125,133.262891 7.31132812,130.54375 8.71679687,136.632031 C10.1222656,142.720313 5.72578125,148.8625 -0.684765625,153.211719 C-7.0953125,157.560938 -13.0511719,153.265163 -13.496875,148.605469 C-13.9425781,143.945774 -9.15351563,136.752734 -4.82773438,135.007812 Z" id="Path-61" fill="#3C3239" mask="url(#mask-2)"></path>
                <path d="M294.47737,15.9585938 C300.516042,15.9585938 302.541042,22.5222656 302.960573,28.6878906 C303.380104,34.8535156 311.175417,44.7867188 307.067995,49.7382813 C302.960573,54.6898438 290.305495,62.6710938 286.832838,54.0285156 C283.360182,45.3859375 288.409401,32.6210938 287.62112,27.9203125 C286.832838,23.2195313 288.438698,15.9585938 294.47737,15.9585938 Z" id="Path-58" fill="#3C3239" mask="url(#mask-2)"></path>
                <path d="M303.581209,57.8902344 C302.007772,56.7535156 292.703084,60.5390625 291.501522,65.0980469 C290.299959,69.6570312 287.243319,84.3289062 290.355819,87.721875 C293.468319,91.1148437 295.4316,92.4460937 298.889413,89.0476562 C302.347225,85.6492187 313.635506,78.4179687 314.226131,73.7171875 C314.816756,69.0164062 305.154647,59.0269531 303.581209,57.8902344 Z" id="Path-59" fill="#3C3239" mask="url(#mask-2)"></path>
                <path d="M3.58120939,57.8902344 C2.00777189,56.7535156 -7.29691561,60.5390625 -8.49847811,65.0980469 C-9.70004061,69.6570312 -12.7566812,84.3289062 -9.64418123,87.721875 C-6.53168123,91.1148437 -4.56839998,92.4460937 -1.11058748,89.0476562 C2.34722502,85.6492187 13.6355063,78.4179687 14.2261313,73.7171875 C14.8167563,69.0164062 5.15464689,59.0269531 3.58120939,57.8902344 Z" id="Path-59-Copy-2" fill="#3C3239" mask="url(#mask-2)"></path>
                <path d="M296.457899,94.0679688 C300.228602,94.0679688 311.100477,95.4847656 311.750087,100.593359 C312.399696,105.701953 306.508681,123.633594 302.301259,127.2125 C298.093837,130.791406 288.833681,131.960547 286.418446,124.513672 C284.003212,117.066797 287.611415,103.871484 288.547352,102.232422 C289.48329,100.593359 292.687196,94.0679688 296.457899,94.0679688 Z" id="Path-60" fill="#3C3239" mask="url(#mask-2)"></path>
                <path d="M294.269141,135.007812 C298.594922,133.262891 306.408203,130.54375 307.813672,136.632031 C309.219141,142.720313 304.822656,148.8625 298.412109,153.211719 C292.001563,157.560938 286.045703,153.265163 285.6,148.605469 C285.154297,143.945774 289.943359,136.752734 294.269141,135.007812 Z" id="Path-61" fill="#3C3239" mask="url(#mask-2)"></path>
                <g id="Group-2-Copy-2" mask="url(#mask-2)" fill="#3C3239">
                    <g transform="translate(-17.000000, 164.000000)">
                        <path d="M6.85153764,0.196875 C10.2620845,-0.6859375 14.8179439,8.5828125 18.2460689,13.6140625 C21.6741939,18.6453125 26.2273189,27.5664062 21.426147,31.1035156 C16.6249751,34.640625 5.78825639,28.9097656 3.52653764,23.340625 C1.26481889,17.7714844 3.44099077,1.0796875 6.85153764,0.196875 Z" id="Path-62"></path>
                        <path d="M2.6,36.7847656 C4.76757813,34.1921875 26.15625,35.0429688 27.5146484,43.4365234 C28.8730469,51.8300781 10.540625,57.6433594 4.76171875,55.653125 C-1.0171875,53.6628906 0.432421875,39.3773438 2.6,36.7847656 Z" id="Path-63"></path>
                        <path d="M1.49609375,68.1462397 C1.49609375,57.6049318 20.8277072,62.8467822 25.7695312,68.1462397 C30.7113553,73.4456972 25.5099566,80.3153537 19.4040915,81.1236399 C13.2982264,81.9319261 1.49609375,78.6875475 1.49609375,68.1462397 L1.49609375,68.1462397 Z" id="Path-64"></path>
                        <path d="M9.1078125,87.190625 C17.0949219,88.5222656 31.6136719,87.9140625 31.6136719,97.3570313 C31.6136719,106.8 25.8410156,113.523828 17.7742188,112.507813 C9.70742188,111.491797 3.89609375,109.540234 2.6,102.40625 C1.30390625,95.2722656 1.12070313,85.8589844 9.1078125,87.190625 Z" id="Path-65"></path>
                    </g>
                </g>
                <g id="Group-2-Copy-3" mask="url(#mask-2)" fill="#3C3239">
                    <g transform="translate(283.000000, 164.000000)">
                        <path d="M6.85153764,0.196875 C10.2620845,-0.6859375 14.8179439,8.5828125 18.2460689,13.6140625 C21.6741939,18.6453125 26.2273189,27.5664062 21.426147,31.1035156 C16.6249751,34.640625 5.78825639,28.9097656 3.52653764,23.340625 C1.26481889,17.7714844 3.44099077,1.0796875 6.85153764,0.196875 Z" id="Path-62"></path>
                        <path d="M2.6,36.7847656 C4.76757813,34.1921875 26.15625,35.0429688 27.5146484,43.4365234 C28.8730469,51.8300781 10.540625,57.6433594 4.76171875,55.653125 C-1.0171875,53.6628906 0.432421875,39.3773438 2.6,36.7847656 Z" id="Path-63"></path>
                        <path d="M1.49609375,68.1462397 C1.49609375,57.6049318 20.8277072,62.8467822 25.7695312,68.1462397 C30.7113553,73.4456972 25.5099566,80.3153537 19.4040915,81.1236399 C13.2982264,81.9319261 1.49609375,78.6875475 1.49609375,68.1462397 L1.49609375,68.1462397 Z" id="Path-64"></path>
                        <path d="M9.1078125,87.190625 C17.0949219,88.5222656 31.6136719,87.9140625 31.6136719,97.3570313 C31.6136719,106.8 25.8410156,113.523828 17.7742188,112.507813 C9.70742188,111.491797 3.89609375,109.540234 2.6,102.40625 C1.30390625,95.2722656 1.12070313,85.8589844 9.1078125,87.190625 Z" id="Path-65"></path>
                    </g>
                </g>
                <path d="M32.7089844,269.639453 C34.9207031,274.945313 40.7964844,282.707813 46.5839844,281.267188 C52.3714844,279.826563 56.4550781,282.005859 56.4550781,274.889453 C56.4550781,267.773047 58.6550781,261.460156 53.8980469,259.892188 C49.1410156,258.324219 30.4972656,264.333594 32.7089844,269.639453 Z" id="Path-66" fill="#3C3239" mask="url(#mask-2)"></path>
                <path d="M21.721875,257.394141 C22.7582031,260.633594 23.8089844,266.621484 28.0671875,264.814453 C32.3253906,263.007422 38.0863281,263.934375 37.6816406,258.861719 C37.2769531,253.789062 36.2201728,248.814062 32.9660156,249.953516 C29.7118585,251.092969 20.6855469,254.154687 21.721875,257.394141 Z" id="Path-67" fill="#3C3239" mask="url(#mask-2)"></path>
                <path d="M11.1691406,219.726172 C8.09804688,222.705469 9.19648438,227.456641 12.7664063,232.653516 C16.3363281,237.850391 14.1070313,247.183594 18.0933594,249.2625 C22.0796875,251.341406 32.9605469,248.004688 32.9605469,242.612891 C32.9605469,237.221094 14.2402344,216.746875 11.1691406,219.726172 Z" id="Path-68" fill="#3C3239" mask="url(#mask-2)"></path>
                <path d="M24.8957031,201.444922 C19.6929687,202.094531 14.15625,209.958203 15.9929687,214.227734 C17.8296875,218.497266 29.5789062,229.272266 37.4183594,225.832031 C45.2578125,222.391797 49.6660156,208.605078 46.5097656,204.666406 C43.3535156,200.727734 30.0984375,200.795313 24.8957031,201.444922 Z" id="Path-69" fill="#3C3239" mask="url(#mask-2)"></path>
                <path d="M15.071875,177.598438 C13.4363281,180.300391 13.1703125,193.499219 18.2078125,196.546484 C23.2453125,199.59375 34.1558594,199.245313 37.2089844,192.46875 C40.2621094,185.692188 33.2230469,184.862109 32.0328125,180.846484 C30.8425781,176.830859 32.1903886,172.9625 29.0917969,170.319922 C25.9932051,167.677344 16.7074219,174.896484 15.071875,177.598438 Z" id="Path-70" fill="#3C3239" mask="url(#mask-2)"></path>
                <path d="M2.38164063,164.230469 C6.31171875,172.480469 11.5203125,173.691016 18.190625,169.170313 C24.8609375,164.649609 22.0144531,158.484766 24.996875,155.900781 C27.9792969,153.316797 31.5726563,151.013672 29.8394531,147.003906 C28.10625,142.994141 20.0835938,142.203125 15.4210938,144.603516 C10.7585938,147.003906 -1.5484375,155.980469 2.38164063,164.230469 Z" id="Path-71" fill="#3C3239" mask="url(#mask-2)"></path>
                <path d="M23.8128906,104.507422 C20.9160156,104.005469 17.8714844,112.237891 15.296875,116.138281 C12.7222656,120.038672 8.69234765,126.833203 13.1296875,132.951172 C17.5670273,139.069141 25.0855469,142.636328 29.6710938,137.79375 C34.2566406,132.951172 29.0804688,126.177344 29.0804688,121.157812 C29.0804688,116.138281 26.7097656,105.009375 23.8128906,104.507422 Z" id="Path-72" fill="#3C3239" mask="url(#mask-2)"></path>
                <path d="M9.28947579,87.9759021 C8.52775704,90.7012927 12.8093977,92.989574 15.3074445,97.0407458 C17.8054914,101.091918 22.0218977,101.200902 25.2168195,99.577074 C28.4117414,97.9532458 34.5707258,93.6692615 35.3179914,84.7634021 C36.065257,75.8575427 30.8062727,75.792699 27.0828352,75.792699 C23.3593977,75.792699 10.0511945,85.2505115 9.28947579,87.9759021 Z" id="Path-73" fill="#3C3239" mask="url(#mask-2)"></path>
                <path d="M11.4957031,50.6058594 C9.91289062,54.4589844 12.8476563,58.4660156 15.596875,62.5378906 C18.3460937,66.6097656 17.909375,70.0613281 21.065625,71.3753906 C24.221875,72.6894531 31.55625,71.3667969 34.9492187,66.9523437 C38.3421875,62.5378906 39.2019531,51.5976562 35.1503906,48.1429687 C31.0988281,44.6882812 13.0785156,46.7527344 11.4957031,50.6058594 Z" id="Path-74" fill="#3C3239" mask="url(#mask-2)"></path>
                <path d="M11.3691406,39.1710938 C12.6976562,43.8101563 18.6152344,43.9695313 22.89375,43.340625 C27.1722656,42.7117188 32.5757813,42.6019531 32.159375,39.1238281 C31.7429688,35.6457031 24.1867188,34.6238281 21.3316406,34.6238281 C18.4765625,34.6238281 10.040625,34.5320313 11.3691406,39.1710938 Z" id="Path-75" fill="#3C3239" mask="url(#mask-2)"></path>
                <path d="M7.40507813,13.3078125 C5.0515625,15.4011719 5.4,23.9082031 8.1046875,28.0507812 C10.809375,32.1933594 21.5933594,33.7285156 23.7042969,31.1421875 C25.8152344,28.5558594 22.8300781,19.8453125 20.7808594,17.5714844 C18.7316406,15.2976562 9.75859375,11.2144531 7.40507813,13.3078125 Z" id="Path-76" fill="#3C3239" mask="url(#mask-2)"></path>
                <path d="M52.2558594,5.5765625 C49.2382812,3.90820313 38.3484375,11.4594918 32.26875,9.52421875 C26.1890625,7.58894568 24.384375,15.9082031 27.81875,20.9839844 C31.253125,26.0597656 44.8679688,24.8429687 49.4210938,23.8628906 C53.9742188,22.8828125 57.4410156,17.8363281 56.8859375,12.9347656 C56.3308594,8.03320312 55.2734375,7.24492188 52.2558594,5.5765625 Z" id="Path-77" fill="#3C3239" mask="url(#mask-2)"></path>
                <path d="M73.2886719,6.37539062 C71.4164062,6.37539062 60.6566406,6.0921875 61.9617187,15.4523437 C63.2667969,24.8125 62.6203125,31.671875 67.2324219,28.4207031 C71.8445312,25.1695312 75.2667969,24.9097656 75.2667969,20.5160156 C75.2667969,16.1222656 75.1609375,6.37539062 73.2886719,6.37539062 Z" id="Path-78" fill="#3C3239" mask="url(#mask-2)"></path>
                <path d="M60.6249482,30.2863692 C59.7452607,23.037541 40.5862763,28.4621504 38.2401825,29.1613692 C35.8940888,29.8605879 34.8737763,35.5098067 36.8405732,39.9742598 C38.80737,44.4387129 42.1265107,44.3887129 46.7147919,41.9762129 C51.3030732,39.5637129 61.5046357,37.5351973 60.6249482,30.2863692 Z" id="Path-79" fill="#3C3239" mask="url(#mask-2)"></path>
                <path d="M49.4015625,45.2074219 C44.18125,46.5683594 40.4664062,51.2871094 42.2292969,56.8855469 C43.9921875,62.4839844 53.3109375,74.3867187 57.8257812,71.53125 C62.340625,68.6757812 61.0914062,60.5679687 59.4585937,54.5085937 C57.8257812,48.4492187 54.621875,43.8464844 49.4015625,45.2074219 Z" id="Path-80" fill="#3C3239" mask="url(#mask-2)"></path>
                <path d="M43.0585911,66.9528878 C40.6464817,65.8899972 38.8539036,70.525544 38.8539036,76.0001534 C38.8539036,81.4747628 37.3187473,87.5126534 41.7980442,88.528669 C46.2773411,89.5446847 49.0792942,86.3114815 50.6886692,80.0368722 C52.2980442,73.7622628 45.4707004,68.0157784 43.0585911,66.9528878 Z" id="Path-81" fill="#3C3239" mask="url(#mask-2)"></path>
                <path d="M50.721875,97.9617187 C49.334375,94.9703125 40.7359375,92.9210937 35.03125,98.5609375 C29.3265625,104.200781 32.2734375,111.689062 33.6523438,116.516797 C35.03125,121.344531 38.8136719,123.783594 43.9542969,117.588672 C49.0949219,111.39375 52.109375,100.953125 50.721875,97.9617187 Z" id="Path-82" fill="#3C3239" mask="url(#mask-2)"></path>
                <path d="M60.2328125,106.674609 C55.0417969,103.202344 49.8480469,116.710937 47.2023437,119.191406 C44.5566406,121.671875 38.4410156,125.930078 39.8082031,130.081641 C41.1753906,134.233203 49.4664062,141.148047 53.6152344,135.024219 C57.7640625,128.900391 65.4238281,110.146875 60.2328125,106.674609 Z" id="Path-83" fill="#3C3239" mask="url(#mask-2)"></path>
                <path d="M36.3734375,137.589844 C34.309375,140.832031 32.1863281,146.616406 36.4914062,148.940234 C40.7964844,151.264062 43.8558594,151.414062 45.9167969,146.471484 C47.9777344,141.528906 38.4375,134.347656 36.3734375,137.589844 Z" id="Path-84" fill="#3C3239" mask="url(#mask-2)"></path>
                <path d="M32.8066406,154.137109 C29.9628906,157.125391 29.1910156,162.961719 31.7671875,167.321094 C34.3433594,171.680469 36.6183594,177.408203 42.5328125,175.078125 C48.4472656,172.748047 53.1125,168.366016 52.3890625,162.664453 C51.665625,156.962891 35.6503906,151.148828 32.8066406,154.137109 Z" id="Path-85" fill="#3C3239" mask="url(#mask-2)"></path>
                <path d="M44.907336,181.3125 C43.4249142,186.267188 41.2870235,193.525391 44.3932735,197.588281 C47.4995235,201.651172 50.747961,207.895703 57.3620235,204.004297 C63.976086,200.112891 70.9624142,195.114063 70.9624142,186.660156 C70.9624142,178.20625 62.3901485,172.678516 58.8588985,171.4 C55.3276485,170.121484 46.3897579,176.357813 44.907336,181.3125 Z" id="Path-86" fill="#3C3239" mask="url(#mask-2)"></path>
                <path d="M35.2753906,232.290234 C37.6671875,229.089453 46.0855469,225.918359 51.0933594,232.104297 C56.1011719,238.290234 60.4535156,249.008203 54.3058594,251.99375 C48.1582031,254.979297 40.6054688,256.301953 40.0324219,250.597266 C39.459375,244.892578 32.8835938,235.491016 35.2753906,232.290234 Z" id="Path-87" fill="#3C3239" mask="url(#mask-2)"></path>
                <path d="M64.4492187,271.126563 C69.7878906,272.697266 78.096875,268.991406 80.725,262.908984 C83.353125,256.826563 79.2546875,248.510938 71.8519531,243.098828 C64.4492187,237.686719 62.1847656,243.739844 62.1847656,248.425781 C62.1847656,253.111719 59.1105469,269.555859 64.4492187,271.126563 Z" id="Path-88" fill="#3C3239" mask="url(#mask-2)"></path>
                <path d="M83.7648438,247.780469 C87.3378906,246.805859 88.0203125,238.851172 90.0839844,236.468359 C92.1476563,234.085547 94.4742188,228.103125 92.4960938,224.94375 C90.5179688,221.784375 79.5105469,215.114063 75.7011719,218.78125 C71.8917969,222.448437 67.4625,226.937109 70.4125,233.013672 C73.3625,239.090234 80.1917969,248.755078 83.7648438,247.780469 Z" id="Path-89" fill="#3C3239" mask="url(#mask-2)"></path>
                <path d="M69.6339844,212.708594 C66.521875,208.096094 59.13125,204.886328 55.271875,211.057812 C51.4125,217.229297 47.3675781,222.617578 52.6765625,227.885547 C57.9855469,233.153516 60.7933594,232.542187 65.2136719,226.908203 C69.6339844,221.274219 72.7460938,217.321094 69.6339844,212.708594 Z" id="Path-90" fill="#3C3239" mask="url(#mask-2)"></path>
                <path d="M82.5800781,187.019531 C78.6972656,186.573438 68.5425781,199.489062 69.2394531,204.449609 C69.9363281,209.410156 73.1515625,213.062891 78.7148438,211.553906 C84.278125,210.044922 86.9679688,199.707422 86.9679688,195.830469 C86.9679688,191.953516 86.4628906,187.465625 82.5800781,187.019531 Z" id="Path-96" fill="#3C3239" mask="url(#mask-2)"></path>
                <path d="M90.7386719,201.384766 C86.478125,206.327734 85.9257812,215.448828 90.70625,217.663281 C95.4867188,219.877734 98.9324219,215.150781 103.337891,213.358203 C107.743359,211.565625 122.034766,210.942969 122.034766,205.683984 C122.034766,200.425 94.9992187,196.441797 90.7386719,201.384766 Z" id="Path-97" fill="#3C3239" mask="url(#mask-2)"></path>
                <path d="M63.7042969,164.019531 C64.5160156,168.401563 71.0769531,179.075781 76.9117187,179.075781 C82.7464844,179.075781 93.4265625,169.192578 93.4265625,164.707422 C93.4265625,160.222266 86.5673828,151.623438 82.5664062,150.649219 C78.5654297,149.675 62.8925781,159.6375 63.7042969,164.019531 Z" id="Path-98" fill="#3C3239" mask="url(#mask-2)"></path>
                <path d="M49.296875,149.374609 C49.296875,153.033203 53.3925781,158.752734 57.1808594,158.752734 C60.9691406,158.752734 73.6097656,148.701172 74.2386719,145.267188 C74.8675781,141.833203 69.1984375,131.100391 64.6394531,130.004688 C60.0804688,128.908984 49.296875,145.716016 49.296875,149.374609 Z" id="Path-99" fill="#3C3239" mask="url(#mask-2)"></path>
                <path d="M69.6355469,106.074609 C66.9160156,107.893359 63.4203125,118.611719 64.6808594,122.607031 C65.9414062,126.602344 75.9039063,130.012891 79.5152344,127.780469 C83.1265625,125.548047 86.5019531,114.679297 85.1050781,111.803125 C83.7082031,108.926953 72.3550781,104.255859 69.6355469,106.074609 Z" id="Path-100" fill="#3C3239" mask="url(#mask-2)"></path>
                <path d="M81.865625,131.796094 C80.365625,130.576563 75.0007813,131.530859 75.0007813,133.801172 C75.0007813,136.071484 77.2566406,144.253906 78.86875,144.983203 C80.4808594,145.7125 85.4652344,147.168359 87.0566406,145.305078 C88.6480469,143.441797 83.365625,133.015625 81.865625,131.796094 Z" id="Path-101" fill="#3C3239" mask="url(#mask-2)"></path>
                <path d="M91.7875,144.958594 C90.50625,148.794141 91.9324219,154.108984 94.0082031,157.108984 C96.0839844,160.108984 100.415625,164.414062 102.919531,164.414062 C105.423437,164.414062 115.471484,156.854688 116.041406,152.239844 C116.611328,147.625 110.844531,136.5875 106.226562,134.632812 C101.608594,132.678125 93.06875,141.123047 91.7875,144.958594 Z" id="Path-102" fill="#3C3239" mask="url(#mask-2)"></path>
                <path d="M85.5964844,128.799219 C87.5128906,132.965625 91.8980469,134.616016 93.5070313,134.616016 C95.1160156,134.616016 105.527734,121.473828 105.527734,115.804297 C105.527734,110.134766 97.7703125,109.210937 95.6386719,108.652734 C93.5070313,108.094531 83.6800781,124.632812 85.5964844,128.799219 Z" id="Path-103" fill="#3C3239" mask="url(#mask-2)"></path>
                <path d="M102.894141,99.5773437 C101.128516,100.938281 99.046875,102.021875 99.8824219,104.366406 C100.717969,106.710937 107.559766,112.253125 109.853906,111.733594 C112.148047,111.214062 119.982031,109.788281 119.982031,106.528125 C119.982031,103.267969 104.659766,98.2164062 102.894141,99.5773437 Z" id="Path-104" fill="#3C3239" mask="url(#mask-2)"></path>
                <path d="M94.546875,90.4796875 C92.4121094,88.9089844 78.8589844,87.671875 76.7417969,89.8332031 C74.6246094,91.9945313 70.4667969,98.9304688 71.9375,100.911719 C73.4082031,102.892969 82.6472656,108.246484 88.0449219,106.330078 C93.4425781,104.413672 97.9539062,101.898047 98.615625,99.2523438 C99.2773437,96.6066406 96.6816406,92.0503906 94.546875,90.4796875 Z" id="Path-105" fill="#3C3239" mask="url(#mask-2)"></path>
                <path d="M62.9058594,100.466797 C66.21875,100.466797 74.4417969,84.3414062 72.4222656,80.3140625 C70.4027344,76.2867187 59.8703125,73.4722656 57.2867187,75.3652344 C54.703125,77.2582031 51.0210937,87.5984375 52.1519531,91.43125 C53.2828125,95.2640625 59.5929687,100.466797 62.9058594,100.466797 Z" id="Path-106" fill="#3C3239" mask="url(#mask-2)"></path>
                <path d="M68.803125,70.5480469 C73.4476563,71.5523438 75.6152344,69.6179688 77.159375,60.659375 C78.7035156,51.7007813 73.2734375,38.0445313 65.8058594,38.9804688 C58.3382813,39.9164063 58.7128906,43.2207031 60.1984375,47.5789063 C61.6839844,51.9371094 64.1585938,69.54375 68.803125,70.5480469 Z" id="Path-107" fill="#3C3239" mask="url(#mask-2)"></path>
                <path d="M80.6926858,62.2705895 C78.0411233,66.9979332 74.7641701,74.031527 76.8751076,79.0186363 C78.9860451,84.0057457 86.0106545,85.6506676 89.412217,82.5619957 C92.8137795,79.4733238 95.2258889,67.8213707 92.787217,64.4850426 C90.3485451,61.1487145 83.3442483,57.5432457 80.6926858,62.2705895 Z" id="Path-108" fill="#3C3239" mask="url(#mask-2)"></path>
                <path d="M98.3570312,80.2246094 C96.3078125,83.5789062 99.1277344,93.1667969 102.425781,95.2011719 C105.723828,97.2355469 112.302734,98.8238281 115.544922,96.3820312 C118.787109,93.9402344 122.628125,82.2535156 118.642187,78.8871094 C114.65625,75.5207031 100.40625,76.8703125 98.3570312,80.2246094 Z" id="Path-109" fill="#3C3239" mask="url(#mask-2)"></path>
                <path d="M98.2429688,68.3414062 C100.295313,72.1121094 114.066797,74.2792969 118.144531,71.6335937 C122.222266,68.9878906 126.300391,61.7949219 122.869141,58.5617187 C119.437891,55.3285156 103.564063,55.0480469 101.314063,58.121875 C99.0640625,61.1957031 96.190625,64.5707031 98.2429688,68.3414062 Z" id="Path-110" fill="#3C3239" mask="url(#mask-2)"></path>
                <path d="M81.96875,51.5671875 C81.96875,53.6609375 86.0082031,57.975 90.4195313,57.975 C94.8308594,57.975 97.0074219,53.6195313 96.2335938,50.4570312 C95.4597656,47.2945312 81.96875,49.4734375 81.96875,51.5671875 Z" id="Path-111" fill="#3C3239" mask="url(#mask-2)"></path>
                <path d="M73.4441406,33.8964844 C73.4441406,37.4929687 77.6640625,43.9269531 81.6324219,45.0992187 C85.6007813,46.2714844 96.5671875,47.8925781 98.7167969,41.2429687 C100.866406,34.5933594 89.2386719,20.93125 86.1234375,19.0796875 C83.0082031,17.228125 79.9433594,25.1269531 77.6726563,27.6425781 C75.4019531,30.1582031 73.4441406,30.3 73.4441406,33.8964844 Z" id="Path-114" fill="#3C3239" mask="url(#mask-2)"></path>
                <path d="M106.708594,13.3371094 C103.121094,13.8804688 95.7984375,18.7523438 97.5078125,25.2070313 C99.2171875,31.6617188 103.141797,37.6914063 108.716406,38.2082031 C114.291016,38.725 122.133984,40.5589844 125.216406,33.6757813 C128.298828,26.7925781 120.636328,17.6714844 116.969141,15.5042969 C113.301953,13.3371094 110.296094,12.79375 106.708594,13.3371094 Z" id="Path-116" fill="#3C3239" mask="url(#mask-2)"></path>
                <path d="M149.49084,3.4 C142.47209,3.4 130.864668,11.1007813 129.801778,16.6609375 C128.738887,22.2210938 127.032246,29.0710938 133.835371,31.5574219 C140.638496,34.04375 157.268575,23.3605469 158.056856,14.8035156 C158.845137,6.24648438 156.50959,3.4 149.49084,3.4 Z" id="Path-117" fill="#3C3239" mask="url(#mask-2)"></path>
                <path d="M126.811719,81.4308594 C130.342969,85.2519531 141.342578,85.3613281 143.884766,80.7105469 C146.426953,76.0597656 147.985937,60.8175781 144.070703,57.2980469 C140.155469,53.7785156 133.127734,55.18125 131.099219,58.3640625 C129.070703,61.546875 123.280469,77.6097656 126.811719,81.4308594 Z" id="Path-119" fill="#3C3239" mask="url(#mask-2)"></path>
                <path d="M101.259375,49.784375 C102.425781,52.2824219 114.469922,54.7179688 117.416797,52.0105469 C120.363672,49.303125 119.061719,45.228125 117.189453,43.5480469 C115.317187,41.8679688 106.562109,41.4042969 104.563281,42.8835938 C102.564453,44.3628906 100.092969,47.2863281 101.259375,49.784375 Z" id="Path-120" fill="#3C3239" mask="url(#mask-2)"></path>
                <path d="M133.901953,36.9929688 C130.845703,36.4878906 121.648047,39.8839844 122.841016,45.765625 C124.033984,51.6472656 128.111719,53.2183594 133.214062,52.0933594 C138.316406,50.9683594 145.228906,52.2734375 145.228906,46.5214844 C145.228906,40.7695312 136.958203,37.4980469 133.901953,36.9929688 Z" id="Path-121" fill="#3C3239" mask="url(#mask-2)"></path>
                <path d="M153.478516,48.2539062 C149.123047,50.0550781 145.244734,54.5726562 147.729688,57.5785156 C150.214641,60.584375 150.738672,64.8628906 156.428516,64.8628906 C162.118359,64.8628906 166.866797,65.7460938 166.432422,58.3375 C165.998047,50.9289062 157.833984,46.4527344 153.478516,48.2539062 Z" id="Path-122" fill="#3C3239" mask="url(#mask-2)"></path>
                <path d="M164.627734,21.4027344 C161.518359,20.7292969 148.166016,30.2699219 149.344141,36.7570312 C150.522266,43.2441406 162.112109,48.1460937 168.002734,45.2816406 C173.893359,42.4171875 176.258594,35.6851562 175.225,30.01875 C174.191406,24.3523437 167.737109,22.0761719 164.627734,21.4027344 Z" id="Path-123" fill="#3C3239" mask="url(#mask-2)"></path>
                <path d="M176.453498,14.409375 C173.896076,17.5480469 177.330451,28.4914062 183.495685,32.3859375 C189.66092,36.2804688 197.030841,31.7304687 199.726935,24.4164062 C202.423029,17.1023438 207.321466,12.5195312 200.524201,9 C193.726935,5.48046875 179.01092,11.2707031 176.453498,14.409375 Z" id="Path-124" fill="#3C3239" mask="url(#mask-2)"></path>
                <path d="M184.979687,39.0546875 C182.310156,37.0617188 172.698828,42.5714844 171.804297,49.2890625 C170.909766,56.0066406 171.116406,61.5988281 175.495312,63.4503906 C179.874219,65.3019531 184.717187,68.3839844 189.4,62.0949219 C194.082812,55.8058594 187.649219,41.0476563 184.979687,39.0546875 Z" id="Path-125" fill="#3C3239" mask="url(#mask-2)"></path>
                <path d="M197.339844,34.0941406 C194.750391,35.4820312 191.859375,40.4804687 194.21875,44.2957031 C196.578125,48.1109375 200.478125,50.1829708 202.598438,45.6835937 C204.71875,41.1842167 206.135938,38.4757812 203.398828,36.509375 C200.661719,34.5429687 199.929297,32.70625 197.339844,34.0941406 Z" id="Path-126" fill="#3C3239" mask="url(#mask-2)"></path>
                <path d="M203.099609,56.5703125 C199.071875,54.4355469 195.611719,57.7925781 193.913672,62.4136719 C192.215625,67.0347656 193.482812,70.7289062 196.754297,73.2386719 C200.025781,75.7484375 208.015625,73.4242187 209.698828,68.7621094 C211.382031,64.1 207.127344,58.7050781 203.099609,56.5703125 Z" id="Path-127" fill="#3C3239" mask="url(#mask-2)"></path>
                <path d="M192.045313,95.190625 C188.307031,96.4339844 187.672266,106.370312 186.742188,110.678125 C185.812109,114.985937 183.998828,117.917969 187.689844,121.461328 C191.380859,125.004687 198.629688,125.707422 204.638672,118.671094 C210.647656,111.634766 206.244829,103.588281 201.376172,99.3894531 C196.507514,95.190625 195.783594,93.9472656 192.045313,95.190625 Z" id="Path-128" fill="#3C3239" mask="url(#mask-2)"></path>
                <path d="M202.916016,128.01875 C199.957422,126.489062 191.746094,127.460547 189.761719,133.634766 C187.777344,139.808984 196.512109,148.971484 201.200781,143.057031 C205.889453,137.142578 205.874609,129.548437 202.916016,128.01875 Z" id="Path-129" fill="#3C3239" mask="url(#mask-2)"></path>
                <path d="M214.292578,136.024219 C209.169531,137.223047 202.047266,147.454297 203.872266,153.516406 C205.697266,159.578516 221.347266,168.817188 226.853906,166.021094 C232.360547,163.225 238.428125,153.114453 235.894922,147.634375 C233.361719,142.154297 219.415625,134.825391 214.292578,136.024219 Z" id="Path-130" fill="#3C3239" mask="url(#mask-2)"></path>
                <path d="M220.167188,171.891016 C215.720313,168.920703 207.807422,163.003125 204.529688,170.580078 C201.251953,178.157031 205.696094,179.441406 206.812109,183.926563 C207.928125,188.411719 205.258594,196.541016 211.4625,197.757422 C217.666406,198.973828 216.078125,190.340234 219.302344,185.08125 C222.526563,179.822266 224.614063,174.861328 220.167188,171.891016 Z" id="Path-131" fill="#3C3239" mask="url(#mask-2)"></path>
                <path d="M200.836719,198.610938 C196.587891,198.610938 191.547266,204.002344 192.016797,208.419922 C192.486328,212.8375 202.404297,212.545313 204.418359,209.952734 C206.432422,207.360156 205.085547,198.610938 200.836719,198.610938 Z" id="Path-132" fill="#3C3239" mask="url(#mask-2)"></path>
                <path d="M191.598437,215.812109 C187.878125,218.835547 187.299609,243.157031 193.001172,245.224219 C198.702734,247.291406 208.210938,224.519531 204.525781,218.882813 C200.840625,213.246094 195.31875,212.788672 191.598437,215.812109 Z" id="Path-133" fill="#3C3239" mask="url(#mask-2)"></path>
                <path d="M176.216406,227.328125 C171.872656,225.606641 156.760938,230.555078 155.517578,238.058203 C154.274219,245.561328 168.214063,257.873828 175.764453,253.988281 C183.314844,250.102734 185.482031,254.218359 187.135547,247.920313 C188.789062,241.622266 180.560156,229.049609 176.216406,227.328125 Z" id="Path-134" fill="#3C3239" mask="url(#mask-2)"></path>
                <path d="M137.208203,239.146094 C132.746484,240.188672 126.185648,248.748438 129.542578,256.405078 C132.899508,264.061719 136.163281,267.953125 144.20625,267.158984 C152.249219,266.364844 154.747266,259.517578 153.932422,251.908203 C153.117578,244.298828 141.669922,238.103516 137.208203,239.146094 Z" id="Path-137" fill="#3C3239" mask="url(#mask-2)"></path>
                <path d="M169.154688,259.277734 C164.831641,256.962891 159.147266,259.392969 155.246875,266.686328 C151.346484,273.979688 157.742188,279.68125 154.452734,288.285547 C151.163281,296.889844 154.697656,296.943359 156.428125,297.583984 C158.158594,298.224609 160.378906,298.446094 166.325781,286.499219 C172.272656,274.552344 173.477734,261.592578 169.154688,259.277734 Z" id="Path-138" fill="#3C3239" mask="url(#mask-2)"></path>
                <path d="M184.790234,257.566016 C180.644531,257.146875 175.976172,256.462109 175.976172,267.286719 C175.976172,278.111328 178.870312,283.621484 183.954687,284.837891 C189.039062,286.054297 193.426953,280.683203 196.1375,274.402734 C198.848047,268.122266 188.935937,257.985156 184.790234,257.566016 Z" id="Path-139" fill="#3C3239" mask="url(#mask-2)"></path>
                <path d="M197.166016,250.283594 C194.089453,253.605469 195.633984,261.471484 200.083594,266.361328 C204.533203,271.251172 214.598828,278.352734 219.99375,275.007031 C225.388672,271.661328 223.808594,258.698828 221.381641,253.469531 C218.954688,248.240234 200.242578,246.961719 197.166016,250.283594 Z" id="Path-140" fill="#3C3239" mask="url(#mask-2)"></path>
                <path d="M223,290.680191 C224.482422,294.143863 234.601172,294.513004 238.401563,292.062222 C242.201953,289.611441 247.224609,276.312222 242.491406,271.062222 C237.758203,265.812222 233.272266,264.185269 229.555078,269.340738 C225.837891,274.496207 221.517578,287.216519 223,290.680191 Z" id="Path-141" fill="#3C3239" mask="url(#mask-2)"></path>
                <path d="M260.558984,268.983594 C255.810938,267.595703 249.725,276.548828 248.963281,281.807422 C248.201563,287.066016 251.665625,289.696875 255.403516,291.808203 C259.141406,293.919531 268.696484,283.389844 269.292969,279.005078 C269.889453,274.620313 265.307031,270.371484 260.558984,268.983594 Z" id="Path-142" fill="#3C3239" mask="url(#mask-2)"></path>
                <path d="M283.728906,282.283984 C285.677734,280.411719 284.171875,272.545703 281.70625,269.979687 C279.240625,267.413672 274.908594,268.054687 274.117578,272.04375 C273.326563,276.032812 273.138294,281.268359 276.128516,282.980859 C279.118737,284.693359 281.780078,284.15625 283.728906,282.283984 Z" id="Path-143" fill="#3C3239" mask="url(#mask-2)"></path>
                <path d="M263.086328,258.192188 C265.649219,264.703125 276.199219,266.917578 278.821484,262.786719 C281.44375,258.655859 281.287109,244.709766 278.603125,239.064063 C275.919141,233.418359 269.723828,236.619141 265.74375,237.156641 C261.763672,237.694141 260.523438,251.68125 263.086328,258.192188 Z" id="Path-144" fill="#3C3239" mask="url(#mask-2)"></path>
                <path d="M242.63125,265.269531 C245.693359,267.717188 251.492578,266.400391 255.180469,263.459375 C258.868359,260.518359 260.84375,253.662109 258.012109,246.430859 C255.180469,239.199609 245.941797,236.607031 239.876563,241.086328 C233.811328,245.565625 228.750391,249.599609 232.287891,255.327734 C235.825391,261.055859 239.569141,262.821875 242.63125,265.269531 Z" id="Path-145" fill="#3C3239" mask="url(#mask-2)"></path>
                <path d="M207.885938,240.683203 C210.853516,244.728516 218.321094,247.433203 223.55625,246.922266 C228.791406,246.411328 236.622266,242.271875 236.622266,235.740234 C236.622266,229.208594 226.128516,219.086719 220.057422,217.814062 C213.986328,216.541406 212.093359,220.054687 210.248047,224.741016 C208.402734,229.427344 204.918359,236.637891 207.885938,240.683203 Z" id="Path-146" fill="#3C3239" mask="url(#mask-2)"></path>
                <path d="M211.396094,203.186328 C209.639062,205.699219 209.783984,208.926563 212.515234,211.108594 C215.246484,213.290625 227.692578,217.061328 231.681641,217.061328 C235.670703,217.061328 242.033984,211.501172 240.117578,204.13125 C238.201172,196.761328 231.840625,195.054297 227.048438,196.442188 C222.25625,197.830078 213.153125,200.673438 211.396094,203.186328 Z" id="Path-147" fill="#3C3239" mask="url(#mask-2)"></path>
                <path d="M260.756641,205.416797 C257.597266,203.337891 249.512891,201.220703 246.167188,207.451172 C242.821484,213.681641 237.164063,218.182031 238.430859,222.903125 C239.697656,227.624219 247.770313,234.637109 254.65625,234.637109 C261.542188,234.637109 265.652734,234.885547 267.176172,226.210156 C268.699609,217.534766 263.916016,207.495703 260.756641,205.416797 Z" id="Path-148" fill="#3C3239" mask="url(#mask-2)"></path>
                <path d="M276.435937,210.814453 C272.857031,210.814453 271.566406,214.242578 271.067578,218.981641 C270.56875,223.720703 270.303125,230.739453 274.614062,230.739453 C278.925,230.739453 280.398438,227.072656 280.398438,221.450391 C280.398438,215.828125 280.014844,210.814453 276.435937,210.814453 Z" id="Path-149" fill="#3C3239" mask="url(#mask-2)"></path>
                <path d="M273.651172,205.221094 C277.073047,206.124609 282.114063,200.269141 283.026172,194.564453 C283.938281,188.859766 282.353125,184.300781 281.880469,177.999609 C281.407813,171.698437 273.774609,167.178125 267.497266,170.883594 C261.219922,174.589063 255.580078,178.991797 259.445312,186.778125 C263.310547,194.564453 270.229297,204.317578 273.651172,205.221094 Z" id="Path-150" fill="#3C3239" mask="url(#mask-2)"></path>
                <path d="M247.38523,197.202439 C251.164918,198.362986 255.537965,198.95908 255.537965,193.585252 C255.537965,188.211424 254.73484,175.136424 248.212184,173.214158 C241.689527,171.291892 230.99773,170.30283 230.14734,177.206345 C229.296949,184.109861 228.091871,188.866892 233.462965,191.810642 C238.834059,194.754392 243.605543,196.041892 247.38523,197.202439 Z" id="Path-153" fill="#3C3239" mask="url(#mask-2)"></path>
                <path d="M239.229687,158.232812 C238.600781,162.499609 236.164844,163.252344 241.039844,166.199219 C245.914844,169.146094 251.814453,173.2125 256.299609,170.590234 C260.784766,167.967969 267.531641,164.014453 265.364453,157.101953 C263.197266,150.189453 249.818359,141.295703 246.068359,144.183594 C242.318359,147.071484 239.858594,153.966016 239.229687,158.232812 Z" id="Path-154" fill="#3C3239" mask="url(#mask-2)"></path>
                <path d="M270.430859,162.332422 C270.430859,164.966016 281.414844,169.935156 284.096094,165.29375 C286.777344,160.652344 282.575781,151.300391 280.98125,148.339063 C279.386719,145.377734 275.645703,144.839844 271.939844,146.797656 C268.233984,148.755469 270.430859,159.698828 270.430859,162.332422 Z" id="Path-155" fill="#3C3239" mask="url(#mask-2)"></path>
                <path d="M283.846484,137.780859 C286.297266,134.748437 283.114453,124.753516 280.569141,120.096875 C278.023828,115.440234 252.184375,119.506641 250.356641,123.427734 C248.528906,127.348828 244.592969,135.462891 249.2375,137.807422 C253.882031,140.151953 259.291797,146.296484 263.587891,144.161719 C267.883984,142.026953 281.395703,140.813281 283.846484,137.780859 Z" id="Path-156" fill="#3C3239" mask="url(#mask-2)"></path>
                <path d="M221.746875,130.950781 C222.671094,134.060156 234.511328,141.958594 238.323438,140.272656 C242.135547,138.586719 248.079297,121.649609 245.283203,118.321875 C242.487109,114.994141 227.560547,115.439844 225.467188,118.038281 C223.373828,120.636719 220.822656,127.841406 221.746875,130.950781 Z" id="Path-157" fill="#3C3239" mask="url(#mask-2)"></path>
                <path d="M206.8,124.85017 C206.8,126.890795 209.141406,131.925561 212.510547,131.116186 C215.879688,130.306811 222.319141,121.044311 221.079297,116.688842 C219.839453,112.333373 216.996094,109.823608 214.294141,110.815795 C211.592188,111.807983 206.8,122.809545 206.8,124.85017 Z" id="Path-158" fill="#3C3239" mask="url(#mask-2)"></path>
                <path d="M216.572488,99.0280915 C215.740067,101.617545 217.84202,109.200357 224.595145,111.37067 C231.34827,113.540982 240.428348,115.208223 241.804129,110.762466 C243.17991,106.31671 232.109988,99.5237946 229.257645,97.6194977 C226.405301,95.7152009 217.40491,96.4386384 216.572488,99.0280915 Z" id="Path-161" fill="#3C3239" mask="url(#mask-2)"></path>
                <path d="M203.482812,77.8933594 C200.075391,79.6828125 198.8,85.0476562 198.8,88.9957031 C198.8,92.94375 205.767969,97.9132812 207.908984,99.0117187 C210.05,100.110156 214.5,92.73125 218.94375,92.73125 C223.3875,92.73125 228.720312,88.7359375 228.31875,82.9515625 C227.917187,77.1671875 222.203516,72.8 216.673047,72.8 C211.142578,72.8 206.890234,76.1039062 203.482812,77.8933594 Z" id="Path-162" fill="#3C3239" mask="url(#mask-2)"></path>
                <path d="M237.306641,74.3054688 C233.426562,75.6253906 232.059078,93.2828125 233.644922,95.5742187 C235.230766,97.865625 240.888281,102.598828 244.576172,102.598828 C248.264062,102.598828 253.641406,102.551562 256.0625,97.5761719 C258.483594,92.6007812 260.928125,83.7925781 258.495312,81.7789062 C256.0625,79.7652344 241.186719,72.9855469 237.306641,74.3054688 Z" id="Path-163" fill="#3C3239" mask="url(#mask-2)"></path>
                <path d="M264.141016,101.591797 C262.384375,100.532031 250.608984,104.196484 248.736719,106.912891 C246.864453,109.629297 247.189453,112.744531 249.905859,114.725781 C252.622266,116.707031 256.812109,116.739063 259.546484,115.198047 C262.280859,113.657031 265.897656,102.651563 264.141016,101.591797 Z" id="Path-164" fill="#3C3239" mask="url(#mask-2)"></path>
                <path d="M267.217969,111.530859 C267.947266,113.491406 277.608203,115.101172 279.997266,113.630469 C282.386328,112.159766 287.137109,94.0058594 283.567187,90.6164063 C279.997266,87.2269531 274.490625,87.9976562 272.408984,90.9679688 C270.327344,93.9382813 266.488672,109.570313 267.217969,111.530859 Z" id="Path-165" fill="#3C3239" mask="url(#mask-2)"></path>
                <path d="M268.245313,79.5554687 C266.447266,79.0386719 262.519922,87.2269531 261.958984,90.8734375 C261.398047,94.5199219 262.721094,98.7601562 264.702344,97.3960937 C266.683594,96.0320312 268.124219,91.3550781 270.061328,87.9621094 C271.998437,84.5691406 270.043359,80.0722656 268.245313,79.5554687 Z" id="Path-166" fill="#3C3239" mask="url(#mask-2)"></path>
                <path d="M269.680078,73.3964355 C271.377734,77.7253417 273.580469,87.0796386 279.601172,84.3956542 C285.621875,81.7116698 285.783984,60.9714355 282.692578,58.1780761 C279.601172,55.3847167 270.651563,56.9437011 268.8,59.6897948 C266.948438,62.4358886 267.982422,69.0675292 269.680078,73.3964355 Z" id="Path-167" fill="#3C3239" mask="url(#mask-2)"></path>
                <path d="M262.327734,76.1472656 C264.388672,74.7269531 264.35625,59.5789062 260.432031,56.3164062 C256.507813,53.0539062 244.605469,52.2355469 243.397656,59.2101562 C242.189844,66.1847656 239.957813,68.9335937 242.957813,70.3390625 C245.957813,71.7445312 260.266797,77.5675781 262.327734,76.1472656 Z" id="Path-168" fill="#3C3239" mask="url(#mask-2)"></path>
                <path d="M230.975391,72.5742187 C234.294141,70.85 237.04375,70.3300781 238.177344,66.29375 C239.310938,62.2574219 246.170313,54.8664062 239.942969,50.6914062 C233.715625,46.5164062 227.417188,42.1875 224.928125,44.5261719 C222.439063,46.8648437 222.397656,54.725 222.397656,60.509375 C222.397656,66.29375 227.656641,74.2984375 230.975391,72.5742187 Z" id="Path-169" fill="#3C3239" mask="url(#mask-2)"></path>
                <path d="M215.750781,42.8756942 C213.619141,42.1995223 208.8,46.1889754 208.8,49.4397567 C208.8,52.6905379 214.114844,65.3788192 216.004688,64.8471785 C217.894531,64.3155379 218.682813,53.1835067 219.214453,49.173741 C219.746094,45.1639754 217.882422,43.551866 215.750781,42.8756942 Z" id="Path-170" fill="#3C3239" mask="url(#mask-2)"></path>
                <path d="M206.638281,19.5820312 C205.164844,23.0132813 202.309375,27.3507812 204.473828,30.5722656 C206.638281,33.79375 213.642188,41.8015625 216.816406,39.7847656 C219.990625,37.7679688 227.723828,31.3519531 225.476953,26.3203125 C223.230078,21.2886719 208.111719,16.1507813 206.638281,19.5820312 Z" id="Path-171" fill="#3C3239" mask="url(#mask-2)"></path>
                <path d="M217.62012,14.3229698 C216.896967,15.7955709 235.890669,29.4316119 238.659068,25.9451102 C241.427467,22.4586085 240.913743,19.2023872 240.500514,16.965578 C240.087284,14.7287688 218.343272,12.8503686 217.62012,14.3229698 Z" id="Path-172" fill="#3C3239" mask="url(#mask-2)"></path>
                <path d="M234.352734,29.4441406 C231.960937,29.4441406 225.323047,34.3933594 227.21875,38.3824219 C229.114453,42.3714844 243.364844,51.8765625 246.727734,48.5074219 C250.090625,45.1382813 252.163281,42.5011719 250.592578,39.25625 C249.021875,36.0113281 236.744531,29.4441406 234.352734,29.4441406 Z" id="Path-173" fill="#3C3239" mask="url(#mask-2)"></path>
                <path d="M242.646875,25.0359375 C242.646875,27.2269531 255.476172,37.2871094 257.992188,34.9277344 C260.508203,32.5683594 265.344922,23.6390625 263.313281,20.7484375 C261.281641,17.8578125 255.125391,12.8050781 251.676563,13.5464844 C248.227734,14.2878906 242.646875,22.8449219 242.646875,25.0359375 Z" id="Path-174" fill="#3C3239" mask="url(#mask-2)"></path>
                <path d="M280.951702,22.068288 C278.604437,19.8596942 271.892327,18.8288349 269.323577,22.0237567 C266.754827,25.2186786 262.092327,35.2553974 264.442718,39.2975849 C266.793108,43.3397724 275.028655,49.7593036 276.983343,47.9846942 C278.93803,46.2100849 280.857562,37.1479755 282.186077,34.174538 C283.514593,31.2011005 283.298968,24.2768817 280.951702,22.068288 Z" id="Path-175" fill="#3C3239" mask="url(#mask-2)"></path>
                <path d="M256.41718,41.1658753 C254.76093,41.1658753 253.039446,46.0467346 253.774602,47.2041565 C254.509758,48.3615784 259.886712,53.0947815 263.249993,51.9639221 C266.613274,50.8330628 269.356243,49.5459534 268.706633,47.8686096 C268.057024,46.1912659 258.07343,41.1658753 256.41718,41.1658753 Z" id="Path-176" fill="#3C3239" mask="url(#mask-2)"></path>
                <path d="M284.387891,11.9230469 C283.791406,11.3148438 280.635156,10.3347656 279.991406,12.7027344 C279.347656,15.0707031 280.106641,17.6132813 282.247266,17.14375 C284.387891,16.6742188 285.973828,16.0863281 285.542578,14.3945313 C285.111328,12.7027344 284.984375,12.53125 284.387891,11.9230469 Z" id="Path-177" fill="#3C3239" mask="url(#mask-2)"></path>
            </g>
        </g>
    </g>
</svg>