<svg xmlns="http://www.w3.org/2000/svg" xmlns:html="http://www.w3.org/1999/xhtml" xmlns:xlink="http://www.w3.org/1999/xlink" version="1.1" class="blocklySvg" width="1174px" height="75px">


    <g data-shapes="stack" transform="translate(45,10)">
        <path class="blocklyPath blocklyBlockBackground" fill="#ee0000" fill-opacity="1"
              d="
              m 13,0

              A 13,13 0 0,0 0,13
              V 15.35
              c 0,2 1,3 2,4

              l 3.5,3.5

              c 1.2,1.2 1.2,3.2 0,4.3

              l -3.5,3.5
              c -1,1 -2,2 -2,4
              V 37
              a 13,13 0 0,0 13,13
              H 37
              a 13,13 0 0,0 13,-13
              v -2.35
              c 0,-2 1,-3 2,-4 l 3.5,-3.5
              c 1.2,-1.2 1.2,-3.2 0,-4.3
              l -3.5,-3.5
              c -1,-1 -2,-2 -2,-4
              V 13
              a 13,13 0 0,0 -13,-13
              z

">

        </path>
        <path fill="#00ee00" fill-opacity="1"
              d="

              m 13,2

              A 11,11 0 0,0 2,13

              V 15.35

              c 0,2 1,3 2,4

              l 3.5,3.5

              c 1.2,1.2 1.2,3.2 0,4.3

              l -3.5,3.5
              c -1,1 -2,2 -2,4
              V 37
              a 11,11 0 0,0 11,11
              H 37
              a 11,11 0 0,0 11,-11
              v -2.35
              c 0,-2 1,-3 2,-4 l 3.5,-3.5
              c 1.2,-1.2 1.2,-3.2 0,-4.3
              l -3.5,-3.5
              c -1,-1 -2,-2 -2,-4
              V 13
              a 11,11 0 0,0 -11,-11
              z

"
        >

        </path>
    </g>
        <g transform="translate(132.5,12.5) scale(1 1)">
            <path fill="#0000FF" fill-opacity="1" d="m 13,0 A 13,13 0 0,0 0,13 V 15.349999999999998 c 0,2 1,3 2,4 l 3.5,3.5 c 1.2,1.2 1.2,3.2 0,4.3 l -3.5,3.5 c -1,1 -2,2 -2,4 V 37 a 13,13 0 0,0 13,13 H 37 a 13,13 0 0,0 13,-13 v -2.3499999999999996 c 0,-2 1,-3 2,-4 l 3.5,-3.5 c 1.2,-1.2 1.2,-3.2 0,-4.3 l -3.5,-3.5 c -1,-1 -2,-2 -2,-4 V 13 a 13,13 0 0,0 -13,-13 z"></path>
        </g>

</svg>