<?xml version="1.0" encoding="UTF-8"?>
<svg width="108px" height="108px" viewBox="0 0 108 108" version="1.1" xmlns="http://www.w3.org/2000/svg" xmlns:xlink="http://www.w3.org/1999/xlink">
    <!-- Generator: Sketch 43.2 (39069) - http://www.bohemiancoding.com/sketch -->
    <title>arr_up</title>
    <desc>Created with Sketch.</desc>
    <defs></defs>
    <g id="Page-1-Copy" stroke="none" stroke-width="1" fill="none" fill-rule="evenodd">
        <g id="arr_up" fill-rule="nonzero" fill="#FFFFFF">
            <path d="M33.493751,59.993751 L73.506249,59.993751 C75.9915304,59.993751 78.006249,57.9790324 78.006249,55.493751 C78.006249,53.0084696 75.9915304,50.993751 73.506249,50.993751 L33.493751,50.993751 C31.0084696,50.993751 28.993751,53.0084696 28.993751,55.493751 C28.993751,57.9790324 31.0084696,59.993751 33.493751,59.993751 Z" id="Line" transform="translate(53.500000, 55.493751) rotate(-90.000000) translate(-53.500000, -55.493751) "></path>
            <path d="M39.7855339,59.986544 C38.0281746,61.7439033 38.0281746,64.5931458 39.7855339,66.3505051 C41.5428932,68.1078644 44.3921356,68.1078644 46.1494949,66.3505051 L69.1304653,43.3695347 L46.1494949,20.3885643 C44.3921356,18.631205 41.5428932,18.631205 39.7855339,20.3885643 C38.0281746,22.1459236 38.0281746,24.995166 39.7855339,26.7525253 L56.4025433,43.3695347 L39.7855339,59.986544 Z" id="Rectangle-2" transform="translate(53.798990, 43.369535) rotate(-90.000000) translate(-53.798990, -43.369535) "></path>
        </g>
    </g>
</svg>