<?xml version="1.0" encoding="UTF-8"?>
<svg width="68px" height="68px" viewBox="0 0 68 68" version="1.1" xmlns="http://www.w3.org/2000/svg" xmlns:xlink="http://www.w3.org/1999/xlink">
    <!-- Generator: Sketch 43.2 (39069) - http://www.bohemiancoding.com/sketch -->
    <title>arr_right_drag</title>
    <desc>Created with Sketch.</desc>
    <defs></defs>
    <g id="Page-1" stroke="none" stroke-width="1" fill="none" fill-rule="evenodd">
        <g id="arr_right_drag">
            <path d="M9,24.1980463 L9,22.9942738 C9,15.2654498 15.2692748,9 22.9942738,9 L45.0057262,9 C52.7345502,9 59,15.2692748 59,22.9942738 L59,24.1980463 L59,25.396093 C59,26.4991741 59.6314411,28.0248393 60.4153625,28.8087608 L63.9856897,32.379088 C65.1570371,33.5504354 65.1560022,35.4505995 63.9856897,36.620912 L60.4153625,40.1912392 C59.6336794,40.9729223 59,42.4972117 59,43.6149041 L59,45.0057262 C59,52.7345502 52.7307252,59 45.0057262,59 L22.9942738,59 C15.2654498,59 9,52.7307252 9,45.0057262 L9,43.6149038 C9,42.4972118 9.6336794,40.9729223 10.4153625,40.1912392 L13.9856897,36.620912 C15.1560022,35.4505995 15.1570371,33.5504354 13.9856897,32.379088 L10.4153625,28.8087608 C9.63144105,28.0248393 9,26.4991741 9,25.3960927 L9,43.6149038 Z" id="Combined-Shape" fill="#9AF773"></path>
            <path d="M24,32 C22.8681641,32.0151367 22.0803223,32.7810059 22.045166,34 C22.1540527,35.3129883 22.9697266,36.1452637 24,36 L38,36 L32,42 C31.2282715,42.7797852 30.982666,43.6472168 31.6103516,44.5698242 C32.8683,45.7777509 33.8303223,45.8837891 35,45 L46,34 L35,24 C33.9833984,23.0109863 32.8683,22.7920733 31.6103516,24 C31.244934,24.4554867 31.0085449,25.9084473 32,27 L38,32 L24,32 Z" id="Combined-Shape" fill="#FFFFFF" fill-rule="nonzero"></path>
        </g>
    </g>
</svg>