<?xml version="1.0" encoding="UTF-8"?>
<svg width="108px" height="108px" viewBox="0 0 108 108" version="1.1" xmlns="http://www.w3.org/2000/svg" xmlns:xlink="http://www.w3.org/1999/xlink">
    <!-- Generator: Sketch 43.2 (39069) - http://www.bohemiancoding.com/sketch -->
    <title>arr_left</title>
    <desc>Created with Sketch.</desc>
    <defs></defs>
    <g id="Page-1-Copy" stroke="none" stroke-width="1" fill="none" fill-rule="evenodd">
        <g id="arr_left" fill-rule="nonzero" fill="#FFFFFF">
            <path d="M34.487502,58 L74.5,58 C76.9852814,58 79,55.9852814 79,53.5 C79,51.0147186 76.9852814,49 74.5,49 L34.487502,49 C32.0022206,49 29.987502,51.0147186 29.987502,53.5 C29.987502,55.9852814 32.0022206,58 34.487502,58 Z" id="Line" transform="translate(54.493751, 53.500000) scale(-1, 1) translate(-54.493751, -53.500000) "></path>
            <path d="M28.3560787,70.4159992 C26.5987194,72.1733585 26.5987194,75.0226009 28.3560787,76.7799603 C30.113438,78.5373196 32.9626804,78.5373196 34.7200397,76.7799603 L57.7010101,53.7989899 L34.7200397,30.8180195 C32.9626804,29.0606602 30.113438,29.0606602 28.3560787,30.8180195 C26.5987194,32.5753788 26.5987194,35.4246212 28.3560787,37.1819805 L44.9730881,53.7989899 L28.3560787,70.4159992 Z" id="Rectangle-2" transform="translate(42.369535, 53.798990) scale(-1, 1) translate(-42.369535, -53.798990) "></path>
        </g>
    </g>
</svg>