<?xml version="1.0" encoding="UTF-8"?>
<svg width="68px" height="68px" viewBox="0 0 68 68" version="1.1" xmlns="http://www.w3.org/2000/svg" xmlns:xlink="http://www.w3.org/1999/xlink">
    <!-- Generator: Sketch 43.2 (39069) - http://www.bohemiancoding.com/sketch -->
    <title>arr_right_button</title>
    <desc>Created with Sketch.</desc>
    <defs></defs>
    <g id="Page-1" stroke="none" stroke-width="1" fill="none" fill-rule="evenodd">
        <g id="arr_right_button">
            <rect id="Combined-Shape-Copy" fill="#85C06D" x="9" y="14" width="50" height="50" rx="14"></rect>
            <rect id="Combined-Shape" fill="#99F673" x="9" y="9" width="50" height="50" rx="14"></rect>
            <path d="M24,32 C22.8681641,32.0151367 22.0803223,32.7810059 22.045166,34 C22.1540527,35.3129883 22.9697266,36.1452637 24,36 L38,36 L32,42 C31.2282715,42.7797852 30.982666,43.6472168 31.6103516,44.5698242 C32.8683,45.7777509 33.8303223,45.8837891 35,45 L46,34 L35,24 C33.9833984,23.0109863 32.8683,22.7920733 31.6103516,24 C31.244934,24.4554867 31.0085449,25.9084473 32,27 L38,32 L24,32 Z" id="Combined-Shape" fill="#FFFFFF" fill-rule="nonzero"></path>
        </g>
    </g>
</svg>