<?xml version="1.0" encoding="UTF-8"?>
<svg width="108px" height="108px" viewBox="0 0 108 108" version="1.1" xmlns="http://www.w3.org/2000/svg" xmlns:xlink="http://www.w3.org/1999/xlink">
    <!-- Generator: Sketch 43.2 (39069) - http://www.bohemiancoding.com/sketch -->
    <title>arr_down</title>
    <desc>Created with Sketch.</desc>
    <defs></defs>
    <g id="Page-1-Copy" stroke="none" stroke-width="1" fill="none" fill-rule="evenodd">
        <g id="arr_down" fill-rule="nonzero" fill="#FFFFFF">
            <path d="M33.493751,57.006249 L73.506249,57.006249 C75.9915304,57.006249 78.006249,54.9915304 78.006249,52.506249 C78.006249,50.0209676 75.9915304,48.006249 73.506249,48.006249 L33.493751,48.006249 C31.0084696,48.006249 28.993751,50.0209676 28.993751,52.506249 C28.993751,54.9915304 31.0084696,57.006249 33.493751,57.006249 Z" id="Line" transform="translate(53.500000, 52.506249) scale(1, -1) rotate(-90.000000) translate(-53.500000, -52.506249) "></path>
            <path d="M39.7855339,81.2474747 C38.0281746,83.004834 38.0281746,85.8540764 39.7855339,87.6114357 C41.5428932,89.368795 44.3921356,89.368795 46.1494949,87.6114357 L69.1304653,64.6304653 L46.1494949,41.6494949 C44.3921356,39.8921356 41.5428932,39.8921356 39.7855339,41.6494949 C38.0281746,43.4068542 38.0281746,46.2560967 39.7855339,48.013456 L56.4025433,64.6304653 L39.7855339,81.2474747 Z" id="Rectangle-2" transform="translate(53.798990, 64.630465) scale(1, -1) rotate(-90.000000) translate(-53.798990, -64.630465) "></path>
        </g>
    </g>
</svg>