<?xml version="1.0" encoding="UTF-8"?>
<svg width="68px" height="68px" viewBox="0 0 68 68" version="1.1" xmlns="http://www.w3.org/2000/svg" xmlns:xlink="http://www.w3.org/1999/xlink">
    <!-- Generator: Sketch 43.2 (39069) - http://www.bohemiancoding.com/sketch -->
    <title>arr_right_button-active</title>
    <desc>Created with Sketch.</desc>
    <defs></defs>
    <g id="Page-1" stroke="none" stroke-width="1" fill="none" fill-rule="evenodd">
        <g id="arr_right_button-active">
            <rect id="Combined-Shape-Copy" fill="#85C06D" x="9" y="14" width="50" height="50" rx="14"></rect>
            <rect id="Combined-Shape" fill="#B1FF80" x="9" y="11" width="50" height="50" rx="14"></rect>
            <path d="M24,34 C22.8681641,34.0151367 22.0803223,34.7810059 22.045166,36 C22.1540527,37.3129883 22.9697266,38.1452637 24,38 L38,38 L32,44 C31.2282715,44.7797852 30.982666,45.6472168 31.6103516,46.5698242 C32.8683,47.7777509 33.8303223,47.8837891 35,47 L46,36 L35,26 C33.9833984,25.0109863 32.8683,24.7920733 31.6103516,26 C31.244934,26.4554867 31.0085449,27.9084473 32,29 L38,34 L24,34 Z" id="Combined-Shape" fill="#FFFFFF" fill-rule="nonzero"></path>
        </g>
    </g>
</svg>