<?xml version="1.0" encoding="UTF-8"?>
<svg width="108px" height="108px" viewBox="0 0 108 108" version="1.1" xmlns="http://www.w3.org/2000/svg" xmlns:xlink="http://www.w3.org/1999/xlink">
    <!-- Generator: Sketch 43.2 (39069) - http://www.bohemiancoding.com/sketch -->
    <title>backspace</title>
    <desc>Created with Sketch.</desc>
    <defs></defs>
    <g id="Page-1-Copy" stroke="none" stroke-width="1" fill="none" fill-rule="evenodd">
        <g id="backspace" fill-rule="nonzero" fill="#FFFFFF">
            <g id="Group" transform="translate(15.000000, 26.000000)">
                <path d="M5.99993527,28.372057 C6.00135575,28.3344553 6.00158399,28.2822874 5.99993527,28.2187573 L5.99993527,28.372057 Z M5.99939763,28.159555 L5.99691683,28.1295051 C5.99806632,28.1395225 5.99889809,28.1495487 5.99939763,28.159555 Z M5.99993527,28.17578 L5.99993527,28.1914361 C6.00002255,28.1838799 6.00002056,28.1836952 5.99993527,28.17578 Z M26.1382732,47.9040642 C27.6588723,49.4088237 30.2925936,50.547837 32.4934723,50.547837 L66,50.547837 L66,6 L32.4934723,6 C30.2925936,6 27.6588723,7.13901331 26.1382732,8.6437728 L6.30149443,28.2739185 L26.1382732,47.9040642 Z M5.99947712,28.2024246 C5.99963183,28.1989707 5.99978242,28.1954927 5.99992887,28.1919904 C5.99993105,28.1918013 5.99993527,28.2187573 5.99993527,28.2187573 C5.99979607,28.2133934 5.99964349,28.2079486 5.99947712,28.2024246 Z M5.86166578,28.7091656 L6.30149443,28.2739185 L5.98594195,27.961653 C5.99052122,28.0188874 5.99390338,28.0726515 5.99629535,28.1219771 C5.99776427,28.1527559 5.99875177,28.1783417 5.99947712,28.2024246 C5.98507209,28.5240092 5.93490195,28.6366923 5.86166578,28.7091656 Z M0.000737924268,28.2739185 C-0.000269687088,28.2123233 -0.000245399533,28.1507152 0.000810763911,28.0891216 C0.0730231414,26.7638021 0.617758289,25.4572462 1.64129571,24.4443706 L21.9179032,4.37897779 C24.3606866,1.96164005 28.4464212,-8.52651283e-14 32.4934723,0 L66.3948016,0 C69.4904672,0 72,2.48548793 72,5.54630301 L72,51.001534 C72,54.0623491 69.4904672,56.547837 66.3948016,56.547837 L32.4934723,56.547837 C28.4464212,56.547837 24.3606866,54.586197 21.9179032,52.1688592 L1.64129571,32.1034664 C0.617758289,31.0905908 0.0730231415,29.7840349 0.00686034779,28.4587154 C-0.000245399534,28.3971218 -0.000269687088,28.3355137 0.000737924268,28.2739185 Z" id="Combined-Shape"></path>
                <path d="M49.189815,16.5707275 L31.1000388,34.4720684 C29.9223482,35.6374915 29.9124034,37.5369604 31.0778264,38.714651 C32.2432494,39.8923416 34.1427183,39.9022865 35.3204089,38.7368635 L53.410185,20.8355225 C54.5878757,19.6700995 54.5978205,17.7706306 53.4323975,16.59294 C52.2669745,15.4152493 50.3675056,15.4053045 49.189815,16.5707275 Z" id="Line"></path>
                <path d="M31.189815,20.8355225 L49.2795911,38.7368635 C50.4572817,39.9022865 52.3567506,39.8923416 53.5221736,38.714651 C54.6875966,37.5369604 54.6776518,35.6374915 53.4999612,34.4720684 L35.410185,16.5707275 C34.2324944,15.4053045 32.3330255,15.4152493 31.1676025,16.59294 C30.0021795,17.7706306 30.0121243,19.6700995 31.189815,20.8355225 Z" id="Line-Copy"></path>
            </g>
        </g>
    </g>
</svg>