<?xml version="1.0" encoding="UTF-8"?>
<svg width="151px" height="201px" viewBox="0 0 151 201" version="1.1" xmlns="http://www.w3.org/2000/svg" xmlns:xlink="http://www.w3.org/1999/xlink">
    <!-- Generator: Sketch 43.2 (39069) - http://www.bohemiancoding.com/sketch -->
    <title>bot2</title>
    <desc>Created with Sketch.</desc>
    <defs>
        <path d="M64.9921875,0.0288085937 C73.5253906,0.575195312 110.992187,8.20117187 122.95459,18.4174805 C126.365234,23.1230469 127.477539,56.1738281 123.868164,61.0869141 C120.258789,66 67.6689453,84.4428711 58.0019531,81.8666992 C48.3349609,79.2905273 6.96826172,56.7050781 3.07421875,49.7475586 C-0.819824219,42.7900391 0.837402344,19.3710937 3.70166016,16.1635742 C10.4003906,10.1879883 48.8603516,0.395996094 64.9921875,0.0288085937 Z" id="path-1"></path>
    </defs>
    <g id="Page-1-Copy" stroke="none" stroke-width="1" fill="none" fill-rule="evenodd">
        <g id="bot2">
            <g id="Group-4" transform="translate(73.500000, 86.000000) scale(-1, 1) translate(-73.500000, -86.000000) translate(3.000000, 7.000000)">
                <path d="M137.131104,80.7915039 C132.748047,77.3532715 127.695312,77.3757324 124.207275,79.6953125 C120.719238,82.0148926 120.202881,83.8769531 119.475586,88.0847168 C113.686279,88.2231445 110.549072,87.7822266 110.549072,87.7822266 L110.897705,97.1647949 C110.897705,97.1647949 116.555908,98.394043 120.287598,97.9067383 C123.23291,102.101318 128.697266,103.909912 133.646973,102.540527 C138.59668,101.171143 140.248047,95.557373 140.248047,95.557373 L136.210205,92.8186035 C136.210205,92.8186035 132.443604,96.7568359 128.686279,94.2875977 C124.928955,91.8183594 127.077148,86.7121582 128.686279,85.5549316 C130.29541,84.3977051 132.862793,84.2741699 134.55127,85.0825195 C135.682373,83.4289551 136.189941,82.8566895 137.131104,80.7915039 Z" id="Path-17" fill="#080501"></path>
                <path d="M9.39257812,51.6650391 C5.16992187,54.4550781 5.72299388,59.1875 6.83789062,64.5761719 C7.95278737,69.9648438 15.9550781,118.72168 22.0009766,127.625 C28.0166016,134.238281 52.3701172,156.945312 62.8154297,157.824219 C73.2607422,158.703125 101.376953,146.374023 104.854492,140.734375 C108.332031,135.094727 121.90625,80.5869141 115.720703,69.6025391 C109.535156,58.6181641 80.9746094,48.2324219 80.9746094,48.2324219 C80.9746094,48.2324219 13.6152344,48.875 9.39257812,51.6650391 Z" id="Path-16" stroke="#000000" stroke-width="1.6" fill="#FBAC18"></path>
                <path d="M22.1669922,60.8632812 C25.8427734,67.012207 51.4985352,89.1245117 64.2470703,90.4755859 C76.9956055,91.8266602 110.066406,81.9345703 110.243652,73.7480469 C110.420898,65.5615234 80.7421875,55.2529297 80.7421875,55.2529297 C80.7421875,55.2529297 18.4912109,54.7143555 22.1669922,60.8632812 Z" id="Path-13" fill="#080501"></path>
                <g id="Group-3">
                    <mask id="mask-2" fill="white">
                        <use xlink:href="#path-1"></use>
                    </mask>
                    <g id="Mask">
                        <use fill="#FBAC18" fill-rule="evenodd" xlink:href="#path-1"></use>
                        <path stroke="#000000" stroke-width="1.6" d="M64.9739829,-0.770984249 C48.2386852,-0.390060954 9.88028183,9.57990563 3.16911653,15.566584 C-0.379131852,19.5323421 -1.33971773,43.4991548 2.37612122,50.1382757 C6.02602163,56.6595836 46.4227855,79.6088686 57.7959494,82.6397209 C66.9141633,85.069648 120.205229,67.4241409 124.512884,61.5605548 C128.224138,56.5087921 127.330052,23.0910064 123.602336,17.9479868 L123.474132,17.8091419 C117.987884,13.1236945 107.003981,8.67051729 92.8978463,4.82508917 C82.133377,1.89062167 70.1025354,-0.445610698 65.0433073,-0.769556461 L64.9739829,-0.770984249 Z"></path>
                    </g>
                    <path d="M0.741210938,14.4140625 C0.741210938,14.4140625 48.5581055,35.9243164 51.2226563,39.4052734 C53.887207,42.8862305 50.1777344,77.5698242 54.706543,83.0288086 C59.2353516,88.487793 58.3422852,82.1206055 58.3422852,82.1206055 C58.3422852,82.1206055 54.1459961,46.5698242 59.3168945,39.7636719 C64.487793,32.9575195 119.006836,17.5483398 124.580078,18.4707031 C130.15332,19.3930664 115.156738,2.73974609 114.529297,2.25976562 C113.901855,1.77978516 45.3095703,-15.5600586 45.3095703,-15.5600586 L0.741210938,14.4140625 Z" id="Path-12" fill="#FFD75A" mask="url(#mask-2)"></path>
                </g>
                <path d="M79.2290039,39.7441406 C87.1313477,40.578125 90.918457,48.3696289 87.4042969,59.4868164 C83.8901367,70.6040039 76.5126953,73.4643555 71.9985352,71.3496094 C67.484375,69.2348633 64.0703125,64.7392578 64.40625,57.597168 C64.7421875,50.4550781 71.3266602,38.9101562 79.2290039,39.7441406 Z" id="Path-5" stroke="#000000" stroke-width="1.6" fill="#FFFFFF"></path>
                <path d="M110.746094,29 C116.027832,29 120.966309,32.8125 119.301758,43.9702148 C117.637207,55.1279297 114.090332,61.0664062 106.767578,60.0664062 C99.4448242,59.0664062 98.0307617,52.9575195 98.6767578,45.0664062 C99.3227539,37.175293 105.464355,29 110.746094,29 Z" id="Path-6" stroke="#000000" stroke-width="1.6" fill="#FFFFFF"></path>
                <path d="M105.784424,38.4289551 C107.28125,38.8791504 108.748291,40.3703613 107.266357,44.2717285 C105.784424,48.1730957 104.843018,47.9938965 103.372314,47.5603027 C101.901611,47.126709 101.866455,44.6870117 102.619385,42.119873 C103.372314,39.5527344 104.287598,37.9787598 105.784424,38.4289551 Z" id="Path-7" fill="#080501"></path>
                <path d="M72.2502441,50.7006836 C73.8466797,51.5900879 74.0290527,53.6367188 73.1396484,55.78125 C72.2502441,57.9257812 70.689209,60.1071777 68.8786621,59.3154297 C67.0681152,58.5236816 67.0700684,55.9899902 67.9743652,53.8029785 C68.8786621,51.6159668 70.6538086,49.8112793 72.2502441,50.7006836 Z" id="Path-8" fill="#080501"></path>
                <path d="M63.6865234,27.2424316 C63.6865234,27.7353516 54.2636719,30.4648438 51.7685547,34.6650391 C49.2734375,38.8652344 48.8859863,51.746582 48.5058594,52.5678711 C48.1257324,53.3891602 44.0490723,51.2097168 43.8718262,49.7277832 C43.6945801,48.2458496 44.4697266,37.503418 47.5073242,33.3049316 C50.5449219,29.1064453 57.5395508,25.7312012 58.8811035,25.5446777 C60.2226562,25.3581543 63.6865234,26.7495117 63.6865234,27.2424316 Z" id="Path-9" fill="#080501"></path>
                <path d="M112.600342,12.0251465 C110.99292,12.0251465 102.107178,12.3039551 102.127441,13.4499512 C102.147705,14.5959473 104.411865,15.8398438 105.486084,15.7033691 C106.560303,15.5668945 115.855957,14.2380371 119.181396,14.675293 C114.462402,12.8500977 114.207764,12.0251465 112.600342,12.0251465 Z" id="Path-10" fill="#080501"></path>
                <path d="M49.3320312,88.3041992 C50.4316406,86.6875 56.6681105,91.0795898 60.9668678,92.0356445 C65.265625,92.9916992 72.1533203,91.1938477 72.8544922,93.9179688 C73.5556641,96.6420898 63.0883789,94.1323242 61.6967773,96.3652344 C60.3051758,98.5981445 62.6704102,147.628906 63.5234375,154.397949 C63.8925781,158.557617 60.0908203,155.711914 59.3637695,152.622559 C58.6367188,149.533203 54.9311523,107.991699 54.3959961,96.8339844 C54.3959961,93.9404297 53.9306641,92.6484375 52.2329102,91.2680664 C50.5351563,89.8876953 48.2324219,89.9208984 49.3320312,88.3041992 Z" id="Path-14" fill="#FFD75A"></path>
                <path d="M32.6523438,83.3769531 C36.0332031,83.3769531 36.6791992,87.6801758 37.0078125,91.7329102 C37.3364258,95.7856445 39.9538574,105.633789 50.7609863,105.87915 C55.5002441,101.477783 62.2490234,98.3498535 70.5112305,105.940186 C69.6069336,108.20459 67.1542969,109.489014 67.1542969,109.489014 C67.1542969,109.489014 63.6643066,106.573242 59.9365234,108.224854 C56.2087402,109.876465 55.7158203,115.296875 57.1831055,117.299072 C58.6503906,119.30127 61.1582031,121.082031 64.520752,119.764404 C65.2128906,121.191162 66.8701172,123.248779 66.8701172,123.248779 C66.8701172,123.248779 60.984375,128.65332 54.560791,124.376465 C49.324707,121.73291 48.3869629,116.425537 48.0546875,114.402832 C38.5349121,112.700439 34.3320313,107.083984 31.6782227,101.942383 C29.0244141,96.8007812 26.96875,84.0043945 32.6523438,83.3769531 Z" id="Path-15" fill="#080501"></path>
            </g>
        </g>
    </g>
</svg>