<?xml version="1.0" encoding="UTF-8"?>
<svg width="151px" height="201px" viewBox="0 0 151 201" version="1.1" xmlns="http://www.w3.org/2000/svg" xmlns:xlink="http://www.w3.org/1999/xlink">
    <!-- Generator: Sketch 43.2 (39069) - http://www.bohemiancoding.com/sketch -->
    <title>bot4</title>
    <desc>Created with Sketch.</desc>
    <defs>
        <path d="M64.9921875,0.0288085937 C73.5253906,0.575195312 110.992187,8.20117187 122.95459,18.4174805 C126.365234,23.1230469 127.477539,56.1738281 123.868164,61.0869141 C120.258789,66 67.6689453,84.4428711 58.0019531,81.8666992 C48.3349609,79.2905273 6.96826172,56.7050781 3.07421875,49.7475586 C-0.819824219,42.7900391 0.837402344,19.3710937 3.70166016,16.1635742 C10.4003906,10.1879883 48.8603516,0.395996094 64.9921875,0.0288085937 Z" id="path-1"></path>
    </defs>
    <g id="Page-1-Copy" stroke="none" stroke-width="1" fill="none" fill-rule="evenodd">
        <g id="bot4">
            <g id="Group-4" transform="translate(80.500000, 85.000000) scale(-1, 1) translate(-80.500000, -85.000000) translate(17.000000, 5.000000)">
                <path d="M9.39257812,53.6650391 C5.16992187,56.4550781 5.72299388,61.1875 6.83789062,66.5761719 C7.95278737,71.9648438 15.9550781,120.72168 22.0009766,129.625 C28.0166016,136.238281 52.3701172,158.945312 62.8154297,159.824219 C73.2607422,160.703125 101.376953,148.374023 104.854492,142.734375 C108.332031,137.094727 121.90625,82.5869141 115.720703,71.6025391 C109.535156,60.6181641 80.9746094,50.2324219 80.9746094,50.2324219 C80.9746094,50.2324219 13.6152344,50.875 9.39257812,53.6650391 Z" id="Path-16" stroke="#000000" stroke-width="1.6" fill="#FBAC18"></path>
                <path d="M49.2864579,71.3539132 C50.3860673,69.737214 56.6225372,74.1293038 60.9212944,75.0853585 C65.2200516,76.0414132 72.107747,74.2435616 72.8089188,76.9676827 C73.5100907,79.6918038 62.0428056,77.1820382 60.651204,79.4149484 C59.2596024,81.6478585 62.6248368,140.67862 63.4778641,147.447663 C63.8470048,151.607331 60.045247,148.761628 59.3181962,145.672273 C58.5911454,142.582917 54.885579,91.0414132 54.3504227,79.8836984 C54.3504227,76.9901437 53.8850907,75.6981515 52.1873368,74.3177804 C50.4895829,72.9374093 48.1868485,72.9706124 49.2864579,71.3539132 Z" id="Path-14" fill="#FFD75A"></path>
                <g id="Group-3" transform="translate(0.000000, 2.000000)">
                    <mask id="mask-2" fill="white">
                        <use xlink:href="#path-1"></use>
                    </mask>
                    <g id="Mask">
                        <use fill="#FBAC18" fill-rule="evenodd" xlink:href="#path-1"></use>
                        <path stroke="#000000" stroke-width="1.6" d="M64.9739829,-0.770984249 C48.2386852,-0.390060954 9.88028183,9.57990563 3.16911653,15.566584 C-0.379131852,19.5323421 -1.33971773,43.4991548 2.37612122,50.1382757 C6.02602163,56.6595836 46.4227855,79.6088686 57.7959494,82.6397209 C66.9141633,85.069648 120.205229,67.4241409 124.512884,61.5605548 C128.224138,56.5087921 127.330052,23.0910064 123.602336,17.9479868 L123.474132,17.8091419 C117.987884,13.1236945 107.003981,8.67051729 92.8978463,4.82508917 C82.133377,1.89062167 70.1025354,-0.445610698 65.0433073,-0.769556461 L64.9739829,-0.770984249 Z"></path>
                    </g>
                    <path d="M0.741210938,14.4140625 C0.741210938,14.4140625 48.5581055,35.9243164 51.2226563,39.4052734 C53.887207,42.8862305 53.2167969,82.3017578 54.706543,83.0288086 C59.2353516,88.487793 59.7646484,83.0288086 59.7646484,83.0288086 C59.7646484,83.0288086 56.6308594,46.2114258 61.8017578,39.4052734 C66.9726562,32.5991211 119.006836,17.5483398 124.580078,18.4707031 C130.15332,19.3930664 115.156738,2.73974609 114.529297,2.25976562 C113.901855,1.77978516 45.3095703,-15.5600586 45.3095703,-15.5600586 L0.741210938,14.4140625 Z" id="Path-12" fill="#FFD75A" mask="url(#mask-2)"></path>
                </g>
                <path d="M120.686523,16.2424316 C120.686523,16.7353516 111.263672,19.4648437 108.768555,23.6650391 C106.273438,27.8652344 104.968215,42.2066075 105.505859,41.5678711 C106.324126,40.595747 101.003874,39.8318214 100.871826,38.7277832 C100.69458,37.2458496 101.469727,26.503418 104.507324,22.3049316 C107.544922,18.1064453 114.539551,14.7312012 115.881104,14.5446777 C117.222656,14.3581543 120.686523,15.7495117 120.686523,16.2424316 Z" id="Path-9" fill="#080501" transform="translate(110.767288, 28.058069) scale(-1, 1) translate(-110.767288, -28.058069) "></path>
                <path d="M61.6003418,2.02514648 C59.9929199,2.02514648 51.1071777,2.30395508 51.1274414,3.44995117 C51.1477051,4.59594727 53.4118652,5.83984375 54.486084,5.70336914 C55.5603027,5.56689453 64.855957,4.23803711 68.1813965,4.67529297 C63.4624023,2.85009766 63.2077637,2.02514648 61.6003418,2.02514648 Z" id="Path-10" fill="#080501" transform="translate(59.654402, 3.869411) scale(-1, 1) rotate(-12.000000) translate(-59.654402, -3.869411) "></path>
            </g>
            <path d="M23.3062587,85.729191 C18.9232021,82.2909586 13.8704677,82.3134195 10.3824306,84.6329996 C6.89439349,86.9525797 6.37803606,88.8146402 5.65074114,93.0224039 C5.24180559,96.7763101 3.48704779,98.4797493 6.46275286,102.844425 C9.40806536,107.039005 14.8724208,108.847599 19.8221279,107.478214 C24.7718349,106.10883 26.4232021,100.49506 26.4232021,100.49506 L22.3853603,97.7562906 C22.3853603,97.7562906 18.6187587,101.694523 14.8614345,99.2252847 C11.1041103,96.7560464 13.2523036,91.6498453 14.8614345,90.4926187 C16.4705654,89.3353922 19.0379482,89.211857 20.7264247,90.0202066 C21.8575283,88.3666422 22.3650966,87.7943765 23.3062587,85.729191 Z" id="Path-17" fill="#080501" transform="translate(15.593916, 95.466023) scale(-1, 1) rotate(-23.000000) translate(-15.593916, -95.466023) "></path>
            <path d="M40.3442688,102.006348 C34.3783258,102.006348 31.8894349,97.2399902 29.8186341,93.036377 C27.7478333,88.8327637 25.3722842,89.1316382 23.7637024,89.5668945 C21.1128235,90.2841797 20.7221985,92.6672363 22.0405579,96.2851562 C23.5513001,102.047852 37.292511,118.18457 55.0498353,104.893555 C59.495636,100.276123 54.1479798,95.5693359 54.1479798,95.5693359 C54.1479798,95.5693359 48.8667298,102.006348 40.3442688,102.006348 Z" id="Path-20" fill="#080501" transform="translate(39.061539, 99.669786) scale(-1, 1) translate(-39.061539, -99.669786) "></path>
        </g>
    </g>
</svg>