<?xml version="1.0" encoding="UTF-8"?>
<svg width="52px" height="52px" viewBox="0 0 52 52" version="1.1" xmlns="http://www.w3.org/2000/svg" xmlns:xlink="http://www.w3.org/1999/xlink">
    <!-- Generator: Sketch 43.2 (39069) - http://www.bohemiancoding.com/sketch -->
    <title>pic_arr_up2</title>
    <desc>Created with Sketch.</desc>
    <defs></defs>
    <g id="Page-1" stroke="none" stroke-width="1" fill="none" fill-rule="evenodd">
        <g id="pic_arr_up2" fill-rule="nonzero" fill="#E1E1E1">
            <path d="M29.5215668,24.1948197 L15.662181,24.1948197 C14.51154,24.1948197 13.5787611,25.1275986 13.5787611,26.2782397 C13.5787611,27.4288807 14.51154,28.3616596 15.662181,28.3616596 L29.7984208,28.3616596 L24.050034,34.1100464 C23.2364079,34.9236725 23.2364079,36.242821 24.050034,37.0564471 C24.8636601,37.8700732 26.1828087,37.8700732 26.9964348,37.0564471 L37.6362152,26.4166667 L26.9964348,15.7768862 C26.1828087,14.9632601 24.8636601,14.9632601 24.050034,15.7768862 C23.2364079,16.5905123 23.2364079,17.9096609 24.050034,18.723287 L29.5215668,24.1948197 L29.5215668,24.1948197 Z" id="Combined-Shape" transform="translate(25.607488, 26.416667) scale(1, -1) rotate(-270.000000) translate(-25.607488, -26.416667) "></path>
        </g>
    </g>
</svg>