<?xml version="1.0" encoding="UTF-8" standalone="no"?>
<svg width="1239px" height="1089px" viewBox="0 0 1239 1089" version="1.1" xmlns="http://www.w3.org/2000/svg" xmlns:xlink="http://www.w3.org/1999/xlink">
    <!-- Generator: Sketch 39.1 (31720) - http://www.bohemiancoding.com/sketch -->
    <title>back_2</title>
    <desc>Created with Sketch.</desc>
    <defs>
        <path d="M77.7,416.9 C79.6,416.9 79.0,418.1 78.9,419.1 C78.9,420.0 78.2,420.7 77.1,421.2 C76.1,421.6 74.7,420.6 74.8,419.4 C75,417.5 75.9,416.8 77.7,416.9 M130.2,431.8 C131.8,430.2 133.1,430.4 134.7,431.8 C136.3,433.2 134.9,433.8 134.1,434.6 C133.3,435.4 132.2,435.5 130.9,435.1 C129.7,434.7 129.2,432.7 130.2,431.8 M193.7,463.5 C195.6,461.1 197.5,461.0 200.0,462.6 C202.5,464.2 200.7,465.4 199.7,466.7 C198.7,467.9 197.2,468.2 195.4,468.0 C193.6,467.7 192.6,465.0 193.7,463.5 M213.9,474.0 C215.0,469.6 217.7,471.6 220.0,472.4 C222.4,473.2 223.6,475.3 224.1,478.1 C224.5,480.8 221.1,483.6 218.4,482.7 C213.9,481.2 212.8,478.5 213.9,474.0 M247.0,441.7 C247.7,438.7 253.4,438.5 255.2,439.2 C257.0,439.9 262.4,445.8 259.7,449.5 C258.5,451.1 257.1,452.4 255.8,453.2 C256.4,454.3 256.5,455.6 256.3,457.1 C255.9,459.3 252.8,460.5 251.0,459.1 C249.0,457.6 248.3,456.1 248.7,454.3 C247.2,453.9 246.0,453.0 245.2,451.8 C242.6,447.9 246.2,444.7 247.0,441.7 M401.1,61.3 C401.6,58.4 406.1,56.7 408.5,58.6 C412.5,61.7 412.7,64.8 410.0,68.9 C407.3,73.1 405.3,70.1 403.3,68.5 C401.2,66.9 400.7,64.3 401.1,61.3 M465.0,394.0 C465.8,392.8 468.1,392.9 468.8,394.2 C470.0,396.4 469.5,397.8 467.5,399.2 C465.5,400.5 465.2,398.8 464.6,397.7 C463.9,396.5 464.2,395.3 465.0,394.0 M496.5,127.9 C497.7,126.1 499.0,126.0 500.8,127.1 C502.5,128.1 501.3,129.0 500.7,129.9 C500.0,130.8 499.0,131.0 497.7,130.9 C496.5,130.7 495.7,128.9 496.5,127.9 M508.9,375.4 C511.9,376.1 513.1,380.7 511.0,383.0 C507.6,386.7 504.4,386.7 500.5,383.6 C496.6,380.6 499.8,378.8 501.6,376.9 C503.3,374.9 506.0,374.6 508.9,375.4 M506.3,355.4 C507.6,354.7 509.0,355.0 510.4,355.9 C511.8,356.8 511.6,359.4 510.1,360.2 C507.7,361.5 506.0,360.9 504.6,358.7 C503.1,356.4 505.0,356.0 506.3,355.4 M524.7,399.9 C532.2,403.6 531.3,408.9 526.1,415.6 C522.3,420.6 510.3,420.4 506.2,415.3 C504.1,412.8 503.8,409.9 504.5,407.1 C502.3,408.1 498.9,407.1 498.0,404.8 C496.0,400.0 497.5,397.1 501.9,394.9 C506.4,392.6 506.6,396.2 507.6,398.7 C507.8,399.2 507.9,399.7 508.0,400.1 C508.2,399.9 508.3,399.7 508.5,399.4 C512.2,394.4 517.1,396.2 524.7,399.9 M522.1,321.9 C524.4,321.0 525.7,321.7 526.8,323.8 C527.8,325.9 526.1,326.0 525.0,326.5 C523.8,326.9 522.6,326.5 521.5,325.6 C520.4,324.7 520.8,322.4 522.1,321.9 M503.1,217.1 C503.5,215.5 504.9,214.5 506.8,213.9 C508.7,213.4 510.9,215.6 510.4,217.6 C509.6,220.8 507.8,221.8 504.6,221.3 C501.4,220.8 502.7,218.8 503.1,217.1 M506.0,147.4 C506.5,142.0 510.1,143.0 514.1,141.9 C518.1,140.7 520.8,143.9 522.8,149.8 C524.8,155.7 518.1,158.6 514.1,159.2 C514.1,159.2 511.1,158.5 508.1,156.8 C505.0,155.1 505.5,152.9 506.0,147.4 M532.9,183.3 C533.2,187.2 531.3,190.0 528.4,192.0 C528.4,192.1 528.4,192.1 528.4,192.1 C529.5,194.2 527.5,197.3 525.1,197.2 C523.0,197.1 521.6,196.6 520.7,195.5 C515.7,196.5 512.8,192.3 508.9,185.6 C504.7,178.3 508.5,174.5 516.6,171.8 C522.6,169.9 532.3,176.8 532.9,183.3 M13.6,270.4 C12.1,271.9 8.8,271.0 8.2,269.0 C7.2,265.5 8.4,263.6 11.6,262.3 C14.8,261.1 14.7,263.6 15.3,265.4 C15.8,267.2 15.1,268.9 13.6,270.4 M7.6,261.8 C4.6,261.7 2.1,261.1 0.0,260.0 C0.5,261.2 0.8,262.5 0.9,263.7 C5.9,269.1 8.3,276.2 7.6,283.2 C17.5,282.8 21.6,292.5 27.6,304.2 C32.7,314.3 28.8,321.5 18.0,332.6 C21.7,331.9 21.3,334.9 21.7,337.2 C21.8,337.8 21.7,338.5 21.6,339.1 C24.4,343.8 24.0,349.5 23.3,357.2 C23.1,359.1 22.5,360.8 21.6,362.2 C22.9,362.1 24.4,362.7 24.9,363.9 C26.0,367.0 25.1,368.8 22.2,370.2 C21.3,370.6 20.7,370.7 20.2,370.5 C18.9,373.1 16.6,376.5 13.7,379.5 C13.9,379.6 14.1,379.6 14.3,379.7 C14.7,379.9 15.2,380.1 15.5,380.3 C16.4,378.6 18.7,377.3 20.5,378.0 C24.6,379.5 25.6,382.1 24.5,386.1 C23.9,388.3 23.0,388.7 21.9,388.6 C22.4,390.7 22.4,393.0 22.3,395.6 C25.3,393.5 28.6,392.1 31.9,391.5 C47.0,388.9 40.6,395.5 47.2,405.7 C53.6,415.5 50.3,422.9 44.2,433.6 C48.3,435.4 52.2,438.1 55.9,441.4 C57.3,436.4 59.8,432.0 63.4,429.0 C74.6,419.2 72.6,428.0 83.3,433.2 C90.2,436.6 92.9,441.3 94.0,447.7 C94.0,446.9 94.2,446.2 94.7,445.6 C97.2,442.7 99.6,442.7 102.6,444.8 C105.6,447.0 103.3,448.4 102.0,449.9 C100.7,451.4 98.8,451.7 96.5,451.3 C95.4,451.0 94.5,450.0 94.2,448.8 C94.6,452.0 94.7,455.6 94.8,459.6 C94.8,460.7 94.7,461.7 94.5,462.7 C99.2,458.1 100.2,461.0 104.5,463.7 C104.6,457.5 108.5,451.4 116.5,448.6 C124.4,445.8 128.6,447.2 132.6,451.1 C133.8,451.2 135.0,451.5 135.6,451.9 C136.9,452.6 139.6,456.4 139.7,459.7 C139.9,460.0 140.2,460.4 140.5,460.8 C140.9,461.2 141.2,461.7 141.5,462.2 C141.9,462.0 142.2,461.8 142.6,461.6 C147.2,459.2 150.9,461.3 154.2,463.5 C155.2,463.2 156.1,463.5 157.2,464.4 C157.9,465.0 158.0,465.5 157.8,465.9 C158.3,466.1 158.9,466.4 159.4,466.6 C160.6,467.1 161.5,468.1 162.1,469.4 C168.1,470.8 168.3,476.0 167.9,484.4 C167.8,487.0 167.2,488.9 166.2,490.2 C169.2,486.3 178.0,488.3 180.6,490.1 C182.2,491.3 185.1,496.0 186.0,500.7 C189.4,499.7 193.2,499.7 197.1,500.4 C196.2,497.3 196.1,494.0 197.0,491.2 C199.8,482.1 201.7,487.6 209.2,486.8 C216.7,486.0 219.8,490.3 224.3,497.2 C224.8,497.9 225.1,498.7 225.4,499.4 C227.8,497.6 230.6,495.8 234.0,494.1 C235.3,493.4 236.8,492.9 238.5,492.7 C238.2,491.1 238.1,489.2 238.0,487.1 C237.1,486.3 236.3,485.2 235.7,483.9 C232.2,476.8 235.8,474.5 241.2,469.1 C244.9,465.3 249.1,466.0 251.8,469.5 C252.0,469.4 252.2,469.4 252.3,469.3 C260.2,465.6 266.7,471.1 272.8,482.6 C273.8,484.4 274.3,486.2 274.4,487.9 C274.9,488.0 275.5,488.0 276.0,488.1 C276.5,485.6 277.6,483.2 279.0,481.2 C269.4,479.6 267.7,469.5 264.5,456.9 C261.2,443.4 270.5,437.5 291.8,425.0 C304.7,417.4 309.8,422.9 313.8,432.0 C322.3,415.1 334.6,417.4 350.3,429.4 C351.7,430.5 352.9,431.8 354.0,433.4 C356.3,431.8 359.4,430.2 363.1,428.1 C369.2,424.8 372.8,425.6 376.0,428.0 C381.2,423.9 387.8,424.3 396.8,425.2 C408.4,426.4 412.6,441.8 405.1,451.3 C405.1,451.4 405.1,451.4 405.1,451.4 C406.9,452.5 408.6,453.8 410.5,455.4 C412.3,450.8 415.3,445.3 419.1,438.5 C419.6,437.3 420.0,436.0 420.6,434.8 C421.1,433.6 421.7,432.6 422.3,431.7 C421.8,432.1 421.1,432.5 420.4,432.9 C418.1,434.0 414.9,431.8 415.0,429.3 C415.1,425.1 417.2,423.4 421.2,423.2 C425.3,423.0 424.3,425.8 424.2,428.0 C424.2,428.8 424.0,429.5 423.6,430.1 C427.4,426.3 432.9,425.9 439.6,426.5 C440.6,421.7 443.2,418.7 447.0,417.0 C446.4,416.5 445.9,415.6 445.4,414.9 C444.3,413.4 444.4,411.6 445.2,409.6 C446.1,407.7 449.4,407.4 450.7,409.1 C452.7,411.6 452.6,413.7 450.6,415.8 C454.7,414.9 459.8,414.9 465.7,415.7 C467.2,415.9 468.7,416.3 470.2,417.1 C471.3,414.9 472.9,412.3 474.8,409.1 C480.6,399.4 486.3,404.4 494.8,405.7 C503.4,407.1 505.6,415.4 504.1,428.3 C503.0,438.0 494.1,440.0 486.4,439.4 C487.0,442.5 487.2,445.4 486.8,448.1 C490.3,450.8 493.4,454.6 495.8,458.9 C495.8,458.8 495.8,458.7 495.7,458.6 C494.1,447.1 493.7,444.6 502.7,435.4 C505.3,432.8 508.5,431.0 511.8,430.2 C511.4,425.2 516.0,423.8 520.0,420.0 C521.9,418.3 524.0,417.6 526.2,417.8 C526.8,417.0 527.4,416.3 527.9,415.8 C530.3,413.6 538.8,410.4 546.6,410.6 C546.1,404.8 547.5,398.7 549.9,392.6 C544.6,393.1 539.3,392.1 535.1,389.8 C521.5,382.4 530.8,381.2 532.0,368.9 C532.8,361.1 536.2,356.8 541.8,353.4 C541.8,351.7 542.4,350.3 543.5,349.1 C532.6,341.4 535.2,333.9 541.3,325.6 C541.3,325.6 541.2,325.5 541.2,325.5 C527.9,326.0 521.1,321.0 518.6,311.8 C517.2,311.8 515.8,311.7 514.4,311.5 C508.3,310.7 507.5,305.5 507.1,297.1 C506.7,289.1 511.2,287.2 518.9,288.1 C519.2,287.0 519.6,285.9 520.2,284.8 C517.3,283.3 514.0,281.2 509.9,278.7 C497.3,271.0 503.9,263.6 505.8,252.5 C506.7,247.3 509.6,244.0 514.0,242.1 C512.8,241.2 511.9,239.8 512.1,238.4 C512.5,233.7 514.9,232.0 519.4,232.1 C523.9,232.1 522.6,235.1 522.3,237.6 C522.2,238.6 521.8,239.6 521.2,240.4 C524.3,240.0 527.9,240.1 531.9,240.4 C532.9,238.4 534.1,236.7 535.1,235.8 C535.8,235.1 537.1,234.3 538.7,233.6 C536.0,226.3 536.9,218.0 541.7,211.2 C541.7,211.1 541.6,211.1 541.5,211.0 C528.4,204.2 537.3,202.9 538.2,191.2 C538.7,185.6 540.7,181.9 543.9,179.0 C540.8,174.9 539.6,168.9 539.7,161.4 C536.8,157.1 536.3,156.0 538.3,150.3 C538.6,149.2 539.2,148.2 539.9,147.4 C537.5,146.2 534.9,144.7 531.7,142.9 C519.6,136.2 525.4,129.0 526.8,118.6 C528.1,108.7 537.1,105.5 551.3,106.3 C552.6,103.2 554.5,101.0 556.9,99.5 C556.6,98.9 556.4,98.3 556.2,97.7 C555.3,98.5 554.3,99.3 553.2,100.2 C546.5,105.6 537.9,107.2 530.2,104.9 C524.7,107.9 516.7,108.9 507.7,110.4 C491.8,113.1 485.6,102.1 473.3,76.9 C470.1,75.9 468.9,73.8 467.9,70.6 C465.8,68.6 463.6,66.5 461.2,64.2 C460.6,63.6 460.0,63.1 459.5,62.5 C459.1,62.9 458.7,63.2 458.2,63.5 C449.7,69.7 442.1,61.8 435.3,60.3 C431.2,59.4 429.2,54.4 428.6,49.7 C427.7,50.6 426.3,51.0 424.7,51.1 C422.4,51.2 420.5,48.2 421.5,46.1 C421.6,45.9 421.7,45.8 421.8,45.6 C419.3,46.8 416.7,47.7 414.9,49.2 C412.4,51.1 408.9,50.4 405.8,48.8 C402.5,51.2 398.4,53.8 393.6,56.7 C392.9,57.8 391.8,58.4 390.3,58.6 C389.3,59.2 388.2,59.9 387.1,60.5 C373.8,68.3 368.5,62.6 364.5,53.2 C362.6,56.8 360.6,59.6 358.4,61.6 C358.6,61.6 358.8,61.5 359.0,61.5 C362.8,61.5 361.8,64.1 361.6,66.1 C361.5,68.2 360.1,69.7 357.9,70.6 C355.8,71.6 352.8,69.5 352.9,67.1 C353.0,66.2 353.1,65.4 353.4,64.7 C346.0,67.5 337.2,63.6 326.8,55.7 C326.4,55.4 325.9,55.0 325.5,54.6 C322.4,55.5 318.9,56.2 315.0,56.8 C314.6,56.9 314.2,56.9 313.8,56.9 C313.7,57.0 313.7,57.0 313.7,57.0 C311.7,58.1 310.1,58.7 308.5,59.0 C307.9,61.6 307.1,64.6 306.2,68.0 C302.4,81.9 293.7,77.8 282.8,79.0 C276.4,79.8 271.8,76.8 268.6,71.1 C266.8,85.0 254.9,88.3 236.5,86.6 C234.6,86.4 232.7,85.8 230.8,85.0 C229.5,87.8 227.7,91.0 225.4,95.1 C223.6,98.2 221.8,100.2 219.9,101.3 C219.9,104.5 219.2,107.8 217.5,111.3 C210.5,125.9 202.4,123.2 187.0,121.4 C186.2,121.3 185.5,121.2 184.8,121.0 C184.8,121.5 184.6,122.0 184.5,122.5 C181.6,131.6 171.8,129.9 166.1,132.4 C165.6,132.6 165.1,132.8 164.6,132.8 C169.3,140.7 163.2,149.5 162.9,156.6 C162.4,164.7 148.2,168.0 143.2,167.2 C140.3,166.7 133.2,162.2 128.9,156.4 C124.9,160.0 119.7,162.4 113.9,164.1 C117.2,167.7 119.5,172.1 120.1,176.5 C122.3,190.7 116.2,184.6 106.5,190.6 C96.8,196.6 89.7,192.8 79.1,186.4 C78.7,186.2 78.3,185.9 78.0,185.7 C73.5,188.5 69.2,188.7 64.0,186.8 C58.7,192.6 49.8,195.5 38.2,200.5 C37.8,200.6 37.5,200.7 37.1,200.9 C36.9,201.8 36.5,202.6 35.9,203.5 C35.9,203.5 35.9,203.6 35.9,203.6 C37.6,211.3 33.8,216.2 29.2,220.4 C42.5,226.7 36.8,234.9 36.2,246.3 C35.5,257.8 24.9,261.9 7.6,261.8" id="path-1"></path>
        <filter x="-50%" y="-50%" width="200%" height="200%" filterUnits="objectBoundingBox" id="filter-2">
            <feOffset dx="0" dy="3" in="SourceAlpha" result="shadowOffsetInner1"></feOffset>
            <feComposite in="shadowOffsetInner1" in2="SourceAlpha" operator="arithmetic" k2="-1" k3="1" result="shadowInnerInner1"></feComposite>
            <feColorMatrix values="0 0 0 0 0.3   0 0 0 0 0.1   0 0 0 0 0.1  0 0 0 1 0" type="matrix" in="shadowInnerInner1"></feColorMatrix>
        </filter>
        <path d="M137.1,77.1 C137.1,77.1 137.1,77.1 137.1,77.1 C138.7,74.4 140.9,71.6 143.7,68.6 C143.4,68.6 143.1,68.6 142.7,68.7 C142.7,68.7 133.9,68.3 125.2,65.4 C126.0,68.0 126.6,71.0 127.1,74.2 C130.5,74.0 134.1,74.9 137.1,77.1" id="path-3"></path>
        <filter x="-50%" y="-50%" width="200%" height="200%" filterUnits="objectBoundingBox" id="filter-4">
            <feOffset dx="0" dy="3" in="SourceAlpha" result="shadowOffsetInner1"></feOffset>
            <feComposite in="shadowOffsetInner1" in2="SourceAlpha" operator="arithmetic" k2="-1" k3="1" result="shadowInnerInner1"></feComposite>
            <feColorMatrix values="0 0 0 0 0.3   0 0 0 0 0.1   0 0 0 0 0.1  0 0 0 1 0" type="matrix" in="shadowInnerInner1"></feColorMatrix>
        </filter>
        <path d="M426.6,42.7 C427.3,42.8 428.0,43.0 428.7,43.2 C428.8,42.8 428.9,42.3 429.0,42.0 C429.7,40.0 433.0,36.0 437.2,33.1 C435.8,33.3 434.2,33.4 432.6,33.6 C431.9,33.7 431.2,33.7 430.5,33.8 C430.5,34.3 430.5,34.8 430.5,35.2 C430.2,38.7 428.7,41.0 426.6,42.7" id="path-5"></path>
        <filter x="-50%" y="-50%" width="200%" height="200%" filterUnits="objectBoundingBox" id="filter-6">
            <feOffset dx="0" dy="3" in="SourceAlpha" result="shadowOffsetInner1"></feOffset>
            <feComposite in="shadowOffsetInner1" in2="SourceAlpha" operator="arithmetic" k2="-1" k3="1" result="shadowInnerInner1"></feComposite>
            <feColorMatrix values="0 0 0 0 0.3   0 0 0 0 0.1   0 0 0 0 0.1  0 0 0 1 0" type="matrix" in="shadowInnerInner1"></feColorMatrix>
        </filter>
        <path d="M270.0,504.3 C267.9,504.0 266.6,502.9 265.9,501.1 C265.4,501.4 265.0,501.6 264.5,501.9 C266.8,504.0 268.7,506.3 269.9,508.8 C274.2,508.9 278.8,510.3 283.1,512.4 C283.1,512.3 283.0,512.2 283.0,512.1 C280.3,509.2 278.4,507.1 277.0,505.1 C275.1,505.9 272.8,504.7 270.0,504.3" id="path-7"></path>
        <filter x="-50%" y="-50%" width="200%" height="200%" filterUnits="objectBoundingBox" id="filter-8">
            <feOffset dx="0" dy="3" in="SourceAlpha" result="shadowOffsetInner1"></feOffset>
            <feComposite in="shadowOffsetInner1" in2="SourceAlpha" operator="arithmetic" k2="-1" k3="1" result="shadowInnerInner1"></feComposite>
            <feColorMatrix values="0 0 0 0 0.3   0 0 0 0 0.1   0 0 0 0 0.1  0 0 0 1 0" type="matrix" in="shadowInnerInner1"></feColorMatrix>
        </filter>
        <path d="M137.9,478.6 C137.6,478.8 137.2,478.9 136.9,479.1 C137.3,479.1 137.7,479.1 138.1,479.1 C138.0,478.9 138.0,478.7 137.9,478.6" id="path-9"></path>
        <filter x="-50%" y="-50%" width="200%" height="200%" filterUnits="objectBoundingBox" id="filter-10">
            <feOffset dx="0" dy="3" in="SourceAlpha" result="shadowOffsetInner1"></feOffset>
            <feComposite in="shadowOffsetInner1" in2="SourceAlpha" operator="arithmetic" k2="-1" k3="1" result="shadowInnerInner1"></feComposite>
            <feColorMatrix values="0 0 0 0 0.3   0 0 0 0 0.1   0 0 0 0 0.1  0 0 0 1 0" type="matrix" in="shadowInnerInner1"></feColorMatrix>
        </filter>
        <path d="M160.7,497.1 C162.5,494.8 164.7,492.9 165.9,490.7 C166.0,490.6 166.1,490.4 166.2,490.3 C164.0,493.2 159.7,493.3 154.1,491.9 C153.9,491.8 153.8,491.8 153.6,491.7 C154.1,493.9 154.2,496.2 154.1,498.6 C156.3,497.7 158.5,497.1 160.7,497.1" id="path-11"></path>
        <filter x="-50%" y="-50%" width="200%" height="200%" filterUnits="objectBoundingBox" id="filter-12">
            <feOffset dx="0" dy="3" in="SourceAlpha" result="shadowOffsetInner1"></feOffset>
            <feComposite in="shadowOffsetInner1" in2="SourceAlpha" operator="arithmetic" k2="-1" k3="1" result="shadowInnerInner1"></feComposite>
            <feColorMatrix values="0 0 0 0 0.3   0 0 0 0 0.1   0 0 0 0 0.1  0 0 0 1 0" type="matrix" in="shadowInnerInner1"></feColorMatrix>
        </filter>
        <path d="M135.4,518.1 C135.4,518.1 136.1,518.9 137.1,520.1 C138.7,519.9 140.7,519.7 142.8,519.5 C141.9,519.2 141.1,518.8 140.1,518.5 C139.3,518.2 138.6,517.9 138.1,517.4 C137.0,517.5 135.9,517.6 134.7,517.6 C135.0,517.8 135.2,518.0 135.4,518.1" id="path-13"></path>
        <filter x="-50%" y="-50%" width="200%" height="200%" filterUnits="objectBoundingBox" id="filter-14">
            <feOffset dx="0" dy="3" in="SourceAlpha" result="shadowOffsetInner1"></feOffset>
            <feComposite in="shadowOffsetInner1" in2="SourceAlpha" operator="arithmetic" k2="-1" k3="1" result="shadowInnerInner1"></feComposite>
            <feColorMatrix values="0 0 0 0 0.3   0 0 0 0 0.1   0 0 0 0 0.1  0 0 0 1 0" type="matrix" in="shadowInnerInner1"></feColorMatrix>
        </filter>
        <path d="M14.7,442.6 C15.0,442.1 15.4,441.6 15.8,441.1 C15.5,441.0 15.3,440.9 15.0,440.8 C14.9,441.4 14.8,442.0 14.7,442.6" id="path-15"></path>
        <filter x="-50%" y="-50%" width="200%" height="200%" filterUnits="objectBoundingBox" id="filter-16">
            <feOffset dx="0" dy="3" in="SourceAlpha" result="shadowOffsetInner1"></feOffset>
            <feComposite in="shadowOffsetInner1" in2="SourceAlpha" operator="arithmetic" k2="-1" k3="1" result="shadowInnerInner1"></feComposite>
            <feColorMatrix values="0 0 0 0 0.3   0 0 0 0 0.1   0 0 0 0 0.1  0 0 0 1 0" type="matrix" in="shadowInnerInner1"></feColorMatrix>
        </filter>
        <path d="M86.6,473.7 C87.3,473.2 88.0,472.8 88.8,472.5 C89.0,472.0 89.1,471.6 89.2,471.1 C88.2,471.9 87.1,472.6 85.8,473.2 C86.1,473.3 86.4,473.5 86.6,473.7" id="path-17"></path>
        <filter x="-50%" y="-50%" width="200%" height="200%" filterUnits="objectBoundingBox" id="filter-18">
            <feOffset dx="0" dy="3" in="SourceAlpha" result="shadowOffsetInner1"></feOffset>
            <feComposite in="shadowOffsetInner1" in2="SourceAlpha" operator="arithmetic" k2="-1" k3="1" result="shadowInnerInner1"></feComposite>
            <feColorMatrix values="0 0 0 0 0.3   0 0 0 0 0.1   0 0 0 0 0.1  0 0 0 1 0" type="matrix" in="shadowInnerInner1"></feColorMatrix>
        </filter>
        <path d="M500.6,471.5 C500.3,471.2 500.1,470.8 499.8,470.4 C499.9,470.9 500.0,471.3 500.0,471.8 C500.2,471.7 500.4,471.6 500.6,471.5" id="path-19"></path>
        <filter x="-50%" y="-50%" width="200%" height="200%" filterUnits="objectBoundingBox" id="filter-20">
            <feOffset dx="0" dy="3" in="SourceAlpha" result="shadowOffsetInner1"></feOffset>
            <feComposite in="shadowOffsetInner1" in2="SourceAlpha" operator="arithmetic" k2="-1" k3="1" result="shadowInnerInner1"></feComposite>
            <feColorMatrix values="0 0 0 0 0.3   0 0 0 0 0.1   0 0 0 0 0.1  0 0 0 1 0" type="matrix" in="shadowInnerInner1"></feColorMatrix>
        </filter>
        <path d="M175.4,513.7 C175.2,513.8 175.0,513.8 174.9,513.9 C175.0,514.2 175.1,514.6 175.3,514.9 C175.3,514.5 175.3,514.1 175.4,513.7" id="path-21"></path>
        <filter x="-50%" y="-50%" width="200%" height="200%" filterUnits="objectBoundingBox" id="filter-22">
            <feOffset dx="0" dy="3" in="SourceAlpha" result="shadowOffsetInner1"></feOffset>
            <feComposite in="shadowOffsetInner1" in2="SourceAlpha" operator="arithmetic" k2="-1" k3="1" result="shadowInnerInner1"></feComposite>
            <feColorMatrix values="0 0 0 0 0.3   0 0 0 0 0.1   0 0 0 0 0.1  0 0 0 1 0" type="matrix" in="shadowInnerInner1"></feColorMatrix>
        </filter>
        <path d="M356.2,467.2 C359.5,467.7 363.4,468.8 366.7,470.6 C366.9,470.1 367.0,469.7 367.2,469.3 C363.7,468.6 360.2,466.8 357.1,464.7 C356.8,465.6 356.5,466.4 356.2,467.2" id="path-23"></path>
        <filter x="-50%" y="-50%" width="200%" height="200%" filterUnits="objectBoundingBox" id="filter-24">
            <feOffset dx="0" dy="3" in="SourceAlpha" result="shadowOffsetInner1"></feOffset>
            <feComposite in="shadowOffsetInner1" in2="SourceAlpha" operator="arithmetic" k2="-1" k3="1" result="shadowInnerInner1"></feComposite>
            <feColorMatrix values="0 0 0 0 0.3   0 0 0 0 0.1   0 0 0 0 0.1  0 0 0 1 0" type="matrix" in="shadowInnerInner1"></feColorMatrix>
        </filter>
        <path d="M213.6,513.0 C213.7,513.7 213.7,514.5 213.7,515.2 C215.1,515.2 216.4,515.1 217.8,515.0 C217.6,514.2 217.5,513.3 217.4,512.5 C216.2,512.9 214.9,513.0 213.6,513.0 L213.6,513.0 Z" id="path-25"></path>
        <filter x="-50%" y="-50%" width="200%" height="200%" filterUnits="objectBoundingBox" id="filter-26">
            <feOffset dx="0" dy="3" in="SourceAlpha" result="shadowOffsetInner1"></feOffset>
            <feComposite in="shadowOffsetInner1" in2="SourceAlpha" operator="arithmetic" k2="-1" k3="1" result="shadowInnerInner1"></feComposite>
            <feColorMatrix values="0 0 0 0 0.3   0 0 0 0 0.1   0 0 0 0 0.1  0 0 0 1 0" type="matrix" in="shadowInnerInner1"></feColorMatrix>
        </filter>
    </defs>
    <g id="Page-1-Copy" stroke="none" stroke-width="1" fill="none" fill-rule="evenodd">
        <g id="back_2">
            <g id="Page-1" transform="translate(357.0, 47.0)">
                <path d="M253.0,0.5 C253.5,0.9 253.9,1.2 254.4,1.6 C254.1,1.1 253.9,0.5 253.6,0.0 C253.4,0.1 253.2,0.3 253.0,0.5" id="Fill-5" fill="#000000"></path>
                <path d="M415.5,19.8 C415.7,19.8 415.9,19.8 416.1,19.9 C416.1,19.4 416.1,19.0 416.2,18.5 C415.9,18.9 415.7,19.4 415.5,19.8" id="Fill-7" fill="#000000"></path>
                <g id="Fill-14">
                    <use fill="#C5512C" fill-rule="evenodd" xlink:href="#path-1"></use>
                    <use fill="black" fill-opacity="1" filter="url(#filter-2)" xlink:href="#path-1"></use>
                </g>
                <g id="Fill-16">
                    <use fill="#C5512C" fill-rule="evenodd" xlink:href="#path-3"></use>
                    <use fill="black" fill-opacity="1" filter="url(#filter-4)" xlink:href="#path-3"></use>
                </g>
                <g id="Fill-18">
                    <use fill="#C5512C" fill-rule="evenodd" xlink:href="#path-5"></use>
                    <use fill="black" fill-opacity="1" filter="url(#filter-6)" xlink:href="#path-5"></use>
                </g>
                <g id="Fill-20">
                    <use fill="#C5512C" fill-rule="evenodd" xlink:href="#path-7"></use>
                    <use fill="black" fill-opacity="1" filter="url(#filter-8)" xlink:href="#path-7"></use>
                </g>
                <g id="Fill-22">
                    <use fill="#C5512C" fill-rule="evenodd" xlink:href="#path-9"></use>
                    <use fill="black" fill-opacity="1" filter="url(#filter-10)" xlink:href="#path-9"></use>
                </g>
                <g id="Fill-24">
                    <use fill="#C5512C" fill-rule="evenodd" xlink:href="#path-11"></use>
                    <use fill="black" fill-opacity="1" filter="url(#filter-12)" xlink:href="#path-11"></use>
                </g>
                <g id="Fill-26">
                    <use fill="#C5512C" fill-rule="evenodd" xlink:href="#path-13"></use>
                    <use fill="black" fill-opacity="1" filter="url(#filter-14)" xlink:href="#path-13"></use>
                </g>
                <g id="Fill-29">
                    <use fill="#C5512C" fill-rule="evenodd" xlink:href="#path-15"></use>
                    <use fill="black" fill-opacity="1" filter="url(#filter-16)" xlink:href="#path-15"></use>
                </g>
                <g id="Fill-31">
                    <use fill="#C5512C" fill-rule="evenodd" xlink:href="#path-17"></use>
                    <use fill="black" fill-opacity="1" filter="url(#filter-18)" xlink:href="#path-17"></use>
                </g>
                <g id="Fill-33">
                    <use fill="#C5512C" fill-rule="evenodd" xlink:href="#path-19"></use>
                    <use fill="black" fill-opacity="1" filter="url(#filter-20)" xlink:href="#path-19"></use>
                </g>
                <g id="Fill-35">
                    <use fill="#C5512C" fill-rule="evenodd" xlink:href="#path-21"></use>
                    <use fill="black" fill-opacity="1" filter="url(#filter-22)" xlink:href="#path-21"></use>
                </g>
                <g id="Fill-37">
                    <use fill="#C5512C" fill-rule="evenodd" xlink:href="#path-23"></use>
                    <use fill="black" fill-opacity="1" filter="url(#filter-24)" xlink:href="#path-23"></use>
                </g>
                <g id="Fill-39">
                    <use fill="#C5512C" fill-rule="evenodd" xlink:href="#path-25"></use>
                    <use fill="black" fill-opacity="1" filter="url(#filter-26)" xlink:href="#path-25"></use>
                </g>
            </g>
            <path d="M881.5,65.5 C965,122 1013,166 977.5,351.5 C942,537 957.5,551.5 813.5,564 C669.5,576.5 657.5,664.5 613.5,694.5 C569.5,724.5 448.5,760.5 374.5,618 C300.5,475.5 237.9,349 308.5,234.5 C379.0,120 505.0,66 620.5,58.5 C735.9,51 798,9 881.5,65.5 Z" id="Path-33" stroke="#000000" opacity="0.2"></path>
            <path d="M450,647 C475.5,672 538.5,681.5 560.5,655.5 C582.5,629.5 458,575.4 446,592.5 C434,609.5 424.5,622 450,647 Z" id="Path-35" stroke="#000000" opacity="0.2"></path>
            <path d="M1012.1,618.2 C906.4,596.6 746.2,567.6 692.8,653.8 C639.4,740.1 574.3,834.6 613.3,880.8 C652.2,927.0 903.1,967.0 973.7,913.1 C1044.4,859.1 1117.8,639.9 1012.1,618.2 Z" id="Path-77" stroke="#000000" opacity="0.2"></path>
            <path d="M859.7,632.9 C820.7,619.9 734.7,651.4 717.2,699.9 C699.7,748.4 666.2,807.9 737.7,773.4 C809.2,738.9 898.7,645.9 859.7,632.9 Z" id="Path-78" stroke="#000000" opacity="0.2"></path>
            <path d="M856,-24.5 C993.5,48.5 1090,82.5 1059.5,259 C1029,435.5 956.5,533 1045,566.5 C1133.5,600 1206.5,546.5 1166.5,703.5 C1126.5,860.5 1031.5,1034 839,1001 C646.5,968 532,907 532,841.5 C532,776 448.5,814.5 392,785 C335.5,755.5 16.4,481 165,240.5 C313.5,2.1e-13 501.4,-49.5 501.5,-49.5 C501.5,-49.5 414.9,-131.9 326,-66 C237.0,-1.2e-06 62.5,140.5 42,245 C21.5,349.4 58.4,509.4 151,606.5 C243.5,703.5 356.5,832.9 416,825 C475.4,817.0 478.9,826.0 533,913.5 C587.0,1000.9 720.4,1104.5 943.5,1045 C1166.5,985.4 1190.9,888.4 1214.5,781 C1238.0,673.5 1214.9,542.0 1157,470.5 C1099.0,398.9 1159.9,255.4 1160,147 C1160.0,38.5 1067.5,-41 1067.5,-41" id="Path-79" stroke="#000000" opacity="0.2"></path>
        </g>
    </g>
</svg>
