<?xml version="1.0" encoding="UTF-8" standalone="no"?>
<svg width="3280px" height="1712px" viewBox="0 0 3280 1712" version="1.1" xmlns="http://www.w3.org/2000/svg" xmlns:xlink="http://www.w3.org/1999/xlink">
    <!-- Generator: Sketch 39.1 (31720) - http://www.bohemiancoding.com/sketch -->
    <title>box_rot</title>
    <desc>Created with Sketch.</desc>
    <defs></defs>
    <g id="Page-1" stroke="none" stroke-width="1" fill="none" fill-rule="evenodd">
        <g id="box_rot">
            <polygon id="Path-7" fill="#8CC9C6" points="225 161 214 240 437 240 428 161"></polygon>
            <polygon id="Path-8" fill="#5D9F9C" points="215 239.5 217.5 402.5 432.0 402.5 436.5 239.5"></polygon>
            <polygon id="Path-14" fill="#8CC9C6" points="900 166.5 932 244.5 1149.5 230.5 1099.5 153"></polygon>
            <polygon id="Path-32" fill="#5D9F9C" points="932 243.5 933 409 1144.5 393 1148.5 230.5"></polygon>
            <polygon id="Path-39" fill="#5D9F9C" points="900.5 168 903 321 933.5 409 932.5 243.5"></polygon>
            <polygon id="Path-43" fill="#8CC9C6" points="1580 170.5 1651 246 1853.5 217 1768.5 146.5"></polygon>
            <polygon id="Path-47" fill="#5D9F9C" points="1651.5 246 1651.5 411.0 1847.5 378 1853.5 217"></polygon>
            <polygon id="Path-51" fill="#5D9F9C" points="1580 170.5 1651 245.5 1651 411 1581.5 326.5"></polygon>
            <polygon id="Path-55" fill="#8CC9C6" points="2261.5 173.5 2370.5 242 2550.5 201 2433.5 137.5"></polygon>
            <polygon id="Path-59" fill="#5D9F9C" points="2370.5 241.5 2549.5 201 2543 359 2368 407"></polygon>
            <polygon id="Path-63" fill="#5D9F9C" points="2261 172.5 2370 241.5 2368 406.5 2262 328"></polygon>
            <polygon id="Path-67" fill="#8CC9C6" points="2943.5 174 3084.5 235 3237 184 3094 129.5"></polygon>
            <path d="M3086.5,234.5 L3081,399 L3229.5,340.5 L3236,184.5 L3086.5,234.5 Z" id="Path-72" fill="#5D9F9C"></path>
            <polygon id="Path-76" fill="#5D9F9C" points="2943.5 174.5 3085.5 235 3081.5 398 2944 330"></polygon>
            <polygon id="Path-150" fill="#8CC9C6" points="346 603 515 653 634 594 470 549"></polygon>
            <polygon id="Path-151" fill="#5D9F9C" points="515 652 508.5 814.5 626 747 633 595.5"></polygon>
            <polygon id="Path-152" fill="#5D9F9C" points="346.5 602.5 515 653 508 814 346 758.5"></polygon>
            <polygon id="Path-153" fill="#8CC9C6" points="1028 601 1217 638.5 1300.5 574.5 1122 541"></polygon>
            <polygon id="Path-154" fill="#5D9F9C" points="1217.5 639 1209 800 1291.5 725.5 1300 575"></polygon>
            <polygon id="Path-155" fill="#5D9F9C" points="1029 601 1218 638 1209 799.5 1027 755.5"></polygon>
            <polygon id="Path-156" fill="#8CC9C6" points="1709 596.5 1909.5 622.5 1955.5 555.5 1768 534"></polygon>
            <polygon id="Path-157" fill="#5D9F9C" points="1710 596.5 1707.5 750.5 1901.5 780 1909.5 621.5"></polygon>
            <polygon id="Path-158" fill="#5D9F9C" points="1908 622.5 1954 555.5 1946.5 701 1900.5 779"></polygon>
            <polygon id="Path-159" fill="#8CC9C6" points="2408 524 2597 531 2598 598 2392 591"></polygon>
            <polygon id="Path-160" fill="#5D9F9C" points="2392 590.5 2390 743.5 2589 754.5 2598.5 597.5"></polygon>
            <polygon id="Path-161" fill="#8CC9C6" points="3050 518.5 3065 583.5 3266.5 581.5 3235 516"></polygon>
            <polygon id="Path-162" fill="#5D9F9C" points="3051 520 3046.5 658.5 3061.5 736.5 3065.5 583"></polygon>
            <polygon id="Path-163" fill="#5D9F9C" points="3066.5 583.5 3266 582 3256.5 734 3062.5 736.5"></polygon>
            <polygon id="Path-164" fill="#8CC9C6" points="2911 936.5 3080.5 961.5 3147 908 2985.5 886"></polygon>
            <polygon id="Path-165" fill="#5D9F9C" points="2912 937 2912.5 1076 3077.5 1106.5 3080.5 962.5"></polygon>
            <polygon id="Path-166" fill="#5D9F9C" points="3080 962.5 3148 908.5 3142 1045.5 3078.5 1105.5"></polygon>
            <polygon id="Path-167" fill="#8CC9C6" points="2285 934 2436 972 2540 925 2391.5 890.5"></polygon>
            <polygon id="Path-168" fill="#5D9F9C" points="2286.5 933.5 2285 1073 2433 1117.5 2436 972"></polygon>
            <polygon id="Path-169" fill="#5D9F9C" points="2436 972 2540 924.5 2532 1061.5 2433 1118"></polygon>
            <polygon id="Path-170" fill="#8CC9C6" points="1658 934.5 1783 981.5 1918 942 1789.5 897.5"></polygon>
            <polygon id="Path-171" fill="#5D9F9C" points="1659 934.5 1658 1074 1780 1129.5 1783 981"></polygon>
            <polygon id="Path-172" fill="#5D9F9C" points="1782.5 981 1917 941.5 1911 1082.5 1780 1128.5"></polygon>
            <polygon id="Path-173" fill="#8CC9C6" points="1029.5 936 1125 994 1288.5 962.5 1187 909.5"></polygon>
            <polygon id="Path-174" fill="#5D9F9C" points="1030.5 937 1029 1076.5 1119.5 1141.5 1125.5 993.5"></polygon>
            <polygon id="Path-175" fill="#5D9F9C" points="1126 994.5 1287.5 962.5 1280 1107.5 1120.5 1141.5"></polygon>
            <polygon id="Path-176" fill="#8CC9C6" points="399.5 940 458.5 1002.5 645 985 573 924"></polygon>
            <polygon id="Path-177" fill="#5D9F9C" points="399.5 941 398 1081 454 1153 458 1002"></polygon>
            <polygon id="Path-178" fill="#5D9F9C" points="458.5 1002 644 985.5 635.5 1133 454.5 1152.5"></polygon>
            <polygon id="Path-179" fill="#8CC9C6" points="304.5 1313 473 1325 442.5 1380.5 259.5 1367.5"></polygon>
            <polygon id="Path-180" fill="#5D9F9C" points="441.5 1379.5 439 1524.5 471.5 1459 473 1325"></polygon>
            <polygon id="Path-181" fill="#5D9F9C" points="441.5 1379.5 261 1368 262 1509 439.5 1524"></polygon>
            <polygon id="Path-182" fill="#8CC9C6" points="1070.5 1318.5 896.9 1318.5 890 1372.5 1076.0 1372.5"></polygon>
            <polygon id="Path-183" fill="#5D9F9C" points="890.5 1372.5 1075.5 1372.5 1074.5 1515 892.9 1515"></polygon>
        </g>
    </g>
</svg>
