<?xml version="1.0" encoding="UTF-8" standalone="no"?>
<svg width="109px" height="132px" viewBox="0 0 109 132" version="1.1" xmlns="http://www.w3.org/2000/svg" xmlns:xlink="http://www.w3.org/1999/xlink">
    <!-- Generator: Sketch 39.1 (31720) - http://www.bohemiancoding.com/sketch -->
    <title>building_2</title>
    <desc>Created with Sketch.</desc>
    <defs>
        <circle id="path-1" cx="35" cy="69" r="33"></circle>
        <filter x="-50%" y="-50%" width="200%" height="200%" filterUnits="objectBoundingBox" id="filter-2">
            <feMorphology radius="4.5" operator="dilate" in="SourceAlpha" result="shadowSpreadOuter1"></feMorphology>
            <feOffset dx="0" dy="0" in="shadowSpreadOuter1" result="shadowOffsetOuter1"></feOffset>
            <feGaussianBlur color-interpolation-filters="sRGB" stdDeviation="4.5" in="shadowOffsetOuter1" result="shadowBlurOuter1"></feGaussianBlur>
            <feColorMatrix values="0 0 0 0 1   0 0 0 0 1   0 0 0 0 1  0 0 0 0.5 0" type="matrix" in="shadowBlurOuter1"></feColorMatrix>
        </filter>
        <path d="M71,70 C71,50.6 55.3,35 36,35 C16.6,35 1,50.6 1,70 C1,89.3 16.6,105 36,105 C55.3,105 71,89.3 71,70 Z M7,70 C7,53.9 19.9,41 36,41 C52.0,41 65,53.9 65,70 C65,86.0 52.0,99 36,99 C19.9,99 7,86.0 7,70 Z" id="path-3"></path>
        <filter x="-50%" y="-50%" width="200%" height="200%" filterUnits="objectBoundingBox" id="filter-4">
            <feOffset dx="0" dy="2" in="SourceAlpha" result="shadowOffsetOuter1"></feOffset>
            <feColorMatrix values="0 0 0 0 0.4   0 0 0 0 0.5   0 0 0 0 0.7  0 0 0 1 0" type="matrix" in="shadowOffsetOuter1"></feColorMatrix>
        </filter>
        <path d="M50.8,41.9 C44.6,37.7 37.5,37.1 36.3,28.2 C36.2,27.4 41.1,12.9 40.5,11.8 C38.1,7.5 27.8,17.0 26.6,17.1 C25.4,17.3 26.0,14.5 24.9,14.0 C13.6,9.1 24.6,24.1 18.5,5.1 C18.3,4.5 17.4,6.6 17.0,6.2 C16.0,5.2 16.8,3.1 15.7,2.2 C14.9,1.5 13.4,2.9 12.5,2.4 C9.4,0.7 20.7,-0.6 10.3,1.4" id="path-5"></path>
        <filter x="-50%" y="-50%" width="200%" height="200%" filterUnits="objectBoundingBox" id="filter-6">
            <feMorphology radius="3" operator="dilate" in="SourceAlpha" result="shadowSpreadOuter1"></feMorphology>
            <feOffset dx="0" dy="0" in="shadowSpreadOuter1" result="shadowOffsetOuter1"></feOffset>
            <feMorphology radius="3.5" operator="erode" in="SourceAlpha" result="shadowInner"></feMorphology>
            <feOffset dx="0" dy="0" in="shadowInner" result="shadowInner"></feOffset>
            <feComposite in="shadowOffsetOuter1" in2="shadowInner" operator="out" result="shadowOffsetOuter1"></feComposite>
            <feGaussianBlur color-interpolation-filters="sRGB" stdDeviation="6.5" in="shadowOffsetOuter1" result="shadowBlurOuter1"></feGaussianBlur>
            <feColorMatrix values="0 0 0 0 0   0 0 0 0 0.4   0 0 0 0 1  0 0 0 0.5 0" type="matrix" in="shadowBlurOuter1" result="shadowMatrixOuter1"></feColorMatrix>
            <feMorphology radius="1.5" operator="dilate" in="SourceAlpha" result="shadowSpreadOuter2"></feMorphology>
            <feOffset dx="0" dy="0" in="shadowSpreadOuter2" result="shadowOffsetOuter2"></feOffset>
            <feMorphology radius="2" operator="erode" in="SourceAlpha" result="shadowInner"></feMorphology>
            <feOffset dx="0" dy="0" in="shadowInner" result="shadowInner"></feOffset>
            <feComposite in="shadowOffsetOuter2" in2="shadowInner" operator="out" result="shadowOffsetOuter2"></feComposite>
            <feGaussianBlur color-interpolation-filters="sRGB" stdDeviation="2" in="shadowOffsetOuter2" result="shadowBlurOuter2"></feGaussianBlur>
            <feColorMatrix values="0 0 0 0 1   0 0 0 0 1   0 0 0 0 1  0 0 0 1 0" type="matrix" in="shadowBlurOuter2" result="shadowMatrixOuter2"></feColorMatrix>
            <feMerge>
                <feMergeNode in="shadowMatrixOuter1"></feMergeNode>
                <feMergeNode in="shadowMatrixOuter2"></feMergeNode>
            </feMerge>
        </filter>
        <path d="M44.9,2.0 C36.0,4.7 42.6,24.7 36.2,24.4 C33.7,24.2 32.4,20.6 29.9,20.1 C-0.5,14.0 49.4,30.7 25.3,20.5 C24.2,20.0 22.7,20.8 21.7,20.2 C20.6,19.6 20.5,16.9 19.3,17.3 C18.1,17.7 19.2,20.0 18.6,21.2 C17.5,23.1 15.1,24.2 14.3,26.2 C13.9,27.2 14.4,28.7 15.4,29.1 C18.7,30.5 18.6,21.6 23.0,28.9 C23.2,29.3 21.1,35.1 21.7,37.0 C22.1,38.4 25.0,37.9 25.3,39.3 C25.6,41.0 24.7,43.3 23.1,44.1 C19.2,46.0 15.8,40.1 13.0,39.6 C7.5,38.6 10.2,42.6 5.9,43.5" id="path-7"></path>
        <filter x="-50%" y="-50%" width="200%" height="200%" filterUnits="objectBoundingBox" id="filter-8">
            <feMorphology radius="3" operator="dilate" in="SourceAlpha" result="shadowSpreadOuter1"></feMorphology>
            <feOffset dx="0" dy="0" in="shadowSpreadOuter1" result="shadowOffsetOuter1"></feOffset>
            <feMorphology radius="3.5" operator="erode" in="SourceAlpha" result="shadowInner"></feMorphology>
            <feOffset dx="0" dy="0" in="shadowInner" result="shadowInner"></feOffset>
            <feComposite in="shadowOffsetOuter1" in2="shadowInner" operator="out" result="shadowOffsetOuter1"></feComposite>
            <feGaussianBlur color-interpolation-filters="sRGB" stdDeviation="6.5" in="shadowOffsetOuter1" result="shadowBlurOuter1"></feGaussianBlur>
            <feColorMatrix values="0 0 0 0 0   0 0 0 0 0.4   0 0 0 0 1  0 0 0 0.5 0" type="matrix" in="shadowBlurOuter1" result="shadowMatrixOuter1"></feColorMatrix>
            <feMorphology radius="1.5" operator="dilate" in="SourceAlpha" result="shadowSpreadOuter2"></feMorphology>
            <feOffset dx="0" dy="0" in="shadowSpreadOuter2" result="shadowOffsetOuter2"></feOffset>
            <feMorphology radius="2" operator="erode" in="SourceAlpha" result="shadowInner"></feMorphology>
            <feOffset dx="0" dy="0" in="shadowInner" result="shadowInner"></feOffset>
            <feComposite in="shadowOffsetOuter2" in2="shadowInner" operator="out" result="shadowOffsetOuter2"></feComposite>
            <feGaussianBlur color-interpolation-filters="sRGB" stdDeviation="2" in="shadowOffsetOuter2" result="shadowBlurOuter2"></feGaussianBlur>
            <feColorMatrix values="0 0 0 0 1   0 0 0 0 1   0 0 0 0 1  0 0 0 1 0" type="matrix" in="shadowBlurOuter2" result="shadowMatrixOuter2"></feColorMatrix>
            <feMerge>
                <feMergeNode in="shadowMatrixOuter1"></feMergeNode>
                <feMergeNode in="shadowMatrixOuter2"></feMergeNode>
            </feMerge>
        </filter>
        <path d="M56.4,14.0 C55.5,13.8 54.5,13.9 53.7,13.6 L48.6,13.8 C47.4,13.3 45.5,3.4 42.1,11.0 C39.7,16.2 44.4,19.1 37.6,22.3 C33.3,24.2 29.9,19.9 27.3,19.6 C25.0,19.3 23.0,21.5 20.7,21.5 C19.8,21.5 19.4,18.8 18.7,19.5 C15.2,22.8 19.7,27.9 12.1,30.4 C11.4,30.7 18.2,28.3 15.6,32.0 C14.7,33.2 12.8,33.6 11.3,33.7 C9.5,33.8 7.1,34.1 6.0,32.7 C3.7,29.9 3.5,25.2 6.8,23.4 C7.5,23.0 6.1,25.8 5.3,25.5 C4.3,25.1 4.9,21.6 4.2,22.4 C-1.0,28.9 7.7,32.4 0.3,31.9 C-0.0,31.9 0.3,32.6 0.3,32.9" id="path-9"></path>
        <filter x="-50%" y="-50%" width="200%" height="200%" filterUnits="objectBoundingBox" id="filter-10">
            <feMorphology radius="3" operator="dilate" in="SourceAlpha" result="shadowSpreadOuter1"></feMorphology>
            <feOffset dx="0" dy="0" in="shadowSpreadOuter1" result="shadowOffsetOuter1"></feOffset>
            <feMorphology radius="3.5" operator="erode" in="SourceAlpha" result="shadowInner"></feMorphology>
            <feOffset dx="0" dy="0" in="shadowInner" result="shadowInner"></feOffset>
            <feComposite in="shadowOffsetOuter1" in2="shadowInner" operator="out" result="shadowOffsetOuter1"></feComposite>
            <feGaussianBlur color-interpolation-filters="sRGB" stdDeviation="6.5" in="shadowOffsetOuter1" result="shadowBlurOuter1"></feGaussianBlur>
            <feColorMatrix values="0 0 0 0 0   0 0 0 0 0.4   0 0 0 0 1  0 0 0 0.5 0" type="matrix" in="shadowBlurOuter1" result="shadowMatrixOuter1"></feColorMatrix>
            <feMorphology radius="1.5" operator="dilate" in="SourceAlpha" result="shadowSpreadOuter2"></feMorphology>
            <feOffset dx="0" dy="0" in="shadowSpreadOuter2" result="shadowOffsetOuter2"></feOffset>
            <feMorphology radius="2" operator="erode" in="SourceAlpha" result="shadowInner"></feMorphology>
            <feOffset dx="0" dy="0" in="shadowInner" result="shadowInner"></feOffset>
            <feComposite in="shadowOffsetOuter2" in2="shadowInner" operator="out" result="shadowOffsetOuter2"></feComposite>
            <feGaussianBlur color-interpolation-filters="sRGB" stdDeviation="2" in="shadowOffsetOuter2" result="shadowBlurOuter2"></feGaussianBlur>
            <feColorMatrix values="0 0 0 0 1   0 0 0 0 1   0 0 0 0 1  0 0 0 1 0" type="matrix" in="shadowBlurOuter2" result="shadowMatrixOuter2"></feColorMatrix>
            <feMerge>
                <feMergeNode in="shadowMatrixOuter1"></feMergeNode>
                <feMergeNode in="shadowMatrixOuter2"></feMergeNode>
            </feMerge>
        </filter>
        <path d="M71,35 C71,15.6 55.3,0 36,0 C16.6,0 1,15.6 1,35 C1,54.3 16.6,70 36,70 C55.3,70 71,54.3 71,35 Z M7,35 C7,18.9 19.9,6 36,6 C52.0,6 65,18.9 65,35 C65,51.0 52.0,64 36,64 C19.9,64 7,51.0 7,35 Z" id="path-11"></path>
        <filter x="-50%" y="-50%" width="200%" height="200%" filterUnits="objectBoundingBox" id="filter-12">
            <feOffset dx="0" dy="2" in="SourceAlpha" result="shadowOffsetOuter1"></feOffset>
            <feColorMatrix values="0 0 0 0 0.4   0 0 0 0 0.5   0 0 0 0 0.7  0 0 0 1 0" type="matrix" in="shadowOffsetOuter1"></feColorMatrix>
        </filter>
        <path d="M50,99 C50,96.5 50,91 47,92.5 C44,94 44.5,98.5 40.5,96 C36.5,93.5 34,95 34,92 C34,89 33,85 33,85 C33,85 26.5,82.5 25,82.5 C23.5,82.5 19.5,81.5 19.5,79.5 C19.5,77.5 24,76 25.5,76 C27,76 28,77.5 30.5,77.5 C33,77.5 34,80.5 36,79 C38,77.5 36.5,76 36.5,75 C36.5,74 18,72 17,72 C16,72 11,75.5 10,72.5 C9,69.5 6,65.5 6,64 C6,62.5 -2.0,64 1.5,60.5 C5.0,57 5.5,53.5 5.5,53.5" id="path-13"></path>
        <filter x="-50%" y="-50%" width="200%" height="200%" filterUnits="objectBoundingBox" id="filter-14">
            <feMorphology radius="3" operator="dilate" in="SourceAlpha" result="shadowSpreadOuter1"></feMorphology>
            <feOffset dx="0" dy="0" in="shadowSpreadOuter1" result="shadowOffsetOuter1"></feOffset>
            <feMorphology radius="3.5" operator="erode" in="SourceAlpha" result="shadowInner"></feMorphology>
            <feOffset dx="0" dy="0" in="shadowInner" result="shadowInner"></feOffset>
            <feComposite in="shadowOffsetOuter1" in2="shadowInner" operator="out" result="shadowOffsetOuter1"></feComposite>
            <feGaussianBlur color-interpolation-filters="sRGB" stdDeviation="6.5" in="shadowOffsetOuter1" result="shadowBlurOuter1"></feGaussianBlur>
            <feColorMatrix values="0 0 0 0 0   0 0 0 0 0.4   0 0 0 0 1  0 0 0 0.5 0" type="matrix" in="shadowBlurOuter1" result="shadowMatrixOuter1"></feColorMatrix>
            <feMorphology radius="1.5" operator="dilate" in="SourceAlpha" result="shadowSpreadOuter2"></feMorphology>
            <feOffset dx="0" dy="0" in="shadowSpreadOuter2" result="shadowOffsetOuter2"></feOffset>
            <feMorphology radius="2" operator="erode" in="SourceAlpha" result="shadowInner"></feMorphology>
            <feOffset dx="0" dy="0" in="shadowInner" result="shadowInner"></feOffset>
            <feComposite in="shadowOffsetOuter2" in2="shadowInner" operator="out" result="shadowOffsetOuter2"></feComposite>
            <feGaussianBlur color-interpolation-filters="sRGB" stdDeviation="2" in="shadowOffsetOuter2" result="shadowBlurOuter2"></feGaussianBlur>
            <feColorMatrix values="0 0 0 0 1   0 0 0 0 1   0 0 0 0 1  0 0 0 1 0" type="matrix" in="shadowBlurOuter2" result="shadowMatrixOuter2"></feColorMatrix>
            <feMerge>
                <feMergeNode in="shadowMatrixOuter1"></feMergeNode>
                <feMergeNode in="shadowMatrixOuter2"></feMergeNode>
            </feMerge>
        </filter>
    </defs>
    <g id="Page-1-Copy" stroke="none" stroke-width="1" fill="none" fill-rule="evenodd">
        <g id="building_2">
            <g id="Group-5" transform="translate(20.0, 10.0)">
                <g id="Oval-5">
                    <use fill="black" fill-opacity="1" filter="url(#filter-2)" xlink:href="#path-1"></use>
                    <use fill="#000000" fill-rule="evenodd" xlink:href="#path-1"></use>
                </g>
                <g id="Oval-5-Copy-2">
                    <use fill="black" fill-opacity="1" filter="url(#filter-4)" xlink:href="#path-3"></use>
                    <use fill="#FBFBFB" fill-rule="evenodd" xlink:href="#path-3"></use>
                </g>
                <g id="Group-2" transform="translate(12.0, 2.0)" stroke="#FFFFFF" stroke-linecap="square">
                    <path d="M53.5,20.5 L53.5,54.5" id="Line"></path>
                    <path d="M46.5,10.5 L46.5,46.5" id="Line"></path>
                    <path d="M36.5,3.5 L36.5,41.5" id="Line"></path>
                    <path d="M24.5,0.5 L24.5,42.5" id="Line"></path>
                    <path d="M12.5,3.5 L12.5,38.5" id="Line"></path>
                    <path d="M1.5,10.5 L1.5,51.5" id="Line"></path>
                </g>
                <circle id="Mask" fill="#FFFFFF" cx="36" cy="59" r="31"></circle>
                <g id="Group-3" transform="translate(7.0, 9.0)">
                    <g id="Path-21">
                        <use fill="black" fill-opacity="1" filter="url(#filter-6)" xlink:href="#path-5"></use>
                        <use stroke="#FFFFFF" stroke-width="1" xlink:href="#path-5"></use>
                    </g>
                    <g id="Path-22">
                        <use fill="black" fill-opacity="1" filter="url(#filter-8)" xlink:href="#path-7"></use>
                        <use stroke="#FFFFFF" stroke-width="1" xlink:href="#path-7"></use>
                    </g>
                    <g id="Path-23">
                        <use fill="black" fill-opacity="1" filter="url(#filter-10)" xlink:href="#path-9"></use>
                        <use stroke="#FFFFFF" stroke-width="1" xlink:href="#path-9"></use>
                    </g>
                </g>
                <g id="Group-4" opacity="0.2" transform="translate(3.0, 22.0)" stroke="#000000" stroke-linecap="square">
                    <path d="M33.5,43.5 L33.5,80.5" id="Line"></path>
                    <path d="M21.5,41.5 L21.5,78.5" id="Line"></path>
                    <path d="M11.5,34.5 L11.5,72.5" id="Line"></path>
                    <path d="M4.5,24.5 L4.5,63.5" id="Line"></path>
                    <path d="M1.5,12.5 L1.5,53.5" id="Line"></path>
                    <path d="M4.5,0.5 L4.5,34.5" id="Line"></path>
                    <path d="M45.5,41.5 L45.5,77.5" id="Line"></path>
                    <path d="M55.5,34.5 L55.5,72.5" id="Line"></path>
                    <path d="M62.5,25.5 L62.5,60.5" id="Line"></path>
                    <path d="M65.5,13.5 L65.5,45.5" id="Line"></path>
                </g>
                <g id="Oval-5-Copy">
                    <use fill="black" fill-opacity="1" filter="url(#filter-12)" xlink:href="#path-11"></use>
                    <use fill="#FBFBFB" fill-rule="evenodd" xlink:href="#path-11"></use>
                </g>
                <g id="Path-25">
                    <use fill="black" fill-opacity="1" filter="url(#filter-14)" xlink:href="#path-13"></use>
                    <use stroke="#FFFFFF" stroke-width="1" xlink:href="#path-13"></use>
                </g>
            </g>
        </g>
    </g>
</svg>
