<?xml version="1.0" encoding="UTF-8" standalone="no"?>
<svg width="1860px" height="1632px" viewBox="0 0 1860 1632" version="1.1" xmlns="http://www.w3.org/2000/svg" xmlns:xlink="http://www.w3.org/1999/xlink">
    <!-- Generator: Sketch 39.1 (31720) - http://www.bohemiancoding.com/sketch -->
    <title>hand_rot</title>
    <desc>Created with Sketch.</desc>
    <defs></defs>
    <g id="Page-1" stroke="none" stroke-width="1" fill="none" fill-rule="evenodd">
        <g id="hand_rot" fill="#000000">
            <path d="M465.4,1390.4 C457.9,1391.9 451.7,1397.1 448.9,1404.1 C444.4,1407.5 438.2,1413.9 442.3,1421.5 C445.1,1426.4 449.7,1427.9 453.4,1427.9 C457.5,1432.2 463.3,1434.9 469.7,1434.9 C467.8,1418.5 466.4,1403.0 465.4,1390.4 L465.4,1390.4 Z" id="Combined-Shape"></path>
            <path d="M651.2,1390.0 C659.9,1390.7 667.2,1396.3 670.3,1404.1 C674.9,1407.5 681.1,1413.9 677,1421.5 C674.2,1426.4 669.6,1427.9 665.8,1427.9 C661.7,1432.2 655.9,1435 649.5,1435 C648.6,1435 647.8,1434.9 646.9,1434.8 C648.8,1418.3 650.3,1402.7 651.2,1390.0 L651.2,1390.0 Z" id="Combined-Shape"></path>
            <g id="Group-6-Copy-24" transform="translate(1793.3, 1017.5) rotate(-67.0) translate(-1793.3, -1017.5) translate(1765.8, 981.0)">
                <path d="M35.6,69.2 C33.0,70.1 30.3,70.6 27.4,70.6 C13.6,70.6 2.4,59.4 2.4,45.6 C2.4,31.8 13.6,20.6 27.4,20.6 C41.2,20.6 52.4,31.8 52.4,45.6 C52.4,50.5 51.0,55.1 48.5,59.0 L40.5,54.0 C41.1,52.6 41.4,51.2 41.4,49.6 C41.4,43.5 36.5,38.6 30.4,38.6 C24.3,38.6 19.4,43.5 19.4,49.6 C19.4,55.7 24.3,60.6 30.4,60.6 C31.2,60.6 32.1,60.5 32.9,60.3 L32.9,60.3 L35.6,69.2 Z" id="Combined-Shape" transform="translate(27.4, 45.6) rotate(-4.0) translate(-27.4, -45.6) "></path>
                <path d="M16.1,2.5 C3.7,15.1 6.6,35.3 9.8,41.6 C15.6,41.6 27.0,35.9 33.1,31.1 C30.5,27.4 25.2,23.7 27.8,9.0 C30.4,3.3 23.3,-2.6 16.1,2.5 Z" id="Path-6"></path>
            </g>
            <path d="M1816.4,1005.5 C1813.5,1011.1 1813.8,1017.7 1822.5,1025.5 C1826.1,1028.7 1818.7,1029.0 1818.5,1030.5 C1817.6,1034.5 1814,1034.7 1814,1034 C1814,1033 1783.5,1031.7 1783.5,1030.5 C1783.5,1029.2 1805.5,999 1805.5,999 C1805.5,999 1817.5,1003.4 1816.4,1005.5 Z" id="Path-80-Copy-2"></path>
            <g id="Group-6-Copy-23" transform="translate(1424.0, 1024.6) rotate(-67.0) translate(-1424.0, -1024.6) translate(1396.5, 977.6)">
                <path d="M35.6,90.2 C33.0,91.1 30.3,91.6 27.4,91.6 C13.6,91.6 2.4,80.4 2.4,66.6 C2.4,52.8 13.6,41.6 27.4,41.6 C41.2,41.6 52.4,52.8 52.4,66.6 C52.4,71.5 51.0,76.1 48.5,80.0 L40.5,75.0 C41.1,73.6 41.4,72.2 41.4,70.6 C41.4,64.5 36.5,59.6 30.4,59.6 C24.3,59.6 19.4,64.5 19.4,70.6 C19.4,76.7 24.3,81.6 30.4,81.6 C31.2,81.6 32.1,81.5 32.9,81.3 L32.9,81.3 L35.6,90.2 Z" id="Combined-Shape" transform="translate(27.4, 66.6) rotate(-4.0) translate(-27.4, -66.6) "></path>
                <path d="M11.5,3.0 C-0.8,20.9 -1.8,46.1 12.3,63.0 C18.1,63.0 39.5,57.2 32.9,52.0 C25.2,44.9 19.2,34.1 21.8,13.2 C24.4,5.1 18.7,-4.3 11.5,3.0 Z" id="Path-6"></path>
            </g>
            <path d="M1455.8,1015.5 C1449.6,1022.2 1445.4,1030.7 1457.5,1041.5 C1458.5,1042.4 1459.3,1043.2 1460.0,1044.0 C1462.2,1046.5 1449,1050.6 1449,1050 C1449,1049 1425,1040.2 1425,1039 C1425,1037.7 1440.5,1015 1440.5,1015 C1440.5,1015 1446.5,1012 1447.5,1012 C1448.5,1012 1456.8,1014.5 1455.8,1015.5 Z" id="Path-80-Copy"></path>
            <g id="Group-6-Copy-22" transform="translate(1048.1, 1033.0) rotate(-67.0) translate(-1048.1, -1033.0) translate(1020.1, 978.5)">
                <path d="M36.6,105.2 C34.0,106.1 31.3,106.6 28.4,106.6 C14.6,106.6 3.4,95.4 3.4,81.6 C3.4,67.8 14.6,56.6 28.4,56.6 C42.2,56.6 53.4,67.8 53.4,81.6 C53.4,86.5 52.0,91.1 49.5,95.0 L41.5,90.0 C42.1,88.6 42.4,87.2 42.4,85.6 C42.4,79.5 37.5,74.6 31.4,74.6 C25.3,74.6 20.4,79.5 20.4,85.6 C20.4,91.7 25.3,96.6 31.4,96.6 C32.2,96.6 33.1,96.5 33.9,96.3 L33.9,96.3 L36.6,105.2 Z" id="Combined-Shape" transform="translate(28.4, 81.6) rotate(-4.0) translate(-28.4, -81.6) "></path>
                <path d="M12.0,1.2 C-4.2,17.7 -2.1,53.2 12.0,74.8 C17.8,74.8 26.7,65.0 26.7,65.0 C26.7,65.0 44.0,72.8 37.4,66.2 C29.7,57.2 15.5,37.4 20.7,13.8 C24.0,8.5 22.1,-4.0 12.0,1.2 Z" id="Path-6"></path>
            </g>
            <path d="M1083.3,1028.0 C1077.1,1034.7 1072.9,1043.2 1085,1054 C1099,1066.5 1076.5,1063.5 1076.5,1062.5 C1076.5,1061.5 1062,1046.7 1062,1045.5 C1062,1044.2 1068,1027.5 1068,1027.5 C1068,1027.5 1077,1022 1078,1022 C1079,1022 1084.3,1027.0 1083.3,1028.0 Z" id="Path-80"></path>
            <g id="Group-6-Copy-21" transform="translate(665.3, 1041.1) rotate(-63.0) translate(-665.3, -1041.1) translate(633.8, 977.1)">
                <path d="M43.6,124.2 C41.0,125.1 38.3,125.6 35.4,125.6 C21.6,125.6 10.4,114.4 10.4,100.6 C10.4,86.8 21.6,75.6 35.4,75.6 C49.2,75.6 60.4,86.8 60.4,100.6 C60.4,105.5 59.0,110.1 56.5,114.0 L48.5,109.0 C49.1,107.6 49.4,106.2 49.4,104.6 C49.4,98.5 44.5,93.6 38.4,93.6 C32.3,93.6 27.4,98.5 27.4,104.6 C27.4,110.7 32.3,115.6 38.4,115.6 C39.2,115.6 40.1,115.5 40.9,115.3 L40.9,115.3 L43.6,124.2 Z" id="Combined-Shape" transform="translate(35.4, 100.6) rotate(-4.0) translate(-35.4, -100.6) "></path>
                <path d="M13.2,2.6 C-6.5,23.3 -0.8,61.7 16.3,88.8 C23.3,88.8 30.9,82.7 30.9,82.7 C30.9,82.7 53.0,91.0 45.0,82.7 C35.7,71.4 14.2,42.8 23.7,18.4 C27.6,11.7 25.3,-4.0 13.2,2.6 Z" id="Path-6"></path>
            </g>
            <path d="M707.5,1037.1 C700,1044.1 692,1053.6 706,1066.1 C720,1078.6 697.5,1075.6 697.5,1074.6 C697.5,1073.6 683,1058.8 683,1057.6 C683,1056.4 689,1039.6 689,1039.6 C689,1039.6 698,1034.1 699,1034.1 C700,1034.1 715,1030.1 707.5,1037.1 Z" id="Path-80"></path>
            <g id="Group-6-Copy-20" transform="translate(277.5, 1048.9) rotate(-63.0) translate(-277.5, -1048.9) translate(248.0, 981.4)">
                <path d="M42.1,133.6 C39.6,134.5 36.8,135 34,135 C20.1,135 9,123.8 9,110 C9,96.1 20.1,85 34,85 C47.8,85 59,96.1 59,110 C59,114.9 57.5,119.5 55.0,123.4 L47.1,118.3 C47.6,117.0 48,115.5 48,114 C48,107.9 43.0,103 37,103 C30.9,103 26,107.9 26,114 C26,120.0 30.9,125 37,125 C37.8,125 38.6,124.9 39.4,124.7 L39.4,124.7 L42.1,133.6 Z" id="Combined-Shape"></path>
                <path d="M13.6,2.1 C-6.1,22.8 -1.8,69.7 15.3,96.8 C22.3,96.8 29.9,90.7 29.9,90.7 C29.9,90.7 52.0,99.0 44.0,90.7 C34.7,79.4 13.6,43.0 23.1,18.6 C27.0,11.9 25.7,-4.5 13.6,2.1 Z" id="Path-6"></path>
            </g>
            <path d="M324.5,1047.1 C317,1054.1 309,1063.6 323,1076.1 C337,1088.6 314.5,1085.6 314.5,1084.6 C314.5,1083.6 300,1068.8 300,1067.6 C300,1066.4 306,1049.6 306,1049.6 C306,1049.6 315,1044.1 316,1044.1 C317,1044.1 332,1040.1 324.5,1047.1 Z" id="Path-80"></path>
            <g id="Group-6-Copy-18" transform="translate(1746.6, 647.6) rotate(-59.0) translate(-1746.6, -647.6) translate(1715.6, 575.6)">
                <path d="M45.1,142.6 C42.6,143.5 39.8,144 37,144 C23.1,144 12,132.8 12,119 C12,105.1 23.1,94 37,94 C50.8,94 62,105.1 62,119 C62,123.9 60.5,128.5 58.0,132.4 L50.1,127.3 C50.6,126.0 51,124.5 51,123 C51,116.9 46.0,112 40,112 C33.9,112 29,116.9 29,123 C29,129.0 33.9,134 40,134 C40.8,134 41.6,133.9 42.4,133.7 L42.4,133.7 L45.1,142.6 Z" id="Combined-Shape"></path>
                <path d="M14.2,2.3 C-9.0,24.0 1.1,76.3 18.3,105.8 C25.3,105.8 32.9,99.2 32.9,99.2 C32.9,99.2 55.0,108.2 47.0,99.2 C37.7,86.8 10.9,44.8 22.4,18.9 C26.3,11.6 26.4,-4.9 14.2,2.3 Z" id="Path-6"></path>
            </g>
            <path d="M1795.5,650.1 C1788,657.1 1780,666.6 1794,679.1 C1808,691.6 1785.5,688.6 1785.5,687.6 C1785.5,686.6 1771,671.8 1771,670.6 C1771,669.4 1777,652.6 1777,652.6 C1777,652.6 1786,647.1 1787,647.1 C1788,647.1 1803,643.1 1795.5,650.1 Z" id="Path-80"></path>
            <g id="Group-6-Copy-16" transform="translate(1359.8, 652.5) rotate(-56.0) translate(-1359.8, -652.5) translate(1328.8, 579.5)">
                <path d="M45.1,143.6 C42.6,144.5 39.8,145 37,145 C23.1,145 12,133.8 12,120 C12,106.1 23.1,95 37,95 C50.8,95 62,106.1 62,120 C62,124.9 60.5,129.5 58.0,133.4 L50.1,128.3 C50.6,127.0 51,125.5 51,124 C51,117.9 46.0,113 40,113 C33.9,113 29,117.9 29,124 C29,130.0 33.9,135 40,135 C40.8,135 41.6,134.9 42.4,134.7 L42.4,134.7 L45.1,143.6 Z" id="Combined-Shape"></path>
                <path d="M13.5,2.8 C-9.7,24.6 1.1,77.3 18.3,106.8 C25.3,106.8 32.9,100.2 32.9,100.2 C32.9,100.2 55.0,109.2 47.0,100.2 C37.7,87.8 10.9,43.7 22.4,17.9 C26.3,10.6 25.6,-4.4 13.5,2.8 Z" id="Path-6"></path>
            </g>
            <g id="Group-6-Copy-14" transform="translate(961.1, 657.1) rotate(-52.0) translate(-961.1, -657.1) translate(929.6, 585.1)">
                <path d="M46.1,142.6 C43.6,143.5 40.8,144 38,144 C24.1,144 13,132.8 13,119 C13,105.1 24.1,94 38,94 C51.8,94 63,105.1 63,119 C63,123.9 61.5,128.5 59.0,132.4 L51.1,127.3 C51.6,126.0 52,124.5 52,123 C52,116.9 47.0,112 41,112 C34.9,112 30,116.9 30,123 C30,129.0 34.9,134 41,134 C41.8,134 42.6,133.9 43.4,133.7 L43.4,133.7 L46.1,142.6 Z" id="Combined-Shape"></path>
                <path d="M15.6,4.3 C-10.9,20.0 2.1,76.3 19.3,105.8 C26.3,105.8 33.9,99.2 33.9,99.2 C33.9,99.2 58.5,108.2 50.5,99.2 C38.2,81.1 13.2,39.3 26.0,18.7 C29.9,11.4 33.0,-6.4 15.6,4.3 Z" id="Path-6"></path>
            </g>
            <g id="Group-6-Copy-12" transform="translate(569.9, 659.0) rotate(-50.0) translate(-569.9, -659.0) translate(539.4, 588.0)">
                <path d="M44.1,140.6 C41.6,141.5 38.8,142 36,142 C22.1,142 11,130.8 11,117 C11,103.1 22.1,92 36,92 C49.8,92 61,103.1 61,117 C61,121.9 59.5,126.5 57.0,130.4 L49.1,125.3 C49.6,124.0 50,122.5 50,121 C50,114.9 45.0,110 39,110 C32.9,110 28,114.9 28,121 C28,127.0 32.9,132 39,132 C39.8,132 40.6,131.9 41.4,131.7 L41.4,131.7 L44.1,140.6 Z" id="Combined-Shape"></path>
                <path d="M17.3,3.4 C-9.1,19.1 0.1,74.3 17.3,103.8 C24.3,103.8 31.9,97.2 31.9,97.2 C31.9,97.2 56.5,106.2 48.5,97.2 C36.2,79.1 13.7,40.7 26.4,20.0 C31.0,15.8 34.8,-7.4 17.3,3.4 Z" id="Path-6"></path>
            </g>
            <g id="Group-6-Copy-10" transform="translate(176.2, 660.2) rotate(-45.0) translate(-176.2, -660.2) translate(147.2, 592.7)">
                <path d="M41.1,133.6 C38.6,134.5 35.8,135 33,135 C19.1,135 8,123.8 8,110 C8,96.1 19.1,85 33,85 C46.8,85 58,96.1 58,110 C58,114.9 56.5,119.5 54.0,123.4 L46.1,118.3 C46.6,117.0 47,115.5 47,114 C47,107.9 42.0,103 36,103 C29.9,103 25,107.9 25,114 C25,120.0 29.9,125 36,125 C36.8,125 37.6,124.9 38.4,124.7 L38.4,124.7 L41.1,133.6 Z" id="Combined-Shape"></path>
                <path d="M18.5,2.8 C-7.9,18.5 -2.8,67.3 14.3,96.8 C21.3,96.8 28.9,90.2 28.9,90.2 C28.9,90.2 53.5,99.2 45.5,90.2 C33.2,72.1 11.6,40.2 24.3,19.6 C28.9,15.3 35.9,-7.9 18.5,2.8 Z" id="Path-6"></path>
            </g>
            <g id="Group-6-Copy-8" transform="translate(1644.6, 250.1) rotate(-40.0) translate(-1644.6, -250.1) translate(1616.1, 185.1)">
                <path d="M39.1,128.6 C36.6,129.5 33.8,130 31,130 C17.1,130 6,118.8 6,105 C6,91.1 17.1,80 31,80 C44.8,80 56,91.1 56,105 C56,109.9 54.5,114.5 52.0,118.4 L44.1,113.3 C44.6,112.0 45,110.5 45,109 C45,102.9 40.0,98 34,98 C27.9,98 23,102.9 23,109 C23,115.0 27.9,120 34,120 C34.8,120 35.6,119.9 36.4,119.7 L36.4,119.7 L39.1,128.6 Z" id="Combined-Shape"></path>
                <path d="M21.0,3.5 C-5.4,19.3 -4.2,66.0 13,95.5 C20,95.5 31.5,91.0 31.5,91.0 C31.5,91.0 48.3,94.2 40.3,85.2 C28.1,67.1 14.1,41.0 26.9,20.3 C31.5,16.1 38.5,-7.2 21.0,3.5 Z" id="Path-6"></path>
            </g>
            <g id="Group-6-Copy-6" transform="translate(1249.2, 254.3) rotate(-46.0) translate(-1249.2, -254.3) translate(1224.2, 193.3)">
                <path d="M33.1,120.6 C30.6,121.5 27.8,122 25,122 C11.1,122 -1.1e-13,110.8 -1.1e-13,97 C-1.1e-13,83.1 11.1,72 25,72 C38.8,72 50,83.1 50,97 C50,101.9 48.5,106.5 46.0,110.4 L38.1,105.3 C38.6,104.0 39,102.5 39,101 C39,94.9 34.0,90 28,90 C21.9,90 17,94.9 17,101 C17,107.0 21.9,112 28,112 C28.8,112 29.6,111.9 30.4,111.7 L30.4,111.7 L33.1,120.6 Z" id="Combined-Shape"></path>
                <path d="M30.0,5.7 C11.0,20.6 -0.8,35.6 6.7,82.4 C13.7,82.4 47.0,88.1 39.0,79.1 C23.9,49.1 25.7,27.9 46.4,17.0 C52.4,-1.9 42.7,-3.1 30.0,5.7 Z" id="Path-6"></path>
            </g>
            <g id="Group-6-Copy-4" transform="translate(860.7, 247.4) rotate(-29.0) translate(-860.7, -247.4) translate(835.7, 189.9)">
                <path d="M33.1,113.6 C30.6,114.5 27.8,115 25,115 C11.1,115 -1.1e-13,103.8 -1.1e-13,90 C-1.1e-13,76.1 11.1,65 25,65 C38.8,65 50,76.1 50,90 C50,94.9 48.5,99.5 46.0,103.4 L38.1,98.3 C38.6,97.0 39,95.5 39,94 C39,87.9 34.0,83 28,83 C21.9,83 17,87.9 17,94 C17,100.0 21.9,105 28,105 C28.8,105 29.6,104.9 30.4,104.7 L30.4,104.7 L33.1,113.6 Z" id="Combined-Shape"></path>
                <path d="M22.9,5.7 C5.9,16.7 -9.1,45.1 7,80.5 C14,80.5 25.5,76.0 25.5,76.0 C25.5,76.0 44.7,80.6 36.7,71.6 C23.6,53.1 16.9,36.1 35.6,17.9 C41.6,-1.0 35.6,-3.1 22.9,5.7 Z" id="Path-6"></path>
            </g>
            <g id="Group-6-Copy-3" transform="translate(472.9, 242.7) rotate(-16.0) translate(-472.9, -242.7) translate(447.9, 188.7)">
                <path d="M33.1,106.6 C30.6,107.5 27.8,108 25,108 C11.1,108 -5.6e-14,96.8 -5.6e-14,83 C-5.6e-14,69.1 11.1,58 25,58 C38.8,58 50,69.1 50,83 C50,87.9 48.5,92.5 46.0,96.4 L38.1,91.3 C38.6,90.0 39,88.5 39,87 C39,80.9 34.0,76 28,76 C21.9,76 17,80.9 17,87 C17,93.0 21.9,98 28,98 C28.8,98 29.6,97.9 30.4,97.7 L30.4,97.7 L33.1,106.6 Z" id="Combined-Shape"></path>
                <path d="M31.6,0.2 C30.6,0.8 29.4,1.5 28,2.5 C11,13.5 -11.5,41.5 7,73.5 C14,73.5 25.5,69.0 25.5,69.0 C25.5,69.0 39,72.0 31,63.0 C17.9,44.4 21.2,33.0 29.9,18.5 C30.7,17.2 31.6,5.0 31.6,0.2 Z" id="Path-6"></path>
            </g>
            <path d="M284.4,1429.1 C283.7,1434.3 282.9,1439.3 282.0,1443.5 C286.5,1446.6 292.1,1448.3 298.0,1447.9 C311.8,1446.9 322.1,1435.0 321.2,1421.2 C320.2,1407.4 308.3,1397.0 294.5,1398.0 C292.1,1398.2 289.7,1398.7 287.5,1399.5 C287.4,1402.2 287.1,1406 286.6,1410.3 C286.6,1410.3 286.5,1410.3 286.4,1410.2 C281.9,1405.9 273.9,1410.7 276.4,1419.2 C278.4,1423.2 281.2,1426.5 284.4,1429.1 Z" id="Combined-Shape"></path>
        </g>
    </g>
</svg>
