<?xml version="1.0" encoding="UTF-8" standalone="no"?>
<svg width="89px" height="67px" viewBox="0 0 89 67" version="1.1" xmlns="http://www.w3.org/2000/svg" xmlns:xlink="http://www.w3.org/1999/xlink">
    <!-- Generator: Sketch 39.1 (31720) - http://www.bohemiancoding.com/sketch -->
    <title>parashute</title>
    <desc>Created with Sketch.</desc>
    <defs>
        <path d="M16,8 C6,15 3.6e-08,21 3,28 C5.9,35 -1.9,36.9 1.9,46.9 C5.9,56.9 10.0,57 26,58 C41.9,59 47.0,61 52,55 C56.9,49 60,46 60,46 C60,46 50.0,45 45,42 C39.9,39 33.9,31 30,26 C26.0,21 24.0,2.9 24.0,2.9 C24.0,2.9 26,1 16,8 Z" id="path-1"></path>
    </defs>
    <g id="Page-1-Copy" stroke="none" stroke-width="1" fill="none" fill-rule="evenodd">
        <g id="parashute">
            <g id="Group-2" transform="translate(3.0, 4.0)">
                <circle id="Oval-2" stroke-opacity="0.6" stroke="#020101" cx="78" cy="23" r="4"></circle>
                <path d="M57.0,11.2 C49.2,4.5 33.8,-5.2 20,6" id="Path-52" stroke="#FFFFFF"></path>
                <path d="M55.4,18.6 C51.5,16.4 50.2,15 46,15 C41,15 36,13.9 34,18 C32,22.0 26,26 26,26" id="Path-53" stroke="#FFFFFF"></path>
                <path d="M34,33 C37,29 40,24 43,22 C46,20 50,20 53,22 C53.7,22.5 54.5,23.0 55.3,23.5" id="Path-54" stroke="#FFFFFF"></path>
                <path d="M55.8,23.8 C58.0,25.0 60.2,26 63,26 C67,26 72,27 74,25" id="Path" stroke="#FFFFFF" opacity="0.3"></path>
                <path d="M74,23 C67,23 64,23 58,20 C57.1,19.5 56.3,19.1 55.7,18.7" id="Path" stroke="#FFFFFF" opacity="0.3"></path>
                <path d="M74,21 C66,19 66,20 60,14 C59.2,13.2 58.4,12.4 57.4,11.5" id="Path" stroke="#FFFFFF" opacity="0.3"></path>
                <path d="M61.5,32.9 C59.5,33.5 58.4,35.1 59,38 C60,43 64,43 58,47" id="Path-55" stroke="#FFFFFF"></path>
                <path d="M76,26 C73,30 72,34 67,33 C65.1,32.6 63.3,32.5 62.0,32.8" id="Path" stroke="#FFFFFF" opacity="0.3"></path>
                <mask id="mask-2" fill="white">
                    <use xlink:href="#path-1"></use>
                </mask>
                <use id="Mask" fill="#FFFFFF" xlink:href="#path-1"></use>
                <path d="M24,4.9 C23,11.9 23.9,20 26,26 C28.0,32 27.0,33 28,38 C28.9,43 27.9,47 31,49 C34.0,51 42.9,53 47,52 C51.0,51 57.0,49 58,47 C58.9,45 61.0,44 60,43 C58.9,42 53.9,37 53,36 C52.0,35 41.9,23 42,21 C42.0,19 34,7 34,7 C34,7 28,0.9 24,4.9 Z" id="Path-56" fill="#D8D8D8" mask="url(#mask-2)"></path>
            </g>
        </g>
    </g>
</svg>
