<?xml version="1.0" encoding="UTF-8"?>
<svg width="65px" height="130px" viewBox="0 0 65 130" version="1.1" xmlns="http://www.w3.org/2000/svg" xmlns:xlink="http://www.w3.org/1999/xlink">
    <!-- Generator: Sketch 49.1 (51147) - http://www.bohemiancoding.com/sketch -->
    <title>lock_icon3-left</title>
    <desc>Created with Sketch.</desc>
    <defs>
        <path d="M64.0599899,31 C91.5344772,31 103,46.545166 103,59.8 L103,100.6 C103,101.925483 101.922685,103 100.59375,103 L28.40625,103 C27.0773148,103 26,101.925483 26,100.6 L26,59.8 C26,46.545166 36.5855026,31 64.0599899,31 Z" id="path-1"></path>
    </defs>
    <g id="lock_icon3-left" stroke="none" stroke-width="1" fill="none" fill-rule="evenodd">
        <circle id="Mask" fill="#E1AD7F" cx="65" cy="65" r="65"></circle>
        <path d="M17,108 L114,108 C102.08552,121.502486 84.7711039,130 65.5,130 C46.2288961,130 28.9144802,121.502486 17,108 Z" id="Combined-Shape" fill-opacity="0.10377038" fill="#000000"></path>
        <path d="M12.8314526,103 C4.76618464,92.2921841 0,79.0601583 0,64.7391304 C0,58.9498535 0.778881057,53.3385392 2.23972381,48 L15.9076923,48 C19.2723809,48 22,50.668323 22,53.9598662 L22,101.013378 C22,102.110559 21.0907936,103 19.9692308,103 L12.8314526,103 Z" id="Combined-Shape" fill-opacity="0.10377038" fill="#000000"></path>
        <g id="Combined-Shape">
            <use fill="#FFFFFF" fill-rule="evenodd" xlink:href="#path-1"></use>
            <path stroke="#000000" stroke-width="3" d="M64.0599899,32.5 C51.5894495,32.5 42.0742359,35.761487 35.7375925,41.5379627 C30.3305207,46.4670421 27.5,53.0796888 27.5,59.8 L27.5,100.6 C27.5,101.096182 27.9048699,101.5 28.40625,101.5 L100.59375,101.5 C101.09513,101.5 101.5,101.096182 101.5,100.6 L101.5,59.8 C101.5,53.1686215 98.4915674,46.5258276 92.8421332,41.5556372 C86.2732439,35.7765397 76.551708,32.5 64.0599899,32.5 Z"></path>
        </g>
        <path d="M64.5,35.1964286 L64.5,99.8035714" id="Line-9" stroke="#000000" stroke-width="3" stroke-linecap="square"></path>
        <path d="M34.7857143,61.5 L20.2142857,61.5" id="Line-7-Copy-3" stroke="#000000" stroke-width="3" fill="#FFFFFF" stroke-linecap="round"></path>
        <path d="M34.7857143,92.5 L20.2142857,92.5" id="Line-7-Copy-4" stroke="#000000" stroke-width="3" fill="#FFFFFF" stroke-linecap="round"></path>
    </g>
</svg>