<?xml version="1.0" encoding="UTF-8"?>
<svg width="65px" height="65px" viewBox="0 0 65 65" version="1.1" xmlns="http://www.w3.org/2000/svg" xmlns:xlink="http://www.w3.org/1999/xlink">
    <!-- Generator: Sketch 49.1 (51147) - http://www.bohemiancoding.com/sketch -->
    <title>lock_icon3</title>
    <desc>Created with Sketch.</desc>
    <defs>
        <path d="M32.2798891,15.6481481 C46.0237404,15.6481481 51.7592593,23.4447206 51.7592593,30.0925926 L51.7592593,50.5555556 C51.7592593,51.2203428 51.2203428,51.7592593 50.5555556,51.7592593 L14.4444444,51.7592593 C13.7796572,51.7592593 13.2407407,51.2203428 13.2407407,50.5555556 L13.2407407,30.0925926 C13.2407407,23.4447206 18.5360379,15.6481481 32.2798891,15.6481481 Z" id="path-1"></path>
    </defs>
    <g id="lock_icon3" stroke="none" stroke-width="1" fill="none" fill-rule="evenodd">
        <path d="M8.27551284,54.1666667 L56.7244872,54.1666667 C50.7735145,60.8156181 42.1254146,65 32.5,65 C22.8745854,65 14.2264855,60.8156181 8.27551284,54.1666667 Z" id="Combined-Shape" fill-opacity="0.10377038" fill="#000000"></path>
        <path d="M63.8971057,24.0740741 C64.6164601,26.7613185 65,29.585869 65,32.5 C65,39.7087329 62.6530151,46.369298 58.6814817,51.7592593 L55.1666667,51.7592593 C54.6143819,51.7592593 54.1666667,51.311544 54.1666667,50.7592593 L54.1666667,27.0740741 C54.1666667,25.4172198 55.5098124,24.0740741 57.1666667,24.0740741 L63.8971057,24.0740741 Z" id="Combined-Shape" fill-opacity="0.10377038" fill="#000000"></path>
        <path d="M6.31851831,51.7592593 C2.34698486,46.369298 0,39.7087329 0,32.5 C0,29.585869 0.383539914,26.7613185 1.1028943,24.0740741 L7.83333333,24.0740741 C9.49018758,24.0740741 10.8333333,25.4172198 10.8333333,27.0740741 L10.8333333,50.7592593 C10.8333333,51.311544 10.3856181,51.7592593 9.83333333,51.7592593 L6.31851831,51.7592593 Z" id="Combined-Shape" fill-opacity="0.10377038" fill="#000000"></path>
        <g id="Combined-Shape">
            <use fill="#FFFFFF" fill-rule="evenodd" xlink:href="#path-1"></use>
            <path stroke="#000000" stroke-width="1.5" d="M32.2798891,16.3981481 C20.5535061,16.3981481 13.9907407,22.396336 13.9907407,30.0925926 L13.9907407,50.5555556 C13.9907407,50.8061292 14.1938708,51.0092593 14.4444444,51.0092593 L50.5555556,51.0092593 C50.8061292,51.0092593 51.0092593,50.8061292 51.0092593,50.5555556 L51.0092593,30.0925926 C51.0092593,22.5125927 44.0772453,16.3981481 32.2798891,16.3981481 Z"></path>
        </g>
        <path d="M32.1018519,17.4537037 L32.1018519,49.9537037" id="Line-9" stroke="#000000" stroke-width="1.5" stroke-linecap="square"></path>
        <path d="M17.4537037,30.6944444 L10.2314815,30.6944444" id="Line-7-Copy-3" stroke="#000000" stroke-width="1.5" fill="#FFFFFF" stroke-linecap="round"></path>
        <path d="M17.4537037,46.3425926 L10.2314815,46.3425926" id="Line-7-Copy-4" stroke="#000000" stroke-width="1.5" fill="#FFFFFF" stroke-linecap="round"></path>
        <path d="M54.7685185,30.6944444 L47.5462963,30.6944444" id="Line-7-Copy-6" stroke="#000000" stroke-width="1.5" fill="#FFFFFF" stroke-linecap="round"></path>
        <path d="M54.7685185,46.3425926 L47.5462963,46.3425926" id="Line-7-Copy-5" stroke="#000000" stroke-width="1.5" fill="#FFFFFF" stroke-linecap="round"></path>
    </g>
</svg>