<?xml version="1.0" encoding="UTF-8"?>
<svg width="65px" height="65px" viewBox="0 0 65 65" version="1.1" xmlns="http://www.w3.org/2000/svg" xmlns:xlink="http://www.w3.org/1999/xlink">
    <!-- Generator: Sketch 49.1 (51147) - http://www.bohemiancoding.com/sketch -->
    <title>lock_icon1</title>
    <desc>Created with Sketch.</desc>
    <defs></defs>
    <g id="lock_icon1" stroke="none" stroke-width="1" fill="none" fill-rule="evenodd">
        <path d="M8.27551284,54.1666667 L56.7244872,54.1666667 C50.7735145,60.8156181 42.1254146,65 32.5,65 C22.8745854,65 14.2264855,60.8156181 8.27551284,54.1666667 Z" id="Combined-Shape" fill-opacity="0.10377038" fill="#000000"></path>
        <path d="M10.6295874,27.6851531 L59.3646539,27.6852336 C59.8949336,27.685234 60.3330015,28.099181 60.3630025,28.6286115 C60.467184,30.4671095 60.4471926,31.5925137 60.3030282,32.004824 C60.1467241,32.4518541 59.3992296,33.3251958 58.0605447,34.624849 L58.0605778,34.6248832 C57.8739542,34.8060655 57.6240816,34.9074074 57.3639751,34.9074074 L10.6295874,34.9074074 C10.0773026,34.9074074 9.6295874,34.4596922 9.6295874,33.9074074 L9.62958675,28.6851525 C9.62958675,28.1328677 10.077302,27.6851525 10.6295868,27.6851525 C10.629587,27.6851525 10.6295872,27.6851525 10.6295874,27.6851525 Z" id="Rectangle" stroke="#000000" stroke-width="1.5" fill="#FFFFFF"></path>
        <polygon id="Rectangle-18-Copy" fill="#9F9F9F" points="30.739407 30.0925926 36.7579255 30.0925926 34.9074074 32.5 28.8888889 32.5"></polygon>
        <polygon id="Rectangle-18-Copy-2" fill="#9F9F9F" points="40.3690366 30.0925926 46.3875552 30.0925926 44.537037 32.5 38.5185185 32.5"></polygon>
        <polygon id="Rectangle-18-Copy-3" fill="#9F9F9F" points="49.9986663 30.0925926 56.0171848 30.0925926 54.1666667 32.5 48.1481481 32.5"></polygon>
        <path d="M14.2407407,24.0740741 L24.2777778,24.0740741 C24.8300625,24.0740741 25.2777778,24.5217893 25.2777778,25.0740741 L25.2777778,53.5648148 L13.2407407,53.5648148 L13.2407407,25.0740741 C13.2407407,24.5217893 13.688456,24.0740741 14.2407407,24.0740741 Z" id="Rectangle-3" stroke="#000000" stroke-width="1.5" fill="#FFFFFF"></path>
        <path d="M28.287037,53.5648148 L10.2314815,53.5648148" id="Line-7" stroke="#000000" stroke-width="1.5" fill="#FFFFFF" stroke-linecap="round"></path>
    </g>
</svg>