<?xml version="1.0" encoding="UTF-8"?>
<svg width="65px" height="65px" viewBox="0 0 65 65" version="1.1" xmlns="http://www.w3.org/2000/svg" xmlns:xlink="http://www.w3.org/1999/xlink">
    <!-- Generator: Sketch 49.1 (51147) - http://www.bohemiancoding.com/sketch -->
    <title>lock_icon2</title>
    <desc>Created with Sketch.</desc>
    <defs>
        <path d="M32.5,18.0555556 L32.5,18.0555556 C37.8182976,18.0555556 42.1296296,22.3668876 42.1296296,27.6851852 L42.1296296,50.7592593 C42.1296296,51.311544 41.6819144,51.7592593 41.1296296,51.7592593 L23.8703704,51.7592593 C23.3180856,51.7592593 22.8703704,51.311544 22.8703704,50.7592593 L22.8703704,27.6851852 C22.8703704,22.3668876 27.1817024,18.0555556 32.5,18.0555556 Z" id="path-1"></path>
        <path d="M16.8518519,25.2777778 L16.8518519,25.2777778 C18.8462134,25.2777778 20.462963,26.8945273 20.462963,28.8888889 L20.462963,50.7592593 C20.462963,51.311544 20.0152477,51.7592593 19.462963,51.7592593 L14.2407407,51.7592593 C13.688456,51.7592593 13.2407407,51.311544 13.2407407,50.7592593 L13.2407407,28.8888889 C13.2407407,26.8945273 14.8574903,25.2777778 16.8518519,25.2777778 Z" id="path-2"></path>
        <path d="M48.1481481,25.2777778 L48.1481481,25.2777778 C50.1425097,25.2777778 51.7592593,26.8945273 51.7592593,28.8888889 L51.7592593,50.7592593 C51.7592593,51.311544 51.311544,51.7592593 50.7592593,51.7592593 L45.537037,51.7592593 C44.9847523,51.7592593 44.537037,51.311544 44.537037,50.7592593 L44.537037,28.8888889 C44.537037,26.8945273 46.1537866,25.2777778 48.1481481,25.2777778 Z" id="path-3"></path>
    </defs>
    <g id="lock_icon2" stroke="none" stroke-width="1" fill="none" fill-rule="evenodd">
        <polygon id="Path-2" fill="#FFFFFF" points="4 48 5 50 7 51 10 50 10 28 8 26 5 27 4 30"></polygon>
        <polygon id="Path-2-Copy" fill="#FFFFFF" transform="translate(58.000000, 38.500000) scale(-1, 1) translate(-58.000000, -38.500000) " points="55 48 56 50 58 51 61 50 61 28 59 26 56 27 55 30"></polygon>
        <path d="M59.8888889,50.0031571 L59.8888889,28.8888889 C59.8888889,27.7229544 58.9437122,26.7777778 57.7777778,26.7777778 C56.6118433,26.7777778 55.6666667,27.7229544 55.6666667,28.8888889 L55.6666667,50.2592593 L59.7231859,50.2592593 C59.3897217,50.7693859 59.0423064,51.2695665 58.6814817,51.7592593 L55.1666667,51.7592593 C54.6143819,51.7592593 54.1666667,51.311544 54.1666667,50.7592593 L54.1666667,28.8888889 C54.1666667,26.8945273 55.7834162,25.2777778 57.7777778,25.2777778 C59.7721394,25.2777778 61.3888889,26.8945273 61.3888889,28.8888889 L61.3888889,47.4037852 C60.9281347,48.2950856 60.4273408,49.1623374 59.8888889,50.0031571 Z" id="Combined-Shape" fill="#000000"></path>
        <path d="M9.32222213,50.0031571 L9.32222213,28.8888889 C9.32222213,27.7229544 8.37704549,26.7777778 7.21111102,26.7777778 C6.04517654,26.7777778 5.0999999,27.7229544 5.0999999,28.8888889 L5.0999999,50.2592593 L9.1565191,50.2592593 C8.82305494,50.7693859 8.47563962,51.2695665 8.11481493,51.7592593 L4.5999999,51.7592593 C4.04771515,51.7592593 3.5999999,51.311544 3.5999999,50.7592593 L3.5999999,28.8888889 C3.5999999,26.8945273 5.21674942,25.2777778 7.21111102,25.2777778 C9.20547261,25.2777778 10.8222221,26.8945273 10.8222221,28.8888889 L10.8222221,47.4037852 C10.3614679,48.2950856 9.86067404,49.1623374 9.32222213,50.0031571 Z" id="Combined-Shape-Copy" fill="#000000" transform="translate(7.211111, 38.518519) scale(-1, 1) translate(-7.211111, -38.518519) "></path>
        <path d="M8.27551284,54.1666667 L56.7244872,54.1666667 C50.7735145,60.8156181 42.1254146,65 32.5,65 C22.8745854,65 14.2264855,60.8156181 8.27551284,54.1666667 Z" id="Combined-Shape" fill-opacity="0.10377038" fill="#000000"></path>
        <g id="Rectangle-9">
            <use fill="#FFFFFF" fill-rule="evenodd" xlink:href="#path-1"></use>
            <path stroke="#000000" stroke-width="1.5" d="M32.5,18.8055556 C27.595916,18.8055556 23.6203704,22.7811012 23.6203704,27.6851852 L23.6203704,50.7592593 C23.6203704,50.8973304 23.7322992,51.0092593 23.8703704,51.0092593 L41.1296296,51.0092593 C41.2677008,51.0092593 41.3796296,50.8973304 41.3796296,50.7592593 L41.3796296,27.6851852 C41.3796296,22.7811012 37.404084,18.8055556 32.5,18.8055556 Z"></path>
        </g>
        <g id="Rectangle-9-Copy-2">
            <use fill="#FFFFFF" fill-rule="evenodd" xlink:href="#path-2"></use>
            <path stroke="#000000" stroke-width="1.5" d="M16.8518519,26.0277778 C15.2717038,26.0277778 13.9907407,27.3087409 13.9907407,28.8888889 L13.9907407,50.7592593 C13.9907407,50.8973304 14.1026696,51.0092593 14.2407407,51.0092593 L19.462963,51.0092593 C19.6010342,51.0092593 19.712963,50.8973304 19.712963,50.7592593 L19.712963,28.8888889 C19.712963,27.3087409 18.4319999,26.0277778 16.8518519,26.0277778 Z"></path>
        </g>
        <g id="Rectangle-9-Copy-5">
            <use fill="#FFFFFF" fill-rule="evenodd" xlink:href="#path-3"></use>
            <path stroke="#000000" stroke-width="1.5" d="M48.1481481,26.0277778 C46.5680001,26.0277778 45.287037,27.3087409 45.287037,28.8888889 L45.287037,50.7592593 C45.287037,50.8973304 45.3989658,51.0092593 45.537037,51.0092593 L50.7592593,51.0092593 C50.8973304,51.0092593 51.0092593,50.8973304 51.0092593,50.7592593 L51.0092593,28.8888889 C51.0092593,27.3087409 49.7282962,26.0277778 48.1481481,26.0277778 Z"></path>
        </g>
        <path d="M28.287037,30.6944444 L21.0648148,30.6944444" id="Line-7-Copy" stroke="#000000" stroke-width="1.5" fill="#FFFFFF" stroke-linecap="round"></path>
        <path d="M28.287037,46.3425926 L21.0648148,46.3425926" id="Line-7-Copy-3" stroke="#000000" stroke-width="1.5" fill="#FFFFFF" stroke-linecap="round"></path>
        <path d="M43.9351852,30.6944444 L40.3240741,30.6944444" id="Line-7-Copy-2" stroke="#000000" stroke-width="1.5" fill="#FFFFFF" stroke-linecap="round"></path>
    </g>
</svg>