<?xml version="1.0" encoding="UTF-8"?>
<svg width="65px" height="65px" viewBox="0 0 65 65" version="1.1" xmlns="http://www.w3.org/2000/svg" xmlns:xlink="http://www.w3.org/1999/xlink">
    <!-- Generator: Sketch 49.1 (51147) - http://www.bohemiancoding.com/sketch -->
    <title>lock_icon4</title>
    <desc>Created with Sketch.</desc>
    <defs></defs>
    <g id="lock_icon4" stroke="none" stroke-width="1" fill="none" fill-rule="evenodd">
        <path d="M63.8971057,24.0740741 C64.6164601,26.7613185 65,29.585869 65,32.5 C65,40.8238397 61.870753,48.4168047 56.7244872,54.1666667 L43.1296296,54.1666667 C42.5773449,54.1666667 42.1296296,53.7189514 42.1296296,53.1666667 L42.1296296,25.0740741 C42.1296296,24.5217893 42.5773449,24.0740741 43.1296296,24.0740741 L63.8971057,24.0740741 Z" id="Combined-Shape" fill-opacity="0.10377038" fill="#000000"></path>
        <path d="M8.27551284,54.1666667 C3.12924699,48.4168047 0,40.8238397 0,32.5 C0,29.585869 0.383539914,26.7613185 1.1028943,24.0740741 L21.8703704,24.0740741 C22.4226551,24.0740741 22.8703704,24.5217893 22.8703704,25.0740741 L22.8703704,53.1666667 C22.8703704,53.7189514 22.4226551,54.1666667 21.8703704,54.1666667 L8.27551284,54.1666667 Z" id="Combined-Shape" fill-opacity="0.10377038" fill="#000000"></path>
        <path d="M22.6666667,15.8518519 L42.3333333,15.8518519 C42.8856181,15.8518519 43.3333333,16.2995671 43.3333333,16.8518519 L43.3333333,53.4926758 L21.6666667,53.4926758 L21.6666667,16.8518519 C21.6666667,16.2995671 22.1143819,15.8518519 22.6666667,15.8518519 Z M27.4814815,20.462963 C26.9291967,20.462963 26.4814815,20.9106782 26.4814815,21.462963 L26.4814815,30.2962963 C26.4814815,30.848581 26.9291967,31.2962963 27.4814815,31.2962963 L37.5185185,31.2962963 C38.0708033,31.2962963 38.5185185,30.848581 38.5185185,30.2962963 L38.5185185,21.462963 C38.5185185,20.9106782 38.0708033,20.462963 37.5185185,20.462963 L27.4814815,20.462963 Z" id="Combined-Shape" stroke="#000000" stroke-width="1.5" fill="#FFFFFF" stroke-linecap="round"></path>
        <path d="M26.8796296,35.5092593 L32.8981481,35.5092593" id="Line-3" stroke="#000000" stroke-width="1.5" stroke-linecap="round"></path>
        <path d="M46.3425926,53.5648148 L17.4537037,53.5648148" id="Line-7" stroke="#000000" stroke-width="1.5" fill="#FFFFFF" stroke-linecap="round"></path>
    </g>
</svg>