<?xml version="1.0" encoding="UTF-8"?>
<svg width="65px" height="65px" viewBox="0 0 65 65" version="1.1" xmlns="http://www.w3.org/2000/svg" xmlns:xlink="http://www.w3.org/1999/xlink">
    <!-- Generator: Sketch 49.1 (51147) - http://www.bohemiancoding.com/sketch -->
    <title>lock_icon0</title>
    <desc>Created with Sketch.</desc>
    <defs>
        <rect id="path-1" x="15.6481481" y="16.8518519" width="33.7037037" height="37.3148148" rx="1"></rect>
    </defs>
    <g id="lock_icon0" stroke="none" stroke-width="1" fill="none" fill-rule="evenodd">
        <path d="M63.8971057,24.0740741 C64.6164601,26.7613185 65,29.585869 65,32.5 C65,40.8238397 61.870753,48.4168047 56.7244872,54.1666667 L43.1296296,54.1666667 C42.5773449,54.1666667 42.1296296,53.7189514 42.1296296,53.1666667 L42.1296296,25.0740741 C42.1296296,24.5217893 42.5773449,24.0740741 43.1296296,24.0740741 L63.8971057,24.0740741 Z" id="Combined-Shape" fill-opacity="0.10377038" fill="#000000"></path>
        <path d="M8.27551284,54.1666667 C3.12924699,48.4168047 0,40.8238397 0,32.5 C0,29.585869 0.383539914,26.7613185 1.1028943,24.0740741 L18.2592593,24.0740741 C18.811544,24.0740741 19.2592593,24.5217893 19.2592593,25.0740741 L19.2592593,53.1666667 C19.2592593,53.7189514 18.811544,54.1666667 18.2592593,54.1666667 L8.27551284,54.1666667 Z" id="Combined-Shape" fill-opacity="0.10377038" fill="#000000"></path>
        <g id="Rectangle-9">
            <use fill="#FFFFFF" fill-rule="evenodd" xlink:href="#path-1"></use>
            <rect stroke="#000000" stroke-width="1.5" x="16.3981481" y="17.6018519" width="32.2037037" height="35.8148148" rx="1"></rect>
        </g>
        <path d="M24.6759259,29.4907407 L21.0648148,29.4907407" id="Line-6" stroke="#000000" stroke-width="1.5" fill="#FFFFFF" stroke-linecap="round"></path>
        <path d="M24.6759259,31.8981481 L21.0648148,31.8981481" id="Line-6-Copy" stroke="#000000" stroke-width="1.5" fill="#FFFFFF" stroke-linecap="round"></path>
        <path d="M24.6759259,34.3055556 L21.0648148,34.3055556" id="Line-6-Copy-2" stroke="#000000" stroke-width="1.5" fill="#FFFFFF" stroke-linecap="round"></path>
        <path d="M51.1574074,53.5648148 L12.6388889,53.5648148" id="Line-7" stroke="#000000" stroke-width="1.5" fill="#FFFFFF" stroke-linecap="round"></path>
        <path d="M33.3055556,28.287037 L33.3055556,42.7314815" id="Line-3" stroke="#000000" stroke-width="1.5" stroke-linecap="round"></path>
        <path d="M33.1018519,40.3240741 L31.8981481,40.3240741" id="Line-4" stroke="#000000" stroke-width="1.5" stroke-linecap="round"></path>
        <path d="M33.1018519,30.6944444 L31.8981481,30.6944444" id="Line-5" stroke="#000000" stroke-width="1.5" stroke-linecap="round"></path>
        <path d="M28.287037,18.6574074 L28.287037,52.382599" id="Line-2" stroke="#000000" stroke-width="1.5" stroke-linecap="square"></path>
    </g>
</svg>