<?xml version="1.0" encoding="UTF-8" standalone="no"?>
<svg width="200px" height="50px" viewBox="0 0 200 50" version="1.1" xmlns="http://www.w3.org/2000/svg" xmlns:xlink="http://www.w3.org/1999/xlink">
    <!-- Generator: Sketch 40.2 (33826) - http://www.bohemiancoding.com/sketch -->
    <title>objects</title>
    <desc>Created with Sketch.</desc>
    <defs>
        <rect id="path-1" x="0" y="0" width="16.25" height="28.75" rx="8.125"></rect>
        <linearGradient x1="298.034668%" y1="47.3925769%" x2="0%" y2="47.3925781%" id="linearGradient-3">
            <stop stop-color="#FFFFFF" offset="0%"></stop>
            <stop stop-color="#000000" offset="100%"></stop>
        </linearGradient>
        <linearGradient x1="35.6445312%" y1="50%" x2="86.0212054%" y2="50%" id="linearGradient-4">
            <stop stop-color="#E1E1E1" offset="0%"></stop>
            <stop stop-color="#222222" offset="74.5084464%"></stop>
            <stop stop-color="#636363" offset="100%"></stop>
        </linearGradient>
        <polygon id="path-5" points="17.5 0 32.6554446 8.75 32.6554446 26.25 17.5 35 2.34455543 26.25 2.34455543 8.75"></polygon>
        <filter x="-50%" y="-50%" width="200%" height="200%" filterUnits="objectBoundingBox" id="filter-7">
            <feOffset dx="3" dy="5" in="SourceAlpha" result="shadowOffsetOuter1"></feOffset>
            <feColorMatrix values="0 0 0 0 0   0 0 0 0 0   0 0 0 0 0  0 0 0 0.303130661 0" type="matrix" in="shadowOffsetOuter1"></feColorMatrix>
        </filter>
        <polygon id="path-8" points="25 7.18399421 18 0 7 0 0 7.18399421 12.5 22.9373169"></polygon>
        <linearGradient x1="100%" y1="53.2017291%" x2="43.6755952%" y2="53.2017299%" id="linearGradient-10">
            <stop stop-color="#5C1414" offset="0%"></stop>
            <stop stop-color="#EC3B3B" offset="100%"></stop>
        </linearGradient>
    </defs>
    <g id="6" stroke="none" stroke-width="1" fill="none" fill-rule="evenodd">
        <g id="objects">
            <g id="Group-10-Copy" transform="translate(16.000000, 10.000000)">
                <g id="Group-9" transform="translate(0.000000, 2.500000)">
                    <mask id="mask-2" fill="white">
                        <use xlink:href="#path-1"></use>
                    </mask>
                    <use id="Mask" fill="#E2E2E2" xlink:href="#path-1"></use>
                    <rect id="Rectangle-5" fill="url(#linearGradient-3)" opacity="0.5" mask="url(#mask-2)" x="10" y="3.75" width="5" height="20" rx="2.5"></rect>
                    <rect id="Rectangle-5-Copy" fill="#FFFFFF" mask="url(#mask-2)" x="1.25" y="3.75" width="7.5" height="21.25" rx="3.75"></rect>
                    <rect id="Rectangle-6" fill="#1C7F43" mask="url(#mask-2)" x="-3.75" y="-3.75" width="25" height="13.75"></rect>
                    <path d="M8.75,10 L1.25,10 L1.25,7.50015778 C1.25,5.42900283 2.93314639,3.75 5,3.75 C7.07106781,3.75 8.75,5.41745186 8.75,7.50015778 L8.75,10 L8.75,10 Z" id="Combined-Shape" fill="#FFFFFF" opacity="0.5" mask="url(#mask-2)"></path>
                    <path d="M15,10 L10,10 L10,7.48985523 C10,6.11474616 11.1096621,5 12.5,5 C13.8807119,5 15,6.11674666 15,7.48985523 L15,10 L15,10 Z" id="Combined-Shape" fill="#000000" opacity="0.200000003" mask="url(#mask-2)"></path>
                    <rect id="Rectangle-7" fill="#000000" opacity="0.300000012" mask="url(#mask-2)" x="8.75" y="-1.25" width="15" height="31.25"></rect>
                </g>
                <rect id="Rectangle-8" fill="url(#linearGradient-4)" x="3.75" y="0" width="8.75" height="3.75"></rect>
            </g>
            <g id="Group-15-Copy-5" transform="translate(58.000000, 7.000000)">
                <mask id="mask-6" fill="white">
                    <use xlink:href="#path-5"></use>
                </mask>
                <g id="Mask">
                    <use fill="black" fill-opacity="1" filter="url(#filter-7)" xlink:href="#path-5"></use>
                    <use fill="#FFFFFF" fill-rule="evenodd" xlink:href="#path-5"></use>
                </g>
                <path d="M16.061416,21.2142043 C16.0464076,21.1391621 16.0389035,21.056617 16.0389035,20.9665664 L16.0389035,20.7189286 C16.0389035,20.0885745 16.1327048,19.533271 16.3203102,19.0530013 C16.5079155,18.5727315 16.7405427,18.1337415 17.0181986,17.7360182 C17.2958546,17.3382948 17.5960186,16.9668417 17.9186999,16.6216479 C18.2413811,16.276454 18.5415452,15.9275133 18.8192011,15.5748152 C19.0968571,15.2221171 19.3294842,14.846912 19.5170896,14.4491886 C19.704695,14.0514652 19.7984962,13.597467 19.7984962,13.0871805 C19.7984962,12.3967927 19.5996375,11.8339851 19.2019142,11.3987406 C18.8041908,10.9634962 18.1400778,10.7458772 17.2095551,10.7458772 C16.6692517,10.7458772 16.1214522,10.8396785 15.5661404,11.0272838 C15.0108285,11.2148892 14.5305659,11.4362602 14.1253383,11.6914035 L13.5175,10.2956266 C14.0878203,9.95043269 14.6881485,9.67653297 15.3185025,9.47391917 C15.9488565,9.27130538 16.7292832,9.17 17.6598058,9.17 C18.3201767,9.17 18.9017446,9.26380128 19.4045269,9.45140664 C19.9073093,9.63901201 20.327539,9.89790353 20.6652287,10.228089 C21.0029184,10.5582744 21.2543058,10.9484877 21.4193985,11.3987406 C21.5844912,11.8489935 21.6670363,12.329256 21.6670363,12.8395426 C21.6670363,13.5149219 21.565731,14.1039939 21.3631172,14.6067763 C21.1605034,15.1095587 20.9053639,15.5673089 20.5976911,15.9800407 C20.2900183,16.3927725 19.9598378,16.7792338 19.6071397,17.1394361 C19.2544416,17.4996384 18.9242611,17.8785955 18.6165883,18.2763189 C18.3089155,18.6740423 18.0537761,19.1055282 17.8511623,19.5707895 C17.6485485,20.0360508 17.5472431,20.5838502 17.5472431,21.2142043 L16.061416,21.2142043 Z M15.6111654,24.1633459 C15.6111654,23.7581183 15.727479,23.4391939 15.9601096,23.2065633 C16.1927403,22.9739326 16.5041605,22.857619 16.8943797,22.857619 C17.2996073,22.857619 17.6222837,22.9739326 17.8624185,23.2065633 C18.1025534,23.4391939 18.222619,23.7581183 18.222619,24.1633459 C18.222619,24.553565 18.1025534,24.8687373 17.8624185,25.1088722 C17.6222837,25.349007 17.2996073,25.4690727 16.8943797,25.4690727 C16.5041605,25.4690727 16.1927403,25.349007 15.9601096,25.1088722 C15.727479,24.8687373 15.6111654,24.553565 15.6111654,24.1633459 L15.6111654,24.1633459 Z" id="?" fill="#000000" mask="url(#mask-6)"></path>
            </g>
            <g id="Group-7-Copy" transform="translate(112.500000, 16.000000)">
                <mask id="mask-9" fill="white">
                    <use xlink:href="#path-8"></use>
                </mask>
                <use id="Mask" fill="#FF2727" xlink:href="#path-8"></use>
                <rect id="Rectangle-4" fill="#FF7878" mask="url(#mask-9)" x="-2.5" y="-1.25" width="28.75" height="8.75"></rect>
                <polygon id="Path-2" fill="#FFFFFF" mask="url(#mask-9)" points="12.5 -7.5 6.25 7.5 18.75 7.5"></polygon>
                <polygon id="Path-2-Copy-2" fill="#FFFFFF" opacity="0.5" mask="url(#mask-9)" points="6.25 -7.5 0 7.5 12.5 7.5"></polygon>
                <polygon id="Path-2-Copy" fill="#570E0E" opacity="0.5" mask="url(#mask-9)" transform="translate(12.500000, 15.000000) scale(1, -1) translate(-12.500000, -15.000000) " points="12.5 7.5 6.25 22.5 18.75 22.5"></polygon>
                <polygon id="Path-2-Copy-3" fill="#570E0E" opacity="0.5" mask="url(#mask-9)" transform="translate(6.250000, 16.258240) scale(1, -1) translate(-6.250000, -16.258240) " points="12.5 7.5 0 25.0164795 12.5 25.0164795"></polygon>
            </g>
            <g id="Group-14-Copy" transform="translate(163.250000, 6.000000)">
                <g id="Group-13">
                    <g id="Group-12" transform="translate(0.000000, 7.500000)">
                        <path d="M4.375,30.1333618 C6.87805176,30.1333618 8.75,28.0388403 8.75,25 L8.75,5 C8.75,1.96115968 6.68212891,0.103149414 4.375,0.103149414 C2.06787109,0.103149414 1.42108547e-13,1.96115968 0,5 L0,25 C0,28.0388403 1.87194824,30.1333618 4.375,30.1333618 Z" id="Line" fill="url(#linearGradient-10)"></path>
                        <circle id="Oval" fill="#240808" transform="translate(4.430195, 26.024756) rotate(-45.000000) translate(-4.430195, -26.024756) " cx="4.43019485" cy="26.0247564" r="3.125"></circle>
                    </g>
                    <g id="Group-12-Copy" transform="translate(8.750000, 7.500000)">
                        <path d="M4.375,30.1333618 C6.87805176,30.1333618 8.75,28.0388403 8.75,25 L8.75,5 C8.75,1.96115968 6.68212891,0.103149414 4.375,0.103149414 C2.06787109,0.103149414 1.42108547e-13,1.96115968 0,5 L0,25 C0,28.0388403 1.87194824,30.1333618 4.375,30.1333618 Z" id="Line" fill="url(#linearGradient-10)"></path>
                        <circle id="Oval" fill="#240808" transform="translate(4.430195, 26.024756) rotate(-45.000000) translate(-4.430195, -26.024756) " cx="4.43019485" cy="26.0247564" r="3.125"></circle>
                    </g>
                    <g id="Group-12-Copy-2" transform="translate(17.500000, 7.500000)">
                        <path d="M4.375,30.1333618 C6.87805176,30.1333618 8.75,28.0388403 8.75,25 L8.75,5 C8.75,1.96115968 6.68212891,0.103149414 4.375,0.103149414 C2.06787109,0.103149414 1.42108547e-13,1.96115968 0,5 L0,25 C0,28.0388403 1.87194824,30.1333618 4.375,30.1333618 Z" id="Line" fill="url(#linearGradient-10)"></path>
                        <circle id="Oval" fill="#240808" transform="translate(4.430195, 26.024756) rotate(-45.000000) translate(-4.430195, -26.024756) " cx="4.43019485" cy="26.0247564" r="3.125"></circle>
                    </g>
                    <g id="Group-12-Copy-3" transform="translate(3.750000, 0.000000)">
                        <path d="M4.375,30.1333618 C6.87805176,30.1333618 8.75,28.0388403 8.75,25 L8.75,5 C8.75,1.96115968 6.68212891,0.103149414 4.375,0.103149414 C2.06787109,0.103149414 1.42108547e-13,1.96115968 0,5 L0,25 C0,28.0388403 1.87194824,30.1333618 4.375,30.1333618 Z" id="Line" fill="url(#linearGradient-10)"></path>
                        <circle id="Oval" fill="#240808" transform="translate(4.430195, 26.024756) rotate(-45.000000) translate(-4.430195, -26.024756) " cx="4.43019485" cy="26.0247564" r="3.125"></circle>
                    </g>
                    <g id="Group-12-Copy-4" transform="translate(12.500000, 0.000000)">
                        <path d="M4.375,30.1333618 C6.87805176,30.1333618 8.75,28.0388403 8.75,25 L8.75,5 C8.75,1.96115968 6.68212891,0.103149414 4.375,0.103149414 C2.06787109,0.103149414 1.42108547e-13,1.96115968 0,5 L0,25 C0,28.0388403 1.87194824,30.1333618 4.375,30.1333618 Z" id="Line" fill="url(#linearGradient-10)"></path>
                        <circle id="Oval" fill="#240808" transform="translate(4.430195, 26.024756) rotate(-45.000000) translate(-4.430195, -26.024756) " cx="4.43019485" cy="26.0247564" r="3.125"></circle>
                    </g>
                </g>
                <path d="M0.0393676758,17.5640869 L4.03052014,9.89620788 C4.54117313,8.91513153 5.85083033,8.12008127 6.94585003,8.12041046 L18.1917843,8.1237912 C19.2912235,8.12412172 20.6685479,8.87759652 21.2667524,9.80459828 L26.2472534,17.522583" id="Path-3" stroke="#FFFFFF" opacity="0.5"></path>
                <path d="M0.0393676758,21.3140869 L4.03052014,13.6462079 C4.54117313,12.6651315 5.85083033,11.8700813 6.94585003,11.8704105 L18.1917843,11.8737912 C19.2912235,11.8741217 20.6685479,12.6275965 21.2667524,13.5545983 L26.2472534,21.272583" id="Path-3-Copy" stroke="#FFFFFF" opacity="0.5"></path>
                <path d="M0.0393676758,25.0640869 L4.03052014,17.3962079 C4.54117313,16.4151315 5.85083033,15.6200813 6.94585003,15.6204105 L18.1917843,15.6237912 C19.2912235,15.6241217 20.6685479,16.3775965 21.2667524,17.3045983 L26.2472534,25.022583" id="Path-3-Copy-2" stroke="#FFFFFF" opacity="0.5"></path>
                <path d="M20.625,8.75 C20.625,8.75 20.625,10.8185604 20.625,11.25 C20.625,14.422688 16.946532,16.875 12.5,16.875 C8.05346801,16.875 4.375,14.422688 4.375,11.25 C4.375,10.8185604 4.375,8.75 4.375,8.75 L9.80911255,10 L20.625,8.75 Z" id="Combined-Shape" fill="#000000"></path>
                <ellipse id="Oval-4" fill="#FFFFFF" cx="12.5" cy="8.75" rx="7.5" ry="5"></ellipse>
                <path d="M20.625,8.75 C20.625,5.57731201 16.946532,3.125 12.5,3.125 C8.05346801,3.125 4.375,5.57731201 4.375,8.75 C4.375,11.922688 8.05346801,14.375 12.5,14.375 C16.946532,14.375 20.625,11.922688 20.625,8.75 Z M5.625,8.75 C5.625,6.39984049 8.66226074,4.375 12.5,4.375 C16.3377393,4.375 19.375,6.39984049 19.375,8.75 C19.375,11.1001595 16.3377393,13.125 12.5,13.125 C8.66226074,13.125 5.625,11.1001595 5.625,8.75 Z" id="Oval-3" fill="#000000"></path>
                <polyline id="Path-4" stroke="#000000" points="12.8910828 5.8807373 12.4285889 8.14361572 16.2083925 8.14361572"></polyline>
            </g>
        </g>
    </g>
</svg>