<?xml version="1.0" encoding="UTF-8"?>
<svg width="333px" height="37px" viewBox="0 0 333 37" version="1.1" xmlns="http://www.w3.org/2000/svg" xmlns:xlink="http://www.w3.org/1999/xlink">
    <!-- Generator: Sketch 43.2 (39069) - http://www.bohemiancoding.com/sketch -->
    <title>obj_37x37</title>
    <desc>Created with Sketch.</desc>
    <defs>
        <path d="M11.1318359,0 C4.68066406,6.25976562 0.516601562,14.4462891 0,24.8398438 C2.9453125,26.515625 4.5625,28.6708984 4.5625,28.6708984 L18.4365831,28.6708984 C18.4365831,28.6708984 20.0537706,26.515625 22.9990831,24.8398438 C22.4824816,14.4462891 18.3184191,6.25976562 11.8672472,0 L11.1318359,0 Z" id="path-1"></path>
        <path d="M11.1318359,0 C4.68066406,6.25976562 0.516601562,14.4462891 0,24.8398438 C2.9453125,26.515625 4.5625,28.6708984 4.5625,28.6708984 L18.4365831,28.6708984 C18.4365831,28.6708984 20.0537706,26.515625 22.9990831,24.8398438 C22.4824816,14.4462891 18.3184191,6.25976562 11.8672472,0 L11.1318359,0 Z" id="path-3"></path>
        <path d="M11.1318359,0 C4.68066406,6.25976562 0.516601562,14.4462891 0,24.8398438 C2.9453125,26.515625 4.5625,28.6708984 4.5625,28.6708984 L18.4365831,28.6708984 C18.4365831,28.6708984 20.0537706,26.515625 22.9990831,24.8398438 C22.4824816,14.4462891 18.3184191,6.25976562 11.8672472,0 L11.1318359,0 Z" id="path-5"></path>
        <path d="M11.1318359,0 C4.68066406,6.25976562 0.516601562,14.4462891 0,24.8398438 C2.9453125,26.515625 4.5625,28.6708984 4.5625,28.6708984 L18.4365831,28.6708984 C18.4365831,28.6708984 20.0537706,26.515625 22.9990831,24.8398438 C22.4824816,14.4462891 18.3184191,6.25976562 11.8672472,0 L11.1318359,0 Z" id="path-7"></path>
    </defs>
    <g id="Кухня" stroke="none" stroke-width="1" fill="none" fill-rule="evenodd">
        <g id="obj_37x37">
            <rect id="Rectangle-12-Copy-58" fill="#B4C2C5" x="0" y="0" width="35" height="35" rx="5"></rect>
            <rect id="Rectangle-12-Copy-57" fill="#8CA4A9" x="1" y="1" width="35" height="35" rx="5"></rect>
            <circle id="Oval-Copy" fill="#FFFFFF" cx="92" cy="18" r="14"></circle>
            <circle id="Oval" fill="#1CC9FF" cx="93" cy="19" r="14"></circle>
            <circle id="Oval-6-Copy-4" fill="#FFFFFF" cx="93.5" cy="9.5" r="1.5"></circle>
            <circle id="Oval-6-Copy-5" fill="#FFFFFF" cx="84.5" cy="24.5" r="1.5"></circle>
            <circle id="Oval-6-Copy-6" fill="#FFFFFF" cx="101.5" cy="24.5" r="1.5"></circle>
            <path d="M168,29 C169.744756,29 173.957275,27.326416 173.957275,27.326416 L175.38208,25.0788574 L178,22.2441406 C178,22.2441406 178,20.0675105 178,19 C178,16.9024949 176.579834,13.3305664 176.579834,13.3305664 L175.072021,12.5959473 L172.356185,9.99614693 C172.356185,9.99614693 169.561506,9 168,9 C166.430258,9 163.237061,9.71899414 163.237061,9.71899414 L160.699463,12.5959473 L158.802032,15.0695108 C158.802032,15.0695108 158,17.6046398 158,19 C158,20.1532483 159.300537,22.2441406 159.300537,22.2441406 L159.85791,25.0788574 L162.598389,27.8452148 C162.598389,27.8452148 166.454469,29 168,29 Z" id="Oval-8-Copy-3" fill="#BDC9CC"></path>
            <polygon id="Rectangle-14-Copy-4" fill="#BDC9CC" points="119.346924 7.41113281 124.239746 8.0078125 135.484131 7 138.898193 8.0078125 142.346924 7.41113281 142.845703 13.0366211 141.445068 17.6337891 142.845703 24.6982422 141.913818 26.6081543 142.845703 31.2883301 139.839355 30.4111328 136.504639 31.8898926 130.241211 30.4111328 128.668701 31.2883301 126.101807 30.4111328 123.150879 31.2883301 119.346924 30.4111328 118.341553 28.6069336 119.346924 25.9973145 118 20.5717773 119.346924 13.5478516 118.710693 10.1225586"></polygon>
            <path d="M167,28 C168.744756,28 172.957275,26.326416 172.957275,26.326416 L174.38208,24.0788574 L177,21.2441406 C177,21.2441406 177,19.0675105 177,18 C177,15.9024949 175.579834,12.3305664 175.579834,12.3305664 L174.072021,11.5959473 L171.356185,8.99614693 C171.356185,8.99614693 168.561506,8 167,8 C165.430258,8 162.237061,8.71899414 162.237061,8.71899414 L159.699463,11.5959473 L157.802032,14.0695108 C157.802032,14.0695108 157,16.6046398 157,18 C157,19.1532483 158.300537,21.2441406 158.300537,21.2441406 L158.85791,24.0788574 L161.598389,26.8452148 C161.598389,26.8452148 165.454469,28 167,28 Z" id="Oval-8-Copy-2" fill="#000000"></path>
            <polygon id="Rectangle-14-Copy-3" fill="#000000" points="118.346924 6.41113281 123.239746 7.0078125 134.484131 6 137.898193 7.0078125 141.346924 6.41113281 141.845703 12.0366211 140.445068 16.6337891 141.845703 23.6982422 140.913818 25.6081543 141.845703 30.2883301 138.839355 29.4111328 135.504639 30.8898926 129.241211 29.4111328 127.668701 30.2883301 125.101807 29.4111328 122.150879 30.2883301 118.346924 29.4111328 117.341553 27.6069336 118.346924 24.9973145 117 19.5717773 118.346924 12.5478516 117.710693 9.12255859"></polygon>
            <rect id="Rectangle-16-Copy" fill="#FFFFFF" x="41" y="4" width="28" height="28" rx="4"></rect>
            <rect id="Rectangle-16" fill="#1CC9FF" x="42" y="5" width="28" height="28" rx="4"></rect>
            <circle id="Oval-6" fill="#FFFFFF" cx="46.5" cy="9.5" r="1.5"></circle>
            <circle id="Oval-6-Copy-2" fill="#FFFFFF" cx="46.5" cy="28.5" r="1.5"></circle>
            <circle id="Oval-6-Copy" fill="#FFFFFF" cx="65.5" cy="9.5" r="1.5"></circle>
            <circle id="Oval-6-Copy-3" fill="#FFFFFF" cx="65.5" cy="28.5" r="1.5"></circle>
            <g id="Group-3" transform="translate(277.500000, 18.500000) rotate(-270.000000) translate(-277.500000, -18.500000) translate(266.000000, 4.000000)">
                <mask id="mask-2" fill="white">
                    <use xlink:href="#path-1"></use>
                </mask>
                <use id="Mask" fill="#FFDB00" xlink:href="#path-1"></use>
                <path d="M11.7299805,-1.86767578 L11.4604492,9.24560547 L14.7822266,21.2446289 C14.7822266,21.2446289 19.9863281,32.3100586 20.4550781,31.7675781 C20.9238281,31.2250977 29.5644531,19.2480469 29.5644531,19.2480469 L18.7021484,-1.0078125 L11.7299805,-1.86767578 Z" id="Path-94" fill="#CB9214" mask="url(#mask-2)"></path>
            </g>
            <path d="M277.440714,9.77298234 C273.513628,13.5835511 270.978798,18.5670142 270.664322,24.8939851 C272.457251,25.9141 273.441697,27.2261008 273.441697,27.2261008 L281.887404,27.2261008 C281.887404,27.2261008 282.871851,25.9141 284.66478,24.8939851 C284.350304,18.5670142 281.815473,13.5835511 277.888388,9.77298234 L277.440714,9.77298234 Z" id="Combined-Shape-Copy" fill="#FFFFFF" transform="translate(277.664551, 18.499542) rotate(-270.000000) translate(-277.664551, -18.499542) "></path>
            <g id="Group-3" transform="translate(314.500000, 18.500000) scale(-1, 1) rotate(-270.000000) translate(-314.500000, -18.500000) translate(303.000000, 4.000000)">
                <mask id="mask-4" fill="white">
                    <use xlink:href="#path-3"></use>
                </mask>
                <use id="Mask" fill="#FFDB00" xlink:href="#path-3"></use>
                <path d="M11.7299805,-1.86767578 L11.4604492,9.24560547 L14.7822266,21.2446289 C14.7822266,21.2446289 19.9863281,32.3100586 20.4550781,31.7675781 C20.9238281,31.2250977 29.5644531,19.2480469 29.5644531,19.2480469 L18.7021484,-1.0078125 L11.7299805,-1.86767578 Z" id="Path-94" fill="#CB9214" mask="url(#mask-4)"></path>
            </g>
            <path d="M314.111612,9.77298234 C310.184527,13.5835511 307.649696,18.5670142 307.33522,24.8939851 C309.128149,25.9141 310.112596,27.2261008 310.112596,27.2261008 L318.558303,27.2261008 C318.558303,27.2261008 319.542749,25.9141 321.335678,24.8939851 C321.021202,18.5670142 318.486372,13.5835511 314.559286,9.77298234 L314.111612,9.77298234 Z" id="Combined-Shape-Copy" fill="#FFFFFF" transform="translate(314.335449, 18.499542) scale(-1, 1) rotate(-270.000000) translate(-314.335449, -18.499542) "></path>
            <g id="Group-3" transform="translate(240.500000, 18.500000) scale(1, -1) translate(-240.500000, -18.500000) translate(229.000000, 4.000000)">
                <mask id="mask-6" fill="white">
                    <use xlink:href="#path-5"></use>
                </mask>
                <use id="Mask" fill="#FFDB00" xlink:href="#path-5"></use>
                <path d="M11.7299805,-1.86767578 L11.4604492,9.24560547 L14.7822266,21.2446289 C14.7822266,21.2446289 19.9863281,32.3100586 20.4550781,31.7675781 C20.9238281,31.2250977 29.5644531,19.2480469 29.5644531,19.2480469 L18.7021484,-1.0078125 L11.7299805,-1.86767578 Z" id="Path-94" fill="#CB9214" mask="url(#mask-6)"></path>
            </g>
            <path d="M240.275704,9.93799156 C236.348619,13.7485604 233.813788,18.7320234 233.499312,25.0589943 C235.292241,26.0791092 236.276688,27.39111 236.276688,27.39111 L244.722395,27.39111 C244.722395,27.39111 245.706842,26.0791092 247.499771,25.0589943 C247.185295,18.7320234 244.650464,13.7485604 240.723379,9.93799156 L240.275704,9.93799156 Z" id="Combined-Shape-Copy" fill="#FFFFFF" transform="translate(240.499542, 18.664551) scale(1, -1) translate(-240.499542, -18.664551) "></path>
            <g id="Group" transform="translate(261.000000, 9.000000)" stroke="#000000" stroke-width="1.2">
                <path d="M11,8 C10.3604033,6.26317756 7.42597771,3.71779943 4,3" id="Path-4"></path>
                <circle id="Oval" fill="#FFFFFF" cx="2" cy="2" r="2"></circle>
            </g>
            <g id="Group-Copy-2" transform="translate(245.000000, 6.500000) rotate(-270.000000) translate(-245.000000, -6.500000) translate(239.500000, 2.500000)" stroke="#000000" stroke-width="1.2">
                <path d="M11,8 C10.3604033,6.26317756 7.42597771,3.71779943 4,3" id="Path-4"></path>
                <circle id="Oval" fill="#FFFFFF" cx="2" cy="2" r="2"></circle>
            </g>
            <g id="Group-Copy" transform="translate(325.500000, 13.000000) scale(-1, 1) translate(-325.500000, -13.000000) translate(320.000000, 9.000000)" stroke="#000000" stroke-width="1.2">
                <path d="M11,8 C10.3604033,6.26317756 7.42597771,3.71779943 4,3" id="Path-4"></path>
                <circle id="Oval" fill="#FFFFFF" cx="2" cy="2" r="2"></circle>
            </g>
            <g id="Group-2" transform="translate(192.000000, 4.000000)">
                <g id="Group-3">
                    <mask id="mask-8" fill="white">
                        <use xlink:href="#path-7"></use>
                    </mask>
                    <use id="Mask" fill="#FFDB00" xlink:href="#path-7"></use>
                    <path d="M11.7299805,-1.86767578 L11.4604492,9.24560547 L14.7822266,21.2446289 C14.7822266,21.2446289 19.9863281,32.3100586 20.4550781,31.7675781 C20.9238281,31.2250977 29.5644531,19.2480469 29.5644531,19.2480469 L18.7021484,-1.0078125 L11.7299805,-1.86767578 Z" id="Path-94" fill="#CB9214" mask="url(#mask-8)"></path>
                </g>
                <path d="M11.2757045,5.60889 C7.34861909,9.41945879 4.8137883,14.4029218 4.49931235,20.7298928 C6.29224144,21.7500076 7.27668792,23.0620084 7.27668792,23.0620084 L15.7223952,23.0620084 C15.7223952,23.0620084 16.7068417,21.7500076 18.4997708,20.7298928 C18.1852948,14.4029218 15.650464,9.41945879 11.7233786,5.60889 L11.2757045,5.60889 Z" id="Combined-Shape-Copy" fill="#FFFFFF"></path>
                <g id="Group-Copy-3" transform="translate(7.000000, 25.500000) scale(-1, -1) rotate(-270.000000) translate(-7.000000, -25.500000) translate(1.500000, 21.500000)" stroke="#000000" stroke-width="1.2">
                    <path d="M11,8 C10.3604033,6.26317756 7.42597771,3.71779943 4,3" id="Path-4"></path>
                    <circle id="Oval" fill="#FFFFFF" cx="2" cy="2" r="2"></circle>
                </g>
                <polygon id="Combined-Shape" fill="#FF5E5C" points="9 13 11.5 9 14 13"></polygon>
            </g>
            <polygon id="Combined-Shape-Copy-2" fill="#FF5E5C" transform="translate(240.500000, 22.000000) scale(1, -1) translate(-240.500000, -22.000000) " points="238 24 240.5 20 243 24"></polygon>
            <polygon id="Combined-Shape-Copy-3" fill="#FF5E5C" transform="translate(281.000000, 18.500000) scale(1, -1) rotate(-270.000000) translate(-281.000000, -18.500000) " points="278.5 20.5 281 16.5 283.5 20.5"></polygon>
            <polygon id="Combined-Shape-Copy-4" fill="#FF5E5C" transform="translate(311.000000, 18.500000) scale(-1, -1) rotate(-270.000000) translate(-311.000000, -18.500000) " points="308.5 20.5 311 16.5 313.5 20.5"></polygon>
        </g>
    </g>
</svg>