<?xml version="1.0" encoding="UTF-8"?>
<svg width="518px" height="74px" viewBox="0 0 518 74" version="1.1" xmlns="http://www.w3.org/2000/svg" xmlns:xlink="http://www.w3.org/1999/xlink">
    <!-- Generator: Sketch 43.2 (39069) - http://www.bohemiancoding.com/sketch -->
    <title>sparks</title>
    <desc>Created with Sketch.</desc>
    <defs></defs>
    <g id="Кухня" stroke="none" stroke-width="1" fill="none" fill-rule="evenodd">
        <g id="sparks" stroke="#FFFFFF">
            <path d="M122.194813,32.2519531 C123.225011,32.3110677 124.255208,32.3701823 125.285406,32.4292969" id="Path-99" stroke-width="2"></path>
            <path d="M124.421353,38.7421875 C125.15684,39.2598958 125.892328,39.7776042 126.627816,40.2953125" id="Path-100" stroke-width="2"></path>
            <path d="M121.269758,45.4390625 C122.012968,46.5580729 122.756177,47.6770833 123.499387,48.7960937" id="Path-101" stroke-width="2"></path>
            <path d="M114.5191,49.6230469 L114.358875,52.6140625" id="Path-102" stroke-width="2"></path>
            <path d="M106.128747,49.2894531 L104.331146,52.2183594" id="Path-103" stroke-width="2"></path>
            <path d="M98.6020621,44.4585937 L96.1125999,47.5769531" id="Path-104" stroke-width="2"></path>
            <path d="M96.4164471,37.2125 C95.4406871,37.7558594 94.464927,38.2992187 93.489167,38.8425781" id="Path-105" stroke-width="2"></path>
            <path d="M98.7101653,30.5214844 L95.7303779,30.2292969" id="Path-106" stroke-width="2"></path>
            <path d="M108.947924,26.4527344 C108.864273,26.046224 108.780622,25.6397135 108.69697,25.2332031" id="Path-108" stroke-width="2"></path>
            <path d="M113.821834,27.2914063 L114.898619,26.2785156" id="Path-97" stroke-width="2"></path>
            <path d="M118.602312,28.7675781 C119.288124,28.5255208 119.973936,28.2834635 120.659747,28.0414063" id="Path-98" stroke-width="2"></path>
            <path d="M104.080192,26.8632812 L102.609216,25.3308594" id="Path-107" stroke-width="2"></path>
            <path d="M116.150686,42.6988281 L117.198515,45.1820312" id="Path-109" stroke-width="2"></path>
            <path d="M118.569881,38.9960938 C119.152609,39.3484375 119.735336,39.7007812 120.318064,40.053125" id="Path-110" stroke-width="2"></path>
            <path d="M115.392033,32.8335938 C116.134213,32.3996094 116.876393,31.965625 117.618573,31.5316406" id="Path-111" stroke-width="2"></path>
            <path d="M110.664063,41.5738281 L109.870276,44.5796875" id="Path-112" stroke-width="2"></path>
            <path d="M106.038404,38.5148438 L102.959393,40.1003906" id="Path-113" stroke-width="2"></path>
            <path d="M104.118028,34.1949219 L101.684162,34.1566406" id="Path-114" stroke-width="2"></path>
            <path d="M106.14921,31.0648438 L104.879769,29.8011719" id="Path-115" stroke-width="2"></path>
            <path d="M199.922852,31.0649414 C201.225749,31.1388346 202.528646,31.2127279 203.831543,31.2866211" id="Path-99" stroke-width="2"></path>
            <path d="M202.73877,39.1777344 C203.668945,39.8248698 204.599121,40.4720052 205.529297,41.1191406" id="Path-100" stroke-width="2"></path>
            <path d="M198.75293,47.5488281 C199.692871,48.9475911 200.632812,50.3463542 201.572754,51.7451172" id="Path-101" stroke-width="2"></path>
            <path d="M190.215332,52.7788086 L190.012695,56.5175781" id="Path-102" stroke-width="2"></path>
            <path d="M179.604004,52.3618164 L177.330566,56.0229492" id="Path-103" stroke-width="2"></path>
            <path d="M170.084961,46.3232422 L166.936523,50.2211914" id="Path-104" stroke-width="2"></path>
            <path d="M167.320801,37.265625 L163.618652,39.3032227" id="Path-105" stroke-width="2"></path>
            <path d="M170.22168,28.9018555 L166.453125,28.5366211" id="Path-106" stroke-width="2"></path>
            <path d="M183.169434,23.815918 C183.063639,23.3077799 182.957845,22.7996419 182.852051,22.2915039" id="Path-108" stroke-width="2"></path>
            <path d="M189.333496,24.8642578 C189.787435,24.4422201 190.241374,24.0201823 190.695312,23.5981445" id="Path-97" stroke-width="2"></path>
            <path d="M195.379395,26.7094727 C196.246745,26.406901 197.114095,26.1043294 197.981445,25.8017578" id="Path-98" stroke-width="2"></path>
            <path d="M177.013184,24.3291016 L175.152832,22.4135742" id="Path-107" stroke-width="2"></path>
            <path d="M192.278809,44.1235352 C192.72054,45.1582031 193.162272,46.1928711 193.604004,47.2275391" id="Path-109" stroke-width="2"></path>
            <path d="M195.338379,39.4951172 L197.549316,40.8164062" id="Path-110" stroke-width="2"></path>
            <path d="M191.319336,31.7919922 C192.257975,31.2495117 193.196615,30.7070312 194.135254,30.1645508" id="Path-111" stroke-width="2"></path>
            <path d="M185.339844,42.7172852 L184.335938,46.4746094" id="Path-112" stroke-width="2"></path>
            <path d="M179.489746,38.8935547 L175.595703,40.8754883" id="Path-113" stroke-width="2"></path>
            <path d="M177.061035,33.4936523 L173.98291,33.4458008" id="Path-114" stroke-width="2"></path>
            <path d="M179.629883,29.5810547 C179.094727,29.0545247 178.55957,28.5279948 178.024414,28.0014648" id="Path-115" stroke-width="2"></path>
            <path d="M275.680134,32.4892743 C277.131031,32.5725293 278.581928,32.6557844 280.032825,32.7390394" id="Path-99"></path>
            <path d="M278.81592,41.6299076 L281.923431,43.8172779" id="Path-100"></path>
            <path d="M274.377318,51.0615668 C275.42403,52.6375444 276.470742,54.213522 277.517454,55.7894995" id="Path-101"></path>
            <path d="M264.869912,56.9541532 L264.644257,61.1666016" id="Path-102"></path>
            <path d="M253.053214,56.4843307 L250.521531,60.6093063" id="Path-103"></path>
            <path d="M242.452878,49.6807067 C241.284185,51.1446384 240.115493,52.6085702 238.946801,54.0725019" id="Path-104"></path>
            <path d="M239.374729,39.4755459 L235.252044,41.7712945" id="Path-105"></path>
            <path d="M242.605127,30.0521388 L238.408492,29.6406315" id="Path-106"></path>
            <path d="M257.023651,24.3218447 C256.905839,23.7493288 256.788027,23.1768128 256.670216,22.6042969" id="Path-108"></path>
            <path d="M263.887906,25.5030027 C264.393409,25.0274954 264.898911,24.551988 265.404414,24.0764807" id="Path-97"></path>
            <path d="M270.620574,27.5819948 C271.586449,27.2410892 272.552324,26.9001836 273.518199,26.5592781" id="Path-98"></path>
            <path d="M250.168096,24.9000455 L248.096422,22.7418327" id="Path-107"></path>
            <path d="M267.167784,47.2023105 L268.643512,50.6995724" id="Path-109"></path>
            <path d="M270.574899,41.9875008 L273.036983,43.476189" id="Path-110"></path>
            <path d="M266.099322,33.3084379 C267.144584,32.6972285 268.189846,32.0860191 269.235108,31.4748098" id="Path-111"></path>
            <path d="M259.440604,45.6178974 L258.322661,49.8512512" id="Path-112"></path>
            <path d="M252.925978,41.3097241 L248.5896,43.5427563" id="Path-113"></path>
            <path d="M250.221383,35.2256878 L246.793605,35.1717737" id="Path-114"></path>
            <path d="M253.082033,30.8173883 C252.486087,30.2241503 251.890141,29.6309123 251.294195,29.0376743" id="Path-115"></path>
            <path d="M348.561762,36.865621 C349.960314,36.9630692 351.358866,37.0605173 352.757418,37.1579654" id="Path-99"></path>
            <path d="M351.584416,47.5645244 L354.579816,50.1247916" id="Path-100"></path>
            <path d="M347.305948,58.6040669 L349.409657,64.1380046" id="Path-101"></path>
            <path d="M338.141546,65.5012052 L337.924032,70.4317801" id="Path-102"></path>
            <path d="M325.828027,64.9512886 C325.322292,66.5606853 324.816556,68.170082 324.31082,69.7794787" id="Path-103"></path>
            <path d="M315.610125,56.9878016 L313.153678,62.1282978" id="Path-104"></path>
            <path d="M313.566167,45.042893 L309.592218,47.7300145" id="Path-105"></path>
            <path d="M316.68002,34.0130094 L312.634789,33.5313495" id="Path-106"></path>
            <path d="M330.578359,27.3058306 C330.464797,26.6357137 330.351236,25.9655968 330.237675,25.2954799" id="Path-108"></path>
            <path d="M337.194968,28.6883491 C337.682234,28.1317786 338.169499,27.5752081 338.656765,27.0186376" id="Path-97"></path>
            <path d="M343.684738,31.121762 C344.615767,30.7227398 345.546795,30.3237176 346.477824,29.9246954" id="Path-98"></path>
            <path d="M323.970136,27.9826014 L321.973203,25.4564625" id="Path-107"></path>
            <path d="M340.356517,54.0868952 L341.279655,58.1803607" id="Path-109"></path>
            <path d="M343.640711,47.9830791 C344.431797,48.5639043 345.222883,49.1447295 346.013969,49.7255547" id="Path-110"></path>
            <path d="M339.326602,37.8244334 C340.334154,37.1090267 341.341705,36.3936201 342.349256,35.6782134" id="Path-111"></path>
            <path d="M332.753643,52.2323757 L331.830504,57.18742" id="Path-112"></path>
            <path d="M323.859104,47.1897569 L322.448588,49.8034703" id="Path-113"></path>
            <path d="M324.0215,40.0685308 L320.717389,40.0054256" id="Path-114"></path>
            <path d="M326.778945,34.9087166 L325.055608,32.8256018" id="Path-115"></path>
            <path d="M425.677841,45.1476004 L427.664784,47.5264309 L425.677841,45.1476004 Z" id="Path-99"></path>
            <path d="M427.972319,56.8718363 L429.390855,59.8078659 L427.972319,56.8718363 Z" id="Path-100"></path>
            <path d="M388.663128,54.3580973 L386.781179,57.5396702 L388.663128,54.3580973 Z" id="Path-105"></path>
            <path d="M416.59301,63.5843904 L417.266659,67.4376395 L416.59301,63.5843904 Z" id="Path-109"></path>
            <path d="M420.153869,56.9495368 L421.277775,59.4297316 L420.153869,56.9495368 Z" id="Path-110"></path>
            <path d="M407.84401,61.5189234 L407.84401,66.497183 L407.84401,61.5189234 Z" id="Path-112"></path>
            <path d="M399.912026,56.1588702 L398.957996,59.5035288 L399.912026,56.1588702 Z" id="Path-113"></path>
        </g>
    </g>
</svg>