<?xml version="1.0" encoding="UTF-8" standalone="no"?>
<svg width="1525px" height="1153px" viewBox="0 0 1525 1153" version="1.1" xmlns="http://www.w3.org/2000/svg" xmlns:xlink="http://www.w3.org/1999/xlink">
    <!-- Generator: Sketch 39.1 (31720) - http://www.bohemiancoding.com/sketch -->
    <title>back_0</title>
    <desc>Created with Sketch.</desc>
    <defs>
        <path d="M290.9,165.2 C291.0,165.7 291.2,166.2 291.3,166.7 C291.4,166.2 291.5,165.6 291.6,165.1 C291.4,165.1 291.1,165.2 290.9,165.2 Z" id="path-1"></path>
        <filter x="-50%" y="-50%" width="200%" height="200%" filterUnits="objectBoundingBox" id="filter-2">
            <feOffset dx="0" dy="3" in="SourceAlpha" result="shadowOffsetInner1"></feOffset>
            <feComposite in="shadowOffsetInner1" in2="SourceAlpha" operator="arithmetic" k2="-1" k3="1" result="shadowInnerInner1"></feComposite>
            <feColorMatrix values="0 0 0 0 0.3   0 0 0 0 0.1   0 0 0 0 0.1  0 0 0 1 0" type="matrix" in="shadowInnerInner1"></feColorMatrix>
        </filter>
        <path d="M400.0,168.2 C400.3,168.5 400.5,168.8 400.8,169.1 C400.9,168.9 400.9,168.8 401.0,168.6 C400.7,168.5 400.4,168.3 400.0,168.2" id="path-3"></path>
        <filter x="-50%" y="-50%" width="200%" height="200%" filterUnits="objectBoundingBox" id="filter-4">
            <feOffset dx="0" dy="3" in="SourceAlpha" result="shadowOffsetInner1"></feOffset>
            <feComposite in="shadowOffsetInner1" in2="SourceAlpha" operator="arithmetic" k2="-1" k3="1" result="shadowInnerInner1"></feComposite>
            <feColorMatrix values="0 0 0 0 0.3   0 0 0 0 0.1   0 0 0 0 0.1  0 0 0 1 0" type="matrix" in="shadowInnerInner1"></feColorMatrix>
        </filter>
        <path d="M389.7,135.9 C387.8,136.8 385.7,137.4 383.6,137.6 C383.6,137.7 383.7,137.8 383.8,137.9 C387.4,145.0 382.4,150.4 376.9,153.5 C378.1,154.6 379.1,155.8 379.9,157.0 C381.5,155.9 383.8,155.2 386.4,155.2 C385.0,152.3 385.0,149.3 386.1,143.3 C386.6,140.5 387.9,137.9 389.7,135.9" id="path-5"></path>
        <filter x="-50%" y="-50%" width="200%" height="200%" filterUnits="objectBoundingBox" id="filter-6">
            <feOffset dx="0" dy="3" in="SourceAlpha" result="shadowOffsetInner1"></feOffset>
            <feComposite in="shadowOffsetInner1" in2="SourceAlpha" operator="arithmetic" k2="-1" k3="1" result="shadowInnerInner1"></feComposite>
            <feColorMatrix values="0 0 0 0 0.3   0 0 0 0 0.1   0 0 0 0 0.1  0 0 0 1 0" type="matrix" in="shadowInnerInner1"></feColorMatrix>
        </filter>
        <path d="M247.9,148.1 C248.8,147.4 249.7,146.9 250.5,146.4 C249.7,146.3 248.8,146.3 248.0,146.1 C248.0,146.8 247.9,147.4 247.9,148.1" id="path-7"></path>
        <filter x="-50%" y="-50%" width="200%" height="200%" filterUnits="objectBoundingBox" id="filter-8">
            <feOffset dx="0" dy="3" in="SourceAlpha" result="shadowOffsetInner1"></feOffset>
            <feComposite in="shadowOffsetInner1" in2="SourceAlpha" operator="arithmetic" k2="-1" k3="1" result="shadowInnerInner1"></feComposite>
            <feColorMatrix values="0 0 0 0 0.3   0 0 0 0 0.1   0 0 0 0 0.1  0 0 0 1 0" type="matrix" in="shadowInnerInner1"></feColorMatrix>
        </filter>
        <path d="M70.2,186.8 C72.5,185.2 74.9,183.8 77.6,182.5 C75.5,180.9 73.6,179.0 72.1,177.0 C72.2,181.3 71.5,184.5 70.2,186.8" id="path-9"></path>
        <filter x="-50%" y="-50%" width="200%" height="200%" filterUnits="objectBoundingBox" id="filter-10">
            <feOffset dx="0" dy="3" in="SourceAlpha" result="shadowOffsetInner1"></feOffset>
            <feComposite in="shadowOffsetInner1" in2="SourceAlpha" operator="arithmetic" k2="-1" k3="1" result="shadowInnerInner1"></feComposite>
            <feColorMatrix values="0 0 0 0 0.3   0 0 0 0 0.1   0 0 0 0 0.1  0 0 0 1 0" type="matrix" in="shadowInnerInner1"></feColorMatrix>
        </filter>
        <path d="M112.0,183.7 C112.7,184.4 113.4,185.2 114.1,186.0 C113.8,185.0 113.7,183.8 113.4,182.6 C112.9,183.0 112.5,183.3 112.1,183.7 C112.1,183.7 112.0,183.7 112.0,183.7" id="path-11"></path>
        <filter x="-50%" y="-50%" width="200%" height="200%" filterUnits="objectBoundingBox" id="filter-12">
            <feOffset dx="0" dy="3" in="SourceAlpha" result="shadowOffsetInner1"></feOffset>
            <feComposite in="shadowOffsetInner1" in2="SourceAlpha" operator="arithmetic" k2="-1" k3="1" result="shadowInnerInner1"></feComposite>
            <feColorMatrix values="0 0 0 0 0.3   0 0 0 0 0.1   0 0 0 0 0.1  0 0 0 1 0" type="matrix" in="shadowInnerInner1"></feColorMatrix>
        </filter>
        <path d="M116.8,189.7 C118.1,191.6 119.4,193.7 120.7,196.0 C120.8,195.5 120.9,195.0 121.0,194.6 C121.0,194.6 121.5,193.0 122.6,190.4 C121.6,190.4 120.4,190.2 119.0,190.1 C118.1,190.1 117.4,189.9 116.8,189.7" id="path-13"></path>
        <filter x="-50%" y="-50%" width="200%" height="200%" filterUnits="objectBoundingBox" id="filter-14">
            <feOffset dx="0" dy="3" in="SourceAlpha" result="shadowOffsetInner1"></feOffset>
            <feComposite in="shadowOffsetInner1" in2="SourceAlpha" operator="arithmetic" k2="-1" k3="1" result="shadowInnerInner1"></feComposite>
            <feColorMatrix values="0 0 0 0 0.3   0 0 0 0 0.1   0 0 0 0 0.1  0 0 0 1 0" type="matrix" in="shadowInnerInner1"></feColorMatrix>
        </filter>
        <path d="M882.7,316.6 C881.5,320.9 878.9,318.8 876.7,318.0 C874.4,317.2 873.3,315.0 872.9,312.3 C872.5,309.5 875.9,306.9 878.6,307.9 C882.9,309.5 884.0,312.2 882.7,316.6 M842.3,265.9 C836.2,264.4 832.8,257.4 837.4,250.8 C842.0,244.2 845.7,246.2 853.1,248.3 C860.5,250.4 860.4,257.7 853.8,263.0 C849.4,266.6 848.5,267.4 842.3,265.9 M851.9,295.5 C850.5,298.7 848.2,298.5 842.7,298.5 C837.2,298.5 837.9,294.8 836.3,290.9 C834.8,287.0 837.7,284.0 843.4,281.4 C849.2,278.8 852.7,285.2 853.7,289.1 C853.7,289.1 853.3,292.2 851.9,295.5 M759.5,97.8 C756.7,101.6 752.3,99.3 749.2,99.6 C746.1,99.9 744.1,94.6 744.1,92.7 C744.1,91.0 747.0,85.3 750.6,84.7 C750.3,84.4 750.0,84.0 749.7,83.5 C748.6,81.8 750.0,79.0 752.1,78.8 C755.5,78.5 757.0,80.0 757.6,83.3 C758.0,85.8 756.7,86.0 755.2,86.1 C760.7,89.0 761.8,94.6 759.5,97.8 M741.1,70.8 C739.7,72.0 739.3,70.7 738.7,69.9 C738.1,69.1 738.2,68.2 738.7,67.1 C739.2,66.1 740.9,66.0 741.6,66.9 C742.7,68.5 742.5,69.6 741.1,70.8 M729.3,417.7 C723.5,420.8 718.2,417.0 713.9,412.4 C709.7,407.9 712.4,403.3 717.4,396.5 C722.5,389.7 727.5,391.6 733.3,398.1 C737.5,402.7 735.0,414.6 729.3,417.7 M645.6,449.1 C645.0,450.6 643.5,451.4 641.6,451.6 C639.8,451.8 638.0,449.4 638.7,447.7 C639.9,444.7 641.8,444.1 644.7,445.0 C647.6,445.9 646.2,447.6 645.6,449.1 M565.3,65.4 C561.6,70.4 556.7,68.7 549.0,65.1 C541.3,61.5 542.2,56.2 547.4,49.3 C551.1,44.2 563.2,44.3 567.4,49.3 C571.6,54.3 568.9,60.3 565.3,65.4 M527.4,510.3 C523.2,508.2 524.7,503.5 523.9,500.6 C523.1,497.6 527.9,494.6 529.8,494.3 C531.7,494.0 539.4,496.4 539.0,500.9 C538.1,509.2 531.7,512.3 527.4,510.3 M526.5,490.4 C527.2,489.8 528.1,489.9 529.1,490.2 C530.0,490.6 530.3,492.3 529.5,492.9 C528.1,494.1 527.0,493.9 525.8,492.7 C524.6,491.5 525.8,491.0 526.5,490.4 M312.2,118.0 C311.1,120.1 307.5,120.2 306.2,118.3 C304.1,115.1 304.7,112.8 307.6,110.5 C310.5,108.1 311.2,110.7 312.3,112.4 C313.4,114.0 313.2,116.0 312.2,118.0 M286.7,138.5 C285.7,140.6 284.3,141.0 282.2,140.3 C280.0,139.5 281.1,138.3 281.6,137.2 C282.1,136.1 283.2,135.6 284.6,135.5 C286.0,135.4 287.2,137.2 286.7,138.5 M194.9,242.2 C194.0,244.0 187.5,248.7 184.1,245.6 C178.0,240.0 179.3,232.9 183.5,230.8 C187.7,228.6 190.5,232.6 193.4,233.8 C196.3,234.9 195.8,240.5 194.9,242.2 M178.4,269.5 C177.3,275.6 172.0,276.1 163.5,276.1 C155.0,276.0 153.6,270.8 155.4,262.4 C156.7,256.2 167.8,251.3 173.6,254.0 C179.5,256.8 179.6,263.4 178.4,269.5 M104.5,463.8 C102.9,466.1 98.3,465.7 97.1,463.1 C94.9,458.7 96.1,455.9 100.1,453.5 C104.1,451.1 104.6,454.5 105.7,456.7 C106.8,459.0 106.2,461.4 104.5,463.8 M94.4,345.0 C90.7,348.0 87.8,347.5 84.6,344.2 C81.5,340.8 84.6,339.7 86.6,338.1 C88.5,336.6 90.9,336.7 93.5,337.8 C96.1,338.9 96.6,343.3 94.4,345.0 M72.2,308.2 C67.2,304.3 71.4,298.3 74.3,295.5 C74.3,295.5 77.3,294.6 80.8,294.3 C84.4,294.1 85.2,296.2 87.7,301.1 C90.2,306.0 86.6,307.1 83.9,310.2 C81.1,313.4 77.1,312.2 72.2,308.2 M204.2,231.2 C199.2,227.3 203.4,221.3 206.3,218.5 C206.3,218.5 209.3,217.6 212.8,217.3 C216.4,217.1 217.2,219.2 219.7,224.1 C222.2,229.0 218.6,230.1 215.9,233.2 C213.1,236.4 209.1,235.2 204.2,231.2 M347.4,95.7 C339.8,90.3 346.1,81.9 350.7,78.0 C350.7,78.0 355.3,76.7 360.7,76.3 C366.1,76.0 367.3,78.9 371.2,85.8 C375.1,92.6 369.6,94.1 365.4,98.5 C361.1,102.9 355.0,101.2 347.4,95.7 M82.4,274.5 C83.3,271.9 87.5,271.2 89.3,273.3 C92.4,276.7 92.0,279.5 88.9,282.7 C85.9,285.9 84.6,282.9 83.0,281.1 C81.5,279.4 81.5,277.0 82.4,274.5 M87.7,253.9 C88.0,251.9 91.0,250.7 92.6,251.9 C95.5,253.9 95.7,256.0 94.0,258.9 C92.3,261.7 90.9,259.8 89.4,258.7 C87.9,257.7 87.5,256.0 87.7,253.9 M838.6,129.1 C839.8,128.7 841.0,129.3 842.1,130.3 C843.2,131.3 842.6,133.6 841.1,134.1 C838.7,134.8 837.4,134.0 836.5,131.8 C835.6,129.5 837.3,129.5 838.6,129.1 M862.9,227.8 C864.6,225.9 867.1,225.6 869.9,226.3 C872.7,227.0 874.0,231.4 872.0,233.6 C868.7,237.2 865.7,237.1 861.9,234.2 C858.2,231.4 861.2,229.7 862.9,227.8 M910.3,286.8 C910.0,287.1 909.7,287.6 909.4,287.9 C909.4,287.9 898.3,295.9 885.6,299.8 C878.2,302.0 873.2,299.3 868.6,293.9 C868.3,294.7 867.6,295.2 866.6,295.5 C865.5,295.9 864.1,294.7 864.3,293.5 C864.6,292.0 865.3,291.3 866.4,291.1 C863.9,287.8 861.5,283.8 858.8,279.6 C856.7,276.3 855.7,273.3 855.5,270.2 C854.3,268.8 854.0,266.8 854.2,264.5 C854.4,262.9 855.8,261.7 857.4,261.2 C860.4,254.3 867.1,246.5 876.6,235.6 C881.0,230.6 884.8,228.2 888.3,227.6 C887.2,225.8 886.1,223.7 884.9,221.4 C882.4,216.4 883.9,211.1 887.4,207.3 C884.0,206.4 883.0,204.4 883.5,201.0 C884.0,197.5 886.3,198.8 888.1,199.3 C890.0,199.7 891.1,201.3 891.6,203.4 C891.7,203.6 891.7,203.8 891.7,204.1 C894.4,202.6 897.5,201.9 900.8,202.2 C900.8,202.2 900.8,202.2 900.8,202.2 C900.8,198.8 901.3,194.9 902.2,190.6 C901.9,190.8 901.6,191.0 901.4,191.2 C901.4,191.2 891.3,196.7 880.5,198.5 C870.5,200.3 866.7,192.2 861.7,181.6 C861.2,181.6 860.5,181.5 859.9,181.4 C857.8,183.3 854.8,184.3 851.0,183.7 C848.7,183.2 847.1,182.6 845.9,181.6 C839.6,180.3 835.3,175.7 830.2,169.0 C830.1,169.1 830.0,169.1 830.0,169.2 C827.7,171.2 826.9,169.1 825.9,167.8 C824.9,166.4 825.1,164.8 825.9,163.1 C825.9,162.9 826.0,162.8 826.1,162.7 C824.8,159.7 824.7,156.4 825.6,153.3 C824.8,151.9 824.2,150.4 823.4,149.4 C821.4,147.0 824.6,142.3 826.2,141.2 C827.4,140.4 832.0,139.7 835.0,141.1 C837.6,139.5 840.7,139.0 844.0,138.1 L844.0,138.1 C843.2,134.2 843.1,128.9 843.3,123.1 C843.0,123.5 842.7,124.0 842.4,124.3 C842.4,124.3 830.8,133.4 817.5,138.0 C804.2,142.7 797.6,131.4 788.0,117.6 C783.6,111.3 782.9,105.6 785.2,99.1 C782.9,98.6 780.5,97.3 777.2,95.7 C770.3,92.5 771.5,85.3 778.9,81.1 C779.2,81.0 779.4,80.9 779.6,80.7 C779.7,80.2 780.0,79.7 780.4,79.3 C782.4,77.4 784.2,77.3 786.1,78.7 C787.3,78.9 788.7,79.3 790.7,80.2 C792.3,80.9 793.6,81.9 794.6,83.3 C795.6,81.9 796.7,80.5 797.8,79.0 C796.0,76.4 794.7,72.8 793.8,68.6 C787.9,73.4 779.1,72.6 764.5,69.7 C762.5,71.4 760.1,72.6 757.9,72.6 C752.8,72.7 749.8,69.2 748.0,64.7 C742.5,60.9 743.1,55.1 745.4,48.2 C740.2,50.2 735.8,50.7 732.2,50.0 C728.9,56.4 720.8,61.1 709.3,64.8 C707.5,65.4 705.5,65.6 703.4,65.6 C703.3,68.7 702.9,72.4 702.4,77.1 C701.0,91.3 691.8,88.6 681.3,91.6 C670.9,94.5 664.0,86.3 658.8,70.9 C654.9,59.2 664.0,52.2 673.1,48.7 C670.7,45.6 668.9,42.4 667.9,39.1 C662.5,37.9 657.0,35.2 652.0,31.6 C652.1,31.7 652.1,31.8 652.2,31.9 C655.5,36.9 657.7,40.3 658.9,43.6 C662.9,46.5 661.1,51.4 658.9,54.7 C658.3,56.8 657.6,59.2 656.6,62.0 C651.2,77.3 632.3,84.3 616.6,70.8 C607.0,62.5 605.6,55.9 607.6,47.7 C605.7,46.6 604.2,45.3 603.4,44.3 C602.1,42.5 600.6,36.4 601.3,31.1 C597.3,31.0 593.2,29.6 589.2,27.5 C589.2,29.3 588.9,31.0 588.4,32.7 C591.2,33.9 592.1,37.4 593.8,39.2 C596.0,41.4 593.2,46.3 591.7,47.5 C590.1,48.7 582.2,50.3 580.5,46.0 C579.8,44.4 579.5,42.9 579.4,41.5 C577.6,40.7 575.5,38.8 571.6,38.0 C569.4,37.5 567.7,36.8 566.3,35.8 C564.3,36.3 561.6,36.8 558.6,38.9 C555.1,41.2 552.0,41.9 548.8,41.6 C548.2,43.4 547.3,45.3 546.2,47.3 C536.5,63.7 527.3,59.6 509.4,55.9 C508.5,55.8 507.7,55.6 506.9,55.3 C506.8,55.9 506.6,56.4 506.4,57.0 C502.1,67.3 490.7,64.3 483.7,66.7 C477.5,68.9 470.6,60.4 468.5,55.3 C467.9,56.1 467.3,57.0 466.8,58.1 C464.9,61.9 460.7,61.7 455.0,59.2 C453.0,58.3 452.0,56.9 451.6,55.4 C450.7,55.0 449.7,54.6 448.7,54.1 C450.6,62.0 448.6,66.6 443.5,69.3 C443.7,69.6 443.9,70.0 444.1,70.4 C447.1,75.9 444.2,83.1 436.3,84.1 C429.3,85.0 427.7,82.0 425.1,76.6 C424.8,77.3 424.6,78.0 424.3,78.7 C421.2,87.2 415.9,84.2 409.0,84.3 C403.7,84.5 400.8,80.8 399.3,74.5 C395.1,75.7 390.1,76.0 384.1,76.3 C370.2,76.9 362.5,59.4 369.8,46.8 C369.8,46.8 369.8,46.8 369.8,46.8 C365.7,45.0 361.3,42.2 356.6,38.8 C356.7,39.2 356.8,39.7 356.9,40.2 C356.9,40.2 358.0,55.1 354.4,69.1 C352.4,76.6 347.6,79.8 340.9,81.2 C341.1,81.6 341.4,81.9 341.6,82.2 C343.6,85.2 342.2,86.9 339.2,91.6 C336.3,96.2 333.6,93.7 329.4,92.9 C325.4,92.2 324.4,88.3 325.1,82.3 C323.5,82.4 321.9,82.4 320.2,82.4 C319.0,82.4 318.0,82.4 317.0,82.3 C316.3,83.1 315.7,84.0 315.0,85.1 C310.8,92.0 305.7,94.5 298.9,95.1 C298.7,98.7 298.0,102.3 298.4,105.4 C299.3,112.7 286.9,118.1 282.3,118.2 C279.5,118.2 272.3,115.3 267.4,110.7 C267.0,111.4 266.5,111.9 265.9,112.5 C270.9,117.1 269.7,123.7 264.3,131.9 C267.5,132.3 270.5,134.5 272.1,138.5 C272.7,140.0 273.0,141.3 273.1,142.4 C278.1,146.0 281.4,152.3 280.5,160.6 C279.1,175.6 271.4,176.2 257.8,179.4 C257.7,179.6 257.6,179.8 257.5,180.0 C257.1,181.2 255.9,181.9 254.6,182.2 C254.5,190.6 245.5,192.4 241.3,196.4 C237.0,200.6 227.5,195.2 225.2,192.2 C223.8,190.5 222.2,184.4 222.8,179.0 C218.7,179.0 214.6,177.7 210.6,175.6 C210.6,179.3 209.6,182.8 207.7,185.6 C203.2,192.3 202.0,190.3 198.1,188.2 C198.2,190.4 198.3,192.7 198.3,195.3 C198.5,204.3 191.8,206.7 176.5,211.6 C167.2,214.6 164.8,210.4 163.5,204.1 C161.5,206.5 159.5,208.2 157.5,209.0 C158.0,211.6 157.5,213.9 156.3,216.2 C157.8,215.5 159.6,215.7 161.8,216.6 C164.6,217.8 164.3,219.3 163.5,220.7 C164.5,221.9 165.5,223.2 166.6,224.7 C171.4,230.8 167.1,236.6 158.6,237.0 C152.9,237.4 151.7,237.4 147.6,232.7 C145.8,230.5 145.1,227.8 145.5,225.2 C141.4,225.1 137.0,222.3 135.4,217.8 C135.4,217.8 135.4,217.8 135.4,217.8 C133.3,218.8 130.7,219.6 127.6,220.3 C127.9,220.5 128.1,220.6 128.3,220.7 C128.3,220.7 134.7,225.4 139.1,231.6 C142.5,236.5 140.3,240.6 136.5,245.4 C137.4,245.5 138.4,245.7 139.4,245.9 C145.6,247.2 144.6,254.4 143.2,258.2 C143.2,258.2 141.0,260.4 138.0,262.2 C135.0,264.0 133.3,262.5 128.8,259.3 C126.3,257.4 126.0,255.8 126.5,254.0 C121.7,254.9 115.4,252.3 105.4,248.1 C96.4,244.2 97.3,239.4 100.6,233.8 C88.4,235.8 84.8,228.5 85.0,215.6 C85.0,214.8 85.2,214.0 85.4,213.2 C79.6,214.2 77.2,220.0 72.8,231.1 C73.8,232.6 74.6,234.2 75.1,236.1 C79.1,248.9 72.7,251.8 62.3,259.4 C61.8,259.8 61.3,260.1 60.8,260.4 C61.1,260.8 61.3,261.1 61.4,261.5 C62.8,264.3 62.5,266.8 61.5,269.0 C62.4,269.4 63.4,269.9 64.4,270.4 C71.9,274.3 70.8,279.6 65.4,286.3 C63.2,288.9 58.7,289.9 54.4,289.5 C53.9,290.1 53.1,290.3 52.1,290.3 C51.4,290.2 50.9,289.5 50.8,288.8 C48.5,288.1 46.6,287.0 45.4,285.4 C44.2,283.9 43.6,282.3 43.5,280.7 C42.7,280.5 42.1,280.2 41.6,280.0 C39.9,279.0 36.6,274.7 35.2,270.2 C32.4,271.4 29.2,271.8 25.8,271.7 C25.3,271.6 24.9,271.6 24.4,271.6 C25.6,274.5 26.0,277.7 25.5,280.5 C24.9,283.3 24.3,284.7 23.5,285.5 C26.5,284.9 31.0,285.1 32.2,288.2 C34.8,295.3 31.4,300.6 27.3,301.6 C27.4,302.0 27.5,302.4 27.6,302.9 C30.5,314.3 21.3,320.3 12.3,322.9 C14.4,326.0 15.8,329.2 16.5,332.5 C21.6,334.0 26.7,337.0 31.1,340.8 C31.1,340.7 31.0,340.6 30.9,340.5 C24.2,328.2 22.7,325.7 29.1,311.5 C35.4,297.3 54.0,292.1 67.9,306.2 C81.8,320.2 75.3,328.3 66.9,345.3 C66.5,346.1 66.1,346.9 65.6,347.6 C66.1,347.9 66.6,348.2 67.1,348.6 C76.4,355.6 70.4,366.2 71.0,373.8 C71.4,378.8 66.1,382.5 61.0,384.6 C61.7,385.6 62.1,386.8 62.3,388.0 C67.4,391.7 66.7,395.1 65.1,400.5 C71.1,404.8 77.3,412.6 85.9,423.6 C86.3,424.1 86.7,424.6 87.1,425.1 C87.4,423.8 88.4,423.0 90.2,422.4 C92.9,421.5 92.7,423.6 93.1,425.0 C93.4,426.5 92.8,427.8 91.5,429.0 C91.0,429.4 90.4,429.6 89.7,429.5 C94.2,438.7 89.2,443.9 81.4,448.6 C101.0,455.5 100.3,469.2 89.4,488.1 C88.4,489.8 87.2,491.3 85.6,492.7 C87.4,494.8 89.4,497.6 91.9,500.9 C95.8,496.4 101.9,497.5 107.5,499.7 C111.2,501.2 112.3,503.8 112.2,507.6 C117.1,512.1 119.1,519.6 120.7,531.0 C123.2,529.8 126.9,528.8 130.8,525.2 C131.1,525.0 131.4,524.7 131.7,524.4 C131.9,523.4 132.3,522.5 133.1,521.9 C135.5,520.0 137.6,519.5 139.6,520.3 C145.9,518.8 152.5,521.1 161.1,524.4 C167.4,526.8 170.6,532.5 170.8,538.8 C172.1,536.8 173.7,534.5 174.8,531.1 C173.9,530.9 172.9,530.6 171.6,530.2 C165.6,528.3 162.8,521.0 167.9,514.8 C173.0,508.6 176.5,510.9 183.7,513.6 C185.1,514.1 186.2,514.7 187.0,515.5 C190.8,513.9 195.3,512.8 200.6,511.6 C200.7,511.0 200.9,510.5 201.3,510.0 C203.7,505.9 208.2,507.9 211.3,507.3 C214.3,506.8 216.9,511.8 217.0,513.8 C217.0,514.3 216.8,515.3 216.4,516.3 C221.5,521.8 223.8,530.6 220.9,538.6 C220.9,538.6 220.9,538.6 220.9,538.6 C224.5,539.5 228.4,541.0 232.7,543.0 C231.9,539.7 232.2,535.9 233.1,531.7 C232.4,526.5 232.0,519.9 232.6,513.4 C233.8,498.7 247.4,497.2 264.7,494.0 C274.0,492.3 280.3,495.0 286.3,502.1 C289.7,502.6 292.3,503.5 294.1,505.0 C294.2,504.8 294.3,504.5 294.5,504.3 C297.2,499.5 300.0,501.9 304.2,502.4 C308.4,503.0 309.5,507.0 309.0,513.3 C308.9,514.3 308.6,515.1 308.2,515.8 C312.8,514.6 316.9,515.2 320.5,517.3 C323.2,512.6 328.4,509.3 331.0,505.3 C334.9,499.1 347.7,502.8 351.2,505.7 C353.3,507.4 357.0,514.2 357.8,520.7 C362.6,519.6 367.8,520.0 373.1,521.3 C372.1,516.9 372.3,512.5 373.7,508.6 C378.3,496.4 380.4,504.0 390.8,503.6 C398.0,503.3 402.1,506.2 405.8,511.2 C405.8,511.1 405.8,511.0 405.8,510.9 C405.3,501.8 411.4,502.5 417.8,499.6 C419.4,498.9 420.9,498.6 422.4,498.8 C422.6,496.8 423.1,494.8 423.8,492.9 C425.9,487.0 431.1,487.3 439.5,488.6 C447.9,489.9 448.6,495.2 445.6,503.3 C445.3,503.9 445.0,504.4 444.6,505.0 C447.2,503.6 450.3,503.1 453.5,503.5 C452.8,502.7 452.7,501.6 453.1,500.4 C453.4,499.2 455.4,498.7 456.3,499.7 C457.9,501.2 457.8,502.5 456.5,504.1 C456.5,504.2 456.5,504.2 456.5,504.2 C456.5,504.2 456.5,504.2 456.6,504.2 C459.7,502.8 463.4,501.3 467.8,499.5 C477.7,495.6 480.7,500.0 482.4,506.9 C490.3,496.0 498.6,498.9 508.4,509.1 C509.2,510.0 510.0,511.1 510.5,512.3 C512.3,511.4 514.6,510.6 517.5,509.6 C526.1,506.4 527.2,512.5 531.8,517.7 C533.7,519.8 534.3,522.0 534.0,524.4 C537.0,520.2 542.8,521.0 547.3,526.5 C551.0,530.8 551.8,531.7 550.4,537.9 C549.8,540.4 548.3,542.4 546.3,543.7 C547.2,544.0 548.1,544.4 549.0,544.7 C549.6,545.0 550.2,545.2 550.7,545.4 C550.9,545.1 551.1,544.7 551.3,544.3 C554.8,538.5 560.9,540.1 565.9,540.1 C566.3,539.7 566.7,539.3 567.2,539.0 C566.7,538.2 566.3,537.4 565.9,536.6 C563.2,530.9 569.6,527.3 573.5,526.2 C573.5,526.2 576.6,526.6 579.8,527.9 C583.0,529.2 582.9,531.3 583.0,536.3 C584.2,536.7 585.4,537.2 586.6,537.9 C586.6,537.9 586.6,537.9 586.6,537.9 C588.1,534.6 590.5,531.1 593.4,527.3 C593.0,527.4 592.6,527.5 592.2,527.6 C592.2,527.6 580.0,528.2 568.7,525.0 C562.0,523.1 559.6,518.5 558.7,512.2 C555.4,510.3 552.6,507.3 552.0,504.3 C550.9,499.0 554.3,495.3 558.8,492.7 C560.9,482.1 571.6,478.7 592.9,472.5 C607.4,468.3 611.0,475.0 612.6,484.9 C623.0,473.0 632.5,474.6 642.5,484.3 C642.7,484.0 642.9,483.8 643.1,483.6 C644.8,482.6 646.1,482.5 647.3,483.5 C647.9,482.8 648.5,482.2 649.1,481.6 C649.5,481.2 649.9,480.8 650.3,480.5 C649.9,480.2 649.5,479.8 649.3,479.4 C646.5,475.6 650.0,472.2 650.7,469.2 C651.3,466.2 657.0,465.7 658.8,466.4 C660.7,467.0 666.4,472.7 663.8,476.5 C663.6,476.8 663.4,477.1 663.2,477.4 C667.4,478.2 671.4,480.5 674.5,483.9 C676.2,480.5 679.6,479.1 683.4,478.6 C680.6,475.2 677.7,471.0 675.2,466.6 C668.4,454.1 678.5,445.7 690.7,433.9 C696.4,428.3 702.0,426.7 709.1,428.1 C713.9,421.1 718.8,419.6 725.3,420.1 C725.4,420.1 725.4,420.1 725.4,420.1 C726.4,419.2 727.6,419.3 729.0,419.8 C729.4,419.9 729.7,420.3 729.9,420.7 C732.7,421.2 735.8,421.8 739.2,422.4 C736.5,414.9 739.8,405.4 747.0,394.2 C745.7,393.1 744.6,391.8 743.9,390.7 C743.9,390.7 743.4,387.6 743.7,384.1 C743.8,382.5 744.4,381.5 745.4,380.8 C745.1,380.4 744.8,380.0 744.5,379.5 C736.4,367.3 745.4,363.4 751.8,354.2 C758.2,345.0 769.1,347.0 783.4,355.9 C794.2,362.7 791.5,374.2 786.6,382.9 C789.6,383.6 792.4,384.6 794.9,385.9 C797.8,383.7 801.2,381.6 805.1,379.5 C798.0,376.7 795.2,373.2 791.0,361.5 C785.2,345.7 795.7,327.8 817.0,328.3 C831.1,328.6 836.3,333.5 840.1,342.5 C843.8,342.5 847.3,344.2 850.7,347.3 C851.5,347.1 852.3,347.0 853.2,346.9 C861.6,345.6 863.8,350.5 863.3,359.1 C863.2,360.5 862.7,361.8 861.9,363.1 C862.3,363.9 862.6,364.7 862.9,365.5 C864.6,364.6 866.1,364.8 867.8,365.9 C869.5,362.1 872.0,358.8 875.2,356.2 C876.3,353.6 878.0,351.2 879.3,350.2 C880.8,349.0 886.2,347.6 890.9,348.2 C890.9,344.7 892.1,341.1 893.9,337.6 C890.7,337.5 887.6,336.6 885.1,335.0 C877.4,329.6 883.1,329.4 884.6,322.1 C885.6,316.8 888.6,314.3 893.1,312.6 C895.8,306.3 902.5,301.7 910.4,300.7 L910.4,300.7 C909.8,296.9 909.9,292.1 910.3,286.8" id="path-15"></path>
        <filter x="-50%" y="-50%" width="200%" height="200%" filterUnits="objectBoundingBox" id="filter-16">
            <feOffset dx="0" dy="3" in="SourceAlpha" result="shadowOffsetInner1"></feOffset>
            <feComposite in="shadowOffsetInner1" in2="SourceAlpha" operator="arithmetic" k2="-1" k3="1" result="shadowInnerInner1"></feComposite>
            <feColorMatrix values="0 0 0 0 0.3   0 0 0 0 0.1   0 0 0 0 0.1  0 0 0 1 0" type="matrix" in="shadowInnerInner1"></feColorMatrix>
        </filter>
        <path d="M64.7,191.6 C63.8,192.0 62.7,192.2 61.6,192.5 C62.1,192.8 62.5,193.3 63.0,193.7 C63.5,192.9 64.1,192.2 64.7,191.6" id="path-17"></path>
        <filter x="-50%" y="-50%" width="200%" height="200%" filterUnits="objectBoundingBox" id="filter-18">
            <feOffset dx="0" dy="3" in="SourceAlpha" result="shadowOffsetInner1"></feOffset>
            <feComposite in="shadowOffsetInner1" in2="SourceAlpha" operator="arithmetic" k2="-1" k3="1" result="shadowInnerInner1"></feComposite>
            <feColorMatrix values="0 0 0 0 0.3   0 0 0 0 0.1   0 0 0 0 0.1  0 0 0 1 0" type="matrix" in="shadowInnerInner1"></feColorMatrix>
        </filter>
        <path d="M815.2,0.1 C815.2,0.1 815.2,0.2 815.3,0.2 C815.3,0.2 815.3,0.1 815.3,0.1 C815.2,0.1 815.2,0.1 815.2,0.1" id="path-19"></path>
        <filter x="-50%" y="-50%" width="200%" height="200%" filterUnits="objectBoundingBox" id="filter-20">
            <feOffset dx="0" dy="3" in="SourceAlpha" result="shadowOffsetInner1"></feOffset>
            <feComposite in="shadowOffsetInner1" in2="SourceAlpha" operator="arithmetic" k2="-1" k3="1" result="shadowInnerInner1"></feComposite>
            <feColorMatrix values="0 0 0 0 0.3   0 0 0 0 0.1   0 0 0 0 0.1  0 0 0 1 0" type="matrix" in="shadowInnerInner1"></feColorMatrix>
        </filter>
        <path d="M421.3,165.4 C421.3,165.4 421.2,165.4 421.1,165.4 C421.2,165.5 421.2,165.5 421.2,165.5 C421.2,165.5 421.3,165.4 421.3,165.4" id="path-21"></path>
        <filter x="-50%" y="-50%" width="200%" height="200%" filterUnits="objectBoundingBox" id="filter-22">
            <feOffset dx="0" dy="3" in="SourceAlpha" result="shadowOffsetInner1"></feOffset>
            <feComposite in="shadowOffsetInner1" in2="SourceAlpha" operator="arithmetic" k2="-1" k3="1" result="shadowInnerInner1"></feComposite>
            <feColorMatrix values="0 0 0 0 0.3   0 0 0 0 0.1   0 0 0 0 0.1  0 0 0 1 0" type="matrix" in="shadowInnerInner1"></feColorMatrix>
        </filter>
        <path d="M60.9,222.1 C61.5,222.4 62.0,222.7 62.5,223.1 C62.1,222.5 61.8,222.0 61.5,221.4 C61.3,221.6 61.1,221.9 60.9,222.1" id="path-23"></path>
        <filter x="-50%" y="-50%" width="200%" height="200%" filterUnits="objectBoundingBox" id="filter-24">
            <feOffset dx="0" dy="3" in="SourceAlpha" result="shadowOffsetInner1"></feOffset>
            <feComposite in="shadowOffsetInner1" in2="SourceAlpha" operator="arithmetic" k2="-1" k3="1" result="shadowInnerInner1"></feComposite>
            <feColorMatrix values="0 0 0 0 0.3   0 0 0 0 0.1   0 0 0 0 0.1  0 0 0 1 0" type="matrix" in="shadowInnerInner1"></feColorMatrix>
        </filter>
        <path d="M5.7,153.9 C4.3,153.2 3.2,152.4 2.2,151.5 C1.8,152.0 1.4,152.6 0.9,153.2 C0.9,153.2 0.9,153.2 0.9,153.2 C4.2,155.6 7.6,158.9 11.2,162.8 C11.2,162.4 11.2,162.0 11.2,161.5 C11.2,161.5 11.4,159.8 11.9,157.1 C9.9,156.2 7.8,155.1 5.7,153.9" id="path-25"></path>
        <filter x="-50%" y="-50%" width="200%" height="200%" filterUnits="objectBoundingBox" id="filter-26">
            <feOffset dx="0" dy="3" in="SourceAlpha" result="shadowOffsetInner1"></feOffset>
            <feComposite in="shadowOffsetInner1" in2="SourceAlpha" operator="arithmetic" k2="-1" k3="1" result="shadowInnerInner1"></feComposite>
            <feColorMatrix values="0 0 0 0 0.3   0 0 0 0 0.1   0 0 0 0 0.1  0 0 0 1 0" type="matrix" in="shadowInnerInner1"></feColorMatrix>
        </filter>
        <path d="M1.1,127.9 C1.1,127.9 1.2,128.0 1.3,128.1 C1.3,128.0 1.3,128.0 1.3,127.9 C1.2,127.9 1.1,127.9 1.1,127.9" id="path-27"></path>
        <filter x="-50%" y="-50%" width="200%" height="200%" filterUnits="objectBoundingBox" id="filter-28">
            <feOffset dx="0" dy="3" in="SourceAlpha" result="shadowOffsetInner1"></feOffset>
            <feComposite in="shadowOffsetInner1" in2="SourceAlpha" operator="arithmetic" k2="-1" k3="1" result="shadowInnerInner1"></feComposite>
            <feColorMatrix values="0 0 0 0 0.3   0 0 0 0 0.1   0 0 0 0 0.1  0 0 0 1 0" type="matrix" in="shadowInnerInner1"></feColorMatrix>
        </filter>
    </defs>
    <g id="Page-1-Copy" stroke="none" stroke-width="1" fill="none" fill-rule="evenodd">
        <g id="back_0">
            <path d="M774.1,758.7 C851.8,774.0 965.7,813.7 1022,795 C1090.9,771.9 1116.9,631.0 1223.9,666.0 C1330.9,701.0 1336.5,668.0 1360.5,576.5 C1384.5,485.0 1392.0,360.9 1338.0,318.9 C1284.0,276.9 1200.0,202 1102,178 C1003.9,154 952,183.0 902,196 C852,208.9 813,199 737,186 C661,173 591,181.9 566,248 C541,314.0 498,339.9 435,364 C372,388.0 175.9,428.0 259,560 C342.0,691.9 259.0,735.9 318.4,813.9 C377.9,891.9 542.9,991.9 590.9,921.9 C638.9,851.9 659,752.9 727.9,752.9 C732.1,752.9 736.6,753.2 741.4,753.6" id="Path-63" stroke="#000000" opacity="0.2"></path>
            <path d="M907.6,176.6 C854.8,190.3 813.6,179.8 733.3,166.0 C653.0,152.3 544.4,156.2 517.9,225.9 C491.5,295.7 431.5,328.6 365.0,353.9 C298.4,379.3 84.0,372.0 199.9,520.0 C315.9,668.0 161.5,749.5 271.9,861.0 C382.4,972.5 544.8,992.1 623.0,942.5 C701.1,892.8 691.1,785.2 764.0,785.2 C836.9,785.2 961.5,833.8 1034.4,809.5 C1107.3,785.2 1134.1,693.2 1197.5,688.0 C1260.8,682.7 1334.7,763.9 1377.0,672.0 C1419.2,580.0 1425.3,350.9 1368.3,306.5 C1311.2,262.2 1247.5,162.3 1144.0,137 C1060.1,116.4 991.8,146.1 940.7,165.5" id="Path-63-Copy" stroke="#000000" opacity="0.2"></path>
            <path d="M912.8,172.4 L913.3,172.4 L913.3,173.2 L912.8,173.2 L912.8,174.3 L911.8,174.3 L911.8,173.2 L909.7,173.2 L909.7,172.6 L911.7,169.3 L912.8,169.3 L912.8,172.4 Z M910.6,172.4 L911.8,172.4 L911.8,170.6 L911.7,170.6 L911.6,170.8 L910.6,172.4 Z M914.0,172.1 L914.3,169.3 L917.0,169.3 L917.0,170.1 L915.1,170.1 L914.9,171.3 C915.0,171.2 915.2,171.2 915.3,171.1 C915.4,171.1 915.6,171.0 915.8,171.0 C916.2,171.0 916.6,171.2 916.8,171.5 C917.1,171.8 917.2,172.2 917.2,172.7 C917.2,173.2 917.1,173.6 916.8,173.9 C916.5,174.2 916.1,174.4 915.5,174.4 C915.1,174.4 914.7,174.2 914.4,174.0 C914.0,173.8 913.9,173.4 913.9,173.0 L913.9,173.0 L914.9,172.9 C914.9,173.1 914.9,173.3 915.0,173.4 C915.2,173.5 915.3,173.6 915.5,173.6 C915.8,173.6 915.9,173.5 916.1,173.4 C916.2,173.2 916.2,173.0 916.2,172.7 C916.2,172.4 916.2,172.2 916.0,172.0 C915.9,171.8 915.7,171.8 915.5,171.8 C915.3,171.8 915.2,171.8 915.1,171.9 C915.0,171.9 914.9,172.0 914.9,172.2 L914.0,172.1 Z M919.3,173.6 C919.6,173.6 919.8,173.5 919.9,173.3 C920.1,173.1 920.2,172.9 920.2,172.5 L920.2,172.2 C920.1,172.4 919.9,172.5 919.8,172.5 C919.6,172.6 919.5,172.7 919.3,172.7 C918.8,172.7 918.5,172.5 918.2,172.2 C917.9,171.9 917.8,171.5 917.8,171.0 C917.8,170.5 918.0,170.1 918.3,169.7 C918.6,169.4 919.0,169.2 919.5,169.2 C920.0,169.2 920.4,169.4 920.7,169.7 C921.0,170.1 921.2,170.6 921.2,171.1 L921.2,172.5 C921.2,173.1 921.0,173.5 920.7,173.9 C920.3,174.2 919.9,174.4 919.3,174.4 C919.2,174.4 919.0,174.3 918.8,174.3 C918.6,174.3 918.4,174.2 918.3,174.1 L918.5,173.4 C918.6,173.5 918.7,173.5 918.9,173.6 C919.0,173.6 919.2,173.6 919.3,173.6 L919.3,173.6 Z M919.5,171.9 C919.6,171.9 919.8,171.9 919.9,171.8 C920.0,171.8 920.1,171.7 920.2,171.6 L920.2,171.0 C920.2,170.7 920.1,170.4 920.0,170.3 C919.9,170.1 919.7,170.0 919.5,170.0 C919.3,170.0 919.1,170.1 919.0,170.3 C918.9,170.5 918.8,170.7 918.8,171.0 C918.8,171.3 918.9,171.5 919.0,171.7 C919.1,171.8 919.2,171.9 919.5,171.9 L919.5,171.9 Z M924.1,172.5 L922.0,172.5 L922.0,171.8 L924.1,171.8 L924.1,172.5 Z M928.2,170.6 C928.2,170.9 928.1,171.1 928.0,171.3 C927.9,171.5 927.7,171.6 927.5,171.7 C927.7,171.8 928.0,172.0 928.1,172.2 C928.3,172.4 928.4,172.6 928.4,172.9 C928.4,173.4 928.2,173.7 927.9,174.0 C927.6,174.2 927.2,174.4 926.7,174.4 C926.1,174.4 925.7,174.2 925.4,174.0 C925.0,173.7 924.9,173.4 924.9,172.9 C924.9,172.6 924.9,172.4 925.1,172.2 C925.3,172.0 925.5,171.8 925.8,171.7 C925.6,171.6 925.4,171.5 925.2,171.3 C925.1,171.1 925.0,170.9 925.0,170.6 C925.0,170.2 925.2,169.8 925.5,169.6 C925.8,169.4 926.2,169.2 926.6,169.2 C927.1,169.2 927.5,169.4 927.8,169.6 C928.1,169.8 928.2,170.2 928.2,170.6 L928.2,170.6 Z M927.4,172.9 C927.4,172.6 927.3,172.5 927.2,172.3 C927.0,172.2 926.9,172.1 926.6,172.1 C926.4,172.1 926.2,172.2 926.1,172.3 C925.9,172.5 925.9,172.6 925.9,172.9 C925.9,173.1 925.9,173.3 926.1,173.4 C926.2,173.5 926.4,173.6 926.7,173.6 C926.9,173.6 927.0,173.5 927.2,173.4 C927.3,173.3 927.4,173.1 927.4,172.9 L927.4,172.9 Z M927.2,170.6 C927.2,170.5 927.2,170.3 927.0,170.2 C926.9,170.1 926.8,170.0 926.6,170.0 C926.5,170.0 926.3,170.1 926.2,170.2 C926.1,170.3 926.0,170.4 926.0,170.6 C926.0,170.9 926.1,171.0 926.2,171.1 C926.3,171.3 926.5,171.3 926.7,171.3 C926.8,171.3 927.0,171.3 927.1,171.1 C927.2,171.0 927.2,170.9 927.2,170.6 L927.2,170.6 Z M931.9,172.4 L932.4,172.4 L932.4,173.2 L931.9,173.2 L931.9,174.3 L930.9,174.3 L930.9,173.2 L928.8,173.2 L928.8,172.6 L930.9,169.3 L931.9,169.3 L931.9,172.4 Z M929.7,172.4 L930.9,172.4 L930.9,170.6 L930.8,170.6 L930.7,170.8 L929.7,172.4 Z M934.9,169.2 C935.1,169.2 935.3,169.3 935.4,169.3 C935.6,169.3 935.8,169.4 935.9,169.5 L935.8,170.2 C935.6,170.1 935.5,170.1 935.3,170.1 C935.2,170.0 935.1,170.0 934.9,170.0 C934.6,170.0 934.4,170.1 934.2,170.4 C934.0,170.6 933.9,170.9 933.9,171.3 L933.9,171.5 C934.1,171.3 934.2,171.2 934.4,171.2 C934.6,171.1 934.8,171.0 935.0,171.0 C935.5,171.0 935.8,171.2 936.0,171.5 C936.3,171.8 936.4,172.2 936.4,172.7 C936.4,173.2 936.2,173.6 935.9,173.9 C935.6,174.2 935.2,174.4 934.7,174.4 C934.2,174.4 933.8,174.2 933.4,173.8 C933.1,173.5 932.9,173.0 932.9,172.4 L932.9,171.3 C932.9,170.7 933.1,170.2 933.5,169.8 C933.9,169.4 934.3,169.2 934.9,169.2 L934.9,169.2 Z M934.7,171.8 C934.5,171.8 934.4,171.8 934.2,171.9 C934.1,171.9 934.0,172.0 933.9,172.1 L933.9,172.4 C933.9,172.8 934.0,173.1 934.1,173.3 C934.3,173.5 934.5,173.6 934.7,173.6 C934.9,173.6 935.1,173.5 935.2,173.3 C935.3,173.2 935.4,172.9 935.4,172.7 C935.4,172.4 935.3,172.2 935.2,172.0 C935.1,171.9 934.9,171.8 934.7,171.8 L934.7,171.8 Z" id="459-846" fill="#000000" opacity="0.4" transform="translate(923.2, 171.8) rotate(-19.0) translate(-923.2, -171.8) "></path>
            <path d="M747.8,756.4 L748.3,756.4 L748.3,757.2 L747.8,757.2 L747.8,758.3 L746.8,758.3 L746.8,757.2 L744.7,757.2 L744.7,756.6 L746.7,753.3 L747.8,753.3 L747.8,756.4 Z M745.6,756.4 L746.8,756.4 L746.8,754.6 L746.7,754.6 L746.6,754.8 L745.6,756.4 Z M749.0,756.1 L749.3,753.3 L752.0,753.3 L752.0,754.1 L750.1,754.1 L749.9,755.3 C750.0,755.2 750.2,755.2 750.3,755.1 C750.4,755.1 750.6,755.0 750.8,755.0 C751.2,755.0 751.6,755.2 751.8,755.5 C752.1,755.8 752.2,756.2 752.2,756.7 C752.2,757.2 752.1,757.6 751.8,757.9 C751.5,758.2 751.1,758.4 750.5,758.4 C750.1,758.4 749.7,758.2 749.4,758.0 C749.0,757.8 748.9,757.4 748.9,757.0 L748.9,757.0 L749.9,756.9 C749.9,757.1 749.9,757.3 750.0,757.4 C750.2,757.5 750.3,757.6 750.5,757.6 C750.8,757.6 750.9,757.5 751.1,757.4 C751.2,757.2 751.2,757.0 751.2,756.7 C751.2,756.4 751.2,756.2 751.0,756.0 C750.9,755.8 750.7,755.8 750.5,755.8 C750.3,755.8 750.2,755.8 750.1,755.9 C750.0,755.9 749.9,756.0 749.9,756.2 L749.0,756.1 Z M754.3,757.6 C754.6,757.6 754.8,757.5 754.9,757.3 C755.1,757.1 755.2,756.9 755.2,756.5 L755.2,756.2 C755.1,756.4 754.9,756.5 754.8,756.5 C754.6,756.6 754.5,756.7 754.3,756.7 C753.8,756.7 753.5,756.5 753.2,756.2 C752.9,755.9 752.8,755.5 752.8,755.0 C752.8,754.5 753.0,754.1 753.3,753.7 C753.6,753.4 754.0,753.2 754.5,753.2 C755.0,753.2 755.4,753.4 755.7,753.7 C756.0,754.1 756.2,754.6 756.2,755.1 L756.2,756.5 C756.2,757.1 756.0,757.5 755.7,757.9 C755.3,758.2 754.9,758.4 754.3,758.4 C754.2,758.4 754.0,758.3 753.8,758.3 C753.6,758.3 753.4,758.2 753.3,758.1 L753.5,757.4 C753.6,757.5 753.7,757.5 753.9,757.6 C754.0,757.6 754.2,757.6 754.3,757.6 L754.3,757.6 Z M754.5,755.9 C754.6,755.9 754.8,755.9 754.9,755.8 C755.0,755.8 755.1,755.7 755.2,755.6 L755.2,755.0 C755.2,754.7 755.1,754.4 755.0,754.3 C754.9,754.1 754.7,754.0 754.5,754.0 C754.3,754.0 754.1,754.1 754.0,754.3 C753.9,754.5 753.8,754.7 753.8,755.0 C753.8,755.3 753.9,755.5 754.0,755.7 C754.1,755.8 754.2,755.9 754.5,755.9 L754.5,755.9 Z M759.1,756.5 L757.0,756.5 L757.0,755.8 L759.1,755.8 L759.1,756.5 Z M763.2,754.6 C763.2,754.9 763.1,755.1 763.0,755.3 C762.9,755.5 762.7,755.6 762.5,755.7 C762.7,755.8 763.0,756.0 763.1,756.2 C763.3,756.4 763.4,756.6 763.4,756.9 C763.4,757.4 763.2,757.7 762.9,758.0 C762.6,758.2 762.2,758.4 761.7,758.4 C761.1,758.4 760.7,758.2 760.4,758.0 C760.0,757.7 759.9,757.4 759.9,756.9 C759.9,756.6 759.9,756.4 760.1,756.2 C760.3,756.0 760.5,755.8 760.8,755.7 C760.6,755.6 760.4,755.5 760.2,755.3 C760.1,755.1 760.0,754.9 760.0,754.6 C760.0,754.2 760.2,753.8 760.5,753.6 C760.8,753.4 761.2,753.2 761.6,753.2 C762.1,753.2 762.5,753.4 762.8,753.6 C763.1,753.8 763.2,754.2 763.2,754.6 L763.2,754.6 Z M762.4,756.9 C762.4,756.6 762.3,756.5 762.2,756.3 C762.0,756.2 761.9,756.1 761.6,756.1 C761.4,756.1 761.2,756.2 761.1,756.3 C760.9,756.5 760.9,756.6 760.9,756.9 C760.9,757.1 760.9,757.3 761.1,757.4 C761.2,757.5 761.4,757.6 761.7,757.6 C761.9,757.6 762.0,757.5 762.2,757.4 C762.3,757.3 762.4,757.1 762.4,756.9 L762.4,756.9 Z M762.2,754.6 C762.2,754.5 762.2,754.3 762.0,754.2 C761.9,754.1 761.8,754.0 761.6,754.0 C761.5,754.0 761.3,754.1 761.2,754.2 C761.1,754.3 761.0,754.4 761.0,754.6 C761.0,754.9 761.1,755.0 761.2,755.1 C761.3,755.3 761.5,755.3 761.7,755.3 C761.8,755.3 762.0,755.3 762.1,755.1 C762.2,755.0 762.2,754.9 762.2,754.6 L762.2,754.6 Z M766.9,756.4 L767.4,756.4 L767.4,757.2 L766.9,757.2 L766.9,758.3 L765.9,758.3 L765.9,757.2 L763.8,757.2 L763.8,756.6 L765.9,753.3 L766.9,753.3 L766.9,756.4 Z M764.7,756.4 L765.9,756.4 L765.9,754.6 L765.8,754.6 L765.7,754.8 L764.7,756.4 Z M769.9,753.2 C770.1,753.2 770.3,753.3 770.4,753.3 C770.6,753.3 770.8,753.4 770.9,753.5 L770.8,754.2 C770.6,754.1 770.5,754.1 770.3,754.1 C770.2,754.0 770.1,754.0 769.9,754.0 C769.6,754.0 769.4,754.1 769.2,754.4 C769.0,754.6 768.9,754.9 768.9,755.3 L768.9,755.5 C769.1,755.3 769.2,755.2 769.4,755.2 C769.6,755.1 769.8,755.0 770.0,755.0 C770.5,755.0 770.8,755.2 771.0,755.5 C771.3,755.8 771.4,756.2 771.4,756.7 C771.4,757.2 771.2,757.6 770.9,757.9 C770.6,758.2 770.2,758.4 769.7,758.4 C769.2,758.4 768.8,758.2 768.4,757.8 C768.1,757.5 767.9,757.0 767.9,756.4 L767.9,755.3 C767.9,754.7 768.1,754.2 768.5,753.8 C768.9,753.4 769.3,753.2 769.9,753.2 L769.9,753.2 Z M769.7,755.8 C769.5,755.8 769.4,755.8 769.2,755.9 C769.1,755.9 769.0,756.0 768.9,756.1 L768.9,756.4 C768.9,756.8 769.0,757.1 769.1,757.3 C769.3,757.5 769.5,757.6 769.7,757.6 C769.9,757.6 770.1,757.5 770.2,757.3 C770.3,757.2 770.4,756.9 770.4,756.7 C770.4,756.4 770.3,756.2 770.2,756.0 C770.1,755.9 769.9,755.8 769.7,755.8 L769.7,755.8 Z" id="459-846-copy" fill="#000000" opacity="0.4" transform="translate(758.2, 755.8) rotate(8.0) translate(-758.2, -755.8) "></path>
            <path d="M1467.3,269.8 C1409.7,147.7 1326.8,102.0 1206.3,72.5 C1085.8,43.0 992.8,102.6 931.3,118.6 C869.9,134.6 821.9,122.3 728.5,106.3 C635.0,90.3 487.7,73.8 457.0,155 C426.2,236.1 377.3,295.5 299.9,325.0 C222.4,354.5 -61.6,419.8 40.4,582.1 C142.4,744.4 75.0,804.9 218.3,910.3 C361.6,1015.7 548.6,1030.9 639.6,973.1 C730.6,915.3 679.3,826.7 764.1,826.7 C849.0,826.7 994.0,883.3 1078.8,855.0 C1163.7,826.7 1137.2,718.1 1211.0,711.9 C1284.7,705.8 1409.6,857.8 1458.8,750.8 C1507.9,643.9 1525.0,392 1467.3,269.8 Z" id="Path-63-Copy-2" stroke="#000000" opacity="0.2"></path>
            <path d="M662.9,210 C644.9,206 609,219.0 602,257 C595,294.9 609.0,310.9 631,284 C652.9,257.0 686,245 686.0,233.0 C686.0,221.0 680.9,214 662.9,210 Z" id="Path-5" stroke="#000000" opacity="0.2"></path>
            <g id="Group-26" transform="translate(385.0, 188.0)">
                <g id="Fill-1">
                    <use fill="#C5512C" fill-rule="evenodd" xlink:href="#path-1"></use>
                    <use fill="black" fill-opacity="1" filter="url(#filter-2)" xlink:href="#path-1"></use>
                </g>
                <g id="Fill-3">
                    <use fill="#C5512C" fill-rule="evenodd" xlink:href="#path-3"></use>
                    <use fill="black" fill-opacity="1" filter="url(#filter-4)" xlink:href="#path-3"></use>
                </g>
                <g id="Fill-5">
                    <use fill="#C5512C" fill-rule="evenodd" xlink:href="#path-5"></use>
                    <use fill="black" fill-opacity="1" filter="url(#filter-6)" xlink:href="#path-5"></use>
                </g>
                <g id="Fill-7">
                    <use fill="#C5512C" fill-rule="evenodd" xlink:href="#path-7"></use>
                    <use fill="black" fill-opacity="1" filter="url(#filter-8)" xlink:href="#path-7"></use>
                </g>
                <g id="Fill-9">
                    <use fill="#C5512C" fill-rule="evenodd" xlink:href="#path-9"></use>
                    <use fill="black" fill-opacity="1" filter="url(#filter-10)" xlink:href="#path-9"></use>
                </g>
                <g id="Fill-11">
                    <use fill="#C5512C" fill-rule="evenodd" xlink:href="#path-11"></use>
                    <use fill="black" fill-opacity="1" filter="url(#filter-12)" xlink:href="#path-11"></use>
                </g>
                <g id="Fill-13">
                    <use fill="#C5512C" fill-rule="evenodd" xlink:href="#path-13"></use>
                    <use fill="black" fill-opacity="1" filter="url(#filter-14)" xlink:href="#path-13"></use>
                </g>
                <g id="Fill-15">
                    <use fill="#C5512C" fill-rule="evenodd" xlink:href="#path-15"></use>
                    <use fill="black" fill-opacity="1" filter="url(#filter-16)" xlink:href="#path-15"></use>
                </g>
                <g id="Fill-19">
                    <use fill="#C5512C" fill-rule="evenodd" xlink:href="#path-17"></use>
                    <use fill="black" fill-opacity="1" filter="url(#filter-18)" xlink:href="#path-17"></use>
                </g>
                <g id="Fill-21">
                    <use fill="#C5512C" fill-rule="evenodd" xlink:href="#path-19"></use>
                    <use fill="black" fill-opacity="1" filter="url(#filter-20)" xlink:href="#path-19"></use>
                </g>
                <g id="Fill-25">
                    <use fill="#C5512C" fill-rule="evenodd" xlink:href="#path-21"></use>
                    <use fill="black" fill-opacity="1" filter="url(#filter-22)" xlink:href="#path-21"></use>
                </g>
                <g id="Fill-47">
                    <use fill="#C5512C" fill-rule="evenodd" xlink:href="#path-23"></use>
                    <use fill="black" fill-opacity="1" filter="url(#filter-24)" xlink:href="#path-23"></use>
                </g>
                <g id="Fill-55">
                    <use fill="#C5512C" fill-rule="evenodd" xlink:href="#path-25"></use>
                    <use fill="black" fill-opacity="1" filter="url(#filter-26)" xlink:href="#path-25"></use>
                </g>
                <g id="Fill-61">
                    <use fill="#C5512C" fill-rule="evenodd" xlink:href="#path-27"></use>
                    <use fill="black" fill-opacity="1" filter="url(#filter-28)" xlink:href="#path-27"></use>
                </g>
            </g>
            <path d="M190.5,315 C267,306 363.5,230 372,141 C380.5,52 306.5,58.5 240,123 C173.5,187.4 114,324 190.5,315 Z" id="Path-17" stroke="#000000" opacity="0.2"></path>
            <path d="M755,898.5 C755,869.5 883,860.4 962.5,897.5 C1042,934.5 995.5,976.5 897,976.5 C798.5,976.5 755,927.5 755,898.5 Z" id="Path-24" stroke="#000000" opacity="0.2"></path>
            <path d="M353.5,651.5 C338.5,730 332,778 389,816 C446,854 498.5,886.5 498.5,840.5 C498.5,794.5 368.5,573 353.5,651.5 Z" id="Path-27" stroke="#000000" opacity="0.2"></path>
        </g>
    </g>
</svg>
