<?xml version="1.0" encoding="UTF-8" standalone="no"?>
<svg width="1525px" height="1153px" viewBox="0 0 1525 1153" version="1.1" xmlns="http://www.w3.org/2000/svg" xmlns:xlink="http://www.w3.org/1999/xlink">
    <!-- Generator: Sketch 39.1 (31720) - http://www.bohemiancoding.com/sketch -->
    <title>back_1</title>
    <desc>Created with Sketch.</desc>
    <defs>
        <path d="M16.2,382.5 C16.3,382.6 16.4,382.7 16.4,382.8 C22.9,391.5 26.7,396.5 27.8,402.6 C31.0,403.0 34.3,403.7 37.5,404.7 C36.7,400.2 36.9,395.5 38.2,391.4 C30.8,390.2 23.1,387.0 16.2,382.5" id="path-1"></path>
        <filter x="-50%" y="-50%" width="200%" height="200%" filterUnits="objectBoundingBox" id="filter-2">
            <feOffset dx="0" dy="3" in="SourceAlpha" result="shadowOffsetInner1"></feOffset>
            <feComposite in="shadowOffsetInner1" in2="SourceAlpha" operator="arithmetic" k2="-1" k3="1" result="shadowInnerInner1"></feComposite>
            <feColorMatrix values="0 0 0 0 0.3   0 0 0 0 0.1   0 0 0 0 0.1  0 0 0 1 0" type="matrix" in="shadowInnerInner1"></feColorMatrix>
        </filter>
        <path d="M71.4,25.8 C72.0,25.4 72.6,25.0 73.2,24.6 C72.9,24.4 72.6,24.2 72.4,24.1 C72.1,24.6 71.8,25.2 71.4,25.8" id="path-3"></path>
        <filter x="-50%" y="-50%" width="200%" height="200%" filterUnits="objectBoundingBox" id="filter-4">
            <feOffset dx="0" dy="3" in="SourceAlpha" result="shadowOffsetInner1"></feOffset>
            <feComposite in="shadowOffsetInner1" in2="SourceAlpha" operator="arithmetic" k2="-1" k3="1" result="shadowInnerInner1"></feComposite>
            <feColorMatrix values="0 0 0 0 0.3   0 0 0 0 0.1   0 0 0 0 0.1  0 0 0 1 0" type="matrix" in="shadowInnerInner1"></feColorMatrix>
        </filter>
        <path d="M71.8,183.9 C71.7,183.9 71.7,183.9 71.6,183.9 C74.7,187.7 77.3,192.3 79.3,197.1 C79.3,197.0 79.3,196.8 79.3,196.7 C79.0,190.3 78.9,185.7 79.5,181.9 C77.2,182.7 74.7,183.3 71.8,183.9" id="path-5"></path>
        <filter x="-50%" y="-50%" width="200%" height="200%" filterUnits="objectBoundingBox" id="filter-6">
            <feOffset dx="0" dy="3" in="SourceAlpha" result="shadowOffsetInner1"></feOffset>
            <feComposite in="shadowOffsetInner1" in2="SourceAlpha" operator="arithmetic" k2="-1" k3="1" result="shadowInnerInner1"></feComposite>
            <feColorMatrix values="0 0 0 0 0.3   0 0 0 0 0.1   0 0 0 0 0.1  0 0 0 1 0" type="matrix" in="shadowInnerInner1"></feColorMatrix>
        </filter>
        <path d="M61.9,508.7 C62.2,508.7 62.4,508.8 62.7,508.9 C62.5,508.6 62.3,508.4 62.1,508.1 C62.1,508.3 62.0,508.5 61.9,508.7" id="path-7"></path>
        <filter x="-50%" y="-50%" width="200%" height="200%" filterUnits="objectBoundingBox" id="filter-8">
            <feOffset dx="0" dy="3" in="SourceAlpha" result="shadowOffsetInner1"></feOffset>
            <feComposite in="shadowOffsetInner1" in2="SourceAlpha" operator="arithmetic" k2="-1" k3="1" result="shadowInnerInner1"></feComposite>
            <feColorMatrix values="0 0 0 0 0.3   0 0 0 0 0.1   0 0 0 0 0.1  0 0 0 1 0" type="matrix" in="shadowInnerInner1"></feColorMatrix>
        </filter>
        <path d="M59.1,38.7 C59.0,38.8 58.9,38.9 58.8,38.9 C56.8,40.3 55.1,41.6 53.5,42.6 L55.8,44.3 C56.8,42.4 57.9,40.5 59.1,38.7" id="path-9"></path>
        <filter x="-50%" y="-50%" width="200%" height="200%" filterUnits="objectBoundingBox" id="filter-10">
            <feOffset dx="0" dy="3" in="SourceAlpha" result="shadowOffsetInner1"></feOffset>
            <feComposite in="shadowOffsetInner1" in2="SourceAlpha" operator="arithmetic" k2="-1" k3="1" result="shadowInnerInner1"></feComposite>
            <feColorMatrix values="0 0 0 0 0.3   0 0 0 0 0.1   0 0 0 0 0.1  0 0 0 1 0" type="matrix" in="shadowInnerInner1"></feColorMatrix>
        </filter>
        <path d="M18.4,667.8 C18.4,667.8 18.3,667.8 18.2,667.8 L18.3,668.0 C18.3,667.9 18.4,667.8 18.4,667.8" id="path-11"></path>
        <filter x="-50%" y="-50%" width="200%" height="200%" filterUnits="objectBoundingBox" id="filter-12">
            <feOffset dx="0" dy="3" in="SourceAlpha" result="shadowOffsetInner1"></feOffset>
            <feComposite in="shadowOffsetInner1" in2="SourceAlpha" operator="arithmetic" k2="-1" k3="1" result="shadowInnerInner1"></feComposite>
            <feColorMatrix values="0 0 0 0 0.3   0 0 0 0 0.1   0 0 0 0 0.1  0 0 0 1 0" type="matrix" in="shadowInnerInner1"></feColorMatrix>
        </filter>
        <path d="M41.7,578.5 C40.8,577.7 40.0,576.8 39.2,575.9 C37.8,576.5 36.5,577.0 35.3,577.4 C37.6,577.6 39.8,577.9 41.7,578.5" id="path-13"></path>
        <filter x="-50%" y="-50%" width="200%" height="200%" filterUnits="objectBoundingBox" id="filter-14">
            <feOffset dx="0" dy="3" in="SourceAlpha" result="shadowOffsetInner1"></feOffset>
            <feComposite in="shadowOffsetInner1" in2="SourceAlpha" operator="arithmetic" k2="-1" k3="1" result="shadowInnerInner1"></feComposite>
            <feColorMatrix values="0 0 0 0 0.3   0 0 0 0 0.1   0 0 0 0 0.1  0 0 0 1 0" type="matrix" in="shadowInnerInner1"></feColorMatrix>
        </filter>
        <path d="M0,459.4 L0.1,460.9 C0.3,460.9 0.5,460.9 0.8,461.0 C0.5,460.5 0.2,459.9 0,459.4" id="path-15"></path>
        <filter x="-50%" y="-50%" width="200%" height="200%" filterUnits="objectBoundingBox" id="filter-16">
            <feOffset dx="0" dy="3" in="SourceAlpha" result="shadowOffsetInner1"></feOffset>
            <feComposite in="shadowOffsetInner1" in2="SourceAlpha" operator="arithmetic" k2="-1" k3="1" result="shadowInnerInner1"></feComposite>
            <feColorMatrix values="0 0 0 0 0.3   0 0 0 0 0.1   0 0 0 0 0.1  0 0 0 1 0" type="matrix" in="shadowInnerInner1"></feColorMatrix>
        </filter>
        <path d="M11.8,317.5 C12.4,317.1 13.0,316.6 13.6,316.2 C13.1,315.9 12.6,315.6 12.0,315.3 L11.8,317.5 Z" id="path-17"></path>
        <filter x="-50%" y="-50%" width="200%" height="200%" filterUnits="objectBoundingBox" id="filter-18">
            <feOffset dx="0" dy="3" in="SourceAlpha" result="shadowOffsetInner1"></feOffset>
            <feComposite in="shadowOffsetInner1" in2="SourceAlpha" operator="arithmetic" k2="-1" k3="1" result="shadowInnerInner1"></feComposite>
            <feColorMatrix values="0 0 0 0 0.3   0 0 0 0 0.1   0 0 0 0 0.1  0 0 0 1 0" type="matrix" in="shadowInnerInner1"></feColorMatrix>
        </filter>
        <path d="M74.2,602.1 C77.7,603.8 78.4,606.2 77.0,609.8 C75.6,613.4 73.6,611.5 71.7,610.6 C69.9,609.7 69.1,607.8 68.9,605.4 C68.8,603.0 72.0,601.0 74.2,602.1 M73.1,580.9 C76.4,576.8 77.1,575.9 82.9,576.0 C88.8,576.1 93.3,581.7 90.5,588.6 C87.7,595.5 83.9,594.4 76.8,594.1 C69.7,593.7 68.3,587.1 73.1,580.9 M83.9,564.3 C84.6,561.9 86.0,561.3 88.3,561.7 C90.6,562.2 89.6,563.7 89.3,564.9 C88.9,566.1 87.8,566.8 86.4,567.1 C85.0,567.4 83.5,565.7 83.9,564.3 M102.0,607.9 C104.0,605.9 104.7,607.8 105.7,609.0 C106.7,610.1 106.7,611.6 106.1,613.2 C105.4,614.8 102.8,615.2 101.6,613.9 C99.7,611.7 100.0,609.9 102.0,607.9 M111.4,429.1 C110.2,432.6 108.2,430.8 106.3,430.0 C104.5,429.2 103.6,427.4 103.4,425.1 C103.2,422.8 106.2,420.8 108.3,421.7 C111.9,423.3 112.6,425.5 111.4,429.1 M126.2,628.1 C127.5,626.3 128.9,626.1 130.9,627.3 C132.8,628.4 131.4,629.4 130.7,630.3 C130.1,631.3 128.9,631.6 127.6,631.4 C126.2,631.2 125.4,629.2 126.2,628.1 M157.3,77.6 C155.1,78.1 155.4,76.5 155.3,75.3 C155.1,74.1 155.8,73.1 156.9,72.3 C158.1,71.5 160.1,72.4 160.2,73.8 C160.5,76.1 159.5,77.2 157.3,77.6 M156.5,120.1 C155.3,120.0 154.4,119.1 153.8,117.8 C153.2,116.5 154.6,114.7 156.0,114.8 C158.5,115.0 159.3,116.2 159.3,118.6 C159.3,120.9 157.8,120.2 156.5,120.1 M157.4,152.3 C157.3,157.4 153.9,156.7 150.3,158.0 C146.6,159.3 143.9,156.5 141.7,151.1 C139.4,145.8 145.4,142.7 149.1,141.8 C149.1,141.8 151.9,142.3 154.9,143.7 C157.9,145.1 157.6,147.1 157.4,152.3 M198.4,68.5 C198.5,68.0 198.8,67.5 199.2,67.1 C200.4,65.7 202.2,64.5 204.6,63.3 C209.8,60.6 213.3,66.4 214.5,70.0 C214.5,70.0 214.1,72.9 213.0,75.9 C211.8,79.0 209.7,78.9 204.6,79.1 C199.5,79.3 200.0,75.9 198.4,72.3 C197.8,71.0 197.8,69.7 198.4,68.5 M247.7,71.5 C248.5,70.5 250.5,70.9 250.9,72.0 C251.7,74.0 251.1,75.2 249.2,76.1 C247.4,77.0 247.3,75.5 246.9,74.5 C246.5,73.4 246.9,72.4 247.7,71.5 M270.4,721.1 C272.6,720.3 274.8,721.1 276.7,722.9 C278.7,724.7 277.8,728.7 275.3,729.6 C271.1,731.1 268.6,729.8 266.9,725.8 C265.1,721.9 268.3,721.8 270.4,721.1 M494.1,98.3 C496.7,93.1 503.0,95.6 506.1,97.8 C506.1,97.8 507.5,100.3 508.4,103.4 C509.4,106.6 507.6,107.7 503.7,111.0 C499.7,114.2 498.0,111.2 494.6,109.3 C491.2,107.4 491.5,103.6 494.1,98.3 M572.0,674.7 C573.0,674.3 574.0,674.6 575.0,675.4 C576.0,676.3 575.6,678.2 574.4,678.6 C572.4,679.4 571.3,678.8 570.4,677.0 C569.5,675.1 571.0,675.1 572.0,674.7 M679.0,396.5 C679.9,394.2 682.1,393.1 684.8,392.7 C687.6,392.4 690.2,395.9 689.2,398.5 C687.5,402.9 684.7,403.9 680.4,402.6 C676.0,401.3 678.2,398.7 679.0,396.5 M761.5,129.9 C765.5,129.7 764.4,132.5 764.3,134.6 C764.2,136.8 762.7,138.3 760.5,139.4 C758.2,140.5 755.0,138.2 755.2,135.7 C755.4,131.6 757.5,130.0 761.5,129.9 M294.7,90.4 C298.8,90.3 297.7,93.0 297.6,95.2 C297.5,97.3 296.0,98.9 293.7,99.9 C291.5,101.0 288.3,98.8 288.5,96.3 C288.7,92.1 290.7,90.5 294.7,90.4 M792.1,58.5 C792.9,57.9 793.6,57.2 794.2,56.4 C796.5,56.7 798.8,56.8 801.2,56.6 C798.9,62.6 797.6,68.6 798.2,74.4 C790.4,74.3 782.0,77.6 779.6,79.8 C775.7,83.5 769.4,97.9 776.1,103.4 C782.7,109.0 786.5,122.1 799.4,120.1 C800.1,120.0 800.8,119.9 801.4,119.7 C801.5,120.0 801.5,120.3 801.6,120.5 C797.7,124.9 795.0,128.5 799.8,135.9 C802.0,139.2 803.6,141.8 805.2,143.9 C803.9,144.9 802.7,146.1 801.8,147.5 C797.0,155.0 794.2,161.5 794.6,167.0 C789.2,165.2 784.5,165.1 780.6,167.0 C780.1,166.2 779.5,165.5 779.1,165.2 C778.5,164.8 777.1,164.4 775.7,164.3 C776.0,164.1 776.2,163.9 776.5,163.6 C778.3,161.8 781.3,160.2 777.7,157.2 C774.1,154.3 771.1,154.1 767.7,157.6 C765.6,159.7 766.7,164.1 769.5,164.8 C770.3,165.1 771.0,165.2 771.7,165.2 C771.5,165.4 771.3,165.7 771.2,165.9 C769.9,168.5 765.9,170.8 767.6,174.8 C768.1,176.1 769.0,177.1 770.3,177.8 C767.1,181.4 764.4,184.5 764.1,188.5 C763.0,188.6 761.8,189.1 760.6,189.9 C754.6,193.8 750.9,195.2 752.7,202.4 C754.6,209.5 761.5,211.4 766.3,208.1 C769.0,206.1 770.2,204.9 770.7,203.3 C772.1,205.3 773.3,207.1 774.4,208.6 C772.7,210.0 771.2,211.5 770.1,213.3 C757.3,233.0 755.7,247.7 776.4,256.3 C770.4,258.3 763.4,262.4 761.9,268.0 C757.0,269.3 752.0,272.7 746.4,278.9 C729.0,298.0 737.1,321.8 756.1,329.1 C756.4,329.2 756.7,329.3 757.1,329.5 C756.9,330.1 756.8,330.8 756.6,331.5 C753.3,330.4 749.4,330.2 744.9,331.6 C731.9,335.6 722.9,340.6 719.4,347.5 C712.3,345.7 706.4,347.2 701.8,352.8 C693.6,363.0 682.8,366.8 691.2,381.7 C694.0,386.6 696.2,390.6 698.2,393.7 C696.2,395.1 694.4,396.7 693.1,398.6 C685.1,409.2 680.4,418.7 680.7,426.8 C680.0,426.6 679.2,426.6 678.5,426.7 C676.0,427.1 672.7,426.6 673.8,431.1 C674.9,435.5 677.2,437.4 682.0,436.7 C682.5,436.6 683.0,436.3 683.5,436.0 C686.0,440.1 690.4,443.7 696.9,446.9 C691.9,449.2 687.8,451.7 685.3,455.0 C674.0,451.7 665.8,453.0 661.8,461.3 C656.9,471.5 648.6,476.9 658.7,487.7 C662.1,491.3 664.7,494.2 667.0,496.4 C665.6,498.0 664.5,499.7 663.7,501.5 C663.1,502.8 662.6,504.2 662.1,505.4 C661.8,505.5 661.5,505.6 661.2,505.6 C654.3,507.6 650.4,507.9 650.0,515.3 C649.7,521.5 653.9,525.1 658.5,525.2 C659.2,530.9 662.4,535.5 668.5,538.5 C666.4,542.4 666.1,545.4 668.8,547.4 C669.2,547.6 669.5,547.9 669.8,548.2 C667.6,551.5 667.0,555.2 669.1,559.7 C667.7,560.6 667.5,563.1 668.8,564.1 C670.1,565.0 671.4,565.4 672.6,565.1 C673.3,565.9 674.1,566.8 675.0,567.7 C678.8,571.6 682.3,575.0 685.4,578.0 C682.3,578.5 679.3,579.3 676.6,580.6 C674.1,573.6 668.6,567.1 665.9,565.7 C661.3,563.4 646.4,562.4 643.5,570.1 C640.7,577.8 630.2,585.4 636.0,596.3 C636.3,596.9 636.7,597.4 637.1,597.9 C636.3,598.4 635.6,599.0 634.8,599.6 C619.1,612.4 609.1,617.4 616.4,637.2 C618.1,641.8 620.5,645.5 623.3,648.4 C621.6,648.7 619.9,649.3 618.2,650.2 C604.8,657.6 596.4,662.8 596.8,676.9 C596.8,677.5 596.8,678.0 596.8,678.5 C587.9,674.8 578.7,677.0 568.5,687.3 C567.1,673.2 562.6,663.6 541.8,668.2 C507.6,675.8 492.4,679.7 491.1,699.4 C491.1,699.4 491.1,699.5 491.0,699.6 C487.6,699.8 485.8,701.5 484.9,710.3 C484.7,712.4 484.8,714.5 485.1,716.6 C484.5,715.7 483.8,714.9 482.3,716.2 C480.4,717.9 480.0,719.5 481.6,721.6 C482.5,722.9 485.0,722.7 485.7,721.2 C485.8,721.0 485.9,720.7 486.0,720.5 C486.6,722.4 487.3,724.4 488.3,726.3 C481.3,726.5 474.7,727.7 469.1,730.6 C468.0,728.0 466.5,725.4 464.9,723.1 C465.8,723.5 466.9,723.9 468.3,724.4 C475.8,726.9 481.5,723.4 479.5,716.6 C477.5,709.7 477.2,705.8 469.8,705.5 C462.4,705.1 458.6,711.2 460.4,716.8 C460.6,717.3 460.8,717.8 461.0,718.3 C459.0,716.2 457.2,714.8 456.0,714.2 C450.6,711.8 433.5,711.4 430.6,720.4 C429.8,723.1 428.2,725.8 426.5,728.6 C425.4,729.2 424.5,730.5 423.8,733.1 C419.1,730.1 412.8,728.4 404.5,728.2 C414.5,716.8 418.7,706.1 399.9,693.3 C368.7,672.2 354.5,663.2 338.1,676.7 C321.7,690.1 308.1,699.5 315.3,715.8 C317.4,720.6 320.0,725.1 322.6,729.2 C322.7,730.9 323.3,732.3 324.7,733.1 C324.9,733.2 325.2,733.4 325.5,733.5 C330.6,740.9 335.1,745.7 335.1,745.7 C335.5,746.1 336.0,746.4 336.5,746.8 C334.7,746.9 332.9,747.0 331.2,747.1 C330.9,746.7 330.5,746.4 330.1,746.1 C327.6,744.0 323.6,746.3 321.5,748.3 C320.2,748.5 318.8,748.8 317.6,749.2 C317.6,749.2 317.6,749.2 317.6,749.2 C316.4,741.9 312.3,735.8 306.9,731.8 C308.0,732.2 309.2,732.1 310.7,731.6 C313.0,731.0 314.0,727.4 312.3,725.7 C310.6,724.1 308.8,723.2 306.8,723.8 C304.8,724.4 302.0,724.4 303.4,727.9 C303.9,729.0 304.4,729.9 305.0,730.5 C301.1,728.2 296.7,727.0 292.3,727.2 C293.0,725.0 291.3,722.1 289.0,722.0 C286.4,721.9 284.3,722.6 283.1,724.5 C282.0,726.4 279.8,728.3 283.2,730.1 C282.5,730.6 281.8,731.1 281.1,731.7 C278.8,733.7 276.7,735.6 274.8,737.4 C272.4,737.1 270.2,737.1 268.3,737.4 C266.1,736.9 263.7,736.7 261.1,736.8 C261.7,735.6 262.1,734.0 262.2,731.9 C262.6,724.1 262.3,719.2 256.7,717.9 C255.4,717.6 254.1,717.4 252.9,717.3 C250.6,712.9 245.5,709.1 236.4,706.1 C235.8,705.9 235.3,705.7 234.8,705.6 C233.9,703.7 232.6,702.2 231.9,701.8 C230.5,701.0 226.2,700.4 224.5,702.2 C212.5,698.4 203.1,695.8 195.4,695.4 C194.7,691.8 194.0,688.4 193.3,685.3 C193.9,685.9 194.8,686.2 196.5,685.5 C200.1,683.9 201.5,681.7 200.2,677.8 C199.4,675.4 195.7,674.5 194.0,676.3 C193.0,677.4 192.3,678.5 192.0,679.7 C187.1,659.9 181.1,650.4 165.5,648.9 C151.1,647.4 139.0,645.6 130.7,649.9 C127.4,646.8 124.9,645.3 119.7,648.0 C113.9,651.1 113.1,657.0 116.0,661.0 C115.0,661.1 114.3,661.4 113.7,662.1 C113.0,663.0 111.7,664.0 113.6,665.2 C115.5,666.3 116.9,666.2 118.3,664.4 C118.5,664.2 118.5,663.9 118.6,663.6 C119.2,664.1 119.8,664.5 120.4,664.8 C119.1,668.8 118.1,672.8 117.3,676.5 C114.2,672.5 109.9,669.6 105.1,668.3 C104.9,665.3 104.3,662.4 103.2,659.7 C112.7,648.8 115.8,639.6 108.7,632.3 C101.2,624.7 99.1,615.5 86.2,620.9 C81.9,622.8 78.4,624.1 75.7,625.5 C74.8,623.7 73.6,622.1 72.2,620.8 C67.0,615.9 62.1,612.3 57.5,610.1 C57.6,608.7 57.6,607.4 57.6,606.1 C59.6,605.5 61.6,604.7 62.3,602.1 C63.1,598.8 60.8,594.9 56.1,593.7 C54.7,588.5 52.2,584.5 48.3,581.7 C49.5,581.7 50.8,581.5 52.1,581.0 C56.7,579.0 59.8,571.2 58.6,565.9 C62.7,563.6 66.2,561.3 68.9,559.0 C71.1,562.0 74.8,565.1 78.7,562.2 C83.4,558.6 85.4,555.3 83.2,552.1 C81.2,549.1 80.9,546.0 76.9,546.4 C77.2,544.1 77.1,541.6 76.6,538.8 C75.2,530.7 74.2,523.4 71.8,517.9 C77.0,520.6 83.3,519.5 92.1,512.0 C116.6,490.8 127.2,481.0 119.7,464.4 C112.2,447.8 107.4,434.4 92.2,436.8 C91.3,436.9 90.4,437.1 89.5,437.3 C89.7,432.5 89.9,428.5 89.8,425.1 C92.6,425.0 95.3,424.4 97.8,423.5 C125.8,412.5 138.4,398.5 123.3,374.1 C138.3,376.1 149.5,373.9 149.9,351.1 C149.9,347.7 150.0,344.4 150.0,341.3 C150.2,340.7 150.2,340.0 150.0,339.4 C150.0,335.8 150.0,332.5 149.9,329.3 C153.0,326.5 155.7,322.3 158.1,316.2 C167.1,293.5 152.2,275.1 133.0,275.0 C117.8,274.8 113.3,276.6 106.8,284.1 C105.4,283.9 104.0,283.8 102.6,283.7 C103.3,279.4 103.5,275.1 103.0,271.1 C104.2,270.3 105.4,269.3 106.5,268.2 C106.8,268.2 107.1,268.2 107.3,268.0 C111.5,269.2 114.3,269.9 117.2,267.1 C124.2,273.0 133.0,276.0 142.0,269.1 C157.2,257.4 163.8,246.5 156.5,236.0 C149.2,225.5 148.7,214.2 132.3,218.1 C126.9,219.3 122.5,220.3 119.0,221.3 C118.9,221.0 118.8,220.6 118.6,220.2 C136.0,207.4 146.4,201.5 139.2,179.2 C135.4,167.5 127.5,160.5 118.7,158.1 C122.7,158.2 126.1,155.6 127.2,151.7 C127.8,149.4 128.1,147.9 127.9,146.7 C128.8,146.0 129.5,145.3 130.2,144.4 C131.9,144.1 133.2,143.4 134.1,142.0 C135.3,140.0 137.5,138.0 134.6,136.1 C135.4,133.7 136.3,131.3 137.1,128.9 C140.1,130.6 143.5,131.3 146.0,130.3 C153.4,127.3 156.6,123.5 152.2,116.9 C148.1,110.8 145.1,107.2 140.4,108.6 C139.7,104.7 137.5,101.3 133.3,98.5 C120.9,90.0 105.9,85.9 105.9,85.9 C105.4,85.8 104.9,85.8 104.4,85.7 C109.4,82.3 113.7,79.0 116.8,75.6 C116.8,75.6 116.8,75.6 116.9,75.6 C126.7,87.1 146.4,85.7 150.7,71.9 C152.7,65.1 154.3,59.5 154.3,54.4 C156.3,55.4 158.6,55.8 161.0,55.6 C171.7,54.9 179.1,54.1 184.0,47.4 C186.8,50.9 190.7,53.3 196.0,55.0 C207.4,58.7 217.1,62.2 225.1,61.9 C225.0,63.4 225.2,64.9 225.8,66.1 C229.3,73.2 233.3,76.2 239.5,71.3 C245.7,66.5 249.3,63.1 246.6,58.0 C245.2,55.3 243.5,52.8 241.4,51.2 C250.1,37.0 254.3,21.0 254.3,21.0 C254.3,20.4 254.4,19.8 254.4,19.2 C258.5,25.0 262.4,29.8 266.4,33.5 C266.4,33.5 266.4,33.5 266.4,33.5 C253.3,45.1 255.3,67.9 271.4,72.6 C281.6,75.5 289.5,77.5 296.7,75.8 C298.6,81.4 300.6,86.0 302.9,89.5 C303.7,101.5 307.2,109.1 323.1,114.4 C345.9,122.0 363.1,106.3 362.2,87.4 C361.9,81.8 361.4,77.7 360.6,74.4 C362.7,73.1 364.1,71.6 364.3,68.6 C366.9,68.7 369.7,67.3 371.4,64.2 C371.7,64.4 372.0,64.6 372.3,64.8 C371.4,66.4 370.7,68.1 370.2,69.9 C365.4,75.7 362.3,82.8 364.9,90.0 C364.3,93.2 364.9,95.7 368.8,98.5 C370.0,99.3 371.2,99.9 372.4,100.2 C383.1,111.3 392.9,115.2 401.8,108.3 C411.7,100.6 422.7,99.4 418.1,83.5 C417.7,82.2 417.3,81.0 417.0,79.8 C418.7,77.0 420.6,75.1 422.2,73.6 C422.9,80.3 425.9,84.7 432.0,86.4 C442.2,89.1 448.6,95.9 456.9,84.8 C459.6,81.1 461.8,78.2 463.5,75.7 C465.2,76.7 467.0,77.5 468.8,77.9 C469.8,78.2 470.7,78.4 471.7,78.6 C471.7,79.0 471.7,79.5 471.7,80.0 C472.3,87.4 478.9,90.4 484.2,87.9 C489.4,85.3 489.6,84.2 490.7,79.0 C490.7,79.0 490.7,79.0 490.7,79.0 C496.5,77.4 500.5,73.5 502.3,66.6 C504.0,69.6 505.5,72.3 507.6,74.1 C506.8,79.2 508.8,85.9 512.7,87.9 C519.8,91.5 524.8,91.4 526.8,83.8 C528.1,79.2 528.9,75.7 528.1,73.0 C528.7,72.8 529.2,72.7 529.7,72.5 C530.4,74.4 531.3,76.0 532.4,77.5 C536.0,82.0 539.5,85.7 542.9,88.4 C548.5,86.8 554.6,82.4 557.2,79.4 C560.4,75.6 566.8,73.0 570.5,73.0 C574.3,73.0 578.5,77.8 585.5,71.4 C592.4,65.0 597.7,55.4 601.5,55.4 C605.2,55.4 606.3,53.3 613.7,50.6 C621.2,47.9 634.0,33.5 641.4,37.8 C648.4,41.8 654.9,50.0 658.4,51.0 C658.4,51.0 658.4,50.9 658.5,50.9 C658.5,50.9 658.5,51.0 658.5,51.1 C658.7,51.1 658.9,51.1 659.0,51.1 C662.2,51.1 683.0,53.8 683.0,45.8 C683.0,37.8 684.1,21.3 684.1,21.3 C684.1,21.3 691.6,12.7 716.1,9.0 C740.6,5.3 756.6,-5.8 772.6,6.3 C788.6,18.6 796.1,39.4 792.9,55.4 C792.7,56.4 792.4,57.5 792.1,58.5 Z" id="path-19"></path>
        <filter x="-50%" y="-50%" width="200%" height="200%" filterUnits="objectBoundingBox" id="filter-20">
            <feOffset dx="0" dy="3" in="SourceAlpha" result="shadowOffsetInner1"></feOffset>
            <feComposite in="shadowOffsetInner1" in2="SourceAlpha" operator="arithmetic" k2="-1" k3="1" result="shadowInnerInner1"></feComposite>
            <feColorMatrix values="0 0 0 0 0.3   0 0 0 0 0.1   0 0 0 0 0.1  0 0 0 1 0" type="matrix" in="shadowInnerInner1"></feColorMatrix>
        </filter>
        <path d="M620.5,701.2 C620.3,701.2 620.1,701.2 619.8,701.3 C620.0,701.6 620.2,701.9 620.3,702.1 C620.4,701.8 620.5,701.5 620.5,701.2" id="path-21"></path>
        <filter x="-50%" y="-50%" width="200%" height="200%" filterUnits="objectBoundingBox" id="filter-22">
            <feOffset dx="0" dy="3" in="SourceAlpha" result="shadowOffsetInner1"></feOffset>
            <feComposite in="shadowOffsetInner1" in2="SourceAlpha" operator="arithmetic" k2="-1" k3="1" result="shadowInnerInner1"></feComposite>
            <feColorMatrix values="0 0 0 0 0.3   0 0 0 0 0.1   0 0 0 0 0.1  0 0 0 1 0" type="matrix" in="shadowInnerInner1"></feColorMatrix>
        </filter>
        <path d="M815.7,95.4 C815.7,95.7 815.7,96.0 815.8,96.3 C816.3,96.1 817.0,96.0 817.6,95.9 C816.9,95.8 816.3,95.6 815.7,95.4" id="path-23"></path>
        <filter x="-50%" y="-50%" width="200%" height="200%" filterUnits="objectBoundingBox" id="filter-24">
            <feOffset dx="0" dy="3" in="SourceAlpha" result="shadowOffsetInner1"></feOffset>
            <feComposite in="shadowOffsetInner1" in2="SourceAlpha" operator="arithmetic" k2="-1" k3="1" result="shadowInnerInner1"></feComposite>
            <feColorMatrix values="0 0 0 0 0.3   0 0 0 0 0.1   0 0 0 0 0.1  0 0 0 1 0" type="matrix" in="shadowInnerInner1"></feColorMatrix>
        </filter>
        <path d="M654.8,655.5 C654.4,654.2 653.9,652.9 653.5,651.6 C649.7,654.0 645.4,655.4 641.1,655.5 C644.8,659.9 647.2,665.9 646.8,672.3 C646.8,672.3 646.8,672.3 646.8,672.3 C648.7,672.2 650.7,672.3 652.8,672.4 C652.6,668.4 653.0,663.6 654.0,658.4 C654.2,657.3 654.5,656.4 654.8,655.5" id="path-25"></path>
        <filter x="-50%" y="-50%" width="200%" height="200%" filterUnits="objectBoundingBox" id="filter-26">
            <feOffset dx="0" dy="3" in="SourceAlpha" result="shadowOffsetInner1"></feOffset>
            <feComposite in="shadowOffsetInner1" in2="SourceAlpha" operator="arithmetic" k2="-1" k3="1" result="shadowInnerInner1"></feComposite>
            <feColorMatrix values="0 0 0 0 0.3   0 0 0 0 0.1   0 0 0 0 0.1  0 0 0 1 0" type="matrix" in="shadowInnerInner1"></feColorMatrix>
        </filter>
        <path d="M95.1,162.3 C94.2,162.2 93.2,162.1 92.3,161.8 C91.7,162.4 91.1,163.0 90.5,163.5 C90.7,164.2 90.9,164.9 91.0,165.5 C91.8,164.9 92.5,164.3 93.4,163.6 C93.9,163.1 94.5,162.7 95.1,162.3" id="path-27"></path>
        <filter x="-50%" y="-50%" width="200%" height="200%" filterUnits="objectBoundingBox" id="filter-28">
            <feOffset dx="0" dy="3" in="SourceAlpha" result="shadowOffsetInner1"></feOffset>
            <feComposite in="shadowOffsetInner1" in2="SourceAlpha" operator="arithmetic" k2="-1" k3="1" result="shadowInnerInner1"></feComposite>
            <feColorMatrix values="0 0 0 0 0.3   0 0 0 0 0.1   0 0 0 0 0.1  0 0 0 1 0" type="matrix" in="shadowInnerInner1"></feColorMatrix>
        </filter>
        <path d="M524.3,757.9 C524.5,758.0 524.6,758.1 524.8,758.2 C524.9,758.0 525.1,757.7 525.2,757.5 C525.2,757.5 528.5,754.1 533.8,749.9 C535.0,748.4 536.2,746.8 537.6,745.3 C537.1,745.4 536.5,745.4 536.0,745.5 C536.0,745.5 530.0,745.5 521.8,744.3 C523.0,748.2 523.7,752.8 524.3,757.9" id="path-29"></path>
        <filter x="-50%" y="-50%" width="200%" height="200%" filterUnits="objectBoundingBox" id="filter-30">
            <feOffset dx="0" dy="3" in="SourceAlpha" result="shadowOffsetInner1"></feOffset>
            <feComposite in="shadowOffsetInner1" in2="SourceAlpha" operator="arithmetic" k2="-1" k3="1" result="shadowInnerInner1"></feComposite>
            <feColorMatrix values="0 0 0 0 0.3   0 0 0 0 0.1   0 0 0 0 0.1  0 0 0 1 0" type="matrix" in="shadowInnerInner1"></feColorMatrix>
        </filter>
        <path d="M663.0,604.0 C663.2,604.0 663.3,604.0 663.4,603.9 C663.4,603.6 663.4,603.3 663.4,602.9 C663.1,603.1 662.9,603.2 662.6,603.3 C662.8,603.5 662.9,603.8 663.0,604.0" id="path-31"></path>
        <filter x="-50%" y="-50%" width="200%" height="200%" filterUnits="objectBoundingBox" id="filter-32">
            <feOffset dx="0" dy="3" in="SourceAlpha" result="shadowOffsetInner1"></feOffset>
            <feComposite in="shadowOffsetInner1" in2="SourceAlpha" operator="arithmetic" k2="-1" k3="1" result="shadowInnerInner1"></feComposite>
            <feColorMatrix values="0 0 0 0 0.3   0 0 0 0 0.1   0 0 0 0 0.1  0 0 0 1 0" type="matrix" in="shadowInnerInner1"></feColorMatrix>
        </filter>
        <path d="M115.7,157.4 C114.8,157.0 114.0,156.6 113.1,155.9 C111.4,154.7 110.4,153.5 109.8,152.3 C108.4,152.4 106.9,152.5 105.3,152.5 C104.8,155.0 104.1,156.9 103.2,158.3 C107.3,157.0 111.5,156.7 115.7,157.4" id="path-33"></path>
        <filter x="-50%" y="-50%" width="200%" height="200%" filterUnits="objectBoundingBox" id="filter-34">
            <feOffset dx="0" dy="3" in="SourceAlpha" result="shadowOffsetInner1"></feOffset>
            <feComposite in="shadowOffsetInner1" in2="SourceAlpha" operator="arithmetic" k2="-1" k3="1" result="shadowInnerInner1"></feComposite>
            <feColorMatrix values="0 0 0 0 0.3   0 0 0 0 0.1   0 0 0 0 0.1  0 0 0 1 0" type="matrix" in="shadowInnerInner1"></feColorMatrix>
        </filter>
        <path d="M145.0,36.8 C145.2,34.2 145.9,31.5 147.2,29.0 C147.2,29.0 147.2,29.0 147.2,29.0 C143.4,27.5 139.4,25.0 135.0,22.0 C135.1,22.4 135.2,22.8 135.3,23.3 C135.3,23.3 135.4,24.3 135.5,26.2 C140.8,25.8 140.5,30.8 145.0,36.8" id="path-35"></path>
        <filter x="-50%" y="-50%" width="200%" height="200%" filterUnits="objectBoundingBox" id="filter-36">
            <feOffset dx="0" dy="3" in="SourceAlpha" result="shadowOffsetInner1"></feOffset>
            <feComposite in="shadowOffsetInner1" in2="SourceAlpha" operator="arithmetic" k2="-1" k3="1" result="shadowInnerInner1"></feComposite>
            <feColorMatrix values="0 0 0 0 0.3   0 0 0 0 0.1   0 0 0 0 0.1  0 0 0 1 0" type="matrix" in="shadowInnerInner1"></feColorMatrix>
        </filter>
        <path d="M741.4,386.5 C740.9,387.5 740.4,388.3 739.8,389.2 C743.9,390.5 747.7,392.2 750.8,394.5 C750.2,392.3 750.0,389.9 750.1,387.4 C747.6,387.3 744.7,387.0 741.4,386.5" id="path-37"></path>
        <filter x="-50%" y="-50%" width="200%" height="200%" filterUnits="objectBoundingBox" id="filter-38">
            <feOffset dx="0" dy="3" in="SourceAlpha" result="shadowOffsetInner1"></feOffset>
            <feComposite in="shadowOffsetInner1" in2="SourceAlpha" operator="arithmetic" k2="-1" k3="1" result="shadowInnerInner1"></feComposite>
            <feColorMatrix values="0 0 0 0 0.3   0 0 0 0 0.1   0 0 0 0 0.1  0 0 0 1 0" type="matrix" in="shadowInnerInner1"></feColorMatrix>
        </filter>
    </defs>
    <g id="Page-1-Copy" stroke="none" stroke-width="1" fill="none" fill-rule="evenodd">
        <g id="back_1">
            <g id="Page-1-Copy-2" transform="translate(488.0, 42.0)">
                <g id="Fill-1">
                    <use fill="#C5512C" fill-rule="evenodd" xlink:href="#path-1"></use>
                    <use fill="black" fill-opacity="1" filter="url(#filter-2)" xlink:href="#path-1"></use>
                </g>
                <g id="Fill-3">
                    <use fill="#C5512C" fill-rule="evenodd" xlink:href="#path-3"></use>
                    <use fill="black" fill-opacity="1" filter="url(#filter-4)" xlink:href="#path-3"></use>
                </g>
                <g id="Fill-5">
                    <use fill="#C5512C" fill-rule="evenodd" xlink:href="#path-5"></use>
                    <use fill="black" fill-opacity="1" filter="url(#filter-6)" xlink:href="#path-5"></use>
                </g>
                <g id="Fill-7">
                    <use fill="#C5512C" fill-rule="evenodd" xlink:href="#path-7"></use>
                    <use fill="black" fill-opacity="1" filter="url(#filter-8)" xlink:href="#path-7"></use>
                </g>
                <g id="Fill-9">
                    <use fill="#C5512C" fill-rule="evenodd" xlink:href="#path-9"></use>
                    <use fill="black" fill-opacity="1" filter="url(#filter-10)" xlink:href="#path-9"></use>
                </g>
                <g id="Fill-11">
                    <use fill="#C5512C" fill-rule="evenodd" xlink:href="#path-11"></use>
                    <use fill="black" fill-opacity="1" filter="url(#filter-12)" xlink:href="#path-11"></use>
                </g>
                <g id="Fill-13">
                    <use fill="#C5512C" fill-rule="evenodd" xlink:href="#path-13"></use>
                    <use fill="black" fill-opacity="1" filter="url(#filter-14)" xlink:href="#path-13"></use>
                </g>
                <g id="Fill-15">
                    <use fill="#C5512C" fill-rule="evenodd" xlink:href="#path-15"></use>
                    <use fill="black" fill-opacity="1" filter="url(#filter-16)" xlink:href="#path-15"></use>
                </g>
                <g id="Fill-17">
                    <use fill="#C5512C" fill-rule="evenodd" xlink:href="#path-17"></use>
                    <use fill="black" fill-opacity="1" filter="url(#filter-18)" xlink:href="#path-17"></use>
                </g>
                <g id="Combined-Shape">
                    <use fill="#C5512C" fill-rule="evenodd" xlink:href="#path-19"></use>
                    <use fill="black" fill-opacity="1" filter="url(#filter-20)" xlink:href="#path-19"></use>
                </g>
                <g id="Fill-21">
                    <use fill="#C5512C" fill-rule="evenodd" xlink:href="#path-21"></use>
                    <use fill="black" fill-opacity="1" filter="url(#filter-22)" xlink:href="#path-21"></use>
                </g>
                <g id="Fill-23">
                    <use fill="#C5512C" fill-rule="evenodd" xlink:href="#path-23"></use>
                    <use fill="black" fill-opacity="1" filter="url(#filter-24)" xlink:href="#path-23"></use>
                </g>
                <g id="Fill-25">
                    <use fill="#C5512C" fill-rule="evenodd" xlink:href="#path-25"></use>
                    <use fill="black" fill-opacity="1" filter="url(#filter-26)" xlink:href="#path-25"></use>
                </g>
                <g id="Fill-27">
                    <use fill="#C5512C" fill-rule="evenodd" xlink:href="#path-27"></use>
                    <use fill="black" fill-opacity="1" filter="url(#filter-28)" xlink:href="#path-27"></use>
                </g>
                <g id="Fill-29">
                    <use fill="#C5512C" fill-rule="evenodd" xlink:href="#path-29"></use>
                    <use fill="black" fill-opacity="1" filter="url(#filter-30)" xlink:href="#path-29"></use>
                </g>
                <g id="Fill-32">
                    <use fill="#C5512C" fill-rule="evenodd" xlink:href="#path-31"></use>
                    <use fill="black" fill-opacity="1" filter="url(#filter-32)" xlink:href="#path-31"></use>
                </g>
                <g id="Fill-34">
                    <use fill="#C5512C" fill-rule="evenodd" xlink:href="#path-33"></use>
                    <use fill="black" fill-opacity="1" filter="url(#filter-34)" xlink:href="#path-33"></use>
                </g>
                <g id="Fill-36">
                    <use fill="#C5512C" fill-rule="evenodd" xlink:href="#path-35"></use>
                    <use fill="black" fill-opacity="1" filter="url(#filter-36)" xlink:href="#path-35"></use>
                </g>
                <g id="Fill-38">
                    <use fill="#C5512C" fill-rule="evenodd" xlink:href="#path-37"></use>
                    <use fill="black" fill-opacity="1" filter="url(#filter-38)" xlink:href="#path-37"></use>
                </g>
            </g>
            <path d="M1319.5,533.8 C1399.7,297.6 1459.6,137.5 1374.5,46.5 C1273.5,-61.4 1032.0,58.5 883,53.5 L883,53.5 C733.9,48.4 606.5,-46.9 544,58.5 C481.5,163.9 574,356.4 440.5,522.5 C307,688.5 351.9,809.9 609.5,861 C867.0,912.0 1174.4,987.5 1273.5,673.5 C1284.2,639.5 1294.9,606.7 1305.5,575.3" id="Path-29" stroke="#000000" opacity="0.2"></path>
            <path d="M1302.2,555.0 L1302.8,555.0 L1302.8,555.8 L1302.2,555.8 L1302.2,556.8 L1301.2,556.8 L1301.2,555.8 L1299.2,555.8 L1299.2,555.2 L1301.2,551.9 L1302.2,551.9 L1302.2,555.0 Z M1300.1,555.0 L1301.2,555.0 L1301.2,553.2 L1301.2,553.2 L1301.1,553.4 L1300.1,555.0 Z M1303.5,554.7 L1303.8,551.9 L1306.5,551.9 L1306.5,552.7 L1304.6,552.7 L1304.4,553.8 C1304.5,553.8 1304.7,553.7 1304.8,553.7 C1304.9,553.6 1305.1,553.6 1305.3,553.6 C1305.7,553.6 1306.1,553.7 1306.3,554.0 C1306.6,554.3 1306.7,554.7 1306.7,555.3 C1306.7,555.7 1306.6,556.1 1306.3,556.5 C1306.0,556.8 1305.6,556.9 1305.0,556.9 C1304.6,556.9 1304.2,556.8 1303.9,556.6 C1303.5,556.3 1303.4,556.0 1303.4,555.6 L1303.4,555.5 L1304.4,555.5 C1304.4,555.7 1304.4,555.9 1304.5,556.0 C1304.7,556.1 1304.8,556.2 1305.0,556.2 C1305.3,556.2 1305.4,556.1 1305.6,555.9 C1305.7,555.8 1305.7,555.5 1305.7,555.3 C1305.7,555.0 1305.7,554.7 1305.5,554.6 C1305.4,554.4 1305.2,554.3 1305.0,554.3 C1304.8,554.3 1304.7,554.4 1304.6,554.4 C1304.5,554.5 1304.4,554.6 1304.4,554.7 L1303.5,554.7 Z M1308.8,556.2 C1309.1,556.2 1309.3,556.1 1309.4,555.9 C1309.6,555.7 1309.7,555.4 1309.7,555.1 L1309.7,554.8 C1309.6,554.9 1309.4,555.0 1309.3,555.1 C1309.1,555.2 1309.0,555.2 1308.8,555.2 C1308.3,555.2 1308.0,555.1 1307.7,554.8 C1307.4,554.5 1307.3,554.1 1307.3,553.5 C1307.3,553.0 1307.5,552.6 1307.8,552.3 C1308.1,552.0 1308.5,551.8 1309.0,551.8 C1309.5,551.8 1309.9,552.0 1310.2,552.3 C1310.5,552.6 1310.7,553.1 1310.7,553.7 L1310.7,555.0 C1310.7,555.6 1310.5,556.1 1310.2,556.4 C1309.8,556.8 1309.4,556.9 1308.8,556.9 C1308.7,556.9 1308.5,556.9 1308.3,556.9 C1308.1,556.8 1307.9,556.8 1307.8,556.7 L1307.9,556.0 C1308.1,556.0 1308.2,556.1 1308.4,556.1 C1308.5,556.1 1308.7,556.2 1308.8,556.2 L1308.8,556.2 Z M1309.0,554.5 C1309.1,554.5 1309.3,554.4 1309.4,554.4 C1309.5,554.3 1309.6,554.2 1309.7,554.1 L1309.7,553.5 C1309.7,553.2 1309.6,553.0 1309.5,552.8 C1309.4,552.7 1309.2,552.6 1309.0,552.6 C1308.8,552.6 1308.6,552.7 1308.5,552.8 C1308.4,553.0 1308.3,553.3 1308.3,553.5 C1308.3,553.8 1308.4,554.0 1308.5,554.2 C1308.6,554.4 1308.7,554.5 1309.0,554.5 L1309.0,554.5 Z M1313.5,555.1 L1311.5,555.1 L1311.5,554.3 L1313.5,554.3 L1313.5,555.1 Z M1317.7,553.2 C1317.7,553.4 1317.6,553.6 1317.5,553.8 C1317.4,554.0 1317.2,554.2 1317.0,554.3 C1317.2,554.4 1317.5,554.5 1317.6,554.7 C1317.8,555.0 1317.9,555.2 1317.9,555.5 C1317.9,555.9 1317.7,556.3 1317.4,556.5 C1317.1,556.8 1316.6,556.9 1316.1,556.9 C1315.6,556.9 1315.2,556.8 1314.9,556.5 C1314.5,556.3 1314.4,555.9 1314.4,555.5 C1314.4,555.2 1314.4,555.0 1314.6,554.7 C1314.8,554.5 1315.0,554.4 1315.3,554.3 C1315.0,554.2 1314.9,554.0 1314.7,553.8 C1314.6,553.6 1314.5,553.4 1314.5,553.2 C1314.5,552.7 1314.7,552.4 1315.0,552.2 C1315.3,551.9 1315.7,551.8 1316.1,551.8 C1316.6,551.8 1317.0,551.9 1317.3,552.2 C1317.5,552.4 1317.7,552.7 1317.7,553.2 L1317.7,553.2 Z M1316.9,555.4 C1316.9,555.2 1316.8,555.0 1316.7,554.9 C1316.5,554.7 1316.3,554.7 1316.1,554.7 C1315.9,554.7 1315.7,554.7 1315.6,554.9 C1315.4,555.0 1315.4,555.2 1315.4,555.4 C1315.4,555.6 1315.4,555.8 1315.6,556.0 C1315.7,556.1 1315.9,556.2 1316.1,556.2 C1316.4,556.2 1316.5,556.1 1316.7,556.0 C1316.8,555.8 1316.9,555.6 1316.9,555.4 L1316.9,555.4 Z M1316.7,553.2 C1316.7,553.0 1316.6,552.9 1316.5,552.7 C1316.4,552.6 1316.3,552.6 1316.1,552.6 C1316.0,552.6 1315.8,552.6 1315.7,552.7 C1315.6,552.9 1315.5,553.0 1315.5,553.2 C1315.5,553.4 1315.6,553.6 1315.7,553.7 C1315.8,553.8 1316.0,553.9 1316.1,553.9 C1316.3,553.9 1316.4,553.8 1316.5,553.7 C1316.6,553.6 1316.7,553.4 1316.7,553.2 L1316.7,553.2 Z M1321.4,555.0 L1321.9,555.0 L1321.9,555.8 L1321.4,555.8 L1321.4,556.8 L1320.4,556.8 L1320.4,555.8 L1318.3,555.8 L1318.3,555.2 L1320.4,551.9 L1321.4,551.9 L1321.4,555.0 Z M1319.2,555.0 L1320.4,555.0 L1320.4,553.2 L1320.3,553.2 L1320.2,553.4 L1319.2,555.0 Z M1324.4,551.8 C1324.6,551.8 1324.8,551.8 1324.9,551.9 C1325.1,551.9 1325.3,551.9 1325.4,552.0 L1325.3,552.7 C1325.1,552.7 1325.0,552.6 1324.8,552.6 C1324.7,552.6 1324.6,552.6 1324.4,552.6 C1324.1,552.6 1323.9,552.7 1323.7,552.9 C1323.5,553.1 1323.4,553.5 1323.4,553.9 L1323.4,554.0 C1323.6,553.9 1323.7,553.8 1323.9,553.7 C1324.1,553.6 1324.3,553.6 1324.5,553.6 C1324.9,553.6 1325.3,553.8 1325.5,554.1 C1325.8,554.4 1325.9,554.8 1325.9,555.2 C1325.9,555.7 1325.7,556.1 1325.4,556.5 C1325.1,556.8 1324.7,556.9 1324.2,556.9 C1323.7,556.9 1323.3,556.7 1322.9,556.4 C1322.6,556.0 1322.4,555.5 1322.4,554.9 L1322.4,553.9 C1322.4,553.3 1322.6,552.7 1323.0,552.4 C1323.4,552.0 1323.8,551.8 1324.4,551.8 L1324.4,551.8 Z M1324.2,554.4 C1324.0,554.4 1323.9,554.4 1323.7,554.4 C1323.6,554.5 1323.5,554.6 1323.4,554.7 L1323.4,555.0 C1323.4,555.3 1323.5,555.6 1323.6,555.8 C1323.8,556.1 1324.0,556.2 1324.2,556.2 C1324.4,556.2 1324.6,556.1 1324.7,555.9 C1324.8,555.7 1324.9,555.5 1324.9,555.2 C1324.9,555.0 1324.8,554.7 1324.7,554.6 C1324.6,554.4 1324.4,554.4 1324.2,554.4 L1324.2,554.4 Z" id="459-846-copy" fill="#000000" opacity="0.4" transform="translate(1312.7, 554.4) rotate(-71.0) translate(-1312.7, -554.4) "></path>
            <path d="M431.5,635.7 C406.0,653.7 427.5,773.7 486.0,757.7 C544.5,741.7 457.0,617.7 431.5,635.7 Z" id="Path-30" stroke="#000000" opacity="0.2"></path>
            <path d="M364,-14 C435,109.5 510,279 395.5,438 C281,597 197.4,714.5 314.5,802 C431.5,889.5 719.4,943.5 861.5,943.5 C1003.5,943.5 1145.9,930 1225.5,853.5 C1305.0,777 1334.9,567 1430,552 C1525.0,537 1440.9,453.5 1441,340 C1441.0,226.5 1527.9,70.5 1394.5,-36" id="Path-31" stroke="#000000" opacity="0.2"></path>
            <path d="M1434.5,640 C1384,640 1315.5,801.5 1302.5,888.5 C1289.5,975.5 1341,1026 1392,1006.5 C1443,987 1485,640 1434.5,640 Z" id="Path-32" stroke="#000000" opacity="0.2"></path>
        </g>
    </g>
</svg>
