<?xml version="1.0" encoding="UTF-8" standalone="no"?>
<svg width="136px" height="218px" viewBox="0 0 136 218" version="1.1" xmlns="http://www.w3.org/2000/svg" xmlns:xlink="http://www.w3.org/1999/xlink">
    <!-- Generator: Sketch 39.1 (31720) - http://www.bohemiancoding.com/sketch -->
    <title>building_5</title>
    <desc>Created with Sketch.</desc>
    <defs>
        <rect id="path-1" x="7.0" y="7.0" width="109" height="109"></rect>
        <filter x="-50%" y="-50%" width="200%" height="200%" filterUnits="objectBoundingBox" id="filter-3">
            <feOffset dx="1" dy="2" in="SourceAlpha" result="shadowOffsetOuter1"></feOffset>
            <feColorMatrix values="0 0 0 0 1   0 0 0 0 1   0 0 0 0 1  0 0 0 1 0" type="matrix" in="shadowOffsetOuter1"></feColorMatrix>
        </filter>
        <rect id="path-4" x="5" y="5" width="76" height="76"></rect>
        <filter x="-50%" y="-50%" width="200%" height="200%" filterUnits="objectBoundingBox" id="filter-6">
            <feOffset dx="1" dy="2" in="SourceAlpha" result="shadowOffsetOuter1"></feOffset>
            <feColorMatrix values="0 0 0 0 1   0 0 0 0 1   0 0 0 0 1  0 0 0 1 0" type="matrix" in="shadowOffsetOuter1"></feColorMatrix>
        </filter>
        <rect id="path-7" x="4" y="4" width="49" height="49"></rect>
        <filter x="-50%" y="-50%" width="200%" height="200%" filterUnits="objectBoundingBox" id="filter-9">
            <feOffset dx="1" dy="2" in="SourceAlpha" result="shadowOffsetOuter1"></feOffset>
            <feColorMatrix values="0 0 0 0 1   0 0 0 0 1   0 0 0 0 1  0 0 0 1 0" type="matrix" in="shadowOffsetOuter1"></feColorMatrix>
        </filter>
        <rect id="path-10" x="2" y="2" width="29" height="29"></rect>
        <filter x="-50%" y="-50%" width="200%" height="200%" filterUnits="objectBoundingBox" id="filter-12">
            <feOffset dx="1" dy="2" in="SourceAlpha" result="shadowOffsetOuter1"></feOffset>
            <feColorMatrix values="0 0 0 0 1   0 0 0 0 1   0 0 0 0 1  0 0 0 1 0" type="matrix" in="shadowOffsetOuter1"></feColorMatrix>
        </filter>
        <rect id="path-13" x="53.9" y="1.0" width="13" height="13"></rect>
        <filter x="-50%" y="-50%" width="200%" height="200%" filterUnits="objectBoundingBox" id="filter-14">
            <feOffset dx="1" dy="2" in="SourceAlpha" result="shadowOffsetOuter1"></feOffset>
            <feColorMatrix values="0 0 0 0 1   0 0 0 0 1   0 0 0 0 1  0 0 0 1 0" type="matrix" in="shadowOffsetOuter1"></feColorMatrix>
        </filter>
    </defs>
    <g id="Page-1-Copy" stroke="none" stroke-width="1" fill="none" fill-rule="evenodd">
        <g id="building_5">
            <g id="Group-22" transform="translate(1.0, 4.0)">
                <polygon id="Rectangle-7" fill="#000000" opacity="0.2" transform="translate(66.8, 145.0) rotate(8.0) translate(-66.8, -145.0) " points="8.0 196.1 16.6 94.4 116.3 86.5 125.6 94.4 125.6 203.4 16.6 203.4"></polygon>
                <g id="Group" transform="translate(1.0, 77.0)">
                    <mask id="mask-2" fill="white">
                        <use xlink:href="#path-1"></use>
                    </mask>
                    <g id="Mask" transform="translate(61.5, 61.5) rotate(8.0) translate(-61.5, -61.5) ">
                        <use fill="black" fill-opacity="1" filter="url(#filter-3)" xlink:href="#path-1"></use>
                        <use fill="#FFBC5A" fill-rule="evenodd" xlink:href="#path-1"></use>
                    </g>
                    <polygon id="Path-26" fill="#583429" opacity="0.1" mask="url(#mask-2)" points="66.5 125 22.5 92.5 25 52 97.5 34 100.5 35.5 132.5 58.5 119.5 134.5"></polygon>
                </g>
                <path d="M26,147.0 C26,148.1 26.6,149.0 27.5,149.0 C28.3,149.0 29,148.1 29,147.0 L29,115 C29,113.8 28.3,113 27.5,113 C26.6,113 26,113.8 26,115 L26,147.0 Z M34,148.0 C34,149.1 34.6,150.0 35.5,150.0 C36.3,150.0 37,149.1 37,148.0 L37,116 C37,114.8 36.3,114 35.5,114 C34.6,114 34,114.8 34,116 L34,148.0 Z M42,149.0 C42,150.1 42.6,151.0 43.5,151.0 C44.3,151.0 45,150.1 45,149.0 L45,117 C45,115.8 44.3,115 43.5,115 C42.6,115 42,115.8 42,117 L42,149.0 Z M50,150.0 C50,151.1 50.6,152.0 51.5,152.0 C52.3,152.0 53,151.1 53,150.0 L53,118 C53,116.8 52.3,116 51.5,116 C50.6,116 50,116.8 50,118 L50,150.0 Z M74,153.0 C74,154.1 74.6,155.0 75.5,155.0 C76.3,155.0 77,154.1 77,153.0 L77,121 C77,119.8 76.3,119 75.5,119 C74.6,119 74,119.8 74,121 L74,153.0 Z M90,156.0 C90,157.1 90.6,158.0 91.5,158.0 C92.3,158.0 93,157.1 93,156.0 L93,124 C93,122.8 92.3,122 91.5,122 C90.6,122 90,122.8 90,124 L90,156.0 Z M58,151.0 C58,152.1 58.6,153.0 59.5,153.0 C60.3,153.0 61,152.1 61,151.0 L61,119 C61,117.8 60.3,117 59.5,117 C58.6,117 58,117.8 58,119 L58,151.0 Z M82,154.0 C82,155.1 82.6,156.0 83.5,156.0 C84.3,156.0 85,155.1 85,154.0 L85,122 C85,120.8 84.3,120 83.5,120 C82.6,120 82,120.8 82,122 L82,154.0 Z M66,152.0 C66,153.1 66.6,154.0 67.5,154.0 C68.3,154.0 69,153.1 69,152.0 L69,120 C69,118.8 68.3,118 67.5,118 C66.6,118 66,118.8 66,120 L66,152.0 Z" id="Combined-Shape" fill="#FFD79C"></path>
                <path d="M24,157.0 C24,158.1 24.6,159.0 25.5,159.0 C26.3,159.0 27,158.1 27,157.0 L27,125 C27,123.8 26.3,123 25.5,123 C24.6,123 24,123.8 24,125 L24,157.0 Z M32,158.0 C32,159.1 32.6,160.0 33.5,160.0 C34.3,160.0 35,159.1 35,158.0 L35,126 C35,124.8 34.3,124 33.5,124 C32.6,124 32,124.8 32,126 L32,158.0 Z M40,159.0 C40,160.1 40.6,161.0 41.5,161.0 C42.3,161.0 43,160.1 43,159.0 L43,127 C43,125.8 42.3,125 41.5,125 C40.6,125 40,125.8 40,127 L40,159.0 Z M48,160.0 C48,161.1 48.6,162.0 49.5,162.0 C50.3,162.0 51,161.1 51,160.0 L51,128 C51,126.8 50.3,126 49.5,126 C48.6,126 48,126.8 48,128 L48,160.0 Z M72,163.0 C72,164.1 72.6,165.0 73.5,165.0 C74.3,165.0 75,164.1 75,163.0 L75,131 C75,129.8 74.3,129 73.5,129 C72.6,129 72,129.8 72,131 L72,163.0 Z M56,161.0 C56,162.1 56.6,163.0 57.5,163.0 C58.3,163.0 59,162.1 59,161.0 L59,129 C59,127.8 58.3,127 57.5,127 C56.6,127 56,127.8 56,129 L56,161.0 Z M80,164.0 C80,165.1 80.6,166.0 81.5,166.0 C82.3,166.0 83,165.1 83,164.0 L83,132 C83,130.8 82.3,130 81.5,130 C80.6,130 80,130.8 80,132 L80,164.0 Z M64,162.0 C64,163.1 64.6,164.0 65.5,164.0 C66.3,164.0 67,163.1 67,162.0 L67,130 C67,128.8 66.3,128 65.5,128 C64.6,128 64,128.8 64,130 L64,162.0 Z M88,166.0 C88,167.1 88.6,168.0 89.5,168.0 C90.3,168.0 91,167.1 91,166.0 L91,134 C91,132.8 90.3,132 89.5,132 C88.6,132 88,132.8 88,134 L88,166.0 Z" id="Combined-Shape" fill="#FFE3BA"></path>
                <g id="Group-3" transform="translate(22.0, 134.0)" fill="#FFFFFF">
                    <path d="M0,34.0 C0,35.1 0.6,36.0 1.5,36.0 C2.3,36.0 3,35.1 3,34.0 L3,2 C3,0.8 2.3,0 1.5,0 C0.6,0 0,0.8 0,2 L0,34.0 Z" id="Line-Copy"></path>
                    <path d="M8,35.0 C8,36.1 8.6,37.0 9.5,37.0 C10.3,37.0 11,36.1 11,35.0 L11,3 C11,1.8 10.3,1 9.5,1 C8.6,1 8,1.8 8,3 L8,35.0 Z" id="Line-Copy-2"></path>
                    <path d="M16,36.0 C16,37.1 16.6,38.0 17.5,38.0 C18.3,38.0 19,37.1 19,36.0 L19,4 C19,2.8 18.3,2 17.5,2 C16.6,2 16,2.8 16,4 L16,36.0 Z" id="Line-Copy-3"></path>
                    <path d="M24,37.0 C24,38.1 24.6,39.0 25.5,39.0 C26.3,39.0 27,38.1 27,37.0 L27,5 C27,3.8 26.3,3 25.5,3 C24.6,3 24,3.8 24,5 L24,37.0 Z" id="Line-Copy-4"></path>
                    <path d="M48,40.0 C48,41.1 48.6,42.0 49.5,42.0 C50.3,42.0 51,41.1 51,40.0 L51,8 C51,6.8 50.3,6 49.5,6 C48.6,6 48,6.8 48,8 L48,40.0 Z" id="Line-Copy-7"></path>
                    <path d="M32,38.0 C32,39.1 32.6,40.0 33.5,40.0 C34.3,40.0 35,39.1 35,38.0 L35,6 C35,4.8 34.3,4 33.5,4 C32.6,4 32,4.8 32,6 L32,38.0 Z" id="Line-Copy-5"></path>
                    <path d="M56,41.0 C56,42.1 56.6,43.0 57.5,43.0 C58.3,43.0 59,42.1 59,41.0 L59,9 C59,7.8 58.3,7 57.5,7 C56.6,7 56,7.8 56,9 L56,41.0 Z" id="Line-Copy-8"></path>
                    <path d="M40,39.0 C40,40.1 40.6,41.0 41.5,41.0 C42.3,41.0 43,40.1 43,39.0 L43,7 C43,5.8 42.3,5 41.5,5 C40.6,5 40,5.8 40,7 L40,39.0 Z" id="Line-Copy-6"></path>
                    <path d="M64,43.0 C64,44.1 64.6,45.0 65.5,45.0 C66.3,45.0 67,44.1 67,43.0 L67,11 C67,9.8 66.3,9 65.5,9 C64.6,9 64,9.8 64,11 L64,43.0 Z" id="Line-Copy-9"></path>
                </g>
                <path d="M93,145.0 C93,146.1 93.6,147.0 94.5,147.0 C95.3,147.0 96,146.1 96,145.0 L96,113 C96,111.8 95.3,111 94.5,111 C93.6,111 93,111.8 93,113 L93,145.0 Z" id="Combined-Shape" fill="#FFD79C"></path>
                <path d="M95,134.0 C95,135.1 95.6,136.0 96.5,136.0 C97.3,136.0 98,135.1 98,134.0 L98,102 C98,100.8 97.3,100 96.5,100 C95.6,100 95,100.8 95,102 L95,134.0 Z" id="Combined-Shape" fill="#FFD79C"></path>
                <path d="M97,124.0 C97,125.1 97.6,126.0 98.5,126.0 C99.3,126.0 100,125.1 100,124.0 L100,92 C100,90.8 99.3,90 98.5,90 C97.6,90 97,90.8 97,92 L97,124.0 Z" id="Combined-Shape" fill="#FFD79C"></path>
                <path d="M99,113.0 C99,114.1 99.6,115.0 100.5,115.0 C101.3,115.0 102,114.1 102,113.0 L102,81 C102,79.8 101.3,79 100.5,79 C99.6,79 99,79.8 99,81 L99,113.0 Z" id="Combined-Shape" fill="#FFD79C"></path>
                <g id="Group-6" transform="translate(18.0, 63.0)">
                    <mask id="mask-5" fill="white">
                        <use xlink:href="#path-4"></use>
                    </mask>
                    <g id="Mask" transform="translate(43.0, 43.0) rotate(8.0) translate(-43.0, -43.0) ">
                        <use fill="black" fill-opacity="1" filter="url(#filter-6)" xlink:href="#path-4"></use>
                        <use fill="#F9CF6B" fill-rule="evenodd" xlink:href="#path-4"></use>
                    </g>
                    <polygon id="Path-26" fill="#583429" opacity="0.1" mask="url(#mask-5)" points="46.2 81.6 19 61.5 20.5 36.5 65.3 31.3 67.2 32.3 87 46.5 78.9 87.5"></polygon>
                </g>
                <g id="Group-4" transform="translate(37.0, 63.0)">
                    <path d="M4,39.0 C4,40.1 4.6,41.0 5.5,41.0 C6.3,41.0 7,40.1 7,39.0 L7,7 C7,5.8 6.3,5 5.5,5 C4.6,5 4,5.8 4,7 L4,39.0 Z M28,42.0 C28,43.1 28.6,44.0 29.5,44.0 C30.3,44.0 31,43.1 31,42.0 L31,10 C31,8.8 30.3,8 29.5,8 C28.6,8 28,8.8 28,10 L28,42.0 Z M44,45.0 C44,46.1 44.6,47.0 45.5,47.0 C46.3,47.0 47,46.1 47,45.0 L47,13 C47,11.8 46.3,11 45.5,11 C44.6,11 44,11.8 44,13 L44,45.0 Z M12,40.0 C12,41.1 12.6,42.0 13.5,42.0 C14.3,42.0 15,41.1 15,40.0 L15,8 C15,6.8 14.3,6 13.5,6 C12.6,6 12,6.8 12,8 L12,40.0 Z M36,43.0 C36,44.1 36.6,45.0 37.5,45.0 C38.3,45.0 39,44.1 39,43.0 L39,11 C39,9.8 38.3,9 37.5,9 C36.6,9 36,9.8 36,11 L36,43.0 Z M20,41.0 C20,42.1 20.6,43.0 21.5,43.0 C22.3,43.0 23,42.1 23,41.0 L23,9 C23,7.8 22.3,7 21.5,7 C20.6,7 20,7.8 20,9 L20,41.0 Z" id="Combined-Shape" fill="#FEECC4"></path>
                    <path d="M2,49.0 C2,50.1 2.6,51.0 3.5,51.0 C4.3,51.0 5,50.1 5,49.0 L5,17 C5,15.8 4.3,15 3.5,15 C2.6,15 2,15.8 2,17 L2,49.0 Z M26,52.0 C26,53.1 26.6,54.0 27.5,54.0 C28.3,54.0 29,53.1 29,52.0 L29,20 C29,18.8 28.3,18 27.5,18 C26.6,18 26,18.8 26,20 L26,52.0 Z M10,50.0 C10,51.1 10.6,52.0 11.5,52.0 C12.3,52.0 13,51.1 13,50.0 L13,18 C13,16.8 12.3,16 11.5,16 C10.6,16 10,16.8 10,18 L10,50.0 Z M34,53.0 C34,54.1 34.6,55.0 35.5,55.0 C36.3,55.0 37,54.1 37,53.0 L37,21 C37,19.8 36.3,19 35.5,19 C34.6,19 34,19.8 34,21 L34,53.0 Z M18,51.0 C18,52.1 18.6,53.0 19.5,53.0 C20.3,53.0 21,52.1 21,51.0 L21,19 C21,17.8 20.3,17 19.5,17 C18.6,17 18,17.8 18,19 L18,51.0 Z M42,55.0 C42,56.1 42.6,57.0 43.5,57.0 C44.3,57.0 45,56.1 45,55.0 L45,23 C45,21.8 44.3,21 43.5,21 C42.6,21 42,21.8 42,23 L42,55.0 Z" id="Combined-Shape" fill="#F9F0DC"></path>
                    <g id="Group-3" transform="translate(0.0, 26.0)" fill="#FFFFFF">
                        <path d="M0,34.0 C0,35.1 0.6,36.0 1.5,36.0 C2.3,36.0 3,35.1 3,34.0 L3,2 C3,0.8 2.3,0 1.5,0 C0.6,0 0,0.8 0,2 L0,34.0 Z" id="Line-Copy-4"></path>
                        <path d="M24,37.0 C24,38.1 24.6,39.0 25.5,39.0 C26.3,39.0 27,38.1 27,37.0 L27,5 C27,3.8 26.3,3 25.5,3 C24.6,3 24,3.8 24,5 L24,37.0 Z" id="Line-Copy-7"></path>
                        <path d="M8,35.0 C8,36.1 8.6,37.0 9.5,37.0 C10.3,37.0 11,36.1 11,35.0 L11,3 C11,1.8 10.3,1 9.5,1 C8.6,1 8,1.8 8,3 L8,35.0 Z" id="Line-Copy-5"></path>
                        <path d="M32,38.0 C32,39.1 32.6,40.0 33.5,40.0 C34.3,40.0 35,39.1 35,38.0 L35,6 C35,4.8 34.3,4 33.5,4 C32.6,4 32,4.8 32,6 L32,38.0 Z" id="Line-Copy-8"></path>
                        <path d="M16,36.0 C16,37.1 16.6,38.0 17.5,38.0 C18.3,38.0 19,37.1 19,36.0 L19,4 C19,2.8 18.3,2 17.5,2 C16.6,2 16,2.8 16,4 L16,36.0 Z" id="Line-Copy-6"></path>
                        <path d="M40,40.0 C40,41.1 40.6,42.0 41.5,42.0 C42.3,42.0 43,41.1 43,40.0 L43,8 C43,6.8 42.3,6 41.5,6 C40.6,6 40,6.8 40,8 L40,40.0 Z" id="Line-Copy-9"></path>
                    </g>
                    <path d="M47,34.0 C47,35.1 47.6,36.0 48.5,36.0 C49.3,36.0 50,35.1 50,34.0 L50,2 C50,0.8 49.3,0 48.5,0 C47.6,0 47,0.8 47,2 L47,34.0 Z" id="Combined-Shape" fill="#FEECC4"></path>
                </g>
                <g id="Group-9" transform="translate(32.0, 44.0)">
                    <mask id="mask-8" fill="white">
                        <use xlink:href="#path-7"></use>
                    </mask>
                    <g id="Mask" transform="translate(28.5, 28.5) rotate(8.0) translate(-28.5, -28.5) ">
                        <use fill="black" fill-opacity="1" filter="url(#filter-9)" xlink:href="#path-7"></use>
                        <use fill="#FFE475" fill-rule="evenodd" xlink:href="#path-7"></use>
                    </g>
                    <path d="M42.2,60.6 L15,40.5 L16.5,15.5 C16.5,15.5 13.8,8.9 16.5,8 C21.0,6.4 38,8 38,8 L43.2,19.3 L63,33.5 L74.9,66.5 L42.2,60.6 Z" id="Path-26" fill="#583429" opacity="0.1" mask="url(#mask-8)"></path>
                </g>
                <g id="Group-4-Copy" transform="translate(46.0, 28.0)">
                    <path d="M12,35.0 C12,36.1 12.6,37.0 13.5,37.0 C14.3,37.0 15,36.1 15,35.0 L15,3 C15,1.8 14.3,1 13.5,1 C12.6,1 12,1.8 12,3 L12,35.0 Z M28,38.0 C28,39.1 28.6,40.0 29.5,40.0 C30.3,40.0 31,39.1 31,38.0 L31,6 C31,4.8 30.3,4 29.5,4 C28.6,4 28,4.8 28,6 L28,38.0 Z M20,36.0 C20,37.1 20.6,38.0 21.5,38.0 C22.3,38.0 23,37.1 23,36.0 L23,4 C23,2.8 22.3,2 21.5,2 C20.6,2 20,2.8 20,4 L20,36.0 Z M4,34.0 C4,35.1 4.6,36.0 5.5,36.0 C6.3,36.0 7,35.1 7,34.0 L7,2 C7,0.8 6.3,0 5.5,0 C4.6,0 4,0.8 4,2 L4,34.0 Z" id="Combined-Shape" fill="#FEECC4"></path>
                    <path d="M10,45.0 C10,46.1 10.6,47.0 11.5,47.0 C12.3,47.0 13,46.1 13,45.0 L13,13 C13,11.8 12.3,11 11.5,11 C10.6,11 10,11.8 10,13 L10,45.0 Z M18,46.0 C18,47.1 18.6,48.0 19.5,48.0 C20.3,48.0 21,47.1 21,46.0 L21,14 C21,12.8 20.3,12 19.5,12 C18.6,12 18,12.8 18,14 L18,46.0 Z M2,44.0 C2,45.1 2.6,46.0 3.5,46.0 C4.3,46.0 5,45.1 5,44.0 L5,12 C5,10.8 4.3,10 3.5,10 C2.6,10 2,10.8 2,12 L2,44.0 Z M26,48.0 C26,49.1 26.6,50.0 27.5,50.0 C28.3,50.0 29,49.1 29,48.0 L29,16 C29,14.8 28.3,14 27.5,14 C26.6,14 26,14.8 26,16 L26,48.0 Z" id="Combined-Shape" fill="#F9F0DC"></path>
                    <g id="Group-3" transform="translate(0.0, 21.0)" fill="#FFFFFF">
                        <path d="M8,35.0 C8,36.1 8.6,37.0 9.5,37.0 C10.3,37.0 11,36.1 11,35.0 L11,3 C11,1.8 10.3,1 9.5,1 C8.6,1 8,1.8 8,3 L8,35.0 Z" id="Line-Copy-7"></path>
                        <path d="M16,36.0 C16,37.1 16.6,38.0 17.5,38.0 C18.3,38.0 19,37.1 19,36.0 L19,4 C19,2.8 18.3,2 17.5,2 C16.6,2 16,2.8 16,4 L16,36.0 Z" id="Line-Copy-8"></path>
                        <path d="M0,34.0 C0,35.1 0.6,36.0 1.5,36.0 C2.3,36.0 3,35.1 3,34.0 L3,2 C3,0.8 2.3,0 1.5,0 C0.6,0 0,0.8 0,2 L0,34.0 Z" id="Line-Copy-6"></path>
                        <path d="M24,38.0 C24,39.1 24.6,40.0 25.5,40.0 C26.3,40.0 27,39.1 27,38.0 L27,6 C27,4.8 26.3,4 25.5,4 C24.6,4 24,4.8 24,6 L24,38.0 Z" id="Line-Copy-9"></path>
                    </g>
                </g>
                <g id="Group-21" transform="translate(44.0, 25.0)">
                    <mask id="mask-11" fill="white">
                        <use xlink:href="#path-10"></use>
                    </mask>
                    <g id="Mask" transform="translate(16.5, 16.5) rotate(8.0) translate(-16.5, -16.5) ">
                        <use fill="black" fill-opacity="1" filter="url(#filter-12)" xlink:href="#path-10"></use>
                        <use fill="#FFE982" fill-rule="evenodd" xlink:href="#path-10"></use>
                    </g>
                    <polygon id="Path-26" fill="#583429" opacity="0.1" mask="url(#mask-11)" points="38.2 42.3 11 22.2 13.5 11.5 22 12 41.7 26.2 70.9 48.1"></polygon>
                </g>
                <g id="Group-5" transform="translate(54.7, 2.0)">
                    <path d="M2,34.0 C2,35.1 2.6,36.0 3.5,36.0 C4.3,36.0 5,35.1 5,34.0 L5,2 C5,0.8 4.3,0 3.5,0 C2.6,0 2,0.8 2,2 L2,34.0 Z M10,36.0 C10,37.1 10.6,38.0 11.5,38.0 C12.3,38.0 13,37.1 13,36.0 L13,4 C13,2.8 12.3,2 11.5,2 C10.6,2 10,2.8 10,4 L10,36.0 Z" id="Combined-Shape" fill="#F9F0DC"></path>
                    <g id="Group-3" transform="translate(-0.0, 9.0)" fill="#FFFFFF">
                        <path d="M0,34.0 C0,35.1 0.6,36.0 1.5,36.0 C2.3,36.0 3,35.1 3,34.0 L3,2 C3,0.8 2.3,0 1.5,0 C0.6,0 0,0.8 0,2 L0,34.0 Z" id="Line-Copy-8"></path>
                        <path d="M7,36.0 C7,37.1 7.6,38.0 8.5,38.0 C9.3,38.0 10,37.1 10,36.0 L10,4 C10,2.8 9.3,2 8.5,2 C7.6,2 7,2.8 7,4 L7,36.0 Z" id="Line-Copy-9"></path>
                    </g>
                </g>
                <g id="Rectangle-7-Copy-2" transform="translate(60.4, 7.5) rotate(8.0) translate(-60.4, -7.5) ">
                    <use fill="black" fill-opacity="1" filter="url(#filter-14)" xlink:href="#path-13"></use>
                    <use fill="#FFE982" fill-rule="evenodd" xlink:href="#path-13"></use>
                </g>
            </g>
        </g>
    </g>
</svg>
