<?xml version="1.0" encoding="UTF-8" standalone="no"?>
<svg width="117px" height="122px" viewBox="0 0 117 122" version="1.1" xmlns="http://www.w3.org/2000/svg" xmlns:xlink="http://www.w3.org/1999/xlink">
    <!-- Generator: Sketch 39.1 (31720) - http://www.bohemiancoding.com/sketch -->
    <title>building_3</title>
    <desc>Created with Sketch.</desc>
    <defs>
        <polygon id="path-1" points="105.2 50.5 78.9 96.1 26.3 96.1 5.6e-14 50.5 26.3 5 34 0.4 71 0.5 78.9 5"></polygon>
        <polygon id="path-3" points="56 0.3 74.5 32.4 56 64.4 19 64.4 0.5 32.4 19 0.3"></polygon>
        <path d="M1.7,53.3 L39.0,52.5 L68.2,79.9 C70.0,78.7 71.8,77.3 73.5,75.8 L52.6,41.4 L61.7,2.9 C61.2,2.7 60.6,2.4 60.0,2.2 C58.5,1.6 56.8,1.1 55.2,0.7 L36.3,35.2 L0.6,45.9 C0.8,48.4 1.2,50.9 1.7,53.3 L1.7,53.3 Z" id="path-5"></path>
    </defs>
    <g id="Page-1-Copy" stroke="none" stroke-width="1" fill="none" fill-rule="evenodd">
        <g id="building_3">
            <g id="Group-5" transform="translate(2.0, 1.0)">
                <polygon id="Mask-Copy" fill="#000000" opacity="0.2" points="112.4 71.1 84.7 119.0 29.4 119.0 1.8 71.1 71.5 21 87.0 26"></polygon>
                <g id="Group-2" transform="translate(0.5, 18.5)">
                    <mask id="mask-2" fill="white">
                        <use xlink:href="#path-1"></use>
                    </mask>
                    <use id="Mask" fill="#D3FF56" xlink:href="#path-1"></use>
                    <rect id="Rectangle-2" fill="#8CE945" mask="url(#mask-2)" x="63" y="-4" width="52" height="64"></rect>
                    <polygon id="Path-8" fill="#8CE945" mask="url(#mask-2)" points="35 62 25.5 98.5 80 100.5 68.5 56.5"></polygon>
                    <polygon id="Path-9" fill="#56C436" mask="url(#mask-2)" points="68 55.5 79.5 99.5 110 55.5 84.5 27"></polygon>
                </g>
                <g id="Group-3" transform="translate(15.5, 18.5)">
                    <mask id="mask-4" fill="white">
                        <use xlink:href="#path-3"></use>
                    </mask>
                    <use id="Mask" fill="#FFFFFF" xlink:href="#path-3"></use>
                    <path d="M8.7,49.3 L46.0,48.5 L75.2,75.9 C77.0,74.7 78.8,73.3 80.5,71.8 L59.6,37.4 L68.7,-1.0 C68.2,-1.2 67.6,-1.5 67.0,-1.7 C65.5,-2.3 63.8,-2.8 62.2,-3.2 L43.3,31.2 L7.6,41.9 C7.8,44.4 8.2,46.9 8.7,49.3 L8.7,49.3 Z" id="Combined-Shape-Copy" fill="#000000" opacity="0.2" mask="url(#mask-4)"></path>
                </g>
                <path d="M43.5,114.5 L43.5,101.4 C43.5,97.0 47.0,93.5 51.5,93.5 L73,93.5 L91,65.5" id="Path-19" stroke="#000000" opacity="0.2"></path>
                <path d="M47.5,114.7 C47.5,111.0 47.5,105.7 47.5,104.5 C47.5,102.5 47.5,101.4 47.5,101.4 C47.5,99.2 49.2,97.5 51.4,97.5 L74.5,97.5 L92.5,69.5" id="Path-19-Copy" stroke="#000000" opacity="0.2"></path>
                <g id="Group-4" transform="translate(12.5, 0.5)">
                    <mask id="mask-6" fill="white">
                        <use xlink:href="#path-5"></use>
                    </mask>
                    <use id="Mask" fill="#FF4848" xlink:href="#path-5"></use>
                    <polygon id="Path-10" fill="#000000" opacity="0.1" mask="url(#mask-6)" points="-0.5 51.5 40 45 71 80.5 59 84 -4.5 57.5"></polygon>
                    <polygon id="Path-11" fill="#000000" opacity="0.2" mask="url(#mask-6)" points="60 0.5 46.5 39 77 83.5 64.5 2"></polygon>
                </g>
                <polygon id="Path-14" stroke="#000000" opacity="0.1" points="17 65.5 27 81 22 88.5 12 72"></polygon>
                <polygon id="Path-20" fill="#469E2B" points="90.5 62 96 69.5 91.5 76.5 86 69"></polygon>
                <path d="M79,96 L89,81" id="Line" stroke="#FFFFFF" stroke-width="2" stroke-linecap="round" stroke-linejoin="round" stroke-dasharray="1,3"></path>
            </g>
        </g>
    </g>
</svg>
