<?xml version="1.0" encoding="UTF-8" standalone="no"?>
<svg width="144px" height="167px" viewBox="0 0 144 167" version="1.1" xmlns="http://www.w3.org/2000/svg" xmlns:xlink="http://www.w3.org/1999/xlink">
    <!-- Generator: Sketch 39.1 (31720) - http://www.bohemiancoding.com/sketch -->
    <title>building_1</title>
    <desc>Created with Sketch.</desc>
    <defs>
        <linearGradient x1="100%" y1="100%" x2="69.5%" y2="100%" id="linearGradient-1">
            <stop stop-color="#465E9C" offset="0%"></stop>
            <stop stop-color="#11BAF9" offset="100%"></stop>
        </linearGradient>
        <linearGradient x1="28.8%" y1="8.7%" x2="108.9%" y2="88.0%" id="linearGradient-2">
            <stop stop-color="#0D2032" offset="0%"></stop>
            <stop stop-color="#123565" stop-opacity="0.2" offset="100%"></stop>
        </linearGradient>
        <linearGradient x1="-143.4%" y1="52.4%" x2="161.3%" y2="52.4%" id="linearGradient-3">
            <stop stop-color="#FFFFFF" stop-opacity="0" offset="0%"></stop>
            <stop stop-color="#FFFFFF" offset="100%"></stop>
        </linearGradient>
        <linearGradient x1="50%" y1="30.7%" x2="50%" y2="65.4%" id="linearGradient-4">
            <stop stop-color="#EEEEEE" offset="0%"></stop>
            <stop stop-color="#B18B81" offset="100%"></stop>
        </linearGradient>
        <path d="M1.2,8.9 C3.9,8.9 4.8,9.0 5.2,9.3 C5.5,9.5 5.7,9.8 5.9,10.5 C6.2,11.6 6.5,13.2 6.5,15.5 L6.5,16.5 L6.5,20 C6.5,20 7.5,20.9 10.5,20.9 C13.5,20.9 14.5,20 14.5,20 L14.5,16.5 L14.5,15.5 C14.5,9.3 13.2,5.3 10.1,3.0 C7.7,1.1 5.7,0.9 1.1,0.9 C0.5,0.9 0.3,1 0,1 L0,9 C0.3,9 0.6,8.9 1.2,8.9 Z" id="path-5"></path>
        <path d="M1.2,8.9 C3.9,8.9 4.8,9.0 5.2,9.3 C5.5,9.5 5.7,9.8 5.9,10.5 C6.2,11.6 6.5,13.2 6.5,15.5 L6.5,16.5 L6.5,20 C6.5,20 7.5,20.9 10.5,20.9 C13.5,20.9 14.5,20 14.5,20 L14.5,16.5 L14.5,15.5 C14.5,9.3 13.2,5.3 10.1,3.0 C7.7,1.1 5.7,0.9 1.1,0.9 C0.5,0.9 0.3,1 0,1 L0,9 C0.3,9 0.6,8.9 1.2,8.9 Z" id="path-7"></path>
    </defs>
    <g id="Page-1-Copy" stroke="none" stroke-width="1" fill="none" fill-rule="evenodd">
        <g id="building_1">
            <g id="Group-2" transform="translate(9.0, 4.0)">
                <path d="M119,89.4 C120.3,87.9 122.3,87 124.5,87 C128.6,87 132,90.3 132,94.5 L132,106.4 C132,110.6 128.6,114 124.5,114 C122.3,114 120.3,113.0 119,111.5 L119,133.9 C119,149.4 106.4,162 90.9,162 L35.0,162 C19.5,162 7,149.4 7,133.9 L7,78.0 C7,62.5 19.5,50 35.0,50 L90.9,50 C106.4,50 119,62.5 119,78.0 L119,89.4 Z" id="Combined-Shape" fill="#000000" opacity="0.2"></path>
                <g id="Group-10">
                    <path d="M2,54.5 C3.5,49.5 9.5,42.5 9.5,42.5 L18,35.5 L26.5,34 L85.0,34 L95.5,37.5 L104,44 L109.5,53 L109.5,126.5 L95,146 L43.5,148 L13,142 L2,126 L1.5,110 C1.5,110 0.5,59.5 2,54.5 Z" id="Path-69" fill="#574A35"></path>
                    <path d="M112,127.9 C112,143.4 99.4,156 83.9,156 L28.0,156 C12.5,156 0,143.4 0,127.9 L0,113.2 L1.5,114 C1.5,114 -1,139.5 27,143.5 C55,143.5 88,143 88,143 L95,140.5 L103,135 L107.5,127.5 L110,117.5 L110.5,107 L112,106.8 L112,127.9 Z" id="Combined-Shape" fill="url(#linearGradient-1)"></path>
                    <path d="M0,61.0 C0,45.5 12.5,33 28.0,33 L83.9,33 C99.4,33 112,45.5 112,61.0 L112,116.9 C112,132.4 99.4,145 83.9,145 L28.0,145 C12.5,145 0,132.4 0,116.9 L0,61.0 Z M3,61.9 C3,47.6 14.6,36 28.9,36 L83.0,36 C97.3,36 109,47.6 109,61.9 L109,116.0 C109,130.3 97.3,142 83.0,142 L28.9,142 C14.6,142 3,130.3 3,116.0 L3,61.9 Z" id="Combined-Shape" fill="#72D9FF"></path>
                    <path d="M2.9,53.0 C2.9,23.7 26.7,0 56,0 L56,0 C85.2,0 109,23.7 109,53.0 L109,115.9 C109,130.3 97.3,142 83.0,142 L28.9,142 C14.6,142 3,130.3 2.9,115.9 L2.9,53.0 Z" id="Rectangle-3-Copy-2" fill="url(#linearGradient-2)" opacity="0.3"></path>
                    <g id="Group-5" transform="translate(5.0, 40.0)">
                        <g id="Group-4" transform="translate(66.0, 65.0)">
                            <path d="M10.6,16.0 C8.6,19.0 10.6,23.0 21.6,22.5 C20.6,12.0 12.6,13.0 10.6,16.0 Z" id="Path-57" fill="#A8EC3B"></path>
                            <path d="M11.0,4.7 C9.0,7.7 11.0,11.7 22.0,11.2 C21.0,0.7 13.0,1.7 11.0,4.7 Z" id="Path-57-Copy" fill="#A8EC3B" transform="translate(16.2, 7.0) rotate(-39.0) translate(-16.2, -7.0) "></path>
                            <path d="M-0.3,9.9 C-2.3,12.9 -0.3,16.9 10.6,16.4 C9.6,5.9 1.6,6.9 -0.3,9.9 Z" id="Path-57-Copy-2" fill="#A8EC3B" transform="translate(4.7, 12.1) scale(-1, 1) rotate(-95.0) translate(-4.7, -12.1) "></path>
                            <path d="M13.5,9 C11,11.5 9.2,16.5 7.5,27" id="Path-70" stroke="#A8EB3C"></path>
                        </g>
                        <g id="Group-4-Copy" transform="translate(42.0, 75.0)">
                            <path d="M10.6,16.0 C8.6,19.0 10.6,23.0 21.6,22.5 C20.6,12.0 12.6,13.0 10.6,16.0 Z" id="Path-57" fill="#A8EC3B"></path>
                            <path d="M11.0,4.7 C9.0,7.7 11.0,11.7 22.0,11.2 C21.0,0.7 13.0,1.7 11.0,4.7 Z" id="Path-57-Copy" fill="#A8EC3B" transform="translate(16.2, 7.0) rotate(-39.0) translate(-16.2, -7.0) "></path>
                            <path d="M-0.3,9.9 C-2.3,12.9 -0.3,16.9 10.6,16.4 C9.6,5.9 1.6,6.9 -0.3,9.9 Z" id="Path-57-Copy-2" fill="#A8EC3B" transform="translate(4.7, 12.1) scale(-1, 1) rotate(-95.0) translate(-4.7, -12.1) "></path>
                            <path d="M13.5,9 C11,11.5 8.4,18.5 4.9,25" id="Path-70" stroke="#A8EB3C"></path>
                        </g>
                        <g id="Group-4-Copy-2" transform="translate(50.0, 59.0)">
                            <path d="M10.6,16.0 C8.6,19.0 10.6,23.0 21.6,22.5 C20.6,12.0 12.6,13.0 10.6,16.0 Z" id="Path-57" fill="#A8EC3B"></path>
                            <path d="M11.0,4.7 C9.0,7.7 11.0,11.7 22.0,11.2 C21.0,0.7 13.0,1.7 11.0,4.7 Z" id="Path-57-Copy" fill="#A8EC3B" transform="translate(16.2, 7.0) rotate(-39.0) translate(-16.2, -7.0) "></path>
                            <path d="M-0.3,9.9 C-2.3,12.9 -0.3,16.9 10.6,16.4 C9.6,5.9 1.6,6.9 -0.3,9.9 Z" id="Path-57-Copy-2" fill="#A8EC3B" transform="translate(4.7, 12.1) scale(-1, 1) rotate(-95.0) translate(-4.7, -12.1) "></path>
                            <path d="M13.5,9 C11,11.5 5.9,16.5 10,26.5" id="Path-70" stroke="#A8EB3C"></path>
                        </g>
                        <g id="Group-4-Copy-3" transform="translate(30.0, 62.0)">
                            <path d="M10.6,16.0 C8.6,19.0 10.6,23.0 21.6,22.5 C20.6,12.0 12.6,13.0 10.6,16.0 Z" id="Path-57" fill="#A8EC3B"></path>
                            <path d="M11.0,4.7 C9.0,7.7 11.0,11.7 22.0,11.2 C21.0,0.7 13.0,1.7 11.0,4.7 Z" id="Path-57-Copy" fill="#A8EC3B" transform="translate(16.2, 7.0) rotate(-39.0) translate(-16.2, -7.0) "></path>
                            <path d="M-0.3,9.9 C-2.3,12.9 -0.3,16.9 10.6,16.4 C9.6,5.9 1.6,6.9 -0.3,9.9 Z" id="Path-57-Copy-2" fill="#A8EC3B" transform="translate(4.7, 12.1) scale(-1, 1) rotate(-95.0) translate(-4.7, -12.1) "></path>
                            <path d="M13.5,9 C11,11.5 4.4,22 8.5,32" id="Path-70" stroke="#A8EB3C"></path>
                        </g>
                        <g id="Group-4-Copy-4" transform="translate(11.0, 73.0)">
                            <path d="M10.6,16.0 C8.6,19.0 10.6,23.0 21.6,22.5 C20.6,12.0 12.6,13.0 10.6,16.0 Z" id="Path-57" fill="#A8EC3B"></path>
                            <path d="M11.0,4.7 C9.0,7.7 11.0,11.7 22.0,11.2 C21.0,0.7 13.0,1.7 11.0,4.7 Z" id="Path-57-Copy" fill="#A8EC3B" transform="translate(16.2, 7.0) rotate(-39.0) translate(-16.2, -7.0) "></path>
                            <path d="M-0.3,9.9 C-2.3,12.9 -0.3,16.9 10.6,16.4 C9.6,5.9 1.6,6.9 -0.3,9.9 Z" id="Path-57-Copy-2" fill="#A8EC3B" transform="translate(4.7, 12.1) scale(-1, 1) rotate(-95.0) translate(-4.7, -12.1) "></path>
                            <path d="M13.5,9 C11,11.5 10.0,19.5 6.5,23.5" id="Path-70" stroke="#A8EB3C"></path>
                        </g>
                        <g id="Group-4-Copy-5" transform="translate(0.0, 55.0)">
                            <path d="M16.6,16.0 C14.6,19.0 16.6,23.0 27.6,22.5 C26.6,12.0 18.6,13.0 16.6,16.0 Z" id="Path-57" fill="#A8EC3B"></path>
                            <path d="M17.0,4.7 C15.0,7.7 17.0,11.7 28.0,11.2 C27.0,0.7 19.0,1.7 17.0,4.7 Z" id="Path-57-Copy" fill="#A8EC3B" transform="translate(22.2, 7.0) rotate(-39.0) translate(-22.2, -7.0) "></path>
                            <path d="M2.6,11.9 C0.6,14.9 2.6,18.9 13.6,18.4 C12.6,7.9 4.6,8.9 2.6,11.9 Z" id="Path-57-Copy-2" fill="#A8EC3B" transform="translate(7.7, 14.1) scale(-1, 1) rotate(-383.0) translate(-7.7, -14.1) "></path>
                            <path d="M19.5,9 C17,11.5 12,16.5 16,26.5" id="Path-70" stroke="#A8EB3C"></path>
                        </g>
                        <g id="Group-4-Copy-6" transform="translate(23.0, 39.0)">
                            <path d="M14.6,17.0 C12.6,20.0 14.6,24.0 25.6,23.5 C24.6,13.0 16.6,14.0 14.6,17.0 Z" id="Path-57" fill="#A8EC3B"></path>
                            <path d="M10.0,5.7 C8.0,8.7 10.0,12.7 21.0,12.2 C20.0,1.7 12.0,2.7 10.0,5.7 Z" id="Path-57-Copy" fill="#A8EC3B" transform="translate(15.2, 8.0) rotate(-68.0) translate(-15.2, -8.0) "></path>
                            <path d="M2.6,11.9 C0.6,14.9 2.6,18.9 13.6,18.4 C12.6,7.9 4.6,8.9 2.6,11.9 Z" id="Path-57-Copy-2" fill="#A8EC3B" transform="translate(7.7, 14.1) scale(-1, 1) rotate(-45.0) translate(-7.7, -14.1) "></path>
                            <path d="M17.5,10 C15,12.5 13.5,19.5 11.5,26.5" id="Path-70" stroke="#A8EB3C"></path>
                        </g>
                        <g id="Group-4-Copy-7" transform="translate(66.0, 46.0)">
                            <path d="M10.6,16.0 C8.6,19.0 10.6,23.0 21.6,22.5 C20.6,12.0 12.6,13.0 10.6,16.0 Z" id="Path-57" fill="#A8EC3B"></path>
                            <path d="M11.0,4.7 C9.0,7.7 11.0,11.7 22.0,11.2 C21.0,0.7 13.0,1.7 11.0,4.7 Z" id="Path-57-Copy" fill="#A8EC3B" transform="translate(16.2, 7.0) rotate(-39.0) translate(-16.2, -7.0) "></path>
                            <path d="M-0.3,9.9 C-2.3,12.9 -0.3,16.9 10.6,16.4 C9.6,5.9 1.6,6.9 -0.3,9.9 Z" id="Path-57-Copy-2" fill="#A8EC3B" transform="translate(4.7, 12.1) scale(-1, 1) rotate(-95.0) translate(-4.7, -12.1) "></path>
                            <path d="M13.5,9 C11,11.5 5.9,16.5 10,26.5" id="Path-70" stroke="#A8EB3C"></path>
                        </g>
                        <g id="Group-4-Copy-8" transform="translate(62.0, 27.0)">
                            <path d="M10.6,16.0 C8.6,19.0 10.6,23.0 21.6,22.5 C20.6,12.0 12.6,13.0 10.6,16.0 Z" id="Path-57" fill="#A8EC3B"></path>
                            <path d="M11.0,4.7 C9.0,7.7 11.0,11.7 22.0,11.2 C21.0,0.7 13.0,1.7 11.0,4.7 Z" id="Path-57-Copy" fill="#A8EC3B" transform="translate(16.2, 7.0) rotate(-39.0) translate(-16.2, -7.0) "></path>
                            <path d="M-0.3,9.9 C-2.3,12.9 -0.3,16.9 10.6,16.4 C9.6,5.9 1.6,6.9 -0.3,9.9 Z" id="Path-57-Copy-2" fill="#A8EC3B" transform="translate(4.7, 12.1) scale(-1, 1) rotate(-95.0) translate(-4.7, -12.1) "></path>
                            <path d="M13.5,9 C11,11.5 5.9,16.5 10,26.5" id="Path-70" stroke="#A8EB3C"></path>
                        </g>
                        <g id="Group-4-Copy-9" transform="translate(42.0, 31.0)">
                            <path d="M10.6,16.0 C8.6,19.0 10.6,23.0 21.6,22.5 C20.6,12.0 12.6,13.0 10.6,16.0 Z" id="Path-57" fill="#A8EC3B"></path>
                            <path d="M11.0,4.7 C9.0,7.7 11.0,11.7 22.0,11.2 C21.0,0.7 13.0,1.7 11.0,4.7 Z" id="Path-57-Copy" fill="#A8EC3B" transform="translate(16.2, 7.0) rotate(-39.0) translate(-16.2, -7.0) "></path>
                            <path d="M-0.3,9.9 C-2.3,12.9 -0.3,16.9 10.6,16.4 C9.6,5.9 1.6,6.9 -0.3,9.9 Z" id="Path-57-Copy-2" fill="#A8EC3B" transform="translate(4.7, 12.1) scale(-1, 1) rotate(-95.0) translate(-4.7, -12.1) "></path>
                            <path d="M13.5,9 C11,11.5 4.9,21 9.0,31" id="Path-70" stroke="#A8EB3C"></path>
                        </g>
                        <g id="Group-4-Copy-10" transform="translate(62.0, 5.0)">
                            <path d="M10.6,16.0 C8.6,19.0 10.6,23.0 21.6,22.5 C20.6,12.0 12.6,13.0 10.6,16.0 Z" id="Path-57" fill="#A8EC3B"></path>
                            <path d="M11.0,4.7 C9.0,7.7 11.0,11.7 22.0,11.2 C21.0,0.7 13.0,1.7 11.0,4.7 Z" id="Path-57-Copy" fill="#A8EC3B" transform="translate(16.2, 7.0) rotate(-39.0) translate(-16.2, -7.0) "></path>
                            <path d="M-0.3,9.9 C-2.3,12.9 -0.3,16.9 10.6,16.4 C9.6,5.9 1.6,6.9 -0.3,9.9 Z" id="Path-57-Copy-2" fill="#A8EC3B" transform="translate(4.7, 12.1) scale(-1, 1) rotate(-95.0) translate(-4.7, -12.1) "></path>
                            <path d="M13.5,9 C11,11.5 9,22 5.5,26.5" id="Path-70" stroke="#A8EB3C"></path>
                        </g>
                        <g id="Group-4-Copy-11" transform="translate(80.0, 24.0)">
                            <path d="M10.6,16.0 C8.6,19.0 10.6,23.0 21.6,22.5 C20.6,12.0 12.6,13.0 10.6,16.0 Z" id="Path-57" fill="#A8EC3B"></path>
                            <path d="M11.0,4.7 C9.0,7.7 11.0,11.7 22.0,11.2 C21.0,0.7 13.0,1.7 11.0,4.7 Z" id="Path-57-Copy" fill="#A8EC3B" transform="translate(16.2, 7.0) rotate(-39.0) translate(-16.2, -7.0) "></path>
                            <path d="M-0.3,9.9 C-2.3,12.9 -0.3,16.9 10.6,16.4 C9.6,5.9 1.6,6.9 -0.3,9.9 Z" id="Path-57-Copy-2" fill="#A8EC3B" transform="translate(4.7, 12.1) scale(-1, 1) rotate(-95.0) translate(-4.7, -12.1) "></path>
                            <path d="M13.5,9 C11,11.5 8.5,14.5 6.5,27" id="Path-70" stroke="#A8EB3C"></path>
                        </g>
                        <g id="Group-4-Copy-12" transform="translate(38.0, 11.0)">
                            <path d="M10.6,16.0 C8.6,19.0 10.6,23.0 21.6,22.5 C20.6,12.0 12.6,13.0 10.6,16.0 Z" id="Path-57" fill="#A8EC3B"></path>
                            <path d="M11.0,4.7 C9.0,7.7 11.0,11.7 22.0,11.2 C21.0,0.7 13.0,1.7 11.0,4.7 Z" id="Path-57-Copy" fill="#A8EC3B" transform="translate(16.2, 7.0) rotate(-39.0) translate(-16.2, -7.0) "></path>
                            <path d="M-0.3,9.9 C-2.3,12.9 -0.3,16.9 10.6,16.4 C9.6,5.9 1.6,6.9 -0.3,9.9 Z" id="Path-57-Copy-2" fill="#A8EC3B" transform="translate(4.7, 12.1) scale(-1, 1) rotate(-95.0) translate(-4.7, -12.1) "></path>
                            <path d="M13.5,9 C11,11.5 5.9,16.5 10,26.5" id="Path-70" stroke="#A8EB3C"></path>
                        </g>
                        <g id="Group-4-Copy-13" transform="translate(15.0, 22.0)">
                            <path d="M10.6,16.0 C8.6,19.0 10.6,23.0 21.6,22.5 C20.6,12.0 12.6,13.0 10.6,16.0 Z" id="Path-57" fill="#A8EC3B"></path>
                            <path d="M11.0,4.7 C9.0,7.7 11.0,11.7 22.0,11.2 C21.0,0.7 13.0,1.7 11.0,4.7 Z" id="Path-57-Copy" fill="#A8EC3B" transform="translate(16.2, 7.0) rotate(-39.0) translate(-16.2, -7.0) "></path>
                            <path d="M-0.3,9.9 C-2.3,12.9 -0.3,16.9 10.6,16.4 C9.6,5.9 1.6,6.9 -0.3,9.9 Z" id="Path-57-Copy-2" fill="#A8EC3B" transform="translate(4.7, 12.1) scale(-1, 1) rotate(-95.0) translate(-4.7, -12.1) "></path>
                            <path d="M13.5,9 C11,11.5 5.9,16.5 10,26.5" id="Path-70" stroke="#A8EB3C"></path>
                        </g>
                        <g id="Group-4-Copy-14" transform="translate(23.0, 0.0)">
                            <path d="M10.6,16.0 C8.6,19.0 10.6,23.0 21.6,22.5 C20.6,12.0 12.6,13.0 10.6,16.0 Z" id="Path-57" fill="#A8EC3B"></path>
                            <path d="M11.0,4.7 C9.0,7.7 11.0,11.7 22.0,11.2 C21.0,0.7 13.0,1.7 11.0,4.7 Z" id="Path-57-Copy" fill="#A8EC3B" transform="translate(16.2, 7.0) rotate(-39.0) translate(-16.2, -7.0) "></path>
                            <path d="M-0.3,9.9 C-2.3,12.9 -0.3,16.9 10.6,16.4 C9.6,5.9 1.6,6.9 -0.3,9.9 Z" id="Path-57-Copy-2" fill="#A8EC3B" transform="translate(4.7, 12.1) scale(-1, 1) rotate(-95.0) translate(-4.7, -12.1) "></path>
                            <path d="M13.5,9 C11,11.5 5.9,16.5 10,26.5" id="Path-70" stroke="#A8EB3C"></path>
                        </g>
                        <g id="Group-4-Copy-15" transform="translate(2.0, 11.0)">
                            <path d="M10.6,16.0 C8.6,19.0 10.6,23.0 21.6,22.5 C20.6,12.0 12.6,13.0 10.6,16.0 Z" id="Path-57" fill="#A8EC3B"></path>
                            <path d="M11.0,4.7 C9.0,7.7 11.0,11.7 22.0,11.2 C21.0,0.7 13.0,1.7 11.0,4.7 Z" id="Path-57-Copy" fill="#A8EC3B" transform="translate(16.2, 7.0) rotate(-39.0) translate(-16.2, -7.0) "></path>
                            <path d="M-0.3,9.9 C-2.3,12.9 -0.3,16.9 10.6,16.4 C9.6,5.9 1.6,6.9 -0.3,9.9 Z" id="Path-57-Copy-2" fill="#A8EC3B" transform="translate(4.7, 12.1) scale(-1, 1) rotate(-95.0) translate(-4.7, -12.1) "></path>
                            <path d="M13.5,9 C11,11.5 9,19 7,27" id="Path-70" stroke="#A8EB3C"></path>
                        </g>
                        <g id="Group-4-Copy-16" transform="translate(0.0, 36.0)">
                            <path d="M12.6,16.0 C10.6,19.0 12.6,23.0 23.6,22.5 C22.6,12.0 14.6,13.0 12.6,16.0 Z" id="Path-57" fill="#A8EC3B"></path>
                            <path d="M13.0,4.7 C11.0,7.7 13.0,11.7 24.0,11.2 C23.0,0.7 15.0,1.7 13.0,4.7 Z" id="Path-57-Copy" fill="#A8EC3B" transform="translate(18.2, 7.0) rotate(-39.0) translate(-18.2, -7.0) "></path>
                            <path d="M1.6,9.9 C-0.3,12.9 1.6,16.9 12.6,16.4 C11.6,5.9 3.6,6.9 1.6,9.9 Z" id="Path-57-Copy-2" fill="#A8EC3B" transform="translate(6.7, 12.1) scale(-1, 1) rotate(-68.0) translate(-6.7, -12.1) "></path>
                            <path d="M15.5,9 C13,11.5 7.9,16.5 12,26.5" id="Path-70" stroke="#A8EB3C"></path>
                        </g>
                        <circle id="Oval-2" fill="#FFCC00" cx="62.5" cy="69.5" r="3.5"></circle>
                        <circle id="Oval-2-Copy" fill="#FFCC00" cx="54.5" cy="42.5" r="3.5"></circle>
                        <circle id="Oval-2-Copy-2" fill="#FFCC00" cx="42.5" cy="72.5" r="3.5"></circle>
                        <circle id="Oval-2-Copy-3" fill="#FFCC00" cx="14.5" cy="45.5" r="3.5"></circle>
                        <circle id="Oval-2-Copy-4" fill="#FFCC00" cx="72.5" cy="38.5" r="3.5"></circle>
                        <circle id="Oval-2-Copy-5" fill="#FFCC00" cx="77.5" cy="41.5" r="3.5"></circle>
                        <circle id="Oval-2-Copy-6" fill="#FFCC00" cx="78.5" cy="34.5" r="3.5"></circle>
                        <circle id="Oval-2-Copy-7" fill="#FFCC00" cx="92.5" cy="37.5" r="3.5"></circle>
                        <circle id="Oval-2-Copy-8" fill="#FFCC00" cx="46.5" cy="23.5" r="3.5"></circle>
                    </g>
                    <path d="M30.5,11.9 C38.5,8.9 45,13.0 45,21.0 L45,74.0 C45,82.0 38.5,90.9 30.5,93.9 C22.4,96.9 16,92.8 16,84.8 L16,31.8 C16,23.8 22.4,14.9 30.5,11.9 Z" id="Rectangle-8" fill="url(#linearGradient-3)"></path>
                    <g id="Group-9" transform="translate(112.0, 77.0)">
                        <rect id="Rectangle-9" fill="url(#linearGradient-4)" x="0" y="0" width="2" height="14"></rect>
                        <g id="Group-8" transform="translate(2.0, 2.0)">
                            <mask id="mask-6" fill="white">
                                <use xlink:href="#path-5"></use>
                            </mask>
                            <use id="Mask" fill="#CDABA2" xlink:href="#path-5"></use>
                            <path d="M-1,5.5 C2,5 6.5,5.9 8,8 C9.5,10.0 8.5,24.9 8.5,24.9 C8.5,24.9 3.5,23.0 3,22.5 C2.5,21.9 -3.5,10.5 -3.5,10.5 C-3.5,10.5 -4,6 -1,5.5 Z" id="Path-72" fill="#6F4134" mask="url(#mask-6)"></path>
                        </g>
                        <rect id="Rectangle-9-Copy" fill="url(#linearGradient-4)" x="0" y="9" width="2" height="14"></rect>
                        <g id="Group-8-Copy" transform="translate(2.0, 11.0)">
                            <mask id="mask-8" fill="white">
                                <use xlink:href="#path-7"></use>
                            </mask>
                            <use id="Mask" fill="#CDABA2" xlink:href="#path-7"></use>
                            <path d="M-1,5.5 C2,5 6.5,5.9 8,8 C9.5,10.0 8.5,24.9 8.5,24.9 C8.5,24.9 3.5,23.0 3,22.5 C2.5,21.9 -3.5,10.5 -3.5,10.5 C-3.5,10.5 -4,6 -1,5.5 Z" id="Path-72" fill="#6F4134" mask="url(#mask-8)"></path>
                        </g>
                    </g>
                </g>
            </g>
        </g>
    </g>
</svg>
