<?xml version="1.0" encoding="UTF-8" standalone="no"?>
<svg width="131px" height="140px" viewBox="0 0 131 140" version="1.1" xmlns="http://www.w3.org/2000/svg" xmlns:xlink="http://www.w3.org/1999/xlink">
    <!-- Generator: Sketch 39.1 (31720) - http://www.bohemiancoding.com/sketch -->
    <title>building_0</title>
    <desc>Created with Sketch.</desc>
    <defs>
        <rect id="path-1" x="0" y="0" width="108" height="51"></rect>
        <rect id="path-3" x="47" y="85" width="28" height="28" rx="5"></rect>
        <mask id="mask-4" maskContentUnits="userSpaceOnUse" maskUnits="objectBoundingBox" x="0" y="0" width="28" height="28" fill="white">
            <use xlink:href="#path-3"></use>
        </mask>
        <path d="M4.0,14.8 L46.9,0.1 C49.2,-0.5 51,0.7 51,2.9 L51,58.9 C51,61.1 49.2,63.4 46.9,64.1 L4.0,77.8 C1.7,78.5 0,77.3 0,75.1 L0,20.1 C0,17.9 1.7,15.5 4.0,14.8 L4.0,14.8 Z M105.9,14.8 L63.0,0.1 C60.7,-0.5 59,0.7 59,2.9 L59,58.9 C59,61.1 60.7,63.4 63.0,64.1 L105.9,77.8 C108.2,78.5 110,77.3 110,75.1 L110,20.1 C110,17.9 108.2,15.5 105.9,14.8 L105.9,14.8 Z" id="path-5"></path>
        <linearGradient x1="41.4%" y1="22.5%" x2="198.4%" y2="96.8%" id="linearGradient-7">
            <stop stop-color="#FFFFFF" stop-opacity="-0.0" offset="0%"></stop>
            <stop stop-color="#FFFFFF" stop-opacity="0" offset="0%"></stop>
            <stop stop-color="#FFFFFF" offset="100%"></stop>
        </linearGradient>
    </defs>
    <g id="Page-1-Copy" stroke="none" stroke-width="1" fill="none" fill-rule="evenodd">
        <g id="building_0">
            <g id="Group-3-Copy" transform="translate(3.0, 5.0)">
                <path d="M5,115.5 L15,122.5 L51,122.5 C51,122.5 44.2,127.5 45.5,127.5 C47.8,127.5 49.5,129.0 52.5,129 C58.8,128.7 82.5,129 82.5,129 L82.5,122.5 L122.5,122.5 L122.5,42.4 L105,32.5 L20.5,77.5 L5,115.5 Z" id="Path-74" fill="#000000" opacity="0.2"></path>
                <rect id="Rectangle-4" fill="#A07561" x="45" y="116" width="34" height="8"></rect>
                <rect id="Rectangle-4-Copy" fill="#D8B9A9" x="45" y="124" width="34" height="3"></rect>
                <g id="Group-7" transform="translate(5.0, 65.0)">
                    <mask id="mask-2" fill="white">
                        <use xlink:href="#path-1"></use>
                    </mask>
                    <use id="Mask" fill="#C1B97D" xlink:href="#path-1"></use>
                    <path d="M-12.7,36 L58.8,13 L140.1,38.5 L140.1,0 C140.1,-1 128.3,-23.5 127.2,-23.5 C126.1,-23.5 25.4,-21 25.4,-21 L-12.7,-10 L-6.8,29 L-12.7,36 Z" id="Path-71" fill-opacity="0.7" fill="#000000" mask="url(#mask-2)"></path>
                </g>
                <use id="Rectangle-2" stroke="#000000" mask="url(#mask-4)" stroke-width="2" opacity="0.2" xlink:href="#path-3"></use>
                <circle id="Oval-3" fill="#3A3E47" cx="61" cy="94" r="4"></circle>
                <polygon id="Rectangle-11" fill="#D8B9A9" points="0 20 59 0 59 73 0 93"></polygon>
                <polygon id="Rectangle-11-Copy" fill="#927464" transform="translate(88.5, 46.5) scale(-1, 1) translate(-88.5, -46.5) " points="58 20 119 0 119 73 58 93"></polygon>
                <g id="Group-9" transform="translate(4.0, 7.0)">
                    <mask id="mask-6" fill="white">
                        <use xlink:href="#path-5"></use>
                    </mask>
                    <use id="Mask" fill="#D8D8D8" xlink:href="#path-5"></use>
                    <polygon id="Rectangle-11-Copy-2" fill="#6C4F38" mask="url(#mask-6)" points="-4 13 55 -7 55 66 -4 86"></polygon>
                    <polygon id="Rectangle-11-Copy-3" fill="#3F3931" mask="url(#mask-6)" points="115 13 54 -7 54 66 115 86"></polygon>
                    <g id="Group-8" mask="url(#mask-6)" stroke-linecap="square" stroke="#FFFFFF" stroke-opacity="0.3">
                        <g transform="translate(-5.0, -6.0)">
                            <path d="M58.5,70.5 L1.5,90.5" id="Line"></path>
                            <path d="M58.5,60.5 L1.5,80.5" id="Line-Copy"></path>
                            <path d="M58.5,50.5 L1.5,70.5" id="Line-Copy-2"></path>
                            <path d="M58.5,40.5 L1.5,60.5" id="Line-Copy-3"></path>
                            <path d="M58.5,30.5 L1.5,50.5" id="Line-Copy-4"></path>
                            <path d="M58.5,20.5 L1.5,40.5" id="Line-Copy-5"></path>
                            <path d="M58.5,10.5 L1.5,30.5" id="Line-Copy-6"></path>
                            <path d="M58.5,0.5 L1.5,20.5" id="Line-Copy-7"></path>
                            <path d="M58.5,70.5 L120.5,90.5" id="Line"></path>
                            <path d="M58.5,60.5 L120.5,80.5" id="Line-Copy-9"></path>
                            <path d="M58.5,50.5 L120.5,70.5" id="Line-Copy-10"></path>
                            <path d="M58.5,40.5 L120.5,60.5" id="Line-Copy-11"></path>
                            <path d="M58.5,30.5 L120.5,50.5" id="Line-Copy-12"></path>
                            <path d="M58.5,20.5 L120.5,40.5" id="Line-Copy-13"></path>
                            <path d="M58.5,10.5 L120.5,30.5" id="Line-Copy-14"></path>
                            <path d="M58.5,0.5 L120.5,20.5" id="Line-Copy-15"></path>
                            <path d="M1.5,20.5 L1.5,89.5" id="Line"></path>
                            <path d="M21.5,13.5 L21.5,82.5" id="Line-Copy-16"></path>
                            <path d="M41.5,7.5 L41.5,76.5" id="Line-Copy-17"></path>
                            <path d="M59.5,1.5 L59.5,70.5" id="Line-Copy-18"></path>
                            <path d="M79.5,8.5 L79.5,77.5" id="Line-Copy-19"></path>
                            <path d="M99.5,14.5 L99.5,83.5" id="Line-Copy-20"></path>
                            <path d="M119.5,20.5 L119.5,89.5" id="Line-Copy-21"></path>
                        </g>
                    </g>
                    <polygon id="Path-73" fill="url(#linearGradient-7)" mask="url(#mask-6)" points="54 7 15.5 78 54.5 65"></polygon>
                </g>
            </g>
        </g>
    </g>
</svg>
