<?xml version="1.0" encoding="UTF-8" standalone="no"?>
<svg width="1860px" height="1632px" viewBox="0 0 1860 1632" version="1.1" xmlns="http://www.w3.org/2000/svg" xmlns:xlink="http://www.w3.org/1999/xlink">
    <!-- Generator: Sketch 39.1 (31720) - http://www.bohemiancoding.com/sketch -->
    <title>rob_rot</title>
    <desc>Created with Sketch.</desc>
    <defs>
        <path d="M91.4,209.4 C75.2,209.4 39.1,208.8 33,204 C17,194.5 2.5,65.5 0.5,21.5 C-1.2,-16.7 74.6,8.1 94.3,15.2 C114.0,8.1 189.9,-16.7 188.2,21.5 C186.2,65.5 171.7,194.5 155.7,204 C149.6,208.8 113.5,209.4 97.2,209.4 C97.1,209.4 97.0,209.5 97,209.5 C96.2,209.5 95.3,209.5 94.3,209.4 C93.3,209.5 92.4,209.5 91.7,209.5 C91.6,209.5 91.5,209.4 91.4,209.4 L91.4,209.4 Z" id="path-1"></path>
        <filter x="-50%" y="-50%" width="200%" height="200%" filterUnits="objectBoundingBox" id="filter-3">
            <feGaussianBlur color-interpolation-filters="sRGB" stdDeviation="2" in="SourceGraphic"></feGaussianBlur>
        </filter>
        <path d="M99.8,0.5 C100.2,0.5 100.6,0.5 101,0.5 C101.1,0.5 101.3,0.5 101.5,0.5 C147.2,0.5 183.8,2.6 190.7,9.5 C197.7,16.5 200.2,75 198.7,90 C197.2,105 196.7,130.5 185.2,138.5 C173.9,146.3 126.2,146.0 99.8,146.0 C73.4,146.0 25.7,146.3 14.4,138.5 C2.9,130.5 2.5,105 1,90 C-0.5,75 2,16.5 9,9.5 C15.8,2.6 52.4,0.5 98.1,0.5 C98.3,0.5 98.5,0.5 98.7,0.5 C99.0,0.5 99.4,0.5 99.8,0.5 L99.8,0.5 Z" id="path-4"></path>
        <filter x="-50%" y="-50%" width="200%" height="200%" filterUnits="objectBoundingBox" id="filter-6">
            <feGaussianBlur color-interpolation-filters="sRGB" stdDeviation="2" in="SourceGraphic"></feGaussianBlur>
        </filter>
        <path d="M202.5,9 C216.5,11.5 221.5,11.5 224.5,14.5 C227.5,17.5 210,133.5 193,156.5 C183.5,168.5 147.5,187.5 137.5,187.5 C128.0,187.5 45,175.4 33,165.5 C21,155.5 -2.9,23.5 0.5,8 C3.9,-7.5 188.5,6.5 202.5,9 Z" id="path-7"></path>
        <filter x="-50%" y="-50%" width="200%" height="200%" filterUnits="objectBoundingBox" id="filter-9">
            <feGaussianBlur color-interpolation-filters="sRGB" stdDeviation="2" in="SourceGraphic"></feGaussianBlur>
        </filter>
        <filter x="-50%" y="-50%" width="200%" height="200%" filterUnits="objectBoundingBox" id="filter-10">
            <feGaussianBlur color-interpolation-filters="sRGB" stdDeviation="2" in="SourceGraphic"></feGaussianBlur>
        </filter>
        <path d="M245.4,25.5 C251.9,33.4 250.4,97.5 245.5,107 C238,118 178,153 156,153 C134,153 19.0,137.9 6.5,127.5 C-1.4,120.5 -0.5,65 6,54 C12.5,43 68.4,1.5 88,0.5 C107.5,-0.5 232.9,12.5 245.4,25.5 Z" id="path-11"></path>
        <filter x="-50%" y="-50%" width="200%" height="200%" filterUnits="objectBoundingBox" id="filter-13">
            <feGaussianBlur color-interpolation-filters="sRGB" stdDeviation="2" in="SourceGraphic"></feGaussianBlur>
        </filter>
        <filter x="-50%" y="-50%" width="200%" height="200%" filterUnits="objectBoundingBox" id="filter-14">
            <feGaussianBlur color-interpolation-filters="sRGB" stdDeviation="2" in="SourceGraphic"></feGaussianBlur>
        </filter>
        <filter x="-50%" y="-50%" width="200%" height="200%" filterUnits="objectBoundingBox" id="filter-15">
            <feGaussianBlur color-interpolation-filters="sRGB" stdDeviation="2" in="SourceGraphic"></feGaussianBlur>
        </filter>
        <path d="M210.5,30 C224.5,32.5 234.5,35 237.5,38.5 C240.5,42 221.5,166.5 206.5,178.5 C191.5,190.5 139,205.5 126,205.5 C113,205.5 46.5,181.4 35,175 C23.4,168.5 -1.6e-08,44.5 1,11.5 C2.0,-21.5 196.5,27.5 210.5,30 Z" id="path-16"></path>
        <filter x="-50%" y="-50%" width="200%" height="200%" filterUnits="objectBoundingBox" id="filter-18">
            <feGaussianBlur color-interpolation-filters="sRGB" stdDeviation="2" in="SourceGraphic"></feGaussianBlur>
        </filter>
        <filter x="-50%" y="-50%" width="200%" height="200%" filterUnits="objectBoundingBox" id="filter-19">
            <feGaussianBlur color-interpolation-filters="sRGB" stdDeviation="2" in="SourceGraphic"></feGaussianBlur>
        </filter>
        <path d="M122,9.0e-13 C152.0,-7.1e-10 255.5,23.5 262,32.5 C268.4,41.5 268.5,111 259,119.5 C249.5,128 163.5,155.5 135.5,155.5 C107.5,155.5 13.5,128 6,118 C-1.5,108 -1.0,55 6,47 C13.0,39 91.9,7.1e-10 122,9.0e-13 Z" id="path-20"></path>
        <filter x="-50%" y="-50%" width="200%" height="200%" filterUnits="objectBoundingBox" id="filter-22">
            <feGaussianBlur color-interpolation-filters="sRGB" stdDeviation="2" in="SourceGraphic"></feGaussianBlur>
        </filter>
        <filter x="-50%" y="-50%" width="200%" height="200%" filterUnits="objectBoundingBox" id="filter-23">
            <feGaussianBlur color-interpolation-filters="sRGB" stdDeviation="2" in="SourceGraphic"></feGaussianBlur>
        </filter>
        <filter x="-50%" y="-50%" width="200%" height="200%" filterUnits="objectBoundingBox" id="filter-24">
            <feGaussianBlur color-interpolation-filters="sRGB" stdDeviation="2" in="SourceGraphic"></feGaussianBlur>
        </filter>
        <path d="M210.5,32.5 C225.5,39 236.5,43.5 239,47 C241.5,50.5 224.5,172.5 209,185 C193.5,197.5 121,206.5 106.5,205 C92,203.5 43.5,176.0 33,167 C22.4,157.9 -0.4,36.5 1,9 C2.4,-18.5 195.5,26 210.5,32.5 Z" id="path-25"></path>
        <filter x="-50%" y="-50%" width="200%" height="200%" filterUnits="objectBoundingBox" id="filter-27">
            <feGaussianBlur color-interpolation-filters="sRGB" stdDeviation="2" in="SourceGraphic"></feGaussianBlur>
        </filter>
        <filter x="-50%" y="-50%" width="200%" height="200%" filterUnits="objectBoundingBox" id="filter-28">
            <feGaussianBlur color-interpolation-filters="sRGB" stdDeviation="2" in="SourceGraphic"></feGaussianBlur>
        </filter>
        <path d="M143.0,0.5 C169.5,-0.5 258.5,28 266,41.5 C273.5,55 273,120.5 264,128.5 C255,136.5 133.5,157.5 108,154 C82.5,150.5 19,122.5 8.5,111.5 C-2,100.5 -0.5,48 6.5,40 C13.5,32 116.5,1.5 143.0,0.5 Z" id="path-29"></path>
        <filter x="-50%" y="-50%" width="200%" height="200%" filterUnits="objectBoundingBox" id="filter-31">
            <feGaussianBlur color-interpolation-filters="sRGB" stdDeviation="2" in="SourceGraphic"></feGaussianBlur>
        </filter>
        <filter x="-50%" y="-50%" width="200%" height="200%" filterUnits="objectBoundingBox" id="filter-32">
            <feGaussianBlur color-interpolation-filters="sRGB" stdDeviation="2" in="SourceGraphic"></feGaussianBlur>
        </filter>
        <filter x="-50%" y="-50%" width="200%" height="200%" filterUnits="objectBoundingBox" id="filter-33">
            <feGaussianBlur color-interpolation-filters="sRGB" stdDeviation="2" in="SourceGraphic"></feGaussianBlur>
        </filter>
        <path d="M0.5,14.5 C3.5,54 19,157.5 32,173.5 C45,189.5 73,215.5 88.5,217 C104,218.5 193.5,213.5 204.5,205 C215.5,196.5 237,78.5 231.5,67.5 C226,56.5 184,33.5 184,33.5 C184,33.5 -2.5,-25 0.5,14.5 Z" id="path-34"></path>
        <filter x="-50%" y="-50%" width="200%" height="200%" filterUnits="objectBoundingBox" id="filter-36">
            <feGaussianBlur color-interpolation-filters="sRGB" stdDeviation="2" in="SourceGraphic"></feGaussianBlur>
        </filter>
        <filter x="-50%" y="-50%" width="200%" height="200%" filterUnits="objectBoundingBox" id="filter-37">
            <feGaussianBlur color-interpolation-filters="sRGB" stdDeviation="2" in="SourceGraphic"></feGaussianBlur>
        </filter>
        <path d="M257.0,49.9 C263.5,63.9 263.5,129 254.5,136.5 C245.5,144 95.5,157 73,150.5 C50.5,144 13,112.5 6.5,100.5 C1.4e-13,88.5 -3.0,41 6,31 C15.0,21 139.4,-1.0 168.5,0.5 C185.0,2.5 250.5,35.9 257.0,49.9 Z" id="path-38"></path>
        <filter x="-50%" y="-50%" width="200%" height="200%" filterUnits="objectBoundingBox" id="filter-40">
            <feGaussianBlur color-interpolation-filters="sRGB" stdDeviation="2" in="SourceGraphic"></feGaussianBlur>
        </filter>
        <filter x="-50%" y="-50%" width="200%" height="200%" filterUnits="objectBoundingBox" id="filter-41">
            <feGaussianBlur color-interpolation-filters="sRGB" stdDeviation="2" in="SourceGraphic"></feGaussianBlur>
        </filter>
        <filter x="-50%" y="-50%" width="200%" height="200%" filterUnits="objectBoundingBox" id="filter-42">
            <feGaussianBlur color-interpolation-filters="sRGB" stdDeviation="2" in="SourceGraphic"></feGaussianBlur>
        </filter>
        <path d="M1,17 C3.5,65.5 17.5,147 25.5,164 C33.5,181 45.5,209 58.5,215.5 C71.5,222 176,224.5 189.5,217 C203,209.5 219,92.5 214.5,77 C210,61.5 184,42 184,42 C184,42 -1.5,-31.5 1,17 Z" id="path-43"></path>
        <filter x="-50%" y="-50%" width="200%" height="200%" filterUnits="objectBoundingBox" id="filter-45">
            <feGaussianBlur color-interpolation-filters="sRGB" stdDeviation="2" in="SourceGraphic"></feGaussianBlur>
        </filter>
        <filter x="-50%" y="-50%" width="200%" height="200%" filterUnits="objectBoundingBox" id="filter-46">
            <feGaussianBlur color-interpolation-filters="sRGB" stdDeviation="2" in="SourceGraphic"></feGaussianBlur>
        </filter>
        <path d="M185.5,1.5 C199.5,5 238,45.5 240.5,56 C243,66.5 246.5,135 236.5,142.5 C226.5,150 58,150.5 42,142.5 C26,134.5 5.5,93 3,86.5 C0.5,80 -2,30.9 5.5,22.5 C13,14.0 150.5,-4.5 185.5,1.5 Z" id="path-47"></path>
        <filter x="-50%" y="-50%" width="200%" height="200%" filterUnits="objectBoundingBox" id="filter-49">
            <feGaussianBlur color-interpolation-filters="sRGB" stdDeviation="2" in="SourceGraphic"></feGaussianBlur>
        </filter>
        <filter x="-50%" y="-50%" width="200%" height="200%" filterUnits="objectBoundingBox" id="filter-50">
            <feGaussianBlur color-interpolation-filters="sRGB" stdDeviation="2" in="SourceGraphic"></feGaussianBlur>
        </filter>
        <filter x="-50%" y="-50%" width="200%" height="200%" filterUnits="objectBoundingBox" id="filter-51">
            <feGaussianBlur color-interpolation-filters="sRGB" stdDeviation="2" in="SourceGraphic"></feGaussianBlur>
        </filter>
        <path d="M0.5,22.5 C4.5,70 16,167 30.5,178.5 C45,190 158,201.5 170,193.5 C182,185.5 202,39 190.5,32.5 C179,26 30,18.5 30,18.5 C30,18.5 -3.5,-25 0.5,22.5 Z" id="path-52"></path>
        <filter x="-50%" y="-50%" width="200%" height="200%" filterUnits="objectBoundingBox" id="filter-54">
            <feGaussianBlur color-interpolation-filters="sRGB" stdDeviation="2" in="SourceGraphic"></feGaussianBlur>
        </filter>
        <path d="M7.0,13.5 C14.9,2.5 168.4,-4.9 198.4,5.4 C217.9,22.5 223.9,133.5 210.9,147.4 C208.9,156.4 20,145.0 8.5,131.5 C-3,117.9 -0.9,24.5 7.0,13.5 Z" id="path-55"></path>
        <filter x="-50%" y="-50%" width="200%" height="200%" filterUnits="objectBoundingBox" id="filter-57">
            <feGaussianBlur color-interpolation-filters="sRGB" stdDeviation="2" in="SourceGraphic"></feGaussianBlur>
        </filter>
        <filter x="-50%" y="-50%" width="200%" height="200%" filterUnits="objectBoundingBox" id="filter-58">
            <feGaussianBlur color-interpolation-filters="sRGB" stdDeviation="2" in="SourceGraphic"></feGaussianBlur>
        </filter>
        <path d="M93.7,200.9 C93.3,200.9 92.9,201 92.5,201 C72,201 44.0,201.0 34.5,194.5 C21.0,185.2 1.5,88.5 0.5,28 C-0.2,-20.2 66.5,8.1 93.7,21.6 C120.9,8.1 187.7,-20.2 186.9,28 C185.9,88.5 166.4,185.2 152.9,194.5 C143.4,201.0 115.4,201 94.9,201 C94.5,201 94.1,200.9 93.7,200.9 L93.7,200.9 Z" id="path-59"></path>
        <filter x="-50%" y="-50%" width="200%" height="200%" filterUnits="objectBoundingBox" id="filter-61">
            <feGaussianBlur color-interpolation-filters="sRGB" stdDeviation="1" in="SourceGraphic"></feGaussianBlur>
        </filter>
        <path d="M104.4,158.4 C103.9,158.4 103.5,158.5 103,158.5 C64.5,158.5 18.0,157 8.5,150 C-1.0,143 0.5,101.5 2,69.5 C3.5,37.5 17.5,14.5 21.5,8.5 C25.5,2.5 60,0.5 104,0.5 C104.1,0.5 104.3,0.5 104.4,0.5 C104.6,0.5 104.8,0.5 104.9,0.5 C148.9,0.5 183.4,2.5 187.4,8.5 C191.4,14.5 205.4,37.5 206.9,69.5 C208.4,101.5 209.9,143 200.4,150 C190.9,157 144.4,158.5 105.9,158.5 C105.4,158.5 104.9,158.4 104.4,158.4 L104.4,158.4 Z" id="path-62"></path>
        <filter x="-50%" y="-50%" width="200%" height="200%" filterUnits="objectBoundingBox" id="filter-64">
            <feGaussianBlur color-interpolation-filters="sRGB" stdDeviation="1" in="SourceGraphic"></feGaussianBlur>
        </filter>
        <circle id="path-65" cx="30.5" cy="30.5" r="30.5"></circle>
        <linearGradient x1="95.8%" y1="50%" x2="5.3%" y2="100%" id="linearGradient-67">
            <stop stop-color="#C66523" offset="0%"></stop>
            <stop stop-color="#FFE55E" offset="100%"></stop>
        </linearGradient>
        <path d="M30.5,61 C47.3,61 61,47.3 61,30.5 C61,13.6 47.3,0 30.5,0 C13.6,0 0,13.6 0,30.5 C0,47.3 13.6,61 30.5,61 Z" id="path-68"></path>
        <path d="M1,26.0 C4,60.9 19.9,168.9 34.5,182.6 C49.0,196.4 149,222.9 163.5,220.5 C173.5,220.5 202.5,182.6 206.5,171.8 C210.5,161.0 232.5,46.1 222.5,34.3 C212.5,22.5 122,1.9 122,1.9 C122,1.9 -2,-8.8 1,26.0 Z" id="path-70"></path>
        <filter x="-50%" y="-50%" width="200%" height="200%" filterUnits="objectBoundingBox" id="filter-72">
            <feGaussianBlur color-interpolation-filters="sRGB" stdDeviation="1" in="SourceGraphic"></feGaussianBlur>
        </filter>
        <filter x="-50%" y="-50%" width="200%" height="200%" filterUnits="objectBoundingBox" id="filter-73">
            <feGaussianBlur color-interpolation-filters="sRGB" stdDeviation="1" in="SourceGraphic"></feGaussianBlur>
        </filter>
        <path d="M66.5,1.5 C84,-2.5 233.0,5.0 246.0,17.5 C255.5,27.0 250.5,95.0 246.0,103.4 C241.5,111.9 206.5,154.9 188.5,160.5 C170.5,166.0 14.5,129.0 7,119.5 C-0.5,109.9 -0.9,61.4 5,48 C10.9,34.5 49,5.5 66.5,1.5 Z" id="path-74"></path>
        <filter x="-50%" y="-50%" width="200%" height="200%" filterUnits="objectBoundingBox" id="filter-76">
            <feGaussianBlur color-interpolation-filters="sRGB" stdDeviation="1" in="SourceGraphic"></feGaussianBlur>
        </filter>
        <filter x="-50%" y="-50%" width="200%" height="200%" filterUnits="objectBoundingBox" id="filter-77">
            <feGaussianBlur color-interpolation-filters="sRGB" stdDeviation="1" in="SourceGraphic"></feGaussianBlur>
        </filter>
        <filter x="-50%" y="-50%" width="200%" height="200%" filterUnits="objectBoundingBox" id="filter-78">
            <feGaussianBlur color-interpolation-filters="sRGB" stdDeviation="1" in="SourceGraphic"></feGaussianBlur>
        </filter>
        <path d="M0.5,18.5 C0.5,52 14.5,163.5 30.5,176 C46.5,188.5 150.5,206.5 167,202 C183.5,197.5 196.5,94 200,66.5 C203.5,39 207.5,26 193.5,16.5 C179.5,7 0.5,-15 0.5,18.5 Z" id="path-79"></path>
        <filter x="-50%" y="-50%" width="200%" height="200%" filterUnits="objectBoundingBox" id="filter-81">
            <feGaussianBlur color-interpolation-filters="sRGB" stdDeviation="2" in="SourceGraphic"></feGaussianBlur>
        </filter>
        <path d="M33,6.5 C45.5,-3 213,-0.5 222.5,9 C232,18.5 227.5,86.5 225,99.5 C222.5,112.4 211.5,150.4 200.5,154 C189.5,157.5 20.4,138 8.4,125.4 C-3.5,112.9 1.4,60.5 4,52.5 C6.5,44.4 20.5,16 33,6.5 Z" id="path-82"></path>
        <filter x="-50%" y="-50%" width="200%" height="200%" filterUnits="objectBoundingBox" id="filter-84">
            <feGaussianBlur color-interpolation-filters="sRGB" stdDeviation="2" in="SourceGraphic"></feGaussianBlur>
        </filter>
        <filter x="-50%" y="-50%" width="200%" height="200%" filterUnits="objectBoundingBox" id="filter-85">
            <feGaussianBlur color-interpolation-filters="sRGB" stdDeviation="2" in="SourceGraphic"></feGaussianBlur>
        </filter>
        <linearGradient x1="50%" y1="0%" x2="50%" y2="100%" id="linearGradient-86">
            <stop stop-color="#C66523" offset="0%"></stop>
            <stop stop-color="#FFE55E" offset="100%"></stop>
        </linearGradient>
        <ellipse id="path-87" cx="4.1" cy="30.0" rx="3.5" ry="30"></ellipse>
        <ellipse id="path-89" cx="3.3" cy="29.0" rx="2.5" ry="29"></ellipse>
        <path d="M0.5,14.5 C-1.0,45.5 21,160 35,179 C45.5,194.4 142,225.5 154.5,225.5 C163.5,226.4 207,190.5 212.5,182 C218,173.4 239.5,49.0 233,39.5 C224.5,24.5 169.5,12.5 169.5,12.5 C169.5,12.5 2.0,-16.5 0.5,14.5 Z" id="path-91"></path>
        <filter x="-50%" y="-50%" width="200%" height="200%" filterUnits="objectBoundingBox" id="filter-93">
            <feGaussianBlur color-interpolation-filters="sRGB" stdDeviation="1" in="SourceGraphic"></feGaussianBlur>
        </filter>
        <filter x="-50%" y="-50%" width="200%" height="200%" filterUnits="objectBoundingBox" id="filter-94">
            <feGaussianBlur color-interpolation-filters="sRGB" stdDeviation="1" in="SourceGraphic"></feGaussianBlur>
        </filter>
        <path d="M257,24.5 C266,32.5 263.5,100 258,110 C252.5,120 190,165 169,166 C148,167 13.5,124.5 6,114 C-1.5,103.5 -1.5,53.5 5,42 C11.5,30.5 71.0,2 93,0.5 C114.9,-1 248,16.5 257,24.5 Z" id="path-95"></path>
        <filter x="-50%" y="-50%" width="200%" height="200%" filterUnits="objectBoundingBox" id="filter-97">
            <feGaussianBlur color-interpolation-filters="sRGB" stdDeviation="1" in="SourceGraphic"></feGaussianBlur>
        </filter>
        <filter x="-50%" y="-50%" width="200%" height="200%" filterUnits="objectBoundingBox" id="filter-98">
            <feGaussianBlur color-interpolation-filters="sRGB" stdDeviation="1" in="SourceGraphic"></feGaussianBlur>
        </filter>
        <filter x="-50%" y="-50%" width="200%" height="200%" filterUnits="objectBoundingBox" id="filter-99">
            <feGaussianBlur color-interpolation-filters="sRGB" stdDeviation="1" in="SourceGraphic"></feGaussianBlur>
        </filter>
        <path d="M226.5,34.5 C236,43.5 236,44.5 237.5,50.5 C239,56.5 224,178 211.5,192 C208.4,196.5 151.4,229.0 136.5,229 C125,228 47.5,191.5 35.5,177 C23.5,162.5 -5.4,40 1,12 C7.4,-16 188.0,13.9 189,13 C189.9,12.0 217,25.5 226.5,34.5 Z" id="path-100"></path>
        <filter x="-50%" y="-50%" width="200%" height="200%" filterUnits="objectBoundingBox" id="filter-102">
            <feGaussianBlur color-interpolation-filters="sRGB" stdDeviation="1" in="SourceGraphic"></feGaussianBlur>
        </filter>
        <filter x="-50%" y="-50%" width="200%" height="200%" filterUnits="objectBoundingBox" id="filter-103">
            <feGaussianBlur color-interpolation-filters="sRGB" stdDeviation="1" in="SourceGraphic"></feGaussianBlur>
        </filter>
        <path d="M110.9,1 C136.4,-0.4 260,23.9 266,35.5 C272,47.0 269.5,115.4 263,121.5 C256.5,127.5 172.5,171.0 147.5,169.5 C122.5,167.9 14.5,119.4 6,109 C-2.5,98.5 -0.9,48.0 5.5,39.5 C11.9,30.9 85.4,2.5 110.9,1 Z" id="path-104"></path>
        <filter x="-50%" y="-50%" width="200%" height="200%" filterUnits="objectBoundingBox" id="filter-106">
            <feGaussianBlur color-interpolation-filters="sRGB" stdDeviation="1" in="SourceGraphic"></feGaussianBlur>
        </filter>
        <filter x="-50%" y="-50%" width="200%" height="200%" filterUnits="objectBoundingBox" id="filter-107">
            <feGaussianBlur color-interpolation-filters="sRGB" stdDeviation="1" in="SourceGraphic"></feGaussianBlur>
        </filter>
        <filter x="-50%" y="-50%" width="200%" height="200%" filterUnits="objectBoundingBox" id="filter-108">
            <feGaussianBlur color-interpolation-filters="sRGB" stdDeviation="1" in="SourceGraphic"></feGaussianBlur>
        </filter>
        <path d="M0,17 C0,63 24.5,168.5 36,184 C47.5,199.5 109,242.4 121.5,243.4 C134,244.4 205,220.9 212.5,210.4 C220,199.9 246.5,74.4 237.5,63.5 C228.5,52.5 199.5,34.5 199.5,34.5 C199.5,34.5 2.8e-15,-29 0,17 Z" id="path-109"></path>
        <filter x="-50%" y="-50%" width="200%" height="200%" filterUnits="objectBoundingBox" id="filter-111">
            <feGaussianBlur color-interpolation-filters="sRGB" stdDeviation="1" in="SourceGraphic"></feGaussianBlur>
        </filter>
        <filter x="-50%" y="-50%" width="200%" height="200%" filterUnits="objectBoundingBox" id="filter-112">
            <feGaussianBlur color-interpolation-filters="sRGB" stdDeviation="1" in="SourceGraphic"></feGaussianBlur>
        </filter>
        <path d="M133,0.5 C156,0.5 254.5,29 262,40 C269.5,51 268.5,120.5 261,128 C253.5,135.5 142.5,174 120,168.5 C97.5,163 15.5,115.2 6.5,100 C-2.5,84.7 2.4e-07,38 7,30.5 C13.9,23 87.9,1.5 133,0.5 Z" id="path-113"></path>
        <filter x="-50%" y="-50%" width="200%" height="200%" filterUnits="objectBoundingBox" id="filter-115">
            <feGaussianBlur color-interpolation-filters="sRGB" stdDeviation="1" in="SourceGraphic"></feGaussianBlur>
        </filter>
        <filter x="-50%" y="-50%" width="200%" height="200%" filterUnits="objectBoundingBox" id="filter-116">
            <feGaussianBlur color-interpolation-filters="sRGB" stdDeviation="1" in="SourceGraphic"></feGaussianBlur>
        </filter>
        <filter x="-50%" y="-50%" width="200%" height="200%" filterUnits="objectBoundingBox" id="filter-117">
            <feGaussianBlur color-interpolation-filters="sRGB" stdDeviation="1" in="SourceGraphic"></feGaussianBlur>
        </filter>
        <path d="M0.4,3.5 C-3.5,19.0 23.5,156 35.5,174 C47.4,192 88.4,234.4 100.9,236.9 C113.4,239.4 195.5,220.4 204.5,211.5 C213.4,202.5 238.4,74.4 231.0,60.9 C223.5,47.4 193,40 193,40 C193,40 4.4,-11.9 0.4,3.5 Z" id="path-118"></path>
        <filter x="-50%" y="-50%" width="200%" height="200%" filterUnits="objectBoundingBox" id="filter-120">
            <feGaussianBlur color-interpolation-filters="sRGB" stdDeviation="1" in="SourceGraphic"></feGaussianBlur>
        </filter>
        <filter x="-50%" y="-50%" width="200%" height="200%" filterUnits="objectBoundingBox" id="filter-121">
            <feGaussianBlur color-interpolation-filters="sRGB" stdDeviation="1" in="SourceGraphic"></feGaussianBlur>
        </filter>
        <path d="M141.5,0 C161.5,1.5 244.5,32.5 252.5,45.5 C260.5,58.5 261,125.5 250.5,136 C240,146.5 107.5,171.5 88,166 C68.5,160.5 9.5,103 4,89.5 C-1.5,76 -0.5,33 6.5,26 C13.5,19 76.0,3 141.5,0 Z" id="path-122"></path>
        <filter x="-50%" y="-50%" width="200%" height="200%" filterUnits="objectBoundingBox" id="filter-124">
            <feGaussianBlur color-interpolation-filters="sRGB" stdDeviation="1" in="SourceGraphic"></feGaussianBlur>
        </filter>
        <filter x="-50%" y="-50%" width="200%" height="200%" filterUnits="objectBoundingBox" id="filter-125">
            <feGaussianBlur color-interpolation-filters="sRGB" stdDeviation="1" in="SourceGraphic"></feGaussianBlur>
        </filter>
        <filter x="-50%" y="-50%" width="200%" height="200%" filterUnits="objectBoundingBox" id="filter-126">
            <feGaussianBlur color-interpolation-filters="sRGB" stdDeviation="1" in="SourceGraphic"></feGaussianBlur>
        </filter>
        <path d="M1,10 C-1,34 21.0,148.9 31,177 C45.0,202.9 70.4,240.9 78.4,243.4 C90.4,247.2 180.9,237.5 191,225.5 C201.0,213.5 219.9,105.5 218.5,79.5 C217.0,53.5 163.5,43.5 163.5,43.5 C163.5,43.5 29.9,16.5 30,16.5 C30.0,16.5 3,-14 1,10 Z" id="path-127"></path>
        <filter x="-50%" y="-50%" width="200%" height="200%" filterUnits="objectBoundingBox" id="filter-129">
            <feGaussianBlur color-interpolation-filters="sRGB" stdDeviation="1" in="SourceGraphic"></feGaussianBlur>
        </filter>
        <filter x="-50%" y="-50%" width="200%" height="200%" filterUnits="objectBoundingBox" id="filter-130">
            <feGaussianBlur color-interpolation-filters="sRGB" stdDeviation="1" in="SourceGraphic"></feGaussianBlur>
        </filter>
        <path d="M155.5,1.5 C174.5,3.6 229,39.5 235.5,52 C242,64.5 241.5,132.5 232.5,141 C223.5,149.5 84.4,168.4 57.5,163 C43.8,160.2 8.4,100.5 3.4,85.5 C-1.5,70.5 -1.4,25.9 6,19 C13.4,12.0 110.9,-3.4 155.5,1.5 Z" id="path-131"></path>
        <filter x="-50%" y="-50%" width="200%" height="200%" filterUnits="objectBoundingBox" id="filter-133">
            <feGaussianBlur color-interpolation-filters="sRGB" stdDeviation="1" in="SourceGraphic"></feGaussianBlur>
        </filter>
        <filter x="-50%" y="-50%" width="200%" height="200%" filterUnits="objectBoundingBox" id="filter-134">
            <feGaussianBlur color-interpolation-filters="sRGB" stdDeviation="1" in="SourceGraphic"></feGaussianBlur>
        </filter>
        <filter x="-50%" y="-50%" width="200%" height="200%" filterUnits="objectBoundingBox" id="filter-135">
            <feGaussianBlur color-interpolation-filters="sRGB" stdDeviation="1" in="SourceGraphic"></feGaussianBlur>
        </filter>
        <path d="M0.5,6 C-1,20.5 8.0,87 15.5,121 C22.9,155 39.9,224 53,229 C66.0,234 160.0,229.5 170.5,221.5 C180.9,213.5 193.0,153 196.5,115.5 C199.9,78 206.5,71.5 193,58.5 C179.4,45.5 44.5,12.5 44.5,12.5 C44.5,12.5 2,-8.5 0.5,6 Z" id="path-136"></path>
        <filter x="-50%" y="-50%" width="200%" height="200%" filterUnits="objectBoundingBox" id="filter-138">
            <feGaussianBlur color-interpolation-filters="sRGB" stdDeviation="1" in="SourceGraphic"></feGaussianBlur>
        </filter>
        <filter x="-50%" y="-50%" width="200%" height="200%" filterUnits="objectBoundingBox" id="filter-139">
            <feGaussianBlur color-interpolation-filters="sRGB" stdDeviation="1" in="SourceGraphic"></feGaussianBlur>
        </filter>
        <path d="M164,3 C175,6 211,42.5 215,55.5 C219,68.5 223,139 212,146.5 C201,154 139,158.5 109.5,159.5 C80,160.5 30.5,163.5 23.5,156 C16.5,148.5 5.5,106.5 3,88.5 C0.5,70.5 -2.5,22 5.5,15 C13.5,8 52.4,3.0 89.4,1.5 C126.4,-1.4e-08 153,6.0e-14 164,3 Z" id="path-140"></path>
        <filter x="-50%" y="-50%" width="200%" height="200%" filterUnits="objectBoundingBox" id="filter-142">
            <feGaussianBlur color-interpolation-filters="sRGB" stdDeviation="1" in="SourceGraphic"></feGaussianBlur>
        </filter>
        <filter x="-50%" y="-50%" width="200%" height="200%" filterUnits="objectBoundingBox" id="filter-143">
            <feGaussianBlur color-interpolation-filters="sRGB" stdDeviation="1" in="SourceGraphic"></feGaussianBlur>
        </filter>
        <filter x="-50%" y="-50%" width="200%" height="200%" filterUnits="objectBoundingBox" id="filter-144">
            <feGaussianBlur color-interpolation-filters="sRGB" stdDeviation="1" in="SourceGraphic"></feGaussianBlur>
        </filter>
        <path d="M0,20.5 C0,46.5 15.5,166.5 30.5,180 C38.5,188.5 137,195.5 147,191.5 C157,187.5 176,160.5 180,148.5 C184,136.5 211.5,26.5 204,14 C196.5,1.5 143.5,1 143.5,1 C143.5,1 1.4e-15,-5.5 0,20.5 Z" id="path-145"></path>
        <filter x="-50%" y="-50%" width="200%" height="200%" filterUnits="objectBoundingBox" id="filter-147">
            <feGaussianBlur color-interpolation-filters="sRGB" stdDeviation="2" in="SourceGraphic"></feGaussianBlur>
        </filter>
        <filter x="-50%" y="-50%" width="200%" height="200%" filterUnits="objectBoundingBox" id="filter-148">
            <feGaussianBlur color-interpolation-filters="sRGB" stdDeviation="2" in="SourceGraphic"></feGaussianBlur>
        </filter>
        <path d="M217,14 C230,23.5 226,91.4 219.5,102 C213,112.5 187.5,142.0 172.5,147.0 C157.5,152.0 17,143.5 7.0,133.5 C-3,123.5 1.0,70 3,62 C4.9,54 30.0,8.9 46.5,2.9 C63.0,-3.0 204,4.5 217,14 Z" id="path-149"></path>
        <filter x="-50%" y="-50%" width="200%" height="200%" filterUnits="objectBoundingBox" id="filter-151">
            <feGaussianBlur color-interpolation-filters="sRGB" stdDeviation="2" in="SourceGraphic"></feGaussianBlur>
        </filter>
        <filter x="-50%" y="-50%" width="200%" height="200%" filterUnits="objectBoundingBox" id="filter-152">
            <feGaussianBlur color-interpolation-filters="sRGB" stdDeviation="2" in="SourceGraphic"></feGaussianBlur>
        </filter>
        <filter x="-50%" y="-50%" width="200%" height="200%" filterUnits="objectBoundingBox" id="filter-153">
            <feGaussianBlur color-interpolation-filters="sRGB" stdDeviation="2" in="SourceGraphic"></feGaussianBlur>
        </filter>
        <ellipse id="path-154" cx="13.2" cy="31.8" rx="10.5" ry="31"></ellipse>
        <ellipse id="path-156" cx="11.2" cy="31.1" rx="8.5" ry="30.5"></ellipse>
        <path d="M19.7,64.7 C28.6,64.7 35.8,50.6 35.8,33.2 C35.8,15.8 28.6,1.7 19.7,1.7 C10.9,1.7 3.7,15.8 3.7,33.2 C3.7,50.6 10.9,64.7 19.7,64.7 Z" id="path-158"></path>
        <ellipse id="path-160" cx="17.1" cy="31.9" rx="13.5" ry="30.5"></ellipse>
        <ellipse id="path-162" cx="26.9" cy="34.9" rx="20.0" ry="31.5"></ellipse>
        <ellipse id="path-164" cx="24.1" cy="34.0" rx="18.0" ry="31"></ellipse>
        <ellipse id="path-166" cx="32.8" cy="37.5" rx="23.9" ry="31.5"></ellipse>
        <ellipse id="path-168" cx="29.3" cy="35.9" rx="22.4" ry="31.5"></ellipse>
        <ellipse id="path-170" cx="37.9" cy="40.0" rx="26.5" ry="31.5"></ellipse>
        <ellipse id="path-172" cx="37.0" cy="39.6" rx="25.5" ry="31.5"></ellipse>
        <ellipse id="path-174" cx="43.0" cy="42.3" rx="28" ry="32"></ellipse>
        <ellipse id="path-176" cx="42.1" cy="41.9" rx="28" ry="31.5"></ellipse>
        <ellipse id="path-178" cx="42.7" cy="42.7" rx="29.5" ry="31"></ellipse>
        <path d="M42.7,73.7 C59.0,73.7 72.2,59.8 72.2,42.7 C72.2,25.5 59.0,11.7 42.7,11.7 C26.4,11.7 13.2,25.5 13.2,42.7 C13.2,59.8 26.4,73.7 42.7,73.7 Z" id="path-180"></path>
    </defs>
    <g id="Page-1" stroke="none" stroke-width="1" fill="none" fill-rule="evenodd">
        <g id="rob_rot">
            <g id="Group-50" transform="translate(464.0, 1353.0)">
                <mask id="mask-2" fill="white">
                    <use xlink:href="#path-1"></use>
                </mask>
                <use id="Mask" fill="#FFE55E" xlink:href="#path-1"></use>
                <path d="M5.5,17 C5.5,18.3 140.8,17.0 192,26.5 C209.6,29.7 185.9,50.4 186,51.0 C186.5,60.0 52,62.9 7.8,53.8 C11.9,106.6 20.1,178.1 34,207 C51.5,243.5 139.5,248 153.5,207.5 C167.5,167 183,94.5 183,31 C183,-32.5 215.5,9.0 217.5,11.5 C219.5,13.9 188,228.0 188,228 C188,227.9 60,244.5 58,244.5 C56,244.4 -2,220 -2,220 L-18,22 C-18,22 3,-32 5.5,17 Z" id="Path-149" fill="#F3B34D" filter="url(#filter-3)" mask="url(#mask-2)"></path>
            </g>
            <g id="Group-21" transform="translate(460.0, 1265.0)">
                <mask id="mask-5" fill="white">
                    <use xlink:href="#path-4"></use>
                </mask>
                <use id="Mask" fill="#FFE55E" xlink:href="#path-4"></use>
                <path d="M9.5,148 C2.3,116.5 5.4,90 7.5,67.5 C46.4,65 99.8,58.9 191.1,68.5 C195.3,92 193.2,120.4 190.1,143 C187.0,165.5 234.7,110.9 234.7,108.5 C234.7,106.0 227.4,-3.5 224.8,-6 C222.2,-8.5 111.7,-26.5 101.4,-26.5 C91.0,-26.5 -55.2,-6 -55.2,-6 C-55.2,-6 -50.5,43.5 -47.4,48 C-44.3,52.5 -18.9,108 -18.9,108 C-18.9,108 -12.1,143 9.5,148 Z" id="Path-148" fill="#F3B34D" filter="url(#filter-6)" mask="url(#mask-5)"></path>
                <path d="M0.1,26.5 C5.1,18 7.1,6 49.6,5 L49.6,8 C11.6,10 9.6,14.5 0.1,29.5 C-9.3,44.5 -3.3,35 0.1,26.5 Z" id="Path-78" fill="#000000" mask="url(#mask-5)"></path>
                <path d="M201.5,26.5 C196.5,18 194.5,6 152,5 L152,8 C190,10 192,14.5 201.5,29.5 C211,44.5 205,35 201.5,26.5 L201.5,26.5 Z" id="Path-78-Copy" fill="#000000" mask="url(#mask-5)"></path>
            </g>
            <g id="Group-48" transform="translate(1562.0, 972.0)">
                <mask id="mask-8" fill="white">
                    <use xlink:href="#path-7"></use>
                </mask>
                <use id="Mask" fill="#FFE55E" xlink:href="#path-7"></use>
                <path d="M159.5,21.5 C159.5,63.5 145.5,178 134.5,204 C123.5,230 222.5,161 222.5,161 L242.5,23 L230.5,-7 L174,-11 C174,-11 159.5,-20.5 159.5,21.5 Z" id="Path-141" fill="#F3B34D" filter="url(#filter-9)" mask="url(#mask-8)"></path>
                <path d="M53,13.5 C62,46 69,153.5 115,204 C161,254.5 3.5,183.5 3.5,180 C3.5,176.5 -28,15.5 -28,15.5 C-28,15.5 -18.5,-9 -16.5,-9 C-14.5,-9 47.5,13.5 47.5,13.5 C47.5,13.5 44,-19 53,13.5 Z" id="Path-142" fill="#F3B34D" opacity="0.4" filter="url(#filter-10)" mask="url(#mask-8)"></path>
            </g>
            <path d="M1735,997.5 C1750,995.5 1774.5,990 1777,989.5 C1779.5,989 1777,985 1757,984.5 C1737,984 1720,999.5 1735,997.5 Z" id="Path-71" fill="#000000"></path>
            <g id="Group-24" transform="translate(1553.0, 854.0)">
                <mask id="mask-12" fill="white">
                    <use xlink:href="#path-11"></use>
                </mask>
                <use id="Mask" fill="#FFE55E" xlink:href="#path-11"></use>
                <path d="M-11.5,55.5 C28,55.5 113.5,70 154.5,81 C204,49.5 257,17 257,17 L61,-10 C61,-10 -51,55.5 -11.5,55.5 Z" id="Path-138" fill="#F3B34D" filter="url(#filter-13)" mask="url(#mask-12)"></path>
                <path d="M250,24 L159.5,82.5 C159.5,82.5 163.5,148.5 159,175.5 C154.5,202.5 275,110 275,110 L250,24 Z" id="Path-139" fill="#F3B34D" filter="url(#filter-14)" mask="url(#mask-12)"></path>
                <path d="M-23,57.5 C-23,57.5 22.5,62 40,65.5 C40,101.5 58.5,156.5 58.5,156.5 C58.5,156.5 -30.5,139 -30.5,136.5 C-30.5,134 -23,57.5 -23,57.5 Z" id="Path-140" fill="#F3B34D" opacity="0.4" filter="url(#filter-15)" mask="url(#mask-12)"></path>
                <path d="M203.5,15.5 C218,18.5 238,22.5 241.5,27.5 C245,32.5 246,62 246,62 L240.5,66.5 C240.5,66.5 241,34.5 235.5,30 C230,25.5 205.5,20.5 196.5,19 C199,17.5 200.5,17 203.5,15.5 Z" id="Path-69" fill="#000000" mask="url(#mask-12)"></path>
                <path d="M71.5,3 C81,1.5 104,2.9 109,3.5 C106.5,4.4 103.5,6 103.5,6 C103.5,6 73.5,4.5 66.5,5.5 C59.5,6.4 62,4.5 71.5,3 Z" id="Path-70" fill="#000000" mask="url(#mask-12)"></path>
            </g>
            <g id="Group-47" transform="translate(1184.0, 956.0)">
                <mask id="mask-17" fill="white">
                    <use xlink:href="#path-16"></use>
                </mask>
                <use id="Mask" fill="#FFE55E" xlink:href="#path-16"></use>
                <polygon id="Path-136" fill="#F3B34D" opacity="0.5" filter="url(#filter-18)" mask="url(#mask-17)" points="81 34 106.5 210.5 0 178 -33 16.5 -11.5 0"></polygon>
                <polygon id="Path-137" fill="#F3B34D" filter="url(#filter-19)" mask="url(#mask-17)" points="139.5 40.5 128 226.5 238 182.5 243 12 186.5 13.5"></polygon>
            </g>
            <path d="M1344.5,1001 C1368.5,1000 1406.5,997.5 1409.5,996.5 C1412.5,995.5 1408.5,992 1389.5,989 C1370.5,986 1320.5,1002 1344.5,1001 Z" id="Path-66" fill="#000000"></path>
            <g id="Group-25" transform="translate(1174.0, 854.0)">
                <mask id="mask-21" fill="white">
                    <use xlink:href="#path-20"></use>
                </mask>
                <use id="Mask" fill="#FFE55E" xlink:href="#path-20"></use>
                <path d="M1.5,46.5 C37.5,50.5 104,68.5 131.5,80.5 C170.5,63.5 236,35 269,28 C302,21 106,-22 106,-22 L-5,35.5 C-5,35.5 -34.5,42.5 1.5,46.5 Z" id="Path-133" fill="#F3B34D" filter="url(#filter-22)" mask="url(#mask-21)"></path>
                <path d="M-14.9,50 C-0.9,52 30.2,55.0 72.5,71.0 C72.5,101.0 85.4,160.0 85.4,162.0 C85.4,164.0 -5,126 -6,126 C-7,126 -28.9,48 -14.9,50 Z" id="Path-134" fill="#F3B34D" opacity="0.5" filter="url(#filter-23)" mask="url(#mask-21)"></path>
                <path d="M269,32.5 C269,32.5 166,68 138,84 C138,109 137,168.5 137,168.5 L273,125.5 L269,32.5 Z" id="Path-135" fill="#F3B34D" filter="url(#filter-24)" mask="url(#mask-21)"></path>
                <path d="M220.5,21 L211,24 C211,24 241,32 246,39.5 C251,47 251,74 251,74 L259.5,70.5 C259.5,70.5 261,41.5 254.5,35 C248,28.5 220.5,21 220.5,21 Z" id="Path-64" fill="#000000" mask="url(#mask-21)"></path>
                <path d="M102,1.5 C111.5,0.5 130,3.0 134,3.5 C131,4.4 129,5.5 126.5,6.5 C113,4.4 104,3.5 93,4 C82,4.4 92.5,2.5 102,1.5 Z" id="Path-65" fill="#000000" mask="url(#mask-21)"></path>
            </g>
            <g id="Group-46" transform="translate(813.0, 956.0)">
                <mask id="mask-26" fill="white">
                    <use xlink:href="#path-25"></use>
                </mask>
                <use id="Mask" fill="#FFE55E" xlink:href="#path-25"></use>
                <path d="M108.5,46 C108.5,72.5 108,215.5 108,215.5 C108,215.5 234.5,196 234.5,194 C234.5,192 264,23 262,23 C260,23 184,9.5 184,9.5 C184,9.5 108.5,19.5 108.5,46 Z" id="Path-131" fill="#F3B34D" opacity="0.6" filter="url(#filter-27)" mask="url(#mask-26)"></path>
                <path d="M-26,-11.5 L88.5,47 C88.5,47 95,196.5 98.5,216.5 C102,236.5 21.5,178.5 21.5,178.5 L-17.5,57 L-26,-11.5 Z" id="Path-132" fill="#F3B34D" opacity="0.6" filter="url(#filter-28)" mask="url(#mask-26)"></path>
            </g>
            <path d="M942.5,1002.5 C965,1004 1036.5,1005.5 1040.5,1003.5 C1044.5,1001.5 1024,994 1013,989.5 C1002,985 920,1001 942.5,1002.5 Z" id="Path-62" fill="#000000"></path>
            <g id="Group-26" transform="translate(800.0, 854.0)">
                <mask id="mask-30" fill="white">
                    <use xlink:href="#path-29"></use>
                </mask>
                <use id="Mask" fill="#FFE55E" xlink:href="#path-29"></use>
                <path d="M-1.5,37 C10.0,40.9 30.3,47.1 51.0,55.5 C75.1,65.2 99.6,76.9 108.5,80.5 C125.8,75.8 157.9,64.0 190.5,55.5 C238.7,42.8 287.5,33.5 287.5,33.5 L138.5,-13 C138.5,-13 -26.5,28.5 -1.5,37 Z" id="Path-128" fill="#F3B34D" filter="url(#filter-31)" mask="url(#mask-30)"></path>
                <path d="M275.5,39.5 L119,82.5 L119,168.5 C119,182.5 285,133.5 285,133.5 L275.5,39.5 Z" id="Path-129" fill="#F3B34D" opacity="0.6" filter="url(#filter-32)" mask="url(#mask-30)"></path>
                <path d="M-9.5,35 L98.5,82 C98.5,82 95.5,132.5 98.5,166 C101.5,199.5 -12.5,113.5 -12.5,113.5 L-9.5,35 Z" id="Path-130" fill="#F3B34D" opacity="0.6" filter="url(#filter-33)" mask="url(#mask-30)"></path>
                <path d="M228,26.5 L217,28.5 C217,28.5 241,38 245.5,45.5 C250,53 249.5,82 249.5,82 L260.5,79.5 C260.5,79.5 262,47.5 256,42 C250,36.5 228,26.5 228,26.5 Z" id="Path-60" fill="#000000" mask="url(#mask-30)"></path>
                <path d="M129.5,0.5 C135.5,-1.5 153.5,3 156,4 C153,4.5 150.5,5 147.5,5.5 C147.5,5.5 128,0.9 119,2 C115.8,0.9 123.4,2.5 129.5,0.5 Z" id="Path-61" fill="#000000" mask="url(#mask-30)"></path>
            </g>
            <g id="Group-45" transform="translate(446.0, 943.0)">
                <mask id="mask-35" fill="white">
                    <use xlink:href="#path-34"></use>
                </mask>
                <use id="Mask" fill="#FFE55E" xlink:href="#path-34"></use>
                <path d="M61,57 C61,101 68,199 78.5,228.5 C89,258 2,169.5 2,169.5 L-25.5,15 L-3,2.5 C-3,2.5 61,13 61,57 Z" id="Path-126" fill="#F3B34D" opacity="0.6" filter="url(#filter-36)" mask="url(#mask-35)"></path>
                <path d="M119.4,49.4 C121.4,109.9 104,209.0 97.0,236.5 C90.0,264.0 222.4,214 222.5,211.5 C222.5,209 249,49.5 249,49.5 L183,23 C183,23 117.4,-10.9 119.4,49.4 Z" id="Path-127" fill="#F3B34D" opacity="0.6" filter="url(#filter-37)" mask="url(#mask-35)"></path>
            </g>
            <path d="M556,1003.5 C583,1006.5 660,1013.6 664.5,1010.5 C669,1007.3 639,990 639,990 C639,990 529,1000.5 556,1003.5 Z" id="Path-58" fill="#000000"></path>
            <g id="Group-27" transform="translate(434.0, 855.0)">
                <mask id="mask-39" fill="white">
                    <use xlink:href="#path-38"></use>
                </mask>
                <use id="Mask" fill="#FFE55E" xlink:href="#path-38"></use>
                <path d="M-1,26.5 C18,39.5 58.5,67.5 71,79 C118,70.5 270.5,46.5 270.5,46.5 L160,-16.5 C160,-16.5 -20,13.5 -1,26.5 Z" id="Path-123" fill="#F3B34D" filter="url(#filter-40)" mask="url(#mask-39)"></path>
                <path d="M-6,24 L66.5,82 C66.5,82 61,135.5 68.5,158.5 C76,181.5 -18.5,98.5 -18.5,98.5 L-6,24 Z" id="Path-124" fill="#F3B34D" opacity="0.6" filter="url(#filter-41)" mask="url(#mask-39)"></path>
                <path d="M145.5,71.5 C145.5,108 141.5,166 132,185 C122.5,204 285.9,153 286,148.5 C286.0,144 272.4,52 272.4,52 C272.4,52 201.5,61.5 145.5,71.5 Z" id="Path-125" fill="#F3B34D" opacity="0.6" filter="url(#filter-42)" mask="url(#mask-39)"></path>
                <path d="M224.5,33 C231.5,37 242.5,45 244.5,50.5 C246.5,56 247.5,74.5 247.5,86.5 C240,88 233.5,88.5 233.5,88.5 C233.5,88.5 234.5,59.5 230,51 C225.5,42.5 210,33 210,33 L224.5,33 Z" id="Path-56" fill="#000000" mask="url(#mask-39)"></path>
                <path d="M138.5,-0.5 C143,-0.5 158,5 161,6.5 C166.5,6.0 172,5 172,5 C172,5 154,-2.5 148,-3 C142,-3.5 134,-0.5 138.5,-0.5 Z" id="Path-57" fill="#000000" mask="url(#mask-39)"></path>
            </g>
            <g id="Group-44" transform="translate(83.0, 939.0)">
                <mask id="mask-44" fill="white">
                    <use xlink:href="#path-43"></use>
                </mask>
                <use id="Mask" fill="#FFE55E" xlink:href="#path-43"></use>
                <path d="M31.5,44.5 C31.5,87 37.5,189 52,222.5 C66.5,256 -5,174 -5,172 C-5,170 -21.5,4 -21.5,4 L3.5,0 C3.5,0 31.5,2 31.5,44.5 Z" id="Path-118" fill="#F3B34D" opacity="0.8" filter="url(#filter-45)" mask="url(#mask-44)"></path>
                <path d="M145,48.5 C136.5,101 119,204 78.5,244.5 C38,285 222,233 222,233 L231.5,44.5 C231.5,44.5 153.5,-4 145,48.5 Z" id="Path-119" fill="#F3B34D" opacity="0.5" filter="url(#filter-46)" mask="url(#mask-44)"></path>
            </g>
            <path d="M163.5,1003.5 C192.5,1007.5 285.5,1023 290.5,1018.5 C295.5,1014 272,995.5 272,995.5 C272,995.5 134.5,999.5 163.5,1003.5 Z" id="Path-54" fill="#000000"></path>
            <g id="Group-28" transform="translate(71.0, 858.0)">
                <mask id="mask-48" fill="white">
                    <use xlink:href="#path-47"></use>
                </mask>
                <use id="Mask" fill="#FFE55E" xlink:href="#path-47"></use>
                <path d="M0.5,17.5 C10.5,33 35.5,68 41,73.5 C88.5,68 219,57 250.5,53.5 C282,50 202.5,-5.5 202.5,-5.5 L121.5,-10 C121.5,-10 -9.5,2 0.5,17.5 Z" id="Path-120" fill="#F3B34D" filter="url(#filter-49)" mask="url(#mask-48)"></path>
                <path d="M246.5,54 L185.5,59.5 C185.5,59.5 179.5,123.5 166,157.5 C152.5,191.5 256,154 256,154 L246.5,54 Z" id="Path-121" fill="#F3B34D" opacity="0.5" filter="url(#filter-50)" mask="url(#mask-48)"></path>
                <path d="M0.5,18.5 L39,72 C39,72 36.5,125.5 41.5,151 C46.5,176.5 -17,85.5 -17,85.5 L0.5,18.5 Z" id="Path-122" fill="#F3B34D" opacity="0.8" filter="url(#filter-51)" mask="url(#mask-48)"></path>
                <path d="M196.5,36 L211.5,36 C211.5,36 220,45 223.5,53.5 C227,62 225,91.5 225,91.5 L209.5,92.5 C209.5,92.5 211,61.5 208.5,55 C206,48.5 196.5,36 196.5,36 Z" id="Path-52" fill="#000000" mask="url(#mask-48)"></path>
                <path d="M154.5,-2.5 C157.5,-1.5 164,4 166.5,6 C172,5.5 180,5.5 180,5.5 C180,5.5 169,-4 164.5,-5.5 C160,-7 151.5,-3.5 154.5,-2.5 Z" id="Path-53" fill="#000000" mask="url(#mask-48)"></path>
            </g>
            <g id="Group-6-Copy-19" transform="translate(1746.3, 592.5) scale(-1, 1) rotate(74.0) translate(-1746.3, -592.5) translate(1715.3, 535.5)" fill="#000000">
                <path d="M39.1,106.6 C36.6,107.5 33.8,108 31,108 C17.1,108 6,96.8 6,83 C6,69.1 17.1,58 31,58 C44.8,58 56,69.1 56,83 C56,87.9 54.5,92.5 52.0,96.4 L44.1,91.3 C44.6,90.0 45,88.5 45,87 C45,80.9 40.0,76 34,76 C27.9,76 23,80.9 23,87 C23,93.0 27.9,98 34,98 C34.8,98 35.6,97.9 36.4,97.7 L36.4,97.7 L39.1,106.6 Z" id="Combined-Shape" transform="translate(31.0, 83.0) rotate(74.0) translate(-31.0, -83.0) "></path>
                <path d="M26.4,0.8 C26.4,0.8 9.4,44.4 13.0,70.7 C20.0,70.7 31.5,69.0 31.5,69.0 C31.5,69.0 48.6,72.7 40.6,63.7 C35.1,50.9 40.6,32.6 40.6,22.4 C40.6,13.9 26.4,0.8 26.4,0.8 Z" id="Path-6"></path>
            </g>
            <g id="Group-43" transform="translate(1582.0, 561.0)">
                <mask id="mask-53" fill="white">
                    <use xlink:href="#path-52"></use>
                </mask>
                <use id="Mask" fill="#FFE55E" xlink:href="#path-52"></use>
                <path d="M171.5,41 C163.5,89.5 128,180.5 89.5,224 C51,267.5 216.5,219.5 216.5,219.5 L213.5,35 C213.5,35 179.5,-7.5 171.5,41 Z" id="Path-117" fill="#F3B34D" opacity="0.3" filter="url(#filter-54)" mask="url(#mask-53)"></path>
            </g>
            <path d="M1795.5,650.1 C1788,657.1 1780,666.6 1794,679.1 C1808,691.6 1785.5,688.6 1785.5,687.6 C1785.5,686.6 1771,671.8 1771,670.6 C1771,669.4 1777,652.6 1777,652.6 C1777,652.6 1786,647.1 1787,647.1 C1788,647.1 1803,643.1 1795.5,650.1 Z" id="Path-80" fill="#000000"></path>
            <path d="M1624.9,590.5 C1664.2,600.5 1757.5,624 1768.0,618.5 C1778.4,613 1753.1,559.5 1753.1,559.5 C1753.1,559.5 1585.7,580.5 1624.9,590.5 Z" id="Path-50" fill="#000000"></path>
            <g id="Group-29" transform="translate(1570.0, 453.0)">
                <mask id="mask-56" fill="white">
                    <use xlink:href="#path-55"></use>
                </mask>
                <use id="Mask" fill="#FFE55E" xlink:href="#path-55"></use>
                <path d="M222.0,63 C180.5,59 56.5,63 8.5,63 C4.5,29.5 7,0.5 7,0.5 C7,0.5 193.9,-21 196.5,-21 C199.0,-21 222,11 222,11 C222,11 263.5,67 222.0,63 Z" id="Path-114" fill="#F3B34D" filter="url(#filter-57)" mask="url(#mask-56)"></path>
                <path d="M5.5,-4 C5.5,-4 4.5,48.5 8,63 C4.5,95 6.9,128.5 11,138 C15.0,147.5 -16.5,133 -16.5,133 L-23.5,35.5 L5.5,-4 Z" id="Path-116" fill="#F3B34D" filter="url(#filter-58)" mask="url(#mask-56)"></path>
                <path d="M176,37.5 C180.5,37.5 185.7,38 191.5,38.5 C194.5,50.5 195.5,68.2 195.5,96 L178,96 C178,96 178,52.5 176,37.5 Z" id="Path-48" fill="#000000" mask="url(#mask-56)"></path>
                <polygon id="Path-49" fill="#000000" mask="url(#mask-56)" points="167.5 -0.5 169.5 6 184 7.5 181.5 -1.5"></polygon>
            </g>
            <g id="Group-60" transform="translate(82.0, 45.0)">
                <g id="Group-5" transform="translate(11.0, 114.0)">
                    <mask id="mask-60" fill="white">
                        <use xlink:href="#path-59"></use>
                    </mask>
                    <use id="Mask" fill="#FFE55E" xlink:href="#path-59"></use>
                    <path d="M140.5,199.5 C158.5,191.5 171.5,98 171.5,49.5 C171.5,1 196.5,-1 198.5,-1 C200.5,-1 229,8.5 231.5,14.5 C234,20.5 227,106.5 227,123 C227,139.5 200.7,179 193.5,187.5 C186.2,196 152,207.5 152,207.5 C152,207.5 122.5,207.5 140.5,199.5 Z" id="Path-2" fill="#F3B34D" filter="url(#filter-61)" mask="url(#mask-60)"></path>
                </g>
                <path d="M104.1,180.0 C82.1,179.9 41.9,177.9 29.0,174.0 C16.0,170.0 17.0,162.5 17.0,150.0 C17.0,140.0 75.1,138.3 99.2,138.0 C99.2,138.0 99.2,138.0 99.2,138.0 C99.2,138.0 101.1,137.9 104.3,138.0 C107.6,137.9 109.5,138.0 109.5,138.0 C109.5,138.0 109.5,138.0 109.5,138.0 C133.6,138.3 191.7,140.0 191.7,150.0 C191.7,162.5 192.7,170.0 179.7,174.0 C166.8,177.9 126.6,179.9 104.5,180.0 C104.5,180.0 104.5,180.0 104.5,180.0 C104.4,180.0 104.4,180.0 104.3,180.0 C104.3,180.0 104.3,180.0 104.2,180.0 C104.2,180.0 104.2,180.0 104.1,180.0 L104.1,180.0 Z" id="Combined-Shape" fill="#000000"></path>
                <g id="Group-4">
                    <mask id="mask-63" fill="white">
                        <use xlink:href="#path-62"></use>
                    </mask>
                    <use id="Mask" fill="#FFE55E" xlink:href="#path-62"></use>
                    <path d="M12.5,-7.5 L-3,71.5 C-3,71.5 3,61 11,58 C19,55 77.5,52 107.5,52 C137.5,52 188.5,56.5 196.5,61 C204.5,65.5 204,137.5 195,156 C186,174.5 223.5,161 225.5,158.5 C227.5,156 241.5,50.5 241.5,46.5 C241.5,42.5 216.5,-11 211,-14 C205.5,-17 156.5,-26 149.5,-26 C142.5,-26 46,-22.5 36,-22.5 C26,-22.5 -8,-16.5 -8,-14 C-8,-11.5 12.5,-7.5 12.5,-7.5 Z" id="Path-3" fill="#F3B34D" filter="url(#filter-64)" mask="url(#mask-63)"></path>
                    <path d="M-0.8,67.5 C2.1,60 7.1,55 11.1,53.5 C15.1,52 31.1,50.5 48.1,49 C48.1,46.5 48.6,42 48.6,42 C48.6,42 17.1,44 10.1,48 C3.1,52 -1.8,64.5 -3.3,67.5 C-4.8,70.5 -3.8,75 -0.8,67.5 Z" id="Path-5" fill="#000000" mask="url(#mask-63)"></path>
                    <path d="M206.5,67.5 C203.5,60 198.5,55 194.5,53.5 C190.5,52 174.5,50.5 157.5,49 C157.5,46.5 157,42 157,42 C157,42 186.5,44 195.5,48 C204.5,52 207.5,64.5 209,67.5 C210.5,70.5 209.5,75 206.5,67.5 L206.5,67.5 Z" id="Path-5-Copy" fill="#000000" mask="url(#mask-63)"></path>
                </g>
                <g id="Group-20" transform="translate(25.0, 72.0)">
                    <mask id="mask-66" fill="white">
                        <use xlink:href="#path-65"></use>
                    </mask>
                    <use id="Mask" fill="#52BBD3" xlink:href="#path-65"></use>
                    <path d="M30.5,57 C47.3,57 61,43.3 61,26.5 C61,9.6 47.3,-4 30.5,-4 C13.6,-4 0,9.6 0,26.5 C0,43.3 13.6,57 30.5,57 Z" id="Oval-Copy" fill="#52BBD3" mask="url(#mask-66)"></path>
                    <path d="M9.5,30.8 C6.4,19.3 13.2,7.6 24.7,4.5 C36.2,1.4 48.0,8.2 51.0,19.7 C51.8,22.5 51.9,25.3 51.6,28.0 C45.0,28.8 38.3,30.1 31.5,31.9 C25.0,33.6 18.9,35.7 13.1,38.1 C11.5,36.0 10.2,33.5 9.5,30.8 L9.5,30.8 Z" id="Mask" fill="#FFFBD7" mask="url(#mask-66)"></path>
                    <path d="M40.8,29.9 C37.9,30.5 35.0,31.2 32.0,32.0 C29.8,32.6 27.6,33.2 25.4,33.9 C23.5,32.5 22.0,30.5 21.3,28.1 C19.8,22.5 23.1,16.8 28.7,15.3 C34.3,13.8 40.0,17.1 41.5,22.7 C42.2,25.2 41.9,27.7 40.8,29.9 L40.8,29.9 Z" id="Combined-Shape" fill="#000000" mask="url(#mask-66)"></path>
                </g>
                <g id="Group-7" transform="translate(121.0, 72.0)">
                    <mask id="mask-69" fill="white">
                        <use xlink:href="#path-68"></use>
                    </mask>
                    <use id="Mask" fill="url(#linearGradient-67)" xlink:href="#path-68"></use>
                    <path d="M30.5,57 C47.3,57 61,43.3 61,26.5 C61,9.6 47.3,-4 30.5,-4 C13.6,-4 0,9.6 0,26.5 C0,43.3 13.6,57 30.5,57 Z" id="Oval-Copy-2" fill="#52BBD3" mask="url(#mask-69)"></path>
                    <path d="M51.5,30.8 C54.6,19.3 47.8,7.6 36.3,4.5 C24.8,1.4 13.0,8.2 10.0,19.7 C9.2,22.5 9.1,25.3 9.4,28.0 C16.0,28.8 22.7,30.1 29.5,31.9 C36.0,33.6 42.1,35.7 47.9,38.1 C49.5,36.0 50.8,33.5 51.5,30.8 L51.5,30.8 Z" id="Mask-Copy-2" fill="#FFFBD7" mask="url(#mask-69)"></path>
                    <path d="M20.9,29.9 C23.8,30.5 26.7,31.2 29.7,32.0 C31.9,32.6 34.1,33.2 36.3,33.9 C38.2,32.5 39.7,30.5 40.4,28.1 C41.9,22.5 38.6,16.8 33.0,15.3 C27.4,13.8 21.7,17.1 20.2,22.7 C19.5,25.2 19.8,27.7 20.9,29.9 L20.9,29.9 Z" id="Combined-Shape-Copy-2" fill="#000000" mask="url(#mask-69)"></path>
                </g>
            </g>
            <g id="Group-6" transform="translate(64.0, 189.0)" fill="#000000">
                <path d="M33.1,100.6 C30.6,101.5 27.8,102 25,102 C11.1,102 0,90.8 0,77 C0,63.1 11.1,52 25,52 C38.8,52 50,63.1 50,77 C50,81.9 48.5,86.5 46.0,90.4 L38.1,85.3 C38.6,84.0 39,82.5 39,81 C39,74.9 34.0,70 28,70 C21.9,70 17,74.9 17,81 C17,87.0 21.9,92 28,92 C28.8,92 29.6,91.9 30.4,91.7 L30.4,91.7 L33.1,100.6 Z" id="Combined-Shape"></path>
                <path d="M22.9,0.1 C7.0,12.9 -9.7,38.5 7,67.5 C14,67.5 25.5,63.0 25.5,63.0 C25.5,63.0 39,66.0 31,57.0 C16.7,36.7 21.9,25 32.5,8.5 C27.5,6.4 24.5,4.9 22.9,0.1 Z" id="Path-6"></path>
            </g>
            <g id="Group-6-Copy" transform="translate(284.0, 240.0) scale(-1, 1) translate(-284.0, -240.0) translate(259.0, 189.0)" fill="#000000">
                <path d="M33.1,100.6 C30.6,101.5 27.8,102 25,102 C11.1,102 0,90.8 0,77 C0,63.1 11.1,52 25,52 C38.8,52 50,63.1 50,77 C50,81.9 48.5,86.5 46.0,90.4 L38.1,85.3 C38.6,84.0 39,82.5 39,81 C39,74.9 34.0,70 28,70 C21.9,70 17,74.9 17,81 C17,87.0 21.9,92 28,92 C28.8,92 29.6,91.9 30.4,91.7 L30.4,91.7 L33.1,100.6 Z" id="Combined-Shape"></path>
                <path d="M22.9,0.1 C7.0,12.9 -9.7,38.5 7,67.5 C14,67.5 25.5,63.0 25.5,63.0 C25.5,63.0 39,66.0 31,57.0 C16.7,36.7 21.9,25 32.5,8.5 C27.5,6.4 24.5,4.9 22.9,0.1 Z" id="Path-6"></path>
            </g>
            <g id="Group-6-Copy-15" transform="translate(1038.6, 605.6) scale(-1, 1) rotate(66.0) translate(-1038.6, -605.6) translate(1004.6, 547.1)" fill="#000000">
                <path d="M42.1,106.6 C39.6,107.5 36.8,108 34,108 C20.1,108 9,96.8 9,83 C9,69.1 20.1,58 34,58 C47.8,58 59,69.1 59,83 C59,87.9 57.5,92.5 55.0,96.4 L47.1,91.3 C47.6,90.0 48,88.5 48,87 C48,80.9 43.0,76 37,76 C30.9,76 26,80.9 26,87 C26,93.0 30.9,98 37,98 C37.8,98 38.6,97.9 39.4,97.7 L39.4,97.7 L42.1,106.6 Z" id="Combined-Shape" transform="translate(34.0, 83.0) rotate(62.0) translate(-34.0, -83.0) "></path>
                <path d="M29.4,0.8 C29.4,0.8 12.4,44.4 16.0,70.7 C23.0,70.7 34.5,69.0 34.5,69.0 C34.5,69.0 51.6,72.7 43.6,63.7 C38.1,50.9 43.6,32.6 43.6,22.4 C43.6,13.9 29.4,0.8 29.4,0.8 Z" id="Path-6"></path>
            </g>
            <g id="Group-41" transform="translate(817.0, 542.0)">
                <mask id="mask-71" fill="white">
                    <use xlink:href="#path-70"></use>
                </mask>
                <use id="Mask" fill="#FFE55E" xlink:href="#path-70"></use>
                <path d="M177,80.5 C175,115.5 173.5,204 162,237 C150.5,270 243.5,179 243.5,179 L236.5,18 L197,10.5 L172,50 C172,50 179,45.5 177,80.5 Z" id="Path-106" fill="#F3B34D" filter="url(#filter-72)" mask="url(#mask-71)"></path>
                <path d="M45.5,37.5 C59.5,137.5 105.5,206 119.5,240 C133.5,274 10,203.5 10,199.5 C10,195.5 -29.5,55.5 -29.5,55.5 L-23,11 C-23,11 31.6,-62.5 45.5,37.5 Z" id="Path-107" fill="#F3B34D" opacity="0.2" filter="url(#filter-73)" mask="url(#mask-71)"></path>
            </g>
            <path d="M848,579 C865.5,589.5 972,632 988,631 C1004,630 1036.5,606.5 1035,588.5 C1033.5,570.5 992,567.5 992,567.5 C992,567.5 830.5,568.5 848,579 Z" id="Path-42" fill="#000000"></path>
            <g id="Group-31" transform="translate(806.0, 453.0)">
                <mask id="mask-75" fill="white">
                    <use xlink:href="#path-74"></use>
                </mask>
                <use id="Mask" fill="#FFE55E" xlink:href="#path-74"></use>
                <path d="M-8,48.5 C34,51 155,66 183.5,70.5 C208.0,37 244.5,15 257.5,8.5 C270.5,2 40,-17 40,-17 C40,-17 -50,46 -8,48.5 Z" id="Path-108" fill="#F3B34D" filter="url(#filter-76)" mask="url(#mask-75)"></path>
                <path d="M251.5,14.5 C251.5,14.5 206.5,42.5 186,73 C191.5,96 189,152.5 185,172 C181,191.5 269.5,104.5 269.5,104.5 L251.5,14.5 Z" id="Path-109" fill="#F3B34D" filter="url(#filter-77)" mask="url(#mask-75)"></path>
                <path d="M-6,48.5 L28.5,52.5 C28.5,52.5 36.5,125 44.5,148.5 C52.5,172 -25,127 -25,127 L-6,48.5 Z" id="Path-110" fill="#F3B34D" opacity="0.2" filter="url(#filter-78)" mask="url(#mask-75)"></path>
                <path d="M171.5,44.5 L186,47.5 C186,47.5 174,59 172.5,68.5 C171,78 171.5,105 171.5,105 L155,103.5 C155,103.5 154,75.5 157,65.5 C160,55.5 171.5,44.5 171.5,44.5 Z" id="Path-40" fill="#000000" mask="url(#mask-75)"></path>
                <path d="M235,10 C230.5,11 223.5,14.5 218.5,18 C213,17 210.5,16 204.5,15 C211,11 218.5,7 223,5.5 C227.5,4 239.5,9 235,10 Z" id="Path-41" fill="#000000" mask="url(#mask-75)"></path>
            </g>
            <g id="Group-61" transform="translate(1188.0, 454.0)">
                <g id="Group-6-Copy-17" transform="translate(204.3, 145.5) scale(-1, 1) rotate(74.0) translate(-204.3, -145.5) translate(173.3, 88.5)" fill="#000000">
                    <path d="M39.1,106.6 C36.6,107.5 33.8,108 31,108 C17.1,108 6,96.8 6,83 C6,69.1 17.1,58 31,58 C44.8,58 56,69.1 56,83 C56,87.9 54.5,92.5 52.0,96.4 L44.1,91.3 C44.6,90.0 45,88.5 45,87 C45,80.9 40.0,76 34,76 C27.9,76 23,80.9 23,87 C23,93.0 27.9,98 34,98 C34.8,98 35.6,97.9 36.4,97.7 L36.4,97.7 L39.1,106.6 Z" id="Combined-Shape" transform="translate(31.0, 83.0) rotate(74.0) translate(-31.0, -83.0) "></path>
                    <path d="M26.4,0.8 C26.4,0.8 9.4,44.4 13.0,70.7 C20.0,70.7 31.5,69.0 31.5,69.0 C31.5,69.0 48.6,72.7 40.6,63.7 C35.1,50.9 40.6,32.6 40.6,22.4 C40.6,13.9 26.4,0.8 26.4,0.8 Z" id="Path-6"></path>
                </g>
                <g id="Group-42" transform="translate(14.0, 105.0)">
                    <mask id="mask-80" fill="white">
                        <use xlink:href="#path-79"></use>
                    </mask>
                    <use id="Mask" fill="#FFE55E" xlink:href="#path-79"></use>
                    <path d="M189,51.5 C183,74.5 179.5,187.5 159,211 C138.5,234.5 200.5,205 200.5,205 L236.5,22.5 L214,-3.5 L176,17 C176,17 195,28.5 189,51.5 Z" id="Path-115" fill="#F3B34D" filter="url(#filter-81)" mask="url(#mask-80)"></path>
                </g>
                <path d="M46.5,133 C82,144 178,172.5 194,171.5 C210,170.5 217.5,147 210,133 C202.5,119 11,122 46.5,133 Z" id="Path-46" fill="#000000"></path>
                <g id="Group-30">
                    <mask id="mask-83" fill="white">
                        <use xlink:href="#path-82"></use>
                    </mask>
                    <use id="Mask" fill="#FFE55E" xlink:href="#path-82"></use>
                    <path d="M-6,52 C17,55.5 185.5,66 201,66 C215,28 226,-8 226,-8 L29,-19.5 C29,-19.5 -29,48.5 -6,52 Z" id="Path-112" fill="#F3B34D" filter="url(#filter-84)" mask="url(#mask-83)"></path>
                    <path d="M226.5,0.5 L204.5,67 C204.5,67 203.5,145.5 201,159.5 C198.5,173.5 259,97 259,97 L226.5,0.5 Z" id="Path-113" fill="#F3B34D" filter="url(#filter-85)" mask="url(#mask-83)"></path>
                    <path d="M176,40 L191,41.5 C191,41.5 187,57 186.5,66.5 C186,76 186,99 186,99 L170,99 C170,99 169.5,67.5 170.5,60.5 C171.5,53.5 176,40 176,40 Z" id="Path-44" fill="#000000" mask="url(#mask-83)"></path>
                    <path d="M193.5,2 C193.5,2 189,5.5 187,10 C194,10.5 201.5,11 201.5,11 C201.5,11 208,1.5 210,-2.7e-14 C212,-1.5 193.5,2 193.5,2 Z" id="Path-45" fill="#000000" mask="url(#mask-83)"></path>
                </g>
                <g id="Group-59" transform="translate(212.0, 56.0)">
                    <mask id="mask-88" fill="white">
                        <use xlink:href="#path-87"></use>
                    </mask>
                    <use id="Mask" fill="url(#linearGradient-86)" transform="translate(4.1, 30.0) rotate(1.0) translate(-4.1, -30.0) " xlink:href="#path-87"></use>
                    <ellipse id="Oval-3-Copy-23" fill="#52BBD3" mask="url(#mask-88)" transform="translate(0.1, 30.0) rotate(1.0) translate(-0.1, -30.0) " cx="0.1" cy="30.0" rx="3.5" ry="30"></ellipse>
                    <path d="M-0.4,10.7 C0.5,5.1 1.6,9.2 1.9,20.0 C2.0,22.6 2.0,25.4 2.0,28.2 C1.4,30.5 0.7,33.3 0.1,36.6 C-0.4,39.8 -0.9,43.3 -1.5,47.0 C-1.6,45.2 -1.7,43.0 -1.8,40.4 C-2.1,29.7 -1.5,16.4 -0.4,10.7 Z" id="Mask" fill="#FFFBD7" mask="url(#mask-88)"></path>
                    <path d="M0.2,36.6 C0.0,37.7 -0.1,38.8 -0.3,40.0 C-0.5,39.1 -0.7,37.4 -0.7,35.1 C-0.9,29.9 -0.6,23.4 -0.0,20.7 C0.4,17.9 0.9,19.9 1.0,25.1 C1.1,27.5 1.1,30.1 1.0,32.5 C0.7,33.8 0.4,35.1 0.2,36.6 Z" id="Combined-Shape" fill="#000000" mask="url(#mask-88)"></path>
                </g>
                <g id="Group-10" transform="translate(222.0, 31.0)">
                    <mask id="mask-90" fill="white">
                        <use xlink:href="#path-89"></use>
                    </mask>
                    <use id="Mask" fill="url(#linearGradient-86)" transform="translate(3.3, 29.0) rotate(1.0) translate(-3.3, -29.0) " xlink:href="#path-89"></use>
                    <ellipse id="Oval-3-Copy-24" fill="#52BBD3" mask="url(#mask-90)" transform="translate(-0.6, 29.0) rotate(1.0) translate(0.6, -29.0) " cx="-0.6" cy="29.0" rx="2.5" ry="29"></ellipse>
                    <path d="M-0.2,11.5 C-1.1,11.1 -1.9,18.7 -2.1,28.6 C-2.2,31.0 -2.2,33.3 -2.2,35.4 C-1.7,34.9 -1.2,34.7 -0.7,35.0 C-0.2,35.2 0.1,35.8 0.5,36.7 C0.7,34.6 0.7,32.4 0.8,30.0 C1.0,20.2 0.5,11.9 -0.2,11.5 Z" id="Mask-Copy-2" fill="#FFFBD7" mask="url(#mask-90)"></path>
                    <path d="M-0.7,35.0 C-0.5,35.1 -0.4,35.2 -0.2,35.3 C-0.1,33.9 -0.0,32.0 0.0,29.9 C0.1,25.1 -0.0,21.0 -0.5,20.9 C-0.9,20.7 -1.3,24.4 -1.4,29.2 C-1.4,31.3 -1.4,33.3 -1.3,34.9 C-1.1,34.9 -0.9,34.9 -0.7,35.0 Z" id="Combined-Shape-Copy-2" fill="#000000" mask="url(#mask-90)"></path>
                </g>
            </g>
            <g id="Group-6-Copy-13" transform="translate(674.8, 610.2) scale(-1, 1) rotate(58.0) translate(-674.8, -610.2) translate(640.8, 551.7)" fill="#000000">
                <path d="M42.1,106.6 C39.6,107.5 36.8,108 34,108 C20.1,108 9,96.8 9,83 C9,69.1 20.1,58 34,58 C47.8,58 59,69.1 59,83 C59,87.9 57.5,92.5 55.0,96.4 L47.1,91.3 C47.6,90.0 48,88.5 48,87 C48,80.9 43.0,76 37,76 C30.9,76 26,80.9 26,87 C26,93.0 30.9,98 37,98 C37.8,98 38.6,97.9 39.4,97.7 L39.4,97.7 L42.1,106.6 Z" id="Combined-Shape" transform="translate(34.0, 83.0) rotate(66.0) translate(-34.0, -83.0) "></path>
                <path d="M29.4,0.8 C29.4,0.8 12.4,44.4 16.0,70.7 C23.0,70.7 34.5,69.0 34.5,69.0 C34.5,69.0 51.6,72.7 43.6,63.7 C38.1,50.9 43.6,32.6 43.6,22.4 C43.6,13.9 29.4,0.8 29.4,0.8 Z" id="Path-6"></path>
            </g>
            <g id="Group-40" transform="translate(441.0, 544.0)">
                <mask id="mask-92" fill="white">
                    <use xlink:href="#path-91"></use>
                </mask>
                <use id="Mask" fill="#FFE55E" xlink:href="#path-91"></use>
                <path d="M165.5,79 C165.5,123 158.5,223 153.5,238 C148.5,253 237.5,193.5 237.5,193.5 C237.4,193.5 244.5,25 244.5,25 L204,11.5 C204,11.5 165.5,35 165.5,79 Z" id="Path-101" fill="#F3B34D" filter="url(#filter-93)" mask="url(#mask-92)"></path>
                <path d="M-17,5.5 L102.5,42.5 C102.5,42.5 132.5,216.5 142.5,237.5 C152.5,258.5 12.5,199 12.5,197 C12.5,195 -17,5.5 -17,5.5 Z" id="Path-102" fill="#F3B34D" opacity="0.4" filter="url(#filter-94)" mask="url(#mask-92)"></path>
            </g>
            <path d="M468,575 C484.5,587 573,630.5 593,633 C613,635.5 668.5,608 667,591.5 C665.5,575 619,572 619,572 C619,572 451.5,563 468,575 Z" id="Path-38" fill="#000000"></path>
            <g id="Group-32" transform="translate(430.0, 451.0)">
                <mask id="mask-96" fill="white">
                    <use xlink:href="#path-95"></use>
                </mask>
                <use id="Mask" fill="#FFE55E" xlink:href="#path-95"></use>
                <path d="M-10.5,41.5 C21.5,47 149.5,71 166.5,76 C200.9,46 268,19.5 279.5,13 C291,6.5 94,-18 94,-18 L-7,20 C-7,20 -42.5,36 -10.5,41.5 Z" id="Path-103" fill="#F3B34D" filter="url(#filter-97)" mask="url(#mask-96)"></path>
                <path d="M265.5,22 C265.5,22 211,46 166.5,79.5 C166.5,79.5 174,133 174,177.5 C174,222 303.5,100 303.5,100 L265.5,22 Z" id="Path-104" fill="#F3B34D" filter="url(#filter-98)" mask="url(#mask-96)"></path>
                <path d="M-43,35 L81.5,58 C81.5,58 97.5,151 101.5,170 C105.5,189 -47,112 -47,112 L-43,35 Z" id="Path-105" fill="#F3B34D" opacity="0.4" filter="url(#filter-99)" mask="url(#mask-96)"></path>
                <path d="M162,48.5 L175.5,51.5 C175.5,51.5 155.5,66 154,74 C152.5,82 152.5,108.5 152.5,108.5 L137.5,106 C137.5,106 137,76.5 140,68.5 C143,60.5 162,48.5 162,48.5 Z" id="Path-36" fill="#000000" mask="url(#mask-96)"></path>
                <path d="M248,19 C243.5,18.5 231.5,22.0 225.5,25 C220,23.5 218.5,22.5 213.5,21 C220,17.5 231,14.5 237,15 C243,15.5 252.5,19.5 248,19 Z" id="Path-37" fill="#000000" mask="url(#mask-96)"></path>
            </g>
            <g id="Group-6-Copy-11" transform="translate(308.6, 617.1) scale(-1, 1) rotate(52.0) translate(-308.6, -617.1) translate(272.6, 554.6)" fill="#000000">
                <path d="M44.1,112.6 C41.6,113.5 38.8,114 36,114 C22.1,114 11,102.8 11,89 C11,75.1 22.1,64 36,64 C49.8,64 61,75.1 61,89 C61,93.9 59.5,98.5 57.0,102.4 L49.1,97.3 C49.6,96.0 50,94.5 50,93 C50,86.9 45.0,82 39,82 C32.9,82 28,86.9 28,93 C28,99.0 32.9,104 39,104 C39.8,104 40.6,103.9 41.4,103.7 L41.4,103.7 L44.1,112.6 Z" id="Combined-Shape" transform="translate(36.0, 89.0) rotate(48.0) translate(-36.0, -89.0) "></path>
                <path d="M24.7,5.2 C21.0,21.4 14.4,50.4 18.0,76.7 C25.0,76.7 36.5,75.0 36.5,75.0 C36.5,75.0 53.6,78.7 45.6,69.7 C40.1,56.9 45.6,38.6 45.6,28.4 C45.6,19.9 28.4,-10.9 24.7,5.2 Z" id="Path-6"></path>
            </g>
            <g id="Group-39" transform="translate(69.0, 543.0)">
                <mask id="mask-101" fill="white">
                    <use xlink:href="#path-100"></use>
                </mask>
                <use id="Mask" fill="#FFE55E" xlink:href="#path-100"></use>
                <path d="M141,82.5 C141,82.5 140,225.5 137.5,247 C135,268.5 241.9,199.5 242,195 C242.0,190.5 246,28.5 246,28.5 L201,11 L141,82.5 Z" id="Path-99" fill="#F3B34D" filter="url(#filter-102)" mask="url(#mask-101)"></path>
                <path d="M-24,7.5 L5.5,0 C5.5,0 120.5,55.5 120.5,79.5 C120.5,103.5 127.5,230.5 130.5,246 C133.5,261.5 15,189 15,184.5 C15,180 -26,59 -26,59 L-24,7.5 Z" id="Path-100" fill="#F3B34D" opacity="0.5" filter="url(#filter-103)" mask="url(#mask-101)"></path>
            </g>
            <path d="M98,574.5 C120.5,593.5 184.5,631.5 200,634.5 C215.5,637.5 287,614 298.5,596.5 C303,589.5 278,575 278,575 C278,575 75.5,555.5 98,574.5 Z" id="Path-31" fill="#000000"></path>
            <g id="Group-33" transform="translate(56.0, 449.0)">
                <mask id="mask-105" fill="white">
                    <use xlink:href="#path-104"></use>
                </mask>
                <use id="Mask" fill="#FFE55E" xlink:href="#path-104"></use>
                <path d="M-5,37.5 C29,44 108.5,64.5 142.5,78 C196.0,46 279.5,31 279.5,31 L93.5,-15.5 C93.5,-15.5 -39,31 -5,37.5 Z" id="Path-96" fill="#F3B34D" filter="url(#filter-106)" mask="url(#mask-105)"></path>
                <path d="M273.5,34.5 C273.5,34.5 186.9,56 145.5,79 C145.5,120 145.5,145.5 145.5,180 C145.5,214.5 314,117.5 314,117.5 L273.5,34.5 Z" id="Path-97" fill="#F3B34D" filter="url(#filter-107)" mask="url(#mask-105)"></path>
                <path d="M-11.5,34.5 C13.5,40.5 99.5,67.0 120.0,73.5 C116.5,91.5 124.5,164.5 126.5,176 C128.5,187.5 -18.5,112.5 -18.5,112.5 C-18.5,112.5 -36.5,28.5 -11.5,34.5 Z" id="Path-98" fill="#F3B34D" opacity="0.5" filter="url(#filter-108)" mask="url(#mask-105)"></path>
                <path d="M148.5,51.5 C148.5,51.5 158.5,55 160.5,56 C141.5,65.5 136.5,69 133.5,74 C130.5,79 130,107 130,111.5 C124.5,110.5 120,109 116.5,108 C116,88 118.5,73.5 121,69.5 C123.5,65.5 135.9,56.5 148.5,51.5 Z" id="Path-28" fill="#000000" mask="url(#mask-105)"></path>
                <path d="M256.5,27.5 C248.5,26.5 232,29.9 226.5,31.5 C222.5,29.4 220,29.2 215.5,27 C225.5,25 239,22 251,25.5 C263,29 264.5,28.5 256.5,27.5 Z" id="Path-30" fill="#000000" mask="url(#mask-105)"></path>
            </g>
            <g id="Group-6-Copy-9" transform="translate(1795.3, 215.5) scale(-1, 1) rotate(49.0) translate(-1795.3, -215.5) translate(1759.3, 152.0)" fill="#000000">
                <path d="M44.1,114.6 C41.6,115.5 38.8,116 36,116 C22.1,116 11,104.8 11,91 C11,77.1 22.1,66 36,66 C49.8,66 61,77.1 61,91 C61,95.9 59.5,100.5 57.0,104.4 L49.1,99.3 C49.6,98.0 50,96.5 50,95 C50,88.9 45.0,84 39,84 C32.9,84 28,88.9 28,95 C28,101.0 32.9,106 39,106 C39.8,106 40.6,105.9 41.4,105.7 L41.4,105.7 L44.1,114.6 Z" id="Combined-Shape" transform="translate(36.0, 91.0) rotate(44.0) translate(-36.0, -91.0) "></path>
                <path d="M24.7,7.2 C21.0,23.4 8.7,54.1 16.7,80.4 C23.7,80.4 36.5,77.0 36.5,77.0 C36.5,77.0 50,80.0 42,71.0 C36.4,58.2 31.4,31.3 41.9,14.8 C42.0,6.3 28.4,-8.9 24.7,7.2 Z" id="Path-6"></path>
            </g>
            <g id="Group-38" transform="translate(1556.0, 121.0)">
                <mask id="mask-110" fill="white">
                    <use xlink:href="#path-109"></use>
                </mask>
                <use id="Mask" fill="#FFE55E" xlink:href="#path-109"></use>
                <path d="M120.5,101 C120.5,133 120,249.5 124,257 C128,264.5 233.5,222.5 233.5,220 C233.4,217.5 262.5,34 262.5,34 L198,18 C198,18 120.5,69 120.5,101 Z" id="Path-94" fill="#F3B34D" opacity="0.7" filter="url(#filter-111)" mask="url(#mask-110)"></path>
                <path d="M-19.5,12.5 L6.5,14 C6.5,14 102.5,52.5 102.5,95 C102.5,137.5 110.5,230.5 115,255 C119.5,279.5 6.5,191.5 6.5,191.5 L-19.5,12.5 Z" id="Path-95" fill="#F3B34D" opacity="0.6" filter="url(#filter-112)" mask="url(#mask-110)"></path>
            </g>
            <path d="M1583.5,163 C1597,177.5 1643,219 1666,227 C1689,235 1779,206.5 1786.5,194 C1794,181.5 1737,162.5 1737,162.5 C1737,162.5 1570,148.5 1583.5,163 Z" id="Path-21" fill="#000000"></path>
            <g id="Group-34" transform="translate(1546.0, 42.0)">
                <mask id="mask-114" fill="white">
                    <use xlink:href="#path-113"></use>
                </mask>
                <use id="Mask" fill="#FFE55E" xlink:href="#path-113"></use>
                <path d="M-6,25.5 C15,35 103.5,72.5 117.5,78.5 C167,58.5 234.5,40.5 276,36.5 C317.5,32.5 128,-27 128,-27 C128,-27 -27,16 -6,25.5 Z" id="Path-91" fill="#F3B34D" filter="url(#filter-115)" mask="url(#mask-114)"></path>
                <path d="M268.5,39 C268.5,39 179,57 124,80 C124,115 120.4,171 132,181.5 C143.5,192 291.4,134.5 291.5,131.5 C291.5,128.5 290.5,35.5 290.5,35.5 L268.5,39 Z" id="Path-92" fill="#F3B34D" opacity="0.7" filter="url(#filter-116)" mask="url(#mask-114)"></path>
                <path d="M-3,28 L116.5,78.5 C116.5,78.5 109,150 116,174.5 C123,199 -24,101.5 -24,101.5 L-3,28 Z" id="Path-93" fill="#F3B34D" opacity="0.6" filter="url(#filter-117)" mask="url(#mask-114)"></path>
                <path d="M131,51 C131,51 136.5,53.5 141,56 C121,62.5 111.5,67.5 109,72.5 C106.5,77.5 104.5,91.5 104.5,109.5 C99,108 98.5,108 93,106 C93,86.5 95,74 97.5,69 C100,64 112.5,56 131,51 Z" id="Path-22" fill="#000000" mask="url(#mask-114)"></path>
                <path d="M257.5,34.5 C250.5,32 238.5,33 222,35 C219.7,33.9 216.5,32.7 213,30.5 C234.5,28.5 246,28 254.5,32 C263,36 264.5,37 257.5,34.5 Z" id="Path-23" fill="#000000" mask="url(#mask-114)"></path>
            </g>
            <g id="Group-6-Copy-7" transform="translate(1420.3, 222.3) scale(-1, 1) rotate(44.0) translate(-1420.3, -222.3) translate(1385.3, 159.8)" fill="#000000">
                <path d="M43.1,113.6 C40.6,114.5 37.8,115 35,115 C21.1,115 10,103.8 10,90 C10,76.1 21.1,65 35,65 C48.8,65 60,76.1 60,90 C60,94.9 58.5,99.5 56.0,103.4 L48.1,98.3 C48.6,97.0 49,95.5 49,94 C49,87.9 44.0,83 38,83 C31.9,83 27,87.9 27,94 C27,100.0 31.9,105 38,105 C38.8,105 39.6,104.9 40.4,104.7 L40.4,104.7 L43.1,113.6 Z" id="Combined-Shape" transform="translate(35.0, 90.0) rotate(30.0) translate(-35.0, -90.0) "></path>
                <path d="M17.4,9.2 C13.7,25.3 6.3,55.3 14.4,81.6 C21.4,81.6 35.5,76.0 35.5,76.0 C35.5,76.0 49,79.0 41,70.0 C26.7,49.7 30.4,27.9 41.0,11.4 C41.0,2.9 21.1,-6.9 17.4,9.2 Z" id="Path-6"></path>
            </g>
            <g id="Group-37" transform="translate(1188.0, 127.0)">
                <mask id="mask-119" fill="white">
                    <use xlink:href="#path-118"></use>
                </mask>
                <use id="Mask" fill="#FFE55E" xlink:href="#path-118"></use>
                <path d="M122.2,72.6 C122.2,109.6 125.2,209.1 111.7,251.1 C98.2,293.1 272.2,208.6 272.2,208.6 L271.7,25.6 L177.2,19.6 C177.2,19.6 122.2,35.6 122.2,72.6 Z" id="Path-86" fill="#F3B34D" opacity="0.6" filter="url(#filter-120)" mask="url(#mask-119)"></path>
                <path d="M-28.5,-8.5 L4,-5.5 C4,-5.5 79.5,28 79.5,74.5 C79.5,121 92,222.5 98.5,251.5 C105,280.5 -3.5,222 -3.5,222 L-28.5,-8.5 Z" id="Path-87" fill="#F3B34D" opacity="0.6" filter="url(#filter-121)" mask="url(#mask-119)"></path>
            </g>
            <path d="M1207.5,157 C1216.5,172 1255,220 1274,226 C1293,232 1400.5,215.5 1410.5,198 C1414,190 1394.5,177 1394.5,177 L1271,159.5 C1271,159.5 1198.5,142 1207.5,157 Z" id="Path-20" fill="#000000"></path>
            <g id="Group-35" transform="translate(1180.0, 42.0)">
                <mask id="mask-123" fill="white">
                    <use xlink:href="#path-122"></use>
                </mask>
                <use id="Mask" fill="#FFE55E" xlink:href="#path-122"></use>
                <path d="M262,48 C216,48 108,67.5 84,76.5 C52,54 -9.5,18 -9.5,18 L145.5,-23.5 L262,38 C262,38 308,48 262,48 Z" id="Path-88" fill="#F3B34D" filter="url(#filter-124)" mask="url(#mask-123)"></path>
                <path d="M-4,19.5 L84.5,76.5 C84.5,76.5 79.5,141.5 88.5,171.5 C97.5,201.5 -32,105 -32,105 L-4,19.5 Z" id="Path-89" fill="#F3B34D" opacity="0.6" filter="url(#filter-125)" mask="url(#mask-123)"></path>
                <path d="M131.5,171 C131.5,150 129,65 129,65 C129,65 224,46.5 270.5,49 C317,51.5 275,155.5 275,155.5 C275,155.5 131.5,192 131.5,171 Z" id="Path-90" fill="#F3B34D" opacity="0.6" filter="url(#filter-126)" mask="url(#mask-123)"></path>
                <path d="M66,102.5 C66,87.5 67.5,71.5 72,65.5 C76.5,59.5 102,52.5 110,51 C114,53.5 117.5,56.5 117.5,56.5 C117.5,56.5 86.5,63 81,71 C75.5,79 74.5,100.5 74.5,107.5 C70.5,105 69,104.5 66,102.5 Z" id="Path-16" fill="#000000" mask="url(#mask-123)"></path>
                <path d="M252,41.5 C243,38 220,38.5 209,40 C207,38 205.5,37 203,35 C219.5,33.5 239,32.0 249.5,38 C249.5,38.9 252,39.9 252,41.5 Z" id="Path-19" fill="#000000" mask="url(#mask-123)"></path>
            </g>
            <g id="Group-6-Copy-5" transform="translate(1045.4, 225.2) scale(-1, 1) rotate(30.0) translate(-1045.4, -225.2) translate(1012.4, 163.7)" fill="#000000">
                <path d="M41.1,113.6 C38.6,114.5 35.8,115 33,115 C19.1,115 8,103.8 8,90 C8,76.1 19.1,65 33,65 C46.8,65 58,76.1 58,90 C58,94.9 56.5,99.5 54.0,103.4 L46.1,98.3 C46.6,97.0 47,95.5 47,94 C47,87.9 42.0,83 36,83 C29.9,83 25,87.9 25,94 C25,100.0 29.9,105 36,105 C36.8,105 37.6,104.9 38.4,104.7 L38.4,104.7 L41.1,113.6 Z" id="Combined-Shape" transform="translate(33.0, 90.0) rotate(22.0) translate(-33.0, -90.0) "></path>
                <path d="M34.5,4.6 C17.5,15.6 -3.5,48.5 15,80.5 C22,80.5 33.5,76.0 33.5,76.0 C33.5,76.0 47,79.0 39,70.0 C24.7,49.7 30.7,33.8 41.2,17.3 C41.2,8.8 51.5,-6.3 34.5,4.6 Z" id="Path-6"></path>
            </g>
            <g id="Group-2" transform="translate(823.0, 118.0)">
                <mask id="mask-128" fill="white">
                    <use xlink:href="#path-127"></use>
                </mask>
                <use id="Mask" fill="#FFE55E" xlink:href="#path-127"></use>
                <path d="M-27,3 L55.5,51.5 C55.5,51.5 58,60.5 55.5,101 C53,141.5 66.5,213.5 76,252 C85.5,290.5 3,227 3,225 C3,223 -27,3 -27,3 Z" id="Path-34" fill="#F3B34D" opacity="0.8" filter="url(#filter-129)" mask="url(#mask-128)"></path>
                <path d="M197,31.5 L148,64 C148,64 153.5,181.5 83,253.5 C144,263.5 201,245.5 201,245.5 L239,98 L229,46.5 L197,31.5 Z" id="Path-35" fill="#F3B34D" opacity="0.5" filter="url(#filter-130)" mask="url(#mask-128)"></path>
            </g>
            <path d="M833.5,138.5 C833.5,149 860,215.5 880.5,223 C901,230.5 962.5,223.5 978.5,221 C994.5,218.5 1032.5,213 1032.5,203.5 C1032.5,194 1030.5,184.5 1022.5,180 C1014.5,175.5 909,165.5 909,165.5 C909,165.5 833.5,128 833.5,138.5 Z" id="Path-15" fill="#000000"></path>
            <g id="Group-36" transform="translate(818.0, 43.0)">
                <mask id="mask-132" fill="white">
                    <use xlink:href="#path-131"></use>
                </mask>
                <use id="Mask" fill="#FFE55E" xlink:href="#path-131"></use>
                <path d="M241.5,52.5 C241.5,52.5 195.5,53.5 172,57 C172,81 163.5,148 157,167.5 C150.5,187 262.5,149 262.5,149 L241.5,52.5 Z" id="Path-85" fill="#F3B34D" opacity="0.5" filter="url(#filter-133)" mask="url(#mask-132)"></path>
                <path d="M1,12 C14.5,33 47,65.5 56,74.5 C112.5,62.5 191.5,55 231,55 C240,86 243.5,124.5 243.5,124.5 L266,74 L191.5,-23 L80.5,-15 C80.5,-15 -12.5,-9 1,12 Z" id="Path-68" fill="#F3B34D" filter="url(#filter-134)" mask="url(#mask-132)"></path>
                <path d="M-2.5,7 C-2.5,7 33.5,53 55.5,74 C51,101 49,143 55,169 C61,195 -35,120.5 -35,117.5 C-35,114.5 -2.5,7 -2.5,7 Z" id="Path-84" fill="#F3B34D" opacity="0.8" filter="url(#filter-135)" mask="url(#mask-132)"></path>
                <path d="M43.5,103 C43.5,87 44.5,72 49.5,67.5 C54.5,63 67,59 90,55 C88.5,52.5 87,51.5 84.5,48.5 C52.5,52.5 46,59 44,61.5 C42,64 38,73 37.5,98 C40,100 40,100.5 43.5,103 Z" id="Path-12" fill="#000000" mask="url(#mask-132)"></path>
                <path d="M186,37.5 L191,44 C191,44 226,41 236,48 C237,46 234,45 234,45 C234,45 234,36.5 186,37.5 Z" id="Path-13" fill="#000000" mask="url(#mask-132)"></path>
            </g>
            <g id="Group-6-Copy-2" transform="translate(666.7, 231.3) scale(-1, 1) rotate(16.0) translate(-666.7, -231.3) translate(635.7, 170.8)" fill="#000000">
                <path d="M39.1,113.6 C36.6,114.5 33.8,115 31,115 C17.1,115 6,103.8 6,90 C6,76.1 17.1,65 31,65 C44.8,65 56,76.1 56,90 C56,94.9 54.5,99.5 52.0,103.4 L44.1,98.3 C44.6,97.0 45,95.5 45,94 C45,87.9 40.0,83 34,83 C27.9,83 23,87.9 23,94 C23,100.0 27.9,105 34,105 C34.8,105 35.6,104.9 36.4,104.7 L36.4,104.7 L39.1,113.6 Z" id="Combined-Shape" transform="translate(31.0, 90.0) rotate(14.0) translate(-31.0, -90.0) "></path>
                <path d="M32.5,4.6 C15.5,15.6 -5.5,48.5 13,80.5 C20,80.5 31.5,76.0 31.5,76.0 C31.5,76.0 45,79.0 37,70.0 C22.7,49.7 28.7,33.8 39.2,17.3 C39.2,8.8 49.5,-6.3 32.5,4.6 Z" id="Path-6"></path>
            </g>
            <g id="Group" transform="translate(460.0, 129.0)">
                <mask id="mask-137" fill="white">
                    <use xlink:href="#path-136"></use>
                </mask>
                <use id="Mask" fill="#FFE55E" xlink:href="#path-136"></use>
                <path d="M182.5,36.5 L165.5,58 C165.5,58 162.0,64.5 165.5,79.5 C169.0,94.5 137.5,226 91.0,245 C44.5,264 182.5,238.5 182.5,238.5 L216,108 L205,57.5 L182.5,36.5 Z" id="Path-79" fill="#F3B34D" opacity="0.3" filter="url(#filter-138)" mask="url(#mask-137)"></path>
                <path d="M-18,-1.5 L14,0.5 C14,0.5 36,61 30,81 C24,101 41,211 56.5,237.5 C72,264 26.5,230.5 26.5,230.5 L-18,43 L-18,-1.5 Z" id="Path-81" fill="#F3B34D" filter="url(#filter-139)" mask="url(#mask-137)"></path>
            </g>
            <path d="M478.5,192.5 C481.5,209 485,222.5 503.5,224 C522,225.5 571,225 593,223 C615,221 653.5,216 653.5,206 C653.5,196 650.5,192.5 646.5,187.5 C642.5,182.5 510,178.5 510,178.5 C510,178.5 475.5,176 478.5,192.5 Z" id="Path-9" fill="#000000"></path>
            <g id="Group-3" transform="translate(456.0, 44.0)">
                <mask id="mask-141" fill="white">
                    <use xlink:href="#path-140"></use>
                </mask>
                <use id="Mask" fill="#FFE55E" xlink:href="#path-140"></use>
                <path d="M220.5,127.5 C221.5,102 217.5,64.5 212,61.5 C206.5,58.5 117.5,52.9 26,69.5 C11.5,44.4 3,25.5 1.5,4.5 C-6.3e-14,-16.5 183,-11 183,-11 C183,-11 231.0,42 232.5,42 C233.9,42 232,124.5 232,124.5 C232,124.5 219.5,153 220.5,127.5 Z" id="Path-82" fill="#F3B34D" filter="url(#filter-142)" mask="url(#mask-141)"></path>
                <path d="M-13,-0.5 L0.5,4 C0.5,4 5,2.5 5,13.5 C5,24.5 14.5,54 27,67.5 C23,90 23,143.5 27.5,164 C32,184.5 -16,138.5 -16,137.5 C-16,136.5 -22.5,44.5 -22.5,44.5 L-13,-0.5 Z" id="Path-83" fill="#F3B34D" filter="url(#filter-143)" mask="url(#mask-141)"></path>
                <path d="M14.5,96 C15,79.5 16.5,65.5 21,61.5 C25.5,57.5 49.5,53.5 63,52 C61.5,49.5 61.5,48 60,45.5 C26,49.5 20,54 17,58 C14,62 11.5,81.5 11.5,91.5 C12.5,93 13,93.5 14.5,96 Z" id="Path-10" fill="#000000" mask="url(#mask-141)"></path>
                <path d="M216,54.5 C212.5,50 201,46.5 170,46.5 C168.5,44 167.5,42.5 166.5,40.5 C192,40.5 211,44 216.5,52.5 C217,52.5 219.5,59 216,54.5 Z" id="Path-11" fill="#000000" mask="url(#mask-141)"></path>
                <path d="M223,62 L192,58.5 C192,58.5 191.5,112.5 178,162 C164.5,211.5 242,147 242,147 L223,62 Z" id="Path-111" fill="#F3B34D" opacity="0.3" filter="url(#filter-144)" mask="url(#mask-141)"></path>
            </g>
            <g id="Group-49" transform="translate(84.0, 1372.0)">
                <mask id="mask-146" fill="white">
                    <use xlink:href="#path-145"></use>
                </mask>
                <use id="Mask" fill="#FFE55E" xlink:href="#path-145"></use>
                <path d="M27,16.9 C38.5,64.4 75,179 100,219.5 C125,260 -9,203.5 -9,203.5 L-32,47 L-14.5,4 C-14.5,4 15.5,-30.5 27,16.9 Z" id="Path-146" fill="#F3B34D" opacity="0.2" filter="url(#filter-147)" mask="url(#mask-146)"></path>
                <path d="M169,23.5 C166,69.5 156.5,173.5 139,204 C121.5,234.5 193.5,181.5 193.5,181.5 L231,8 L188,-10.5 L168,5 C168,5 172,-22.5 169,23.5 Z" id="Path-147" fill="#F3B34D" filter="url(#filter-148)" mask="url(#mask-146)"></path>
            </g>
            <path d="M261.5,1402.5 C272.5,1396.5 284.5,1391 284,1388.5 C283.5,1386 277,1387.5 271.5,1386.5 C266,1385.5 250.5,1408.5 261.5,1402.5 Z" id="Path-75" fill="#000000"></path>
            <g id="Group-23" transform="translate(77.0, 1264.0)">
                <mask id="mask-150" fill="white">
                    <use xlink:href="#path-149"></use>
                </mask>
                <use id="Mask" fill="#FFE55E" xlink:href="#path-149"></use>
                <path d="M-7.5,64 C32,58.5 106,63.9 169,76 C197,44.5 226,1.5 226,1.5 L28.5,-10 L-12.5,51.5 C-12.5,51.5 -47,69.5 -7.5,64 Z" id="Path-143" fill="#F3B34D" filter="url(#filter-151)" mask="url(#mask-150)"></path>
                <path d="M225,14 C225,14 187,66 171.5,81.5 C174,98.5 173.5,134 165.5,172 C157.5,210 254.5,103.5 254.5,103.5 L225,14 Z" id="Path-144" fill="#F3B34D" filter="url(#filter-152)" mask="url(#mask-150)"></path>
                <path d="M-5.5,68 L9.2,68 C9.2,68 10,134 31,164 C52,194 -16.5,126.5 -16.5,126.5 L-5.5,68 Z" id="Path-145" fill="#F3B34D" opacity="0.2" filter="url(#filter-153)" mask="url(#mask-150)"></path>
                <path d="M180.5,8.5 C187.5,9.5 212.5,11.5 217.5,18.5 C222.5,25.5 224.5,40.5 224,51 C223,52.5 221,53.5 221,53.5 C221,53.5 222.5,26.5 214.5,20.5 C206.5,14.5 189.5,12.5 177,11 C178.5,10 178.5,9.5 180.5,8.5 Z" id="Path-73" fill="#000000" mask="url(#mask-150)"></path>
                <path d="M37,7.5 C45.5,4 59,2 79.5,2.5 C78.5,3.4 78,3.9 77,5.5 C53.5,5.4 46.5,5.9 33.5,10 C35.5,9.4 28.5,11 37,7.5 Z" id="Path-74" fill="#000000" mask="url(#mask-150)"></path>
            </g>
            <path d="M84.5,1402 C81.5,1405 76.5,1412 85.5,1417 C85.4,1412.5 84.9,1407 84.5,1402 Z" id="Path-77" fill="#000000"></path>
            <g id="Group-57" transform="translate(1004.0, 516.0)">
                <mask id="mask-155" fill="white">
                    <use xlink:href="#path-154"></use>
                </mask>
                <use id="Mask" fill="url(#linearGradient-86)" transform="translate(13.2, 31.8) rotate(5.0) translate(-13.2, -31.8) " xlink:href="#path-154"></use>
                <ellipse id="Oval-3-Copy-22" fill="#52BBD3" mask="url(#mask-155)" transform="translate(7.2, 31.8) rotate(5.0) translate(-7.2, -31.8) " cx="7.2" cy="31.8" rx="10.5" ry="31"></ellipse>
                <path d="M5.7,12.3 C9.1,5.8 12.6,9.4 13.5,20.2 C13.7,22.8 13.8,25.7 13.7,28.5 C11.7,31.3 9.7,34.6 7.7,38.4 C5.8,42.0 4.0,46.0 2.2,50.2 C1.7,48.4 1.4,46.3 1.1,43.7 C0.2,32.8 2.3,18.8 5.7,12.3 Z" id="Mask" fill="#FFFBD7" mask="url(#mask-155)"></path>
                <path d="M7.9,38.3 C7.2,39.6 6.5,40.9 5.9,42.2 C5.3,41.4 4.9,39.8 4.7,37.5 C4.2,32.2 5.2,25.4 6.9,22.2 C8.5,19.1 10.2,20.8 10.7,26.0 C10.9,28.4 10.8,31.1 10.5,33.6 C9.6,35.1 8.7,36.7 7.9,38.3 Z" id="Combined-Shape" fill="#000000" mask="url(#mask-155)"></path>
            </g>
            <g id="Group-58" transform="translate(1035.0, 488.0)">
                <mask id="mask-157" fill="white">
                    <use xlink:href="#path-156"></use>
                </mask>
                <use id="Mask" fill="url(#linearGradient-86)" transform="translate(11.2, 31.1) rotate(5.0) translate(-11.2, -31.1) " xlink:href="#path-156"></use>
                <ellipse id="Oval-3-Copy-14" fill="#52BBD3" mask="url(#mask-157)" transform="translate(6.2, 31.1) rotate(5.0) translate(-6.2, -31.1) " cx="6.2" cy="31.1" rx="8.5" ry="30.5"></ellipse>
                <path d="M7.5,10.6 C4.5,10.7 1.5,19.3 0.8,29.6 C0.6,32.2 0.5,34.6 0.6,36.8 C2.3,35.9 4.0,35.4 5.7,35.3 C7.4,35.2 9.0,35.5 10.4,36.1 C10.9,33.9 11.2,31.6 11.4,29.1 C12.1,18.7 10.4,10.4 7.5,10.6 Z" id="Mask-Copy-2" fill="#FFFBD7" mask="url(#mask-157)"></path>
                <path d="M5.8,35.3 C6.4,35.3 6.9,35.3 7.5,35.3 C8.0,33.7 8.4,31.7 8.5,29.5 C8.9,24.4 8.1,20.4 6.6,20.5 C5.2,20.5 3.7,24.7 3.4,29.7 C3.2,32.0 3.3,34.1 3.5,35.7 C4.3,35.5 5.0,35.3 5.8,35.3 Z" id="Combined-Shape-Copy-2" fill="#000000" mask="url(#mask-157)"></path>
            </g>
            <g id="Group-55" transform="translate(610.0, 518.0)">
                <mask id="mask-159" fill="white">
                    <use xlink:href="#path-158"></use>
                </mask>
                <use id="Mask" fill="url(#linearGradient-86)" transform="translate(19.7, 33.2) rotate(7.0) translate(-19.7, -33.2) " xlink:href="#path-158"></use>
                <path d="M13.7,63.7 C22.6,63.7 29.8,49.6 29.8,32.2 C29.8,14.8 22.6,0.7 13.7,0.7 C4.9,0.7 -2.2,14.8 -2.2,32.2 C-2.2,49.6 4.9,63.7 13.7,63.7 Z" id="Oval-3-Copy-20" fill="#52BBD3" mask="url(#mask-159)" transform="translate(13.7, 32.2) rotate(7.0) translate(-13.7, -32.2) "></path>
                <g id="Group-9" mask="url(#mask-159)">
                    <g transform="translate(3.0, 8.0)">
                        <path d="M8.4,3.9 C14.1,-2.5 20.0,1.1 21.6,12.2 C21.9,15.0 22.0,17.9 21.8,20.8 C18.5,23.5 15.2,26.8 11.7,30.7 C8.5,34.3 5.4,38.3 2.5,42.5 C1.7,40.7 1.1,38.4 0.7,35.8 C-0.7,24.7 2.6,10.4 8.4,3.9 Z" id="Mask" fill="#FFFBD7"></path>
                        <path d="M12.0,30.6 C10.9,31.9 9.8,33.2 8.7,34.5 C7.7,33.6 7.0,31.9 6.6,29.6 C5.9,24.2 7.6,17.2 10.4,14.1 C13.2,10.9 16.0,12.7 16.8,18.1 C17.1,20.6 17.0,23.3 16.4,25.9 C15.0,27.4 13.5,28.9 12.0,30.6 Z" id="Combined-Shape" fill="#000000"></path>
                    </g>
                </g>
            </g>
            <g id="Group-56" transform="translate(657.0, 494.0)">
                <mask id="mask-161" fill="white">
                    <use xlink:href="#path-160"></use>
                </mask>
                <use id="Mask" fill="url(#linearGradient-86)" transform="translate(17.1, 31.9) rotate(7.0) translate(-17.1, -31.9) " xlink:href="#path-160"></use>
                <ellipse id="Oval-3-Copy-21" fill="#52BBD3" mask="url(#mask-161)" transform="translate(11.1, 30.9) rotate(7.0) translate(-11.1, -30.9) " cx="11.1" cy="30.9" rx="13.5" ry="30.5"></ellipse>
                <g id="Group-8" mask="url(#mask-161)">
                    <g transform="translate(1.0, 9.0)">
                        <path d="M12.4,0.4 C7.4,0.4 2.2,9.5 0.9,20.6 C0.6,23.3 0.5,25.9 0.6,28.3 C3.5,27.4 6.4,26.9 9.4,26.9 C12.2,26.8 14.9,27.2 17.4,28.0 C18.1,25.7 18.7,23.1 19.0,20.4 C20.3,9.3 17.4,0.3 12.4,0.4 Z" id="Mask-Copy-2" fill="#FFFBD7"></path>
                        <path d="M9.5,26.9 C10.5,26.9 11.4,26.9 12.4,27.0 C13.2,25.3 13.9,23.1 14.1,20.7 C14.8,15.3 13.3,11.0 10.9,11.0 C8.5,11.0 6.0,15.4 5.3,20.8 C5.0,23.2 5.2,25.5 5.6,27.2 C6.9,27.0 8.2,26.9 9.5,26.9 Z" id="Combined-Shape-Copy-2" fill="#000000"></path>
                    </g>
                </g>
            </g>
            <g id="Group-53" transform="translate(213.0, 520.0)">
                <mask id="mask-163" fill="white">
                    <use xlink:href="#path-162"></use>
                </mask>
                <use id="Mask" fill="url(#linearGradient-86)" transform="translate(26.9, 34.9) rotate(12.0) translate(-26.9, -34.9) " xlink:href="#path-162"></use>
                <ellipse id="Oval-3-Copy-19" fill="#52BBD3" mask="url(#mask-163)" transform="translate(20.9, 32.9) rotate(12.0) translate(-20.9, -32.9) " cx="20.9" cy="32.9" rx="20.0" ry="31.5"></ellipse>
                <path d="M17.6,12.8 C24.9,7.0 32.4,10.7 34.4,21.2 C34.9,23.8 35.0,26.5 34.7,29.2 C30.5,31.6 26.3,34.5 21.9,38.0 C17.8,41.2 13.9,44.8 10.2,48.6 C9.2,46.9 8.4,44.7 7.9,42.2 C6.0,31.8 10.3,18.6 17.6,12.8 Z" id="Mask" fill="#FFFBD7" mask="url(#mask-163)"></path>
                <path d="M22.3,37.9 C20.8,39.0 19.4,40.2 18.1,41.4 C16.8,40.6 15.9,38.9 15.5,36.7 C14.5,31.6 16.6,25.2 20.2,22.4 C23.7,19.6 27.4,21.4 28.3,26.5 C28.7,28.8 28.5,31.4 27.9,33.7 C26.0,35.0 24.1,36.4 22.3,37.9 Z" id="Combined-Shape" fill="#000000" mask="url(#mask-163)"></path>
            </g>
            <g id="Group-54" transform="translate(274.0, 498.0)">
                <mask id="mask-165" fill="white">
                    <use xlink:href="#path-164"></use>
                </mask>
                <use id="Mask" fill="url(#linearGradient-86)" transform="translate(24.1, 34.0) rotate(12.0) translate(-24.1, -34.0) " xlink:href="#path-164"></use>
                <ellipse id="Oval-3-Copy-10" fill="#52BBD3" mask="url(#mask-165)" transform="translate(18.1, 33.0) rotate(12.0) translate(-18.1, -33.0) " cx="18.1" cy="33.0" rx="18.0" ry="31"></ellipse>
                <path d="M22.1,9.6 C14.8,9.4 7.3,18.9 5.4,30.9 C4.9,33.8 4.8,36.6 5.0,39.2 C9.2,38.4 13.5,38.0 17.8,38.1 C21.9,38.3 25.8,38.8 29.5,39.8 C30.6,37.3 31.4,34.6 31.8,31.7 C33.8,19.7 29.4,9.8 22.1,9.6 Z" id="Mask-Copy-2" fill="#FFFBD7" mask="url(#mask-165)"></path>
                <path d="M17.9,38.1 C19.4,38.2 20.8,38.3 22.1,38.4 C23.4,36.6 24.3,34.3 24.7,31.7 C25.7,25.9 23.6,21.1 20.0,21.0 C16.5,20.9 12.8,25.5 11.9,31.3 C11.5,34.0 11.7,36.4 12.3,38.2 C14.2,38.1 16.1,38.1 17.9,38.1 Z" id="Combined-Shape-Copy-2" fill="#000000" mask="url(#mask-165)"></path>
            </g>
            <g id="Group-14" transform="translate(1676.0, 112.0)">
                <mask id="mask-167" fill="white">
                    <use xlink:href="#path-166"></use>
                </mask>
                <use id="Mask" fill="#52BBD3" transform="translate(32.8, 37.5) rotate(19.0) translate(-32.8, -37.5) " xlink:href="#path-166"></use>
                <g id="Group-11" mask="url(#mask-167)">
                    <g transform="translate(-6.0, -3.0)">
                        <ellipse id="Oval-3-Copy-17" fill="#52BBD3" transform="translate(32.8, 37.5) rotate(19.0) translate(-32.8, -37.5) " cx="32.8" cy="37.5" rx="23.9" ry="31.5"></ellipse>
                        <path d="M29.4,17.9 C38.0,12.3 46.7,16.6 48.9,27.6 C49.5,30.3 49.6,33.1 49.3,35.9 C44.3,38.2 39.3,41.0 34.2,44.3 C29.3,47.5 24.7,50.9 20.3,54.7 C19.1,52.8 18.2,50.6 17.7,48.0 C15.6,37.0 20.8,23.5 29.4,17.9 Z" id="Mask" fill="#FFFBD7"></path>
                        <path d="M34.6,44.3 C32.9,45.4 31.2,46.5 29.6,47.7 C28.1,46.7 27.0,45.0 26.6,42.6 C25.5,37.3 28.1,30.8 32.3,28.0 C36.4,25.3 40.7,27.4 41.8,32.7 C42.2,35.1 42.0,37.8 41.2,40.2 C39.0,41.5 36.8,42.8 34.6,44.3 Z" id="Combined-Shape" fill="#000000"></path>
                    </g>
                </g>
            </g>
            <g id="Group-13" transform="translate(1750.0, 93.0)">
                <mask id="mask-169" fill="white">
                    <use xlink:href="#path-168"></use>
                </mask>
                <use id="Mask" fill="#52BBD3" transform="translate(29.3, 35.9) rotate(14.0) translate(-29.3, -35.9) " xlink:href="#path-168"></use>
                <g id="Group-12" mask="url(#mask-169)">
                    <g transform="translate(-6.0, -3.0)">
                        <ellipse id="Oval-3-Copy-18" fill="#52BBD3" transform="translate(29.3, 35.9) rotate(14.0) translate(-29.3, -35.9) " cx="29.3" cy="35.9" rx="22.4" ry="31.5"></ellipse>
                        <path d="M33.6,14.5 C25.0,13.8 16.3,23.3 14.0,35.6 C13.5,38.6 13.4,41.5 13.7,44.2 C18.6,43.6 23.7,43.5 28.8,43.8 C33.6,44.2 38.3,45.0 42.7,46.2 C43.9,43.7 44.8,40.9 45.3,37.9 C47.4,25.6 42.1,15.1 33.6,14.5 Z" id="Mask-Copy-2" fill="#FFFBD7"></path>
                        <path d="M28.9,43.9 C30.6,44.0 32.3,44.2 33.9,44.4 C35.4,42.6 36.5,40.2 36.9,37.6 C38.0,31.6 35.4,26.5 31.2,26.2 C27.0,25.9 22.8,30.5 21.7,36.5 C21.2,39.2 21.5,41.7 22.3,43.7 C24.5,43.6 26.7,43.7 28.9,43.9 Z" id="Combined-Shape-Copy-2" fill="#000000"></path>
                    </g>
                </g>
            </g>
            <g id="Group-52" transform="translate(1278.0, 111.0)">
                <mask id="mask-171" fill="white">
                    <use xlink:href="#path-170"></use>
                </mask>
                <use id="Mask" fill="url(#linearGradient-86)" transform="translate(37.9, 40.0) rotate(27.0) translate(-37.9, -40.0) " xlink:href="#path-170"></use>
                <ellipse id="Oval-3-Copy-8" fill="#52BBD3" mask="url(#mask-171)" transform="translate(32.9, 37.0) rotate(27.0) translate(-32.9, -37.0) " cx="32.9" cy="37.0" rx="26.5" ry="31.5"></ellipse>
                <g id="Group-15" mask="url(#mask-171)">
                    <g transform="translate(13.0, 14.0)">
                        <path d="M14.6,2.8 C24.5,-2.1 34.7,2.8 37.4,14.1 C38.1,16.8 38.2,19.7 37.9,22.5 C32.2,24.4 26.3,26.8 20.4,29.8 C14.8,32.6 9.5,35.7 4.5,39.1 C3.0,37.2 2.0,34.8 1.3,32.1 C-1.2,20.9 4.6,7.8 14.6,2.8 Z" id="Mask" fill="#FFFBD7"></path>
                        <path d="M20.9,29.7 C18.9,30.7 17.0,31.7 15.1,32.8 C13.5,31.7 12.2,29.9 11.6,27.5 C10.3,22.0 13.2,15.6 18.0,13.2 C22.9,10.8 27.8,13.2 29.1,18.7 C29.7,21.2 29.4,23.8 28.5,26.2 C26.0,27.3 23.4,28.5 20.9,29.7 Z" id="Combined-Shape" fill="#000000"></path>
                    </g>
                </g>
            </g>
            <g id="Group-51" transform="translate(1360.0, 96.0)">
                <mask id="mask-173" fill="white">
                    <use xlink:href="#path-172"></use>
                </mask>
                <use id="Mask" fill="url(#linearGradient-86)" transform="translate(37.0, 39.6) rotate(27.0) translate(-37.0, -39.6) " xlink:href="#path-172"></use>
                <ellipse id="Oval-3-Copy-6" fill="#52BBD3" mask="url(#mask-173)" transform="translate(32.0, 36.6) rotate(27.0) translate(-32.0, -36.6) " cx="32.0" cy="36.6" rx="25.5" ry="31.5"></ellipse>
                <path d="M37.0,14.2 C27.0,12.8 16.8,21.9 14.1,34.4 C13.5,37.5 13.3,40.5 13.6,43.2 C19.4,43.0 25.2,43.3 31.1,44.1 C36.7,44.8 42.0,46.0 47.1,47.6 C48.5,45.1 49.5,42.3 50.2,39.3 C52.8,26.8 46.9,15.5 37.0,14.2 Z" id="Mask-Copy-2" fill="#FFFBD7" mask="url(#mask-173)"></path>
                <path d="M31.2,44.1 C33.2,44.4 35.1,44.7 37.0,45.1 C38.7,43.3 40.0,40.9 40.5,38.3 C41.8,32.2 39.0,26.7 34.1,26.1 C29.3,25.4 24.3,29.8 23.0,35.9 C22.4,38.6 22.7,41.3 23.6,43.4 C26.1,43.5 28.7,43.8 31.2,44.1 Z" id="Combined-Shape-Copy-2" fill="#000000" mask="url(#mask-173)"></path>
            </g>
            <g id="Group-16" transform="translate(879.0, 109.0)">
                <mask id="mask-175" fill="white">
                    <use xlink:href="#path-174"></use>
                </mask>
                <use id="Mask" fill="#52BBD3" transform="translate(43.0, 42.3) rotate(47.0) translate(-43.0, -42.3) " xlink:href="#path-174"></use>
                <ellipse id="Oval-3-Copy-7" fill="#52BBD3" mask="url(#mask-175)" transform="translate(39.0, 39.3) rotate(47.0) translate(-39.0, -39.3) " cx="39.0" cy="39.3" rx="28" ry="32"></ellipse>
                <path d="M32.6,18.7 C43.5,14.2 54.7,20.1 57.6,31.9 C58.3,34.8 58.5,37.8 58.1,40.7 C51.9,42.3 45.5,44.4 39.1,47.0 C33.0,49.5 27.1,52.4 21.6,55.6 C20.1,53.5 18.9,51.0 18.2,48.2 C15.3,36.4 21.8,23.2 32.6,18.7 Z" id="Mask" fill="#FFFBD7" mask="url(#mask-175)"></path>
                <path d="M39.6,47.0 C37.4,47.9 35.3,48.8 33.3,49.8 C31.4,48.6 30.0,46.6 29.4,44.1 C28.0,38.3 31.1,31.9 36.4,29.7 C41.7,27.6 47.1,30.4 48.6,36.2 C49.2,38.8 48.9,41.5 47.9,43.9 C45.1,44.8 42.4,45.9 39.6,47.0 Z" id="Combined-Shape" fill="#000000" mask="url(#mask-175)"></path>
            </g>
            <g id="Group-17" transform="translate(969.0, 99.0)">
                <mask id="mask-177" fill="white">
                    <use xlink:href="#path-176"></use>
                </mask>
                <use id="Mask" fill="url(#linearGradient-86)" transform="translate(42.1, 41.9) rotate(47.0) translate(-42.1, -41.9) " xlink:href="#path-176"></use>
                <ellipse id="Oval-3-Copy-3" fill="#52BBD3" mask="url(#mask-177)" transform="translate(38.1, 38.9) rotate(47.0) translate(-38.1, -38.9) " cx="38.1" cy="38.9" rx="28" ry="31.5"></ellipse>
                <path d="M44.7,17.2 C33.8,15.1 22.6,23.6 19.7,36.0 C19.0,39.1 18.9,42.1 19.2,44.9 C25.4,45.1 31.8,45.7 38.3,46.9 C44.4,48.1 50.2,49.6 55.7,51.6 C57.2,49.1 58.4,46.4 59.1,43.4 C62.0,30.9 55.6,19.2 44.7,17.2 Z" id="Mask-Copy-2" fill="#FFFBD7" mask="url(#mask-177)"></path>
                <path d="M38.4,47.0 C40.6,47.4 42.6,47.8 44.7,48.3 C46.5,46.7 47.9,44.4 48.6,41.7 C50.0,35.6 46.8,29.9 41.6,29.0 C36.3,28.0 30.8,32.1 29.4,38.1 C28.8,40.9 29.1,43.5 30.1,45.7 C32.8,46.0 35.6,46.5 38.4,47.0 Z" id="Combined-Shape-Copy-2" fill="#000000" mask="url(#mask-177)"></path>
            </g>
            <g id="Group-18" transform="translate(487.0, 107.0)">
                <mask id="mask-179" fill="white">
                    <use xlink:href="#path-178"></use>
                </mask>
                <use id="Mask" fill="url(#linearGradient-86)" transform="translate(42.7, 42.7) rotate(47.0) translate(-42.7, -42.7) " xlink:href="#path-178"></use>
                <ellipse id="Oval-3-Copy-2" fill="#52BBD3" mask="url(#mask-179)" transform="translate(41.7, 37.7) rotate(47.0) translate(-41.7, -37.7) " cx="41.7" cy="37.7" rx="29.5" ry="31"></ellipse>
                <path d="M61.5,30.8 C62.2,33.6 62.4,36.4 62.0,39.1 C55.5,40.3 48.9,42.0 42.2,44.3 C35.8,46.4 29.8,48.8 24.0,51.6 C22.4,49.6 21.2,47.1 20.5,44.4 C17.5,33.2 24.2,21.0 35.5,17.3 C46.8,13.5 58.4,19.6 61.5,30.8 Z" id="Mask" fill="#FFFBD7" mask="url(#mask-179)"></path>
                <path d="M36.2,46.6 C34.2,45.4 32.8,43.4 32.1,41.0 C30.7,35.6 33.9,29.7 39.4,27.8 C44.9,26.0 50.6,28.9 52.0,34.4 C52.7,36.9 52.4,39.4 51.4,41.7 C48.5,42.4 45.6,43.3 42.7,44.3 C40.5,45.0 38.3,45.8 36.2,46.6 Z" id="Combined-Shape" fill="#000000" mask="url(#mask-179)"></path>
            </g>
            <g id="Group-19" transform="translate(581.0, 101.0)">
                <mask id="mask-181" fill="white">
                    <use xlink:href="#path-180"></use>
                </mask>
                <use id="Mask" fill="url(#linearGradient-86)" transform="translate(42.7, 42.7) rotate(47.0) translate(-42.7, -42.7) " xlink:href="#path-180"></use>
                <path d="M40.7,68.7 C57.0,68.7 70.2,54.8 70.2,37.7 C70.2,20.5 57.0,6.7 40.7,6.7 C24.4,6.7 11.2,20.5 11.2,37.7 C11.2,54.8 24.4,68.7 40.7,68.7 Z" id="Oval-3-Copy" fill="#52BBD3" mask="url(#mask-181)" transform="translate(40.7, 37.7) rotate(47.0) translate(-40.7, -37.7) "></path>
                <path d="M20.7,33.5 C19.9,36.4 19.8,39.2 20.1,41.9 C26.6,42.3 33.3,43.2 40.0,44.6 C46.3,45.9 52.4,47.7 58.1,49.7 C59.7,47.5 60.9,45.0 61.7,42.2 C64.7,30.6 58.0,19.2 46.6,16.8 C35.3,14.4 23.7,21.9 20.7,33.5 Z" id="Mask-Copy-2" fill="#FFFBD7" mask="url(#mask-181)"></path>
                <path d="M46.7,46.2 C48.6,44.7 50.1,42.6 50.7,40.1 C52.2,34.5 48.9,29.0 43.4,27.8 C37.9,26.7 32.3,30.3 30.8,35.9 C30.1,38.5 30.4,41.0 31.5,43.1 C34.3,43.5 37.2,44.0 40.1,44.7 C42.4,45.1 44.5,45.6 46.7,46.2 Z" id="Combined-Shape-Copy-2" fill="#000000" mask="url(#mask-181)"></path>
            </g>
        </g>
    </g>
</svg>
