<?xml version="1.0" encoding="UTF-8" standalone="no"?>
<svg width="67px" height="94px" viewBox="0 0 67 94" version="1.1" xmlns="http://www.w3.org/2000/svg" xmlns:xlink="http://www.w3.org/1999/xlink">
    <!-- Generator: Sketch 40.2 (33826) - http://www.bohemiancoding.com/sketch -->
    <title>hand</title>
    <desc>Created with Sketch.</desc>
    <defs></defs>
    <g id="логин" stroke="none" stroke-width="1" fill="none" fill-rule="evenodd">
        <g id="hand" fill="#000000">
            <path d="M23.1,67.5 C22.6,71.4 23.3,75.4 25.4,79.1 C30.5,88.4 42.1,91.7 51.4,86.6 C53.3,85.5 55.0,84.2 56.3,82.6 L51.2,77.7 L51.2,77.7 C50.8,78.1 50.2,78.5 49.7,78.8 C45.6,81.0 40.5,79.6 38.2,75.5 C36.0,71.4 37.4,66.3 41.5,64.0 C45.6,61.8 50.7,63.3 52.9,67.3 C53.5,68.4 53.9,69.5 54.0,70.6 L61.2,71.0 C61.4,67.5 60.7,63.9 58.8,60.6 C54.8,53.2 46.6,49.6 38.8,51.0 C25.6,43.8 17.3,34.9 22.5,17.6 C19.4,2.7 14.7,3.5 9.5,14.2 C2.5,27.2 2.6,50.0 23.1,67.5 L23.1,67.5 Z" id="Combined-Shape"></path>
        </g>
    </g>
</svg>
