<?xml version="1.0" encoding="UTF-8" standalone="no"?>
<svg width="1041px" height="275px" viewBox="0 0 1041 275" version="1.1" xmlns="http://www.w3.org/2000/svg" xmlns:xlink="http://www.w3.org/1999/xlink">
    <!-- Generator: Sketch 40.2 (33826) - http://www.bohemiancoding.com/sketch -->
    <title>header</title>
    <desc>Created with Sketch.</desc>
    <defs>
        <path d="M0.7,7.6 C-0.7,26.0 16.0,114.0 23.7,135.5 C34.4,155.4 53.9,184.5 60.0,186.4 C69.2,189.2 138.5,181.8 146.1,172.6 C153.8,163.4 168.3,80.7 167.2,60.8 C166.0,40.9 125.1,33.3 125.1,33.3 C125.1,33.3 22.9,12.6 22.9,12.6 C22.9,12.6 2.2,-10.7 0.7,7.6 Z" id="path-1"></path>
        <filter x="-50%" y="-50%" width="200%" height="200%" filterUnits="objectBoundingBox" id="filter-3">
            <feGaussianBlur color-interpolation-filters="sRGB" stdDeviation="1" in="SourceGraphic"></feGaussianBlur>
        </filter>
        <filter x="-50%" y="-50%" width="200%" height="200%" filterUnits="objectBoundingBox" id="filter-4">
            <feGaussianBlur color-interpolation-filters="sRGB" stdDeviation="1" in="SourceGraphic"></feGaussianBlur>
        </filter>
        <path d="M119.0,1.1 C133.6,2.7 175.2,30.2 180.2,39.8 C185.2,49.3 184.8,101.4 177.9,107.9 C171.0,114.4 64.6,129.0 44.0,124.7 C33.5,122.6 6.5,76.9 2.6,65.4 C-1.1,53.9 -1.1,19.9 4.5,14.5 C10.3,9.1 84.9,-2.6 119.0,1.1 Z" id="path-5"></path>
        <filter x="-50%" y="-50%" width="200%" height="200%" filterUnits="objectBoundingBox" id="filter-7">
            <feGaussianBlur color-interpolation-filters="sRGB" stdDeviation="1" in="SourceGraphic"></feGaussianBlur>
        </filter>
        <filter x="-50%" y="-50%" width="200%" height="200%" filterUnits="objectBoundingBox" id="filter-8">
            <feGaussianBlur color-interpolation-filters="sRGB" stdDeviation="1" in="SourceGraphic"></feGaussianBlur>
        </filter>
        <filter x="-50%" y="-50%" width="200%" height="200%" filterUnits="objectBoundingBox" id="filter-9">
            <feGaussianBlur color-interpolation-filters="sRGB" stdDeviation="1" in="SourceGraphic"></feGaussianBlur>
        </filter>
        <linearGradient x1="50%" y1="0%" x2="50%" y2="100%" id="linearGradient-10">
            <stop stop-color="#C66523" offset="0%"></stop>
            <stop stop-color="#FFE55E" offset="100%"></stop>
        </linearGradient>
        <ellipse id="path-11" cx="32.9" cy="32.3" rx="21.4" ry="24.5"></ellipse>
        <ellipse id="path-13" cx="33.2" cy="32.1" rx="21.4" ry="24.1"></ellipse>
    </defs>
    <g id="логин" stroke="none" stroke-width="1" fill="none" fill-rule="evenodd">
        <g id="header">
            <path d="M317.7,324.4 C352.9,324.4 381.4,295.9 381.4,260.7 C381.4,225.5 352.9,197 317.7,197 C282.5,197 254,225.5 254,260.7 C254,295.9 282.5,324.4 317.7,324.4 Z M277.1,242.8 C275.5,246.3 277.0,250.5 280.5,252.2 C284.0,253.8 288.2,252.3 289.9,248.8 C291.6,245.3 290.1,241.1 286.5,239.4 C283.0,237.7 278.8,239.2 277.1,242.8 Z M272.0,270.1 C270.4,273.7 271.9,277.9 275.4,279.5 C278.9,281.2 283.1,279.7 284.8,276.2 C286.5,272.7 285.0,268.5 281.4,266.8 C277.9,265.1 273.7,266.6 272.0,270.1 Z M290.5,290.3 C288.8,293.8 290.3,298.0 293.9,299.7 C297.4,301.4 301.6,299.9 303.3,296.4 C304.9,292.8 303.4,288.6 299.9,286.9 C296.4,285.3 292.2,286.8 290.5,290.3 Z M320.7,296.8 C319.1,300.3 320.6,304.5 324.1,306.2 C327.6,307.8 331.8,306.3 333.5,302.8 C335.2,299.3 333.7,295.1 330.1,293.4 C326.6,291.7 322.4,293.2 320.7,296.8 Z M344.4,274.7 C342.7,278.2 344.2,282.4 347.7,284.1 C351.2,285.8 355.5,284.3 357.1,280.7 C358.8,277.2 357.3,273.0 353.8,271.3 C350.2,269.6 346.0,271.1 344.4,274.7 Z M347.6,240.3 C345.9,243.8 347.4,248.0 350.9,249.7 C354.4,251.3 358.6,249.8 360.3,246.3 C362.0,242.8 360.5,238.6 357.0,236.9 C353.4,235.2 349.2,236.7 347.6,240.3 Z M327.0,222.6 C325.3,226.1 326.8,230.4 330.4,232.0 C333.9,233.7 338.1,232.2 339.8,228.7 C341.4,225.2 339.9,220.9 336.4,219.3 C332.9,217.6 328.7,219.1 327.0,222.6 Z M298.3,220.4 C296.6,223.9 298.1,228.1 301.6,229.8 C305.2,231.5 309.4,230.0 311.0,226.4 C312.7,222.9 311.2,218.7 307.7,217.0 C304.2,215.3 300.0,216.8 298.3,220.4 Z" id="Combined-Shape" fill="#F24040"></path>
            <g id="Page-1-Copy" transform="translate(17.0, 3.0)" fill="#F4D41D">
                <path d="M51.0,7.3 L50.6,8.5 C48.3,14.8 41.2,17.7 35.3,14.9 L34.1,14.3 C25.4,10.2 15.9,18.3 18.6,27.5 L19.0,28.7 C20.8,35.1 16.8,41.6 10.3,42.8 L9.1,43.1 C-0.3,44.8 -3.2,57.0 4.3,62.9 L5.3,63.7 C10.5,67.7 11.1,75.4 6.5,80.2 L5.7,81.1 C-0.8,88.1 3.8,99.7 13.4,100.0 L14.7,100.0 C21.3,100.2 26.3,106.1 25.4,112.6 L25.2,113.9 C24.0,123.4 34.6,130.0 42.6,124.6 L43.6,123.8 C49.1,120.1 56.5,121.9 59.7,127.7 L60.3,128.9 C64.9,137.3 77.3,136.4 80.6,127.3 L81.0,126.1 C83.2,119.9 90.3,117.0 96.3,119.8 L97.4,120.3 C106.1,124.5 115.6,116.4 112.9,107.1 L112.6,105.9 C110.7,99.6 114.8,93.0 121.2,91.8 L122.5,91.6 C132.0,89.8 134.9,77.7 127.3,71.8 L126.3,71.0 C121.1,66.9 120.5,59.3 125.0,54.5 L125.9,53.5 C132.5,46.5 127.8,35.0 118.1,34.7 L116.9,34.6 C110.3,34.4 105.3,28.6 106.2,22.0 L106.3,20.8 C107.6,11.2 97.0,4.7 89.0,10.1 L87.9,10.8 C82.5,14.5 75.0,12.7 71.9,6.9 L71.3,5.8 C66.7,-2.6 54.2,-1.6 51.0,7.3" id="Fill-1"></path>
            </g>
            <g id="Group" transform="translate(406.0, 106.0)">
                <g id="Group-6-Copy-5" transform="translate(174.0, 139.9) scale(-1, 1) rotate(30.0) translate(-174.0, -139.9) translate(148.5, 92.9)" fill="#000000">
                    <path d="M31.5,86.9 C29.5,87.6 27.4,88.0 25.2,88.0 C14.6,88.0 6.1,79.4 6.1,68.9 C6.1,58.3 14.6,49.7 25.2,49.7 C35.8,49.7 44.3,58.3 44.3,68.9 C44.3,72.6 43.2,76.2 41.4,79.1 L35.2,75.3 C35.7,74.2 35.9,73.1 35.9,71.9 C35.9,67.3 32.2,63.5 27.5,63.5 C22.9,63.5 19.1,67.3 19.1,71.9 C19.1,76.6 22.9,80.3 27.5,80.3 C28.2,80.3 28.8,80.3 29.4,80.1 L29.4,80.1 L31.5,86.9 Z" id="Combined-Shape" transform="translate(25.2, 68.9) rotate(22.0) translate(-25.2, -68.9) "></path>
                    <path d="M26.4,3.5 C13.3,12.0 -2.6,37.1 11.4,61.6 C16.8,61.6 25.6,58.1 25.6,58.1 C25.6,58.1 35.9,60.4 29.8,53.5 C18.9,38.1 23.5,25.8 31.5,13.2 C31.5,6.7 39.4,-4.8 26.4,3.5 Z" id="Path-6"></path>
                </g>
                <g id="Group-2" transform="translate(4.1, 57.4)">
                    <mask id="mask-2" fill="white">
                        <use xlink:href="#path-1"></use>
                    </mask>
                    <use id="Mask" fill="#FFE55E" xlink:href="#path-1"></use>
                    <path d="M-20.6,2.2 L42.4,39.4 C42.4,39.4 44.3,46.3 42.4,77.3 C40.5,108.3 50.8,163.4 58.1,192.9 C65.4,222.4 2.2,173.7 2.2,172.2 C2.2,170.7 -20.6,2.2 -20.6,2.2 Z" id="Path-34" fill="#F3B34D" opacity="0.8" filter="url(#filter-3)" mask="url(#mask-2)"></path>
                    <path d="M150.7,24.1 L113.2,49 C113.2,49 117.4,138.9 63.5,194.0 C110.2,201.7 153.8,187.9 153.8,187.9 L182.9,75.0 L175.2,35.6 L150.7,24.1 Z" id="Path-35" fill="#F3B34D" opacity="0.5" filter="url(#filter-4)" mask="url(#mask-2)"></path>
                </g>
                <path d="M11.8,73.3 C11.8,81.4 32.1,132.3 47.8,138.0 C63.4,143.8 110.5,138.4 122.8,136.5 C135.0,134.6 164.1,130.4 164.1,123.1 C164.1,115.8 162.6,108.6 156.4,105.1 C150.3,101.7 69.6,94.0 69.6,94.0 C69.6,94.0 11.8,65.3 11.8,73.3 Z" id="Path-15" fill="#000000"></path>
                <g id="Group-36" transform="translate(0.3, 0.0)">
                    <mask id="mask-6" fill="white">
                        <use xlink:href="#path-5"></use>
                    </mask>
                    <use id="Mask" fill="#FFE55E" xlink:href="#path-5"></use>
                    <path d="M184.8,40.1 C184.8,40.1 149.6,40.9 131.6,43.6 C131.6,62.0 125.1,113.3 120.1,128.2 C115.1,143.1 200.8,114.0 200.8,114.0 L184.8,40.1 Z" id="Path-85" fill="#F3B34D" opacity="0.5" filter="url(#filter-7)" mask="url(#mask-6)"></path>
                    <path d="M0.7,9.1 C11.0,25.2 35.9,50.1 42.8,57.0 C86.0,47.8 146.5,42.1 176.7,42.1 C183.6,65.8 186.3,95.3 186.3,95.3 L203.5,56.6 L146.5,-17.6 L61.6,-11.4 C61.6,-11.4 -9.5,-6.8 0.7,9.1 Z" id="Path-68" fill="#F3B34D" filter="url(#filter-8)" mask="url(#mask-6)"></path>
                    <path d="M-1.9,5.3 C-1.9,5.3 25.6,40.5 42.4,56.6 C39.0,77.3 37.5,109.4 42.0,129.3 C46.6,149.2 -26.7,92.2 -26.7,89.9 C-26.7,87.6 -1.9,5.3 -1.9,5.3 Z" id="Path-84" fill="#F3B34D" opacity="0.8" filter="url(#filter-9)" mask="url(#mask-6)"></path>
                    <path d="M33.2,78.8 C33.2,66.6 34.0,55.1 37.8,51.6 C41.7,48.2 51.2,45.1 68.8,42.1 C67.7,40.1 66.5,39.4 64.6,37.1 C40.1,40.1 35.2,45.1 33.6,47.0 C32.1,49 29.0,55.8 28.6,75.0 C30.6,76.5 30.6,76.9 33.2,78.8 Z" id="Path-12" fill="#000000" mask="url(#mask-6)"></path>
                    <path d="M142.3,28.7 L146.1,33.6 C146.1,33.6 172.9,31.3 180.6,36.7 C181.3,35.2 179.0,34.4 179.0,34.4 C179.0,34.4 179.0,27.9 142.3,28.7 Z" id="Path-13" fill="#000000" mask="url(#mask-6)"></path>
                </g>
                <g id="Group-16" transform="translate(47.0, 50.5)">
                    <mask id="mask-12" fill="white">
                        <use xlink:href="#path-11"></use>
                    </mask>
                    <use id="Mask" fill="url(#linearGradient-10)" transform="translate(32.9, 32.3) rotate(47.0) translate(-32.9, -32.3) " xlink:href="#path-11"></use>
                    <ellipse id="Oval-3-Copy-7" fill="#52BBD3" mask="url(#mask-12)" transform="translate(29.8, 30.0) rotate(47.0) translate(-29.8, -30.0) " cx="29.8" cy="30.0" rx="21.4" ry="24.5"></ellipse>
                    <ellipse id="Oval-3" fill="#FFFBD7" mask="url(#mask-12)" transform="translate(29.2, 30.2) rotate(34.0) translate(-29.2, -30.2) " cx="29.2" cy="30.2" rx="15.3" ry="18.3"></ellipse>
                </g>
                <polygon id="Polygon" fill="#000000" transform="translate(73.7, 78.8) rotate(17.0) translate(-73.7, -78.8) " points="73.7 69.5 81.7 74.1 81.7 83.4 73.7 88.0 65.7 83.4 65.7 74.1"></polygon>
                <g id="Group-17" transform="translate(114.9, 42.8)">
                    <mask id="mask-14" fill="white">
                        <use xlink:href="#path-13"></use>
                    </mask>
                    <use id="Mask" fill="url(#linearGradient-10)" transform="translate(33.2, 32.1) rotate(47.0) translate(-33.2, -32.1) " xlink:href="#path-13"></use>
                    <ellipse id="Oval-3-Copy-3" fill="#52BBD3" mask="url(#mask-14)" transform="translate(30.1, 29.8) rotate(47.0) translate(-30.1, -29.8) " cx="30.1" cy="29.8" rx="21.4" ry="24.1"></ellipse>
                    <ellipse id="Oval-3-Copy-4" fill="#FFFBD7" mask="url(#mask-14)" transform="translate(30.2, 29.5) rotate(39.0) translate(-30.2, -29.5) " cx="30.2" cy="29.5" rx="15.3" ry="18.3"></ellipse>
                </g>
                <polygon id="Polygon-Copy" fill="#000000" transform="translate(142.6, 70.3) rotate(17.0) translate(-142.6, -70.3) " points="142.6 61.1 150.6 65.7 150.6 75.0 142.6 79.6 134.5 75.0 134.5 65.7"></polygon>
            </g>
            <rect id="Rectangle" fill="#4180EF" x="627" y="142" width="217" height="57"></rect>
            <path d="M637.7,150.2 L641.6,150.2 C644,150.2 646.2,151.2 646.2,153.9 C646.2,156.6 643.8,157.9 641.2,157.9 C638.5,157.9 636.4,156.3 636.3,153.7 L632.9,154.7 C633.6,158.5 636.9,161.1 641.2,161.1 C646.0,161.1 649.6,158.2 649.6,154.1 C649.6,151.2 648.0,149.4 645.8,148.4 C647.5,147.2 648.8,145.4 648.8,143.2 C648.8,139.2 645.1,136.5 641.1,136.5 C636.8,136.5 633.4,139.3 633.4,142.9 L636.8,142.9 C636.8,140.6 639.0,139.7 641.1,139.7 C643.2,139.7 645.4,140.8 645.4,143.3 C645.4,145.6 643.5,147.0 641.2,147.0 L637.7,147.0 L637.7,150.2 Z M667.5,145.4 L664.6,145.4 L664.3,146.7 L664.1,146.9 L664,146.7 C663.0,145.7 661.4,145.1 659.8,145.1 C655.6,145.1 652.1,148.3 652.1,152.9 C652.1,157.6 655.6,160.8 659.8,160.8 C661.4,160.8 663.0,160.1 664,159.2 L664.1,159.0 L664.3,159.2 L664.6,160.5 L667.5,160.5 L667.5,145.4 Z M664.6,152.9 C664.6,155.7 662.7,157.9 660,157.9 C656.9,157.9 655.3,155.7 655.3,152.9 C655.3,150.2 656.9,148.0 660,148.0 C662.7,148.0 664.6,150.2 664.6,152.9 L664.6,152.9 Z M672,156.3 C672,157.3 671.3,157.9 670.4,157.9 L669.7,157.9 L669.7,160.8 L670.2,161.1 C673.2,161.1 675.2,159.3 675.2,156.1 L675.2,148.3 L680.6,148.3 L680.6,160.5 L683.8,160.5 L683.8,145.4 L672,145.4 L672,156.3 Z M686.7,152.9 C686.7,157.6 690.4,160.8 694.5,160.8 C698.7,160.8 702.4,157.6 702.4,152.9 C702.4,148.3 698.7,145.1 694.5,145.1 C690.4,145.1 686.7,148.3 686.7,152.9 L686.7,152.9 Z M689.9,152.9 C689.9,150.2 691.5,148.0 694.5,148.0 C697.6,148.0 699.2,150.2 699.2,152.9 C699.2,155.7 697.6,157.9 694.5,157.9 C691.5,157.9 689.9,155.7 689.9,152.9 L689.9,152.9 Z M705.2,160.5 L708.4,160.5 L708.4,148.3 L716.1,148.3 L716.1,145.4 L705.2,145.4 L705.2,160.5 Z M718.4,160.5 L722.0,160.5 L728.0,150.2 L728.0,160.5 L731.2,160.5 L731.2,145.4 L727.5,145.4 L721.5,155.7 L721.5,145.4 L718.4,145.4 L718.4,160.5 Z M735.0,160.5 L738.2,160.5 L738.2,154.1 L744.6,154.1 L744.6,160.5 L747.8,160.5 L747.8,145.4 L744.6,145.4 L744.6,151.2 L738.2,151.2 L738.2,145.4 L735.0,145.4 L735.0,160.5 Z M752,160.5 L756.8,160.5 C760.6,160.5 762.8,158.2 762.8,155.2 C762.8,152.1 760.6,149.9 756.8,149.9 L755.2,149.9 L755.2,145.4 L752,145.4 L752,160.5 Z M755.2,157.6 L755.2,152.7 L756.9,152.7 C758.7,152.7 759.7,153.7 759.7,155.2 C759.7,156.6 758.7,157.6 756.9,157.6 L755.2,157.6 Z M764.8,148.3 L769.6,148.3 L769.6,160.5 L772.8,160.5 L772.8,148.3 L777.6,148.3 L777.6,145.4 L764.8,145.4 L764.8,148.3 Z M793.2,153.7 L793.6,152.8 C793.6,148.1 790.4,145.1 786.5,145.1 C782.4,145.1 779.2,148.3 779.2,152.9 C779.2,157.6 782.5,160.8 786.5,160.8 C789.6,160.8 791.8,159.2 793.1,156.9 L790.4,155.7 C789.9,156.9 788.6,157.9 786.7,157.9 C784,157.9 782.4,156.0 782.4,153.7 L793.2,153.7 Z M786.5,148.0 C788.4,148.0 790.0,149.3 790.2,150.9 L782.5,150.9 C783.0,149.3 784.3,148.0 786.5,148.0 L786.5,148.0 Z M798.4,152.9 C798.4,150.2 800.1,148.0 803.2,148.0 C805.1,148.0 806.5,149.3 807.0,150.5 L809.7,148.9 C808.4,146.7 806.0,145.1 803.0,145.1 C799.0,145.1 795.3,148.3 795.3,152.9 C795.3,157.6 799.0,160.8 803.0,160.8 C806.0,160.8 808.5,159.2 809.7,156.9 L807.1,155.3 C806.5,156.6 805.1,157.9 803.2,157.9 C800.1,157.9 798.4,155.7 798.4,152.9 L798.4,152.9 Z M812.6,160.5 L817.4,160.5 C821.2,160.5 823.5,158.2 823.5,155.2 C823.5,152.1 821.2,149.9 817.4,149.9 L815.8,149.9 L815.8,145.4 L812.6,145.4 L812.6,160.5 Z M815.8,157.6 L815.8,152.7 L817.6,152.7 C819.3,152.7 820.3,153.7 820.3,155.2 C820.3,156.6 819.3,157.6 817.6,157.6 L815.8,157.6 Z M831.6,156.9 L828.6,155.5 L825.2,163.0 L825.2,163.7 L828.6,163.7 L831.6,156.9 Z M637.1,185.5 L637.1,179.4 L633.9,179.4 L633.9,194.5 L637.1,194.5 L637.1,188.1 L643.5,194.5 L647.6,194.5 L640.1,186.6 L647.3,179.4 L643.2,179.4 L637.1,185.5 Z M663.6,179.4 L660.8,179.4 L660.4,180.7 L660.3,180.9 L660.1,180.7 C659.2,179.7 657.6,179.1 656,179.1 C651.8,179.1 648.3,182.3 648.3,186.9 C648.3,191.6 651.8,194.8 656,194.8 C657.6,194.8 659.2,194.1 660.1,193.2 L660.3,193.0 L660.4,193.2 L660.8,194.5 L663.6,194.5 L663.6,179.4 Z M660.8,186.9 C660.8,189.7 658.8,191.9 656.1,191.9 C653.1,191.9 651.4,189.7 651.4,186.9 C651.4,184.2 653.1,182.0 656.1,182.0 C658.8,182.0 660.8,184.2 660.8,186.9 L660.8,186.9 Z M667.5,194.5 L670.7,194.5 L670.7,182.3 L677.1,182.3 L677.1,194.5 L680.3,194.5 L680.3,179.4 L667.5,179.4 L667.5,194.5 Z M684.1,194.5 L687.8,194.5 L693.8,184.2 L693.8,194.5 L696.9,194.5 L696.9,179.4 L693.2,179.4 L687.2,189.7 L687.2,179.4 L684.1,179.4 L684.1,194.5 Z M699.5,182.3 L704.3,182.3 L704.3,194.5 L707.5,194.5 L707.5,182.3 L712.3,182.3 L712.3,179.4 L699.5,179.4 L699.5,182.3 Z M729.2,179.4 L726.4,179.4 L726.0,180.7 L725.9,180.9 L725.7,180.7 C724.8,179.7 723.2,179.1 721.6,179.1 C717.4,179.1 713.9,182.3 713.9,186.9 C713.9,191.6 717.4,194.8 721.6,194.8 C723.2,194.8 724.8,194.1 725.7,193.2 L725.9,193.0 L726.0,193.2 L726.4,194.5 L729.2,194.5 L729.2,179.4 Z M726.4,186.9 C726.4,189.7 724.4,191.9 721.7,191.9 C718.7,191.9 717.0,189.7 717.0,186.9 C717.0,184.2 718.7,182.0 721.7,182.0 C724.4,182.0 726.4,184.2 726.4,186.9 L726.4,186.9 Z M733.1,194.5 L736.3,194.5 L736.3,188.1 L742.7,188.1 L742.7,194.5 L745.9,194.5 L745.9,179.4 L742.7,179.4 L742.7,185.2 L736.3,185.2 L736.3,179.4 L733.1,179.4 L733.1,194.5 Z" id="Залогиньтесь,-капита" fill="#FFFFFF"></path>
            <path d="M590.1,196.1 C607.6,199.8 618.0,194.9 628.5,186.3" id="Path-153" stroke="#FFFFFF" stroke-width="2" transform="translate(609.3, 191.8) rotate(-12.0) translate(-609.3, -191.8) "></path>
            <rect id="Rectangle-22" fill="#41E8C3" x="780" y="21" width="120" height="100" rx="23"></rect>
        </g>
    </g>
</svg>
