<?xml version="1.0" encoding="UTF-8" standalone="no"?>
<svg width="1120px" height="240px" viewBox="0 0 1120 240" version="1.1" xmlns="http://www.w3.org/2000/svg" xmlns:xlink="http://www.w3.org/1999/xlink">
    <!-- Generator: Sketch 40.2 (33826) - http://www.bohemiancoding.com/sketch -->
    <title>pattern</title>
    <desc>Created with Sketch.</desc>
    <defs></defs>
    <g id="логин" stroke="none" stroke-width="1" fill="none" fill-rule="evenodd">
        <g id="pattern" stroke-width="6" fill="#000000">
            <g id="Group-4-Copy" transform="translate(560.5, 119.5) scale(-1, 1) translate(-560.5, -119.5) translate(34.0, 33.0)">
                <circle id="Oval-10-Copy-21" stroke="#26C6A3" cx="6.5" cy="166.5" r="6.5"></circle>
                <circle id="Oval-10-Copy-24" stroke="#F4D41D" cx="326.5" cy="166.5" r="6.5"></circle>
                <circle id="Oval-10-Copy-26" stroke="#26C6A3" cx="646.5" cy="166.5" r="6.5"></circle>
                <circle id="Oval-10-Copy-22" stroke="#F24040" cx="86.5" cy="166.5" r="6.5"></circle>
                <circle id="Oval-10-Copy-27" stroke="#F24040" cx="406.5" cy="166.5" r="6.5"></circle>
                <circle id="Oval-10-Copy-31" stroke="#F24040" cx="726.5" cy="166.5" r="6.5"></circle>
                <circle id="Oval-10-Copy-25" stroke="#F24040" cx="246.5" cy="166.5" r="6.5"></circle>
                <circle id="Oval-10-Copy-28" stroke="#F24040" cx="566.5" cy="166.5" r="6.5"></circle>
                <circle id="Oval-10-Copy-32" stroke="#C4C4C4" cx="886.5" cy="166.5" r="6.5"></circle>
                <ellipse id="Oval-10-Copy-35" stroke="#F4D41D" cx="966.5" cy="166.5" rx="6.5" ry="6.5"></ellipse>
                <circle id="Oval-10-Copy-23" stroke="#26C6A3" cx="166.5" cy="166.5" r="6.5"></circle>
                <circle id="Oval-10-Copy-29" stroke="#F4D41D" cx="486.5" cy="166.5" r="6.5"></circle>
                <circle id="Oval-10-Copy-33" stroke="#26C6A3" cx="806.5" cy="166.5" r="6.5"></circle>
                <ellipse id="Oval-10-Copy-36" stroke="#F24040" cx="1046.5" cy="166.5" rx="6.5" ry="6.5"></ellipse>
                <circle id="Oval-10-Copy-48" stroke="#C4C4C4" cx="86.5" cy="86.5" r="6.5"></circle>
                <circle id="Oval-10-Copy-63" stroke="#F4D41D" cx="86.5" cy="6.5" r="6.5"></circle>
                <circle id="Oval-10-Copy-65" stroke="#F4D41D" cx="6.5" cy="86.5" r="6.5"></circle>
                <circle id="Oval-10-Copy-64" stroke="#26C6A3" cx="6.5" cy="6.5" r="6.5"></circle>
                <circle id="Oval-10-Copy-47" stroke="#26C6A3" cx="406.5" cy="86.5" r="6.5"></circle>
                <circle id="Oval-10-Copy-46" stroke="#C4C4C4" cx="726.5" cy="86.5" r="6.5"></circle>
                <circle id="Oval-10-Copy-45" stroke="#F24040" cx="166.5" cy="86.5" r="6.5"></circle>
                <circle id="Oval-10-Copy-44" stroke="#F4D41D" cx="486.5" cy="86.5" r="6.5"></circle>
                <circle id="Oval-10-Copy-43" stroke="#F4D41D" cx="806.5" cy="86.5" r="6.5"></circle>
                <circle id="Oval-10-Copy-42" stroke="#F24040" cx="326.5" cy="86.5" r="6.5"></circle>
                <circle id="Oval-10-Copy-41" stroke="#F4D41D" cx="646.5" cy="86.5" r="6.5"></circle>
                <circle id="Oval-10-Copy-40" stroke="#F24040" cx="966.5" cy="86.5" r="6.5"></circle>
                <ellipse id="Oval-10-Copy-39" stroke="#26C6A3" cx="1046.5" cy="86.5" rx="6.5" ry="6.5"></ellipse>
                <circle id="Oval-10-Copy-38" stroke="#26C6A3" cx="246.5" cy="86.5" r="6.5"></circle>
                <circle id="Oval-10-Copy-30" stroke="#F24040" cx="566.5" cy="86.5" r="6.5"></circle>
                <circle id="Oval-10-Copy-34" stroke="#F24040" cx="886.5" cy="86.5" r="6.5"></circle>
                <circle id="Oval-10-Copy-62" stroke="#F4D41D" cx="166.5" cy="6.5" r="6.5"></circle>
                <circle id="Oval-10-Copy-61" stroke="#F24040" cx="486.5" cy="6.5" r="6.5"></circle>
                <circle id="Oval-10-Copy-60" stroke="#26C6A3" cx="806.5" cy="6.5" r="6.5"></circle>
                <circle id="Oval-10-Copy-59" stroke="#C4C4C4" cx="246.5" cy="6.5" r="6.5"></circle>
                <circle id="Oval-10-Copy-58" stroke="#C4C4C4" cx="566.5" cy="6.5" r="6.5"></circle>
                <circle id="Oval-10-Copy-57" stroke="#26C6A3" cx="886.5" cy="6.5" r="6.5"></circle>
                <circle id="Oval-10-Copy-56" stroke="#F24040" cx="406.5" cy="6.5" r="6.5"></circle>
                <circle id="Oval-10-Copy-55" stroke="#F4D41D" cx="726.5" cy="6.5" r="6.5"></circle>
                <circle id="Oval-10-Copy-54" stroke="#C4C4C4" cx="1046.5" cy="6.5" r="6.5"></circle>
                <circle id="Oval-10-Copy-52" stroke="#26C6A3" cx="326.5" cy="6.5" r="6.5"></circle>
                <circle id="Oval-10-Copy-51" stroke="#26C6A3" cx="646.5" cy="6.5" r="6.5"></circle>
                <circle id="Oval-10-Copy-50" stroke="#F24040" cx="966.5" cy="6.5" r="6.5"></circle>
            </g>
        </g>
    </g>
</svg>
