<?xml version="1.0" encoding="UTF-8"?>
<svg width="490px" height="490px" viewBox="0 0 490 490" version="1.1" xmlns="http://www.w3.org/2000/svg" xmlns:xlink="http://www.w3.org/1999/xlink">
    <!-- Generator: Sketch 52.2 (67145) - http://www.bohemiancoding.com/sketch -->
    <title>ring1</title>
    <desc>Created with Sketch.</desc>
    <g id="ring1" stroke="none" stroke-width="1" fill="none" fill-rule="evenodd">
        <path d="M245,438 C138.409043,438 52,351.590957 52,245 C52,138.409043 138.409043,52 245,52 C351.590957,52 438,138.409043 438,245 C438,351.590957 351.590957,438 245,438 Z M192.538584,75.5048668 C158.021576,90.1061233 107.873968,127.470829 81.489566,163.866017 C74.4124326,184.396751 68.7670037,221.937819 65.829605,268.756915 C83.1289198,313.491744 133.616619,377.895982 170.740993,407.180358 C213.175328,413.17026 248.307034,420.09342 329.23718,407.180358 C367.970889,368.659347 402.730652,325.728493 424.013845,276.095296 C414.391459,222.22061 395.610147,159.545419 360.73871,109.287277 C320.975226,93.4662261 232.970361,78.855163 192.538584,75.5048668 Z" id="Combined-Shape" fill="#FFFFFF"></path>
    </g>
</svg>