<?xml version="1.0" encoding="UTF-8"?>
<svg width="1200px" height="1200px" viewBox="0 0 1200 1200" version="1.1" xmlns="http://www.w3.org/2000/svg" xmlns:xlink="http://www.w3.org/1999/xlink">
    <!-- Generator: Sketch 52.2 (67145) - http://www.bohemiancoding.com/sketch -->
    <title>round3</title>
    <desc>Created with Sketch.</desc>
    <g id="round3" stroke="none" stroke-width="1" fill="none" fill-rule="evenodd">
        <path d="M581.435579,1157.91803 C579.502583,1157.91803 577.935579,1156.35102 577.935579,1154.41803 C577.935579,1152.48503 579.502583,1150.91803 581.435579,1150.91803 C583.433062,1150.91803 585.429303,1150.90741 587.424251,1150.88619 C589.357138,1150.86562 590.940721,1152.41587 590.961283,1154.34876 C590.981845,1156.28165 589.431599,1157.86523 587.498712,1157.88579 C585.478945,1157.90728 583.457883,1157.91803 581.435579,1157.91803 Z M664.699298,1154.26053 C662.778865,1154.48056 661.043678,1153.10211 660.82365,1151.18167 C660.603622,1149.26124 661.982073,1147.52605 663.902506,1147.30602 C665.871403,1147.08044 667.838273,1146.84437 669.803055,1146.59781 C671.72101,1146.35713 673.470928,1147.71683 673.711607,1149.63479 C673.952286,1151.55274 672.592586,1153.30266 670.674631,1153.54334 C668.684939,1153.79302 666.693141,1154.03209 664.699298,1154.26053 Z M728.118613,1143.25489 C726.236407,1143.69509 724.353724,1142.52611 723.913522,1140.64391 C723.473321,1138.7617 724.642296,1136.87902 726.524502,1136.43882 C728.465508,1135.98486 730.40356,1135.52042 732.338593,1135.04553 C734.215882,1134.58481 736.111213,1135.73316 736.571935,1137.61045 C737.032657,1139.48774 735.884303,1141.38307 734.007015,1141.84379 C732.047247,1142.32476 730.084424,1142.79513 728.118613,1143.25489 Z M789.832003,1124.98449 C788.013517,1125.63992 786.008014,1124.69708 785.352586,1122.87859 C784.697158,1121.06011 785.640003,1119.0546 787.458488,1118.39917 C789.332052,1117.72389 791.201709,1117.03847 793.067389,1116.34293 C794.878613,1115.6677 796.894287,1116.5886 797.569522,1118.39982 C798.244758,1120.21105 797.323857,1122.22672 795.512633,1122.90195 C793.623095,1123.60639 791.729528,1124.30058 789.832003,1124.98449 Z M849.056416,1099.66468 C847.326075,1100.5263 845.224872,1099.82207 844.363248,1098.09173 C843.501623,1096.36139 844.205857,1094.26019 845.936198,1093.39856 C847.712404,1092.5141 849.48375,1091.62005 851.250162,1090.71645 C852.971068,1089.83613 855.079776,1090.51757 855.960094,1092.23847 C856.840411,1093.95938 856.158979,1096.06809 854.438073,1096.9484 C852.649161,1097.86351 850.855251,1098.76895 849.056416,1099.66468 Z M904.973658,1067.66045 C903.354214,1068.71585 901.185821,1068.25861 900.130417,1066.63916 C899.075012,1065.01972 899.532256,1062.85133 901.151699,1061.79592 C902.814641,1060.71217 904.471735,1059.61945 906.122908,1058.51783 C907.73088,1057.44503 909.904076,1057.87887 910.976878,1059.48684 C912.04968,1061.09481 911.615839,1063.26801 910.007868,1064.34081 C908.335771,1065.45639 906.657677,1066.56296 904.973658,1067.66045 Z M956.764485,1029.49752 C955.276671,1030.73157 953.070162,1030.52586 951.83611,1029.03804 C950.602059,1027.55023 950.807775,1025.34372 952.295589,1024.10967 C953.825227,1022.84093 955.348045,1021.56396 956.863975,1020.27882 C958.338434,1019.02885 960.547027,1019.21082 961.797005,1020.68528 C963.046984,1022.15974 962.865007,1024.36833 961.390548,1025.61831 C959.855481,1026.91967 958.313436,1028.21276 956.764485,1029.49752 Z M1003.86606,985.639488 C1002.52914,987.035599 1000.31358,987.083585 998.917469,985.746667 C997.521358,984.409748 997.473373,982.194191 998.810291,980.79808 C1000.18533,979.362158 1001.55265,977.918858 1002.91217,976.468249 C1004.234,975.05785 1006.44892,974.986055 1007.85932,976.307891 C1009.26972,977.629727 1009.34151,979.844641 1008.01967,981.25504 C1006.643,982.723948 1005.25844,984.185454 1003.86606,985.639488 Z M1045.66073,936.65813 C1044.49244,938.198125 1042.29695,938.499455 1040.75695,937.331169 C1039.21696,936.162883 1038.91563,933.967388 1040.08391,932.427393 C1041.28594,930.842923 1042.47941,929.251999 1043.66427,927.654694 C1044.81589,926.102198 1047.00802,925.777225 1048.56051,926.928847 C1050.11301,928.080469 1050.43798,930.272589 1049.28636,931.825085 C1048.08651,933.442589 1046.87795,935.053628 1045.66073,936.65813 Z M1081.55544,883.220313 C1080.57178,884.88431 1078.42543,885.435831 1076.76143,884.452169 C1075.09743,883.468508 1074.54591,881.322156 1075.52957,879.658159 C1076.54175,877.945924 1077.54466,876.228207 1078.53825,874.505084 C1079.50384,872.830532 1081.64409,872.255801 1083.31864,873.221385 C1084.99319,874.186969 1085.56792,876.327222 1084.60234,878.001774 C1083.59612,879.74679 1082.58047,881.486328 1081.55544,883.220313 Z M1111.08402,825.946844 C1110.29922,827.713354 1108.23097,828.509186 1106.46446,827.724383 C1104.69795,826.939581 1103.90211,824.871332 1104.68692,823.104821 C1105.49453,821.286971 1106.29229,819.464631 1107.08017,817.637874 C1107.8457,815.862926 1109.90516,815.044631 1111.68011,815.81016 C1113.45506,816.57569 1114.27335,818.635154 1113.50782,820.410102 C1112.70989,822.260183 1111.90194,824.105788 1111.08402,825.946844 Z M1133.77014,765.676861 C1133.19542,767.522443 1131.23338,768.552679 1129.3878,767.977957 C1127.54222,767.403235 1126.51198,765.441192 1127.0867,763.595611 C1127.67785,761.69727 1128.25874,759.795422 1128.82934,757.890135 C1129.38391,756.038397 1131.3346,754.986828 1133.18634,755.541391 C1135.03808,756.095954 1136.08965,758.046647 1135.53508,759.898386 C1134.95718,761.82805 1134.36886,763.754231 1133.77014,765.676861 Z M1149.28289,703.346397 C1148.92538,705.246043 1147.09558,706.496185 1145.19594,706.138667 C1143.29629,705.781149 1142.04615,703.951356 1142.40367,702.051709 C1142.77112,700.099254 1143.12809,698.144229 1143.47454,696.186699 C1143.81142,694.283283 1145.62753,693.013352 1147.53095,693.350227 C1149.43436,693.687103 1150.70429,695.503218 1150.36742,697.406633 C1150.01655,699.389109 1149.65504,701.369051 1149.28289,703.346397 Z M1157.52102,639.475091 C1157.38436,641.403251 1155.7105,642.85555 1153.78234,642.718891 C1151.85418,642.582232 1150.40188,640.908366 1150.53854,638.980206 C1150.679,636.998399 1150.80891,635.014888 1150.92824,633.029729 C1151.04423,631.100216 1152.70244,629.630064 1154.63195,629.746053 C1156.56147,629.862043 1158.03162,631.520251 1157.91563,633.449764 C1157.79479,635.459883 1157.66325,637.468344 1157.52102,639.475091 Z M1158.41642,575.11903 C1158.4991,577.050257 1157.00056,578.682853 1155.06933,578.765534 C1153.13811,578.848215 1151.50551,577.349672 1151.42283,575.418444 C1151.33814,573.440333 1151.24298,571.463733 1151.13737,569.4887 C1151.03415,567.558461 1152.51525,565.910019 1154.44549,565.806802 C1156.37573,565.703585 1158.02417,567.184678 1158.12738,569.114917 C1158.23432,571.114733 1158.33067,573.116122 1158.41642,575.11903 Z M1151.98177,511.040358 C1152.28528,512.949378 1150.98376,514.742988 1149.07474,515.046497 C1147.16572,515.350007 1145.37211,514.048484 1145.0686,512.139463 C1144.75601,510.173336 1144.43286,508.209586 1144.09917,506.248277 C1143.77495,504.342664 1145.05693,502.53503 1146.96254,502.210813 C1148.86815,501.886596 1150.67578,503.168571 1151,505.074184 C1151.33794,507.060464 1151.66521,509.04921 1151.98177,511.040358 Z M1138.20889,448.155485 C1138.7313,450.016551 1137.6461,451.948739 1135.78504,452.471148 C1133.92397,452.993556 1131.99178,451.908361 1131.46937,450.047295 C1130.93105,448.129515 1130.38235,446.215041 1129.82331,444.303941 C1129.28061,442.44869 1130.34465,440.504768 1132.1999,439.962069 C1134.05515,439.41937 1135.99907,440.483404 1136.54177,442.338654 C1137.10796,444.274204 1137.66367,446.213171 1138.20889,448.155485 Z M1117.24356,387.298375 C1117.97819,389.086333 1117.1243,391.131295 1115.33634,391.865926 C1113.54839,392.600557 1111.50342,391.746666 1110.76879,389.958708 C1110.0116,388.115833 1109.24441,386.27724 1108.46728,384.443002 C1107.71319,382.663162 1108.54473,380.609009 1110.32457,379.854922 C1112.10441,379.100835 1114.15856,379.932372 1114.91265,381.712211 C1115.69971,383.569878 1116.47669,385.431957 1117.24356,387.298375 Z M1089.35639,329.246484 C1090.29282,330.937515 1089.68109,333.067488 1087.99006,334.003914 C1086.29903,334.94034 1084.16905,334.328612 1083.23263,332.637582 C1082.27176,330.902411 1081.30153,329.17247 1080.32199,327.44783 C1079.36735,325.767019 1079.95602,323.630559 1081.63683,322.675913 C1083.31764,321.721267 1085.4541,322.30994 1086.40875,323.990751 C1087.40074,325.737315 1088.3833,327.48925 1089.35639,329.246484 Z M1054.96387,274.804016 C1056.08861,276.376097 1055.72596,278.562301 1054.15388,279.68704 C1052.5818,280.811778 1050.3956,280.449136 1049.27086,278.877054 C1048.11397,277.260035 1046.94836,275.64925 1045.77409,274.044772 C1044.63247,272.484907 1044.97152,270.29492 1046.53138,269.153299 C1048.09125,268.011679 1050.28124,268.350732 1051.42286,269.910597 C1052.61198,271.535373 1053.79234,273.166537 1054.96387,274.804016 Z M1014.60292,224.728205 C1015.90016,226.161252 1015.79008,228.374594 1014.35703,229.671841 C1012.92398,230.969088 1010.71064,230.859 1009.41339,229.425953 C1008.07994,227.952905 1006.73857,226.487023 1005.38935,225.028374 C1004.07678,223.609345 1004.16309,221.394949 1005.58212,220.082381 C1007.00114,218.769813 1009.21554,218.856117 1010.52811,220.275145 C1011.89435,221.752197 1013.25264,223.236573 1014.60292,224.728205 Z M968.715798,179.536997 C970.168506,180.812188 970.312412,183.023588 969.03722,184.476297 C967.762029,185.929005 965.550629,186.072911 964.09792,184.79772 C962.601633,183.484274 961.098292,182.178901 959.587967,180.881662 C958.12161,179.622188 957.953898,177.412466 959.213372,175.946109 C960.472846,174.479753 962.682568,174.312041 964.148924,175.571515 C965.678312,176.885127 967.200627,178.206975 968.715798,179.536997 Z M917.967205,139.905013 C919.556492,141.005306 919.9529,143.18564 918.852608,144.774927 C917.752315,146.364214 915.571981,146.760622 913.982694,145.66033 C912.349495,144.529637 910.710222,143.407759 909.064947,142.294752 C907.463891,141.211657 907.043999,139.035723 908.127093,137.434666 C909.210188,135.83361 911.386122,135.413718 912.987179,136.496812 C914.653292,137.623917 916.313325,138.760002 917.967205,139.905013 Z M863.004135,106.363784 C864.709503,107.273837 865.354233,109.394054 864.44418,111.099422 C863.534128,112.80479 861.41391,113.44952 859.708542,112.539468 C857.955534,111.603992 856.197431,110.678001 854.434304,109.761541 C852.719172,108.870027 852.051497,106.756923 852.943011,105.04179 C853.834525,103.326658 855.947629,102.658983 857.662761,103.550497 C859.448333,104.478625 861.228816,105.416403 863.004135,106.363784 Z M804.505438,79.3758966 C806.304664,80.0824792 807.190428,82.113839 806.483845,83.9130658 C805.777262,85.7122926 803.745903,86.5980557 801.946676,85.8914732 C800.096311,85.164808 798.241835,84.4481573 796.383319,83.7415578 C794.576503,83.0546144 793.668667,81.0330228 794.35561,79.2262066 C795.042554,77.4193905 797.064145,76.5115542 798.870962,77.1984976 C800.753238,77.9141305 802.63142,78.6399427 804.505438,79.3758966 Z M743.326811,59.3653883 C745.195826,59.8586018 746.311133,61.7735663 745.81792,63.6425811 C745.324706,65.5115959 743.409742,66.6269032 741.540727,66.1336897 C739.619769,65.6267688 737.695668,65.130206 735.768492,64.6440297 C733.894216,64.171199 732.758121,62.2684939 733.230952,60.3942188 C733.703783,58.5199437 735.606488,57.3838485 737.480763,57.8566792 C739.432581,58.3490721 741.381287,58.8519847 743.326811,59.3653883 Z M680.358982,46.5941095 C682.272432,46.8683094 683.601307,48.6417499 683.327107,50.5551998 C683.052907,52.4686496 681.279467,53.7975243 679.366017,53.5233243 C677.399116,53.2414649 675.429983,52.9701442 673.458677,52.7093828 C671.542373,52.4558971 670.194392,50.6969349 670.447878,48.780631 C670.701364,46.864327 672.460326,45.5163465 674.37663,45.7698323 C676.372961,46.0339039 678.367099,46.3086699 680.358982,46.5941095 Z M616.167716,41.1353595 C618.099974,41.1888087 619.623049,42.798542 619.5696,44.7307995 C619.516151,46.6630571 617.906417,48.1861322 615.97416,48.132683 C613.988491,48.0777564 612.001422,48.0333584 610.013007,47.9995033 C608.080291,47.9665965 606.540191,46.373144 606.573097,44.4404275 C606.606004,42.5077109 608.199457,40.9676109 610.132173,41.0005177 C612.145388,41.034795 614.157254,41.0797471 616.167716,41.1353595 Z M551.853106,43.001983 C553.778965,42.8360196 555.474722,44.2626966 555.640685,46.1885554 C555.806649,48.1144142 554.379972,49.8101712 552.454113,49.9761346 C550.4664,50.1474284 548.480533,50.3293661 546.496571,50.5219293 C544.572616,50.7086684 542.86156,49.3003763 542.674821,47.3764208 C542.488082,45.4524654 543.896374,43.7414095 545.820329,43.5546704 C547.829355,43.3596744 549.840301,43.1754392 551.853106,43.001983 Z M488.121742,52.2157168 C490.015667,51.8290327 491.864466,53.0508926 492.25115,54.9448175 C492.637834,56.8387423 491.415974,58.6875412 489.522049,59.0742254 C487.581883,59.4703507 485.644407,59.8768713 483.709685,60.2937622 C481.820059,60.7009358 479.958135,59.4991709 479.550962,57.6095451 C479.143788,55.7199193 480.345553,53.8579955 482.235179,53.4508219 C484.194602,53.0286084 486.156812,52.6168983 488.121742,52.2157168 Z M425.905285,68.7305119 C427.741632,68.1269353 429.719581,69.1262932 430.323158,70.9626405 C430.926735,72.7989877 429.927377,74.7769368 428.091029,75.3805135 C426.203817,76.0008086 424.320256,76.6312927 422.440413,77.2719324 C420.610748,77.8954719 418.622033,76.917714 417.998493,75.0880489 C417.374954,73.2583838 418.352712,71.2696685 420.182377,70.6461289 C422.086269,69.9972933 423.993928,69.358743 425.905285,68.7305119 Z M366.03523,92.3402314 C367.789318,91.5280414 369.869697,92.2916003 370.681887,94.0456879 C371.494077,95.7997755 370.730518,97.8801545 368.97643,98.6923446 C367.172181,99.5277609 365.372569,100.372938 363.577668,101.227835 C361.83251,102.059038 359.743956,101.318132 358.912752,99.572974 C358.081548,97.8278161 358.822455,95.7392623 360.567613,94.9080585 C362.385404,94.0422603 364.207967,93.1863036 366.03523,92.3402314 Z M309.235378,122.748947 C310.883967,121.739674 313.038589,122.257941 314.047862,123.90653 C315.057135,125.555118 314.538868,127.709741 312.890279,128.719014 C311.194866,129.756953 309.505079,130.80405 307.82099,131.860253 C306.183408,132.887288 304.023309,132.392342 302.996273,130.754761 C301.969238,129.117179 302.464184,126.95708 304.101766,125.930044 C305.807221,124.860441 307.51845,123.800058 309.235378,122.748947 Z M256.344801,159.473734 C257.866595,158.281836 260.066477,158.54927 261.258374,160.071064 C262.450271,161.592858 262.182837,163.79274 260.661044,164.984637 C259.099601,166.207588 257.544721,167.438928 255.996476,168.678598 C254.487569,169.886769 252.284943,169.642974 251.076772,168.134068 C249.868601,166.625162 250.112395,164.422535 251.621301,163.214364 C253.189106,161.959033 254.76363,160.712137 256.344801,159.473734 Z M208.059768,201.971738 C209.435295,200.613651 211.651327,200.627789 213.009415,202.003317 C214.367502,203.378844 214.353363,205.594876 212.977836,206.952963 C211.565322,208.347568 210.160297,209.749744 208.762827,211.159425 C207.401951,212.532192 205.185894,212.541832 203.813127,211.180956 C202.440359,209.820079 202.430719,207.604023 203.791595,206.231255 C205.206691,204.803794 206.629438,203.383933 208.059768,201.971738 Z M164.921531,249.744208 C166.132663,248.237677 168.335764,247.998208 169.842295,249.20934 C171.348826,250.420472 171.588294,252.623573 170.377163,254.130104 C169.131853,255.679149 167.894894,257.234872 166.666346,258.797202 C165.471496,260.316678 163.271099,260.57984 161.751623,259.384989 C160.232146,258.190139 159.968984,255.989743 161.163835,254.470266 C162.407905,252.888198 163.66049,251.312821 164.921531,249.744208 Z M127.513182,302.184304 C128.54333,300.548678 130.704367,300.057842 132.339992,301.08799 C133.975618,302.118138 134.466454,304.279175 133.436306,305.9148 C132.375773,307.59867 131.324354,309.288268 130.2821,310.983518 C129.269711,312.630195 127.114112,313.144386 125.467436,312.131997 C123.820759,311.119608 123.306568,308.964009 124.318957,307.317332 C125.374436,305.60057 126.439195,303.889536 127.513182,302.184304 Z M96.4041464,358.547928 C97.2388341,356.804434 99.3288636,356.067701 101.072358,356.902388 C102.815852,357.737076 103.552585,359.827106 102.717898,361.5706 C101.860121,363.362323 101.012037,365.158765 100.17369,366.959855 C99.3579807,368.712309 97.2760733,369.471691 95.5236194,368.655982 C93.7711655,367.840273 93.0117837,365.758365 93.8274928,364.005911 C94.6765327,362.18185 95.5354315,360.362498 96.4041464,358.547928 Z M71.9969989,418.189734 C72.6239396,416.361232 74.6144696,415.387173 76.4429721,416.014114 C78.2714745,416.641055 79.2455328,418.631585 78.6185921,420.460087 C77.9742055,422.339472 77.3399763,424.222594 76.7159384,426.109385 C76.1089555,427.944609 74.1291556,428.940295 72.2939314,428.333312 C70.4587072,427.72633 69.4630209,425.74653 70.0700037,423.911306 C70.7020254,422.000376 71.3443685,420.093162 71.9969989,418.189734 Z M54.7012589,480.142026 C55.1121776,478.253211 56.97648,477.05514 58.8652949,477.466058 C60.7541098,477.876977 61.9521815,479.741279 61.5412628,481.630094 C61.1190186,483.570968 60.7072162,485.514632 60.3058811,487.46102 C59.9155194,489.354191 58.0643509,490.572458 56.1711807,490.182096 C54.2780104,489.791734 53.0597434,487.940566 53.4501051,486.047396 C53.8565633,484.076161 54.2736232,482.107682 54.7012589,480.142026 Z M44.6836336,543.666943 C44.8742877,541.743372 46.5882061,540.338565 48.5117775,540.529219 C50.4353489,540.719873 51.840156,542.433791 51.6495019,544.357363 C51.4535617,546.334268 51.2681756,548.31308 51.0933617,550.293742 C50.9234154,552.219253 49.2247113,553.64242 47.2991999,553.472474 C45.3736885,553.302527 43.9505218,551.603823 44.1204681,549.678312 C44.2974894,547.67264 44.4852173,545.66883 44.6836336,543.666943 Z M42.0004068,608.014684 C41.9712388,606.081908 43.5144185,604.491438 45.4471951,604.46227 C47.3799716,604.433102 48.9704419,605.976281 48.9996098,607.909058 C49.0296432,609.899183 49.0702351,611.887973 49.1213713,613.875375 C49.1710911,615.807732 47.6449121,617.414523 45.712555,617.464243 C43.780198,617.513963 42.1734071,615.987784 42.1236873,614.055427 C42.0719128,612.04322 42.0308146,610.029621 42.0004068,608.014684 Z M46.6366526,672.21041 C46.3871415,670.293584 47.738767,668.537421 49.6555925,668.28791 C51.5724181,668.038399 53.3285809,669.390025 53.578092,671.30685 C53.8348768,673.279555 54.1022316,675.250102 54.3801356,677.218429 C54.6503713,679.132442 53.3178259,680.903126 51.4038121,681.173362 C49.4897984,681.443598 47.7191144,680.111052 47.4488787,678.197039 C47.1674455,676.203716 46.8966966,674.208152 46.6366526,672.21041 Z M58.622067,735.459696 C58.1527346,733.584542 59.2923784,731.68396 61.1675325,731.214628 C63.0426867,730.745295 64.9432685,731.884939 65.4126008,733.760093 C65.8937766,735.682566 66.3852825,737.601996 66.8870907,739.518317 C67.3767555,741.388265 66.2578152,743.301109 64.3878675,743.790774 C62.5179198,744.280438 60.605076,743.161498 60.1154112,741.29155 C59.6071859,739.350724 59.1093951,737.40675 58.622067,735.459696 Z M77.8448162,796.874197 C77.1612864,795.066087 78.072939,793.046213 79.8810493,792.362684 C81.6891596,791.679154 83.7090331,792.590806 84.3925629,794.398917 C85.0965423,796.261121 85.8106054,798.119291 86.5347154,799.973356 C87.2379244,801.773904 86.3483554,803.8036 84.5478074,804.506809 C82.7472594,805.210018 80.7175634,804.320449 80.0143544,802.519901 C79.2809878,800.642135 78.5577959,798.76021 77.8448162,796.874197 Z M104.064951,855.675 C103.176805,853.958121 103.848626,851.846332 105.565506,850.958186 C107.282385,850.070041 109.394174,850.741862 110.28232,852.458741 C111.197211,854.227322 112.121681,855.990876 113.055685,857.74933 C113.962429,859.45646 113.313587,861.575422 111.606458,862.482166 C109.899328,863.388909 107.780365,862.740068 106.873621,861.032938 C105.927729,859.252102 104.99149,857.466098 104.064951,855.675 Z M136.924092,911.095296 C135.844018,909.4922 136.268011,907.317061 137.871107,906.236987 C139.474202,905.156913 141.649341,905.580906 142.729415,907.184002 C143.838648,908.830376 144.956753,910.470772 146.083674,912.105117 C147.180959,913.696481 146.780429,915.876063 145.189064,916.973348 C143.5977,918.070633 141.418119,917.670103 140.320833,916.078739 C139.179641,914.423697 138.047375,912.762525 136.924092,911.095296 Z M175.856304,962.276511 C174.599773,960.807632 174.771915,958.598251 176.240794,957.34172 C177.709672,956.085189 179.919054,956.257331 181.175585,957.726209 C182.468932,959.238126 183.770417,960.743083 185.079977,962.241013 C186.352244,963.696283 186.20389,965.90739 184.748619,967.179656 C183.293348,968.451923 181.082242,968.303568 179.809975,966.848298 C178.483887,965.331463 177.165975,963.807511 175.856304,962.276511 Z M220.459549,1008.73835 C219.043177,1007.42291 218.96135,1005.20835 220.276784,1003.79198 C221.592218,1002.3756 223.806785,1002.29378 225.223156,1003.60921 C226.680082,1004.96231 228.144267,1006.30756 229.615643,1007.64491 C231.046075,1008.94504 231.151704,1011.1586 229.851572,1012.58903 C228.55144,1014.01946 226.337882,1014.12509 224.90745,1012.82496 C223.417511,1011.47074 221.934854,1010.10852 220.459549,1008.73835 Z M270.045063,1049.75767 C268.487433,1048.61301 268.152659,1046.42236 269.297326,1044.86473 C270.441993,1043.3071 272.632638,1042.97233 274.190269,1044.11699 C275.793783,1045.29538 277.403631,1046.4651 279.01974,1047.6261 C280.589629,1048.75389 280.948017,1050.9408 279.820222,1052.51069 C278.692426,1054.08058 276.50552,1054.43897 274.935631,1053.31117 C273.299075,1052.13548 271.668862,1050.95096 270.045063,1049.75767 Z M324.05927,1084.85095 C322.380331,1083.89301 321.795841,1081.7554 322.753777,1080.07646 C323.711712,1078.39752 325.849321,1077.81303 327.52826,1078.77097 C329.255198,1079.75629 330.987481,1080.73227 332.725036,1081.69885 C334.414253,1082.63854 335.021863,1084.76969 334.082171,1086.45891 C333.14248,1088.14813 331.011328,1088.75574 329.32211,1087.81605 C327.562464,1086.83717 325.808159,1085.84879 324.05927,1084.85095 Z M381.745003,1113.47675 C379.96662,1112.71923 379.139044,1110.66348 379.89656,1108.8851 C380.654076,1107.10672 382.709829,1106.27914 384.488211,1107.03666 C386.316509,1107.81543 388.149157,1108.58432 389.986083,1109.34327 C391.772601,1110.08139 392.622493,1112.12802 391.884369,1113.91454 C391.146245,1115.70106 389.099618,1116.55095 387.313099,1115.81282 C385.452708,1115.04418 383.596652,1114.26547 381.745003,1113.47675 Z M442.400435,1135.2437 C440.546163,1134.69767 439.485626,1132.75184 440.031659,1130.89756 C440.577692,1129.04329 442.523523,1127.98275 444.377795,1128.52879 C446.2828,1129.08976 448.191175,1129.64045 450.102854,1130.18084 C451.962962,1130.70665 453.044627,1132.64081 452.51882,1134.50092 C451.993013,1136.36103 450.058846,1137.44269 448.198738,1136.91689 C446.262602,1136.36959 444.329812,1135.81185 442.400435,1135.2437 Z M504.990791,1149.794 C503.085833,1149.46596 501.807488,1147.65576 502.135528,1145.7508 C502.463568,1143.84584 504.273771,1142.5675 506.178729,1142.89554 C508.136053,1143.23259 510.095824,1143.55915 512.05798,1143.87518 C513.966382,1144.18255 515.264274,1145.97879 514.956903,1147.88719 C514.649532,1149.79559 512.853292,1151.09348 510.94489,1150.78611 C508.95776,1150.46606 506.973039,1150.13535 504.990791,1149.794 Z" id="Oval-Copy-5" fill="#FFB600" fill-rule="nonzero"></path>
    </g>
</svg>