<?xml version="1.0" encoding="UTF-8"?>
<svg width="1200px" height="1200px" viewBox="0 0 1200 1200" version="1.1" xmlns="http://www.w3.org/2000/svg" xmlns:xlink="http://www.w3.org/1999/xlink">
    <!-- Generator: Sketch 52.2 (67145) - http://www.bohemiancoding.com/sketch -->
    <title>round2</title>
    <desc>Created with Sketch.</desc>
    <g id="round2" stroke="none" stroke-width="1" fill="none" fill-rule="evenodd">
        <path d="M590.173199,1033.98204 C588.240202,1033.98204 586.673199,1032.41503 586.673199,1030.48204 C586.673199,1028.54904 588.240202,1026.98204 590.173199,1026.98204 C592.153396,1026.98204 594.132016,1026.96858 596.10897,1026.94168 C598.041788,1026.91538 599.629966,1028.46092 599.656265,1030.39373 C599.682564,1032.32655 598.137026,1033.91473 596.204208,1033.94103 C594.19551,1033.96836 592.185144,1033.98204 590.173199,1033.98204 Z M664.462355,1029.25832 C662.550276,1029.54193 660.770323,1028.22179 660.486718,1026.30971 C660.203113,1024.39763 661.523251,1022.61768 663.43533,1022.33408 C665.402603,1022.04228 667.366913,1021.73688 669.328159,1021.4179 C671.236086,1021.1076 673.034319,1022.40273 673.344625,1024.31065 C673.654931,1026.21858 672.359803,1028.01681 670.451876,1028.32712 C668.45844,1028.65133 666.461898,1028.96175 664.462355,1029.25832 Z M727.363769,1015.06858 C725.515207,1015.63364 723.558579,1014.59315 722.993519,1012.74459 C722.428459,1010.89603 723.468944,1008.9394 725.317506,1008.37434 C727.212631,1007.79505 729.103289,1007.20259 730.989367,1006.59703 C732.829828,1006.00612 734.800847,1007.01908 735.391759,1008.85954 C735.982672,1010.7 734.969713,1012.67102 733.129252,1013.26194 C731.212042,1013.87749 729.290176,1014.47972 727.363769,1015.06858 Z M787.416315,991.677483 C785.672502,992.511506 783.582754,991.773977 782.74873,990.030165 C781.914707,988.286353 782.652236,986.196604 784.396048,985.362581 C786.182356,984.508232 787.96259,983.64147 789.736632,982.762365 C791.468637,981.90409 793.568473,982.612389 794.426748,984.344394 C795.285022,986.076399 794.576723,988.176235 792.844718,989.034509 C791.041509,989.928068 789.232001,990.809084 787.416315,991.677483 Z M843.39645,959.579635 C841.795588,960.663017 839.619578,960.243517 838.536196,958.642655 C837.452814,957.041793 837.872314,954.865783 839.473176,953.782401 C841.118888,952.668666 842.756846,951.543483 844.38693,950.406943 C845.972565,949.301394 848.1542,949.69058 849.259749,951.276215 C850.365298,952.861849 849.976112,955.043485 848.390478,956.149034 C846.733768,957.304139 845.069051,958.447703 843.39645,959.579635 Z M893.990716,919.581464 C892.567013,920.88896 890.352939,920.794755 889.045443,919.371052 C887.737947,917.947349 887.832152,915.733275 889.255855,914.425779 C890.717745,913.083213 892.170335,911.730534 893.613513,910.367848 C895.01898,909.040769 897.234146,909.104316 898.561225,910.509783 C899.888304,911.91525 899.824758,914.130416 898.41929,915.457495 C896.952627,916.842357 895.476398,918.217049 893.990716,919.581464 Z M938.071276,872.662673 C936.855087,874.165125 934.651194,874.397186 933.148742,873.180998 C931.646291,871.964809 931.414229,869.760915 932.630418,868.258464 C933.876846,866.718656 935.112598,865.170257 936.337575,863.613385 C937.53286,862.094251 939.733331,861.831719 941.252466,863.027004 C942.771601,864.222288 943.034133,866.42276 941.838848,867.941895 C940.593905,869.524141 939.338015,871.097773 938.071276,872.662673 Z M974.82675,819.674281 C973.845759,821.339854 971.700295,821.894817 970.034722,820.913826 C968.369149,819.932835 967.814186,817.787371 968.795177,816.121799 C969.801525,814.413174 970.795975,812.697545 971.778447,810.97503 C972.736142,809.295954 974.873668,808.71116 976.552743,809.668856 C978.231819,810.626551 978.816613,812.764077 977.858918,814.443152 C976.86034,816.193905 975.84959,817.937655 974.82675,819.674281 Z M1003.34506,761.784406 C1002.62262,763.577324 1000.58352,764.445116 998.790601,763.722675 C996.997683,763.000233 996.129891,760.961132 996.852332,759.168214 C997.593435,757.328982 998.321727,755.48438 999.037144,753.634527 C999.734389,751.831662 1001.76113,750.935379 1003.564,751.632624 C1005.36686,752.32987 1006.26314,754.35661 1005.5659,756.159476 C1004.83868,758.039833 1004.09838,759.91485 1003.34506,761.784406 Z M1022.908,700.332418 C1022.46101,702.213022 1020.57412,703.375192 1018.69351,702.928198 C1016.81291,702.481204 1015.65074,700.594313 1016.09773,698.713708 C1016.55652,696.78349 1017.00191,694.849487 1017.43387,692.911809 C1017.85445,691.025123 1019.72486,689.836614 1021.61155,690.2572 C1023.49824,690.677785 1024.68675,692.548198 1024.26616,694.434884 C1023.82709,696.404497 1023.37435,698.370379 1022.908,700.332418 Z M1033.10704,636.632392 C1032.94393,638.558495 1031.25029,639.987681 1029.32419,639.82457 C1027.39809,639.661458 1025.9689,637.967815 1026.13201,636.041713 C1026.29934,634.06575 1026.45311,632.08747 1026.59328,630.10697 C1026.72975,628.178797 1028.40347,626.726331 1030.33164,626.862798 C1032.25982,626.999264 1033.71228,628.672986 1033.57581,630.601159 C1033.43337,632.613843 1033.2771,634.624286 1033.10704,636.632392 Z M1033.83633,572.294766 C1033.95546,574.224089 1032.488,575.884685 1030.55868,576.003812 C1028.62936,576.122939 1026.96876,574.655486 1026.84964,572.726164 C1026.72709,570.741495 1026.59091,568.758972 1026.44113,566.778687 C1026.29534,564.851196 1027.73969,563.170469 1029.66718,563.024677 C1031.59467,562.878885 1033.2754,564.323238 1033.42119,566.250729 C1033.57341,568.263182 1033.7118,570.277894 1033.83633,572.294766 Z M1025.11528,508.422729 C1025.51844,510.313216 1024.31272,512.172583 1022.42224,512.575742 C1020.53175,512.978901 1018.67238,511.773184 1018.26922,509.882698 C1017.85609,507.945443 1017.42956,506.011753 1016.98967,504.081735 C1016.56012,502.197071 1017.73972,500.321027 1019.62438,499.891473 C1021.50904,499.46192 1023.38509,500.641521 1023.81464,502.526185 C1024.26178,504.488009 1024.69534,506.45356 1025.11528,508.422729 Z M1006.98527,446.525624 C1007.66584,448.33485 1006.75089,450.35323 1004.94166,451.033803 C1003.13244,451.714375 1001.11406,450.799421 1000.43348,448.990196 C999.733428,447.129177 999.02039,445.273335 998.29443,443.422789 C997.588502,441.623305 998.475004,439.592267 1000.27449,438.886339 C1002.07397,438.180411 1004.10501,439.066913 1004.81094,440.866397 C1005.54887,442.747461 1006.27367,444.63391 1006.98527,446.525624 Z M979.863969,388.075004 C980.805829,389.763013 980.200956,391.894944 978.512946,392.836804 C976.824937,393.778664 974.693007,393.17379 973.751147,391.485781 C972.786041,389.756111 971.808919,388.033206 970.819861,386.317188 C969.854596,384.642452 970.429737,382.502309 972.104473,381.537044 C973.779209,380.57178 975.919352,381.14692 976.884616,382.821656 C977.88989,384.565809 978.883035,386.316966 979.863969,388.075004 Z M944.341611,334.233758 C945.522671,335.763979 945.239619,337.961905 943.709399,339.142964 C942.179178,340.324024 939.981251,340.040972 938.800192,338.510752 C937.586019,336.937627 936.360922,335.372931 935.125,333.816779 C933.922811,332.303102 934.175322,330.101458 935.688999,328.899269 C937.202676,327.69708 939.40432,327.949592 940.606509,329.463269 C941.862577,331.044785 943.107644,332.634988 944.341611,334.233758 Z M901.320346,286.271093 C902.713589,287.610999 902.756828,289.826655 901.416922,291.219898 C900.077016,292.613142 897.861361,292.656381 896.468117,291.316475 C895.039848,289.942884 893.602105,288.579179 892.155001,287.225467 C890.743374,285.904942 890.66952,283.690096 891.990045,282.278469 C893.31057,280.866842 895.525416,280.792989 896.937043,282.113513 C898.407697,283.489255 899.868835,284.875151 901.320346,286.271093 Z M851.652172,245.11145 C853.227619,246.231471 853.596814,248.416578 852.476794,249.992024 C851.356773,251.56747 849.171666,251.936666 847.59622,250.816645 C845.978284,249.666418 844.35239,248.527449 842.718659,247.39983 C841.127804,246.301806 840.728287,244.122038 841.826311,242.531184 C842.924336,240.940329 845.104103,240.540812 846.694958,241.638836 C848.355372,242.784872 850.007818,243.942441 851.652172,245.11145 Z M796.4618,211.743073 C798.185708,212.617499 798.874349,214.723863 797.999924,216.447771 C797.125499,218.171678 795.019134,218.860319 793.295226,217.985894 C791.526032,217.088498 789.750517,216.203434 787.968803,215.330775 C786.232844,214.480526 785.514834,212.383991 786.365083,210.648032 C787.215331,208.912073 789.311866,208.194063 791.047825,209.044311 C792.85883,209.931316 794.663529,210.830928 796.4618,211.743073 Z M736.942688,186.946113 C738.777572,187.554125 739.772148,189.534483 739.164136,191.369366 C738.556124,193.20425 736.575766,194.198825 734.740882,193.590813 C732.85858,192.967089 730.971589,192.356461 729.080023,191.758984 C727.23679,191.176774 726.214529,189.210565 726.796739,187.367332 C727.378949,185.524099 729.345159,184.501838 731.188392,185.084047 C733.11118,185.691386 735.029318,186.312093 736.942688,186.946113 Z M674.342326,171.287894 C676.247349,171.61556 677.526049,173.425511 677.198383,175.330534 C676.870717,177.235557 675.060765,178.514257 673.155743,178.186591 C671.201043,177.85038 669.243199,177.527683 667.282314,177.218535 C665.372901,176.917503 664.069052,175.125583 664.370084,173.216171 C664.671117,171.306759 666.463036,170.002909 668.372448,170.303941 C670.365524,170.618164 672.355519,170.946161 674.342326,171.287894 Z M610.228598,165.09612 C612.161096,165.140011 613.692114,166.742191 613.648223,168.67469 C613.604332,170.607188 612.002152,172.138206 610.069654,172.094315 C608.087586,172.049298 606.103763,172.017806 604.118275,171.99986 C602.185357,171.98239 600.63258,170.401288 600.650051,168.46837 C600.667521,166.535452 602.248623,164.982676 604.181541,165.000146 C606.198926,165.01838 608.214641,165.050379 610.228598,165.09612 Z M545.921688,168.336411 C547.83986,168.097474 549.588543,169.458763 549.827481,171.376935 C550.066418,173.295107 548.705129,175.04379 546.786957,175.282727 C544.812426,175.528685 542.840633,175.788288 540.871678,176.061502 C538.957026,176.327181 537.189519,174.990424 536.92384,173.075773 C536.658161,171.161121 537.994918,169.393614 539.90957,169.127935 C541.910771,168.850247 543.914845,168.586394 545.921688,168.336411 Z M482.696563,181.050448 C484.557882,180.528944 486.489542,181.615078 487.011047,183.476397 C487.532552,185.337716 486.446417,187.269376 484.585098,187.790881 C482.669854,188.327495 480.758861,188.877447 478.852231,189.440686 C476.998431,189.988319 475.051685,188.929462 474.504052,187.075662 C473.956419,185.221862 475.015277,183.275116 476.869077,182.727483 C478.807175,182.154947 480.749709,181.595918 482.696563,181.050448 Z M422.09249,203.035196 C423.855309,202.242134 425.927259,203.028278 426.72032,204.791097 C427.513381,206.553916 426.727237,208.625866 424.964418,209.418927 C423.154298,210.233268 421.350024,211.06022 419.551716,211.899714 C417.800172,212.717376 415.71742,211.960316 414.899757,210.208773 C414.082094,208.45723 414.839154,206.374477 416.590698,205.556814 C418.418601,204.703505 420.252572,203.862942 422.09249,203.035196 Z M365.411709,233.800524 C367.037375,232.754729 369.203022,233.224808 370.248817,234.850473 C371.294611,236.476139 370.824533,238.641786 369.198867,239.687581 C367.52892,240.761862 365.866462,241.847758 364.211612,242.945181 C362.600656,244.013496 360.428678,243.573599 359.360363,241.962643 C358.292048,240.351687 358.731946,238.179708 360.342902,237.111393 C362.024808,235.996028 363.714451,234.892375 365.411709,233.800524 Z M313.904534,272.609683 C315.358193,271.335575 317.569485,271.48113 318.843593,272.934789 C320.117701,274.388448 319.972146,276.599741 318.518487,277.873848 C317.026206,279.181807 315.542983,280.500094 314.068931,281.828605 C312.633049,283.122714 310.419954,283.007785 309.125845,281.571903 C307.831735,280.136022 307.946664,277.922926 309.382546,276.628817 C310.880592,275.278681 312.38796,273.938934 313.904534,272.609683 Z M268.724444,318.519943 C269.975074,317.046037 272.183747,316.865035 273.657654,318.115666 C275.13156,319.366296 275.312561,321.574969 274.061931,323.048875 C272.778265,324.561716 271.505097,326.083416 270.24253,327.613859 C269.012431,329.104943 266.806476,329.316515 265.315392,328.086416 C263.824307,326.856318 263.612735,324.650363 264.842834,323.159278 C266.125967,321.603906 267.419871,320.057422 268.724444,318.519943 Z M230.754015,370.634703 C231.773517,368.992421 233.93132,368.487558 235.573602,369.50706 C237.215885,370.526562 237.720748,372.684365 236.701245,374.326647 C235.654164,376.013357 234.618835,377.707344 233.595346,379.408488 C232.598821,381.064814 230.448261,381.599688 228.791935,380.603163 C227.13561,379.606638 226.600736,377.456078 227.59726,375.799753 C228.637511,374.07075 229.689791,372.349026 230.754015,370.634703 Z M200.89851,427.826049 C201.662827,426.050578 203.721731,425.230876 205.497202,425.995193 C207.272672,426.75951 208.092374,428.818415 207.328057,430.593885 C206.544317,432.414475 205.773257,434.240684 205.014941,436.072395 C204.275551,437.858391 202.228322,438.706832 200.442327,437.967443 C198.656332,437.228053 197.80789,435.180824 198.54728,433.394829 C199.318092,431.532933 200.101857,429.676633 200.89851,427.826049 Z M179.89665,488.80357 C180.38768,486.93398 182.301341,485.816437 184.170931,486.307468 C186.04052,486.798498 187.158063,488.712159 186.667032,490.581749 C186.163186,492.500134 185.672663,494.422544 185.195509,496.34887 C184.730749,498.225162 182.832951,499.369435 180.956658,498.904675 C179.080366,498.439915 177.936093,496.542117 178.400853,494.665824 C178.885877,492.707725 179.384491,490.753603 179.89665,488.80357 Z M168.20983,552.260945 C168.417549,550.339141 170.143868,548.949601 172.065671,549.15732 C173.987475,549.365039 175.377015,551.091359 175.169296,553.013162 C174.956237,554.984367 174.756738,556.958104 174.570829,558.934279 C174.389782,560.858778 172.682899,562.272125 170.7584,562.091077 C168.8339,561.91003 167.420553,560.203147 167.601601,558.278648 C167.790541,556.270253 167.993294,554.264319 168.20983,552.260945 Z M166.002661,616.558533 C165.928002,614.626978 167.433313,613.000621 169.364867,612.925961 C171.296421,612.851302 172.922779,614.356613 172.997438,616.288167 C173.07414,618.272576 173.164427,620.255056 173.268272,622.235515 C173.36949,624.16586 171.886689,625.812766 169.956345,625.913984 C168.026,626.015201 166.379093,624.532401 166.277876,622.602056 C166.17235,620.589551 166.080603,618.575012 166.002661,616.558533 Z M173.237724,680.626615 C172.878903,678.727214 174.12779,676.896564 176.027191,676.537742 C177.926591,676.178921 179.757242,677.427808 180.116063,679.327209 C180.484395,681.276955 180.866219,683.223361 181.261496,685.166321 C181.646852,687.060517 180.423696,688.908458 178.529501,689.293814 C176.635305,689.67917 174.787363,688.456014 174.402007,686.561819 C174.000224,684.586878 173.612116,682.608441 173.237724,680.626615 Z M189.904325,742.910679 C189.266457,741.08596 190.22859,739.089638 192.053309,738.45177 C193.878029,737.813903 195.87435,738.776036 196.512218,740.600755 C197.168266,742.477482 197.8374,744.349288 198.519562,746.216055 C199.183015,748.031628 198.249038,750.041276 196.433466,750.70473 C194.617893,751.368184 192.608244,750.434207 191.944791,748.618634 C191.251374,746.721066 190.571199,744.818374 189.904325,742.910679 Z M215.664601,802.013142 C214.762317,800.303651 215.416688,798.186389 217.126179,797.284105 C218.83567,796.381821 220.952932,797.036192 221.855216,798.745683 C222.779589,800.497025 223.71613,802.24186 224.664763,803.980066 C225.590774,805.676821 224.965962,807.802994 223.269207,808.729005 C221.572451,809.655016 219.446279,809.030204 218.520268,807.333449 C217.556065,805.566714 216.60415,803.793237 215.664601,802.013142 Z M249.916537,856.650161 C248.771287,855.092959 249.10524,852.902189 250.662442,851.756939 C252.219644,850.611689 254.410414,850.945642 255.555664,852.502844 C256.731007,854.100963 257.917436,855.690932 259.114856,857.272631 C260.281592,858.813801 259.978055,861.008992 258.436886,862.175728 C256.895717,863.342465 254.700526,863.038927 253.533789,861.497758 C252.316838,859.890259 251.111055,858.274353 249.916537,856.650161 Z M291.828747,905.609404 C290.466822,904.237677 290.474768,902.021614 291.846496,900.659689 C293.218223,899.297764 295.434286,899.30571 296.796211,900.677437 C298.19311,902.08439 299.599722,903.481673 301.015938,904.869178 C302.396697,906.221945 302.419389,908.437907 301.066622,909.818666 C299.713854,911.199425 297.497893,911.222117 296.117134,909.86935 C294.677875,908.459269 293.248375,907.03925 291.828747,905.609404 Z M340.513377,947.892482 C338.964359,946.736187 338.645995,944.543097 339.80229,942.994079 C340.958585,941.445061 343.151675,941.126696 344.700693,942.282992 C346.291046,943.470142 347.889601,944.646235 349.49624,945.811176 C351.061155,946.945864 351.409923,949.134325 350.275236,950.69924 C349.140548,952.264155 346.952087,952.612923 345.387172,951.478235 C343.754314,950.294284 342.129676,949.099001 340.513377,947.892482 Z M394.886666,982.523584 C393.183719,981.60901 392.544616,979.487089 393.45919,977.784142 C394.373764,976.081194 396.495685,975.442092 398.198632,976.356666 C399.944943,977.294528 401.697821,978.22023 403.457147,979.133694 C405.172686,980.024425 405.841326,982.137224 404.950596,983.852763 C404.059866,985.568303 401.947067,986.236943 400.231527,985.346212 C398.443309,984.417746 396.661648,983.476844 394.886666,982.523584 Z M453.84407,1008.72536 C452.023947,1008.07449 451.076081,1006.07136 451.726952,1004.25123 C452.377822,1002.43111 454.380956,1001.48325 456.201078,1002.13412 C458.067752,1002.80163 459.939363,1003.45616 461.815797,1004.09763 C463.644866,1004.72292 464.620728,1006.71256 463.995444,1008.54163 C463.37016,1010.3707 461.380513,1011.34656 459.551443,1010.72128 C457.644042,1010.06922 455.741545,1009.40389 453.84407,1008.72536 Z M516.03322,1025.84069 C514.136398,1025.46848 512.900455,1023.62907 513.272665,1021.73225 C513.644875,1019.83543 515.48429,1018.59948 517.381112,1018.97169 C519.326937,1019.35352 521.276138,1019.72188 523.228611,1020.07673 C525.130453,1020.42238 526.391997,1022.24433 526.046349,1024.14617 C525.7007,1026.04801 523.878749,1027.30955 521.976907,1026.96391 C519.992324,1026.60322 518.01106,1026.2288 516.03322,1025.84069 Z" id="Oval-Copy-4" fill="#FFB600" fill-rule="nonzero"></path>
    </g>
</svg>