<?xml version="1.0" encoding="UTF-8"?>
<svg width="1200px" height="1200px" viewBox="0 0 1200 1200" version="1.1" xmlns="http://www.w3.org/2000/svg" xmlns:xlink="http://www.w3.org/1999/xlink">
    <!-- Generator: Sketch 52.2 (67145) - http://www.bohemiancoding.com/sketch -->
    <title>round1</title>
    <desc>Created with Sketch.</desc>
    <g id="round1" stroke="none" stroke-width="1" fill="none" fill-rule="evenodd">
        <path d="M600.443314,917.147576 C598.510318,917.147576 596.943314,915.580572 596.943314,913.647576 C596.943314,911.714579 598.510318,910.147576 600.443314,910.147576 C602.420911,910.147576 604.396334,910.129151 606.369422,910.092345 C608.302082,910.056293 609.898039,911.593798 609.934091,913.526459 C609.970143,915.459119 608.432638,917.055076 606.499978,917.091128 C604.483377,917.128746 602.464433,917.147576 600.443314,917.147576 Z M664.734765,910.65507 C662.841144,911.043237 660.991389,909.822824 660.603222,907.929203 C660.215055,906.035581 661.435467,904.185826 663.329089,903.79766 C665.271443,903.399503 667.208995,902.9829 669.141546,902.547929 C671.027366,902.123476 672.900212,903.308147 673.324665,905.193967 C673.749118,907.079786 672.564446,908.952632 670.678627,909.377086 C668.702376,909.821892 666.72102,910.247914 664.734765,910.65507 Z M726.411102,891.266179 C724.635997,892.031345 722.576701,891.212628 721.811534,889.437524 C721.046368,887.662419 721.865085,885.603123 723.64019,884.837956 C725.454074,884.056074 727.26024,883.256937 729.058467,882.440669 C730.81861,881.641688 732.89319,882.420865 733.692171,884.181008 C734.491152,885.941152 733.711976,888.015732 731.951832,888.814713 C730.112972,889.649425 728.265987,890.466624 726.411102,891.266179 Z M782.803306,859.807375 C781.219403,860.915403 779.037161,860.52963 777.929133,858.945727 C776.821105,857.361824 777.206878,855.179582 778.790781,854.071554 C780.409323,852.939294 782.017115,851.791686 783.613936,850.628901 C785.17654,849.491033 787.365706,849.83535 788.503574,851.397954 C789.641442,852.960558 789.297126,855.149724 787.734521,856.287592 C786.10193,857.476423 784.458117,858.649743 782.803306,859.807375 Z M831.766117,817.58246 C830.437153,818.986145 828.221904,819.046719 826.818219,817.717755 C825.414534,816.388791 825.35396,814.173542 826.682924,812.769857 C828.042712,811.333614 829.388875,809.884535 830.721214,808.422828 C832.023368,806.994237 834.237074,806.89174 835.665665,808.193894 C837.094255,809.496048 837.196752,811.709754 835.894599,813.138344 C834.532501,814.632699 833.156273,816.114142 831.766117,817.58246 Z M871.189295,766.475878 C870.169329,768.117872 868.011384,768.622126 866.36939,767.60216 C864.727395,766.582194 864.223142,764.424248 865.243108,762.782254 C866.287108,761.101569 867.315084,759.410968 868.326878,757.710678 C869.315371,756.049546 871.463316,755.504265 873.124448,756.492757 C874.785579,757.48125 875.330861,759.629195 874.342368,761.290327 C873.30783,763.028836 872.256752,764.75743 871.189295,766.475878 Z M899.537241,708.372886 C898.871315,710.187554 896.860397,711.118794 895.045729,710.452868 C893.231062,709.786943 892.299822,707.776025 892.965747,705.961357 C893.646982,704.104972 894.310523,702.241732 894.956262,700.371851 C895.587234,698.544736 897.579907,697.575069 899.407022,698.206041 C901.234138,698.837012 902.203804,700.829685 901.572833,702.656801 C900.912469,704.56903 900.233901,706.474465 899.537241,708.372886 Z M915.489925,645.710189 C915.206696,647.622324 913.427002,648.942812 911.514868,648.659583 C909.602734,648.376354 908.282245,646.59666 908.565474,644.684526 C908.85509,642.729273 909.126248,640.770053 909.378883,638.807052 C909.625622,636.889868 911.379829,635.535704 913.297013,635.782443 C915.214197,636.029182 916.568361,637.783388 916.321622,639.700573 C916.06331,641.707686 915.786055,643.710956 915.489925,645.710189 Z M918.46976,581.131999 C918.574392,583.062162 917.094507,584.711689 915.164345,584.816322 C913.234182,584.920954 911.584655,583.441069 911.480022,581.510906 C911.372912,579.535025 911.247278,577.561976 911.103171,575.591932 C910.962151,573.664087 912.41066,571.98694 914.338505,571.84592 C916.266351,571.7049 917.943498,573.153408 918.084518,575.081254 C918.231835,577.09519 918.360267,579.112164 918.46976,581.131999 Z M908.462305,517.309706 C908.954609,519.17896 907.83837,521.093382 905.969116,521.585686 C904.099861,522.07799 902.18544,520.961751 901.693136,519.092497 C901.188236,517.175418 900.665087,515.263919 900.123778,513.358209 C899.595612,511.498769 900.674823,509.563232 902.534263,509.035066 C904.393703,508.506901 906.32924,509.586112 906.857406,511.445552 C907.410974,513.394425 907.945972,515.349214 908.462305,517.309706 Z M885.708481,456.836811 C886.57027,458.56707 885.866236,460.66834 884.135977,461.530129 C882.405718,462.391918 880.304448,461.687884 879.44266,459.957625 C878.560393,458.186253 877.661248,456.423453 876.745361,454.66945 C875.850644,452.955987 876.514368,450.841638 878.227831,449.946921 C879.941294,449.052203 882.055643,449.715927 882.95036,451.42939 C883.886895,453.222937 884.806316,455.025487 885.708481,456.836811 Z M851.167014,402.207857 C852.36019,403.728649 852.094606,405.928754 850.573815,407.121931 C849.053024,408.315107 846.852918,408.049523 845.659742,406.528732 C844.440002,404.974085 843.20554,403.430995 841.956537,401.89968 C840.734772,400.401759 840.958641,398.197019 842.456562,396.975254 C843.954483,395.753489 846.159223,395.977358 847.380988,397.475278 C848.657921,399.040836 849.919992,400.618436 851.167014,402.207857 Z M806.327974,355.629215 C807.80223,356.879433 807.983849,359.088055 806.733631,360.562311 C805.483414,362.036568 803.274791,362.218187 801.800535,360.967969 C800.290567,359.687466 798.768504,358.421321 797.234565,357.169721 C795.736862,355.947689 795.513388,353.742908 796.73542,352.245205 C797.957453,350.747503 800.162233,350.524028 801.659936,351.746061 C803.228169,353.025642 804.784255,354.320091 806.327974,355.629215 Z M753.120352,319.059014 C754.816058,319.986946 755.438462,322.113825 754.51053,323.809531 C753.582598,325.505237 751.45572,326.127641 749.760014,325.199709 C748.025927,324.250774 746.282768,323.31837 744.530762,322.402641 C742.817655,321.507243 742.15477,319.392631 743.050168,317.679523 C743.945567,315.966416 746.060178,315.303531 747.773286,316.198929 C749.564773,317.135294 751.347205,318.088705 753.120352,319.059014 Z M693.559852,293.976006 C695.408633,294.540349 696.449876,296.496573 695.885533,298.345355 C695.321189,300.194136 693.364965,301.235379 691.516184,300.671035 C689.625531,300.093911 687.728835,299.534774 685.826305,298.993722 C683.967032,298.46497 682.88843,296.529094 683.417182,294.66982 C683.945933,292.810547 685.88181,291.731945 687.741083,292.260697 C689.686709,292.814005 691.62637,293.385808 693.559852,293.976006 Z M630.098614,281.510141 C632.023421,281.687886 633.439695,283.392341 633.26195,285.317148 C633.084205,287.241955 631.37975,288.658229 629.454943,288.480484 C627.486814,288.298739 625.515434,288.135491 623.540981,287.990796 C621.613154,287.849517 620.164871,286.172176 620.306149,284.244349 C620.447428,282.316522 622.12477,280.868239 624.052596,281.009517 C626.071107,281.157442 628.086507,281.324334 630.098614,281.510141 Z M565.454519,282.047774 C567.376075,281.837781 569.104037,283.225278 569.314029,285.146834 C569.524022,287.068391 568.136525,288.796353 566.214969,289.006345 C564.251549,289.220913 562.291643,289.453941 560.335436,289.70537 C558.418211,289.951789 556.66423,288.597333 556.417812,286.680107 C556.171393,284.762882 557.525849,283.008901 559.443075,282.762483 C561.443195,282.505409 563.447072,282.267153 565.454519,282.047774 Z M502.278269,295.563405 C504.11734,294.968179 506.090728,295.976515 506.685953,297.815586 C507.281179,299.654658 506.272842,301.628045 504.433771,302.22327 C502.553943,302.831687 500.680454,303.45797 498.813518,304.102018 C496.986199,304.732398 494.993839,303.762087 494.363459,301.934768 C493.733078,300.107448 494.703389,298.115089 496.530709,297.484708 C498.439932,296.826073 500.355858,296.185603 502.278269,295.563405 Z M443.170557,321.623563 C444.850672,320.667691 446.987561,321.254806 447.943433,322.93492 C448.899304,324.615035 448.31219,326.751924 446.632075,327.707796 C444.911414,328.686736 443.200161,329.682065 441.498541,330.693633 C439.836973,331.681391 437.689269,331.135159 436.701511,329.473591 C435.713753,327.812022 436.259985,325.664318 437.921553,324.67656 C439.66144,323.642245 441.411185,322.624527 443.170557,321.623563 Z M390.510725,359.120489 C391.963909,357.845839 394.175255,357.99057 395.449905,359.443754 C396.724555,360.896937 396.579824,363.108284 395.126641,364.382934 C393.638909,365.687887 392.163552,367.006925 390.700783,368.339855 C389.272008,369.641807 387.058317,369.538997 385.756365,368.110223 C384.454413,366.681448 384.557223,364.467757 385.985997,363.165805 C387.481442,361.803101 388.989757,360.454596 390.510725,359.120489 Z M346.506022,406.373924 C347.67402,404.83371 349.869459,404.53197 351.409672,405.699968 C352.949885,406.867966 353.251625,409.063405 352.083628,410.603618 C350.889616,412.178135 349.710567,413.763915 348.546657,415.360738 C347.40807,416.922818 345.218746,417.266128 343.656665,416.127541 C342.094585,414.988954 341.751275,412.799631 342.889862,411.23755 C344.079835,409.604971 345.285282,407.983687 346.506022,406.373924 Z M312.876026,461.556387 C313.709053,459.812099 315.79838,459.073375 317.542668,459.906402 C319.286956,460.739429 320.02568,462.828756 319.192652,464.573045 C318.340503,466.357374 317.505374,468.149954 316.687395,469.950561 C315.887904,471.710473 313.813097,472.489047 312.053186,471.689555 C310.293274,470.890064 309.5147,468.815258 310.314191,467.055346 C311.150646,465.214067 312.004635,463.381005 312.876026,461.556387 Z M291.118133,522.443486 C291.579054,520.566246 293.474507,519.418093 295.351747,519.879014 C297.228986,520.339934 298.377139,522.235388 297.916219,524.112627 C297.444688,526.03308 296.991396,527.958789 296.556425,529.889551 C296.131599,531.775287 294.258518,532.959588 292.372783,532.534761 C290.487047,532.109935 289.302747,530.236854 289.727573,528.351119 C290.172383,526.376678 290.635932,524.407398 291.118133,522.443486 Z M282.171433,586.481661 C282.243991,584.550027 283.86871,583.042948 285.800345,583.115506 C287.731979,583.188064 289.239058,584.812783 289.1665,586.744417 C289.092324,588.719125 289.036607,590.696403 288.999394,592.676084 C288.963066,594.60874 287.366889,596.146016 285.434234,596.109687 C283.501579,596.073359 281.964302,594.477182 282.000631,592.544527 C282.038666,590.5211 282.095615,588.500087 282.171433,586.481661 Z M286.223489,650.985862 C285.908172,649.078756 287.198572,647.277128 289.105678,646.961811 C291.012783,646.646495 292.814412,647.936895 293.129729,649.844 C293.452058,651.793523 293.792799,653.7388 294.151879,655.679638 C294.503541,657.580377 293.247765,659.406309 291.347026,659.757971 C289.446286,660.109632 287.620355,658.853857 287.268693,656.953117 C286.901511,654.96849 286.553085,652.979338 286.223489,650.985862 Z M303.224985,713.353917 C302.528611,711.550715 303.425872,709.524407 305.229074,708.828033 C307.032277,708.131658 309.058584,709.02892 309.754959,710.832122 C310.467618,712.677494 311.197855,714.515696 311.945553,716.346508 C312.676384,718.136022 311.818152,720.179166 310.028638,720.909998 C308.239124,721.640829 306.19598,720.782597 305.465148,718.993083 C304.700534,717.120849 303.953773,715.241052 303.224985,713.353917 Z M332.503255,770.911096 C331.456391,769.286119 331.925043,767.120164 333.55002,766.073299 C335.174997,765.026434 337.340953,765.495087 338.387818,767.120064 C339.458261,768.781641 340.544487,770.433018 341.646333,772.073972 C342.723893,773.678759 342.296491,775.853231 340.691705,776.930791 C339.086918,778.008351 336.912446,777.580949 335.834886,775.976163 C334.708322,774.298395 333.597722,772.609964 332.503255,770.911096 Z M372.846981,821.452939 C371.494671,820.071732 371.518097,817.855778 372.899305,816.503468 C374.280512,815.151158 376.496465,815.174584 377.848775,816.555791 C379.23108,817.967634 380.626711,819.366385 382.035464,820.75184 C383.413648,822.107231 383.432126,824.323231 382.076735,825.701415 C380.721344,827.079599 378.505344,827.098077 377.127159,825.742686 C375.686948,824.326294 374.260153,822.896309 372.846981,821.452939 Z M422.426551,862.792617 C420.824571,861.710889 420.402825,859.535313 421.484553,857.933333 C422.566282,856.331354 424.741858,855.909607 426.343837,856.991336 C427.984195,858.098979 429.635044,859.190989 431.296159,860.267199 C432.918434,861.318245 433.381506,863.485401 432.33046,865.107676 C431.279413,866.729951 429.112258,867.193024 427.489983,866.141977 C425.791592,865.041617 424.103705,863.925107 422.426551,862.792617 Z M479.391712,893.336381 C477.603965,892.601236 476.750663,890.556029 477.485807,888.768282 C478.220952,886.980535 480.26616,886.127233 482.053906,886.862378 C483.882958,887.614507 485.719436,888.349192 487.563119,889.066316 C489.364636,889.767038 490.257007,891.795504 489.556285,893.597021 C488.855562,895.398538 486.827096,896.290909 485.025579,895.590187 C483.140174,894.856835 481.262143,894.105527 479.391712,893.336381 Z M541.390819,911.683075 C539.490928,911.326861 538.23953,909.497926 538.595745,907.598034 C538.95196,905.698143 540.780895,904.446746 542.680786,904.80296 C544.624031,905.167303 546.571761,905.51325 548.523784,905.840728 C550.43014,906.160545 551.716284,907.965215 551.396467,909.871571 C551.076649,911.777927 549.27198,913.064071 547.365624,912.744253 C545.369583,912.40939 543.377915,912.05564 541.390819,911.683075 Z" id="Oval-Copy-3" fill="#FFB600" fill-rule="nonzero"></path>
    </g>
</svg>